<svg width="40" height="38" viewBox="0 0 40 38" fill="none" xmlns="http://www.w3.org/2000/svg">
<g clip-path="url(#clip0_331_185)">
<path d="M20 0.444336C8.95508 0.444336 0 8.73607 0 18.9629C0 29.1896 8.95508 37.4814 20 37.4814C31.0448 37.4814 40 29.1896 40 18.9629C40 8.73607 31.0448 0.444336 20 0.444336ZM27.4267 19.1725L16.1767 25.3896C16.0962 25.4349 15.9936 25.4371 15.9106 25.3918C15.8301 25.3488 15.7788 25.2687 15.7788 25.1794V18.9622V12.745C15.7788 12.6569 15.8301 12.5756 15.9106 12.5325C15.9936 12.4885 16.0962 12.4907 16.1767 12.5348L27.4267 18.7531C27.5073 18.7955 27.5549 18.8774 27.5549 18.9621C27.5549 19.0487 27.5073 19.129 27.4267 19.1725Z" fill="#190C40"/>
<path d="M27.4267 19.1725L16.1767 25.3896C16.0962 25.4349 15.9936 25.4371 15.9106 25.3918C15.8301 25.3488 15.7788 25.2687 15.7788 25.1794V18.9622V12.745C15.7788 12.6569 15.8301 12.5756 15.9106 12.5325C15.9936 12.4885 16.0962 12.4907 16.1767 12.5348L27.4267 18.7531C27.5073 18.7955 27.5549 18.8774 27.5549 18.9621C27.5549 19.0487 27.5073 19.129 27.4267 19.1725Z" fill="white"/>
</g>
<defs>
<clipPath id="clip0_331_185">
<rect width="40" height="37.037" fill="white" transform="translate(0 0.444336)"/>
</clipPath>
</defs>
</svg>
