<svg width="166" height="267" viewBox="0 0 166 267" fill="none" xmlns="http://www.w3.org/2000/svg">
<g clip-path="url(#clip0_118_15)">
<path d="M80.8049 265.555C82.9129 265.004 85.1021 263.521 86.6516 261.558C87.5812 260.379 88.2487 260.403 89.604 261.654C90.1921 262.196 90.6519 262.716 90.6515 262.82C90.6509 262.944 90.8289 263.339 91.0582 263.734C91.5422 264.587 92.5671 265.069 93.8253 265.074C94.5955 265.078 95.0074 264.852 96.7338 263.511C98.5376 262.088 98.7439 261.882 98.7472 261.156C98.7494 260.658 98.5208 260.118 98.1887 259.743C97.882 259.41 97.4999 258.744 97.3223 258.266C96.942 257.186 95.5857 256.164 94.533 256.159C94.0195 256.157 93.3248 256.465 92.2947 257.144C91.4705 257.701 90.5436 258.256 90.235 258.38C89.6433 258.626 88.5388 258.704 88.3087 258.495C88.1808 258.391 89.3314 253.771 89.9301 251.969C90.1121 251.451 90.3702 251.162 90.627 251.163C91.4743 251.167 92.7532 252.251 93.5175 253.582C94.1288 254.684 94.41 254.976 95.179 255.249C96.4096 255.67 97.9517 255.345 98.5715 254.559C98.8297 254.249 99.5773 253.589 100.247 253.053C101.69 251.96 101.848 251.172 100.929 249.965C100.622 249.57 100.138 248.78 99.8327 248.197C99.451 247.428 99.0675 247.053 98.4012 246.76C97.1712 246.215 96.5285 246.378 94.4425 247.758C93.1033 248.644 92.5116 248.89 91.844 248.887C91.2535 248.885 90.9715 248.78 90.9724 248.572C90.9743 248.157 92.5405 242.481 92.8255 241.902C92.9551 241.633 93.2128 241.427 93.4182 241.428C94.0345 241.43 95.7479 242.973 96.0777 243.846C96.5088 245.051 97.3792 245.635 98.9192 245.767C100.049 245.855 100.254 245.814 100.821 245.298C101.595 244.596 102.265 244.081 103.295 243.339C104.377 242.535 104.408 241.477 103.335 240.207C102.926 239.707 102.57 239.084 102.571 238.855C102.575 237.818 100.655 236.71 99.344 236.974C98.9842 237.056 98.1348 237.508 97.4907 237.982C96.2284 238.91 95.1736 239.361 94.3519 239.358C93.9668 239.356 93.8391 239.21 93.8412 238.733C93.844 238.111 95.3345 232.144 95.5669 231.855C96.006 231.276 97.8227 232.695 98.7396 234.337C99.351 235.419 99.6578 235.71 100.401 235.963C101.529 236.362 102.377 236.2 103.305 235.457C104.31 234.611 104.491 234.488 105.65 233.601C106.912 232.673 107.045 231.824 106.125 230.699C105.793 230.304 105.386 229.576 105.234 229.098C104.828 227.956 103.651 227.162 102.418 227.157C101.648 227.153 101.185 227.338 100.103 228.1C98.6605 229.11 97.0144 229.725 96.6051 229.391C96.4515 229.287 96.5847 228.209 96.9771 226.593C97.7624 223.278 97.7369 223.236 94.5075 221.936C91.9958 220.908 91.1252 220.365 90.3084 219.283C89.798 218.596 89.7728 218.471 90.1022 208.061C90.4621 196.572 90.8553 183.382 91.3392 167.165C91.5192 161.4 91.7917 152.213 91.9447 146.738C92.0978 141.263 92.3709 131.93 92.5517 125.999C93.2495 102.192 93.4508 97.422 93.7344 97.1536C94.2503 96.6374 96.5375 96.1914 97.9492 96.3222C100.362 96.5405 102.026 97.5228 103.583 99.7077C104.91 101.539 105.239 102.66 106.112 108.347C106.586 111.419 107.086 114.346 107.264 114.824C107.618 115.945 108.511 117.194 109.509 117.966C110.405 118.654 110.504 119.298 109.859 120.083C109.497 120.538 109.497 120.641 109.83 120.913C110.034 121.079 110.701 121.248 111.343 121.272L112.472 121.319L112.477 120.281L112.482 119.244L114.154 118.609C116.494 117.707 118.273 116.139 119.696 113.718C121.921 109.974 122.839 105.768 122.633 100.229C122.475 95.4164 121.542 91.5336 118.777 84.075C116.748 78.5488 116.167 76.4098 115.999 73.8371C115.638 68.3391 117.069 64.2803 122.656 55.0757C130.391 42.2925 131.378 39.9739 131.662 33.7736C131.777 31.0778 131.73 30.2479 131.301 28.5659C130.09 23.7693 126.059 18.0058 121.325 14.3963C114.979 9.51425 106.442 6.48906 91.5871 3.85024C88.5854 3.29744 86.0199 2.80884 85.8918 2.74604C85.533 2.57849 85.6117 2.22625 86.1015 1.79289C86.514 1.42141 86.5142 1.37993 86.0281 0.983656C85.3628 0.46213 83.7719 0.22681 83.2054 0.597599C82.9221 0.782993 82.8438 1.05228 82.9701 1.52989C83.0454 1.90357 82.9925 2.25593 82.8637 2.33832C82.7094 2.39984 80.1938 2.24332 77.2678 1.98125C69.4396 1.26152 58.0906 1.21039 53.697 1.83358C49.5603 2.43717 46.3473 3.19012 44.2635 4.0726C42.3084 4.89344 39.1909 7.24389 37.6935 9.04162C34.0016 13.5051 33.787 21.2406 37.1457 28.0588C38.3415 30.4909 39.8462 32.7792 43.8023 38.0653C47.5539 43.143 49.2367 45.7847 50.0486 47.9455C50.5563 49.2337 50.6303 49.9185 50.6201 52.1792L50.5823 54.8754L47.7266 61.8108C43.6251 71.6859 42.7619 75.208 43.0189 80.8715C43.2303 85.2281 44.3727 88.137 46.7254 90.2632C48.6944 92.0558 50.7207 92.542 52.4195 91.637C53.629 91.0202 54.2503 89.903 55.6035 85.906C56.9825 81.8885 57.9399 80.2542 59.6665 78.8724C61.7538 77.2017 64.3487 76.8608 68.0678 77.7694C70.4274 78.3608 72.0381 79.9029 73.0532 82.5624C73.3832 83.4142 73.4751 85.7999 73.6619 95.632C73.7862 102.249 73.9986 112.102 74.1026 117.516C74.2065 122.93 74.3956 132.264 74.5226 138.259C74.6497 144.254 74.8377 153.816 74.9404 159.521C75.0431 165.225 75.2311 174.787 75.3582 180.782C75.4595 186.777 75.6475 196.339 75.7759 202.044C75.8786 207.748 76.0031 214.303 76.0183 216.626L76.025 220.836L75.0198 221.682C73.4733 223.003 73.1127 223.25 71.311 224.196C68.3254 225.779 68.0925 226.172 68.6191 228.975C69.07 231.487 70.9427 237.551 71.9598 239.775C72.3922 240.69 73.3588 242.706 74.122 244.286C75.8269 247.716 76.2563 249.294 75.6883 249.997C75.301 250.472 73.9117 251.067 72.3438 251.434C71.367 251.657 70.6697 252.567 71.0781 253.108C71.3079 253.379 71.3061 253.793 71.097 254.601C70.6787 256.259 71.2252 260.347 72.0149 261.74C73.7726 264.86 77.4373 266.432 80.8049 265.555ZM80.0203 257.338C79.2786 256.671 79.3866 255.51 80.2622 254.933C81.0864 254.356 81.8569 254.318 82.6765 254.778C83.829 255.447 83.8997 256.837 82.7926 257.516C82.0975 257.907 80.5573 257.817 80.0203 257.338ZM82.9912 247.624C82.1469 246.935 82.0972 246.583 82.6401 245.755C83.0538 245.114 83.4913 244.909 84.467 244.913C85.4427 244.918 86.0317 245.252 86.3367 245.959C86.6413 246.728 86.3556 247.452 85.5319 247.905C84.6567 248.399 83.8355 248.291 82.9912 247.624ZM85.629 237.763C84.0432 236.387 86.1069 234.26 88.1826 235.182C88.4389 235.287 88.7967 235.661 88.9749 236.015C89.8148 237.657 87.138 239.076 85.629 237.763ZM74.2764 232.817C73.1772 231.733 74.1601 230.141 75.9317 230.149C77.0615 230.154 77.9568 230.904 77.9528 231.796C77.9205 233.269 75.4524 233.963 74.2764 232.817ZM88.3689 228.027C87.0129 226.942 87.9194 225.225 89.8194 225.233C90.564 225.237 90.8973 225.363 91.3062 225.779C92.9163 227.446 90.1852 229.528 88.3689 228.027ZM78.1069 214.686C77.3627 214.599 76.8241 214.452 76.9015 214.369C77.0824 214.121 88.8165 214.174 88.8154 214.423C88.8148 214.547 88.4291 214.67 87.9667 214.709C86.5539 214.848 79.5185 214.816 78.1069 214.686ZM76.6931 203.624C76.4122 203.291 77.6965 203.193 82.9602 203.217C85.8616 203.23 88.4803 203.304 88.7881 203.367C90.3528 203.727 88.5291 203.864 82.9573 203.839C79.5937 203.824 76.7697 203.728 76.6931 203.624ZM76.329 193.252C76.3295 193.148 76.5868 193.025 76.8953 192.943C77.6664 192.781 88.091 192.828 88.8348 192.997C90.4765 193.357 88.8069 193.495 82.8757 193.468C79.2553 193.452 76.3286 193.356 76.329 193.252ZM76.0144 183.295C75.9378 183.211 76.7601 183.07 77.8389 182.992C82.0253 182.741 90.1381 182.985 89.8283 183.357C89.7508 183.46 86.6436 183.529 82.9205 183.513C79.1975 183.496 76.091 183.399 76.0144 183.295ZM76.4661 174.233C76.1583 174.149 75.9021 174.023 75.9026 173.919C75.9037 173.67 89.9487 173.734 90.153 173.983C90.2296 174.087 90.0748 174.232 89.8436 174.272C89.1497 174.414 77.133 174.381 76.4661 174.233ZM75.685 165.228C75.6856 165.103 78.3306 165.032 83.1321 165.054C87.9336 165.075 90.5779 165.17 90.5773 165.295C90.5767 165.419 87.9317 165.49 83.1302 165.469C78.3287 165.447 75.6844 165.352 75.685 165.228ZM75.6196 156.952C75.3388 156.577 76.4175 156.52 83.1704 156.55C89.9746 156.581 91.2838 156.67 90.5632 157.019C90.0999 157.266 75.7983 157.181 75.6196 156.952ZM75.2443 149.048C75.2449 148.923 78.0697 148.853 83.205 148.876C88.3402 148.899 91.1643 148.995 91.1637 149.119C91.1631 149.244 88.3384 149.314 83.2031 149.291C78.0678 149.268 75.2438 149.172 75.2443 149.048ZM75.6105 141.873C75.277 141.788 75.0979 141.663 75.1754 141.56C75.3562 141.312 91.1215 141.383 91.3258 141.633C91.4024 141.737 91.1963 141.881 90.888 141.921C89.963 142.062 76.2518 142 75.6105 141.873ZM77.1572 134.807C72.7421 134.518 75.362 134.322 83.2704 134.358C88.2773 134.38 91.4864 134.478 91.4859 134.602C91.4854 134.706 90.8173 134.827 89.9954 134.865C87.2475 134.977 79.2877 134.962 77.1572 134.807ZM74.8251 128.118C74.8264 127.828 77.3177 127.694 83.1976 127.72C89.1802 127.747 92.1066 127.905 91.8742 128.195C91.6934 128.443 74.824 128.367 74.8251 128.118ZM74.7504 121.895C74.4696 121.541 76.2416 121.466 83.3283 121.498C87.2568 121.516 90.7998 121.594 91.2617 121.659C93.3913 122.021 91.0284 122.155 83.3255 122.121C78.6781 122.1 74.827 121.999 74.7504 121.895ZM74.6234 115.9C74.6244 115.672 79.2472 115.465 83.3554 115.484C84.973 115.491 87.6174 115.565 89.1833 115.655C94.7539 115.929 92.0055 116.145 83.3526 116.106C78.5511 116.084 74.623 115.983 74.6234 115.9ZM74.546 110.279C74.2396 109.905 75.3953 109.848 83.3806 109.884C91.3917 109.92 92.7779 109.988 92.0573 110.358C91.594 110.605 74.7247 110.508 74.546 110.279ZM76.5205 105.165C75.237 105.076 74.2363 104.927 74.3137 104.844C74.4946 104.596 92.3139 104.697 92.5182 104.947C92.5947 105.051 91.9266 105.172 90.925 105.209C87.5609 105.319 78.8308 105.3 76.5205 105.165ZM74.181 100.094C74.1816 99.9693 77.4429 99.901 83.4255 99.928C89.4081 99.9549 92.6686 100.053 92.668 100.177C92.6675 100.301 89.4062 100.37 83.4236 100.343C77.441 100.316 74.1805 100.218 74.181 100.094ZM73.9457 95.3429C73.9471 95.0318 76.541 94.9191 83.4479 94.9502C90.4062 94.9815 93.0503 95.1179 92.7921 95.4278C92.6113 95.6759 73.9446 95.5918 73.9457 95.3429ZM74.0934 91.0502C72.914 90.6715 75.0714 90.5568 83.3905 90.5943C92.1975 90.634 93.6608 90.7028 92.9145 91.0728C92.5284 91.2784 74.7345 91.2397 74.0934 91.0502ZM48.2514 87.8019C47.4073 87.0721 46.9486 86.3026 46.2886 84.6196C45.3244 82.0641 45.2013 80.8813 45.5262 77.1701C46.0668 71.1576 46.6936 68.8167 49.3633 63.2701C52.8108 56.0677 53.5924 53.5615 53.6092 49.8282C53.6154 48.4593 53.7233 47.2983 53.8263 47.2365C53.955 47.1749 55.8306 46.893 58.0144 46.6124C63.8722 45.8507 63.6923 45.8913 65.0085 44.4039C65.6279 43.7015 66.8674 42.1515 67.7715 40.9526C68.6756 39.7537 69.5278 38.679 69.6825 38.5345C69.8886 38.3695 70.4022 38.3718 71.5057 38.5012C72.3525 38.6087 78.1265 39.3399 84.337 40.0938C90.5473 40.8685 96.3981 41.6415 97.373 41.8326C101.273 42.5761 104.316 45.2654 105.353 48.8376C106.364 52.4096 105.424 55.7862 100.524 66.1969C98.9167 69.6327 98.4742 70.9789 97.9199 74.3157L97.6038 76.098L98.9222 79.8166C99.6577 81.8526 100.315 84.0956 100.389 84.8011C100.486 86.0253 100.46 86.1081 99.7128 86.7063C99.0427 87.2633 98.7342 87.3448 97.6045 87.3397C96.1923 87.3334 94.8848 86.8919 93.528 85.9732C92.8113 85.4722 92.7351 85.2852 92.7396 84.2896L92.7447 83.1696L83.6552 83.1287C78.6483 83.1061 74.3607 83.0246 74.1298 82.9613C72.9247 82.5825 75.1335 82.468 83.5553 82.506L92.7475 82.5474L92.7545 80.9918L92.7615 79.4363L83.1585 79.393C77.8692 79.3692 73.4789 79.2664 73.4023 79.1624C73.1726 78.8502 76.4855 78.7407 84.7276 78.7778L92.7643 78.8141L92.7708 77.3622L92.7774 75.9103L82.6609 75.8648L72.5187 75.8191L70.9301 75.0652C68.5218 73.8929 66.8546 73.4913 64.4153 73.4803C62.6181 73.4515 62.0528 73.5319 60.7155 74.0029C57.655 75.1091 55.2032 77.8774 53.3339 82.432C52.685 83.9847 52.1651 85.3928 52.1645 85.538C52.1613 86.2431 51.5397 87.4433 50.9471 87.8762C50.0455 88.5359 49.0699 88.5107 48.2514 87.8019ZM73.8813 86.8388C73.6004 86.4849 75.4238 86.4102 83.4862 86.4465C87.9796 86.4667 91.9848 86.547 92.4467 86.6113C94.6276 86.9737 92.1107 87.1076 83.4834 87.0687C78.2711 87.0452 73.9578 86.9428 73.8813 86.8388ZM60.2034 45.1911C58.178 44.4976 57.5962 42.566 59.0142 41.2865C59.7102 40.6674 59.9159 40.6061 61.2254 40.612C62.5349 40.6179 62.74 40.681 63.4305 41.3064C64.8113 42.5778 64.2378 44.5041 62.2575 45.2004C61.2545 45.5485 61.2288 45.5484 60.2034 45.1911ZM54.102 37.3442C53.2068 36.5521 53.2355 35.8885 54.1637 35.0423C54.7567 34.5057 55.091 34.3827 55.8612 34.4069C57.1449 34.4335 58.0404 35.1427 58.036 36.1382C58.0274 38.0464 55.7132 38.7619 54.102 37.3442ZM69.7388 37.4354L69.0721 37.225L69.0939 32.3924C69.1096 28.908 69.193 27.498 69.4249 27.3123C69.6568 27.1267 73.2005 27.0805 83.8048 27.1282C97.439 27.1897 97.8754 27.2124 98.1304 27.5868C98.4108 28.0444 98.4479 36.9218 98.1382 37.273C98.0349 37.397 97.7774 37.5618 97.5717 37.623C96.8775 37.8273 70.431 37.6667 69.7388 37.4354ZM48.9729 30.2484C48.3854 29.5613 48.491 28.9188 49.2378 28.4451C50.0617 27.9303 50.5754 27.9119 51.3181 28.33C52.6242 29.0826 51.8722 30.7178 50.229 30.7104C49.6127 30.7076 49.2282 30.5607 48.9729 30.2484ZM43.3525 23.9178C42.0734 22.8542 42.7995 21.2604 44.5712 21.2684C45.8294 21.2741 46.5458 21.8373 46.5413 22.8329C46.5386 23.4343 46.3833 23.7033 45.8683 24.0328C44.9413 24.6094 44.1712 24.5644 43.3525 23.9178Z" fill="#190C43"/>
<path d="M50.0487 87.8099C50.563 87.6463 51.1584 86.5705 51.6539 84.8719C53.3483 79.238 56.5773 74.9384 60.127 73.544C61.4646 73.0107 61.8242 72.9708 64.5716 72.9832L67.5757 72.9968L70.0874 74.0451C71.4713 74.6321 72.6758 75.1353 72.8041 75.1567C72.9066 75.1986 73.0128 74.4317 73.0172 73.4568C73.0241 71.922 73.1023 71.6527 73.514 71.4679C74.4401 71.078 78.3458 70.4526 81.0171 70.2573C85.5377 69.925 92.775 70.7251 93.3616 71.6196C93.5401 71.89 93.6063 74.2963 93.5611 78.631L93.48 85.2263L94.5043 85.8324C95.7847 86.6056 97.5803 87.0078 98.4803 86.7214C99.3802 86.4559 100.001 85.4216 99.7737 84.5909C99.6984 84.2173 99.0143 82.1815 98.2792 80.0626C96.9609 76.3025 96.9358 76.178 97.1742 74.5612C97.6518 71.1411 98.0425 69.8984 100.195 65.2621C104.136 56.7552 104.942 54.4566 104.955 51.6981C104.968 48.6492 103.798 46.1965 101.521 44.4439C98.8086 42.3369 100.066 42.5707 71.8366 39.1457C70.1172 38.9305 70.1944 38.8894 68.6701 40.9566C66.7067 43.6234 64.5908 45.9369 63.8447 46.2446C63.4331 46.4294 61.1461 46.8132 58.8081 47.1138L54.5177 47.6545L54.4826 49.7284C54.4162 53.0882 53.426 56.2986 50.6005 62.2179C48.5267 66.5849 47.4873 69.318 46.9633 71.6387C46.4647 74.0217 45.9497 80.055 46.149 81.4041C46.5231 83.8532 47.7178 86.555 48.792 87.4932C49.3547 87.9727 49.483 87.9941 50.0487 87.8099ZM71.203 54.3875C70.8445 54.1785 70.7946 53.8464 70.8526 52.3741L70.9376 50.6115L83.7504 50.607C93.8414 50.6109 96.6142 50.6649 96.793 50.8731C96.8951 51.0188 96.994 51.8696 96.99 52.7407C96.9841 54.0474 96.9056 54.3789 96.5197 54.5431C95.825 54.8718 71.792 54.7428 71.203 54.3875Z" fill="#190C43"/>
<path d="M94.0351 53.2045C94.5761 52.7921 94.654 52.6058 94.4243 52.2936C94.0163 51.6695 93.1696 51.5413 92.5768 52.0156C91.9841 52.49 92.1351 53.1752 92.9039 53.5105C93.2882 53.6989 93.5196 53.6377 94.0351 53.2045Z" fill="#190C43"/>
<path d="M89.0532 53.3272C89.491 53.0388 89.569 52.811 89.4425 52.3956C89.2404 51.6688 88.3427 51.4573 87.6983 51.9937C86.6676 52.7979 87.9202 54.048 89.0532 53.3272Z" fill="#190C43"/>
<path d="M84.406 53.2648C85.0502 52.7492 85.0518 52.3966 84.4376 51.9375C83.7979 51.4576 82.9239 51.661 82.7155 52.3238C82.5332 52.9037 82.686 53.1741 83.378 53.4676C83.7624 53.6352 83.9937 53.5948 84.406 53.2648Z" fill="#190C43"/>
<path d="M79.6563 53.1397C80.1974 52.7273 80.2752 52.541 80.0455 52.2288C79.6375 51.6048 78.7908 51.4765 78.1981 51.9509C77.6054 52.4252 77.7563 53.1104 78.5251 53.4457C78.9094 53.6341 79.1408 53.5729 79.6563 53.1397Z" fill="#190C43"/>
<path d="M74.6745 53.2624C75.1123 52.974 75.1904 52.7462 75.0639 52.3308C74.8617 51.604 73.964 51.3925 73.3197 51.9289C72.289 52.7332 73.5415 53.9833 74.6745 53.2624Z" fill="#190C43"/>
<path d="M92.7863 73.94L92.7924 72.5918L83.2921 72.549L73.7918 72.5062L73.7858 73.8544L73.7797 75.2025L83.28 75.2453L92.7802 75.2881L92.7863 73.94Z" fill="#190C43"/>
<path d="M92.4365 71.7813C92.3599 71.6773 91.2056 71.4232 89.9226 71.2307C85.6119 70.5683 77.7537 70.8026 75.0023 71.682C74.668 71.7842 77.9799 71.8821 83.5003 71.907C88.7896 71.9516 92.513 71.8854 92.4365 71.7813Z" fill="#190C43"/>
<path d="M94.3193 35.7209C94.8864 35.2257 94.8627 34.79 94.2997 34.3727C93.6855 33.9136 93.403 33.9331 92.8874 34.3871C92.3203 34.8823 92.344 35.318 92.907 35.7353C93.5212 36.1944 93.8037 36.1749 94.3193 35.7209Z" fill="#190C43"/>
<path d="M89.3122 35.7399C90.0587 35.3284 90.0359 34.7061 89.2418 34.2877C88.627 33.953 88.55 33.9527 88.0862 34.3032C87.4422 34.7773 87.4399 35.2751 88.0285 35.7133C88.6171 36.1516 88.5914 36.1514 89.3122 35.7399Z" fill="#190C43"/>
<path d="M84.4343 35.5935C85.1558 35.016 84.6213 33.9765 83.5942 33.9719C82.5158 33.967 82.0752 34.8776 82.8427 35.5033C83.3031 35.8995 83.9962 35.9441 84.4343 35.5935Z" fill="#190C43"/>
<path d="M79.428 35.4464C80.2014 34.7655 79.8198 33.9549 78.7158 33.9499C77.6117 33.9449 77.1967 34.8556 78.0157 35.4608C78.6299 35.9199 78.9124 35.9004 79.428 35.4464Z" fill="#190C43"/>
<path d="M74.601 35.3832C75.5548 34.5371 73.9938 33.3686 72.9888 34.173C72.5507 34.5236 72.5995 35.0838 73.0857 35.4594C73.6229 35.8973 74.0338 35.8785 74.601 35.3832Z" fill="#190C43"/>
<path d="M94.2141 30.5559C94.394 30.5153 94.6518 30.2883 94.7812 30.0814C95.3499 29.2336 94.0958 28.3153 93.2199 28.9544C92.6017 29.4079 92.5994 29.9057 93.188 30.3439C93.6999 30.7195 93.6999 30.7195 94.2141 30.5559Z" fill="#190C43"/>
<path d="M89.3365 30.3473C90.083 29.9358 90.0601 29.3135 89.266 28.8951C88.6513 28.5604 88.5743 28.5601 88.1105 28.9106C87.4665 29.3848 87.4642 29.8825 88.0528 30.3207C88.6414 30.759 88.6157 30.7589 89.3365 30.3473Z" fill="#190C43"/>
<path d="M84.458 30.3253C85.2045 29.9138 85.1816 29.2915 84.3875 28.8731C83.7728 28.5385 83.6957 28.5381 83.232 28.8886C82.5879 29.3628 82.5857 29.8606 83.1743 30.2988C83.7629 30.737 83.7372 30.7369 84.458 30.3253Z" fill="#190C43"/>
<path d="M79.4513 30.2613C80.0184 29.766 79.9947 29.3304 79.4317 28.913C78.8175 28.4539 78.5349 28.4734 78.0194 28.9274C77.4522 29.4226 77.476 29.8583 78.039 30.2756C78.6531 30.7347 78.9357 30.7152 79.4513 30.2613Z" fill="#190C43"/>
<path d="M74.4442 30.2802C75.1907 29.8687 75.1678 29.2464 74.3737 28.828C73.759 28.4934 73.6819 28.493 73.2182 28.8435C72.5741 29.3177 72.5719 29.8154 73.1605 30.2537C73.7491 30.6919 73.7234 30.6918 74.4442 30.2802Z" fill="#190C43"/>
<path d="M65.1781 240.45C65.5643 240.203 66.158 239.521 66.4687 238.942C67.0123 237.969 68.2754 236.876 69.6653 236.135C70.18 235.868 70.232 235.744 70.0031 235.245C69.8251 234.85 69.5435 234.683 69.1326 234.681C68.0799 234.676 66.3117 233.901 64.7248 232.774C63.3938 231.834 63.1375 231.73 62.3411 231.83C60.9282 231.989 60.2841 232.463 59.8681 233.602C59.6601 234.182 59.2461 234.885 58.9366 235.195C58.627 235.526 58.4192 236.043 58.4169 236.562C58.4138 237.246 58.5667 237.516 59.3344 238.08C59.8205 238.476 60.3326 238.79 60.4353 238.79C60.5124 238.79 60.8192 239.082 61.0743 239.436C61.6358 240.206 62.8909 240.875 63.8153 240.879C64.2004 240.881 64.7919 240.676 65.1781 240.45Z" fill="#190C43"/>
</g>
<defs>
<clipPath id="clip0_118_15">
<rect width="164.331" height="265.484" fill="white" transform="translate(164.329 266.222) rotate(-179.742)"/>
</clipPath>
</defs>
</svg>
