<svg width="40" height="38" viewBox="0 0 40 38" fill="none" xmlns="http://www.w3.org/2000/svg">
<g clip-path="url(#clip0_336_10)">
<path d="M20 0C8.95508 0 0 8.29174 0 18.5185C0 28.7452 8.95508 37.037 20 37.037C31.0448 37.037 40 28.7452 40 18.5185C40 8.29174 31.0448 0 20 0ZM27.4267 18.7282L16.1767 24.9452C16.0962 24.9905 15.9936 24.9928 15.9106 24.9475C15.8301 24.9045 15.7788 24.8244 15.7788 24.735V18.5179V12.3007C15.7788 12.2126 15.8301 12.1312 15.9106 12.0882C15.9936 12.0441 16.0962 12.0464 16.1767 12.0904L27.4267 18.3087C27.5073 18.3511 27.5549 18.433 27.5549 18.5178C27.5549 18.6044 27.5073 18.6847 27.4267 18.7282Z" fill="#190C40"/>
<path d="M27.4267 18.7282L16.1767 24.9452C16.0962 24.9905 15.9936 24.9928 15.9106 24.9475C15.8301 24.9045 15.7788 24.8244 15.7788 24.735V18.5179V12.3007C15.7788 12.2126 15.8301 12.1312 15.9106 12.0882C15.9936 12.0441 16.0962 12.0464 16.1767 12.0904L27.4267 18.3087C27.5073 18.3511 27.5549 18.433 27.5549 18.5178C27.5549 18.6044 27.5073 18.6847 27.4267 18.7282Z" fill="#190C40"/>
<line x1="16" y1="12" x2="16" y2="23" stroke="#F5F5F5" stroke-width="2"/>
<line x1="24" y1="12" x2="24" y2="23" stroke="#F5F5F5" stroke-width="2"/>
</g>
<defs>
<clipPath id="clip0_336_10">
<rect width="40" height="37.037" fill="white"/>
</clipPath>
</defs>
</svg>
