<svg width="128" height="152" viewBox="0 0 128 152" fill="none" xmlns="http://www.w3.org/2000/svg">
<path d="M88.7884 55.4913C88.7884 55.4913 72.8959 48.8542 55.1551 54.3709C37.4143 59.8876 26.4959 73.6923 17.2671 84.6938C8.03832 95.6953 9.9916 108.22 21.5449 115.176C33.0982 122.132 43.0617 115.043 60.7129 116.711C78.3641 118.38 82.7289 120.912 98.7186 114.815C114.708 108.718 120.619 90.5873 111.544 75.5943C102.469 60.6013 88.7884 55.4913 88.7884 55.4913Z" fill="#BAB8F0"/>
<path opacity="0.7" d="M88.7884 55.4913C88.7884 55.4913 72.8959 48.8542 55.1551 54.3709C37.4143 59.8876 26.4959 73.6923 17.2671 84.6938C8.03832 95.6953 9.9916 108.22 21.5449 115.176C33.0982 122.132 43.0617 115.043 60.7129 116.711C78.3641 118.38 82.7289 120.912 98.7186 114.815C114.708 108.718 120.619 90.5873 111.544 75.5943C102.469 60.6013 88.7884 55.4913 88.7884 55.4913Z" fill="white"/>
<path d="M100.511 72.7166C100.132 71.0689 100.255 69.1233 100.216 68.5761C100.178 68.0289 99.502 67.3267 98.7878 68.1262C98.2517 68.7076 97.6912 69.2566 97.1084 69.7708L96.6886 69.6219C96.6886 69.6219 96.7705 69.3726 96.9446 68.7737C97.1187 68.1748 97.8278 66.9284 98.2886 65.9799C98.7494 65.0315 99.1718 64.5329 99.5071 63.4355C99.8425 62.338 100.019 61.3409 99.8015 60.8423C99.5839 60.3438 99.3382 61.0916 99.0463 61.8395C98.7545 62.5873 97.9097 63.8367 97.239 64.9342C96.5683 66.0316 95.6006 67.7766 95.191 68.6247C94.7814 69.4729 94.4767 70.0718 94.5177 72.0174C94.5587 73.963 94.0057 77.5563 93.678 79.5019C93.3503 81.4475 91.4508 85.7855 90.1913 88.0321C88.9318 90.2787 87.7132 96.8633 87.7132 96.8633L81.4796 88.3513C81.5871 87.1079 81.6025 85.4238 81.0316 84.3993C80.0511 82.6422 77.3119 82.6878 73.623 80.5598C69.934 78.4318 67.991 77.0182 67.991 77.0182H65.5974C65.5974 77.0182 63.6646 78.4166 59.9654 80.5598C56.2662 82.703 53.5372 82.6543 52.5695 84.4023C51.6019 86.1503 52.3135 89.7892 52.3135 89.9382C52.3135 90.0871 50.4652 106.005 50.4652 106.005L53.5731 110.644L55.5903 94.5803C55.5903 94.5803 56.1023 98.1219 57.1878 100.116C57.9323 101.419 58.8385 102.58 59.8758 103.56V118.864H73.6998V103.548C74.737 102.568 75.6433 101.407 76.3878 100.104C77.4809 98.1097 77.9852 94.5681 77.9852 94.5681L78.7225 93.4403C79.0297 93.954 79.5238 94.7596 80.2943 95.9635C81.8918 98.4593 84.5798 101.052 85.3375 101.901C86.0953 102.749 86.3027 104.296 87.7747 104.047C89.2467 103.798 89.7484 101.007 91.0515 98.6569C92.3545 96.307 93.0252 94.1182 93.6115 91.5251C94.1977 88.9319 94.6175 83.9403 95.1654 82.0463C95.7132 80.1524 96.7193 75.8083 96.7193 75.8083C97.2933 75.5222 97.7675 75.0116 98.0633 74.3612C98.5753 73.2638 98.7775 70.1052 98.7775 70.1052C98.7775 70.1052 99.0335 71.8015 99.2409 72.6497C99.4483 73.4979 99.9961 74.9449 100.331 75.3857C100.667 75.8265 100.879 75.7839 101.13 75.5347C101.381 75.2854 100.89 74.3612 100.511 72.7166Z" fill="#263238" stroke="#263238" stroke-linecap="round" stroke-linejoin="round"/>
<path d="M100.216 68.5761C100.175 68.0259 99.502 67.3267 98.7878 68.1262C98.2517 68.7076 97.6912 69.2566 97.1084 69.7708L96.6886 69.6219C96.6886 69.6219 96.7705 69.3726 96.9446 68.7737C97.1187 68.1748 97.8278 66.9284 98.2886 65.9799C98.7494 65.0315 99.1718 64.5329 99.5071 63.4355C99.8425 62.338 100.019 61.3409 99.8015 60.8423C99.5839 60.3438 99.3382 61.0916 99.0463 61.8395C98.7545 62.5873 97.9097 63.8367 97.239 64.9342C96.5683 66.0316 95.6006 67.7766 95.191 68.6247C94.7814 69.4729 94.4767 70.0718 94.5177 72.0174C94.5587 73.963 94.0057 77.5563 93.678 79.5019C93.3503 81.4475 91.4508 85.7855 90.1913 88.0321C89.7892 88.8254 89.4613 89.6684 89.2134 90.5462C89.7306 91.2458 90.3831 91.7858 91.1148 92.1199C91.8466 92.4541 92.6357 92.5723 93.4143 92.4644C93.4894 92.1564 93.5637 91.8433 93.6371 91.5251C94.2233 88.9289 94.6431 83.9403 95.191 82.0463C95.7388 80.1524 96.7449 75.8083 96.7449 75.8083C97.3189 75.5222 97.7931 75.0116 98.0889 74.3612C98.6009 73.2638 98.8031 70.1052 98.8031 70.1052C98.8031 70.1052 99.0591 71.8015 99.2665 72.6497C99.4739 73.4979 100.022 74.9449 100.357 75.3857C100.692 75.8265 100.905 75.7839 101.156 75.5347C101.407 75.2854 100.9 74.3369 100.526 72.6923C100.152 71.0476 100.257 69.1233 100.216 68.5761Z" fill="white" stroke="#263238" stroke-linecap="round" stroke-linejoin="round"/>
<path d="M95.0912 72.0661C95.0912 72.0661 97.2749 70.2208 98.2425 70.1205C99.2102 70.0202 102.779 70.2725 103.073 70.1722C103.368 70.0719 103.329 70.7194 103.032 71.2179C102.735 71.7165 102.024 71.6678 101.266 71.6192C100.508 71.5706 98.4499 71.4672 98.4499 71.4672C98.4499 71.4672 96.5581 75.2095 95.3395 75.4587" fill="white"/>
<path d="M95.0912 72.0661C95.0912 72.0661 97.2749 70.2208 98.2425 70.1205C99.2102 70.0202 102.779 70.2725 103.073 70.1722C103.368 70.0719 103.329 70.7194 103.032 71.2179C102.735 71.7165 102.024 71.6678 101.266 71.6192C100.508 71.5706 98.4499 71.4672 98.4499 71.4672C98.4499 71.4672 96.5581 75.2095 95.3395 75.4587" stroke="#263238" stroke-linecap="round" stroke-linejoin="round"/>
<path d="M53.5424 108.038C53.5424 108.038 53.4169 107.19 50.9363 105.394C48.4557 103.597 46.9453 102.399 46.5254 101.8C46.2883 101.478 46.1034 101.106 45.9801 100.703C45.9801 100.703 46.359 100.055 46.2361 98.2709C46.1133 96.4864 45.6499 95.5775 45.9008 94.1791C46.1517 92.7807 46.6995 91.2363 46.2797 91.1877C45.8598 91.1391 45.1865 91.288 44.7257 92.5344C44.2649 93.7808 44.6413 95.0789 44.7257 95.6261C44.8102 96.1733 43.9577 98.5202 43.9577 98.5202C43.9577 98.5202 43.9168 98.6691 42.0249 97.1248C40.1331 95.5805 39.0425 95.4285 38.5382 95.8267C38.0339 96.225 34.967 98.5627 34.967 98.5627C34.967 98.5627 33.9584 102.457 33.2441 103.503C32.5299 104.548 33.2877 104.749 34.0429 104.302C34.7981 103.855 35.3024 101.955 35.6813 100.761C35.9099 99.9441 36.2826 99.1948 36.7744 98.5627C36.9843 98.3651 38.1184 98.2162 38.4973 98.0155C38.7507 97.8954 39.027 97.8607 39.296 97.9152C39.296 97.9152 40.8064 99.6115 41.2262 100.809C41.6461 102.007 42.0249 103.153 42.6137 103.454C43.2025 103.755 44.0832 103.402 44.0832 103.402C44.0832 103.402 47.2345 106.746 48.2432 108.093C49.2518 109.44 49.5027 110.087 50.8902 110.936C52.2777 111.784 53.0329 112.434 53.5373 111.337C54.0416 110.239 53.7933 108.841 53.7933 108.841" fill="white"/>
<path d="M53.5424 108.038C53.5424 108.038 53.4169 107.19 50.9363 105.394C48.4557 103.597 46.9453 102.399 46.5254 101.8C46.2883 101.478 46.1034 101.106 45.9801 100.703C45.9801 100.703 46.359 100.055 46.2361 98.2709C46.1133 96.4864 45.6499 95.5775 45.9008 94.1791C46.1517 92.7807 46.6995 91.2363 46.2797 91.1877C45.8598 91.1391 45.1865 91.288 44.7257 92.5344C44.2649 93.7808 44.6413 95.0789 44.7257 95.6261C44.8102 96.1733 43.9577 98.5202 43.9577 98.5202C43.9577 98.5202 43.9168 98.6691 42.0249 97.1248C40.1331 95.5805 39.0425 95.4285 38.5382 95.8267C38.0339 96.225 34.967 98.5627 34.967 98.5627C34.967 98.5627 33.9584 102.457 33.2441 103.503C32.5299 104.548 33.2877 104.749 34.0429 104.302C34.7981 103.855 35.3024 101.955 35.6813 100.761C35.9099 99.9441 36.2826 99.1948 36.7744 98.5627C36.9843 98.3651 38.1184 98.2162 38.4973 98.0155C38.7507 97.8954 39.027 97.8607 39.296 97.9152C39.296 97.9152 40.8064 99.6115 41.2262 100.809C41.6461 102.007 42.0249 103.153 42.6137 103.454C43.2025 103.755 44.0832 103.402 44.0832 103.402C44.0832 103.402 47.2345 106.746 48.2432 108.093C49.2518 109.44 49.5027 110.087 50.8902 110.936C52.2777 111.784 53.0329 112.434 53.5373 111.337C54.0416 110.239 53.7933 108.841 53.7933 108.841" stroke="#263238" stroke-linecap="round" stroke-linejoin="round"/>
<path d="M43.543 98.3075C42.7406 97.1104 42.0368 95.8247 41.4412 94.468C40.517 92.3217 40.1817 91.9235 39.7618 92.036C39.342 92.1485 39.0066 92.1363 38.7967 92.948C38.5868 93.7597 38.0287 95.4438 38.0825 96.4896C38.1362 97.5353 38.3385 99.2256 38.3385 100.138C38.3385 101.05 39.2626 100.885 39.3881 100.636C39.5135 100.387 39.4726 99.0402 39.4726 97.6448V95.9971L39.8079 94.699C40.2966 95.4455 40.667 96.2912 40.901 97.1949C41.2364 98.5902 41.5308 99.1891 41.7842 99.2408" fill="white"/>
<path d="M43.543 98.3075C42.7406 97.1104 42.0368 95.8247 41.4412 94.468C40.517 92.3217 40.1817 91.9235 39.7618 92.036C39.342 92.1485 39.0066 92.1363 38.7967 92.948C38.5868 93.7597 38.0287 95.4438 38.0825 96.4896C38.1362 97.5353 38.3385 99.2256 38.3385 100.138C38.3385 101.05 39.2626 100.885 39.3881 100.636C39.5135 100.387 39.4726 99.0402 39.4726 97.6448V95.9971L39.8079 94.699C40.2966 95.4455 40.667 96.2912 40.901 97.1949C41.2364 98.5902 41.5308 99.1891 41.7842 99.2408" stroke="#263238" stroke-linecap="round" stroke-linejoin="round"/>
<path d="M43.9628 98.4958C43.6799 99.061 43.4548 99.6641 43.2921 100.292C43.0796 101.189 44.1318 102.536 44.846 102.636" fill="white"/>
<path d="M43.9628 98.4958C43.6799 99.061 43.4548 99.6641 43.2921 100.292C43.0796 101.189 44.1318 102.536 44.846 102.636" stroke="#263238" stroke-linecap="round" stroke-linejoin="round"/>
<path d="M73.623 80.5599C69.9264 78.4319 67.991 77.0183 67.991 77.0183H65.5974C65.5974 77.0183 63.6646 78.4167 59.9654 80.5599C59.7478 80.6845 59.5379 80.8031 59.328 80.9126L65.8099 88.4335C65.9816 88.6328 66.1857 88.7882 66.4099 88.8902C66.634 88.9922 66.8733 89.0387 67.1132 89.0267C67.353 89.0148 67.5882 88.9447 67.8043 88.8207C68.0205 88.6967 68.213 88.5215 68.3699 88.3058L73.8918 80.7058L73.623 80.5599Z" fill="white"/>
<mask id="mask0_191_6859" style="mask-type:luminance" maskUnits="userSpaceOnUse" x="59" y="77" width="15" height="13">
<path d="M73.623 80.5599C69.9264 78.4319 67.991 77.0183 67.991 77.0183H65.5974C65.5974 77.0183 63.6646 78.4167 59.9654 80.5599C59.7478 80.6845 59.5379 80.8031 59.328 80.9126L65.8099 88.4335C65.9816 88.6328 66.1857 88.7882 66.4099 88.8902C66.634 88.9922 66.8733 89.0387 67.1132 89.0267C67.353 89.0148 67.5882 88.9447 67.8043 88.8207C68.0205 88.6967 68.213 88.5215 68.3699 88.3058L73.8918 80.7058L73.623 80.5599Z" fill="white"/>
</mask>
<g mask="url(#mask0_191_6859)">
<path opacity="0.3" d="M67.9942 77.0059H65.6006C65.6006 77.0059 63.6678 78.4043 59.9686 80.5475C59.751 80.6721 59.5411 80.7907 59.3312 80.9001L60.0429 81.7239C61.5277 80.8849 64.0032 79.5959 65.5341 79.3163C67.0649 79.0366 70.5107 80.9487 72.7379 82.2985L73.8976 80.7025L73.6211 80.5475C69.927 78.4043 67.9942 77.0059 67.9942 77.0059Z" fill="black"/>
</g>
<path d="M73.623 80.5599C69.9264 78.4319 67.991 77.0183 67.991 77.0183H65.5974C65.5974 77.0183 63.6646 78.4167 59.9654 80.5599C59.7478 80.6845 59.5379 80.8031 59.328 80.9126L65.8099 88.4335C65.9816 88.6328 66.1857 88.7882 66.4099 88.8902C66.634 88.9922 66.8733 89.0387 67.1132 89.0267C67.353 89.0148 67.5882 88.9447 67.8043 88.8207C68.0205 88.6967 68.213 88.5215 68.3699 88.3058L73.8918 80.7058L73.623 80.5599Z" stroke="#263238" stroke-linecap="round" stroke-linejoin="round"/>
<path d="M78.2873 89.6282C77.4451 90.677 77.1097 93.0695 75.6403 93.869C74.1708 94.6685 69.3375 94.5165 69.3375 94.5165C69.3375 94.5165 60.1804 94.9664 58.6239 94.1183C57.0675 93.2701 56.3558 89.9261 55.4316 89.4275C54.5075 88.929 53.8777 89.8775 53.8777 90.7256C53.8777 91.5738 53.079 98.4594 53.079 98.4594C53.079 98.4594 54.1695 99.3896 54.9196 99.9976L55.6006 94.5682C55.6006 94.5682 56.1126 98.1098 57.198 100.104C57.9425 101.407 58.8488 102.568 59.886 103.548V110.133H73.71V103.548C74.7473 102.568 75.6535 101.407 76.398 100.104C77.4911 98.1098 77.9955 94.5682 77.9955 94.5682L78.7327 93.4403C79.0399 93.9541 79.534 94.7597 80.3046 95.9635C80.9676 96.9672 81.6915 97.9121 82.4703 98.7907L83.6659 97.061C83.6659 97.061 80.7244 92.273 80.1279 91.1239C79.5315 89.9747 79.127 88.5794 78.2873 89.6282Z" fill="white"/>
<mask id="mask1_191_6859" style="mask-type:luminance" maskUnits="userSpaceOnUse" x="53" y="89" width="31" height="22">
<path d="M78.2873 89.6282C77.4451 90.677 77.1097 93.0695 75.6403 93.869C74.1708 94.6685 69.3375 94.5165 69.3375 94.5165C69.3375 94.5165 60.1804 94.9664 58.6239 94.1183C57.0675 93.2701 56.3558 89.9261 55.4316 89.4275C54.5075 88.929 53.8777 89.8775 53.8777 90.7256C53.8777 91.5738 53.079 98.4594 53.079 98.4594C53.079 98.4594 54.1695 99.3896 54.9196 99.9976L55.6006 94.5682C55.6006 94.5682 56.1126 98.1098 57.198 100.104C57.9425 101.407 58.8488 102.568 59.886 103.548V110.133H73.71V103.548C74.7473 102.568 75.6535 101.407 76.398 100.104C77.4911 98.1098 77.9955 94.5682 77.9955 94.5682L78.7327 93.4403C79.0399 93.9541 79.534 94.7597 80.3046 95.9635C80.9676 96.9672 81.6915 97.9121 82.4703 98.7907L83.6659 97.061C83.6659 97.061 80.7244 92.273 80.1279 91.1239C79.5315 89.9747 79.127 88.5794 78.2873 89.6282Z" fill="white"/>
</mask>
<g mask="url(#mask1_191_6859)">
<g opacity="0.3">
<path d="M75.4176 95.6112C75.4006 95.602 75.3824 95.5967 75.3638 95.5957C75.2461 95.5957 75.2819 95.6235 75.4176 95.6112Z" fill="black"/>
<path d="M79.104 92.1604C78.6099 91.1541 77.9751 93.1666 76.9869 94.5073C76.3341 95.3949 75.6813 95.5834 75.4176 95.6108C75.8042 95.7506 76.6976 97.3284 76.352 98.5292C75.9987 99.7847 73.8125 101.712 72.9651 102.551C72.361 103.159 72.5095 107.613 72.6451 110.133H73.7075V103.548C74.7448 102.568 75.651 101.407 76.3955 100.104C77.4887 98.1097 77.993 94.5681 77.993 94.5681L78.7303 93.4402C79.0375 93.954 79.5315 94.7596 80.3021 95.9634C80.9652 96.9671 81.689 97.912 82.4679 98.7906L82.9594 98.0793C82.0685 96.769 79.5111 92.9873 79.104 92.1604Z" fill="black"/>
<path d="M61.184 110.133C61.0662 107.874 60.8256 103.205 60.8256 102.633C60.8256 101.879 59.1334 100.289 57.792 98.2768C56.4505 96.2643 56.0972 93.9205 55.6748 92.9993C55.2524 92.0782 54.9068 95.0088 54.615 96.6017C54.4537 97.5137 54.3385 98.6629 54.2694 99.4624L54.9171 99.9974L55.598 94.568C55.598 94.568 56.11 98.1096 57.1955 100.104C57.94 101.406 58.8463 102.568 59.8835 103.548V110.133H61.184Z" fill="black"/>
</g>
</g>
<path d="M78.2873 89.6282C77.4451 90.677 77.1097 93.0695 75.6403 93.869C74.1708 94.6685 69.3375 94.5165 69.3375 94.5165C69.3375 94.5165 60.1804 94.9664 58.6239 94.1183C57.0675 93.2701 56.3558 89.9261 55.4316 89.4275C54.5075 88.929 53.8777 89.8775 53.8777 90.7256C53.8777 91.5738 53.079 98.4594 53.079 98.4594C53.079 98.4594 54.1695 99.3896 54.9196 99.9976L55.6006 94.5682C55.6006 94.5682 56.1126 98.1098 57.198 100.104C57.9425 101.407 58.8488 102.568 59.886 103.548V110.133H73.71V103.548C74.7473 102.568 75.6535 101.407 76.398 100.104C77.4911 98.1098 77.9955 94.5682 77.9955 94.5682L78.7327 93.4403C79.0399 93.9541 79.534 94.7597 80.3046 95.9635C80.9676 96.9672 81.6915 97.9121 82.4703 98.7907L83.6659 97.061C83.6659 97.061 80.7244 92.273 80.1279 91.1239C79.5315 89.9747 79.127 88.5794 78.2873 89.6282Z" stroke="#263238" stroke-linecap="round" stroke-linejoin="round"/>
<path d="M70.5562 94.5256C69.8343 94.5256 69.3376 94.5256 69.3376 94.5256C69.3376 94.5256 66.4679 94.6655 63.6672 94.6412V110.145H70.5562V94.5256Z" fill="#263238" stroke="#263238" stroke-linecap="round" stroke-linejoin="round"/>
<path opacity="0.07" d="M57.07 90.8959C57.07 90.8959 57.582 91.9204 59.31 92.7381C61.038 93.5559 64.8192 93.5559 65.3363 92.5345C65.8534 91.513 64.1305 90.1815 60.8588 89.2604C57.5872 88.3393 56.3814 89.1631 57.07 90.8959Z" fill="white"/>
<path opacity="0.07" d="M76.6924 90.8959C76.6924 90.8959 76.1804 91.9204 74.4524 92.7381C72.7244 93.5559 68.9433 93.5559 68.4262 92.5345C67.9091 91.513 69.632 90.1815 72.9036 89.2604C76.1753 88.3393 77.3811 89.1631 76.6924 90.8959Z" fill="white"/>
<path opacity="0.07" d="M70.016 96.5229C70.016 96.5229 69.2684 95.0911 67.2 94.8874C65.1315 94.6837 63.9641 97.0337 63.9641 98.2618C63.9641 99.49 65.623 99.3866 67.0361 99.3866C68.4492 99.3866 71.511 99.797 70.016 96.5229Z" fill="white"/>
<path d="M62.4486 67.0288C62.4486 67.0288 64.3814 69.1751 64.7168 71.3699C65.0521 73.5648 64.3814 77.9546 64.6758 78.8514C64.9702 79.7482 66.8185 80.1008 68.078 79.7999C69.3376 79.4989 68.8768 78.9031 68.8768 76.9058C68.8768 74.9085 69.0432 72.817 69.0432 72.817C68.426 71.1123 67.4229 69.6443 66.1452 68.5762C64.087 66.9285 62.784 66.0803 62.4486 67.0288Z" fill="white" stroke="#263238" stroke-linecap="round" stroke-linejoin="round"/>
<path d="M64.7321 75.2339C64.64 76.8603 64.5171 78.3681 64.6758 78.8515C64.9676 79.7635 66.8185 80.1009 68.078 79.8C69.3376 79.499 68.8768 78.9032 68.8768 76.9059C68.8768 76.4712 68.8768 76.0364 68.8972 75.6139C67.514 76.0675 66.0408 75.9331 64.7321 75.2339Z" fill="#263238" stroke="#263238" stroke-linecap="round" stroke-linejoin="round"/>
<path d="M62.6995 67.3268C61.3777 67.2632 60.0973 66.7619 59.0028 65.8797C57.2799 64.4357 57.9097 57.4498 59.8425 55.106C61.7753 52.7621 65.2185 51.5127 68.4134 52.6101C71.6083 53.7076 72.9932 58.0973 73.2441 59.0975C73.495 60.0977 73.9583 60.3439 73.8764 60.9914C73.8238 61.3889 73.7247 61.7756 73.582 62.1405C73.582 62.1405 73.623 65.3812 73.326 66.1807C73.0291 66.9802 72.9062 67.0289 72.5708 68.026C72.2355 69.0231 72.0588 71.1693 71.7721 72.5647C71.4854 73.9601 71.0988 74.6106 69.4681 74.6623C67.8374 74.714 66.9081 74.9116 65.815 72.5161C64.7219 70.1205 64.512 67.9257 62.6995 67.3268Z" fill="white"/>
<mask id="mask2_191_6859" style="mask-type:luminance" maskUnits="userSpaceOnUse" x="57" y="52" width="17" height="23">
<path d="M62.6995 67.3268C61.3777 67.2632 60.0973 66.7619 59.0028 65.8797C57.2799 64.4357 57.9097 57.4498 59.8425 55.106C61.7753 52.7621 65.2185 51.5127 68.4134 52.6101C71.6083 53.7076 72.9932 58.0973 73.2441 59.0975C73.495 60.0977 73.9583 60.3439 73.8764 60.9914C73.8238 61.3889 73.7247 61.7756 73.582 62.1405C73.582 62.1405 73.623 65.3812 73.326 66.1807C73.0291 66.9802 72.9062 67.0289 72.5708 68.026C72.2355 69.0231 72.0588 71.1693 71.7721 72.5647C71.4854 73.9601 71.0988 74.6106 69.4681 74.6623C67.8374 74.714 66.9081 74.9116 65.815 72.5161C64.7219 70.1205 64.512 67.9257 62.6995 67.3268Z" fill="white"/>
</mask>
<g mask="url(#mask2_191_6859)">
<path opacity="0.3" d="M64.0598 59.7659C65.6905 58.3127 68.1379 59.1579 69.464 59.1579C70.79 59.1579 71.2995 58.3097 72.7254 58.6715C72.8763 58.7104 73.025 58.7602 73.1708 58.8204C72.7817 57.4707 71.3788 53.6251 68.4144 52.6067C65.222 51.5092 61.7763 52.7556 59.8435 55.1025C57.9107 57.4494 57.2835 64.4323 59.0038 65.8763C60.0983 66.7585 61.3787 67.2597 62.7004 67.3233C64.5078 67.9313 64.7177 70.1171 65.8108 72.5126C66.2793 73.5431 66.7196 74.0903 67.1958 74.3791C67.1472 73.6495 67.0166 72.7284 67.0166 71.7465C67.0166 69.81 66.1001 70.1718 64.774 68.8403C63.448 67.5087 64.1622 66.2988 63.5504 64.7241C62.9385 63.1494 62.4291 61.219 64.0598 59.7659Z" fill="black"/>
</g>
<path d="M62.6995 67.3268C61.3777 67.2632 60.0973 66.7619 59.0028 65.8797C57.2799 64.4357 57.9097 57.4498 59.8425 55.106C61.7753 52.7621 65.2185 51.5127 68.4134 52.6101C71.6083 53.7076 72.9932 58.0973 73.2441 59.0975C73.495 60.0977 73.9583 60.3439 73.8764 60.9914C73.8238 61.3889 73.7247 61.7756 73.582 62.1405C73.582 62.1405 73.623 65.3812 73.326 66.1807C73.0291 66.9802 72.9062 67.0289 72.5708 68.026C72.2355 69.0231 72.0588 71.1693 71.7721 72.5647C71.4854 73.9601 71.0988 74.6106 69.4681 74.6623C67.8374 74.714 66.9081 74.9116 65.815 72.5161C64.7219 70.1205 64.512 67.9257 62.6995 67.3268Z" stroke="#263238" stroke-linecap="round" stroke-linejoin="round"/>
<path d="M69.8854 70.3213H70.935" stroke="#263238" stroke-linecap="round" stroke-linejoin="round"/>
<path d="M70.3872 67.1292L70.0519 67.9256" stroke="#263238" stroke-linecap="round" stroke-linejoin="round"/>
<path d="M70.7251 67.1292L71.1014 67.877" stroke="#263238" stroke-linecap="round" stroke-linejoin="round"/>
<path d="M67.7837 59.5445C67.7837 59.5445 70.0877 58.8969 71.2704 59.1462" stroke="#263238" stroke-linecap="round" stroke-linejoin="round"/>
<path d="M68.4979 58.748C68.4979 58.748 69.9264 58.2981 70.8506 58.3984" stroke="#263238" stroke-linecap="round" stroke-linejoin="round"/>
<path d="M69.6319 65.7307C69.6319 65.7307 69.463 67.0288 68.7078 67.6277C67.9526 68.2266 67.3638 68.0259 67.3638 68.0259" stroke="#263238" stroke-linecap="round" stroke-linejoin="round"/>
<path d="M71.3549 65.8796C71.339 66.1653 71.3996 66.4496 71.5278 66.692C71.6561 66.9343 71.8455 67.1224 72.0691 67.2294" stroke="#263238" stroke-linecap="round" stroke-linejoin="round"/>
<path d="M68.805 66.7188C69.1435 66.5525 69.4175 66.2422 69.5733 65.8485C69.7291 65.4549 69.7555 65.0063 69.6473 64.5908C69.4399 63.7608 69.079 62.6999 68.4978 62.0919C67.4482 60.9944 65.7254 61.344 64.9266 62.8397C64.1279 64.3354 64.1279 65.5362 65.9762 66.5333C66.4124 66.7909 66.8882 66.9402 67.3746 66.9721C67.8609 67.0039 68.3477 66.9178 68.805 66.7188Z" fill="#263238" stroke="#263238" stroke-linecap="round" stroke-linejoin="round"/>
<path d="M67.1079 63.7213C67.1079 63.8513 67.0754 63.9784 67.0145 64.0865C66.9536 64.1945 66.8671 64.2787 66.7659 64.3283C66.6647 64.3779 66.5534 64.3907 66.4461 64.3651C66.3388 64.3396 66.2402 64.2767 66.163 64.1846C66.0858 64.0924 66.0333 63.9752 66.0123 63.8476C65.9912 63.72 66.0025 63.5879 66.0448 63.4679C66.087 63.348 66.1583 63.2457 66.2496 63.1739C66.3408 63.1021 66.448 63.0641 66.5575 63.0647C66.63 63.0647 66.7018 63.0817 66.7687 63.1147C66.8356 63.1478 66.8964 63.1962 66.9476 63.2572C66.9987 63.3182 67.0392 63.3906 67.0667 63.4703C67.0942 63.5499 67.1082 63.6353 67.1079 63.7213Z" fill="white"/>
<path d="M67.1642 65.5543C67.3169 65.5543 67.4407 65.4074 67.4407 65.226C67.4407 65.0447 67.3169 64.8977 67.1642 64.8977C67.0115 64.8977 66.8877 65.0447 66.8877 65.226C66.8877 65.4074 67.0115 65.5543 67.1642 65.5543Z" fill="white"/>
<path d="M73.5385 61.6421C73.5385 61.6421 73.1187 61.1405 72.32 62.0403C71.5213 62.9402 71.0195 65.1837 71.3549 65.8798C71.6902 66.576 72.9523 66.4878 73.8329 65.5758C74.7136 64.6638 74.0019 62.089 73.5385 61.6421Z" fill="#263238" stroke="#263238" stroke-linecap="round" stroke-linejoin="round"/>
<path d="M72.6836 63.7213C72.6836 63.8512 72.6511 63.9782 72.5904 64.0861C72.5296 64.1941 72.4432 64.2783 72.3422 64.328C72.2412 64.3777 72.13 64.3907 72.0227 64.3654C71.9155 64.34 71.8169 64.2775 71.7396 64.1857C71.6623 64.0938 71.6096 63.9768 71.5883 63.8494C71.5669 63.7221 71.5779 63.59 71.6197 63.4701C71.6616 63.3501 71.7325 63.2475 71.8234 63.1754C71.9143 63.1032 72.0212 63.0647 72.1306 63.0647C72.2773 63.0647 72.4179 63.1339 72.5216 63.257C72.6253 63.3802 72.6836 63.5472 72.6836 63.7213Z" fill="white"/>
<path d="M72.7399 65.5543C72.8926 65.5543 73.0163 65.4074 73.0163 65.226C73.0163 65.0447 72.8926 64.8977 72.7399 64.8977C72.5872 64.8977 72.4634 65.0447 72.4634 65.226C72.4634 65.4074 72.5872 65.5543 72.7399 65.5543Z" fill="white"/>
<path d="M40.0537 77.0276C39.7389 78.8423 38.9942 80.5126 37.9073 81.8419C36.8203 83.1711 35.4362 84.1041 33.9179 84.5311C32.3996 84.958 30.8102 84.8612 29.3366 84.252C27.8631 83.6427 26.5667 82.5464 25.6 81.0921" stroke="black" stroke-miterlimit="10"/>
<path d="M24.6912 79.3835C24.1786 78.1545 23.8906 76.8107 23.8462 75.4402C23.8017 74.0697 24.0018 72.7036 24.4333 71.4314C24.8648 70.1592 25.5179 69.0098 26.3499 68.0585C27.1818 67.1072 28.1738 66.3755 29.2606 65.9115C30.3474 65.4475 31.5046 65.2617 32.6562 65.3662C33.8077 65.4706 34.9277 65.8631 35.9426 66.5178C36.9574 67.1725 37.8442 68.0746 38.5448 69.1649C39.2454 70.2553 39.7439 71.5092 40.0076 72.8445C40.1541 73.5868 40.2271 74.3469 40.2252 75.1093" stroke="black" stroke-miterlimit="10"/>
<path d="M39.127 70.2027C39.2166 70.3881 39.3011 70.5766 39.383 70.7712C42.4013 70.4672 44.4313 70.7286 44.6029 71.6072C44.9049 73.1272 39.5238 75.9301 32.5837 77.8605C25.6435 79.7909 19.7837 80.1161 19.4765 78.5931C19.3049 77.7115 21.0253 76.4073 23.8438 75.091C23.8438 74.8752 23.8438 74.6624 23.8592 74.4496C18.688 76.5472 15.3011 78.812 15.5878 80.256C15.9974 82.3293 23.7414 81.9493 32.8883 79.4078C42.0352 76.8664 49.1161 73.1241 48.7091 71.0509C48.4224 69.616 44.544 69.3545 39.127 70.2027Z" stroke="black" stroke-miterlimit="10"/>
<path d="M34.3347 65.7369L35.8707 61.2803H38.7302" stroke="black" stroke-miterlimit="10"/>
<path d="M39.0707 57.3738H41.2851" stroke="black" stroke-miterlimit="10"/>
<path d="M39.0707 58.4866H41.2851" stroke="black" stroke-miterlimit="10"/>
<path d="M40.773 59.2952L39.4956 60.9124" stroke="black" stroke-miterlimit="10"/>
<path d="M40.773 61.3169L39.4956 62.9372" stroke="black" stroke-miterlimit="10"/>
<path d="M40.878 53.3307C40.8775 53.1712 40.8373 53.0154 40.7624 52.8829C40.6875 52.7505 40.5812 52.6473 40.4571 52.5864C40.3329 52.5255 40.1963 52.5096 40.0645 52.5406C39.9327 52.5717 39.8116 52.6483 39.7165 52.7609C39.6213 52.8735 39.5563 53.017 39.5296 53.1734C39.503 53.3298 39.5159 53.492 39.5667 53.6397C39.6176 53.7874 39.704 53.9139 39.8153 54.0034C39.9266 54.0928 40.0576 54.1412 40.192 54.1424C40.282 54.1432 40.3713 54.1228 40.4547 54.0823C40.5381 54.0418 40.6139 53.9821 40.6777 53.9067C40.7415 53.8312 40.7921 53.7414 40.8265 53.6425C40.8608 53.5437 40.8784 53.4377 40.878 53.3307Z" stroke="black" stroke-miterlimit="10"/>
<path d="M40.4941 53.3307C40.4941 53.2609 40.4767 53.1927 40.444 53.1348C40.4114 53.0768 40.365 53.0316 40.3107 53.0049C40.2565 52.9782 40.1968 52.9712 40.1392 52.9848C40.0816 52.9984 40.0287 53.032 39.9871 53.0813C39.9456 53.1306 39.9173 53.1935 39.9059 53.2619C39.8944 53.3303 39.9003 53.4012 39.9228 53.4656C39.9452 53.5301 39.9833 53.5851 40.0321 53.6239C40.081 53.6626 40.1384 53.6833 40.1971 53.6833C40.2362 53.6837 40.275 53.6749 40.3111 53.6573C40.3473 53.6397 40.3802 53.6138 40.4078 53.5809C40.4355 53.5481 40.4574 53.5091 40.4722 53.4661C40.487 53.4231 40.4944 53.3771 40.4941 53.3307Z" stroke="black" stroke-miterlimit="10"/>
<path d="M40.878 55.4527C40.878 55.2927 40.8381 55.1364 40.7633 55.0034C40.6884 54.8704 40.5821 54.7668 40.4577 54.7056C40.3332 54.6444 40.1963 54.6284 40.0642 54.6596C39.9321 54.6908 39.8108 54.7678 39.7156 54.8809C39.6203 54.994 39.5555 55.1381 39.5292 55.2949C39.5029 55.4518 39.5164 55.6144 39.5679 55.7621C39.6195 55.9099 39.7068 56.0362 39.8188 56.125C39.9307 56.2139 40.0624 56.2613 40.1971 56.2613C40.3775 56.2605 40.5503 56.1751 40.6778 56.0236C40.8054 55.8721 40.8774 55.6669 40.878 55.4527Z" stroke="black" stroke-miterlimit="10"/>
<path d="M40.4941 55.4526C40.4946 55.3827 40.4776 55.3143 40.4453 55.2559C40.4129 55.1975 40.3667 55.1518 40.3125 55.1246C40.2583 55.0975 40.1985 55.0901 40.1407 55.1033C40.083 55.1166 40.0298 55.1499 39.988 55.1991C39.9462 55.2483 39.9177 55.3112 39.906 55.3796C39.8944 55.4481 39.9001 55.5192 39.9225 55.5838C39.9449 55.6484 39.983 55.7037 40.0319 55.7426C40.0807 55.7814 40.1383 55.8022 40.1971 55.8022C40.2754 55.8022 40.3506 55.7655 40.4062 55.7C40.4618 55.6345 40.4934 55.5456 40.4941 55.4526Z" stroke="black" stroke-miterlimit="10"/>
<path d="M40.878 64.448C40.878 64.2881 40.8381 64.1318 40.7633 63.9988C40.6884 63.8658 40.5821 63.7622 40.4577 63.701C40.3332 63.6398 40.1963 63.6237 40.0642 63.6549C39.9321 63.6861 39.8108 63.7632 39.7156 63.8762C39.6203 63.9893 39.5555 64.1334 39.5292 64.2903C39.5029 64.4471 39.5164 64.6097 39.5679 64.7575C39.6195 64.9053 39.7068 65.0316 39.8188 65.1204C39.9307 65.2093 40.0624 65.2567 40.1971 65.2567C40.3777 65.2567 40.5509 65.1715 40.6786 65.0198C40.8063 64.8682 40.878 64.6625 40.878 64.448Z" stroke="black" stroke-miterlimit="10"/>
<path d="M40.494 64.4481C40.4978 64.3992 40.493 64.35 40.4799 64.3034C40.4668 64.2569 40.4457 64.2141 40.4178 64.1779C40.39 64.1416 40.3561 64.1126 40.3183 64.0928C40.2805 64.073 40.2396 64.0627 40.1983 64.0627C40.157 64.0627 40.1161 64.073 40.0783 64.0928C40.0405 64.1126 40.0067 64.1416 39.9788 64.1779C39.951 64.2141 39.9298 64.2569 39.9167 64.3034C39.9036 64.35 39.8988 64.3992 39.9026 64.4481C39.9095 64.5356 39.9436 64.6169 39.9983 64.676C40.053 64.7352 40.1243 64.768 40.1983 64.768C40.2723 64.768 40.3436 64.7352 40.3983 64.676C40.453 64.6169 40.4871 64.5356 40.494 64.4481Z" stroke="black" stroke-miterlimit="10"/>
<path d="M40.878 66.5576C40.878 66.398 40.8382 66.2419 40.7636 66.109C40.689 65.9762 40.583 65.8725 40.4588 65.8112C40.3347 65.7498 40.198 65.7334 40.0661 65.7641C39.9341 65.7948 39.8128 65.8712 39.7174 65.9837C39.6219 66.0962 39.5567 66.2397 39.5298 66.3962C39.503 66.5526 39.5157 66.715 39.5665 66.8629C39.6172 67.0108 39.7037 67.1375 39.815 67.2271C39.9263 67.3166 40.0575 67.3651 40.192 67.3663C40.2818 67.3671 40.3709 67.3468 40.4541 67.3065C40.5373 67.2662 40.613 67.2068 40.6768 67.1316C40.7406 67.0564 40.7912 66.967 40.8257 66.8685C40.8603 66.77 40.878 66.6643 40.878 66.5576Z" stroke="black" stroke-miterlimit="10"/>
<path d="M40.4941 66.5577C40.4941 66.4882 40.4768 66.4202 40.4444 66.3624C40.4119 66.3045 40.3659 66.2594 40.3119 66.2325C40.2579 66.2056 40.1985 66.1983 40.141 66.2114C40.0836 66.2245 40.0307 66.2575 39.9889 66.3062C39.9472 66.355 39.9185 66.4172 39.9065 66.4852C39.8945 66.5532 39.8996 66.6239 39.9213 66.6885C39.943 66.753 39.9803 66.8085 40.0284 66.8479C40.0766 66.8874 40.1335 66.9091 40.192 66.9103C40.2314 66.9111 40.2706 66.9026 40.3072 66.8852C40.3438 66.8679 40.3772 66.842 40.4053 66.8092C40.4334 66.7764 40.4557 66.7372 40.471 66.694C40.4862 66.6508 40.4941 66.6045 40.4941 66.5577Z" stroke="black" stroke-miterlimit="10"/>
<path opacity="0.18" d="M97.5718 76.2402C105.649 76.2402 112.197 68.4645 112.197 58.8727C112.197 49.2808 105.649 41.5051 97.5718 41.5051C89.4945 41.5051 82.9465 49.2808 82.9465 58.8727C82.9465 68.4645 89.4945 76.2402 97.5718 76.2402Z" stroke="black" stroke-miterlimit="10"/>
<path d="M97.047 50.8318L98.4345 51.5735L98.8159 52.3153L99.4406 52.6041L99.5123 53.3884L99.2691 53.8414L98.7827 53.966L97.7407 53.4705V53.3063L98.3321 53.0175L98.1222 52.1511L97.1852 51.7377L96.7679 51.0811L97.047 50.8318Z" stroke="black" stroke-miterlimit="10"/>
<path d="M105.795 69.8773L104.683 69.3423L103.329 68.7647H102.254L101.248 68.5154L100.137 68.8194L99.5123 68.862H99.1283L98.4013 69.3575L97.7075 69.6858L96.768 68.9866L97.0112 67.8314L96.4224 67.5274H95.7286L95.6236 67.1566L95.6928 66.4148L95.4496 66.0013L94.9632 66.0834L94.8249 66.4969L94.2361 66.5364L93.7241 65.7946L93.5168 64.8066L94.0288 63.6514L95.0349 63.7335L95.3139 64.0223H95.7312L96.2432 63.6514L96.6937 63.8186L97.3184 65.0954L97.5616 65.0529L97.4924 64.1044L97.2851 63.6119L97.3542 62.8276L98.6342 62.1679L98.8057 60.6479L99.3613 60.1129L99.8144 59.1644L100.16 59.0823L100.959 58.4743L100.995 58.1429L100.439 58.1855L100.334 57.8541H99.9526L99.3613 58.0214L99.6403 57.4833L100.854 57.0729L101.133 56.702L101.619 57.614L101.931 57.9849L102.418 57.8207L102.208 57.2826L101.481 56.6746L100.646 55.562L99.7785 54.8598L98.9465 54.6956L98.5293 54.2001L97.9737 54.0359L97.9046 54.2001L97.8355 55.3978L97.9737 55.8082L97.6614 57.1276L96.9676 56.4679L97.07 55.8903L96.343 55.4799L96.0307 55.0269L96.2022 53.9964L97.2109 53.13L97.28 52.1389L96.8985 52.1815L96.6553 51.8106L96.5504 51.2026L96.3072 51.1601L96.1689 51.8198L95.7875 51.9018L95.6134 50.4609L95.3344 50.2541L94.8505 50.0049L94.295 50.3362L94.9888 51.1175L95.127 51.8198L93.8777 50.7071L93.0201 49.5519L92.951 48.4393L92.0473 48.1079L91.3536 48.6399C91.188 48.7612 91.0171 48.8718 90.8416 48.9713C90.5671 49.0498 90.2882 49.1047 90.007 49.1354L89.856 49.8559L89.0573 49.8954L89.1264 50.3484L90.4064 50.5977L91.0669 51.4641V52.8959L90.6829 54.1727L90.7545 55.5346L89.7817 57.5532L89.5744 60.5628L89.8867 62.2956L90.3373 63.6149L90.8493 63.697L90.6752 63.0373L90.3987 62.5418L90.2246 61.6298L90.5369 61.5478L91.0233 63.0313L91.3715 64.3506V65.4207L92.0294 66.3692L93.2096 67.3998L95.0144 67.9773L95.5699 68.5853L95.9872 69.245L96.6118 69.701L97.3798 69.9473L98.1478 69.9047C98.1478 69.9047 98.112 70.3181 98.112 70.5127C98.112 70.7073 97.6256 71.4247 97.6256 71.4247L97.2441 72.2486L97.5232 73.1606L98.2912 73.5314L99.3664 74.8508L99.8528 75.097V75.705L99.9142 75.9938C102.615 75.4757 105.138 74.0651 107.195 71.9233L107.213 71.6193L108.15 69.5977L107.699 69.2268L105.795 69.8773Z" stroke="black" stroke-miterlimit="10"/>
<path d="M109.404 53.5951L109.023 52.8108L108.536 51.8988L108.398 50.6615L109.023 50.7862L109.059 50.3727L108.605 50.3302L108.989 50.1265L109.404 49.8377V49.4303L108.989 48.7706L108.9 47.883C106.881 44.9527 104.112 42.8849 101.014 41.9938C97.9152 41.1027 94.6564 41.4371 91.7325 42.946L92.5338 43.6178L92.0474 44.3596L91.3894 44.5238L91.3203 45.6395L91.0413 45.7611L90.6931 46.2079L90.729 46.9497L91.3203 47.0348L91.0643 47.734H91.6531L92.6592 46.214L92.7642 45.5543L93.737 45.4723L93.993 44.9798L94.999 44.8551L95.104 44.1529L95.831 44.1134C96.0302 43.9803 96.2393 43.8693 96.4557 43.782C96.6568 43.8337 96.8544 43.9028 97.047 43.9887L97.559 44.4843H98.304L98.9286 44.0313L99.7274 44.1134C99.8415 44.2037 99.9724 44.2601 100.109 44.2775C100.35 44.21 100.583 44.1079 100.803 43.9735L101.811 44.7153L102.226 45.0862V45.6942L102.738 45.7763L102.912 45.4054L103.363 45.6516L103.327 45.983L102.285 46.3113L102.876 47.2233L104.125 48.0502L104.637 48.874L105.405 48.9561L105.58 48.5426L105.856 48.4606L104.96 47.658L104.404 47.5759L104.855 47.4118L104.448 46.7095L105.039 46.67L105.807 47.1625L105.981 48.1535L106.363 48.6886L106.675 49.8833L107.443 50.543V51.9049L108.242 52.5129L108.209 52.9658L108.104 53.5039L108.311 54.2457L108.38 54.6166L108.972 54.7382L109.248 54.039L109.404 53.5951Z" stroke="black" stroke-miterlimit="10"/>
<path d="M109.857 49.4426V49.6767L109.683 50.3364L109.786 50.914L110.17 51.0781V51.8625L109.752 51.6557L109.647 53.8841L109.23 54.7961L109.509 55.9513L109.96 56.4437V58.6721L110.41 60.4018L110.897 61.7212L111.695 61.9674L111.974 61.1436L112.087 61.0402C112.162 60.3232 112.2 59.6013 112.2 58.8788C112.204 55.5305 111.391 52.2525 109.857 49.4426Z" stroke="black" stroke-miterlimit="10"/>
<path d="M101.837 49.1841L99.5456 47.9863L98.5395 48.0289L98.2963 48.8132L97.879 48.2751L97.1161 48.4818L97.047 49.8438L97.6716 50.3788L98.1222 49.5945L98.6444 50.2146L99.7196 51.3273L99.927 52.522L100.831 53.8839L102.287 53.5951L102.254 52.975L101.942 52.2758L101.873 50.625L102.218 49.9258L101.837 49.1841Z" stroke="black" stroke-miterlimit="10"/>
<path d="M103.711 50.0899L103.191 49.9258L102.74 50.3787L102.984 51.5735H103.434L103.711 50.0899Z" stroke="black" stroke-miterlimit="10"/>
<path d="M106.941 50.8745L105.759 50.1327L105.518 49.6372L105.239 49.7618L105.482 50.5857L105.69 51.6558L106.212 51.905L106.314 51.7378L106.002 51.1207L106.906 51.5342L106.941 50.8745Z" stroke="black" stroke-miterlimit="10"/>
<path d="M96.8038 65.7551L96.6655 65.9193L97.7074 66.2902L98.1222 66.8678L98.7826 66.9498L99.0258 66.4969L98.2271 66.3327L96.8038 65.7551Z" stroke="black" stroke-miterlimit="10"/>
<path d="M99.8938 66.5396L99.1642 66.7858L99.2691 67.1141H100.17L100.344 66.7858L100.032 66.8253L99.8938 66.5396Z" stroke="black" stroke-miterlimit="10"/>
<path d="M97.5718 76.2402C105.649 76.2402 112.197 68.4645 112.197 58.8727C112.197 49.2808 105.649 41.5051 97.5718 41.5051C89.4945 41.5051 82.9465 49.2808 82.9465 58.8727C82.9465 68.4645 89.4945 76.2402 97.5718 76.2402Z" stroke="black" stroke-miterlimit="10"/>
<path d="M77.2893 53.1572C79.1948 50.8944 79.1948 47.2257 77.2893 44.9629C75.3838 42.7001 72.2943 42.7001 70.3888 44.9629C68.4833 47.2257 68.4833 50.8944 70.3888 53.1572C72.2943 55.42 75.3838 55.42 77.2893 53.1572Z" stroke="black" stroke-miterlimit="10"/>
<path d="M108.628 47.3025C115.08 51.0143 119.017 56.2796 118.31 61.2622C117.251 68.7527 106.099 72.7686 93.4041 70.2332C80.7091 67.6978 71.278 59.5841 72.3404 52.0814C72.4615 51.2386 72.7086 50.4283 73.07 49.6889" stroke="black" stroke-miterlimit="10"/>
<path d="M77.312 45.2961C81.0803 43.0282 86.6304 41.9521 92.8384 42.481" stroke="black" stroke-miterlimit="10"/>
<path d="M64.7142 42.1678C65.0902 42.1678 65.3951 41.8058 65.3951 41.3592C65.3951 40.9126 65.0902 40.5505 64.7142 40.5505C64.3381 40.5505 64.0332 40.9126 64.0332 41.3592C64.0332 41.8058 64.3381 42.1678 64.7142 42.1678Z" stroke="black" stroke-miterlimit="10"/>
<path d="M64.7142 41.7119C64.8782 41.7119 65.0112 41.554 65.0112 41.3592C65.0112 41.1645 64.8782 41.0066 64.7142 41.0066C64.5502 41.0066 64.4172 41.1645 64.4172 41.3592C64.4172 41.554 64.5502 41.7119 64.7142 41.7119Z" stroke="black" stroke-miterlimit="10"/>
<path d="M64.7142 48.409C65.0902 48.409 65.3951 48.047 65.3951 47.6004C65.3951 47.1538 65.0902 46.7917 64.7142 46.7917C64.3381 46.7917 64.0332 47.1538 64.0332 47.6004C64.0332 48.047 64.3381 48.409 64.7142 48.409Z" stroke="black" stroke-miterlimit="10"/>
<path d="M64.7142 47.9528C64.8782 47.9528 65.0112 47.795 65.0112 47.6002C65.0112 47.4054 64.8782 47.2476 64.7142 47.2476C64.5502 47.2476 64.4172 47.4054 64.4172 47.6002C64.4172 47.795 64.5502 47.9528 64.7142 47.9528Z" stroke="black" stroke-miterlimit="10"/>
<path d="M65.3952 49.7193C65.3957 49.5585 65.356 49.4011 65.2811 49.2672C65.2062 49.1332 65.0995 49.0287 64.9745 48.9669C64.8495 48.9051 64.7118 48.8888 64.579 48.92C64.4462 48.9512 64.3241 49.0286 64.2284 49.1423C64.1327 49.256 64.0675 49.4009 64.0412 49.5586C64.0149 49.7163 64.0287 49.8798 64.0807 50.0282C64.1328 50.1767 64.2208 50.3034 64.3336 50.3924C64.4464 50.4813 64.5789 50.5285 64.7143 50.5279C64.8949 50.5279 65.0681 50.4427 65.1958 50.2911C65.3235 50.1394 65.3952 49.9337 65.3952 49.7193Z" stroke="black" stroke-miterlimit="10"/>
<path d="M64.7142 50.0717C64.8782 50.0717 65.0112 49.9139 65.0112 49.7191C65.0112 49.5243 64.8782 49.3665 64.7142 49.3665C64.5502 49.3665 64.4172 49.5243 64.4172 49.7191C64.4172 49.9139 64.5502 50.0717 64.7142 50.0717Z" stroke="black" stroke-miterlimit="10"/>
<path d="M64.7142 44.3687C65.0902 44.3687 65.3951 44.0067 65.3951 43.5601C65.3951 43.1135 65.0902 42.7515 64.7142 42.7515C64.3381 42.7515 64.0332 43.1135 64.0332 43.5601C64.0332 44.0067 64.3381 44.3687 64.7142 44.3687Z" stroke="black" stroke-miterlimit="10"/>
<path d="M64.7142 43.9128C64.8782 43.9128 65.0112 43.7549 65.0112 43.5602C65.0112 43.3654 64.8782 43.2075 64.7142 43.2075C64.5502 43.2075 64.4172 43.3654 64.4172 43.5602C64.4172 43.7549 64.5502 43.9128 64.7142 43.9128Z" stroke="black" stroke-miterlimit="10"/>
<path d="M64.7142 44.5024V46.7368" stroke="black" stroke-miterlimit="10"/>
<path d="M64.8396 45.825H67.0182L69.1942 46.585" stroke="black" stroke-miterlimit="10"/>
<path d="M96.9728 84.7886H99.1872" stroke="black" stroke-miterlimit="10"/>
<path d="M96.9728 85.9014H99.1872" stroke="black" stroke-miterlimit="10"/>
<path d="M98.6777 86.71L97.3977 88.3303" stroke="black" stroke-miterlimit="10"/>
<path d="M98.6777 88.7346L97.3977 90.3519" stroke="black" stroke-miterlimit="10"/>
<path d="M98.7827 80.7486C98.7832 80.5879 98.7435 80.4307 98.6687 80.2968C98.5939 80.1629 98.4874 80.0584 98.3625 79.9965C98.2377 79.9346 98.1002 79.9181 97.9674 79.9491C97.8346 79.98 97.7126 80.0571 97.6168 80.1705C97.5209 80.2839 97.4556 80.4285 97.429 80.586C97.4024 80.7436 97.4158 80.9069 97.4674 81.0554C97.5191 81.2039 97.6067 81.3309 97.7192 81.4202C97.8316 81.5095 97.9639 81.5572 98.0992 81.5572C98.28 81.5572 98.4535 81.4721 98.5816 81.3205C98.7097 81.169 98.782 80.9633 98.7827 80.7486Z" stroke="black" stroke-miterlimit="10"/>
<path d="M98.0992 81.101C98.2632 81.101 98.3962 80.9432 98.3962 80.7484C98.3962 80.5536 98.2632 80.3958 98.0992 80.3958C97.9352 80.3958 97.8022 80.5536 97.8022 80.7484C97.8022 80.9432 97.9352 81.101 98.0992 81.101Z" stroke="black" stroke-miterlimit="10"/>
<path d="M98.7827 82.8675C98.7832 82.7068 98.7435 82.5496 98.6687 82.4157C98.5939 82.2818 98.4874 82.1773 98.3625 82.1154C98.2377 82.0535 98.1002 82.037 97.9674 82.068C97.8346 82.0989 97.7126 82.176 97.6168 82.2894C97.5209 82.4028 97.4556 82.5474 97.429 82.7049C97.4024 82.8625 97.4158 83.0258 97.4674 83.1743C97.5191 83.3228 97.6067 83.4498 97.7192 83.5391C97.8316 83.6284 97.9639 83.6761 98.0992 83.6761C98.28 83.6761 98.4535 83.591 98.5816 83.4394C98.7097 83.2879 98.782 83.0822 98.7827 82.8675Z" stroke="black" stroke-miterlimit="10"/>
<path d="M98.0992 83.2199C98.2632 83.2199 98.3962 83.062 98.3962 82.8673C98.3962 82.6725 98.2632 82.5146 98.0992 82.5146C97.9352 82.5146 97.8022 82.6725 97.8022 82.8673C97.8022 83.062 97.9352 83.2199 98.0992 83.2199Z" stroke="black" stroke-miterlimit="10"/>
<path d="M98.7827 91.8535C98.7832 91.6929 98.7435 91.5356 98.6687 91.4018C98.5939 91.2679 98.4874 91.1634 98.3625 91.1015C98.2377 91.0396 98.1002 91.0231 97.9674 91.054C97.8346 91.085 97.7126 91.1621 97.6168 91.2755C97.5209 91.3889 97.4556 91.5335 97.429 91.691C97.4024 91.8486 97.4158 92.0119 97.4674 92.1604C97.5191 92.3089 97.6067 92.4358 97.7192 92.5252C97.8316 92.6145 97.9639 92.6622 98.0992 92.6622C98.28 92.6622 98.4535 92.5771 98.5816 92.4255C98.7097 92.274 98.782 92.0683 98.7827 91.8535Z" stroke="black" stroke-miterlimit="10"/>
<path d="M98.0992 92.2063C98.2632 92.2063 98.3962 92.0484 98.3962 91.8536C98.3962 91.6589 98.2632 91.501 98.0992 91.501C97.9352 91.501 97.8022 91.6589 97.8022 91.8536C97.8022 92.0484 97.9352 92.2063 98.0992 92.2063Z" stroke="black" stroke-miterlimit="10"/>
<path d="M98.7827 93.9726C98.7827 93.812 98.7426 93.6551 98.6675 93.5216C98.5924 93.3881 98.4856 93.2841 98.3607 93.2227C98.2358 93.1612 98.0984 93.1452 97.9658 93.1765C97.8332 93.2078 97.7114 93.2851 97.6158 93.3986C97.5203 93.5121 97.4552 93.6568 97.4288 93.8142C97.4024 93.9717 97.4159 94.1349 97.4677 94.2832C97.5194 94.4315 97.607 94.5583 97.7194 94.6475C97.8318 94.7366 97.964 94.7843 98.0992 94.7843C98.2805 94.7843 98.4543 94.6987 98.5825 94.5465C98.7107 94.3943 98.7827 94.1878 98.7827 93.9726Z" stroke="black" stroke-miterlimit="10"/>
<path d="M98.0992 94.3252C98.2632 94.3252 98.3962 94.1673 98.3962 93.9725C98.3962 93.7778 98.2632 93.6199 98.0992 93.6199C97.9352 93.6199 97.8022 93.7778 97.8022 93.9725C97.8022 94.1673 97.9352 94.3252 98.0992 94.3252Z" stroke="black" stroke-miterlimit="10"/>
<path d="M100.383 83.3688H103.455L101.919 75.4648" stroke="black" stroke-miterlimit="10"/>
<path d="M107.656 37.0789H23.7952C21.1767 37.0789 19.0541 39.5995 19.0541 42.7089V93.3645C19.0541 96.4739 21.1767 98.9945 23.7952 98.9945H107.656C110.274 98.9945 112.397 96.4739 112.397 93.3645V42.7089C112.397 39.5995 110.274 37.0789 107.656 37.0789Z" stroke="black" stroke-miterlimit="10"/>
<path d="M21.9315 88.8408H27.392" stroke="black" stroke-miterlimit="10"/>
<path d="M21.9315 90.8687H27.392" stroke="black" stroke-miterlimit="10"/>
<path d="M21.9315 92.8962H27.392" stroke="black" stroke-miterlimit="10"/>
<path d="M86.4436 40.0002H69.2045C69.0687 40.0002 68.9385 39.9361 68.8425 39.8221C68.7464 39.7081 68.6925 39.5534 68.6925 39.3922C68.6925 39.2309 68.7464 39.0763 68.8425 38.9623C68.9385 38.8482 69.0687 38.7842 69.2045 38.7842H86.4436C86.5793 38.7842 86.7096 38.8482 86.8056 38.9623C86.9016 39.0763 86.9556 39.2309 86.9556 39.3922C86.9556 39.5534 86.9016 39.7081 86.8056 39.8221C86.7096 39.9361 86.5793 40.0002 86.4436 40.0002Z" stroke="black" stroke-miterlimit="10"/>
<path d="M60.5004 40.0002H43.264C43.1282 40.0002 42.9979 39.9361 42.9019 39.8221C42.8059 39.7081 42.752 39.5534 42.752 39.3922C42.752 39.2309 42.8059 39.0763 42.9019 38.9623C42.9979 38.8482 43.1282 38.7842 43.264 38.7842H60.5004C60.6362 38.7842 60.7665 38.8482 60.8625 38.9623C60.9585 39.0763 61.0124 39.2309 61.0124 39.3922C61.0124 39.5534 60.9585 39.7081 60.8625 39.8221C60.7665 39.9361 60.6362 40.0002 60.5004 40.0002Z" stroke="black" stroke-miterlimit="10"/>
<path d="M40.5324 40.0002H23.2959C23.1601 40.0002 23.0299 39.9361 22.9339 39.8221C22.8379 39.7081 22.7839 39.5534 22.7839 39.3922C22.7839 39.2309 22.8379 39.0763 22.9339 38.9623C23.0299 38.8482 23.1601 38.7842 23.2959 38.7842H40.5324C40.6682 38.7842 40.7984 38.8482 40.8945 38.9623C40.9905 39.0763 41.0444 39.2309 41.0444 39.3922C41.0444 39.5534 40.9905 39.7081 40.8945 39.8221C40.7984 39.9361 40.6682 40.0002 40.5324 40.0002Z" stroke="black" stroke-miterlimit="10"/>
<path d="M106.924 40.0002H89.6845C89.5487 40.0002 89.4185 39.9361 89.3224 39.8221C89.2264 39.7081 89.1725 39.5534 89.1725 39.3922C89.1725 39.2309 89.2264 39.0763 89.3224 38.9623C89.4185 38.8482 89.5487 38.7842 89.6845 38.7842H106.924C107.059 38.7842 107.19 38.8482 107.286 38.9623C107.382 39.0763 107.436 39.2309 107.436 39.3922C107.436 39.5534 107.382 39.7081 107.286 39.8221C107.19 39.9361 107.059 40.0002 106.924 40.0002Z" stroke="black" stroke-miterlimit="10"/>
<path d="M106.924 97.1523H89.6845C89.5487 97.1523 89.4185 97.0882 89.3224 96.9742C89.2264 96.8602 89.1725 96.7055 89.1725 96.5443C89.1725 96.383 89.2264 96.2284 89.3224 96.1144C89.4185 96.0003 89.5487 95.9363 89.6845 95.9363H106.924C107.059 95.9363 107.19 96.0003 107.286 96.1144C107.382 96.2284 107.436 96.383 107.436 96.5443C107.436 96.7055 107.382 96.8602 107.286 96.9742C107.19 97.0882 107.059 97.1523 106.924 97.1523Z" stroke="black" stroke-miterlimit="10"/>
<path d="M39.68 97.1523H22.4435C22.3077 97.1523 22.1775 97.0882 22.0815 96.9742C21.9855 96.8602 21.9315 96.7055 21.9315 96.5443C21.9315 96.383 21.9855 96.2284 22.0815 96.1144C22.1775 96.0003 22.3077 95.9363 22.4435 95.9363H39.68C39.8158 95.9363 39.946 96.0003 40.042 96.1144C40.1381 96.2284 40.192 96.383 40.192 96.5443C40.192 96.7055 40.1381 96.8602 40.042 96.9742C39.946 97.0882 39.8158 97.1523 39.68 97.1523Z" stroke="black" stroke-miterlimit="10"/>
<path d="M26.711 43.8489H22.9554V49.1172H26.711V43.8489Z" stroke="black" stroke-miterlimit="10"/>
<path d="M31.831 43.8489H28.0754V49.1172H31.831V43.8489Z" stroke="black" stroke-miterlimit="10"/>
<path d="M35.218 46.281H33.1956V49.1173H35.218V46.281Z" stroke="black" stroke-miterlimit="10"/>
<path d="M37.12 122.552H32.745C32.4055 122.552 32.0799 122.391 31.8399 122.106C31.5998 121.821 31.465 121.435 31.465 121.032V119.718C31.465 119.315 31.5998 118.929 31.8399 118.643C32.0799 118.358 32.4055 118.198 32.745 118.198H42.729C43.0684 118.198 43.394 118.038 43.6341 117.753C43.8741 117.468 44.009 117.081 44.009 116.678V115.882C44.009 115.479 44.1438 115.092 44.3839 114.807C44.6239 114.522 44.9495 114.362 45.289 114.362H87.9309C88.2704 114.362 88.5959 114.522 88.836 114.807C89.076 115.092 89.2109 115.479 89.2109 115.882C89.2109 116.285 89.3457 116.672 89.5858 116.957C89.8258 117.242 90.1514 117.402 90.4909 117.402H99.7069C100.046 117.402 100.372 117.562 100.612 117.847C100.852 118.132 100.987 118.519 100.987 118.922V120.639C100.987 121.043 100.852 121.429 100.612 121.714C100.372 121.999 100.046 122.159 99.7069 122.159L37.12 122.552Z" fill="#BAB8F0" stroke="#263238" stroke-linecap="round" stroke-linejoin="round"/>
<path d="M52.247 119.776H50.199C49.8688 119.776 49.6025 119.092 49.6025 118.256V117.855C49.6025 117.013 49.8585 116.335 50.199 116.335H54.8633C55.1936 116.335 55.4598 115.648 55.4598 114.815V114C55.4598 113.158 55.7286 112.48 56.0563 112.48H75.968C76.2982 112.48 76.5645 113.164 76.5645 114C76.5645 114.845 76.8333 115.52 77.1609 115.52H81.4643C81.7945 115.52 82.0608 116.204 82.0608 117.04V118.758C82.0608 119.606 81.792 120.293 81.4617 120.278L52.247 119.776Z" fill="#BAB8F0" stroke="#263238" stroke-linecap="round" stroke-linejoin="round"/>
<path d="M113.92 130.975H20.0448L35.7248 120.031C36.1778 119.717 36.6928 119.552 37.2173 119.551H96.745C97.2703 119.551 97.7862 119.717 98.24 120.031L113.92 130.975Z" fill="#BAB8F0" stroke="#263238" stroke-linecap="round" stroke-linejoin="round"/>
<path d="M96.6477 130.975H37.3171L47.4624 117.709C48.004 116.999 48.6647 116.432 49.4018 116.044C50.139 115.657 50.9364 115.456 51.7427 115.456H82.2195C83.0263 115.456 83.824 115.656 84.5616 116.044C85.2992 116.432 85.9603 116.999 86.5024 117.709L96.6477 130.975Z" fill="#BAB8F0" stroke="#263238" stroke-linecap="round" stroke-linejoin="round"/>
<path d="M94.8173 124.217H100.339L94.7174 121.238L94.8173 124.217Z" fill="#263238" stroke="#263238" stroke-linecap="round" stroke-linejoin="round"/>
<path d="M95.8234 126.245H101.243L102.047 129.461L95.8234 126.245Z" fill="#263238" stroke="#263238" stroke-linecap="round" stroke-linejoin="round"/>
<path d="M38.8608 124.217H33.3389L38.9606 121.238L38.8608 124.217Z" fill="#263238" stroke="#263238" stroke-linecap="round" stroke-linejoin="round"/>
<path d="M37.8573 126.245H32.4352L31.6339 129.461L37.8573 126.245Z" fill="#263238" stroke="#263238" stroke-linecap="round" stroke-linejoin="round"/>
<path d="M79.6979 128.042C79.6979 128.495 79.081 128.859 78.3206 128.859C77.5603 128.859 76.9434 128.495 76.9434 128.042C76.9434 127.589 77.5603 127.224 78.3206 127.224C79.081 127.224 79.6979 127.592 79.6979 128.042Z" fill="white" stroke="#263238" stroke-linecap="round" stroke-linejoin="round"/>
<path d="M73.6154 128.042C73.6154 128.495 72.9984 128.859 72.2381 128.859C71.4778 128.859 70.8608 128.495 70.8608 128.042C70.8608 127.589 71.4778 127.224 72.2381 127.224C72.9984 127.224 73.6154 127.592 73.6154 128.042Z" fill="#263238" stroke="#263238" stroke-linecap="round" stroke-linejoin="round"/>
<path d="M67.5328 128.042C67.5328 128.495 66.9158 128.859 66.1555 128.859C65.3952 128.859 64.7782 128.495 64.7782 128.042C64.7782 127.589 65.3952 127.224 66.1555 127.224C66.9158 127.224 67.5328 127.592 67.5328 128.042Z" fill="white" stroke="#263238" stroke-linecap="round" stroke-linejoin="round"/>
<path d="M61.44 128.042C61.44 128.495 60.823 128.859 60.0627 128.859C59.3024 128.859 58.6854 128.495 58.6854 128.042C58.6854 127.589 59.3024 127.224 60.0627 127.224C60.823 127.224 61.44 127.592 61.44 128.042Z" fill="#263238" stroke="#263238" stroke-linecap="round" stroke-linejoin="round"/>
<path d="M55.3677 128.042C55.3677 128.495 54.7508 128.859 53.9904 128.859C53.2301 128.859 52.6132 128.495 52.6132 128.042C52.6132 127.589 53.2276 127.224 53.9904 127.224C54.7533 127.224 55.3677 127.592 55.3677 128.042Z" fill="white" stroke="#263238" stroke-linecap="round" stroke-linejoin="round"/>
<path d="M78.4205 119.432H77.097C76.5466 119.432 76.0397 119.113 75.9629 118.721C75.8861 118.338 75.3946 118.031 74.8596 118.031H58.4525C57.92 118.031 57.4285 118.335 57.3517 118.721C57.2749 119.113 56.7655 119.432 56.2176 119.432H54.8916C54.3437 119.432 53.8112 119.758 53.7037 120.165L53.2941 121.7C53.1764 122.141 53.5501 122.503 54.1389 122.503H55.552C56.1357 122.503 56.5376 122.871 56.4455 123.333C56.3533 123.804 56.7655 124.19 57.3696 124.19H75.9501C76.5517 124.19 76.9741 123.804 76.8717 123.333C76.7821 122.871 77.184 122.503 77.7677 122.503H79.1783C79.762 122.503 80.1383 122.141 80.0231 121.7L79.6135 120.165C79.5034 119.758 78.9709 119.432 78.4205 119.432Z" fill="#263238" stroke="#263238" stroke-linecap="round" stroke-linejoin="round"/>
<path d="M84.1088 118.171C83.9625 117.948 83.7666 117.777 83.5432 117.679C83.3197 117.581 83.0776 117.558 82.8441 117.615C82.3833 117.739 82.2016 118.189 82.4422 118.618C82.5895 118.841 82.7865 119.011 83.0109 119.108C83.2353 119.205 83.4782 119.226 83.712 119.168C84.1702 119.049 84.3494 118.6 84.1088 118.171Z" stroke="#263238" stroke-linecap="round" stroke-linejoin="round"/>
<path d="M83.6377 118.296C83.5739 118.199 83.4886 118.125 83.3913 118.082C83.2941 118.04 83.1888 118.03 83.0873 118.055C82.8876 118.11 82.8108 118.305 82.9132 118.493C82.977 118.59 83.0623 118.664 83.1596 118.707C83.2568 118.749 83.3621 118.758 83.4636 118.733C83.6633 118.679 83.7427 118.484 83.6377 118.296Z" stroke="#263238" stroke-linecap="round" stroke-linejoin="round"/>
<path d="M87.447 124.175C87.3002 123.952 87.1037 123.781 86.8798 123.684C86.6559 123.586 86.4135 123.564 86.1798 123.622C85.719 123.746 85.5398 124.196 85.7779 124.625C85.9247 124.848 86.1211 125.018 86.345 125.116C86.569 125.214 86.8114 125.235 87.0451 125.178C87.5059 125.056 87.6851 124.607 87.447 124.175Z" stroke="#263238" stroke-linecap="round" stroke-linejoin="round"/>
<path d="M86.976 124.303C86.9122 124.206 86.8269 124.132 86.7296 124.089C86.6324 124.047 86.5271 124.038 86.4256 124.062C86.2233 124.117 86.1465 124.312 86.2515 124.497C86.3148 124.595 86.3999 124.67 86.4973 124.713C86.5946 124.756 86.7002 124.765 86.8019 124.74C87.0016 124.686 87.0784 124.491 86.976 124.303Z" stroke="#263238" stroke-linecap="round" stroke-linejoin="round"/>
<path d="M88.576 126.215C88.4292 125.991 88.2328 125.821 88.0089 125.724C87.7849 125.626 87.5425 125.604 87.3088 125.661C86.848 125.786 86.6688 126.236 86.9069 126.665C87.0537 126.888 87.2502 127.058 87.4741 127.156C87.698 127.254 87.9404 127.275 88.1741 127.218C88.64 127.096 88.832 126.646 88.576 126.215Z" stroke="#263238" stroke-linecap="round" stroke-linejoin="round"/>
<path d="M88.1075 126.342C88.044 126.245 87.9587 126.171 87.8614 126.128C87.764 126.086 87.6586 126.077 87.5571 126.102C87.3575 126.157 87.2807 126.351 87.3831 126.537C87.4467 126.634 87.5319 126.708 87.6292 126.751C87.7264 126.794 87.8318 126.804 87.9335 126.78C88.1331 126.725 88.2125 126.531 88.1075 126.342Z" stroke="#263238" stroke-linecap="round" stroke-linejoin="round"/>
<path d="M85.2863 120.287C85.1395 120.063 84.9431 119.893 84.7192 119.796C84.4953 119.698 84.2528 119.676 84.0192 119.733C83.5584 119.855 83.3792 120.305 83.6172 120.737C83.7641 120.96 83.9605 121.13 84.1844 121.228C84.4083 121.326 84.6508 121.347 84.8844 121.29C85.3452 121.165 85.5244 120.718 85.2863 120.287Z" stroke="#263238" stroke-linecap="round" stroke-linejoin="round"/>
<path d="M84.8154 120.414C84.752 120.317 84.6667 120.243 84.5693 120.2C84.472 120.158 84.3664 120.149 84.265 120.174C84.0627 120.226 83.9859 120.424 84.0883 120.609C84.1525 120.706 84.2383 120.78 84.336 120.823C84.4337 120.865 84.5394 120.874 84.6413 120.849C84.841 120.794 84.9178 120.6 84.8154 120.414Z" stroke="#263238" stroke-linecap="round" stroke-linejoin="round"/>
<path d="M84.9562 121.417L86.1517 123.57" stroke="#263238" stroke-linecap="round" stroke-linejoin="round"/>
<path d="M61.3568 121.96C61.8604 121.9 62.2378 121.488 62.1998 121.041C62.1618 120.593 61.7227 120.279 61.2191 120.339C60.7155 120.4 60.3381 120.811 60.3761 121.259C60.4141 121.707 60.8532 122.021 61.3568 121.96Z" stroke="white" stroke-linecap="round" stroke-linejoin="round"/>
<path d="M61.3146 120.791C61.2206 120.781 61.1267 120.811 61.05 120.877C60.9734 120.942 60.9191 121.038 60.8973 121.147C60.8973 121.342 61.0509 121.503 61.2685 121.503C61.3628 121.513 61.4571 121.483 61.5342 121.418C61.6113 121.352 61.666 121.256 61.6884 121.147C61.6961 120.949 61.5348 120.791 61.3146 120.791Z" stroke="white" stroke-linecap="round" stroke-linejoin="round"/>
<path d="M68.3918 121.958C68.8954 121.898 69.2729 121.486 69.2348 121.038C69.1968 120.591 68.7577 120.276 68.2541 120.337C67.7505 120.397 67.3731 120.809 67.4111 121.257C67.4492 121.704 67.8882 122.018 68.3918 121.958Z" stroke="white" stroke-linecap="round" stroke-linejoin="round"/>
<path d="M68.352 120.788C68.2578 120.778 68.1634 120.808 68.0864 120.873C68.0093 120.938 67.9545 121.035 67.9322 121.144C67.9194 121.341 68.0884 121.5 68.306 121.5C68.4003 121.511 68.4949 121.481 68.5721 121.415C68.6494 121.35 68.7039 121.253 68.7258 121.144C68.736 120.946 68.5696 120.788 68.352 120.788Z" stroke="white" stroke-linecap="round" stroke-linejoin="round"/>
<path d="M70.7686 120.326C70.2566 120.326 69.8342 120.691 69.8035 121.144C69.7727 121.597 70.1593 121.962 70.6636 121.962C71.1679 121.962 71.598 121.594 71.6287 121.144C71.6595 120.694 71.2729 120.323 70.7686 120.326Z" stroke="white" stroke-linecap="round" stroke-linejoin="round"/>
<path d="M70.7379 120.788C70.644 120.778 70.55 120.808 70.4733 120.874C70.3967 120.939 70.3424 121.035 70.3206 121.144C70.3078 121.339 70.4742 121.5 70.6918 121.5C70.7861 121.51 70.8804 121.48 70.9575 121.415C71.0346 121.349 71.0893 121.253 71.1117 121.144C71.1245 120.946 70.9581 120.788 70.7379 120.788Z" stroke="white" stroke-linecap="round" stroke-linejoin="round"/>
<path d="M63.826 120.326C63.314 120.326 62.889 120.694 62.8608 121.147C62.8327 121.6 63.2141 121.965 63.7184 121.965C64.2228 121.965 64.6554 121.597 64.6836 121.144C64.7117 120.691 64.3277 120.326 63.826 120.326Z" stroke="white" stroke-linecap="round" stroke-linejoin="round"/>
<path d="M63.7952 120.788C63.7009 120.778 63.6066 120.808 63.5295 120.873C63.4524 120.938 63.3977 121.035 63.3753 121.144C63.3625 121.341 63.5289 121.5 63.7491 121.5C63.8434 121.51 63.9377 121.48 64.0148 121.415C64.0919 121.349 64.1466 121.253 64.1689 121.144C64.1817 120.949 64.0128 120.788 63.7952 120.788Z" stroke="white" stroke-linecap="round" stroke-linejoin="round"/>
<path d="M64.8346 121.144H67.3562" stroke="white" stroke-linecap="round" stroke-linejoin="round"/>
<path d="M51.0313 119.144C51.5406 118.975 51.8747 118.503 51.7775 118.089C51.6803 117.675 51.1886 117.476 50.6792 117.645C50.1699 117.813 49.8358 118.286 49.933 118.7C50.0302 119.114 50.5219 119.313 51.0313 119.144Z" stroke="#263238" stroke-linecap="round" stroke-linejoin="round"/>
<path d="M50.9291 118.723C51.1511 118.649 51.2969 118.444 51.2547 118.264C51.2126 118.085 50.9984 117.999 50.7765 118.072C50.5545 118.146 50.4087 118.351 50.4508 118.531C50.493 118.71 50.7071 118.796 50.9291 118.723Z" stroke="#263238" stroke-linecap="round" stroke-linejoin="round"/>
<path d="M46.6816 124.175C46.8294 123.949 47.028 123.777 47.2544 123.679C47.4809 123.581 47.726 123.561 47.9616 123.622C48.4224 123.746 48.6016 124.196 48.3635 124.625C48.2156 124.851 48.017 125.023 47.7906 125.12C47.5642 125.218 47.3191 125.238 47.0835 125.178C46.6227 125.057 46.4435 124.607 46.6816 124.175Z" stroke="#263238" stroke-linecap="round" stroke-linejoin="round"/>
<path d="M47.1552 124.302C47.2187 124.205 47.3041 124.131 47.4014 124.089C47.4987 124.046 47.6041 124.037 47.7056 124.062C47.9053 124.117 47.9821 124.312 47.8797 124.497C47.816 124.594 47.7308 124.669 47.6336 124.712C47.5364 124.755 47.431 124.764 47.3293 124.74C47.127 124.686 47.0502 124.491 47.1552 124.302Z" stroke="#263238" stroke-linecap="round" stroke-linejoin="round"/>
<path d="M45.55 126.215C45.6966 125.992 45.8927 125.822 46.1161 125.724C46.3395 125.627 46.5814 125.605 46.8147 125.661C47.2755 125.786 47.4572 126.236 47.2166 126.665C47.0698 126.888 46.8733 127.058 46.6494 127.156C46.4255 127.253 46.1831 127.275 45.9494 127.218C45.4886 127.096 45.312 126.646 45.55 126.215Z" stroke="#263238" stroke-linecap="round" stroke-linejoin="round"/>
<path d="M46.0212 126.342C46.0849 126.245 46.1702 126.172 46.2675 126.129C46.3648 126.087 46.4701 126.077 46.5716 126.102C46.7712 126.157 46.8506 126.352 46.7456 126.537C46.682 126.634 46.5968 126.709 46.4996 126.752C46.4023 126.794 46.2969 126.804 46.1952 126.78C45.9956 126.725 45.9162 126.531 46.0212 126.342Z" stroke="#263238" stroke-linecap="round" stroke-linejoin="round"/>
<path d="M48.8422 120.287C48.9901 120.061 49.1887 119.889 49.4151 119.791C49.6415 119.693 49.8867 119.673 50.1222 119.733C50.583 119.855 50.7622 120.305 50.5242 120.737C50.3773 120.96 50.1809 121.13 49.957 121.228C49.7331 121.326 49.4906 121.347 49.257 121.29C48.7834 121.165 48.6042 120.718 48.8422 120.287Z" stroke="#263238" stroke-linecap="round" stroke-linejoin="round"/>
<path d="M49.3158 120.414C49.379 120.317 49.4643 120.242 49.5617 120.2C49.6591 120.157 49.7648 120.148 49.8662 120.174C49.9077 120.177 49.9478 120.193 49.9824 120.22C50.0169 120.248 50.0446 120.286 50.0624 120.33C50.0802 120.375 50.0876 120.424 50.0837 120.473C50.0798 120.522 50.0648 120.569 50.0403 120.609C49.9766 120.706 49.8912 120.78 49.794 120.822C49.6967 120.865 49.5914 120.874 49.4899 120.849C49.2877 120.794 49.2109 120.6 49.3158 120.414Z" stroke="#263238" stroke-linecap="round" stroke-linejoin="round"/>
<path d="M49.1724 121.417L47.9769 123.57" stroke="#263238" stroke-linecap="round" stroke-linejoin="round"/>
</svg>
