<svg width="250" height="250" viewBox="0 0 250 250" fill="none" xmlns="http://www.w3.org/2000/svg">
<path opacity="0.7" d="M33.965 83.545C33.965 83.545 20.025 119.545 39.615 155.795C59.205 192.045 99.555 211.195 131.85 227.57C164.145 243.945 197.68 235.97 213.615 209.15C229.55 182.33 207.695 163.185 207.665 124.94C207.635 86.695 213.39 76.57 192.665 44.26C171.94 11.95 121.135 4.79504 82.715 28.76C44.295 52.725 33.965 83.545 33.965 83.545Z" fill="white"/>
<path d="M42.8999 47.945C50.3649 39 60.4549 32.115 72.4999 32.265C92.9999 32.515 104.115 50.685 115.9 64.705C122 72 128.92 79 138 82.405C151.605 87.53 166.75 84.535 180 79.78C185.935 77.65 192.965 74.655 199.65 76.185C219.975 80.835 217.86 105.64 214.5 121.345C209.97 142.55 202.6 165.13 187.67 181.42C151.92 220.42 87.5799 196.515 55.3349 165.39C52.9649 163.105 50.6899 160.715 48.5549 158.205C43.0107 151.72 38.3192 144.551 34.5949 136.875C24.1849 115.265 22.7549 89 31.7649 66.66C34.4933 59.8867 38.249 53.5743 42.8999 47.945Z" fill="#BCBCFF"/>
<path opacity="0.7" d="M42.8999 47.945C50.3649 39 60.4549 32.115 72.4999 32.265C92.9999 32.515 104.115 50.685 115.9 64.705C122 72 128.92 79 138 82.405C151.605 87.53 166.75 84.535 180 79.78C185.935 77.65 192.965 74.655 199.65 76.185C219.975 80.835 217.86 105.64 214.5 121.345C209.97 142.55 202.6 165.13 187.67 181.42C151.92 220.42 87.5799 196.515 55.3349 165.39C52.9649 163.105 50.6899 160.715 48.5549 158.205C43.0107 151.72 38.3192 144.551 34.5949 136.875C24.1849 115.265 22.7549 89 31.7649 66.66C34.4933 59.8867 38.249 53.5743 42.8999 47.945Z" fill="white"/>
<path d="M240.715 218.675H14.2849" stroke="#263238" stroke-width="1.10975" stroke-linecap="round" stroke-linejoin="round"/>
<path d="M217.525 194.08C217.525 194.08 219.145 179.985 224.525 167.765C229.905 155.545 225.06 152.935 222.18 155.99C219.3 159.045 216.135 170.49 216.135 170.49C216.135 170.49 217.56 158.49 216.985 152.095C216.135 142.73 214.675 135.41 210.36 136.57C205.36 137.905 212.455 155.975 210.585 174.935C210.585 174.935 204.005 164.485 201.685 155.555C199.365 146.625 193.44 150.5 195.5 158.5C197.56 166.5 205.555 170.955 208.65 179.625C208.65 179.625 198.355 170.1 195.07 173.85C193.215 175.965 197.905 177.49 199.935 178.46C209.79 183.18 212.315 194.985 212.315 194.985L217.525 194.08Z" fill="#BCBCFF" stroke="#263238" stroke-width="1.10975" stroke-linecap="round" stroke-linejoin="round"/>
<path opacity="0.2" d="M217.525 194.08C217.525 194.08 219.145 179.985 224.525 167.765C229.905 155.545 225.06 152.935 222.18 155.99C219.3 159.045 216.135 170.49 216.135 170.49C216.135 170.49 217.56 158.49 216.985 152.095C216.135 142.73 214.675 135.41 210.36 136.57C205.36 137.905 212.455 155.975 210.585 174.935C210.585 174.935 204.005 164.485 201.685 155.555C199.365 146.625 193.44 150.5 195.5 158.5C197.56 166.5 205.555 170.955 208.65 179.625C208.65 179.625 198.355 170.1 195.07 173.85C193.215 175.965 197.905 177.49 199.935 178.46C209.79 183.18 212.315 194.985 212.315 194.985L217.525 194.08Z" fill="black" fill-opacity="0.7" stroke="#263238" stroke-width="1.10975" stroke-miterlimit="10"/>
<path d="M211.54 191.04C211.54 191.04 212.355 176.29 206.97 164.07C201.585 151.85 206.395 150.9 209.275 153.95C212.155 157 214.35 172.83 214.35 172.83C214.35 172.83 216.885 158.66 215.735 148.86C214.585 139.06 214.66 133.545 218.7 133.54C223.855 133.54 222.645 157.54 218.475 171.91C218.475 171.91 225.05 161.46 227.375 152.53C229.7 143.6 235.625 147.465 233.56 155.46C231.495 163.455 223.505 167.915 220.41 176.585C220.41 176.585 230.705 167.06 233.99 170.81C235.84 172.925 231.155 174.445 229.125 175.42C219.27 180.14 216.745 191.945 216.745 191.945L211.54 191.04Z" fill="#BCBCFF" stroke="#263238" stroke-width="1.10975" stroke-linecap="round" stroke-linejoin="round"/>
<path d="M209.695 163.455C214.265 173.77 214.525 188.81 214.525 188.81C214.525 188.81 220.525 158.925 219.025 146.335" stroke="#263238" stroke-width="1.10975" stroke-linecap="round" stroke-linejoin="round"/>
<path d="M229.45 157.53C229.45 157.53 222.74 171.69 216.605 177.125" stroke="#263238" stroke-width="1.10975" stroke-linecap="round" stroke-linejoin="round"/>
<path d="M229.45 172.785C229.45 172.785 218.11 180.085 215.33 184.555" stroke="#263238" stroke-width="1.10975" stroke-linecap="round" stroke-linejoin="round"/>
<path d="M230.19 185.255H198.61L201.055 218.675H227.745L230.19 185.255Z" fill="#757575" stroke="#263238" stroke-width="1.10975" stroke-linecap="round" stroke-linejoin="round"/>
<path d="M86.0252 85.8801C86.0252 85.8801 77.6852 82.9951 73.0252 77.0551C73.0252 77.0551 71.2002 77.2001 70.3052 77.2051" stroke="#263238" stroke-width="1.10975" stroke-linecap="round" stroke-linejoin="round"/>
<path d="M89.605 55.225C90.5909 56.7162 91.211 58.419 91.415 60.195C92.13 66.65 87.075 72.755 79.415 75.575C79.415 75.575 79.865 81.47 86.01 85.88" stroke="#263238" stroke-width="1.10975" stroke-linecap="round" stroke-linejoin="round"/>
<path d="M86.6702 52C87.1619 52.3966 87.6279 52.8241 88.0652 53.28" stroke="#263238" stroke-width="1.10975" stroke-linecap="round" stroke-linejoin="round"/>
<path d="M58.3452 52C61.9079 49.5938 66.0163 48.1178 70.2957 47.7064C74.5751 47.2951 78.8894 47.9615 82.8452 49.645" stroke="#263238" stroke-width="1.10975" stroke-linecap="round" stroke-linejoin="round"/>
<path d="M65.0501 76.69C57.8151 75.19 52.3701 70.595 51.7101 64.605C51.2451 60.425 53.2101 56.385 56.7101 53.295" stroke="#263238" stroke-width="1.10975" stroke-linecap="round" stroke-linejoin="round"/>
<path d="M65.7202 57.405C66.2702 55.485 69.0702 55.165 70.3052 53.295V66.68C70.3052 69.18 75.0502 69.865 76.6952 68C78.3402 66.135 75.2702 62.95 71.1952 65.365" stroke="#263238" stroke-width="1.10975" stroke-linecap="round" stroke-linejoin="round"/>
<path d="M157.735 160.645H98.8301C95.4136 160.645 92.137 162.002 89.7208 164.417C87.3045 166.832 85.9464 170.108 85.9451 173.525C85.9449 176.734 87.1429 179.828 89.3042 182.2C91.4656 184.572 94.4347 186.052 97.6301 186.35V218.675H157.5V186.41H157.75C159.442 186.41 161.117 186.077 162.68 185.429C164.243 184.781 165.663 183.832 166.859 182.636C168.055 181.439 169.004 180.019 169.651 178.455C170.298 176.892 170.631 175.217 170.63 173.525C170.63 171.832 170.296 170.156 169.648 168.592C169 167.029 168.05 165.608 166.852 164.412C165.655 163.216 164.233 162.267 162.669 161.621C161.104 160.975 159.428 160.643 157.735 160.645Z" fill="#BCBCFF"/>
<mask id="mask0_152_4103" style="mask-type:luminance" maskUnits="userSpaceOnUse" x="85" y="160" width="86" height="59">
<path d="M157.735 160.645H98.8301C95.4136 160.645 92.137 162.002 89.7208 164.417C87.3045 166.832 85.9464 170.108 85.9451 173.525C85.9449 176.734 87.1429 179.828 89.3042 182.2C91.4656 184.572 94.4347 186.052 97.6301 186.35V218.675H157.5V186.41H157.75C159.442 186.41 161.117 186.077 162.68 185.429C164.243 184.781 165.663 183.832 166.859 182.636C168.055 181.439 169.004 180.019 169.651 178.455C170.298 176.892 170.631 175.217 170.63 173.525C170.63 171.832 170.296 170.156 169.648 168.592C169 167.029 168.05 165.608 166.852 164.412C165.655 163.216 164.233 162.267 162.669 161.621C161.104 160.975 159.428 160.643 157.735 160.645Z" fill="white"/>
</mask>
<g mask="url(#mask0_152_4103)">
<path opacity="0.3" d="M157.735 160.645H98.8301C95.4136 160.645 92.137 162.002 89.7208 164.417C87.3045 166.832 85.9464 170.108 85.9451 173.525C85.9449 176.734 87.1429 179.828 89.3042 182.2C91.4656 184.572 94.4347 186.052 97.6301 186.35V218.675H157.5V186.41H157.75C159.442 186.41 161.117 186.077 162.68 185.429C164.243 184.781 165.663 183.832 166.859 182.636C168.055 181.439 169.004 180.019 169.651 178.455C170.298 176.892 170.631 175.217 170.63 173.525C170.63 171.832 170.296 170.156 169.648 168.592C169 167.029 168.05 165.608 166.852 164.412C165.655 163.216 164.233 162.267 162.669 161.621C161.104 160.975 159.428 160.643 157.735 160.645Z" fill="black" fill-opacity="0.7"/>
<path opacity="0.3" d="M170.615 173.525C170.615 176.941 169.258 180.217 166.842 182.632C164.427 185.048 161.151 186.405 157.735 186.405H157.5V203.74C145 197.925 131.35 186.335 131.35 186.335L124.74 184.04C103.47 185.725 96.63 170.455 90.085 164.09C92.4638 161.875 95.5946 160.646 98.845 160.65H157.735C161.15 160.65 164.425 162.006 166.841 164.421C169.256 166.835 170.614 170.11 170.615 173.525Z" fill="black" fill-opacity="0.7"/>
<path d="M149.065 186.35H152.635Z" fill="white"/>
<path d="M149.065 186.35H152.635" stroke="#263238" stroke-width="1.10975" stroke-linecap="round" stroke-linejoin="round"/>
<path d="M121.205 186.33H144.365C136.595 186.33 128.875 186.33 121.205 186.33Z" fill="white" stroke="#263238" stroke-width="1.10975" stroke-linecap="round" stroke-linejoin="round"/>
<path d="M115.5 186.33H97.6301" stroke="#263238" stroke-width="1.10975" stroke-linecap="round" stroke-linejoin="round"/>
</g>
<path d="M157.735 160.645H98.8301C95.4136 160.645 92.137 162.002 89.7208 164.417C87.3045 166.832 85.9464 170.108 85.9451 173.525C85.9449 176.734 87.1429 179.828 89.3042 182.2C91.4656 184.572 94.4347 186.052 97.6301 186.35V218.675H157.5V186.41H157.75C159.442 186.41 161.117 186.077 162.68 185.429C164.243 184.781 165.663 183.832 166.859 182.636C168.055 181.439 169.004 180.019 169.651 178.455C170.298 176.892 170.631 175.217 170.63 173.525C170.63 171.832 170.296 170.156 169.648 168.592C169 167.029 168.05 165.608 166.852 164.412C165.655 163.216 164.233 162.267 162.669 161.621C161.104 160.975 159.428 160.643 157.735 160.645Z" stroke="#263238" stroke-width="1.10975" stroke-linecap="round" stroke-linejoin="round"/>
<path d="M133.45 92.835C147.985 97.105 156.29 98.44 156.29 98.44C156.79 88.1 158.125 82.4 157.82 70.115C157.82 70.115 155.025 67.38 155.445 65.785C155.615 65.12 157.04 61.515 157.04 61.515L162.885 56.205C162.885 56.205 166.19 58.895 166.025 61.99C166.025 61.99 166.61 65.275 166.025 66.93C165.44 68.585 164.195 71.93 164.195 71.93C164.195 71.93 164.55 84.28 166.245 91.285C167.94 98.29 166.685 109.715 163.865 109.97C161.045 110.225 131.655 107.61 131.655 107.61C131.655 107.61 130.21 91.88 133.45 92.835Z" fill="white"/>
<mask id="mask1_152_4103" style="mask-type:luminance" maskUnits="userSpaceOnUse" x="131" y="56" width="37" height="54">
<path d="M133.45 92.835C147.985 97.105 156.29 98.44 156.29 98.44C156.79 88.1 158.125 82.4 157.82 70.115C157.82 70.115 155.025 67.38 155.445 65.785C155.615 65.12 157.04 61.515 157.04 61.515L162.885 56.205C162.885 56.205 166.19 58.895 166.025 61.99C166.025 61.99 166.61 65.275 166.025 66.93C165.44 68.585 164.195 71.93 164.195 71.93C164.195 71.93 164.55 84.28 166.245 91.285C167.94 98.29 166.685 109.715 163.865 109.97C161.045 110.225 131.655 107.61 131.655 107.61C131.655 107.61 130.21 91.88 133.45 92.835Z" fill="white"/>
</mask>
<g mask="url(#mask1_152_4103)">
<g opacity="0.5">
<path d="M164.68 92.835C164.893 93.2057 164.96 93.6422 164.87 94.06C164.749 94.4837 164.495 94.8571 164.145 95.125C163.785 95.4172 163.333 95.5715 162.87 95.56C162.624 95.555 162.381 95.4986 162.158 95.3944C161.935 95.2902 161.736 95.1405 161.575 94.955L161.445 94.825L161.355 94.68L161.165 94.375C161.067 94.1663 160.98 93.9527 160.905 93.735C160.78 93.2965 160.704 92.8453 160.68 92.39C160.688 91.9199 160.764 91.4535 160.905 91.005C161.048 90.5734 161.232 90.1565 161.455 89.76C162.351 88.2697 163.488 86.9383 164.82 85.82C164.955 85.7 165.095 85.58 165.23 85.47C165.335 86.27 165.45 87.055 165.575 87.82C164.458 88.559 163.462 89.4645 162.62 90.505C162.164 91.0674 161.855 91.7339 161.72 92.445C161.623 93.1584 161.758 93.8842 162.105 94.515C162.31 94.7986 162.617 94.9909 162.962 95.0507C163.307 95.1105 163.661 95.0331 163.95 94.835C164.284 94.6464 164.548 94.3554 164.705 94.005C164.841 93.6253 164.833 93.2084 164.68 92.835Z" fill="#BCBCFF"/>
<path d="M167 98.46C166.765 98.9511 166.429 99.3874 166.015 99.7406C165.601 100.094 165.117 100.356 164.595 100.51C161.905 101.165 158.515 99.76 156.31 97.82C156.395 96.245 156.495 94.775 156.61 93.37C158.045 95.64 160.11 98.02 162.32 98.02C166.49 98.02 166.455 92.63 165.37 91.485C165.247 91.3308 165.091 91.2063 164.914 91.1208C164.736 91.0352 164.542 90.9908 164.345 90.9908C164.148 90.9908 163.953 91.0352 163.776 91.1208C163.598 91.2063 163.443 91.3308 163.32 91.485C163.32 91.485 163.945 88.875 165.955 89.985C166.045 90.43 166.135 90.85 166.235 91.26C166.764 93.6229 167.021 96.0386 167 98.46Z" fill="#BCBCFF"/>
<path d="M159.185 87.85C159.185 87.85 160.9 86.75 160.04 84.3C159.625 83.11 158.54 83.07 157.49 83.355C157.565 82.355 157.63 81.355 157.685 80.33C158.296 80.3324 158.899 80.4622 159.457 80.711C160.015 80.9598 160.515 81.3222 160.925 81.775C162.645 83.8 161.21 88.37 159.185 87.85Z" fill="#BCBCFF"/>
<path d="M165 83.255C164.423 83.7231 163.874 84.2239 163.355 84.755C163.432 83.9371 163.324 83.1123 163.04 82.3414C162.757 81.5705 162.304 80.8729 161.715 80.3C160.612 79.3416 159.246 78.7371 157.795 78.565C157.825 77.74 157.85 76.9 157.865 76.015C158.5 75.8986 159.15 75.8834 159.79 75.97C158.84 73.56 160.525 72.02 161.715 72.17C162.905 72.32 162.805 73.85 162.805 73.85C162.375 72.61 160.45 72.975 161.22 75.025C161.72 76.36 163.36 76.42 164.43 76.3C164.525 78.305 164.71 80.765 165 83.255Z" fill="#BCBCFF"/>
<path d="M159.88 89.34C159.815 89.555 158.43 93.61 156.765 91.63C156.815 91.025 156.87 90.435 156.92 89.845C157.393 90.1253 157.95 90.2284 158.493 90.1359C159.035 90.0434 159.526 89.7613 159.88 89.34Z" fill="#BCBCFF"/>
<path d="M157.15 87.36C157.225 86.55 157.295 85.74 157.365 84.92C157.92 84.705 158.45 84.705 158.625 85.36C158.895 86.36 158.05 87.5 157.15 87.36Z" fill="#BCBCFF"/>
</g>
</g>
<path d="M133.45 92.835C147.985 97.105 156.29 98.44 156.29 98.44C156.79 88.1 158.125 82.4 157.82 70.115C157.82 70.115 155.025 67.38 155.445 65.785C155.615 65.12 157.04 61.515 157.04 61.515L162.885 56.205C162.885 56.205 166.19 58.895 166.025 61.99C166.025 61.99 166.61 65.275 166.025 66.93C165.44 68.585 164.195 71.93 164.195 71.93C164.195 71.93 164.55 84.28 166.245 91.285C167.94 98.29 166.685 109.715 163.865 109.97C161.045 110.225 131.655 107.61 131.655 107.61C131.655 107.61 130.21 91.88 133.45 92.835Z" stroke="#263238" stroke-width="1.10975" stroke-linecap="round" stroke-linejoin="round"/>
<path d="M118.97 89.435C118.97 89.435 127.57 88.785 132.725 90.865C137.88 92.945 146.48 94.865 146.48 94.865C146.48 94.865 145.765 104.905 142.945 108.54L128.6 111.66C128.6 111.66 124.645 92.115 118.97 89.435Z" fill="#757575"/>
<mask id="mask2_152_4103" style="mask-type:luminance" maskUnits="userSpaceOnUse" x="118" y="89" width="29" height="23">
<path d="M118.97 89.435C118.97 89.435 127.57 88.785 132.725 90.865C137.88 92.945 146.48 94.865 146.48 94.865C146.48 94.865 145.765 104.905 142.945 108.54L128.6 111.66C128.6 111.66 124.645 92.115 118.97 89.435Z" fill="white"/>
</mask>
<g mask="url(#mask2_152_4103)">
<path opacity="0.2" d="M142.27 108.705L128.6 111.705C128.6 111.705 131.65 110.025 131.525 109.47L132.615 103.64C132.615 103.64 138.435 104.055 140.085 107.1V105.37C140.085 105.37 142.25 105.595 142.27 108.705Z" fill="black" fill-opacity="0.7"/>
</g>
<path d="M118.97 89.435C118.97 89.435 127.57 88.785 132.725 90.865C137.88 92.945 146.48 94.865 146.48 94.865C146.48 94.865 145.765 104.905 142.945 108.54L128.6 111.66C128.6 111.66 124.645 92.115 118.97 89.435Z" stroke="#263238" stroke-width="1.10975" stroke-linecap="round" stroke-linejoin="round"/>
<path d="M138.705 107.455C139.675 99.855 145.875 97.42 155.03 99.045C155.03 99.045 156.655 108.045 161.25 107.35C165.845 106.655 167.68 105.85 169.635 108.65C171.59 111.45 166.46 116.335 167.53 121.555C168.6 126.775 173.16 136.295 172.28 143.21C171.4 150.125 167.28 156.07 149.315 153.78C131.35 151.49 129.185 143.17 129.87 137.805C130.555 132.44 138.51 120.765 139.075 116.305C139.64 111.845 138.145 111.86 138.705 107.455Z" fill="#BCBCFF" stroke="#263238" stroke-width="1.10975" stroke-linecap="round" stroke-linejoin="round"/>
<path d="M158.799 118.981C160.444 116.13 159.468 112.485 156.617 110.839C153.766 109.193 150.121 110.17 148.476 113.021C146.83 115.871 147.806 119.516 150.657 121.162C153.508 122.808 157.153 121.831 158.799 118.981Z" fill="#263238"/>
<path d="M156.89 112.69L151.315 111.98L158.935 59.1L162.78 59.595L156.89 112.69Z" fill="#757575" stroke="#263238" stroke-width="1.10975" stroke-linecap="round" stroke-linejoin="round"/>
<path d="M164.905 47.5C164.247 46.8773 163.408 46.4802 162.509 46.3661C161.61 46.2519 160.698 46.4266 159.905 46.865L158.785 46.72L158.105 59L163.605 59.705L166.02 47.635L164.905 47.5Z" fill="#BCBCFF" stroke="#263238" stroke-width="1.10975" stroke-linecap="round" stroke-linejoin="round"/>
<path d="M158.07 110.55L158.405 107.905C159.601 108.5 160.962 108.676 162.27 108.405C164.64 107.975 167.195 107.87 168.3 109.17C169.405 110.47 167.065 114.3 166.495 116.96C165.925 119.62 166.19 123 167.5 126.5C167.5 126.5 164.82 128.5 164.205 123.33C163.48 117.23 160.41 116.83 160.41 116.83C160.41 116.83 161.27 113.525 158.07 110.55Z" fill="#757575" stroke="#263238" stroke-width="1.10975" stroke-linecap="round" stroke-linejoin="round"/>
<path d="M160.355 130.81L143.415 128.65L142.945 132.35L147.725 132.96C148.36 133.46 149.725 133.9 151.33 134.105C152.935 134.31 154.37 134.215 155.1 133.9L159.885 134.51L160.355 130.81Z" fill="#757575" stroke="#263238" stroke-width="1.10975" stroke-linecap="round" stroke-linejoin="round"/>
<path d="M166.419 50.9926L165.604 50.8357L165.257 52.6376L166.072 52.7945L166.419 50.9926Z" fill="#757575" stroke="#263238" stroke-width="1.10975" stroke-linecap="round" stroke-linejoin="round"/>
<path d="M165.84 53.9801L165.025 53.8231L164.678 55.625L165.493 55.782L165.84 53.9801Z" fill="#757575" stroke="#263238" stroke-width="1.10975" stroke-linecap="round" stroke-linejoin="round"/>
<path d="M165.265 56.9674L164.45 56.8104L164.103 58.6123L164.918 58.7693L165.265 56.9674Z" fill="#757575" stroke="#263238" stroke-width="1.10975" stroke-linecap="round" stroke-linejoin="round"/>
<path d="M157.543 51.7048L158.371 51.7573L158.487 49.926L157.659 49.8735L157.543 51.7048Z" fill="#757575" stroke="#263238" stroke-width="1.10975" stroke-linecap="round" stroke-linejoin="round"/>
<path d="M157.35 54.7379L158.178 54.7904L158.294 52.9591L157.466 52.9065L157.35 54.7379Z" fill="#757575" stroke="#263238" stroke-width="1.10975" stroke-linecap="round" stroke-linejoin="round"/>
<path d="M156.664 58.1776L157.494 58.2274L157.604 56.3924L156.774 56.3426L156.664 58.1776Z" fill="#757575" stroke="#263238" stroke-width="1.11175" stroke-linecap="round" stroke-linejoin="round"/>
<g opacity="0.5">
<path d="M162.125 49.4249C162.049 49.4243 161.974 49.4387 161.903 49.4673C161.833 49.4959 161.769 49.5381 161.715 49.5916C161.661 49.645 161.618 49.7087 161.589 49.7787C161.56 49.8488 161.545 49.924 161.545 49.9999L160.865 57.4399C160.854 57.506 160.869 57.5736 160.906 57.6292C160.943 57.6848 161 57.7244 161.065 57.74C161.19 57.74 161.305 57.6499 161.33 57.4949L162.54 50.1249C162.559 50.0517 162.563 49.9755 162.552 49.9007C162.541 49.8259 162.516 49.7539 162.478 49.6889C162.439 49.6239 162.388 49.5671 162.328 49.5218C162.267 49.4765 162.198 49.4436 162.125 49.4249Z" fill="black"/>
<path d="M164 49.6849C163.926 49.6737 163.85 49.678 163.777 49.6975C163.705 49.717 163.637 49.7513 163.578 49.7983C163.519 49.8452 163.471 49.9038 163.436 49.9704C163.401 50.0369 163.38 50.11 163.375 50.1849L162 57.5249C161.984 57.5919 161.992 57.6623 162.023 57.7237C162.054 57.7851 162.106 57.8334 162.17 57.8599C162.202 57.8649 162.236 57.8634 162.268 57.8555C162.299 57.8477 162.33 57.8336 162.356 57.8141C162.382 57.7946 162.405 57.77 162.422 57.7419C162.439 57.7137 162.45 57.6825 162.455 57.6499L164.315 50.4449C164.367 50.3018 164.363 50.1445 164.305 50.0038C164.247 49.8632 164.138 49.7495 164 49.6849Z" fill="black"/>
<path d="M160.265 49.21C160.116 49.2368 159.982 49.3182 159.889 49.4384C159.797 49.5586 159.753 49.7089 159.765 49.86V57.3C159.758 57.3656 159.777 57.4313 159.818 57.4828C159.86 57.5343 159.919 57.5674 159.985 57.575C160.053 57.5675 160.117 57.5345 160.162 57.4827C160.207 57.4308 160.232 57.3638 160.23 57.295L160.775 49.85C160.788 49.7738 160.784 49.6959 160.765 49.6212C160.746 49.5464 160.711 49.4766 160.663 49.4162C160.615 49.3559 160.554 49.3063 160.486 49.2708C160.417 49.2352 160.342 49.2145 160.265 49.21Z" fill="black"/>
</g>
<path d="M158.245 56.5L159.245 59.14L149.2 131.61" stroke="white" stroke-width="0.832313" stroke-linecap="round" stroke-linejoin="round"/>
<path d="M150.16 131.735L159.89 59.2249L158.39 53.9399" stroke="white" stroke-width="0.832313" stroke-linecap="round" stroke-linejoin="round"/>
<path d="M151.125 131.855L160.53 59.305L158.55 51.115" stroke="white" stroke-width="0.832313" stroke-linecap="round" stroke-linejoin="round"/>
<path d="M164.105 57.245L162.47 59.55L154.015 132.225" stroke="white" stroke-width="0.832313" stroke-linecap="round" stroke-linejoin="round"/>
<path d="M153.05 132.1L161.825 59.47L164.6 54.735" stroke="white" stroke-width="0.832313" stroke-linecap="round" stroke-linejoin="round"/>
<path d="M152.09 131.98L161.18 59.3899L165.16 51.95" stroke="white" stroke-width="0.832313" stroke-linecap="round" stroke-linejoin="round"/>
<path d="M193.795 161.29C193.795 161.29 189.035 168.555 184.205 168.845C179.375 169.135 172.39 168.845 172.39 168.845C172.39 168.845 183.5 159.145 193.795 161.29Z" fill="#757575" stroke="#263238" stroke-width="1.10975" stroke-linecap="round" stroke-linejoin="round"/>
<path d="M190.355 158.8C190.355 158.8 190.95 163.885 190.355 166.5C189.76 169.115 175.055 195.235 172.39 205.68L164.605 203.435C164.605 203.435 169.525 190.205 169.525 182.24C169.525 174.275 176.075 162.95 176.075 162.95L190.355 158.8Z" fill="white" stroke="#263238" stroke-width="1.10975" stroke-linecap="round" stroke-linejoin="round"/>
<path d="M157.05 216.92C157.795 220.255 170.52 218.92 175.475 219.3C178.669 219.535 181.876 219.535 185.07 219.3C185.07 219.3 186.985 215.535 182.22 214.345C177.455 213.155 172.5 210.87 172.995 209.845C173.49 208.82 174.495 204.56 174.495 204.56C174.495 204.56 174.17 203.395 170.365 205.11C170.365 205.11 166.425 202.06 164.115 202.06C161.805 202.06 161.8 207.325 161.8 207.325L157.05 216.92Z" fill="#263238"/>
<path d="M189.165 205.68C189.165 205.68 193.53 205.24 196.11 207.31C196.11 207.31 196.9 206.43 198.685 207.31C200.47 208.19 201.66 210.52 204.24 211.415C206.82 212.31 212.77 213.75 214.74 214.54C216.71 215.33 218.11 216.21 216.92 219.3C215.73 222.39 208.39 221.365 200.455 220.51C192.52 219.655 192.125 216.115 192.125 216.115C192.125 216.115 178.455 211.5 189.165 205.68Z" fill="#263238"/>
<path d="M162.78 173.615L193.905 207.5C193.905 207.5 193.795 211.5 187.71 211.44C187.71 211.44 169.85 201.48 165.16 198.635C160.47 195.79 152.09 182 152.09 182L162.78 173.615Z" fill="white"/>
<mask id="mask3_152_4103" style="mask-type:luminance" maskUnits="userSpaceOnUse" x="152" y="173" width="42" height="39">
<path d="M162.78 173.615L193.905 207.5C193.905 207.5 193.795 211.5 187.71 211.44C187.71 211.44 169.85 201.48 165.16 198.635C160.47 195.79 152.09 182 152.09 182L162.78 173.615Z" fill="white"/>
</mask>
<g mask="url(#mask3_152_4103)">
<path opacity="0.5" d="M168.595 189.73C162.99 190.07 164.595 185.73 164.595 185.73C165.32 188.23 166.92 188.805 168.595 186.975C171.035 184.285 163.865 176.295 160.935 181.27L159.03 176.545C160.949 175.946 162.974 175.76 164.97 176L172.445 184.13C172.8 187.06 171.55 189.545 168.595 189.73Z" fill="#BCBCFF"/>
<path opacity="0.5" d="M177.5 189.6C177.256 190.339 176.732 190.953 176.04 191.31C173.895 192.28 171.5 192.26 170.845 193.58C170.19 194.9 171.57 195.335 172.415 195.335C173.26 195.335 173.02 193.725 173.02 193.725C173.02 193.725 174.06 195.26 173.475 195.77C172.89 196.28 170.4 197.235 169.23 195.27C168.06 193.305 168.94 191.615 173.02 189.77C173.594 189.552 174.093 189.172 174.455 188.675C174.817 188.179 175.027 187.589 175.06 186.975L177.5 189.6Z" fill="#BCBCFF"/>
<path opacity="0.5" d="M167.595 196.14C167.595 196.14 163.205 196.945 161.67 194.02C160.17 191.195 161.17 189.955 161.225 189.87C160.711 190.07 160.247 190.38 159.866 190.78C159.484 191.179 159.196 191.657 159.02 192.18C157.645 190.385 156.32 188.49 155.205 186.835L160.935 183.5C160.935 183.5 160.865 187.675 163.06 190.23C165.255 192.785 167.595 191.695 167.595 191.695C167.595 191.695 166.21 194.53 167.595 196.14Z" fill="#BCBCFF"/>
<path opacity="0.5" d="M173.36 199.8C173.36 199.8 174.15 199.045 173.36 198.58C172.74 198.215 171.685 200.28 169.22 200.985C167.515 199.985 166.08 199.17 165.16 198.61C166.338 198.835 167.547 198.835 168.725 198.61C171.475 197.95 173.01 196.705 173.965 197.73C174.92 198.755 173.855 199.875 173.36 199.8Z" fill="#BCBCFF"/>
</g>
<path d="M162.78 173.615L193.905 207.5C193.905 207.5 193.795 211.5 187.71 211.44C187.71 211.44 169.85 201.48 165.16 198.635C160.47 195.79 152.09 182 152.09 182L162.78 173.615Z" stroke="#263238" stroke-width="1.10975" stroke-linecap="round" stroke-linejoin="round"/>
<path d="M132.725 142.755C132.725 142.755 183.225 148.3 187.445 150.87C191.665 153.44 193.795 161.29 193.795 161.29C184.005 162.95 172.39 168.825 172.39 168.825V166.785C172.39 166.785 124.105 168.5 111.5 169.575" fill="#BFBFBF"/>
<mask id="mask4_152_4103" style="mask-type:luminance" maskUnits="userSpaceOnUse" x="111" y="142" width="83" height="28">
<path d="M132.725 142.755C132.725 142.755 183.225 148.3 187.445 150.87C191.665 153.44 193.795 161.29 193.795 161.29C184.005 162.95 172.39 168.825 172.39 168.825V166.785C172.39 166.785 124.105 168.5 111.5 169.575" fill="white"/>
</mask>
<g mask="url(#mask4_152_4103)">
<path opacity="0.2" d="M164.745 167.07C155.57 167.42 139.87 168.035 127.38 168.64L132.855 161.24L134.215 157.805C134.215 157.805 135.6 156.83 136.855 152.67C136.855 152.67 139.44 154.1 139.425 156.99C139.425 156.99 147.675 157.12 151.65 154.895C151.65 154.895 153.335 157.815 152.085 159.53C152.085 159.53 160.705 161.53 164.745 167.07Z" fill="black" fill-opacity="0.7"/>
</g>
<path d="M132.725 142.755C132.725 142.755 183.225 148.3 187.445 150.87C191.665 153.44 193.795 161.29 193.795 161.29C184.005 162.95 172.39 168.825 172.39 168.825V166.785C172.39 166.785 124.105 168.5 111.5 169.575" stroke="#263238" stroke-width="1.10975" stroke-miterlimit="10"/>
<path d="M126.695 161C126.255 159.28 134.195 157.825 134.195 157.825C134.195 157.825 154.63 165.895 158.605 168.2C162.58 170.505 168.57 176.475 168.57 176.475C166.115 184.675 152.07 189.735 152.07 189.735L149.18 187.425C149.18 187.425 111.095 182.26 107.48 176.98C104.895 173.205 102.92 161.31 102.92 161.31L116.575 147.485" fill="#BFBFBF"/>
<mask id="mask5_152_4103" style="mask-type:luminance" maskUnits="userSpaceOnUse" x="102" y="147" width="67" height="43">
<path d="M126.695 161C126.255 159.28 134.195 157.825 134.195 157.825C134.195 157.825 154.63 165.895 158.605 168.2C162.58 170.505 168.57 176.475 168.57 176.475C166.115 184.675 152.07 189.735 152.07 189.735L149.18 187.425C149.18 187.425 111.095 182.26 107.48 176.98C104.895 173.205 102.92 161.31 102.92 161.31L116.575 147.485" fill="white"/>
</mask>
<g mask="url(#mask5_152_4103)">
<path opacity="0.2" d="M127.025 151.845C125.942 155.121 124.378 158.218 122.385 161.035C120.433 163.867 118.028 166.357 115.265 168.405C112.37 170.548 109.322 172.477 106.145 174.175C104.645 170.265 103.525 164.51 103.105 162.25L105.4 161.25L127.025 151.845Z" fill="black" fill-opacity="0.7"/>
</g>
<path d="M126.695 161C126.255 159.28 134.195 157.825 134.195 157.825C134.195 157.825 154.63 165.895 158.605 168.2C162.58 170.505 168.57 176.475 168.57 176.475C166.115 184.675 152.07 189.735 152.07 189.735L149.18 187.425C149.18 187.425 111.095 182.26 107.48 176.98C104.895 173.205 102.92 161.31 102.92 161.31L116.575 147.485" stroke="#263238" stroke-width="1.10975" stroke-miterlimit="10"/>
<path d="M151.76 185.095C152.239 185.482 152.672 185.924 153.05 186.41" stroke="#263238" stroke-width="1.10975" stroke-linecap="round" stroke-linejoin="round"/>
<path d="M109.72 164.965C110.3 169.12 111.41 172.465 114.72 174.67C118.045 176.335 121.93 176.89 125.26 178C133.585 180.22 141.905 182.44 149.975 184.04" stroke="#263238" stroke-width="1.10975" stroke-linecap="round" stroke-linejoin="round"/>
<path d="M136.855 150.5C136.855 150.5 136.935 155.905 135.765 158.425" stroke="#263238" stroke-width="1.10975" stroke-linecap="round" stroke-linejoin="round"/>
<path d="M181.69 160.645C182.487 160.313 183.33 160.106 184.19 160.03" stroke="#263238" stroke-width="1.10975" stroke-linecap="round" stroke-linejoin="round"/>
<path d="M172.39 166.785C174.765 164.628 177.402 162.78 180.24 161.285" stroke="#263238" stroke-width="1.10975" stroke-linecap="round" stroke-linejoin="round"/>
<path d="M156.905 151.725C157.364 151.354 157.757 150.91 158.07 150.41" stroke="#263238" stroke-width="1.10975" stroke-linecap="round" stroke-linejoin="round"/>
<path d="M138.53 159.53C144.32 157.87 150.53 155.98 155.625 152.67" stroke="#263238" stroke-width="1.10975" stroke-linecap="round" stroke-linejoin="round"/>
<path d="M128 148.6C128 148.6 128.75 153.24 131.375 154.46C134 155.68 134.205 157.805 134.205 157.805" stroke="#263238" stroke-width="1.10975" stroke-linecap="round" stroke-linejoin="round"/>
<path d="M82.9151 126.425L77.2051 139.87C77.2051 139.87 75.3801 148.78 80.4251 150.095C85.4701 151.41 87.4501 149.31 89.2801 142.755C90.2801 139.185 96.2801 128.65 96.2801 128.65L82.9151 126.425Z" fill="white" stroke="#263238" stroke-width="1.10975" stroke-linecap="round" stroke-linejoin="round"/>
<path d="M86.6951 142.695C88.4151 146.485 85.1601 151.785 80.0601 151.785C73.2651 151.785 74.4151 152.695 72.8551 146.84C72.0151 143.695 76.0351 136.965 83.2051 139.665" fill="white"/>
<path d="M86.6951 142.695C88.4151 146.485 85.1601 151.785 80.0601 151.785C73.2651 151.785 74.4151 152.695 72.8551 146.84C72.0151 143.695 76.0351 136.965 83.2051 139.665" stroke="#263238" stroke-width="1.10975" stroke-linecap="round" stroke-linejoin="round"/>
<path d="M131.525 109.445C128.43 112.69 129.805 132.485 128.6 136.265C128.6 136.265 130.835 137.815 130.835 139.19C130.835 140.565 136.835 141.08 136.835 141.08C136.835 141.08 124.5 160.165 116.565 163.26C111.622 165.101 106.249 165.459 101.105 164.29L93.6051 136.35L92.8751 137.5C92.8751 137.5 87.1651 128.54 80.9751 129.745C80.9751 129.745 85.9751 114.02 89.2301 108.08C91.7301 103.58 102.065 97.2949 110.95 92.0299C114.665 89.8249 121.285 88.1099 126.195 90.8749" fill="#757575"/>
<mask id="mask6_152_4103" style="mask-type:luminance" maskUnits="userSpaceOnUse" x="80" y="89" width="57" height="76">
<path d="M131.525 109.445C128.43 112.69 129.805 132.485 128.6 136.265C128.6 136.265 130.835 137.815 130.835 139.19C130.835 140.565 136.835 141.08 136.835 141.08C136.835 141.08 124.5 160.165 116.565 163.26C111.622 165.101 106.249 165.459 101.105 164.29L93.6051 136.35L92.8751 137.5C92.8751 137.5 87.1651 128.54 80.9751 129.745C80.9751 129.745 85.9751 114.02 89.2301 108.08C91.7301 103.58 102.065 97.2949 110.95 92.0299C114.665 89.8249 121.285 88.1099 126.195 90.8749" fill="white"/>
</mask>
<g mask="url(#mask6_152_4103)">
<path opacity="0.2" d="M102.1 134.085C102.18 134.585 98.1601 140.585 95.7151 144.185L93.6301 136.395L96.7651 131.855C96.7651 131.855 100.265 127.465 100.515 123.625C100.515 123.625 103.825 127.465 100.66 133.4C100.66 133.4 102 133.35 102.1 134.085Z" fill="black" fill-opacity="0.7"/>
<path d="M104.115 118.18L109.045 121.725L109.26 126.085L110.915 122.94L110.485 120.705L112.4 121.375L114.85 120.46L111.905 118.79L115.5 117.425L114.565 118.575L115.815 119.065L119.455 118.36L119.97 116.565L118.155 116.91L117.89 115.525L120.97 113.765L121.185 114.89L121.635 117.215L122.7 116.035L123.755 114.4L124.02 115.785L126.005 115.4L124.305 113.125L125.205 105.61L120.37 110.655L121.52 111.46L123.615 109.53L122.51 112.725L119.655 111.82L115.87 114.45L117.115 115.675L113.45 116.38L114.88 114.195L110.2 116.285L110.055 118.47L108.575 119.28L108.02 116.41L104.115 118.18Z" fill="white"/>
</g>
<path d="M131.525 109.445C128.43 112.69 129.805 132.485 128.6 136.265C128.6 136.265 130.835 137.815 130.835 139.19C130.835 140.565 136.835 141.08 136.835 141.08C136.835 141.08 124.5 160.165 116.565 163.26C111.622 165.101 106.249 165.459 101.105 164.29L93.6051 136.35L92.8751 137.5C92.8751 137.5 87.1651 128.54 80.9751 129.745C80.9751 129.745 85.9751 114.02 89.2301 108.08C91.7301 103.58 102.065 97.2949 110.95 92.0299C114.665 89.8249 121.285 88.1099 126.195 90.8749" stroke="#263238" stroke-width="1.10975" stroke-linecap="round" stroke-linejoin="round"/>
<path d="M100.66 100.57C100.66 100.57 101.66 105.29 107.28 106.935C112.9 108.58 112.78 95.1749 112.78 95.1749L100.66 100.57Z" fill="white" stroke="#263238" stroke-width="1.10975" stroke-linecap="round" stroke-linejoin="round"/>
<path d="M93.6201 136.35C93.6201 136.35 96.2201 131.915 96.7651 131.85C97.3101 131.785 102.19 123.195 99.9201 119.07" stroke="#263238" stroke-width="1.10975" stroke-linecap="round" stroke-linejoin="round"/>
<path d="M100.5 128.65C100.5 128.65 100.12 133.95 95 134.105" stroke="#263238" stroke-width="1.10975" stroke-linecap="round" stroke-linejoin="round"/>
<path d="M103.455 106.5C103.455 106.5 108.98 112.27 112.77 108.2" stroke="#263238" stroke-width="1.10975" stroke-linecap="round" stroke-linejoin="round"/>
<path d="M112.27 95.21C113.605 91.4723 113.813 87.4251 112.87 83.57C111.72 78.74 105.975 72.115 97.265 78.145C92.765 81.25 92.5 87.99 93.9 94.17C94.235 95.645 93.985 97.085 94.47 98.44C96.195 103.195 99.345 106.855 101.065 106.94C103.94 107.085 109.69 103.605 109.45 100.575" fill="white"/>
<path d="M112.27 95.21C113.605 91.4723 113.813 87.4251 112.87 83.57C111.72 78.74 105.975 72.115 97.265 78.145C92.765 81.25 92.5 87.99 93.9 94.17C94.235 95.645 93.985 97.085 94.47 98.44C96.195 103.195 99.345 106.855 101.065 106.94C103.94 107.085 109.69 103.605 109.45 100.575" stroke="#263238" stroke-width="1.10975" stroke-linecap="round" stroke-linejoin="round"/>
<path d="M99.92 100.85C99.92 100.85 102.76 98.785 103.3 99.07C103.84 99.355 106.515 103.675 107.5 104.095C107.184 104.975 106.765 105.814 106.25 106.595L105.66 106.34C104.019 107.283 102.216 107.914 100.345 108.2C100.345 108.2 98.95 107.11 98.56 106.02L98.06 106.595C98.06 106.595 97.485 103.51 98.06 101.095L99.92 100.85Z" fill="#263238"/>
<path d="M100.66 93.0249C100.66 93.0249 102.985 91.3449 105.22 92.7199" stroke="#263238" stroke-width="1.10975" stroke-linecap="round" stroke-linejoin="round"/>
<path d="M96.2751 92.7199C96.2751 92.7199 94.5201 91.1099 93.3801 91.3349" stroke="#263238" stroke-width="1.10975" stroke-linecap="round" stroke-linejoin="round"/>
<path d="M103.94 95.605C103.94 96.03 103.725 96.38 103.44 96.38C103.155 96.38 102.94 96.03 102.94 95.605C102.94 95.18 103.155 94.83 103.44 94.83C103.725 94.83 103.94 95.175 103.94 95.605Z" fill="#263238"/>
<path d="M96.7651 95.1749C96.7651 95.5999 96.5451 95.9499 96.2651 95.9499C95.9851 95.9499 95.7651 95.5999 95.7651 95.1749C95.7651 94.7499 95.9851 94.3999 96.2651 94.3999C96.5451 94.3999 96.7651 94.7499 96.7651 95.1749Z" fill="#263238"/>
<path d="M97.26 94.345C98.12 95.46 96.915 99.72 97.26 100.02C97.605 100.32 99.795 99.46 99.795 99.46C99.795 99.46 100.295 98.815 99.24 98.46" stroke="#263238" stroke-width="1.10975" stroke-linecap="round" stroke-linejoin="round"/>
<path d="M99.2451 102.15C99.2451 102.15 102.185 102.15 102.97 101.085" stroke="white" stroke-width="1.10975" stroke-linecap="round" stroke-linejoin="round"/>
<path d="M106.25 86.235L106.48 89.79C106.48 89.79 108.98 91.085 109.63 92.415C110.01 93.282 110.148 94.2358 110.03 95.175C110.03 95.175 111.565 92.5 112.385 92.72C112.68 92.8 112.68 93.92 112.68 93.92C112.68 93.92 116.105 86.235 113.01 82.165C109.915 78.095 106.25 86.235 106.25 86.235Z" fill="#757575" stroke="#263238" stroke-width="1.10975" stroke-linecap="round" stroke-linejoin="round"/>
<path d="M106.5 87C106.5 87 104.455 90.835 101.39 90.835C101.39 90.835 102.89 89.45 103.115 88.17C99.6392 90.0979 95.6955 91.0206 91.7251 90.835C91.7251 90.835 90.5451 83.59 96.0601 78.045C96.0601 78.045 92.9851 79.545 92.1451 81.045C92.7916 79.3066 93.8566 77.7543 95.2458 76.5255C96.6351 75.2968 98.3058 74.4293 100.11 74C106.41 72.4 111.02 77.41 111.02 77.41L111.65 75.17C111.65 75.17 114.845 81.09 112.565 84.1C110.285 87.11 106.5 87 106.5 87Z" fill="#263238"/>
<path d="M111.105 94.4C111.105 94.4 111.795 91.82 114.105 91.135C116.415 90.45 114.835 96.635 112.86 97.455C110.885 98.275 110.36 98.83 110.27 98.1" fill="white"/>
<path d="M111.105 94.4C111.105 94.4 111.795 91.82 114.105 91.135C116.415 90.45 114.835 96.635 112.86 97.455C110.885 98.275 110.36 98.83 110.27 98.1" stroke="#263238" stroke-width="1.10975" stroke-linecap="round" stroke-linejoin="round"/>
<path d="M114.305 94.055C114.305 94.055 114.415 95.13 115.665 94.83C116.915 94.53 115.625 93.83 115.085 93.83" stroke="#263238" stroke-width="1.10975" stroke-linecap="round" stroke-linejoin="round"/>
<path d="M74.5 141.56C74.5 141.56 78.23 139.325 80.5 139.705C82.77 140.085 82.175 141.245 82.3 142.395C82.425 143.545 83.435 144.755 82.3 144.865C81.165 144.975 79.33 141.74 79.33 141.74L74.5 141.56Z" fill="white" stroke="#263238" stroke-width="1.10975" stroke-linecap="round" stroke-linejoin="round"/>
<path d="M75.12 134.105L83.72 148.14L81.95 148.6L73.585 135.045C73.6842 134.729 73.8943 134.46 74.1764 134.287C74.4586 134.115 74.7937 134.05 75.12 134.105Z" fill="#263238"/>
<path d="M72.5 142.285C72.655 141.195 78.425 141.52 79.085 141.63C79.745 141.74 81.715 144.13 81.715 144.13C81.8674 144.418 81.947 144.739 81.947 145.065C81.947 145.391 81.8674 145.712 81.715 146C81.715 146 82.865 147.65 81.96 148.58C81.055 149.51 72.935 150.245 72.5 150.04C72.065 149.835 71.03 146.54 71.125 145.465C71.22 144.39 72.215 144.215 72.5 142.285Z" fill="white" stroke="#263238" stroke-width="1.10975" stroke-linecap="round" stroke-linejoin="round"/>
<path d="M81.7051 146C81.7051 146 79.3851 144.35 78.6501 144.24C77.9151 144.13 74.0601 144.24 74.0601 144.24" stroke="#263238" stroke-width="1.10975" stroke-linecap="round" stroke-linejoin="round"/>
<path d="M74.5 147.17C74.5 147.17 78.725 146.84 78.89 146.84C79.5999 147.218 80.2892 147.634 80.955 148.085" stroke="#263238" stroke-width="1.10975" stroke-linecap="round" stroke-linejoin="round"/>
<path d="M114.11 164.965C114.11 164.965 114.55 169.285 111.475 170.31" stroke="#263238" stroke-width="1.10975" stroke-linecap="round" stroke-linejoin="round"/>
<path d="M166.93 174.855C166.93 174.855 164 183.5 151.13 187.725" stroke="#263238" stroke-width="1.10975" stroke-linecap="round" stroke-linejoin="round"/>
<path d="M188.745 158.8C190.129 158.483 191.566 158.483 192.95 158.8" stroke="#263238" stroke-width="1.10975" stroke-linecap="round" stroke-linejoin="round"/>
<path d="M145.135 161.26C145.135 161.26 171.45 160.98 177.635 162.505L179.405 164.31" stroke="#263238" stroke-width="1.10975" stroke-linecap="round" stroke-linejoin="round"/>
<path d="M132.725 98.4399C133.029 101.274 132.736 104.141 131.865 106.855" stroke="#263238" stroke-width="1.10975" stroke-miterlimit="10"/>
<path d="M112.12 140.83C111.492 140.723 110.876 140.556 110.28 140.33" stroke="#263238" stroke-width="1.10975" stroke-miterlimit="10"/>
<path d="M128.6 136.265C124.36 138.915 119.1 141.135 114.055 141.025" stroke="#263238" stroke-width="1.10975" stroke-miterlimit="10"/>
<path d="M127.03 144.56C122.86 149.48 116.115 156.97 108.915 156.1" stroke="#263238" stroke-width="1.10975" stroke-miterlimit="10"/>
<path d="M129.86 140.97C129.36 141.655 128.86 142.325 128.32 142.97" stroke="#263238" stroke-width="1.10975" stroke-miterlimit="10"/>
<path d="M89.23 108.07C89.23 108.07 94.73 105.57 98.56 112.69" stroke="#263238" stroke-width="1.10975" stroke-miterlimit="10"/>
<path d="M155.625 66.93C154.86 65.145 156.05 62.68 156.51 61.245C156.97 59.81 158.805 60.075 160.24 59.27C160.24 59.27 161.67 59.64 160.24 60.96C159.671 61.5161 159.07 62.0387 158.44 62.525L158.01 65.525" fill="white"/>
<path d="M155.625 66.93C154.86 65.145 156.05 62.68 156.51 61.245C156.97 59.81 158.805 60.075 160.24 59.27C160.24 59.27 161.67 59.64 160.24 60.96C159.671 61.5161 159.07 62.0387 158.44 62.525L158.01 65.525" stroke="#263238" stroke-width="1.10975" stroke-linecap="round" stroke-linejoin="round"/>
<path d="M165.57 59.7C164.784 59.4503 163.982 59.2516 163.17 59.105C162.78 59.105 160.915 61.51 160.915 61.51L160.745 62.855C161.16 62.9272 161.585 62.9272 162 62.855C162.435 62.6169 162.826 62.3057 163.155 61.935" fill="white"/>
<path d="M165.57 59.7C164.784 59.4503 163.982 59.2516 163.17 59.105C162.78 59.105 160.915 61.51 160.915 61.51L160.745 62.855C161.16 62.9272 161.585 62.9272 162 62.855C162.435 62.6169 162.826 62.3057 163.155 61.935" stroke="#263238" stroke-width="1.10975" stroke-linecap="round" stroke-linejoin="round"/>
<path d="M166.025 61.9999C166.025 61.9999 164.305 61.4299 163.675 61.2549C163.045 61.0799 161.205 64.6299 161.205 64.6299C161.205 64.6299 162.64 65.5549 164.105 63.3799" fill="white"/>
<path d="M166.025 61.9999C166.025 61.9999 164.305 61.4299 163.675 61.2549C163.045 61.0799 161.205 64.6299 161.205 64.6299C161.205 64.6299 162.64 65.5549 164.105 63.3799" stroke="#263238" stroke-width="1.10975" stroke-linecap="round" stroke-linejoin="round"/>
<path d="M47.5901 152.605L42.6751 147.465V123.19L50.8501 112.69L52.1151 113.75C52.1151 113.75 50.4851 120.68 52.1151 121.91C54.9801 124.065 64.7151 115.8 63.2001 112.69C62.3001 110.835 54.3751 111.02 54.3751 111.02L51.9201 108.965C51.782 108.848 51.6215 108.761 51.4485 108.708C51.2754 108.656 51.0935 108.639 50.9138 108.659C50.7341 108.679 50.5604 108.736 50.4033 108.825C50.2462 108.915 50.109 109.036 50.0001 109.18L40.2601 121.955V147.455L35.3501 152.605H47.5901Z" fill="#263238"/>
<path d="M60.3501 114.795C59.1535 115.053 58.0421 115.611 57.1203 116.417C56.1985 117.222 55.4964 118.249 55.0801 119.4" stroke="white" stroke-width="1.10975" stroke-linecap="round" stroke-linejoin="round"/>
<path d="M58.8 115.32C58.8 115.32 59.58 116.97 58.3 118.06C57.9423 118.393 57.4783 118.588 56.9904 118.611C56.5025 118.633 56.0222 118.483 55.635 118.185" stroke="white" stroke-width="1.10975" stroke-linecap="round" stroke-linejoin="round"/>
<path d="M52.2251 119.265C52.2251 119.265 54.9951 113.31 60.8951 111.965" stroke="white" stroke-width="1.10975" stroke-linecap="round" stroke-linejoin="round"/>
<path d="M59.9651 116.55L60.8951 116.66" stroke="white" stroke-width="1.10975" stroke-linecap="round" stroke-linejoin="round"/>
<path d="M58.675 118.62L59.0401 119.075" stroke="white" stroke-width="1.10975" stroke-linecap="round" stroke-linejoin="round"/>
<path d="M56.6701 119.4L56.5601 120.555" stroke="white" stroke-width="1.10975" stroke-linecap="round" stroke-linejoin="round"/>
<path d="M100.82 154.28H30.2301C30.0622 154.28 29.896 154.247 29.741 154.182C29.586 154.118 29.4452 154.024 29.3268 153.905C29.2083 153.786 29.1145 153.645 29.0507 153.489C28.9869 153.334 28.9544 153.168 28.9551 153C28.9544 152.832 28.9869 152.666 29.0507 152.511C29.1145 152.355 29.2083 152.214 29.3268 152.095C29.4452 151.976 29.586 151.882 29.741 151.818C29.896 151.753 30.0622 151.72 30.2301 151.72H100.82C101.16 151.72 101.485 151.855 101.725 152.095C101.965 152.335 102.1 152.66 102.1 153C102.1 153.339 101.965 153.665 101.725 153.905C101.485 154.145 101.16 154.28 100.82 154.28Z" fill="#BCBCFF"/>
<mask id="mask7_152_4103" style="mask-type:luminance" maskUnits="userSpaceOnUse" x="28" y="151" width="75" height="4">
<path d="M100.82 154.28H30.2301C30.0622 154.28 29.896 154.247 29.741 154.182C29.586 154.118 29.4452 154.024 29.3268 153.905C29.2083 153.786 29.1145 153.645 29.0507 153.489C28.9869 153.334 28.9544 153.168 28.9551 153C28.9544 152.832 28.9869 152.666 29.0507 152.511C29.1145 152.355 29.2083 152.214 29.3268 152.095C29.4452 151.976 29.586 151.882 29.741 151.818C29.896 151.753 30.0622 151.72 30.2301 151.72H100.82C101.16 151.72 101.485 151.855 101.725 152.095C101.965 152.335 102.1 152.66 102.1 153C102.1 153.339 101.965 153.665 101.725 153.905C101.485 154.145 101.16 154.28 100.82 154.28Z" fill="white"/>
</mask>
<g mask="url(#mask7_152_4103)">
<path opacity="0.5" d="M100.82 154.28H30.2301C30.0622 154.28 29.896 154.247 29.741 154.182C29.586 154.118 29.4452 154.024 29.3268 153.905C29.2083 153.786 29.1145 153.645 29.0507 153.489C28.9869 153.334 28.9544 153.168 28.9551 153C28.9544 152.832 28.9869 152.666 29.0507 152.511C29.1145 152.355 29.2083 152.214 29.3268 152.095C29.4452 151.976 29.586 151.882 29.741 151.818C29.896 151.753 30.0622 151.72 30.2301 151.72H100.82C101.16 151.72 101.485 151.855 101.725 152.095C101.965 152.335 102.1 152.66 102.1 153C102.1 153.339 101.965 153.665 101.725 153.905C101.485 154.145 101.16 154.28 100.82 154.28Z" fill="black" fill-opacity="0.7"/>
</g>
<path d="M100.82 154.28H30.2301C30.0622 154.28 29.896 154.247 29.741 154.182C29.586 154.118 29.4452 154.024 29.3268 153.905C29.2083 153.786 29.1145 153.645 29.0507 153.489C28.9869 153.334 28.9544 153.168 28.9551 153C28.9544 152.832 28.9869 152.666 29.0507 152.511C29.1145 152.355 29.2083 152.214 29.3268 152.095C29.4452 151.976 29.586 151.882 29.741 151.818C29.896 151.753 30.0622 151.72 30.2301 151.72H100.82C101.16 151.72 101.485 151.855 101.725 152.095C101.965 152.335 102.1 152.66 102.1 153C102.1 153.339 101.965 153.665 101.725 153.905C101.485 154.145 101.16 154.28 100.82 154.28Z" stroke="#263238" stroke-width="1.10975" stroke-linecap="round" stroke-linejoin="round"/>
<path d="M100.16 154.28H30.8901V222.63H100.16V154.28Z" fill="#BCBCFF"/>
<mask id="mask8_152_4103" style="mask-type:luminance" maskUnits="userSpaceOnUse" x="30" y="154" width="71" height="69">
<path d="M100.16 154.28H30.8901V222.63H100.16V154.28Z" fill="white"/>
</mask>
<g mask="url(#mask8_152_4103)">
<path opacity="0.3" d="M57.1101 154.28H30.8901V222.63H57.1101V154.28Z" fill="black" fill-opacity="0.7"/>
</g>
<path d="M100.16 154.28H30.8901V222.63H100.16V154.28Z" stroke="#263238" stroke-width="1.10975" stroke-linecap="round" stroke-linejoin="round"/>
<path d="M57.1101 169.575V167.675" stroke="#263238" stroke-width="1.10975" stroke-linecap="round" stroke-linejoin="round"/>
<path d="M57.1101 163.47V154.28H100.16V222.625H57.1101V188.455" stroke="#263238" stroke-width="1.10975" stroke-linecap="round" stroke-linejoin="round"/>
<path d="M97.0701 157.805H59.9751V167.675H97.0701V157.805Z" stroke="#263238" stroke-width="1.10975" stroke-linecap="round" stroke-linejoin="round"/>
<path d="M97.0701 170.31H59.9751V217.43H97.0701V170.31Z" stroke="#263238" stroke-width="1.10975" stroke-linecap="round" stroke-linejoin="round"/>
<path d="M80.1202 160.03C80.1202 160.273 80.048 160.511 79.9129 160.713C79.7777 160.916 79.5856 161.073 79.3609 161.166C79.1361 161.26 78.8888 161.284 78.6502 161.236C78.4116 161.189 78.1924 161.072 78.0204 160.9C77.8484 160.728 77.7312 160.509 77.6838 160.27C77.6363 160.031 77.6607 159.784 77.7538 159.559C77.8469 159.335 78.0045 159.142 78.2068 159.007C78.4091 158.872 78.6469 158.8 78.8902 158.8C79.2164 158.8 79.5292 158.93 79.7599 159.16C79.9906 159.391 80.1202 159.704 80.1202 160.03Z" stroke="#263238" stroke-width="1.10975" stroke-linecap="round" stroke-linejoin="round"/>
<path d="M62.7551 195.1C63.4345 195.1 63.9851 194.549 63.9851 193.87C63.9851 193.191 63.4345 192.64 62.7551 192.64C62.0758 192.64 61.5251 193.191 61.5251 193.87C61.5251 194.549 62.0758 195.1 62.7551 195.1Z" stroke="#263238" stroke-width="1.10975" stroke-linecap="round" stroke-linejoin="round"/>
<path d="M71.425 150.7C71.425 150.7 73.77 147.63 83.72 148.14C93.67 148.65 95.94 150.505 98.865 150.165L98.5 151.725H71.425V150.7Z" fill="#BCBCFF" stroke="#263238" stroke-width="1.10975" stroke-linecap="round" stroke-linejoin="round"/>
<path d="M71.4251 150.7C71.4251 150.7 74.6101 148.2 80.4251 148.65C86.2401 149.1 87.5801 150.455 92.2801 150.41L91.2551 151.725H57.1601L55.8401 150.165C55.8401 150.165 58.1801 150.965 61.8401 149.75C68.0001 147.705 71.4251 150.7 71.4251 150.7Z" fill="white" stroke="#263238" stroke-width="1.10975" stroke-linecap="round" stroke-linejoin="round"/>
<path d="M96.3901 150.47C97.224 150.462 98.0542 150.359 98.8651 150.165" stroke="#263238" stroke-width="1.10975" stroke-linecap="round" stroke-linejoin="round"/>
<path d="M92.28 150.41C93.175 150.465 94.075 150.49 94.975 150.495" stroke="#263238" stroke-width="1.10975" stroke-linecap="round" stroke-linejoin="round"/>
</svg>
