<svg width="35" height="35" viewBox="0 0 35 35" fill="none" xmlns="http://www.w3.org/2000/svg">
<g opacity="0.15">
<path d="M13.125 25.5208C13.125 27.5344 11.4927 29.1667 9.47921 29.1667C7.46567 29.1667 5.83337 27.5344 5.83337 25.5208C5.83337 23.5073 7.46567 21.875 9.47921 21.875C11.4927 21.875 13.125 23.5073 13.125 25.5208Z" fill="black"/>
<path d="M29.1667 24.0625C29.1667 26.076 27.5344 27.7083 25.5208 27.7083C23.5073 27.7083 21.875 26.076 21.875 24.0625C21.875 22.049 23.5073 20.4167 25.5208 20.4167C27.5344 20.4167 29.1667 22.049 29.1667 24.0625Z" fill="black"/>
</g>
<path d="M13.125 25.5208V8.75L29.1667 4.375V24.0625M13.125 25.5208C13.125 27.5344 11.4927 29.1667 9.47921 29.1667C7.46567 29.1667 5.83337 27.5344 5.83337 25.5208C5.83337 23.5073 7.46567 21.875 9.47921 21.875C11.4927 21.875 13.125 23.5073 13.125 25.5208ZM29.1667 24.0625C29.1667 26.076 27.5344 27.7083 25.5209 27.7083C23.5074 27.7083 21.875 26.076 21.875 24.0625C21.875 22.049 23.5074 20.4167 25.5209 20.4167C27.5344 20.4167 29.1667 22.049 29.1667 24.0625Z" stroke="#868393" stroke-width="4" stroke-linecap="round" stroke-linejoin="round"/>
</svg>
