<svg width="128" height="129" viewBox="0 0 128 129" fill="none" xmlns="http://www.w3.org/2000/svg">
<path d="M124.943 55.295L119.289 57.4703L118.978 55.1992C118.698 53.2632 118.978 52.2147 119.107 51.8318C119.148 51.6453 119.173 51.4505 119.179 51.2532C119.143 50.5658 118.118 47.3376 117.743 46.1586C117.295 44.7446 117.743 43.8049 118.023 44.3531C118.535 45.3668 120.101 49.8871 120.47 50.2395C120.84 50.5919 120.378 48.1642 120.378 48.1642C119.28 43.0218 118.978 42.3126 119.557 41.9472C120.224 41.5121 121.879 49.1823 121.879 49.1823C121.879 49.1823 121.652 48.112 122.159 47.7379C122.666 47.3637 123.05 48.3861 123.05 48.3861C122.918 47.8423 123.422 47.6117 123.422 47.6117C124.736 47.5377 124.924 55.3037 124.924 55.3037L119.269 57.479L119.885 87.9336L116.171 81.7687L109.492 92.3147L117.818 103.191C118.541 104.135 119.392 104.81 120.308 105.165C121.224 105.519 122.18 105.544 123.103 105.236C124.613 104.733 125.947 103.372 126.845 101.421C127.742 99.4692 128.139 97.0675 127.957 94.6858L124.943 55.295Z" fill="#EB996E"/>
<path d="M120.465 56.6C120.437 56.5652 120.692 56.0649 121.008 55.173C121.194 54.6525 121.355 54.1116 121.49 53.5546C121.566 53.237 121.639 52.9063 121.7 52.5539C121.782 52.2262 121.811 51.872 121.784 51.5228C121.772 51.4455 121.746 51.3749 121.709 51.3189C121.673 51.2629 121.627 51.2236 121.577 51.2052C121.462 51.2041 121.35 51.264 121.26 51.3749C120.717 51.9613 120.291 52.7741 120.031 53.7199L119.983 53.8896L119.922 53.7504C119.764 53.4456 119.575 53.1838 119.362 52.9759C119.495 53.0086 119.623 53.0829 119.737 53.1943C119.852 53.3057 119.951 53.4519 120.028 53.6242L119.913 53.6503C120.146 52.6245 120.579 51.7366 121.151 51.1095C121.282 50.9473 121.446 50.8638 121.613 50.8746C121.706 50.8993 121.792 50.965 121.861 51.0638C121.93 51.1626 121.979 51.2902 122.003 51.4315C122.043 51.8427 122.012 52.2632 121.913 52.6496C121.846 53.0064 121.77 53.3501 121.686 53.6721C121.539 54.2377 121.36 54.7822 121.151 55.2992C120.972 55.7901 120.74 56.23 120.465 56.6Z" fill="#D1734A"/>
<path d="M122.016 49.6651C122.113 50.1992 122.174 50.7474 122.198 51.3009C122.24 51.8447 122.285 52.4408 122.336 53.0803C122.351 53.4228 122.383 53.7631 122.431 54.0984C122.481 54.4029 122.688 54.6248 122.82 54.4595C122.952 54.1953 123.02 53.867 123.01 53.5328C123.036 53.1717 123.047 52.8193 123.055 52.4843C123.072 51.8143 123.072 51.2052 123.075 50.6962C123.055 50.1416 123.076 49.5854 123.139 49.0386C123.202 49.5841 123.232 50.1376 123.229 50.6918C123.246 51.2009 123.263 51.8099 123.257 52.493C123.257 52.8323 123.257 53.1891 123.223 53.5633C123.233 53.9941 123.132 54.4133 122.943 54.7292C122.874 54.8033 122.792 54.843 122.708 54.843C122.624 54.843 122.542 54.8033 122.473 54.7292C122.352 54.6 122.264 54.4092 122.223 54.1897C122.172 53.8352 122.141 53.474 122.131 53.1108C122.097 52.4669 122.067 51.8665 122.039 51.314C121.995 50.767 121.987 50.2144 122.016 49.6651Z" fill="#D1734A"/>
<path d="M123.232 51.6448C123.266 51.6448 123.232 52.032 123.313 52.5976C123.353 52.922 123.45 53.223 123.593 53.4677C123.675 53.5547 123.722 53.546 123.778 53.4024C123.83 53.2078 123.871 53.007 123.901 52.802C124.207 51.04 124.1 49.5303 124.165 49.5216C124.229 49.5129 124.445 51.0444 124.111 52.8891C124.077 53.1229 124.026 53.3504 123.96 53.5678C123.94 53.6369 123.909 53.6973 123.87 53.7441C123.831 53.7909 123.786 53.8226 123.738 53.8366C123.689 53.8507 123.64 53.8467 123.593 53.8249C123.546 53.8031 123.503 53.7641 123.467 53.7113C123.366 53.5638 123.291 53.3779 123.249 53.1718C123.21 53.0081 123.181 52.8392 123.162 52.6672C123.103 52.3247 123.128 51.9603 123.232 51.6448Z" fill="#D1734A"/>
<path d="M81.4402 111.688L79.3117 91.6013L75.1331 101.96L73.4527 100.45L64.9022 92.8194L63.0677 91.1662L69.3749 76.374C77.312 57.3442 85.7336 59.6544 85.7336 59.6544L97.1324 58.8321C97.1324 58.8321 105.254 58.3971 110.296 68.1556C114.404 76.0825 118.852 84.4488 118.852 84.4488L110.27 97.9967L106.148 89.9393L104.63 110.148" fill="#455A64"/>
<path d="M123.509 56.7958C123.456 56.8567 123.103 56.0649 122.447 55.5428C121.792 55.0207 121.182 55.0033 121.182 54.9033C121.182 54.8032 121.84 54.6596 122.548 55.247C123.257 55.8343 123.562 56.7653 123.509 56.7958Z" fill="#D1734A"/>
<path d="M121.322 93.459C121.271 93.5025 120.798 92.3148 120.397 90.7225C119.997 89.1302 119.82 87.7597 119.876 87.7379C119.932 87.7162 120.201 89.0431 120.599 90.5963C120.997 92.1495 121.389 93.4112 121.322 93.459Z" fill="#D1734A"/>
<path d="M80.967 88.0639C81.0174 88.1161 79.7179 91.2573 78.0627 95.0771C76.4075 98.897 75.0296 101.96 74.982 101.908C74.9344 101.855 76.2311 98.7143 77.8863 94.8901C79.5415 91.0658 80.9194 88.0117 80.967 88.0639Z" fill="#263238"/>
<path d="M106.293 79.459C106.334 79.6752 106.354 79.8995 106.352 80.1246C106.374 80.5597 106.397 81.1818 106.416 81.9563C106.456 83.5007 106.472 85.6413 106.416 88.0037C106.36 90.3661 106.265 92.4979 106.164 94.038C106.114 94.8081 106.066 95.4302 106.024 95.8566C106.015 96.0818 105.987 96.3042 105.94 96.5179C105.92 96.2942 105.92 96.0672 105.94 95.8435C105.96 95.3389 105.982 94.7298 106.01 94.0206C106.075 92.4761 106.153 90.3487 106.201 87.9906C106.248 85.6326 106.257 83.5051 106.257 81.9606C106.257 81.2471 106.257 80.6554 106.257 80.129C106.251 79.9042 106.263 79.6791 106.293 79.459Z" fill="#263238"/>
<path d="M81.9889 111.741C81.9889 111.741 89.9372 116.674 94.9196 116.257C99.902 115.839 104.616 110.135 104.616 110.135" fill="#455A64"/>
<path d="M77.8832 128.89C77.8832 128.89 80.6559 114.607 81.44 111.688C81.44 111.688 97.6336 113.376 105.582 109.734C106.422 112.484 108.058 123.735 109.503 128.877C109.511 128.89 99.2747 129.138 77.8832 128.89Z" fill="#263238"/>
<path d="M95.8779 116.283C95.8779 116.283 95.8135 116.396 95.7211 116.609C95.5951 116.91 95.5298 117.263 95.5334 117.623C95.5311 117.882 95.5716 118.138 95.651 118.367C95.7304 118.595 95.8461 118.788 95.9871 118.928C96.1567 119.111 96.358 119.21 96.5646 119.213C96.7712 119.215 96.9734 119.121 97.1448 118.941C97.3161 118.762 97.4487 118.507 97.525 118.209C97.6012 117.91 97.6178 117.583 97.5723 117.27C97.5429 117.014 97.4715 116.774 97.3651 116.572C97.2587 116.371 97.1207 116.216 96.9646 116.122C96.7525 115.977 96.517 115.936 96.2896 116.004C96.1271 116.052 96.0431 116.126 96.0375 116.104C96.106 116.013 96.1877 115.949 96.2756 115.917C96.4795 115.83 96.6947 115.83 96.8987 115.916C97.1027 116.003 97.2879 116.173 97.4351 116.409C97.5778 116.635 97.6751 116.921 97.7151 117.231C97.7675 117.585 97.7495 117.955 97.6636 118.292C97.5776 118.63 97.4277 118.919 97.2338 119.121C97.0398 119.323 96.8109 119.429 96.5773 119.425C96.3437 119.421 96.1164 119.307 95.9255 119.097C95.7555 118.924 95.6205 118.68 95.5362 118.393C95.4682 118.145 95.4357 117.878 95.441 117.61C95.446 117.222 95.5326 116.848 95.6874 116.544C95.7372 116.435 95.8024 116.346 95.8779 116.283Z" fill="#455A64"/>
<path d="M100.804 116.948C100.759 116.948 100.86 115.643 100.731 114.055C100.602 112.467 100.314 111.249 100.359 111.223C100.46 111.465 100.535 111.731 100.583 112.01C100.867 113.326 100.976 114.717 100.902 116.1C100.901 116.389 100.867 116.676 100.804 116.948Z" fill="#455A64"/>
<path d="M102.434 116.692C102.389 116.692 102.476 115.386 102.333 113.82C102.19 112.254 101.891 111.036 101.933 111.014C102.037 111.251 102.115 111.512 102.165 111.788C102.315 112.436 102.42 113.107 102.479 113.79C102.54 114.473 102.555 115.164 102.524 115.852C102.526 116.138 102.495 116.422 102.434 116.692Z" fill="#455A64"/>
<path d="M93.5616 128.716C93.5224 128.716 93.4888 125.014 93.4888 120.45C93.4888 115.886 93.5224 112.183 93.5616 112.183C93.6008 112.183 93.6344 115.882 93.6344 120.45C93.6344 125.018 93.5952 128.716 93.5616 128.716Z" fill="#455A64"/>
<path d="M85.4982 117.061C85.3933 116.844 85.3215 116.592 85.2881 116.326C85.1819 115.692 85.1685 115.029 85.249 114.386C85.3294 113.743 85.5017 113.136 85.753 112.61C85.8477 112.383 85.974 112.191 86.1227 112.049C86.0376 112.275 85.9441 112.493 85.8427 112.702C85.4072 113.768 85.2471 115.05 85.3945 116.291C85.4389 116.544 85.4735 116.801 85.4982 117.061Z" fill="#455A64"/>
<path d="M87.5763 117.619C87.4622 117.404 87.3757 117.157 87.3214 116.892C87.0101 115.626 86.9962 114.231 87.2822 112.95C87.3301 112.681 87.412 112.43 87.5231 112.211C87.1051 113.96 87.1241 115.89 87.5763 117.619Z" fill="#455A64"/>
<path d="M81.1909 116.256C81.2379 115.714 81.3321 115.184 81.471 114.681C81.5593 114.152 81.6951 113.645 81.8743 113.176C81.8269 113.718 81.7327 114.247 81.5942 114.75C81.5059 115.279 81.3701 115.786 81.1909 116.256Z" fill="#455A64"/>
<path d="M80.2358 121.464C80.2652 120.889 80.3443 120.323 80.4711 119.781C80.5503 119.217 80.6764 118.671 80.8464 118.158C80.8156 118.734 80.7365 119.302 80.6111 119.846C80.5293 120.407 80.4033 120.951 80.2358 121.464Z" fill="#455A64"/>
<path d="M79.2444 125.767C79.2975 125.252 79.3975 124.751 79.5413 124.279C79.642 123.78 79.7872 123.306 79.9726 122.87C79.8215 123.885 79.5762 124.861 79.2444 125.767Z" fill="#455A64"/>
<path d="M94.3006 116.622C94.2371 115.976 94.2211 115.321 94.253 114.669C94.2382 114.017 94.272 113.364 94.3538 112.724C94.4171 113.371 94.4322 114.026 94.3986 114.678C94.4135 115.33 94.3806 115.982 94.3006 116.622Z" fill="#455A64"/>
<path d="M94.3262 121.781C94.2375 120.805 94.2441 119.814 94.3458 118.84C94.417 119.322 94.4387 119.819 94.4103 120.311C94.4301 120.805 94.4018 121.301 94.3262 121.781Z" fill="#455A64"/>
<path d="M94.2952 126.946C94.2167 125.89 94.2356 124.822 94.3512 123.774C94.4144 124.298 94.4295 124.832 94.396 125.362C94.4089 125.895 94.375 126.428 94.2952 126.946Z" fill="#455A64"/>
<path d="M95.8945 99.3582C95.8945 99.4191 92.3992 99.2451 88.0946 98.9666C83.7899 98.6882 80.3003 98.4141 80.3031 98.3532C80.3059 98.2923 83.7955 98.462 88.1002 98.7404C92.4048 99.0188 95.8945 99.2929 95.8945 99.3582Z" fill="#263238"/>
<path d="M105.198 101.607C105.198 101.668 101.258 102.116 96.3931 102.603C91.5283 103.091 87.5793 103.434 87.5765 103.369C87.5737 103.304 91.5171 102.865 96.3847 102.377C101.252 101.89 105.196 101.538 105.198 101.607Z" fill="#263238"/>
<path d="M100.86 106.877C100.797 106.911 100.733 106.936 100.667 106.951L100.107 107.107C99.8657 107.186 99.5632 107.238 99.216 107.312C98.8687 107.386 98.471 107.451 98.0285 107.516C93.4325 108.109 88.8082 107.893 84.2435 106.872C83.8038 106.768 83.4033 106.672 83.0672 106.559C82.7312 106.446 82.4231 106.372 82.185 106.272L81.6249 106.063C81.5596 106.043 81.4958 106.012 81.4344 105.972C81.5015 105.976 81.5681 105.991 81.6333 106.015L82.1934 106.189C82.4343 106.272 82.7312 106.342 83.0785 106.433C83.4257 106.524 83.8178 106.62 84.2547 106.716C86.5342 107.194 88.8284 107.484 91.1276 107.586C93.425 107.704 95.7248 107.631 98.0173 107.368C98.457 107.316 98.8575 107.268 99.2019 107.199C99.5464 107.129 99.8517 107.099 100.095 107.033L100.655 106.916C100.723 106.893 100.791 106.88 100.86 106.877Z" fill="#263238"/>
<path d="M104.893 109.361C104.893 109.422 103.571 109.561 101.933 109.666C100.946 109.771 99.9556 109.797 98.9668 109.744C98.9668 109.683 100.289 109.548 101.927 109.439C103.566 109.331 104.893 109.296 104.893 109.361Z" fill="#263238"/>
<path d="M105.053 95.6207C105 95.6282 104.948 95.6282 104.896 95.6207H104.442C104.05 95.6207 103.479 95.6207 102.762 95.5902C101.361 95.538 99.4009 95.3901 97.2695 95.1551C95.1382 94.9202 93.1918 94.6157 91.7942 94.3459C91.0941 94.2154 90.5311 94.0892 90.1418 93.9935L89.6937 93.876C89.6408 93.8693 89.5889 93.8502 89.5397 93.8195C89.5928 93.8136 89.6462 93.8136 89.6993 93.8195L90.1502 93.8934L91.8054 94.1719C93.2058 94.4025 95.1382 94.6722 97.2807 94.9202C99.4233 95.1682 101.359 95.3335 102.764 95.4249L104.428 95.5249L104.882 95.5554C104.941 95.5634 104.998 95.5854 105.053 95.6207Z" fill="#263238"/>
<path d="M105.884 90.8878C105.813 90.8993 105.742 90.8993 105.671 90.8878L105.058 90.8095C104.529 90.7529 103.758 90.6746 102.817 90.6006C100.916 90.4571 98.2859 90.3222 95.3788 90.2134C92.4717 90.1047 89.839 90.0525 87.9318 90.0264H85.6772H85.0527C84.981 90.0365 84.9088 90.0365 84.837 90.0264C84.9075 90.0093 84.9786 90.0005 85.0499 90.0003L85.666 89.9567C86.1982 89.935 86.9683 89.9132 87.9234 89.9045C89.8278 89.9045 92.4633 89.9045 95.3704 90.022C98.2775 90.1395 100.91 90.2917 102.812 90.4571C103.764 90.5528 104.534 90.6572 105.052 90.7399L105.663 90.8617C105.737 90.8598 105.811 90.8685 105.884 90.8878Z" fill="#263238"/>
<path d="M84.2522 92.3232C83.458 92.4568 82.6591 92.5121 81.8604 92.4886C81.0631 92.5463 80.2643 92.526 79.4686 92.4276C80.2621 92.2992 81.0599 92.244 81.8576 92.2623C82.6559 92.2099 83.4554 92.2303 84.2522 92.3232Z" fill="#263238"/>
<path d="M104.31 84.3923C104.287 84.3982 104.264 84.3982 104.24 84.3923L104.039 84.3401C103.782 84.274 103.523 84.2304 103.263 84.2096C102.304 84.1866 101.347 84.3444 100.412 84.6795C99.8153 84.8622 99.1628 85.0884 98.4514 85.2668C97.6964 85.4514 96.9353 85.5705 96.1717 85.6236C94.5585 85.7541 92.7884 85.6236 90.9316 85.6671H81.4093L78.5246 85.6366H77.7404H77.5388C77.5156 85.6424 77.4919 85.6424 77.4688 85.6366H77.5388H77.7404L78.5246 85.6149L81.4093 85.5757L90.9316 85.5235C92.7912 85.4887 94.5725 85.6192 96.1661 85.4974C96.9245 85.4483 97.6808 85.3379 98.4318 85.1667C99.1376 84.9971 99.7901 84.7795 100.392 84.6055C101.335 84.2799 102.301 84.1454 103.266 84.2052C103.618 84.2033 103.968 84.266 104.31 84.3923Z" fill="#263238"/>
<path d="M115.334 78.654C115.267 78.6785 115.198 78.6931 115.13 78.6976L114.541 78.7802C114.029 78.8498 113.29 78.9325 112.374 79.0195C110.542 79.1979 108.007 79.385 105.207 79.4546C102.406 79.5242 99.8687 79.5155 98.0343 79.4546C97.1156 79.4198 96.3735 79.385 95.8609 79.3501L95.27 79.3023C95.2014 79.3024 95.1329 79.2922 95.0656 79.2718C95.1344 79.2604 95.2039 79.2604 95.2728 79.2718H95.8637L98.0343 79.3066C99.8687 79.3284 102.403 79.3328 105.204 79.2457C108.005 79.1587 110.525 78.9977 112.368 78.8585L114.536 78.6932L115.127 78.654C115.196 78.6425 115.265 78.6425 115.334 78.654Z" fill="#263238"/>
<path d="M113.578 74.2465C113.578 74.3074 111.337 74.3726 108.587 74.39C105.837 74.4074 103.593 74.3683 103.593 74.3074C103.593 74.2465 105.834 74.1769 108.584 74.1638C111.334 74.1507 113.578 74.1986 113.578 74.2465Z" fill="#263238"/>
<path d="M107.705 70.4789C107.661 70.5021 107.614 70.5138 107.568 70.5137L107.179 70.5747C106.837 70.6225 106.338 70.6791 105.736 70.74C104.521 70.8618 102.835 70.9793 100.975 71.0315C99.1154 71.0837 97.4266 71.0576 96.2139 71.0054C95.6033 70.9793 95.1104 70.9532 94.7687 70.9227L94.3766 70.8836C94.3313 70.8833 94.2862 70.8746 94.2422 70.8575C94.2877 70.8473 94.3339 70.8473 94.3794 70.8575H94.7715H96.2139C97.435 70.8575 99.1182 70.8575 100.975 70.8183C102.832 70.7791 104.518 70.6704 105.736 70.5921L107.179 70.5007H107.573C107.617 70.4848 107.661 70.4775 107.705 70.4789Z" fill="#263238"/>
<path d="M107.856 65.0269C107.856 65.0922 106.249 65.1009 104.268 65.0487C102.288 64.9965 100.681 64.9051 100.681 64.8442C100.681 64.7833 102.288 64.7702 104.271 64.8225C106.254 64.8747 107.859 64.966 107.856 65.0269Z" fill="#263238"/>
<path d="M114.202 86.3195C114.202 86.3805 112.46 86.5893 110.307 86.7807C108.153 86.9722 106.402 87.0766 106.4 87.0113C106.397 86.946 108.142 86.7459 110.298 86.5545C112.455 86.3631 114.202 86.2543 114.202 86.3195Z" fill="#263238"/>
<path d="M91.6626 82.0041C91.6144 82.0164 91.5652 82.0164 91.517 82.0041H91.0941L89.5425 81.9171C88.2346 81.8475 86.4254 81.7692 84.4285 81.7561C82.4316 81.7431 80.6196 81.7997 79.3116 81.8562L77.7601 81.9258H77.34C77.2906 81.9325 77.2409 81.9325 77.1915 81.9258C77.2386 81.9026 77.2878 81.8909 77.3372 81.891L77.7573 81.8345C78.1242 81.7909 78.6535 81.7431 79.3088 81.6952C80.6168 81.5952 82.4288 81.5169 84.4285 81.5256C86.4282 81.5343 88.2402 81.6387 89.5481 81.7561C90.2035 81.8127 90.7328 81.8649 91.0969 81.9128L91.517 81.9737C91.5662 81.9739 91.6152 81.9841 91.6626 82.0041Z" fill="#263238"/>
<path d="M93.6877 76.0214C93.3941 76.058 93.0991 76.058 92.8055 76.0214C92.2622 76.0214 91.5088 75.9779 90.6798 75.9736C89.8508 75.9692 89.0974 75.9736 88.5541 76.004C88.2604 76.0368 87.9656 76.0368 87.6719 76.004C87.9606 75.9133 88.254 75.8638 88.5485 75.8561C89.0946 75.8039 89.848 75.7604 90.6798 75.7604C91.5116 75.7604 92.265 75.8126 92.8111 75.8735C93.1055 75.885 93.3987 75.9345 93.6877 76.0214Z" fill="#263238"/>
<path d="M90.6881 72.4972C90.6426 72.5174 90.5954 72.5276 90.5481 72.5276L90.1504 72.5668C89.8059 72.6016 89.3102 72.6364 88.6884 72.6625C87.4505 72.7191 85.7421 72.7452 83.8573 72.6625C81.9724 72.5798 80.264 72.4058 79.0317 72.2274C78.4155 72.1448 77.9114 72.0665 77.5725 72.0055L77.1776 71.9272C77.1308 71.9223 77.0847 71.9077 77.0404 71.8837C77.0869 71.8737 77.134 71.8737 77.1804 71.8837L77.5781 71.9185L79.0373 72.0708C80.2724 72.197 81.9752 72.3449 83.86 72.4276C85.7449 72.5102 87.4505 72.5102 88.6856 72.4928L90.1504 72.4711H90.5481C90.5953 72.4701 90.6424 72.4789 90.6881 72.4972Z" fill="#263238"/>
<path d="M76.6956 76.3137C77.6568 76.2183 78.6206 76.1994 79.5831 76.2571C80.5459 76.2362 81.5087 76.2928 82.4677 76.4268C82.4677 76.4877 81.1738 76.5138 79.5803 76.4833C78.6175 76.5016 77.6547 76.445 76.6956 76.3137Z" fill="#263238"/>
<path d="M86.4536 65.7408C86.4536 65.8017 84.2131 65.8931 81.4544 65.9409C78.6957 65.9888 76.4524 65.9801 76.4524 65.9148C76.4524 65.8496 78.6929 65.7626 81.4516 65.7147C84.2103 65.6668 86.4536 65.6755 86.4536 65.7408Z" fill="#263238"/>
<path d="M80.9698 22.8606C81.9024 25.1142 83.1011 29.9522 82.09 32.1231C81.6251 33.1194 80.9698 33.9678 80.7849 35.1686C80.4908 37.1177 81.5859 39.119 81.2386 41.042C81.0034 42.3472 80.1856 43.1607 79.6982 44.2876C79.3922 45.0212 79.2266 45.8748 79.2206 46.749C79.2147 47.6232 79.3687 48.482 79.6646 49.2256C80.1408 50.3872 80.9642 51.2225 81.2302 52.5364C81.4291 53.5109 81.2806 54.5769 81.4235 55.5819C81.6475 57.1394 82.5661 58.2793 83.5492 58.7448C84.5322 59.2103 85.5853 59.1276 86.6131 59.0406C86.5823 58.4576 86.5543 57.8747 86.5235 57.3004C86.6789 57.7909 86.9087 58.2155 87.1932 58.5376C87.4776 58.8597 87.8081 59.0696 88.1563 59.1494C88.8523 59.2958 89.5591 59.2635 90.2484 59.0537C90.8813 56.2258 91.5227 53.2325 91.153 50.2958C90.8197 47.6506 89.7163 45.4361 88.8313 43.1172C87.8514 40.543 87.1228 37.7573 86.6691 34.851C86.3414 32.7627 86.1566 30.6048 85.6301 28.6165C85.1036 26.6283 84.1653 24.7618 82.8462 24.1179" fill="#263238"/>
<path d="M87.8062 62.6087C87.7418 58.0971 87.6214 53.3462 87.6214 53.3462C87.6214 53.3462 83.8657 52.476 83.0003 44.9233C82.1601 37.7056 82.737 20.973 82.737 20.973C85.3743 19.2375 88.2901 18.7962 91.0935 19.7084C93.8968 20.6205 96.4536 22.8425 98.4208 26.0763L98.5468 62.7566C98.5608 67.0159 96.2139 70.4268 93.2787 70.4138C90.3156 70.4051 87.865 66.9115 87.8062 62.6087Z" fill="#EB996E"/>
<path d="M84.2803 33.9858C84.2817 34.2393 84.347 34.4819 84.4622 34.6616C84.5773 34.8413 84.7332 34.9439 84.8964 34.9473C84.9764 34.9555 85.0566 34.9386 85.1322 34.8977C85.2079 34.8567 85.2775 34.7925 85.3368 34.7088C85.3961 34.6252 85.444 34.5238 85.4776 34.4108C85.5112 34.2978 85.5297 34.1754 85.5322 34.051C85.5307 33.7975 85.4654 33.5549 85.3503 33.3752C85.2351 33.1955 85.0792 33.0929 84.916 33.0895C84.8362 33.0819 84.7561 33.0992 84.6806 33.1404C84.6051 33.1816 84.5357 33.2458 84.4765 33.3293C84.4172 33.4129 84.3693 33.514 84.3356 33.6267C84.3019 33.7395 84.2831 33.8615 84.2803 33.9858Z" fill="#263238"/>
<path d="M83.2521 32.9237C83.3305 33.0499 83.7982 32.4886 84.4732 32.4886C85.1482 32.4886 85.6495 32.9846 85.7195 32.8541C85.7559 32.7932 85.6719 32.5669 85.4534 32.332C85.1583 32.0294 84.8098 31.8774 84.4564 31.8969C84.1054 31.9059 83.7652 32.0871 83.4846 32.4147C83.2801 32.6366 83.2129 32.8671 83.2521 32.9237Z" fill="#263238"/>
<path d="M91.1836 33.9677C91.185 34.2217 91.2502 34.4647 91.3653 34.6451C91.4804 34.8255 91.6363 34.929 91.7997 34.9335C91.8795 34.9406 91.9594 34.9228 92.0347 34.8814C92.11 34.84 92.1793 34.7757 92.2385 34.6923C92.2977 34.6089 92.3456 34.508 92.3794 34.3956C92.4132 34.2831 92.4323 34.1613 92.4355 34.0373C92.4341 33.7833 92.3689 33.5403 92.2538 33.3599C92.1387 33.1795 91.9828 33.076 91.8193 33.0714C91.7396 33.0644 91.6597 33.0821 91.5844 33.1235C91.509 33.1649 91.4398 33.2292 91.3806 33.3127C91.3214 33.3961 91.2735 33.4969 91.2397 33.6094C91.2059 33.7219 91.1868 33.8437 91.1836 33.9677Z" fill="#263238"/>
<path d="M90.2905 33.1029C90.3717 33.2247 90.8506 32.6678 91.5116 32.6678C92.1725 32.6678 92.6878 33.1594 92.7579 33.0289C92.7943 32.9724 92.713 32.7461 92.4946 32.5068C92.1976 32.2071 91.8488 32.0553 91.4947 32.0718C91.144 32.0825 90.8041 32.2636 90.5229 32.5895C90.3213 32.8157 90.2513 33.0463 90.2905 33.1029Z" fill="#263238"/>
<path d="M87.9376 40.9385C87.9376 40.8776 87.5203 40.7775 86.8398 40.6644C86.6661 40.6644 86.5037 40.5948 86.4729 40.4121C86.4539 40.1364 86.4901 39.8584 86.5765 39.6159C86.7296 38.9633 86.8911 38.2788 87.061 37.5624C87.7332 34.6431 88.2177 32.2459 88.1421 32.2024C88.0665 32.1589 87.4587 34.4952 86.7866 37.4232C86.6241 38.1454 86.4701 38.8342 86.3245 39.4897C86.2196 39.814 86.1919 40.1853 86.246 40.5382C86.2713 40.6305 86.3096 40.7129 86.358 40.7791C86.4065 40.8454 86.464 40.8939 86.5261 40.9211C86.6174 40.9592 86.7116 40.9782 86.8062 40.9776C87.5119 41.0038 87.9348 40.9994 87.9376 40.9385Z" fill="#263238"/>
<path d="M87.6212 53.3462C89.9218 53.332 92.1747 52.3275 94.13 50.4443C94.13 50.4443 92.6064 55.6999 87.708 55.1343L87.6212 53.3462Z" fill="#D1734A"/>
<path d="M87.8875 19.5852C87.487 20.7077 87.8679 22.1956 88.5093 22.9918C89.1506 23.788 89.9852 24.1099 90.7806 24.458C91.576 24.806 92.3994 25.2411 92.9427 26.1982C93.9482 27.9907 93.4861 30.2313 94.4579 32.4893C94.9732 33.6857 95.6034 34.5254 96.7264 34.4862C97.6563 34.4514 97.7627 34.8647 98.1016 36.5832C98.4237 38.2234 97.9195 39.3589 97.2922 40.7686C96.6648 42.1782 96.2363 43.64 96.4016 45.3324C96.5192 46.5593 97.7543 46.8334 97.8019 48.0689C97.8887 50.018 97.0037 52.8851 97.6031 54.5949C98.2024 56.3047 100.426 56.0872 101.126 57.71C101.376 58.2843 101.479 59.1066 101.894 59.3632C102.154 59.4731 102.431 59.4471 102.681 59.2893L106.602 57.5273C106.548 56.9095 106.498 56.2917 106.445 55.6695C106.689 56.1545 107.004 56.5431 107.363 56.8038C107.722 57.0646 108.115 57.1901 108.511 57.1702C108.908 57.1502 109.295 56.9855 109.643 56.6892C109.99 56.3929 110.288 55.9735 110.511 55.4651C109.784 54.6172 109.126 53.6355 108.551 52.5414C107.975 51.4373 107.676 50.046 107.711 48.6258C107.8 46.9247 108.526 45.3106 108.316 43.6356C108.019 41.2384 106.075 40.2856 105.316 38.1364C104.619 36.1264 105.114 33.4899 104.398 31.5017C103.557 29.1871 101.457 28.6998 100.463 26.5419C99.7904 25.0845 99.7568 23.1441 99.3115 21.4865C98.7765 19.4982 97.6563 18.0059 96.3988 17.0792C95.1205 16.2346 93.7601 15.7287 92.3742 15.5826C91.3436 15.4216 90.2653 15.352 89.2935 15.9655C88.3216 16.5789 87.529 18.0538 87.6131 19.6592" fill="#263238"/>
<path d="M95.4293 34.2383C95.9384 33.9831 96.4829 33.95 97.0033 34.1426C97.2625 34.2423 97.5065 34.4204 97.7213 34.6667C97.9361 34.9131 98.1176 35.2229 98.2552 35.5783C98.5092 36.3178 98.5713 37.1802 98.4289 37.9886C98.2858 38.7913 98.0294 39.5344 97.6783 40.1639C97.4457 40.6397 97.1445 41.0242 96.7989 41.2864C96.625 41.4137 96.4335 41.4724 96.2415 41.4572C96.0495 41.442 95.8629 41.3535 95.6982 41.1993" fill="#EB996E"/>
<path d="M96.0399 39.0842C95.9839 39.1278 96.2416 39.5802 96.7037 39.3018C96.9489 39.1327 97.1412 38.82 97.2386 38.4317C97.3527 37.9922 97.4098 37.522 97.4067 37.0481C97.4122 36.5435 97.3009 36.0525 97.093 35.6646C97.0061 35.4982 96.8957 35.365 96.7704 35.2753C96.6452 35.1855 96.5083 35.1416 96.3704 35.1469C95.8803 35.2078 95.7627 35.756 95.8103 35.7647C95.8579 35.7734 96.0259 35.5167 96.3536 35.5863C96.6813 35.6559 97.0118 36.2346 96.9978 37.0612C96.9838 37.8878 96.8409 38.6927 96.5693 38.9276C96.2976 39.1626 96.0679 39.0146 96.0399 39.0842Z" fill="#D1734A"/>
<path d="M87.8427 19.985C87.969 20.8253 87.9052 21.7075 87.6619 22.4833C87.4186 23.259 87.0107 23.8809 86.5068 24.2443C85.9299 24.6315 85.2549 24.6576 84.7452 25.2232C84.2355 25.7887 84.0002 26.7633 83.8518 27.703C83.7033 28.6428 83.6137 29.6347 83.2916 30.4613C82.9695 31.288 82.2862 34.0985 81.6896 33.82C81.4656 32.1668 81.2835 28.3426 81.0595 26.6893C80.8102 24.8621 80.5666 22.9217 80.9783 21.164C81.5664 18.658 83.3364 17.2745 85.0336 16.8786C85.8206 16.6915 86.6749 16.6872 87.3498 17.3398C88.0248 17.9924 88.4001 19.5151 87.952 20.5201" fill="#263238"/>
<path d="M90.2342 30.4926C90.2706 30.5752 90.4247 30.4926 90.6655 30.4621C90.98 30.4053 91.2977 30.4053 91.6122 30.4621C91.9275 30.5156 92.2377 30.6266 92.5364 30.7928C92.766 30.9189 92.9033 31.0408 92.9509 30.9755C92.9985 30.9102 92.9201 30.6449 92.6876 30.3751C92.3835 30.0476 92.0308 29.8455 91.6626 29.7878C91.2966 29.7127 90.9244 29.7846 90.5815 29.9966C90.3154 30.1837 90.2006 30.4273 90.2342 30.4926Z" fill="#263238"/>
<path d="M84.0897 30.644C84.0897 30.8311 84.521 30.9616 85.0476 30.9442C85.5741 30.9268 85.9998 30.7527 85.997 30.5657C85.9942 30.3786 85.5657 30.2481 85.0364 30.2655C84.507 30.2829 84.0869 30.4569 84.0897 30.644Z" fill="#263238"/>
<path d="M89.9063 43.0573C89.8226 42.9131 89.7204 42.7979 89.6062 42.7192C89.492 42.6405 89.3684 42.5999 89.2435 42.6002C89.1185 42.6005 88.995 42.6417 88.881 42.721C88.7669 42.8003 88.6649 42.916 88.5815 43.0605C88.4982 43.2051 88.4353 43.3753 88.397 43.56C88.3588 43.7448 88.346 43.94 88.3594 44.1329C88.3729 44.3259 88.4124 44.5123 88.4753 44.68C88.5381 44.8477 88.623 44.993 88.7244 45.1064C88.8261 45.2202 88.942 45.2996 89.0647 45.3397C89.1873 45.3797 89.314 45.3795 89.4365 45.3391C89.5591 45.2986 89.6749 45.2188 89.7764 45.1047C89.878 44.9906 89.9631 44.8449 90.0262 44.6767C90.0894 44.5086 90.1292 44.3218 90.1431 44.1283C90.157 43.9348 90.1448 43.739 90.1071 43.5533C90.0695 43.3676 90.0072 43.1962 89.9244 43.0501C89.8416 42.904 89.74 42.7864 89.6262 42.7049" fill="#BAB8F0"/>
<path d="M89.9319 41.6031C89.8199 41.6031 89.8339 42.7343 89.2177 43.5609C88.6016 44.3875 87.8174 44.2831 87.8174 44.431C87.8174 44.505 87.9938 44.6486 88.3215 44.6529C88.7508 44.6507 89.1657 44.4117 89.4922 43.9786C89.8084 43.5668 90.0093 42.9802 90.0523 42.3427C90.0663 41.8772 89.9823 41.5944 89.9319 41.6031Z" fill="#263238"/>
<path d="M97.7315 40.5509C97.201 40.8181 96.7398 41.3427 96.4156 42.0476C96.0914 42.7525 95.9214 43.6003 95.9307 44.4665C95.9699 46.1502 96.698 47.6947 96.6196 49.374C96.5524 50.8445 95.8718 52.1845 95.9811 53.6507C96.1155 55.4432 97.3562 56.5918 97.6335 58.3451C97.7427 59.0412 97.7483 59.9374 98.1656 60.2463C98.3878 60.3672 98.6288 60.3764 98.8546 60.2724L101.98 59.3718C102.431 59.3081 102.86 59.0421 103.215 58.6061C103.677 57.9057 103.677 56.7701 103.619 55.7738C103.489 53.5653 103.226 51.3804 102.834 49.2479C102.428 47.0247 101.86 44.8145 100.874 43.1004C99.888 41.3862 99.0338 40.3203 97.5635 40.6684" fill="#263238"/>
<path d="M103.72 30.8228C103.72 30.8228 103.72 30.862 103.683 30.9229C103.64 31.0158 103.593 31.1031 103.54 31.1839C103.294 31.5782 102.984 31.8634 102.643 32.0102C102.302 32.157 101.942 32.1601 101.6 32.0193C101.334 31.9075 101.085 31.7155 100.868 31.4542C100.65 31.1929 100.467 30.8675 100.331 30.4965L100.426 30.5357C99.7712 31.0783 99.006 31.2033 98.2928 30.8841C97.5796 30.5648 96.9745 29.8266 96.6059 28.8259L96.7012 28.8651C96.2342 29.2984 95.6817 29.453 95.1468 29.3001C94.7299 29.1804 94.3457 28.8698 94.0433 28.4082C93.8468 28.1146 93.6889 27.7644 93.5784 27.3771C93.5503 27.2735 93.526 27.1674 93.5056 27.0595C93.4977 27.023 93.493 26.9849 93.4916 26.9464C93.5389 27.0764 93.5819 27.2099 93.6204 27.3467C93.7422 27.7111 93.9043 28.0395 94.0993 28.3169C94.3978 28.7388 94.7683 29.0183 95.1664 29.1217C95.6715 29.2552 96.1907 29.1007 96.6283 28.6867L96.6927 28.6258L96.7264 28.7258C97.0818 29.6727 97.6587 30.3703 98.3368 30.6733C99.0149 30.9764 99.7422 30.8617 100.367 30.353L100.426 30.3008L100.46 30.3921C100.714 31.0987 101.138 31.6208 101.639 31.8452C102.032 32.0186 102.451 31.9942 102.835 31.7756C103.084 31.6274 103.313 31.4075 103.51 31.1274C103.65 30.9403 103.714 30.8141 103.72 30.8228Z" fill="#455A64"/>
<path d="M101.849 28.3908C101.849 28.3908 101.72 28.3081 101.479 28.2298C101.141 28.1225 100.791 28.1771 100.474 28.3864L100.426 28.4169L100.406 28.3429C100.165 27.5667 99.7622 26.939 99.2635 26.5604C98.7649 26.1817 98.1988 26.0741 97.656 26.2546C97.4816 26.3029 97.3024 26.288 97.1323 26.2111C97.0487 26.1627 96.9724 26.0883 96.9078 25.9926C96.8433 25.8968 96.792 25.7817 96.757 25.6542C96.6953 25.4291 96.643 25.198 96.6002 24.9625C96.5538 24.7496 96.5005 24.5405 96.4406 24.336C96.2223 23.629 95.9102 23.0018 95.5247 22.4957C95.1624 22.0375 94.7573 21.6678 94.3232 21.3993C94.3232 21.3993 94.3569 21.3993 94.4213 21.4254C94.5166 21.4597 94.6102 21.5047 94.7013 21.5603C95.028 21.7547 95.3325 22.0294 95.6032 22.3738C96.0105 22.8796 96.3413 23.5183 96.5722 24.2446C96.6392 24.4555 96.6963 24.6736 96.743 24.8972C96.7859 25.1222 96.8373 25.343 96.8971 25.5585C96.9251 25.6583 96.9659 25.7483 97.0169 25.8231C97.0679 25.8979 97.1281 25.9558 97.1939 25.9936C97.3418 26.0573 97.4972 26.0663 97.6476 26.0197C98.2773 25.8144 98.9335 25.982 99.4877 26.4896C99.9405 26.9008 100.298 27.5235 100.51 28.269L100.443 28.2298C100.781 28.0203 101.153 27.9867 101.504 28.1341C101.601 28.1727 101.695 28.2281 101.784 28.2994C101.823 28.356 101.851 28.3864 101.849 28.3908Z" fill="#455A64"/>
<path d="M81.5073 30.7439C81.467 30.5724 81.4397 30.3943 81.4261 30.2131C81.3669 29.7287 81.3276 29.239 81.3084 28.7469C81.275 28.0085 81.3418 27.2674 81.5045 26.5716C81.6061 26.1569 81.7561 25.7749 81.947 25.4448C82.1637 25.1148 82.4032 24.8229 82.6612 24.5746C82.9002 24.3356 83.0746 23.9688 83.1513 23.5435C83.2142 23.1307 83.261 22.7122 83.2913 22.2905C83.3633 21.5473 83.5838 20.858 83.9215 20.3197C84.1441 19.9573 84.4144 19.6739 84.7141 19.4887C84.7951 19.4397 84.8784 19.4005 84.9633 19.3713C85.0221 19.3495 85.0529 19.3452 85.0557 19.3713C85.0585 19.3974 84.9381 19.4409 84.7365 19.5844C84.4568 19.7993 84.2059 20.0945 83.9971 20.4546C83.6862 20.98 83.4859 21.6402 83.4229 22.3471C83.3981 22.7866 83.3532 23.2227 83.2885 23.6523C83.2483 23.8855 83.1809 24.1052 83.0897 24.3005C82.992 24.4922 82.8769 24.6607 82.748 24.8009C82.4983 25.0395 82.2647 25.3164 82.0506 25.6275C81.8702 25.9363 81.7269 26.2929 81.6277 26.6804C81.4666 27.3516 81.3923 28.0658 81.4093 28.7817C81.4401 29.9738 81.5353 30.7352 81.5073 30.7439Z" fill="#455A64"/>
<path d="M95.3594 27.4685C95.3426 27.4685 95.3958 27.2553 95.393 26.8768C95.375 26.3373 95.2431 25.822 95.0177 25.4106C94.6902 24.7909 94.2437 24.3503 93.7434 24.1533C93.1216 23.9242 92.4925 23.747 91.8585 23.6225C90.6912 23.2788 89.6148 22.4088 88.7638 21.1209C88.5055 20.7408 88.2728 20.321 88.0692 19.8679C87.9891 19.7067 87.9214 19.5315 87.8676 19.3458C88.1653 19.9328 88.4881 20.488 88.8338 21.0078C89.6908 22.2229 90.7472 23.0464 91.8865 23.3876C92.5249 23.5148 93.158 23.6993 93.7826 23.9401C94.3051 24.1568 94.7675 24.6336 95.0989 25.2975C95.3278 25.7417 95.4514 26.2947 95.449 26.8638C95.4452 27.0117 95.4282 27.1581 95.3986 27.2988C95.3916 27.3583 95.3783 27.4157 95.3594 27.4685Z" fill="#455A64"/>
<path d="M92.1947 21.6554C91.9574 21.65 91.7221 21.5869 91.4973 21.4683C90.388 20.9896 89.39 20.028 88.621 18.6969C88.4558 18.4404 88.3161 18.1472 88.2065 17.8268C88.7423 18.7371 89.347 19.5435 90.0074 20.2283C90.6962 20.8412 91.4308 21.3204 92.1947 21.6554Z" fill="#455A64"/>
<path d="M95.2756 22.1045C95.2476 22.1045 95.1412 21.5259 94.8471 20.6645C94.6746 20.1624 94.4741 19.6849 94.2478 19.2375C93.9654 18.6959 93.6503 18.1976 93.3068 17.7495C92.9573 17.3143 92.5822 16.9312 92.1865 16.6053C91.8592 16.3469 91.5181 16.1329 91.167 15.9658C90.5677 15.6873 90.1728 15.6395 90.1784 15.596C90.2711 15.5722 90.3657 15.5722 90.4585 15.596C90.5668 15.6038 90.6745 15.6257 90.7806 15.6612C90.9224 15.6932 91.0627 15.7397 91.2007 15.8004C91.563 15.9463 91.9149 16.1489 92.2509 16.4052C92.6618 16.7262 93.0495 17.1141 93.4076 17.5625C93.7595 18.0198 94.0788 18.5347 94.3598 19.0982C94.5885 19.5597 94.7856 20.0569 94.948 20.5818C95.0126 20.7809 95.0696 20.9857 95.1188 21.1952C95.1612 21.3489 95.1959 21.5075 95.2224 21.6695C95.2514 21.8106 95.2692 21.9567 95.2756 22.1045Z" fill="#455A64"/>
<path d="M104.54 58.0669C104.54 58.0669 104.54 57.9494 104.54 57.7319C104.523 57.4194 104.454 57.1193 104.339 56.8617C104.148 56.4581 103.903 56.1228 103.622 55.8785C103.24 55.5721 102.844 55.3117 102.437 55.0997C102.199 54.9582 101.971 54.7789 101.756 54.5646C101.516 54.3317 101.316 54.0086 101.177 53.6249C101.039 53.2002 100.983 52.7227 101.017 52.25C101.068 51.7636 101.162 51.2906 101.297 50.8448C101.546 49.9355 101.913 49.0393 102.014 48.0038C102.064 47.4841 102.002 46.9533 101.838 46.4941C101.65 46.0277 101.409 45.6191 101.126 45.289C100.846 44.9279 100.552 44.5929 100.286 44.21C100.011 43.8377 99.8008 43.3633 99.6755 42.8309C99.5687 42.3052 99.5639 41.7424 99.6615 41.2124C99.7483 40.7203 99.8588 40.2389 99.9919 39.7724C100.251 38.9401 100.39 38.0298 100.398 37.1054C100.391 36.3022 100.283 35.5088 100.082 34.7691C99.9148 34.1566 99.6902 33.5862 99.415 33.0767C99.2019 32.6967 98.9603 32.3579 98.6952 32.0674C98.4624 31.8357 98.2211 31.6251 97.9727 31.4365C98.0433 31.4624 98.1118 31.5004 98.1771 31.5496C98.3732 31.6635 98.561 31.8093 98.7372 31.9847C99.0127 32.2643 99.2632 32.5993 99.4822 32.981C99.7718 33.4905 100.008 34.0674 100.182 34.6908C100.398 35.4481 100.515 36.2644 100.527 37.0924C100.524 38.0424 100.386 38.9797 100.124 39.8376C99.9964 40.297 99.8897 40.7694 99.8043 41.2516C99.7164 41.7422 99.7213 42.2618 99.8183 42.7482C99.939 43.2439 100.137 43.685 100.395 44.0317C100.65 44.4015 100.955 44.7321 101.235 45.1019C101.533 45.4474 101.786 45.8769 101.98 46.368C102.159 46.8714 102.226 47.4526 102.171 48.0212C102.062 49.1263 101.684 50.0225 101.437 50.9187C101.303 51.3422 101.208 51.7935 101.157 52.2588C101.124 52.6929 101.173 53.1327 101.297 53.5248C101.555 54.2775 102.059 54.6516 102.487 54.9387C102.897 55.1617 103.294 55.4368 103.675 55.761C103.963 56.0194 104.21 56.3747 104.397 56.8008C104.513 57.0767 104.576 57.3981 104.579 57.7275C104.58 57.8434 104.567 57.9585 104.54 58.0669Z" fill="#455A64"/>
<path d="M108.932 55.7433C108.674 55.6838 108.424 55.5588 108.193 55.3735C107.545 54.8837 107.012 54.093 106.666 53.1111C106.426 52.4353 106.286 51.6846 106.257 50.914C106.218 50.0874 106.271 49.2129 106.257 48.3036C106.243 47.3944 106.165 46.4068 105.736 45.6932C105.308 44.9797 104.65 44.6795 104.006 44.3881C103.676 44.2492 103.355 44.0673 103.045 43.8442C102.734 43.6274 102.467 43.283 102.272 42.8479C102.091 42.4186 101.993 41.9169 101.992 41.4035C101.989 40.9268 102.013 40.4507 102.065 39.9808C102.238 38.6527 102.228 37.2825 102.035 35.961C101.841 34.6395 101.47 33.3967 100.944 32.315C100.642 31.7015 100.44 31.4057 100.451 31.3883C100.505 31.4513 100.554 31.5211 100.6 31.5971C100.739 31.8048 100.869 32.0273 100.989 32.2628C101.436 33.1246 101.778 34.1047 102 35.156C102.15 35.8829 102.244 36.6351 102.28 37.3966C102.32 38.2694 102.288 39.1465 102.185 40.0069C102.134 40.4638 102.112 40.927 102.118 41.3905C102.119 41.8642 102.21 42.3269 102.378 42.7218C102.56 43.1223 102.808 43.4395 103.095 43.6397C103.398 43.8548 103.712 44.0308 104.034 44.1662C104.361 44.307 104.682 44.477 104.997 44.6752C105.315 44.8649 105.602 45.1622 105.837 45.5453C106.057 45.9248 106.212 46.3841 106.288 46.881C106.358 47.3487 106.392 47.8278 106.389 48.308C106.389 49.2303 106.336 50.1005 106.372 50.9184C106.393 51.6651 106.521 52.3951 106.747 53.0546C107.079 54.0167 107.588 54.8029 108.209 55.3125C108.444 55.4816 108.685 55.6255 108.932 55.7433Z" fill="#455A64"/>
<path d="M97.3537 40.7639C97.417 40.9196 97.4687 41.086 97.5078 41.2599L97.8803 42.6521L98.1323 43.618C98.2343 43.9887 98.3204 44.3694 98.39 44.7578C98.469 45.2069 98.4553 45.6832 98.3508 46.1196C98.2907 46.3615 98.1857 46.5701 98.049 46.7188C97.9123 46.8676 97.7502 46.9498 97.5834 46.9549C97.4963 46.9505 97.4107 46.9194 97.3314 46.8634C97.2521 46.8074 97.1807 46.7276 97.1213 46.6286C97.0147 46.441 96.9354 46.2199 96.8888 45.9804C96.8154 45.5536 96.7703 45.1162 96.7544 44.6752C96.7096 43.8311 96.704 43.0698 96.704 42.4346C96.704 41.7994 96.7208 41.2816 96.732 40.9249C96.7313 40.7411 96.7416 40.5576 96.7628 40.3767C96.7853 40.5587 96.7938 40.7442 96.788 40.9292C96.788 41.3295 96.788 41.8342 96.8076 42.4346C96.8272 43.035 96.8384 43.8224 96.8888 44.6578C96.9058 45.0875 96.9518 45.5133 97.0261 45.9281C97.0655 46.1363 97.1344 46.328 97.2277 46.4894C97.2734 46.5672 97.3286 46.6301 97.3902 46.6742C97.4518 46.7182 97.5184 46.7427 97.5862 46.7461C97.7245 46.7421 97.8588 46.6736 97.9717 46.5495C98.0846 46.4253 98.1708 46.2513 98.2191 46.05C98.3143 45.6574 98.328 45.2284 98.2584 44.8231C98.1955 44.4424 98.1159 44.0688 98.0203 43.705L97.785 42.7304C97.6534 42.1648 97.5442 41.6906 97.4546 41.3121C97.4098 41.1348 97.376 40.9512 97.3537 40.7639Z" fill="#263238"/>
<path d="M97.8494 46.8459C97.8494 46.8763 97.7822 46.946 97.7682 47.1287C97.7629 47.177 97.7644 47.2265 97.7727 47.2738C97.7809 47.3211 97.7956 47.3651 97.8158 47.4028C97.842 47.4389 97.8739 47.4638 97.9082 47.475C97.9425 47.4862 97.978 47.4833 98.0114 47.4666C98.0448 47.4499 98.0747 47.42 98.0984 47.3798C98.1221 47.3396 98.1386 47.2906 98.1463 47.2374C98.1478 47.1394 98.1247 47.0442 98.0819 46.9721C98.0006 46.8372 97.911 46.8502 97.9082 46.8154C97.9054 46.7806 98.0091 46.698 98.1491 46.8502C98.1891 46.8962 98.2217 46.9558 98.2445 47.0244C98.2674 47.093 98.2797 47.1689 98.2807 47.2461C98.2726 47.3409 98.2475 47.4303 98.2082 47.5039C98.1689 47.5775 98.117 47.6325 98.0586 47.6624C98.0001 47.6924 97.9374 47.6962 97.8776 47.6733C97.8178 47.6505 97.7634 47.602 97.7206 47.5333C97.6927 47.4705 97.6744 47.3987 97.6671 47.3233C97.6599 47.2479 97.6638 47.1709 97.6786 47.0982C97.7234 46.8415 97.8494 46.8154 97.8494 46.8459Z" fill="#263238"/>
<path d="M97.7372 24.3451C97.7903 24.6064 97.8112 24.881 97.7988 25.1543C97.7984 26.4889 97.5226 27.788 97.0118 28.8611C96.9178 29.0935 96.7949 29.2946 96.6505 29.4528C96.9797 28.6985 97.2504 27.8866 97.4571 27.0338C97.6182 26.1578 97.7122 25.2553 97.7372 24.3451Z" fill="#BAB8F0"/>
<path d="M98.3704 24.9056C98.4257 25.1662 98.4476 25.4412 98.4348 25.7149C98.4335 26.3773 98.3645 27.0352 98.2303 27.664C98.0972 28.2886 97.9006 28.8762 97.6478 29.4042C97.5523 29.636 97.4297 29.8382 97.2865 30.0003C97.6144 29.2449 97.8851 28.4332 98.0931 27.5813C98.2519 26.7091 98.345 25.8112 98.3704 24.9056Z" fill="#BAB8F0"/>
<path d="M14.616 80.0237L11.6137 92.5188L9.35357 64.3004C9.26742 62.499 9.49679 60.6949 10.0173 59.0797C10.2368 58.3584 10.5084 57.6782 10.8267 57.0522C11.2323 56.2799 11.7034 55.5964 12.2271 55.0205C12.7396 54.5854 12.6472 53.3933 12.1262 53.2802C11.6053 53.1671 10.1658 54.3853 9.0455 56.7608C7.92523 59.1362 7.8048 54.5593 7.74318 52.893C7.68157 51.2267 7.33148 46.0842 6.987 45.7188C6.48288 45.188 6.00956 45.9494 6.09639 47.6113C6.18321 49.2733 6.21401 54.3157 5.65388 54.3461C5.09374 54.3766 4.85288 45.8754 4.85288 45.8754C4.85288 45.8754 4.98732 44.0351 4.33196 44.0394C3.15007 44.0394 3.83624 53.0366 3.91466 53.885C3.97067 54.481 3.35452 54.5506 3.31811 53.9067C3.28171 53.2628 3.20609 45.4142 2.013 45.3968C1.08878 45.3968 2.53112 52.793 1.96819 54.468C1.40525 56.143 1.24281 48.6555 0.3606 48.699C0.0329207 48.699 -0.213539 48.8034 0.276579 53.0496C0.542643 55.3337 1.51168 58.6272 1.81135 63.091L1.88977 64.2482C1.94298 69.8127 2.36588 90.7872 5.62027 103.535C7.58074 111.24 14.3724 112.279 17.3243 105.375C19.903 99.3506 22.0366 92.8941 23.6846 86.1277L14.616 80.0237Z" fill="#FFAD9D"/>
<path d="M3.5614 60.7806C3.5614 60.8198 3.74625 60.8154 4.03191 60.972C4.41502 61.1779 4.7373 61.5921 4.93933 62.138L5.05136 62.4469L5.11578 62.1032C5.20866 61.6142 5.35658 61.1546 5.55268 60.7458C5.93117 59.9422 6.45746 59.3355 7.06225 59.0055C7.52716 58.7445 7.84364 58.7619 7.84364 58.701C7.56925 58.6116 7.28429 58.6417 7.02024 58.788C6.36467 59.0662 5.78851 59.6792 5.38464 60.5283C5.17298 60.9741 5.01891 61.4794 4.93093 62.0162L5.10737 61.9814C4.87514 61.3849 4.50073 60.9549 4.06552 60.785C3.90216 60.6993 3.72536 60.6977 3.5614 60.7806Z" fill="#E88774"/>
<path d="M11.2551 110.309C11.2551 110.309 11.2551 110.152 11.1739 109.874C11.0536 109.493 10.8686 109.171 10.639 108.942C10.3589 108.612 9.95839 108.32 9.55789 107.816C9.11306 107.212 8.82114 106.382 8.73449 105.475C8.63041 104.387 8.69375 103.276 8.91934 102.234C9.13219 101.107 9.46267 99.9628 9.68953 98.7098C9.80814 98.072 9.87863 97.415 9.89958 96.752C9.92364 96.0661 9.84802 95.3806 9.67832 94.7463C9.32824 93.4411 8.55805 92.484 7.83828 91.5051C7.46314 91.0266 7.11376 90.5013 6.79363 89.9345C6.48366 89.3683 6.25371 88.7072 6.11866 87.9941C5.861 86.5671 6.02904 85.1357 6.22789 83.874C6.42674 82.6123 6.6816 81.4072 6.81043 80.2674C6.93374 79.21 6.94604 78.1287 6.84684 77.0653C6.69743 75.5198 6.33021 74.0446 5.77138 72.7451C5.61674 72.3952 5.45034 72.0583 5.27286 71.7357L5.13282 71.4877C5.11629 71.4592 5.1013 71.4287 5.08801 71.3964C5.36253 71.7873 5.60774 72.2251 5.81899 72.7016C6.40029 74.0008 6.78341 75.4886 6.93926 77.0522C7.04739 78.1328 7.04077 79.2336 6.91966 80.3108C6.79363 81.4725 6.54997 82.6646 6.35952 83.9349C6.16907 85.2053 6.00664 86.5888 6.2559 87.9463C6.38503 88.6289 6.60656 89.2608 6.90565 89.7996C7.22023 90.359 7.56401 90.877 7.9335 91.3485C8.30039 91.8401 8.67288 92.3187 9.00616 92.8581C9.34331 93.3723 9.61673 93.9784 9.81275 94.6463C9.99002 95.311 10.0685 96.0292 10.0424 96.7476C10.0187 97.4272 9.94443 98.1002 9.82116 98.7533C9.5859 100.028 9.26102 101.164 9.03977 102.277C8.81393 103.291 8.74485 104.373 8.83812 105.436C8.91012 106.314 9.17998 107.125 9.5999 107.724C9.9836 108.22 10.3813 108.529 10.6614 108.877C10.8954 109.124 11.0791 109.47 11.1907 109.874C11.2145 109.979 11.2304 110.089 11.2383 110.2C11.2451 110.236 11.2507 110.272 11.2551 110.309Z" fill="#263238"/>
<path d="M6.66748 75.0985C7.04294 74.8731 7.39715 74.5702 7.72054 74.1979C8.06062 73.7697 8.34567 73.2458 8.56074 72.6534C8.82471 71.9293 8.96815 71.1143 8.97804 70.2823L9.07326 70.3911H9.05086H9.02565L8.97804 70.4216L8.88002 70.4781C8.8128 70.5173 8.75399 70.5695 8.68957 70.613C8.56857 70.708 8.45079 70.8125 8.33668 70.9262C8.12301 71.1487 7.92494 71.4053 7.74574 71.6919C7.43924 72.1775 7.19162 72.7449 7.01476 73.3669C6.86219 73.9498 6.75501 74.5588 6.69549 75.1812C6.67842 75.0111 6.67842 74.8379 6.69549 74.6678C6.72594 74.1981 6.80048 73.7378 6.91674 73.3017C7.08776 72.6564 7.3347 72.0662 7.64492 71.5614C7.82916 71.261 8.03388 70.9926 8.25546 70.7609C8.37319 70.6389 8.49573 70.5284 8.62235 70.4303C8.68957 70.3824 8.75118 70.3258 8.8212 70.2867L8.92203 70.2258L8.97524 70.1953H9.00044L9.09847 70.3041C9.08641 71.1713 8.93115 72.0193 8.64756 72.7666C8.42099 73.3758 8.11816 73.9083 7.75694 74.3328C7.51489 74.6192 7.2456 74.8452 6.95875 75.0028C6.86506 75.0559 6.76699 75.0881 6.66748 75.0985Z" fill="#263238"/>
<path d="M8.52193 71.3439C8.21509 72.0222 7.88605 72.6757 7.53609 73.3017C7.22417 73.9755 6.88949 74.6232 6.53345 75.2421C6.76998 74.4919 7.06843 73.7928 7.42126 73.1624C7.73688 72.486 8.10675 71.8749 8.52193 71.3439Z" fill="#263238"/>
<path d="M8.22205 91.6581C8.57393 91.3438 8.89703 90.9575 9.18268 90.5095C9.48058 90.0133 9.71446 89.4329 9.87165 88.7997C10.0687 88.028 10.1381 87.1918 10.0733 86.3677C10.2833 86.5374 10.1321 86.4156 10.1769 86.4547H10.1517L10.1069 86.4939L10.0145 86.5766C9.95286 86.6244 9.89965 86.694 9.84084 86.7506C9.72826 86.8688 9.62068 86.9981 9.51876 87.1378C9.32711 87.3978 9.15431 87.6896 9.00343 88.0079C8.74732 88.5564 8.55753 89.1726 8.4433 89.8265C8.3454 90.4371 8.29463 91.0637 8.29206 91.6929C8.2601 91.5279 8.24498 91.3562 8.24725 91.1839C8.2366 90.7123 8.26866 90.2407 8.34248 89.783C8.45025 89.1013 8.64032 88.4577 8.90261 87.8861C9.05486 87.5445 9.23254 87.232 9.43194 86.9551C9.53836 86.8158 9.64759 86.6723 9.76522 86.5461C9.82683 86.4895 9.88285 86.4156 9.95006 86.3634L10.0453 86.2807L10.0929 86.2372L10.1181 86.2155L10.2245 86.2981C10.2907 87.1605 10.2145 88.0348 10.0033 88.8389C9.83301 89.49 9.58067 90.0817 9.2611 90.5792C9.04915 90.9164 8.80436 91.1998 8.53572 91.4188C8.43961 91.5229 8.33383 91.6036 8.22205 91.6581Z" fill="#263238"/>
<path d="M9.71793 87.533C9.47595 88.2788 9.20954 89.0048 8.91973 89.7083C8.67203 90.4432 8.4 91.1576 8.10474 91.8488C8.26957 91.0538 8.50123 90.296 8.7937 89.5952C9.04255 88.8481 9.35326 88.1548 9.71793 87.533Z" fill="#263238"/>
<path d="M9.25268 101.237C9.65591 101.187 10.0532 101.055 10.4346 100.846C10.8428 100.598 11.2164 100.23 11.5352 99.7624C11.9268 99.1938 12.2205 98.4818 12.3894 97.6915L12.4595 97.8351H12.3558H12.2494C12.1794 97.8351 12.1122 97.8655 12.0422 97.8786C11.6497 97.9726 11.2707 98.1713 10.9219 98.4659C10.537 98.7902 10.1919 99.2173 9.90244 99.7276C9.64565 100.214 9.42662 100.745 9.24988 101.311C9.26709 101.142 9.3011 100.977 9.3507 100.824C9.47138 100.391 9.63072 99.9869 9.82402 99.6232C10.2843 98.7558 10.9005 98.1212 11.594 97.8003C11.7301 97.7387 11.8685 97.6907 12.0085 97.6567C12.0814 97.6567 12.1514 97.6176 12.2242 97.6132H12.3334H12.4427C12.4763 97.6828 12.3726 97.4653 12.5155 97.7611C12.3391 98.585 12.0284 99.3239 11.6136 99.906C11.2795 100.382 10.8871 100.749 10.4598 100.985C10.1743 101.145 9.87505 101.237 9.57196 101.259C9.46544 101.277 9.35777 101.27 9.25268 101.237Z" fill="#263238"/>
<path d="M11.7455 98.515C11.7651 98.5716 11.1546 99.1546 10.4264 99.929C9.9988 100.426 9.55475 100.888 9.09607 101.312C9.46762 100.708 9.8874 100.181 10.3452 99.7419C10.7759 99.2408 11.2466 98.8285 11.7455 98.515Z" fill="#263238"/>
<path d="M6.33728 83.5616C6.74218 83.5138 7.14086 83.3791 7.52197 83.1614C7.92858 82.9115 8.30039 82.5422 8.61703 82.0737C9.00386 81.5064 9.29276 80.7973 9.45723 80.0115C9.60287 80.303 9.49644 80.0898 9.52725 80.1594H9.42363H9.32C9.24998 80.1594 9.18277 80.1899 9.11275 80.2029C8.97937 80.2345 8.84746 80.2795 8.71786 80.3378C8.47091 80.4406 8.23226 80.5865 8.00648 80.7728C7.62189 81.0977 7.27763 81.5264 6.98984 82.0389C6.73339 82.5262 6.51527 83.0593 6.34008 83.6269C6.35772 83.4575 6.39171 83.2932 6.44091 83.1396C6.55804 82.7036 6.71664 82.2973 6.91142 81.9345C7.19657 81.3899 7.54528 80.9339 7.93927 80.5901C8.17252 80.3861 8.41954 80.2227 8.67585 80.1029C8.81217 80.0418 8.95054 79.9924 9.09035 79.9549C9.16036 79.9549 9.23318 79.9158 9.306 79.9114H9.41522H9.52445C9.55526 79.981 9.45443 79.7635 9.59727 80.0593C9.42176 80.883 9.11319 81.623 8.70105 82.2086C8.37234 82.6988 7.98382 83.0819 7.55838 83.3354C7.27336 83.4983 6.97393 83.5922 6.67056 83.6138C6.5584 83.6235 6.44594 83.6059 6.33728 83.5616Z" fill="#263238"/>
<path d="M8.82402 80.8247C8.40148 81.3328 7.96211 81.8063 7.5077 82.243C6.77953 83.0174 6.20819 83.6874 6.18298 83.6396C6.55174 83.0305 6.96972 82.4982 7.42648 82.0559C7.85687 81.5552 8.32648 81.1415 8.82402 80.8247Z" fill="#263238"/>
<path d="M6.94191 79.4195C6.7945 78.8335 6.59766 78.2804 6.35656 77.7749C6.0856 77.2462 5.7519 76.8032 5.37353 76.4697C4.91169 76.0511 4.38999 75.8178 3.85556 75.791C3.9984 75.4952 3.89477 75.7127 3.92838 75.6431V75.6648V75.704L3.94798 75.778L3.98439 75.9302C4.0068 76.0347 4.04321 76.1304 4.06841 76.2261C4.128 76.4159 4.19439 76.6003 4.26726 76.7786C4.40682 77.1137 4.56926 77.4244 4.75178 77.7053C5.06174 78.1868 5.42512 78.5774 5.82444 78.8582C6.19788 79.1025 6.58914 79.2749 6.98952 79.3716C6.87993 79.3963 6.76862 79.3963 6.65904 79.3716C6.35729 79.319 6.06202 79.1988 5.78243 79.0149C5.36622 78.7437 4.98628 78.3542 4.66215 77.8663C4.46973 77.5779 4.29875 77.2568 4.15243 76.9091C4.07374 76.7257 4.00355 76.5338 3.94238 76.3349C3.91157 76.2304 3.87797 76.1347 3.85276 76.026L3.81355 75.865L3.79395 75.7867V75.7475V75.7258L3.86396 75.5735C4.42249 75.6001 4.9673 75.8488 5.44634 76.2957C5.83366 76.6496 6.17166 77.12 6.44058 77.6792C6.62236 78.0557 6.76505 78.4741 6.86349 78.9191C6.90545 79.079 6.93188 79.2476 6.94191 79.4195Z" fill="#263238"/>
<path d="M4.53357 76.4961C4.56158 76.4526 5.0937 77.1922 5.78267 78.0493C6.21355 78.542 6.62768 79.0691 7.02337 79.6286C6.54289 79.2527 6.09574 78.7818 5.69305 78.2277C5.25924 77.7321 4.86939 77.1499 4.53357 76.4961Z" fill="#263238"/>
<path d="M9.89129 96.727C9.63034 96.2455 9.3278 95.8224 8.99227 95.4697C8.62363 95.1028 8.21279 94.8502 7.78238 94.7257C7.25878 94.5639 6.71736 94.6103 6.2084 94.8606C6.27841 94.5082 6.228 94.7648 6.24201 94.6865L6.25881 94.7213L6.29242 94.7823L6.35963 94.9084C6.40445 94.9911 6.45766 95.0651 6.50247 95.1434C6.5985 95.2978 6.70044 95.4431 6.80774 95.5784C7.00985 95.8249 7.22867 96.0365 7.4603 96.2093C7.85997 96.5113 8.29186 96.6971 8.73461 96.7575C9.13926 96.7962 9.54543 96.7597 9.9445 96.6487C9.84499 96.7274 9.73823 96.7817 9.62802 96.8097C9.33221 96.9117 9.02861 96.9483 8.72621 96.9184C8.27339 96.8721 7.83042 96.692 7.42109 96.3876C7.17798 96.2167 6.94863 96.0021 6.73773 95.7481C6.62483 95.6149 6.51814 95.4696 6.41845 95.313C6.36804 95.2304 6.31482 95.1564 6.26721 95.065L6.1972 94.9345L6.16079 94.8693L6.14398 94.8345C6.16079 94.7561 6.10757 95.0085 6.17759 94.6561C6.71074 94.397 7.2778 94.355 7.82439 94.5343C8.26905 94.6726 8.69109 94.9494 9.06509 95.3478C9.31717 95.6111 9.54114 95.934 9.72885 96.305C9.7961 96.4324 9.85084 96.5746 9.89129 96.727Z" fill="#263238"/>
<path d="M7.00916 95.1902C7.02596 95.1336 7.68972 95.5556 8.51872 96.0168C9.02917 96.2672 9.53114 96.5576 10.0227 96.8869C9.4886 96.7793 8.96598 96.5628 8.46831 96.243C7.95451 95.9922 7.46398 95.6382 7.00916 95.1902Z" fill="#263238"/>
<path d="M8.81585 105.406C8.70581 104.795 8.54381 104.21 8.33413 103.665C8.09621 103.096 7.79119 102.601 7.43512 102.208C7.00085 101.726 6.49676 101.418 5.96756 101.312L6.04598 101.177V101.207V101.246V101.325L6.07119 101.481C6.08799 101.586 6.1188 101.686 6.1384 101.786C6.18497 101.984 6.24018 102.178 6.30364 102.364C6.42083 102.721 6.56364 103.055 6.72934 103.361C7.0095 103.884 7.34706 104.326 7.72639 104.666C8.08124 104.961 8.45725 105.191 8.84666 105.349C8.73532 105.355 8.62404 105.336 8.51618 105.292C8.22277 105.192 7.93992 105.028 7.67597 104.805C7.27609 104.477 6.91975 104.034 6.62572 103.5C6.46397 103.185 6.32585 102.842 6.21402 102.478C6.14661 102.283 6.08857 102.081 6.04038 101.873C6.01797 101.768 5.98717 101.664 5.97036 101.555L5.93955 101.39L5.92555 101.307V101.268V101.246C5.96196 101.181 5.84713 101.381 6.00397 101.103C6.54984 101.215 7.06888 101.538 7.51353 102.043C7.87849 102.46 8.18686 102.984 8.42095 103.587C8.58036 103.991 8.69757 104.431 8.76824 104.892C8.79899 105.059 8.81501 105.232 8.81585 105.406Z" fill="#263238"/>
<path d="M6.6062 102.147C7.00947 102.695 7.3937 103.276 7.75728 103.888C8.38463 104.849 8.91956 105.589 8.89435 105.628C8.43831 105.184 8.02126 104.65 7.65365 104.04C7.25283 103.483 6.90068 102.846 6.6062 102.147Z" fill="#263238"/>
<path d="M6.45203 89.0912C6.30463 88.5052 6.10779 87.9522 5.86669 87.4466C5.59509 86.9189 5.26151 86.476 4.88365 86.1414C4.42234 85.7209 3.90032 85.4875 3.36569 85.4627C3.50572 85.1669 3.4049 85.3844 3.43851 85.3148V85.3366V85.3757L3.45811 85.4497L3.49452 85.602C3.51913 85.7028 3.54718 85.8016 3.57854 85.8978C3.63813 86.0876 3.70452 86.2721 3.77739 86.4503C3.91678 86.7856 4.07924 87.0963 4.2619 87.377C4.57547 87.8704 4.94476 88.2701 5.35137 88.5561C5.72538 88.7978 6.11644 88.9701 6.51645 89.0694C6.40686 89.0941 6.29556 89.0941 6.18597 89.0694C5.88422 89.0168 5.58896 88.8966 5.30936 88.7127C4.89252 88.4414 4.51243 88.0502 4.18909 87.5597C3.99514 87.274 3.82315 86.9542 3.67656 86.607C3.59983 86.4224 3.53061 86.2306 3.46931 86.0327C3.43545 85.9326 3.40552 85.8295 3.37969 85.7238L3.34048 85.5628L3.32088 85.4845V85.441V85.4062C3.35168 85.3366 3.25086 85.5498 3.39089 85.2539C3.93997 85.2779 4.47638 85.5158 4.95087 85.9457C5.34129 86.3038 5.68056 86.782 5.94791 87.3509C6.13036 87.7274 6.27398 88.1457 6.37361 88.5908C6.41391 88.7515 6.44029 88.9197 6.45203 89.0912Z" fill="#263238"/>
<path d="M4.05469 86.1711C4.08269 86.1276 4.61482 86.8672 5.30379 87.7243C5.73481 88.215 6.14807 88.7422 6.54169 89.3036C6.06211 88.9253 5.61515 88.4547 5.21137 87.9027C4.77882 87.4064 4.38995 86.8243 4.05469 86.1711Z" fill="#263238"/>
<path d="M4.99308 80.725C5.17821 80.7403 5.35218 80.8673 5.47794 81.0789C5.6037 81.2905 5.67132 81.57 5.66639 81.8579C5.66146 82.1458 5.58438 82.4193 5.45155 82.6202C5.31873 82.8211 5.14066 82.9335 4.95527 82.9335C4.76988 82.9335 4.59181 82.8211 4.45898 82.6202C4.32616 82.4193 4.24908 82.1458 4.24415 81.8579C4.23922 81.57 4.30684 81.2905 4.4326 81.0789C4.55836 80.8673 4.73233 80.7403 4.91746 80.725" fill="#BAB8F0"/>
<path d="M11.3898 103.44C11.5742 103.455 11.7475 103.582 11.8727 103.792C11.9979 104.003 12.0653 104.281 12.0603 104.568C12.0554 104.855 11.9786 105.127 11.8463 105.327C11.714 105.528 11.5367 105.64 11.352 105.64C11.1674 105.64 10.99 105.528 10.8577 105.327C10.7254 105.127 10.6486 104.855 10.6437 104.568C10.6388 104.281 10.7061 104.003 10.8313 103.792C10.9566 103.582 11.1298 103.455 11.3142 103.44" fill="#BAB8F0"/>
<path d="M66.5126 82.4213L55.94 64.9491C53.9627 61.7396 51.5294 59.2931 48.8347 57.8053C47.4029 57.0141 45.9006 56.5737 44.3816 56.5001C40.8814 58.221 37.1245 58.221 33.6242 56.5001C33.3442 56.5523 33.0221 56.6089 32.6328 56.6742C30.9916 56.1216 20.5143 53.3633 15.8287 71.3576L12.4259 86.0324L22.1555 93.4589L24.1159 106.563L23.7518 128.838L55.2539 128.791L53.2654 109.874V90.3743L57.5196 98.7493L66.5126 82.4213Z" fill="#263238"/>
<path d="M31.6999 32.6677C31.7802 32.9798 31.8005 33.3214 31.7585 33.6512C31.7165 33.9809 31.6139 34.2847 31.4631 34.5258C31.3124 34.767 31.1199 34.9351 30.9089 35.0099C30.6979 35.0847 30.4775 35.063 30.2743 34.9474C29.5042 34.4906 29.3109 32.9374 29.3725 31.6627C29.4341 30.3879 29.619 29.0044 29.2073 27.8994C28.8908 27.0553 28.2915 26.5942 27.8069 25.9503C27.3824 25.406 27.045 24.7159 26.8215 23.9345C26.5979 23.1531 26.4942 22.3016 26.5186 21.4473C26.5561 20.5937 26.7447 19.7727 27.0634 19.0749C27.3822 18.3771 27.8188 17.8295 28.3251 17.4926C29.3697 16.8574 30.7252 17.162 31.445 15.8307C31.9687 14.8605 31.9099 13.4247 32.2852 12.3066C32.8734 10.5664 34.3269 10.0878 35.5872 10.1531C36.8475 10.2183 38.1526 10.6403 39.3401 9.97903C40.3316 9.42649 41.0934 8.19091 42.0008 7.36863C42.9933 6.4633 44.1431 6.06278 45.2895 6.22316C46.4358 6.38353 47.5211 7.09677 48.3935 8.26301C49.2658 9.42925 49.8816 10.9901 50.1545 12.727C50.4274 14.4639 50.3439 16.29 49.9155 17.9494C49.6102 19.1328 49.0753 22.4959 46.7283 22.8222" fill="#BAB8F0"/>
<g opacity="0.2">
<path d="M31.6999 32.6677C31.7802 32.9798 31.8005 33.3214 31.7585 33.6512C31.7165 33.9809 31.6139 34.2847 31.4631 34.5258C31.3124 34.767 31.1199 34.9351 30.9089 35.0099C30.6979 35.0847 30.4775 35.063 30.2743 34.9474C29.5042 34.4906 29.3109 32.9374 29.3725 31.6627C29.4341 30.3879 29.619 29.0044 29.2073 27.8994C28.8908 27.0553 28.2915 26.5942 27.8069 25.9503C27.3824 25.406 27.045 24.7159 26.8215 23.9345C26.5979 23.1531 26.4942 22.3016 26.5186 21.4473C26.5561 20.5937 26.7447 19.7727 27.0634 19.0749C27.3822 18.3771 27.8188 17.8295 28.3251 17.4926C29.3697 16.8574 30.7252 17.162 31.445 15.8307C31.9687 14.8605 31.9099 13.4247 32.2852 12.3066C32.8734 10.5664 34.3269 10.0878 35.5872 10.1531C36.8475 10.2183 38.1526 10.6403 39.3401 9.97903C40.3316 9.42649 41.0934 8.19091 42.0008 7.36863C42.9933 6.4633 44.1431 6.06278 45.2895 6.22316C46.4358 6.38353 47.5211 7.09677 48.3935 8.26301C49.2658 9.42925 49.8816 10.9901 50.1545 12.727C50.4274 14.4639 50.3439 16.29 49.9155 17.9494C49.6102 19.1328 49.0753 22.4959 46.7283 22.8222" fill="black"/>
</g>
<path d="M30.4427 19.1758L30.6276 21.7862L33.1986 60.6593C33.4983 65.1709 36.2345 68.3643 39.3433 67.8335C42.4801 67.294 44.8186 63.1565 44.5638 58.5927C44.2837 53.807 44.0764 48.7472 44.0764 48.7472C44.0764 48.7472 47.9974 47.1679 48.3503 39.0017C48.5295 34.9382 48.0226 28.3905 47.5101 23.0522C47.3982 21.9134 47.1391 20.8215 46.7484 19.8424C46.3577 18.8633 45.8434 18.0171 45.2366 17.3549C44.6297 16.6928 43.9429 16.2282 43.2174 15.9894C42.492 15.7505 41.7429 15.7422 41.0153 15.965L30.4427 19.1758Z" fill="#FFAD9D"/>
<path d="M46.0143 27.5507C46.0317 27.8194 45.9808 28.0881 45.8725 28.2995C45.7642 28.5108 45.607 28.648 45.4345 28.6818C45.3504 28.7035 45.2643 28.6988 45.1813 28.6681C45.0984 28.6375 45.0202 28.5814 44.9513 28.5032C44.8825 28.425 44.8244 28.3263 44.7804 28.2128C44.7364 28.0993 44.7074 27.9733 44.6951 27.8422C44.6777 27.5734 44.7286 27.3047 44.8369 27.0934C44.9452 26.882 45.1024 26.7448 45.2749 26.711C45.359 26.6894 45.4451 26.694 45.5281 26.7247C45.611 26.7554 45.6892 26.8114 45.7581 26.8896C45.8269 26.9678 45.885 27.0666 45.929 27.1801C45.973 27.2936 46.002 27.4196 46.0143 27.5507Z" fill="#263238"/>
<path d="M46.7763 26.5808C46.7007 26.7243 46.163 26.2153 45.4488 26.3197C44.7347 26.4241 44.2417 27.0506 44.1549 26.9245C44.1129 26.8679 44.1829 26.6156 44.3986 26.3241C44.6893 25.9489 45.047 25.7211 45.4236 25.6715C45.7952 25.6194 46.1679 25.7519 46.4879 26.05C46.7231 26.2806 46.824 26.5155 46.7763 26.5808Z" fill="#263238"/>
<path d="M38.8612 28.6651C38.8786 28.9339 38.8278 29.2026 38.7195 29.4139C38.6112 29.6253 38.454 29.7625 38.2815 29.7963C38.1975 29.8186 38.1115 29.8145 38.0285 29.7844C37.9456 29.7542 37.8673 29.6986 37.7984 29.6207C37.7295 29.5429 37.6714 29.4444 37.6273 29.3311C37.5833 29.2178 37.5543 29.092 37.5421 28.961C37.5239 28.692 37.5745 28.4227 37.6829 28.2111C37.7914 27.9995 37.949 27.8626 38.1218 27.8298C38.2058 27.8075 38.2918 27.8116 38.3748 27.8418C38.4577 27.8719 38.5359 27.9276 38.6048 28.0054C38.6737 28.0832 38.7319 28.1817 38.776 28.295C38.82 28.4083 38.849 28.5342 38.8612 28.6651Z" fill="#263238"/>
<path d="M39.7547 27.7639C39.6791 27.9074 39.1414 27.3984 38.4272 27.5028C37.713 27.6072 37.2201 28.2337 37.1333 28.1076C37.0913 28.051 37.1613 27.7987 37.377 27.5072C37.6677 27.132 38.0254 26.9042 38.402 26.8546C38.7736 26.8025 39.1463 26.935 39.4663 27.2331C39.7015 27.4637 39.7911 27.6986 39.7547 27.7639Z" fill="#263238"/>
<path d="M42.8242 35.6435C42.8242 35.5826 43.2555 35.3999 43.9669 35.1563C44.149 35.1041 44.3198 35.0214 44.3394 34.8256C44.3373 34.5296 44.2778 34.2415 44.1686 33.999L43.502 31.915C42.575 28.9435 41.8888 26.4854 41.9644 26.4289C42.0401 26.3723 42.8579 28.7347 43.7849 31.7105L44.4262 33.8119C44.56 34.139 44.6164 34.5281 44.5859 34.9126C44.5647 35.0169 44.5284 35.1122 44.4799 35.1914C44.4313 35.2706 44.3718 35.3315 44.3058 35.3694C44.2071 35.4241 44.1047 35.4606 44.0005 35.4782C43.2808 35.6392 42.8298 35.7088 42.8242 35.6435Z" fill="#263238"/>
<path d="M44.0765 48.7295C41.6379 49.1246 39.1764 48.462 36.9656 46.8152C36.9656 46.8152 39.0157 52.0925 44.1633 50.622L44.0765 48.7295Z" fill="#E88774"/>
<path d="M39.6879 23.3826C39.6347 23.6915 38.9121 23.648 38.0831 23.9221C37.2541 24.1962 36.5932 24.6443 36.4672 24.3919C36.4111 24.2658 36.512 23.9569 36.7696 23.6349C37.1143 23.2262 37.5143 22.9448 37.9394 22.8121C38.3645 22.6794 38.8035 22.6989 39.223 22.8692C39.5423 23.0171 39.7103 23.2347 39.6879 23.3826Z" fill="#BAB8F0"/>
<path d="M46.3283 23.4007C46.2163 23.6704 45.7065 23.4746 45.1156 23.5442C44.5246 23.6139 44.0289 23.8662 43.9001 23.6182C43.8413 23.4964 43.9001 23.2353 44.1101 22.9656C44.3885 22.6364 44.7236 22.4436 45.0729 22.4118C45.4221 22.38 45.7695 22.5107 46.0706 22.7872C46.2919 23.0178 46.3759 23.2701 46.3283 23.4007Z" fill="#BAB8F0"/>
<g opacity="0.2">
<path d="M39.6879 23.3826C39.6347 23.6915 38.9121 23.648 38.0831 23.9221C37.2541 24.1962 36.5932 24.6443 36.4672 24.3919C36.4111 24.2658 36.512 23.9569 36.7696 23.6349C37.1143 23.2262 37.5143 22.9448 37.9394 22.8121C38.3645 22.6794 38.8035 22.6989 39.223 22.8692C39.5423 23.0171 39.7103 23.2347 39.6879 23.3826Z" fill="black"/>
</g>
<g opacity="0.2">
<path d="M46.3283 23.4007C46.2163 23.6704 45.7065 23.4746 45.1156 23.5442C44.5246 23.6139 44.0289 23.8662 43.9001 23.6182C43.8413 23.4964 43.9001 23.2353 44.1101 22.9656C44.3885 22.6364 44.7236 22.4436 45.0729 22.4118C45.4221 22.38 45.7695 22.5107 46.0706 22.7872C46.2919 23.0178 46.3759 23.2701 46.3283 23.4007Z" fill="black"/>
</g>
<path d="M47.4625 19.4413C47.4625 19.4413 44.9419 21.9603 41.2394 19.9111C38.8112 18.5711 36.0749 18.2057 35.54 19.041C35.0051 19.8763 35.1703 23.5526 32.9858 25.0492C32.9858 25.0492 33.6888 32.0103 31.8655 32.1017C30.0423 32.193 29.5157 18.0926 29.5157 18.0926L34.4561 16.9918L39.1389 14.6816L43.7292 14.8209L47.3393 15.6475L47.4625 19.4413Z" fill="#BAB8F0"/>
<g opacity="0.2">
<path d="M47.4625 19.4413C47.4625 19.4413 44.9419 21.9603 41.2394 19.9111C38.8112 18.5711 36.0749 18.2057 35.54 19.041C35.0051 19.8763 35.1703 23.5526 32.9858 25.0492C32.9858 25.0492 33.6888 32.0103 31.8655 32.1017C30.0423 32.193 29.5157 18.0926 29.5157 18.0926L34.4561 16.9918L39.1389 14.6816L43.7292 14.8209L47.3393 15.6475L47.4625 19.4413Z" fill="black"/>
</g>
<path d="M29.2862 16.1004C29.2554 16.0003 29.6671 15.6914 30.1796 15.9046C30.6921 16.1178 30.9554 16.6921 30.8966 16.7747C30.8377 16.8574 30.5437 16.4963 30.1124 16.3397C29.6811 16.183 29.3086 16.2179 29.2862 16.1004Z" fill="#BAB8F0"/>
<path d="M30.6445 13.5247C30.7286 13.5247 30.7482 14.3513 30.8966 15.2867C31.045 16.2221 31.3475 16.879 31.2887 16.9617C31.2299 17.0444 30.7986 16.444 30.6333 15.3911C30.4681 14.3383 30.5801 13.5203 30.6445 13.5247Z" fill="#BAB8F0"/>
<g opacity="0.2">
<path d="M29.2862 16.1004C29.2554 16.0003 29.6671 15.6914 30.1796 15.9046C30.6921 16.1178 30.9554 16.6921 30.8966 16.7747C30.8377 16.8574 30.5437 16.4963 30.1124 16.3397C29.6811 16.183 29.3086 16.2179 29.2862 16.1004Z" fill="black"/>
<path d="M30.6445 13.5247C30.7286 13.5247 30.7482 14.3513 30.8966 15.2867C31.045 16.2221 31.3475 16.879 31.2887 16.9617C31.2299 17.0444 30.7986 16.444 30.6333 15.3911C30.4681 14.3383 30.5801 13.5203 30.6445 13.5247Z" fill="black"/>
</g>
<path d="M31.8123 29.1915C31.7367 29.1436 28.7315 28.0124 28.964 32.7155C29.1964 37.4185 32.1904 36.0742 32.1904 35.9393C32.1904 35.8044 31.8123 29.1915 31.8123 29.1915Z" fill="#FFAD9D"/>
<path d="M31.1739 34.2681C31.1599 34.2681 31.1235 34.3334 31.0394 34.4073C30.918 34.5073 30.7762 34.5292 30.6445 34.4683C30.3169 34.3247 30.006 33.572 29.95 32.728C29.9203 32.327 29.95 31.9207 30.0368 31.5403C30.0579 31.39 30.102 31.2499 30.1654 31.1318C30.2288 31.0136 30.3096 30.9209 30.4009 30.8616C30.4607 30.8316 30.5253 30.8338 30.5842 30.8677C30.6431 30.9016 30.693 30.9654 30.7258 31.0486C30.7706 31.1748 30.7566 31.2705 30.7734 31.2749C30.7902 31.2792 30.835 31.1879 30.8014 30.9964C30.7772 30.8834 30.73 30.7857 30.6669 30.718C30.5781 30.6298 30.4703 30.6001 30.3673 30.6353C30.2454 30.6897 30.1344 30.7912 30.0448 30.9305C29.9551 31.0698 29.8897 31.2422 29.8547 31.4315C29.7471 31.8541 29.7077 32.3111 29.7399 32.7628C29.8071 33.7069 30.1628 34.5553 30.6109 34.6988C30.694 34.7265 30.7801 34.7244 30.8625 34.6927C30.945 34.6611 31.0218 34.6007 31.087 34.5161C31.1739 34.3856 31.1851 34.2768 31.1739 34.2681Z" fill="#EB996E"/>
<path d="M44.1213 6.17614C44.1426 6.17045 44.1644 6.17045 44.1857 6.17614C44.2514 6.18245 44.3168 6.19407 44.3817 6.21094C44.6311 6.27698 44.871 6.41102 45.0903 6.60685C45.4414 6.91124 45.7402 7.34251 45.9613 7.86419C46.265 8.55763 46.3973 9.39808 46.3338 10.2309C46.2423 11.2432 45.8995 12.1598 45.3788 12.7848C45.0927 13.1338 44.7579 13.3738 44.4013 13.4852C44.0158 13.592 43.6184 13.5099 43.2643 13.2503C43.071 13.1264 42.9009 12.9293 42.7693 12.677C42.6377 12.4247 42.5488 12.1252 42.5109 11.8059C42.483 11.4694 42.519 11.1277 42.6145 10.8226C42.7139 10.5199 42.8544 10.2542 43.0262 10.0439C43.3741 9.62609 43.7829 9.34813 44.2165 9.23465C44.6543 9.11043 45.1014 9.08406 45.544 9.15633C46.4323 9.28374 47.2619 9.90109 47.8826 10.8966C48.173 11.3546 48.4011 11.8989 48.5532 12.4969C48.7052 13.0949 48.7781 13.7344 48.7676 14.3771C48.7155 15.5385 48.4205 16.6416 47.9274 17.5183C47.5105 18.2829 46.9878 18.8912 46.3982 19.2977C45.5443 19.8604 44.6259 20.149 43.6984 20.1461C43.3735 20.1461 43.1214 20.1461 42.9506 20.12H42.7545C42.7097 20.12 42.6873 20.12 42.6901 20.12H42.9506C43.1214 20.12 43.3735 20.12 43.6984 20.0982C44.6136 20.0691 45.5163 19.7632 46.3562 19.1976C46.9262 18.7952 47.4313 18.2008 47.835 17.4574C48.3063 16.6044 48.5838 15.5342 48.6248 14.4119C48.6319 13.8001 48.56 13.1922 48.4133 12.6243C48.2665 12.0563 48.048 11.5399 47.7706 11.1054C47.1734 10.1593 46.3794 9.5734 45.53 9.45218C44.6702 9.33036 43.7572 9.50004 43.1158 10.2919C42.957 10.4651 42.8304 10.7002 42.7488 10.9737C42.6672 11.2471 42.6334 11.5492 42.6509 11.8494C42.6834 12.1371 42.762 12.4075 42.8795 12.6355C42.997 12.8636 43.1495 13.0421 43.3231 13.1546C43.6509 13.3958 44.0185 13.4748 44.3761 13.3808C44.7143 13.2773 45.0324 13.0539 45.306 12.7282C45.8039 12.1361 46.1351 11.2678 46.2302 10.3049C46.2978 9.50638 46.1774 8.6968 45.8913 8.02516C45.6789 7.51029 45.3909 7.0809 45.0511 6.77217C44.7685 6.48318 44.4528 6.28086 44.1213 6.17614Z" fill="white"/>
<path d="M43.6786 39.0105C43.5021 40.0982 42.7768 41.0423 41.9982 40.8248C41.1076 40.5724 40.6595 38.954 40.7183 37.962L43.6786 39.0105Z" fill="white"/>
<path d="M40.0459 36.9791C40.0151 36.9399 40.1132 36.6745 40.2672 36.3917C40.4212 36.1089 40.5697 35.9088 40.6005 35.9567C40.6313 36.0045 40.5305 36.2612 40.3792 36.544C40.228 36.8268 40.0767 37.0182 40.0459 36.9791Z" fill="#BAB8F0"/>
<path d="M40.6958 37.2182C40.6622 37.1834 40.7434 36.9223 40.8723 36.6395C41.0011 36.3567 41.1355 36.1566 41.1692 36.2045C41.2028 36.2523 41.1215 36.5003 40.9927 36.7831C40.8639 37.0659 40.7294 37.2443 40.6958 37.2182Z" fill="#BAB8F0"/>
<path d="M41.2843 37.6743C41.2451 37.6743 41.2843 37.3263 41.3907 36.9608C41.4971 36.5953 41.6512 36.3474 41.6708 36.3822C41.6904 36.417 41.6176 36.7085 41.5111 37.0565C41.4047 37.4046 41.3235 37.6961 41.2843 37.6743Z" fill="#BAB8F0"/>
<path d="M42.0178 37.6189C41.9786 37.6189 41.9842 37.3143 42.0178 36.9663C42.0514 36.6182 42.1355 36.3485 42.1747 36.3615C42.2139 36.3746 42.2083 36.6661 42.1747 37.0141C42.1411 37.3622 42.0626 37.6537 42.0178 37.6189Z" fill="#BAB8F0"/>
<path d="M42.6229 38.0357C42.5837 38.0357 42.5893 37.692 42.6229 37.2961C42.6565 36.9001 42.7378 36.5826 42.777 36.5956C42.8162 36.6087 42.8134 36.9393 42.777 37.3352C42.7406 37.7311 42.6593 38.0444 42.6229 38.0357Z" fill="#BAB8F0"/>
<path d="M43.3454 38.032C43.3062 38.032 43.2782 37.7623 43.2838 37.4316C43.2894 37.101 43.3258 36.8356 43.365 36.8356C43.4042 36.8356 43.435 37.1097 43.4294 37.4403C43.4238 37.771 43.3846 38.0364 43.3454 38.032Z" fill="#BAB8F0"/>
<path d="M43.9557 38.4061C43.9137 38.4061 43.8801 38.0319 43.8353 37.5795C43.7905 37.127 43.7596 36.7485 43.7989 36.7093C43.8381 36.6702 43.9361 37.0487 43.9809 37.5229C44.0257 37.9971 43.9949 38.4061 43.9557 38.4061Z" fill="#BAB8F0"/>
<path d="M44.5271 38.0532C44.4879 38.0532 44.4263 37.7965 44.3927 37.4572C44.3591 37.1178 44.3619 36.8394 44.3927 36.8307C44.4235 36.822 44.4935 37.083 44.5271 37.4223C44.5607 37.7617 44.5831 38.0401 44.5271 38.0532Z" fill="#BAB8F0"/>
<path d="M45.1632 37.918C45.124 37.918 45.068 37.7483 45.0372 37.509C45.0064 37.2698 45.0148 37.074 45.0568 37.074C45.0988 37.074 45.152 37.2437 45.1828 37.4786C45.2136 37.7135 45.2052 37.905 45.1632 37.918Z" fill="#BAB8F0"/>
<g opacity="0.2">
<path d="M40.0459 36.9791C40.0151 36.9399 40.1132 36.6745 40.2672 36.3917C40.4212 36.1089 40.5697 35.9088 40.6005 35.9567C40.6313 36.0045 40.5305 36.2612 40.3792 36.544C40.228 36.8268 40.0767 37.0182 40.0459 36.9791Z" fill="black"/>
</g>
<g opacity="0.2">
<path d="M40.6958 37.2182C40.6622 37.1834 40.7434 36.9223 40.8723 36.6395C41.0011 36.3567 41.1355 36.1566 41.1692 36.2045C41.2028 36.2523 41.1215 36.5003 40.9927 36.7831C40.8639 37.0659 40.7294 37.2443 40.6958 37.2182Z" fill="black"/>
</g>
<g opacity="0.2">
<path d="M41.2843 37.6743C41.2451 37.6743 41.2843 37.3263 41.3907 36.9608C41.4971 36.5953 41.6512 36.3474 41.6708 36.3822C41.6904 36.417 41.6176 36.7085 41.5111 37.0565C41.4047 37.4046 41.3235 37.6961 41.2843 37.6743Z" fill="black"/>
</g>
<g opacity="0.2">
<path d="M42.0178 37.6189C41.9786 37.6189 41.9842 37.3143 42.0178 36.9663C42.0514 36.6182 42.1355 36.3485 42.1747 36.3615C42.2139 36.3746 42.2083 36.6661 42.1747 37.0141C42.1411 37.3622 42.0626 37.6537 42.0178 37.6189Z" fill="black"/>
</g>
<g opacity="0.2">
<path d="M42.6229 38.0357C42.5837 38.0357 42.5893 37.692 42.6229 37.2961C42.6565 36.9001 42.7378 36.5826 42.777 36.5956C42.8162 36.6087 42.8134 36.9393 42.777 37.3352C42.7406 37.7311 42.6593 38.0444 42.6229 38.0357Z" fill="black"/>
</g>
<g opacity="0.2">
<path d="M43.3454 38.032C43.3062 38.032 43.2782 37.7623 43.2838 37.4316C43.2894 37.101 43.3258 36.8356 43.365 36.8356C43.4042 36.8356 43.435 37.1097 43.4294 37.4403C43.4238 37.771 43.3846 38.0364 43.3454 38.032Z" fill="black"/>
</g>
<g opacity="0.2">
<path d="M43.9557 38.4061C43.9137 38.4061 43.8801 38.0319 43.8353 37.5795C43.7905 37.127 43.7596 36.7485 43.7989 36.7093C43.8381 36.6702 43.9361 37.0487 43.9809 37.5229C44.0257 37.9971 43.9949 38.4061 43.9557 38.4061Z" fill="black"/>
</g>
<g opacity="0.2">
<path d="M44.5271 38.0532C44.4879 38.0532 44.4263 37.7965 44.3927 37.4572C44.3591 37.1178 44.3619 36.8394 44.3927 36.8307C44.4235 36.822 44.4935 37.083 44.5271 37.4223C44.5607 37.7617 44.5831 38.0401 44.5271 38.0532Z" fill="black"/>
</g>
<g opacity="0.2">
<path d="M45.1632 37.918C45.124 37.918 45.068 37.7483 45.0372 37.509C45.0064 37.2698 45.0148 37.074 45.0568 37.074C45.0988 37.074 45.152 37.2437 45.1828 37.4786C45.2136 37.7135 45.2052 37.905 45.1632 37.918Z" fill="black"/>
</g>
<path d="M44.3452 43.3085C44.2211 43.253 44.1003 43.1817 43.9839 43.0953C43.6969 42.9361 43.3908 42.8782 43.0877 42.9256C42.7893 42.9849 42.5026 43.1437 42.2475 43.3911C42.0458 43.5826 41.9394 43.7479 41.9226 43.7218C41.9058 43.6957 41.9926 43.4999 42.1886 43.2606C42.4477 42.9489 42.7573 42.7547 43.083 42.6994C43.4088 42.6441 43.738 42.73 44.0343 42.9474C44.2471 43.0953 44.3564 43.265 44.3452 43.3085Z" fill="#E88774"/>
<path d="M87.7307 59.9586L87.6411 54.1853C84.312 51.6958 80.7519 50.0339 77.0909 49.2604C69.6803 48.2989 64.8884 46.3237 58.234 47.2069C54.4892 46.2897 50.713 45.7144 46.9248 45.484C45.5525 48.1945 44.0765 48.7339 44.0765 48.7339C44.0765 48.7339 44.1998 51.4575 44.3566 54.6465L44.379 55.038C44.407 55.5862 44.435 56.1431 44.463 56.7043L44.5611 58.5838C44.5611 58.5838 52.5626 63.2608 52.9491 68.8122C53.2516 73.1411 53.3048 108.268 53.3048 108.281L53.2656 109.874L55.24 128.808L77.8751 128.908L81.9277 112.449L78.1916 63.6219C82.2134 58.0443 87.7307 59.9586 87.7307 59.9586Z" fill="#BAB8F0"/>
<path d="M64.7817 78.1141H64.9189H65.325C66.6859 78.113 68.0158 78.7465 69.1423 79.9327C69.573 80.3784 69.9753 80.8868 70.3438 81.4511C70.7506 82.0949 71.1138 82.802 71.4277 83.5611C71.5989 83.9669 71.7559 84.3866 71.8982 84.8185C72.0431 85.2735 72.173 85.7396 72.2875 86.215C72.4135 86.6936 72.4975 87.207 72.5956 87.7203C72.6761 88.255 72.735 88.797 72.772 89.3431C72.9169 91.7245 72.6257 94.121 71.9318 96.2563C71.1943 98.6461 69.983 100.605 68.4758 101.847C67.286 102.82 65.9574 103.312 64.6129 103.276C63.2684 103.24 61.9514 102.678 60.7838 101.642C59.6162 100.606 58.6357 99.129 57.9329 97.3481C57.2302 95.5671 56.8279 93.5397 56.7633 91.4532C56.7163 90.2301 56.7737 89.0027 56.9342 87.803C57.0932 86.6751 57.3504 85.5861 57.6988 84.5661C58.0222 83.6087 58.4335 82.7293 58.9199 81.9557C59.3653 81.2422 59.8657 80.6167 60.4098 80.0937C61.3443 79.1919 62.3816 78.5775 63.4653 78.2838C64.2815 78.0547 65.1152 78.018 65.9383 78.175C66.4566 78.2795 66.9669 78.4631 67.4619 78.7232L67.84 78.9494L67.9688 79.0321L67.8288 78.9842L67.4451 78.7798C66.9497 78.5364 66.4405 78.3674 65.9243 78.2751C64.0121 77.9581 62.0869 78.6525 60.4602 80.2459C59.9239 80.7625 59.4317 81.3823 58.9955 82.0906C58.5185 82.8512 58.1156 83.716 57.7996 84.6575C57.4606 85.6655 57.21 86.7395 57.0546 87.8509C56.897 89.032 56.8424 90.2407 56.8922 91.4445C56.9874 93.4736 57.4024 95.4351 58.1006 97.1562C58.7989 98.8774 59.759 100.305 60.8962 101.314C62.0335 102.323 63.3131 102.882 64.6221 102.941C65.9312 103.001 67.2296 102.559 68.4029 101.655C69.8856 100.439 71.0782 98.5162 71.8058 96.1693C72.4911 94.0685 72.7823 91.7106 72.646 89.3649C72.6125 88.8287 72.5554 88.2967 72.4751 87.7726C72.3929 87.267 72.2929 86.7688 72.1755 86.2803C72.0718 85.793 71.9234 85.3492 71.7974 84.8968C71.6713 84.4443 71.5173 84.0267 71.3352 83.6525C71.0273 82.9016 70.6718 82.2005 70.2738 81.5598C69.9119 80.9963 69.5162 80.4878 69.0919 80.0414C68.4071 79.3282 67.6496 78.8001 66.8514 78.4796C66.3461 78.2937 65.83 78.1873 65.311 78.162H64.9049L64.7817 78.1141Z" fill="#263238"/>
<path d="M68.1091 105.924C67.9772 105.982 67.8423 106.021 67.7058 106.041C67.577 106.076 67.4258 106.111 67.2269 106.133C67.0281 106.155 66.8264 106.189 66.5884 106.189C66.0334 106.212 65.4782 106.168 64.9276 106.059C64.2522 105.919 63.5853 105.693 62.9335 105.384C62.2852 105.059 61.6557 104.65 61.0514 104.162C60.5624 103.761 60.0942 103.301 59.6511 102.787C59.4551 102.578 59.2954 102.352 59.1498 102.174C59.0239 102.017 58.9033 101.85 58.7885 101.673C58.6877 101.54 58.594 101.395 58.5084 101.238C58.6256 101.35 58.7345 101.481 58.8333 101.63C58.9524 101.795 59.0767 101.95 59.2058 102.095C59.357 102.269 59.5195 102.483 59.7183 102.678C60.1652 103.163 60.6331 103.599 61.1187 103.984C61.7199 104.453 62.3435 104.85 62.9839 105.171C63.6249 105.479 64.2804 105.709 64.9444 105.859C65.4891 105.976 66.0384 106.034 66.5884 106.033C66.8236 106.033 67.0365 106.033 67.2213 106.011C67.4062 105.989 67.5686 105.98 67.7002 105.959C67.8355 105.926 67.9724 105.914 68.1091 105.924Z" fill="#263238"/>
<path d="M61.3567 78.1141C61.3567 78.1837 60.6229 78.4187 59.7799 79.0104C58.9369 79.6021 58.3235 80.3156 58.2983 80.246C58.7053 79.6241 59.188 79.1345 59.7183 78.8059C60.2299 78.4103 60.7866 78.1753 61.3567 78.1141Z" fill="#263238"/>
<path d="M73.9205 92.0366C73.9839 92.337 74.0151 92.6516 74.013 92.9677C74.0442 93.7264 74.0208 94.4881 73.9429 95.2387C73.8663 95.9833 73.7376 96.7127 73.5592 97.414C73.4963 97.7159 73.4016 97.9997 73.2792 98.2537C73.4891 97.2466 73.6603 96.2209 73.7917 95.1821C73.8754 94.1386 73.9184 93.0882 73.9205 92.0366Z" fill="#263238"/>
<path d="M73.2788 124.745C73.2352 124.771 73.1902 124.791 73.1443 124.805L72.755 124.945C72.4162 125.062 71.9148 125.21 71.3155 125.38C70.0944 125.723 68.3972 126.119 66.5123 126.402C64.6275 126.685 62.9135 126.798 61.6728 126.837C61.0538 126.837 60.5525 126.837 60.2052 126.837H59.8047C59.7586 126.836 59.7127 126.829 59.6675 126.815C59.7121 126.796 59.7584 126.787 59.8047 126.789L60.2052 126.768L61.67 126.698C62.9079 126.628 64.6163 126.489 66.4983 126.206C68.3804 125.924 70.0748 125.554 71.2959 125.254L72.7438 124.888L73.1387 124.792C73.1832 124.764 73.2306 124.748 73.2788 124.745Z" fill="#263238"/>
<path d="M70.1144 48.0297C70.1236 48.0706 70.1302 48.1129 70.134 48.1559L70.176 48.5257C70.2096 48.852 70.2572 49.3306 70.3132 49.9527C70.491 51.7091 70.5408 53.4911 70.4616 55.2649C70.4279 55.8496 70.3718 56.4307 70.2936 57.0051C70.2136 57.633 70.1013 58.2499 69.9575 58.8498C69.8086 59.4949 69.6211 60.1168 69.3974 60.7075C69.1564 61.3374 68.8748 61.9278 68.5572 62.4695C67.8677 63.7017 66.996 64.6555 66.0169 65.2488C65.0379 65.8422 63.9807 66.0575 62.9362 65.8761C61.8542 65.7127 60.8055 65.2047 59.8555 64.3838C58.9746 63.6208 58.2043 62.5841 57.5925 61.3384C56.5666 59.2046 55.9807 56.6382 55.9121 53.9771C55.8923 52.1978 56.0327 50.4229 56.3294 48.7041C56.4218 48.095 56.5059 47.6251 56.5591 47.3075L56.6263 46.9464C56.632 46.904 56.6414 46.863 56.6543 46.8246C56.6574 46.8665 56.6574 46.9088 56.6543 46.9508C56.6403 47.0465 56.6235 47.1639 56.6039 47.3162C56.5535 47.6556 56.4863 48.1254 56.3966 48.7258C56.1247 50.4328 56.0013 52.1887 56.0298 53.9466C56.1099 56.5682 56.6954 59.092 57.7102 61.1904C58.3125 62.4146 59.0704 63.4334 59.9367 64.1837C60.8691 64.9869 61.8976 65.4844 62.9586 65.6455C63.9808 65.8248 65.0157 65.6164 65.9746 65.0383C66.9336 64.4601 67.788 63.5294 68.4648 62.326C68.7758 61.7908 69.0507 61.2077 69.2854 60.5857C69.5079 60.0078 69.6954 59.3989 69.8455 58.7671C69.9895 58.1759 70.1028 57.5678 70.1844 56.9486C70.2663 56.3747 70.3253 55.7935 70.3608 55.2083C70.4482 53.4472 70.4144 51.6766 70.26 49.9266C70.2124 49.3175 70.176 48.8346 70.148 48.4909C70.148 48.3386 70.1284 48.2168 70.1228 48.1211C70.1184 48.091 70.1156 48.0605 70.1144 48.0297Z" fill="white"/>
<g opacity="0.2">
<path d="M56.7355 103.709C56.9226 106.029 57.4137 108.264 58.1785 110.278C58.9432 112.291 59.9655 114.04 61.1821 115.416C62.3987 116.792 63.784 117.766 65.2523 118.278C66.7206 118.79 68.2409 118.829 69.7194 118.393C70.5596 118.141 71.5539 117.779 72.2232 118.632C73.0102 119.633 72.7498 121.752 71.9628 122.748C71.1758 123.744 70.0891 123.905 69.0725 123.931C65.6276 124.027 62.0708 123.022 59.2365 119.955C56.4022 116.888 54.4977 111.471 55.0523 106.189C55.1727 105.041 55.7132 103.64 56.4302 104.014" fill="black"/>
</g>
<path d="M80.4321 57.2964C80.263 57.5902 80.0845 57.8704 79.8971 58.1361C79.4665 58.8034 79.1097 59.5766 78.8413 60.4245C78.5809 61.279 78.4098 62.1925 78.3344 63.1306C78.3181 63.5246 78.2872 63.9168 78.2419 64.3053C78.2235 64.202 78.216 64.0947 78.2195 63.9877C78.2128 63.6975 78.2175 63.4069 78.2335 63.1176C78.2797 62.1502 78.4411 61.2046 78.7097 60.3288C78.9866 59.4577 79.3666 58.6755 79.8299 58.023C80.0082 57.7388 80.2108 57.4943 80.4321 57.2964Z" fill="#263238"/>
<path d="M56.3938 18.8621C56.5562 16.813 56.7215 14.7464 57.1808 12.8104C57.6401 10.8743 58.4355 9.0601 59.5894 8.02465C61.2054 6.59763 63.2527 6.95438 64.9723 8.0551C65.5324 8.41185 66.0925 8.84692 66.7003 8.82952C67.308 8.81211 67.8374 8.34224 68.3807 7.95939C69.9267 6.91088 71.7247 6.57153 73.3127 7.45471C74.9007 8.33789 76.217 10.5785 76.3766 13.1889C76.4578 14.4941 76.3122 16.0472 76.9368 16.9174C77.3541 17.4917 77.9814 17.5482 78.4211 18.079C78.6282 18.3255 78.7825 18.6634 78.8637 19.0485C78.945 19.4336 78.9494 19.8478 78.8764 20.2369C78.8034 20.6259 78.6564 20.9716 78.4547 21.2286C78.253 21.4856 78.006 21.6419 77.7462 21.677C77.9223 21.9146 78.0647 22.2066 78.1642 22.5344C78.2637 22.8622 78.3182 23.2186 78.3242 23.5809C78.3302 23.9432 78.2875 24.3034 78.199 24.6387C78.1104 24.974 77.9779 25.277 77.8099 25.5284C77.6418 25.7797 77.4419 25.974 77.2228 26.0988C77.0038 26.2235 76.7704 26.2761 76.5376 26.2531C76.3048 26.23 76.0776 26.132 75.8705 25.9651C75.6634 25.7982 75.481 25.5661 75.3348 25.2837" fill="#263238"/>
<path d="M56.3938 18.8621C56.5562 16.813 56.7215 14.7464 57.1808 12.8104C57.6401 10.8743 58.4355 9.0601 59.5894 8.02465C61.2054 6.59763 63.2527 6.95438 64.9723 8.0551C65.5324 8.41185 66.0925 8.84692 66.7003 8.82952C67.308 8.81211 67.8374 8.34224 68.3807 7.95939C69.9267 6.91088 71.7247 6.57153 73.3127 7.45471C74.9007 8.33789 76.217 10.5785 76.3766 13.1889C76.4578 14.4941 76.3122 16.0472 76.9368 16.9174C77.3541 17.4917 77.9814 17.5482 78.4211 18.079C78.6282 18.3255 78.7825 18.6634 78.8637 19.0485C78.945 19.4336 78.9494 19.8478 78.8764 20.2369C78.8034 20.6259 78.6564 20.9716 78.4547 21.2286C78.253 21.4856 78.006 21.6419 77.7462 21.677C77.9223 21.9146 78.0647 22.2066 78.1642 22.5344C78.2637 22.8622 78.3182 23.2186 78.3242 23.5809C78.3302 23.9432 78.2875 24.3034 78.199 24.6387C78.1104 24.974 77.9779 25.277 77.8099 25.5284C77.6418 25.7797 77.4419 25.974 77.2228 26.0988C77.0038 26.2235 76.7704 26.2761 76.5376 26.2531C76.3048 26.23 76.0776 26.132 75.8705 25.9651C75.6634 25.7982 75.481 25.5661 75.3348 25.2837" fill="#263238"/>
<path d="M67.2296 39.8281C67.2632 39.9412 67.2968 40.0543 67.3332 40.1631C67.5987 40.9774 67.9712 41.6962 68.4266 42.273C68.882 42.8498 69.4103 43.2717 69.9772 43.5116C70.5442 43.7514 71.1372 43.8039 71.718 43.6655C72.2988 43.5271 72.8545 43.201 73.3491 42.7082C74.2201 41.8381 74.9035 40.2675 74.7018 38.6926C75.0519 39.4626 75.8221 39.5366 76.3346 39.0058C76.575 38.7151 76.7693 38.3429 76.9028 37.9176C77.0363 37.4923 77.1054 37.0252 77.1048 36.552C77.0975 35.6052 76.9954 34.6658 76.8023 33.7676C77.0538 34.106 77.3733 34.298 77.7059 34.3107C78.0385 34.3234 78.3637 34.156 78.6256 33.8372C78.8785 33.503 79.068 33.0679 79.1736 32.5788C79.2792 32.0897 79.2969 31.5651 79.2249 31.0615C79.1482 30.5601 79.0085 30.0872 78.8138 29.6699C78.6192 29.2525 78.3734 28.899 78.0906 28.6295C78.3443 28.6498 78.5973 28.5757 78.8287 28.4133C79.0602 28.2509 79.2633 28.0049 79.4211 27.6959C79.579 27.3868 79.687 27.0237 79.7361 26.6367C79.7853 26.2496 79.7742 25.85 79.7038 25.4709C79.4238 24.0787 78.4575 23.3478 77.5501 22.9736C76.6427 22.5995 75.6569 22.382 74.9623 21.4074C74.4548 20.6311 74.1361 19.6057 74.0605 18.5055C73.9867 17.4158 73.9942 16.3165 74.0829 15.2295L70.7921 15.3644L67.2296 39.8281Z" fill="#263238"/>
<path d="M61.9225 43.3096C61.6577 44.1976 61.2165 44.9301 60.6638 45.3996C60.111 45.869 59.4759 46.0507 58.8518 45.9177C58.2277 45.7848 57.6475 45.3443 57.1965 44.661C56.7455 43.9778 56.4475 43.0878 56.3464 42.1219C55.8712 42.5977 55.3111 42.8265 54.7467 42.7755C54.1824 42.7244 53.6431 42.3961 53.2068 41.8378C52.7704 41.2796 52.4596 40.5203 52.3191 39.6697C52.1787 38.8191 52.2159 37.9212 52.4254 37.1056C51.9241 37.9192 50.9691 37.6842 50.5125 36.8097C50.056 35.9352 50.0308 34.6649 50.2661 33.5989C50.5433 32.5571 50.9315 31.5952 51.4144 30.7536C50.7002 30.8798 50.042 29.8835 49.9636 28.761C49.9428 28.2048 50.0082 27.649 50.1545 27.1402C50.3007 26.6315 50.5234 26.1847 50.8038 25.8374C51.373 25.1542 52.0187 24.6409 52.7083 24.3234C53.3965 24.0075 54.059 23.5695 54.6828 23.0182C55.2849 22.4134 56.2315 19.5811 56.3492 18.4848L59.71 17.9801L61.9225 43.3096Z" fill="#263238"/>
<path d="M69.5092 34.0818C69.5624 34.1905 69.0611 34.7039 68.389 34.4603C67.7168 34.2166 67.4115 33.4248 67.4899 33.3639C67.5684 33.303 67.91 33.799 68.4618 33.9774C69.0135 34.1557 69.4588 33.9512 69.5092 34.0818Z" fill="#263238"/>
<path d="M58.5559 14.1598L58.5027 16.7702L57.5504 55.8565C57.4412 60.3942 59.8638 64.1532 62.9949 64.3011C66.1541 64.449 68.8428 60.8597 69.0024 56.2785C69.1704 51.4666 69.4029 46.4112 69.4029 46.4112C69.4029 46.4112 73.4247 45.702 74.5197 37.6838C75.0631 33.6942 75.1499 27.0943 75.1079 21.6908C75.0999 20.5376 74.9417 19.3989 74.6429 18.3432C74.344 17.2875 73.9107 16.3367 73.3691 15.5481C72.8274 14.7595 72.1885 14.1494 71.491 13.7545C70.7935 13.3597 70.0518 13.1882 69.3105 13.2505L58.5559 14.1598Z" fill="#FFBE9D"/>
<path d="M73.4303 26.193C73.4237 26.4639 73.3491 26.7199 73.2223 26.9061C73.0956 27.0924 72.9269 27.1941 72.7525 27.1893C72.6671 27.1928 72.5821 27.1698 72.5026 27.1215C72.423 27.0733 72.3504 27.0008 72.2891 26.9084C72.2278 26.816 72.179 26.7056 72.1455 26.5834C72.1121 26.4613 72.0947 26.3301 72.0944 26.1974C72.1016 25.9273 72.1766 25.6724 72.3032 25.4871C72.4299 25.3017 72.5982 25.2007 72.7721 25.2054C72.8575 25.2008 72.9426 25.2229 73.0223 25.2704C73.102 25.3179 73.1748 25.3899 73.2362 25.4821C73.2976 25.5743 73.3465 25.6847 73.3798 25.8069C73.4132 25.929 73.4303 26.0604 73.4303 26.193Z" fill="#263238"/>
<path d="M74.0746 25.0356C73.9878 25.1661 73.5005 24.544 72.7835 24.4874C72.0666 24.4309 71.5204 24.953 71.4476 24.8094C71.4112 24.7441 71.5036 24.5092 71.7417 24.2655C72.0625 23.951 72.4383 23.799 72.8171 23.8305C73.1905 23.8588 73.5485 24.0705 73.8394 24.4352C74.0522 24.7354 74.1166 24.9878 74.0746 25.0356Z" fill="#263238"/>
<path d="M66.0366 25.6239C66.0293 25.8939 65.9544 26.1488 65.8277 26.3342C65.7011 26.5195 65.5328 26.6206 65.3588 26.6158C65.2735 26.6205 65.1884 26.5984 65.1087 26.5509C65.0289 26.5034 64.9562 26.4313 64.8947 26.3392C64.8333 26.247 64.7845 26.1365 64.7511 26.0144C64.7178 25.8922 64.7006 25.7609 64.7007 25.6282C64.7087 25.3582 64.7837 25.1034 64.9101 24.9176C65.0366 24.7318 65.2044 24.6294 65.3784 24.6319C65.4638 24.6285 65.5488 24.6515 65.6284 24.6997C65.708 24.748 65.7805 24.8204 65.8419 24.9128C65.9032 25.0052 65.952 25.1157 65.9854 25.2378C66.0189 25.3599 66.0363 25.4912 66.0366 25.6239Z" fill="#263238"/>
<path d="M67.0084 24.6922C66.9215 24.8184 66.4342 24.2006 65.7173 24.144C65.0003 24.0875 64.4541 24.6052 64.3813 24.466C64.3449 24.4007 64.4373 24.1614 64.6754 23.9222C64.9964 23.6081 65.3721 23.4562 65.7509 23.4871C66.1244 23.5145 66.4825 23.7263 66.7731 24.0918C66.9888 24.3833 67.0532 24.6357 67.0084 24.6922Z" fill="#263238"/>
<path d="M69.3441 33.1718C69.3441 33.1065 69.7922 33.0239 70.5204 32.9369C70.7052 32.9369 70.8789 32.8803 70.9181 32.6889C70.9461 32.3905 70.9128 32.086 70.8228 31.8187C70.6716 31.1139 70.5176 30.3787 70.3523 29.6043C69.6998 26.4587 69.2321 23.8744 69.3217 23.8353C69.4113 23.7961 69.9966 26.3152 70.6492 29.4607C70.8032 30.2394 70.9545 30.9791 71.0945 31.6839C71.1995 32.0368 71.2203 32.4361 71.1533 32.8107C71.1236 32.9087 71.0799 32.9948 71.0256 33.0627C70.9712 33.1305 70.9076 33.1782 70.8396 33.2022C70.7368 33.2384 70.6313 33.253 70.526 33.2457C69.7894 33.2675 69.3441 33.237 69.3441 33.1718Z" fill="#263238"/>
<path d="M69.4028 46.411C66.9508 46.2751 64.5714 45.0837 62.5299 42.9696C62.5299 42.9696 64.0395 48.6559 69.2711 48.3122L69.4028 46.411Z" fill="#EB996E"/>
<path d="M67.2042 33.7769C67.3218 33.7769 67.2826 34.9864 67.9212 35.8957C68.5597 36.805 69.3943 36.7441 69.3943 36.9137C69.3943 36.9877 69.2011 37.1313 68.851 37.1182C68.3939 37.093 67.9573 36.8171 67.6187 36.3394C67.2894 35.8847 67.0883 35.2473 67.0586 34.5644C67.053 34.0554 67.151 33.7639 67.2042 33.7769Z" fill="#263238"/>
<path d="M67.3388 20.3373C67.2576 20.6332 66.5462 20.4331 65.6976 20.5244C64.849 20.6158 64.1573 20.916 64.0536 20.6332C64.0088 20.5027 64.1377 20.2242 64.4205 19.9545C64.7972 19.6152 65.2207 19.4213 65.6556 19.3889C66.0896 19.344 66.5243 19.4587 66.9243 19.7239C67.2268 19.9414 67.3752 20.1938 67.3388 20.3373Z" fill="#263238"/>
<path d="M73.9172 21.7949C73.7828 22.0386 73.2954 21.7384 72.7017 21.6775C72.108 21.6166 71.5982 21.7601 71.489 21.486C71.4442 21.3512 71.531 21.1075 71.7691 20.8813C72.0751 20.6163 72.4249 20.4987 72.774 20.5437C73.1232 20.5886 73.4558 20.794 73.7295 21.1336C73.9172 21.4121 73.99 21.6775 73.9172 21.7949Z" fill="#263238"/>
<path d="M74.8923 17.0044C74.8923 17.0044 72.1616 19.1102 68.5712 16.3954C66.2158 14.6159 63.4767 13.785 62.8802 14.5115C62.2836 15.2381 62.1772 19.0057 59.8639 20.1369C59.8639 20.1369 60.0683 27.2937 58.2283 27.0675C56.3882 26.8413 57.9174 12.7103 57.9174 12.7103L61.9476 12.2535L66.8432 10.7395L71.4699 11.6792L75.0547 13.1454L74.8923 17.0044Z" fill="#263238"/>
<path d="M58.5864 24.7749C58.5108 24.714 55.5505 23.0346 55.4525 27.8204C55.3544 32.6061 58.4716 31.7751 58.48 31.6402C58.4884 31.5054 58.5864 24.7749 58.5864 24.7749Z" fill="#FFBE9D"/>
<path d="M57.5672 29.7958C57.5532 29.7958 57.5112 29.848 57.4188 29.9089C57.2904 29.9904 57.1466 29.9904 57.0183 29.9089C56.6962 29.7044 56.4386 28.8865 56.4414 28.0251C56.4409 27.6139 56.5002 27.2079 56.615 26.8374C56.6469 26.6889 56.7016 26.5547 56.7742 26.4463C56.8469 26.3379 56.9355 26.2586 57.0323 26.2152C57.0946 26.1943 57.1597 26.207 57.2167 26.2513C57.2738 26.2956 57.3194 26.3688 57.346 26.4588C57.3824 26.5937 57.3628 26.6894 57.3796 26.6981C57.3964 26.7068 57.4468 26.6242 57.4244 26.424C57.4094 26.3041 57.3689 26.1953 57.3096 26.1151C57.2264 26.013 57.121 25.9647 57.0155 25.9803C56.8882 26.0132 56.7684 26.096 56.6675 26.2209C56.5665 26.3457 56.4878 26.5085 56.4386 26.6938C56.3016 27.0962 56.2286 27.5438 56.2257 27.999C56.2257 28.9648 56.5254 29.8872 56.9651 30.109C57.0475 30.1496 57.1348 30.1613 57.2205 30.1432C57.3062 30.1252 57.3883 30.0778 57.4608 30.0046C57.5588 29.9089 57.5756 29.8219 57.5672 29.7958Z" fill="#EB996E"/>
<path d="M58.3962 33.4807C58.3947 33.5826 58.3753 33.6818 58.3402 33.7679C58.2586 34.0149 58.132 34.2192 57.9761 34.3552C57.8602 34.463 57.7312 34.5322 57.5971 34.5584C57.4631 34.5847 57.327 34.5673 57.1975 34.5075C57.0387 34.4344 56.8922 34.3076 56.7687 34.1361C56.6452 33.9645 56.5478 33.7526 56.4834 33.5155C56.4229 33.2772 56.3947 33.0221 56.4005 32.7661C56.4063 32.5102 56.4459 32.2588 56.517 32.0276C56.6318 31.6529 56.8227 31.3471 57.0603 31.1575C57.2165 31.0301 57.3883 30.956 57.5644 30.9399C57.6904 30.9399 57.7577 30.9399 57.7577 30.966C57.5311 31.0192 57.3116 31.1294 57.1079 31.2923C56.8988 31.483 56.7333 31.7705 56.6346 32.1146C56.5166 32.5281 56.5085 32.9972 56.6122 33.4198C56.6706 33.6254 56.7565 33.8093 56.8642 33.9593C56.9719 34.1093 57.0989 34.222 57.2367 34.2899C57.3502 34.3465 57.4698 34.3675 57.5885 34.3518C57.7072 34.3361 57.8228 34.284 57.9285 34.1986C58.1236 34.0299 58.2853 33.7817 58.3962 33.4807Z" fill="#455A64"/>
<path d="M60.4854 8.50375C60.906 7.94269 61.2505 7.25707 61.4986 6.48692C61.7467 5.71677 61.8936 4.87753 61.9306 4.01822C61.9904 3.0702 61.8381 2.1191 61.4993 1.32517C61.3149 0.959514 61.085 0.655435 60.8232 0.431159C60.5614 0.206883 60.2731 0.0670277 59.9757 0.0199727C59.3762 -0.0667775 58.7737 0.130396 58.2477 0.585559C57.5937 1.11886 57.0775 1.98518 56.7857 3.03933C56.6454 3.5656 56.5788 4.13227 56.5903 4.70165C56.6019 5.27102 56.6915 5.83003 56.853 6.34147C57.0522 6.89401 57.3252 7.37397 57.6537 7.74916C57.9822 8.12434 58.3585 8.38607 58.7574 8.5168C59.555 8.7688 60.3803 8.71203 61.1604 8.35148" fill="#263238"/>
<path d="M61.9167 6.02808C61.8245 6.30717 61.6979 6.55548 61.5442 6.75899C61.1932 7.28584 60.7807 7.70374 60.3287 7.99022C59.8762 8.27238 59.3936 8.41996 58.906 8.42529C58.7043 8.44659 58.5019 8.4082 58.3094 8.31217C58.5056 8.27837 58.703 8.26384 58.9004 8.26866C59.8486 8.16631 60.7506 7.59451 61.4742 6.63717C61.6148 6.42225 61.7625 6.21894 61.9167 6.02808Z" fill="#455A64"/>
<path d="M61.7148 6.4458C61.7699 6.44692 61.8246 6.4601 61.8773 6.48496L62.0705 6.54587L62.3282 6.67639C62.8645 6.99421 63.375 7.40891 63.849 7.91197C64.4595 8.49931 65.1569 9.32594 66.0503 9.79581C66.5158 10.0403 67.0112 10.1147 67.4982 10.0133C68.0052 9.91762 68.5233 9.68269 69.0638 9.49996C69.5958 9.28834 70.1512 9.26012 70.691 9.4173C71.1929 9.60328 71.6516 10.0025 72.0157 10.5702C72.3285 11.0367 72.5714 11.6043 72.7272 12.2329C72.8831 12.8614 72.9481 13.5355 72.9176 14.2074C72.8834 15.1062 72.7085 15.9784 72.4078 16.7481C72.3233 16.9537 72.2297 17.15 72.1278 17.3355C72.0944 17.4033 72.0568 17.4659 72.0157 17.5226C72.0157 17.5226 72.153 17.2441 72.3518 16.7046C72.6284 15.9365 72.7848 15.078 72.8083 14.1987C72.8247 13.5969 72.7667 12.9958 72.6375 12.428C72.4827 11.7806 72.2357 11.1961 71.9149 10.7181C71.566 10.1848 71.1304 9.80886 70.6546 9.63048C70.1346 9.48561 69.6006 9.51678 69.089 9.72185C68.5541 9.90022 68.0332 10.1569 67.5094 10.2352C67.002 10.3365 66.4864 10.2546 66.0027 9.99594C65.0785 9.49561 64.3895 8.64723 63.7845 8.04684C63.3214 7.53007 62.8238 7.09247 62.3002 6.74165L62.0509 6.59372L61.8633 6.51106C61.8128 6.49494 61.7632 6.47313 61.7148 6.4458Z" fill="#455A64"/>
<path d="M72.9656 7.44233C73.071 7.42398 73.1776 7.43878 73.2793 7.48584C73.5591 7.58092 73.8251 7.75651 74.0634 8.00357C74.421 8.37045 74.7214 8.85644 74.9429 9.42623C75.2074 10.1279 75.3673 10.9129 75.4106 11.7234C75.469 13.1876 75.2949 14.6518 74.9036 15.987C74.7636 16.496 74.6236 16.9007 74.5396 17.1747C74.4987 17.3231 74.445 17.4622 74.3799 17.5881C74.3575 17.5881 74.5508 16.9529 74.8084 15.9261C75.1623 14.6041 75.3184 13.1745 75.2649 11.7451C75.2232 10.9668 75.0742 10.2116 74.828 9.53065C74.6195 8.98208 74.3401 8.50657 74.0074 8.13409C73.6912 7.8038 73.3378 7.56912 72.9656 7.44233Z" fill="#455A64"/>
<path d="M59.8581 7.86829C59.8581 7.86829 59.8833 7.86828 59.9253 7.9553C59.9793 8.05897 60.0228 8.17488 60.0541 8.299C60.1548 8.77211 60.1357 9.28695 60.0009 9.73907C59.7829 10.3673 59.5074 10.9432 59.1831 11.4489C58.8324 12.1028 58.5841 12.8743 58.4578 13.7025C58.3303 14.5305 58.3303 15.3935 58.4578 16.2215C58.5612 16.8975 58.7445 17.5377 58.9983 18.1097C59.2417 18.6293 59.5237 19.1024 59.8385 19.5193C59.7373 19.4452 59.6431 19.3501 59.5584 19.2365C59.3128 18.9415 59.095 18.5944 58.9115 18.2054C58.6371 17.6248 58.4375 16.9675 58.3233 16.2694C58.1881 15.4119 58.1881 14.5165 58.3233 13.659C58.4569 12.798 58.7188 11.9977 59.0879 11.3227C59.4136 10.8363 59.6962 10.2848 59.9281 9.68251C60.0602 9.26544 60.093 8.78916 60.0205 8.33816C59.9746 8.17504 59.9202 8.01791 59.8581 7.86829Z" fill="#455A64"/>
<path d="M38.2931 88.5554C38.2931 88.5554 39.7438 91.118 40.5336 92.6885C41.497 94.5854 42.3849 95.8384 42.9394 96.0429L45.8801 97.1306C45.8801 97.1306 45.8801 99.0535 44.5078 98.8186C43.1354 98.5837 42.8442 98.2008 42.8442 98.2008C42.8442 98.2008 44.9811 107.063 44.6618 107.489C44.1017 108.246 43.4799 106.184 43.4799 106.184L41.4886 100.528L41.6231 103.378C41.6387 103.711 41.5698 104.041 41.4311 104.296C41.2924 104.551 41.0949 104.712 40.8809 104.744C40.7028 104.771 40.524 104.705 40.3721 104.558C40.2203 104.411 40.1038 104.191 40.0407 103.931L39.4161 102.042L39.4974 102.913C39.5275 103.221 39.482 103.535 39.37 103.794C39.258 104.052 39.0875 104.236 38.8924 104.309C38.7348 104.366 38.5697 104.347 38.4194 104.254C38.2691 104.16 38.1409 103.997 38.0522 103.787L37.2904 101.999L37.4165 102.752C37.4361 102.867 37.4407 102.987 37.4299 103.105C37.4192 103.223 37.3934 103.336 37.354 103.438C37.3145 103.541 37.2623 103.63 37.2004 103.7C37.1385 103.77 37.0682 103.821 36.9935 103.848C36.8657 103.897 36.7308 103.875 36.6125 103.785C36.4941 103.695 36.4 103.543 36.3466 103.356L33.3079 93.2019L38.2931 88.5554Z" fill="#FFBE9D"/>
<path d="M41.0737 90.9446C36.5926 77.7447 30.8821 58.6279 30.1203 56.0741C31.0095 56.1068 31.8951 56.2611 32.7669 56.5352L32.9154 56.5135L32.232 46.2198C29.4842 46.7729 26.7748 47.7166 24.138 49.0391C20.4271 50.9577 18.2034 56.7441 18.1838 62.3999C18.1741 62.6433 18.1741 62.8874 18.1838 63.1308C18.1838 63.5877 18.223 64.0445 18.265 64.4926L18.3098 64.4056C19.8418 74.808 33.4139 96.7048 33.4139 96.7048L41.0737 90.9446Z" fill="#BAB8F0"/>
<path d="M26.704 52.9243C26.9306 52.883 27.1601 52.9051 27.3817 52.9895C27.9202 53.1548 28.4347 53.4718 28.8997 53.9249C29.3666 54.3834 29.7741 54.9737 30.1012 55.6652C30.2439 55.9391 30.3566 56.2478 30.4345 56.5788C30.2869 56.318 30.1486 56.0449 30.02 55.7609C29.6776 55.1233 29.2732 54.5728 28.8213 54.1294C28.3681 53.6909 27.874 53.3636 27.3565 53.1592C26.9588 52.9939 26.704 52.9591 26.704 52.9243Z" fill="#263238"/>
<path d="M24.4181 56.9482C24.4181 56.9482 24.4797 56.8481 24.6085 56.7089C24.7916 56.5102 24.9856 56.337 25.1883 56.1912C25.4878 55.9682 25.8 55.789 26.1209 55.6561C26.9114 55.336 27.7375 55.29 28.5407 55.5212C28.867 55.6201 29.1867 55.7658 29.4957 55.9562C29.7029 56.0754 29.9033 56.221 30.0951 56.3913C30.2295 56.5175 30.3023 56.5958 30.2967 56.6088C30.2911 56.6219 29.983 56.3739 29.4565 56.0911C29.1492 55.9257 28.8335 55.8006 28.5127 55.717C28.1208 55.6228 27.7244 55.5835 27.328 55.5995C26.9317 55.6272 26.538 55.7116 26.1517 55.8518C25.8358 55.9704 25.5267 56.129 25.2275 56.326C24.6982 56.6785 24.4181 56.983 24.4181 56.9482Z" fill="#263238"/>
<path d="M40.7181 90.1606C40.6261 90.2714 40.5265 90.3663 40.4212 90.4434C40.2252 90.6131 39.9395 90.8481 39.581 91.1308C38.8669 91.6964 37.867 92.436 36.7412 93.1756C35.6153 93.9153 34.579 94.5287 33.8229 94.9377C33.4448 95.1421 33.1367 95.2988 32.921 95.3988C32.8124 95.4668 32.6984 95.5122 32.5822 95.5337C32.6837 95.4451 32.7907 95.3722 32.9014 95.3162L33.7864 94.7854C34.5342 94.3503 35.5621 93.7108 36.6851 92.9712C37.8082 92.2316 38.8109 91.5137 39.5362 90.9873L40.396 90.3651C40.4984 90.2794 40.6064 90.2109 40.7181 90.1606Z" fill="white"/>
<path d="M40.0406 88.9912C39.9545 89.1005 39.8605 89.1939 39.7606 89.2697C39.5701 89.4393 39.2901 89.6743 38.94 89.9571C38.2426 90.5226 37.2596 91.2622 36.1757 92.0584C35.0918 92.8546 34.0836 93.5072 33.3526 93.964C32.9885 94.1946 32.6917 94.373 32.4844 94.4904C32.3788 94.5615 32.2691 94.6168 32.1567 94.6558C32.2515 94.555 32.3541 94.4732 32.462 94.4121L33.3022 93.8161C34.0192 93.3201 35.0134 92.6371 36.1029 91.8539C37.1924 91.0708 38.1726 90.3443 38.8812 89.8135C39.2172 89.5699 39.4973 89.3784 39.7214 89.1913C39.8219 89.1039 39.9292 89.0366 40.0406 88.9912Z" fill="white"/>
<g opacity="0.2">
<path d="M30.364 56.4397C29.9475 55.3509 29.3442 54.4637 28.6215 53.8774C27.8988 53.2911 27.0854 53.0289 26.2722 53.1202C26.1266 53.1202 25.9585 53.1941 25.8997 53.4029C25.7905 53.7814 26.1434 54.0599 26.4094 54.1164C25.1344 54.1387 23.8859 54.6851 22.791 55.7001C22.4325 56.0351 22.0488 56.679 22.2532 57.2402C22.4577 57.8015 22.9702 57.6448 23.3455 57.436C24.4621 56.743 25.6209 56.227 26.8043 55.8959C27.9961 55.5686 29.2239 55.8224 30.3192 56.6224" fill="black"/>
</g>
</svg>
