<svg width="43" height="42" viewBox="0 0 43 42" fill="none" xmlns="http://www.w3.org/2000/svg">
<circle cx="21" cy="21" r="20.25" stroke="#1C0E44" stroke-width="1.5"/>
<path d="M14.0504 33.0052L12.894 34.4748L14.3871 35.6497L15.5868 34.1252C15.8135 33.837 15.9234 33.5842 15.9165 33.3666C15.9002 33.1502 15.7794 32.9533 15.5541 32.7761C15.3184 32.5905 15.0647 32.514 14.7932 32.5463C14.5124 32.5798 14.2648 32.7328 14.0504 33.0052ZM10.5462 33.8361L11.1336 33.0895L11.9666 33.745L15.4607 29.305L16.388 30.0347L15.0213 31.7714C15.4602 31.7096 15.8813 31.8374 16.2847 32.1549C17.254 32.9176 17.3222 33.8281 16.4894 34.8863L15.3144 36.3795L16.0217 36.936L15.4342 37.6826L10.5462 33.8361Z" fill="#1C0E44"/>
<path d="M4.4 20.33H5.35V21.39H11V22.56H9.56C9.8 22.7467 9.99 23.0033 10.13 23.33C10.2633 23.65 10.33 24 10.33 24.38C10.33 25.0067 10.18 25.52 9.88 25.92C9.58 26.32 9.18 26.52 8.68 26.52C8.29333 26.52 7.99 26.39 7.77 26.13C7.54333 25.8633 7.41 25.5067 7.37 25.06C7.35 25.48 7.24667 25.81 7.06 26.05C6.86667 26.29 6.59667 26.41 6.25 26.41C5.83 26.41 5.53 26.24 5.35 25.9V27.27H4.4V24.08H5.35V24.1C5.35 24.4667 5.42333 24.7467 5.57 24.94C5.71 25.1333 5.91 25.23 6.17 25.23C6.64333 25.23 6.88 24.8733 6.88 24.16V23.72H7.87V24.25C7.87 24.97 8.11 25.33 8.59 25.33C8.83 25.33 9.01667 25.2333 9.15 25.04C9.28333 24.8467 9.35 24.5867 9.35 24.26C9.35 23.7467 9.21 23.3367 8.93 23.03C8.65 22.7167 8.27667 22.56 7.81 22.56H4.4V20.33Z" fill="#1C0E44"/>
<path d="M19.9614 8.62005L21.8406 8.67604L21.9058 6.48701L20.2565 6.43787L20.2193 7.68731C20.2082 8.06048 20.1222 8.37139 19.9614 8.62005ZM24.1631 5.60385L24.1348 6.55343L23.0753 6.52186L22.907 12.1694L21.7375 12.1345L21.8123 9.62562L20.243 9.57886C19.7232 9.56337 19.2543 9.51939 18.8363 9.4469L20.608 12.1009L19.1986 12.0589L17.3711 9.26319L17.3961 8.42356L18.0858 8.44411C18.7122 8.46277 19.0337 8.19223 19.0504 7.63248L19.087 6.40302L16.958 6.33959L16.9863 5.39001L24.1631 5.60385ZM23.5957 6.53736L23.624 5.58779L26.9125 5.68577L26.8842 6.63535L25.8247 6.60378L25.6564 12.2513L24.4869 12.2164L24.6552 6.56893L23.5957 6.53736Z" fill="#1C0E44"/>
<path d="M29.9157 13.072L30.4428 12.3058L31.036 12.7139C31.6017 13.103 32.0414 13.0697 32.355 12.6138L33.0578 11.5923L31.1135 10.2546L31.652 9.47196L35.4005 12.0509L34.8621 12.8335L34.0217 12.2554L33.2792 13.3347C33.0185 13.7136 32.7007 13.9522 32.3257 14.0502C31.96 14.1466 31.578 14.0902 31.1798 13.8809C31.1393 13.8693 31.0971 13.8483 31.0532 13.8181L31.2478 17.2049L30.0861 16.4058L29.9157 13.072ZM32.5832 8.35259L33.1443 7.53697C33.4014 7.65722 33.6014 7.76647 33.7442 7.86471C34.3391 8.28208 34.6258 8.84749 34.6043 9.56097L34.5557 11.5546L33.5177 10.8405L33.5269 9.45093C33.5414 9.0887 33.4059 8.80934 33.1203 8.61285C32.9665 8.50705 32.7874 8.4203 32.5832 8.35259Z" fill="#1C0E44"/>
<path d="M37.6718 20.806L37.5986 27.1556L36.6487 27.1447L36.6609 26.0847L31.0113 26.0196L31.0246 24.8597L36.6742 24.9248L36.6898 23.5749L34.4799 23.5494C34.02 23.5441 33.6748 23.4135 33.4444 23.1575C33.2139 22.9081 33.1011 22.5735 33.1059 22.1535C33.1093 21.8602 33.1592 21.5841 33.2555 21.3252L34.2054 21.3361C34.1168 21.5018 34.0714 21.6813 34.0692 21.8746C34.0654 22.2079 34.2401 22.3766 34.5934 22.3807L36.7033 22.405L36.7218 20.7951L37.6718 20.806Z" fill="#1C0E44"/>
<path d="M33.1305 31.7848L33.8053 32.4535L29.3429 36.9571L28.6681 36.2885L29.4142 35.5355L25.4007 31.5588L26.2101 30.7419L28.1139 32.6282L29.3597 31.3708L28.4575 30.477L29.1614 29.7666L29.8909 30.039C30.3207 30.202 30.6018 30.3492 30.7344 30.4806C30.9381 30.6824 30.9627 30.9133 30.8083 31.1732L32.2859 32.6372L33.1305 31.7848ZM30.2236 34.7186L31.4694 33.4613L30.0345 32.0395L28.7887 33.2968L30.2236 34.7186Z" fill="#1C0E44"/>
<circle cx="21" cy="21" r="3" fill="#1C0E44"/>
<path d="M5.34265 10.556C5.84103 10.074 6.36411 9.66546 6.9119 9.33044C7.46448 8.99078 8.13521 8.63424 8.92409 8.26082L9.66795 9.02995C8.13443 9.66911 6.93158 10.4104 6.05941 11.2539C5.83418 11.4718 5.71728 11.6961 5.7087 11.927C5.70029 12.1484 5.79109 12.3574 5.98111 12.5539L6.46775 13.0571L7.2297 12.3202L7.89014 13.003L7.12819 13.7399L11.056 17.8013L10.215 18.6147L6.28717 14.5533L5.52522 15.2902L4.86478 14.6073L5.62673 13.8704L5.13314 13.3601C4.74383 12.9575 4.56517 12.5043 4.59717 12.0004C4.62452 11.4916 4.87302 11.0102 5.34265 10.556ZM6.84434 12.6928L10.9272 8.74413L11.5877 9.42701L10.8257 10.1639L14.7536 14.2253L13.9054 15.0456L11.6738 12.7382L10.6387 13.7393C10.5524 13.8227 10.5133 13.9069 10.5213 13.9919C10.5247 14.0721 10.582 14.1697 10.6932 14.2847C10.8276 14.4237 11.0161 14.5706 11.2587 14.7256L10.583 15.379C10.1655 15.2542 9.80842 15.0384 9.5118 14.7317C9.32642 14.54 9.24033 14.3312 9.25354 14.1051C9.2669 13.8696 9.39339 13.6359 9.63299 13.4042L11.0203 12.0625L9.97752 10.9843L7.50478 13.3757L6.84434 12.6928Z" fill="#1C0E44"/>
</svg>
