<svg width="883" height="663" viewBox="0 0 883 663" fill="none" xmlns="http://www.w3.org/2000/svg">
<path d="M356.751 7.20685C392.93 5.10381 382.457 -1.49098 439.158 4.3705C481.883 8.7872 522.508 14.4865 529.443 15.1413C527.758 14.7466 526.053 14.3473 524.328 13.9432C530.375 15.03 531.712 15.3556 529.443 15.1413C621.137 36.6235 652.701 44.3346 675.791 49.3975C733.563 55.6124 770.066 62.1475 795.949 69.9623L782.598 88.7518L748.07 84.1428L667.044 74.5701L592.463 55.0702L537.678 41.5976L476.449 27.4158L411.075 13.5886L389.438 10.3977C383.606 9.68865 368.905 8.05775 356.751 7.20685Z" fill="#868393"/>
<path d="M836.002 632.622C855.828 630.221 866.159 627.169 881.118 614.185C876.384 425.69 870.749 321.194 881.118 126.688C878.006 118.034 873.599 114.115 864.545 107.543C844.333 91.7003 828.58 79.8144 795.949 69.9623M795.949 69.9623C770.066 62.1475 733.563 55.6124 675.791 49.3975C652.277 44.2416 619.974 36.3392 524.328 13.9432C548.862 18.3524 495.86 10.232 439.158 4.3705C382.457 -1.49098 392.93 5.10381 356.751 7.20685C368.905 8.05775 383.606 9.68865 389.438 10.3977L411.075 13.5886L476.449 27.4158L537.678 41.5976L592.463 55.0702L667.044 74.5701L748.07 84.1428L782.598 88.7518L795.949 69.9623Z" stroke="#868393" stroke-width="3"/>
<path fill-rule="evenodd" clip-rule="evenodd" d="M331.089 21.8748C330.199 18.4169 330.645 15.8979 332.225 14.0202C333.878 12.0557 337.02 10.4834 342.222 9.57378C352.613 7.75699 370.116 8.76116 396.444 12.8986C449.011 21.1593 535.985 41.7694 669.716 76.1736L669.816 76.1993L669.919 76.2111C739.594 84.2006 785.384 90.1193 815.478 95.462C830.526 98.1335 841.606 100.654 849.766 103.203C857.497 105.618 862.505 108.03 865.767 110.543V604.409V604.654L865.845 604.886C867.012 608.362 866.417 611.58 864.068 614.708C861.659 617.914 857.391 621.028 851.224 623.998C838.908 629.929 819.606 635.012 794.471 639.316C744.248 647.916 671.245 653.323 585.573 656.438C414.901 662.641 194.205 659.736 3.82618 654.931C4.03293 654.649 4.29284 654.34 4.61612 654.003C5.67508 652.902 7.25916 651.673 9.36936 650.33C13.5837 647.648 19.6712 644.653 27.2428 641.427C42.3712 634.982 63.1934 627.71 86.2421 620.251C113.558 611.41 143.871 602.346 171.457 594.096C190.416 588.427 208.087 583.143 222.613 578.581C260.895 573.883 287.492 568.521 304.362 558.522C312.863 553.483 318.941 547.244 322.795 539.303C326.636 531.388 328.211 521.899 327.911 510.44L331.136 22.2583L331.137 22.0635L331.089 21.8748ZM396.91 9.93499C449.631 18.2199 536.718 38.8611 670.363 73.2424C739.972 81.225 785.819 87.1497 816.003 92.5082C831.101 95.1886 842.324 97.7347 850.66 100.339C858.98 102.939 864.54 105.63 868.221 108.663L868.767 109.113V109.821V604.17C870.168 608.577 869.303 612.734 866.467 616.509C863.639 620.274 858.873 623.644 852.526 626.701C839.815 632.822 820.169 637.959 794.978 642.273C744.547 650.908 671.378 656.32 585.682 659.436C414.264 665.667 192.462 662.713 1.58335 657.876L0.00244141 657.835L0.125939 656.259C0.191274 655.425 0.489194 654.622 0.944533 653.855L0.277181 653.192C12.9438 640.442 23.1085 630.38 52.0253 614.83C80.8591 599.325 128.383 578.337 215.783 543.655L216.049 543.55L216.334 543.549C255.495 543.489 279.636 540.156 295.371 532.513C310.933 524.954 318.427 513.096 324.014 495.318L325.009 495.631L328.135 22.4295C327.154 18.4535 327.566 14.8981 329.929 12.0888C332.258 9.32124 336.246 7.57319 341.705 6.61861C352.639 4.70696 370.588 5.79863 396.91 9.93499ZM324.968 501.845C319.374 517.09 311.497 528.015 296.682 535.211C280.316 543.16 255.64 546.473 216.625 546.549C129.391 581.169 82.0814 602.074 53.4461 617.472C33.4084 628.247 22.5373 636.312 13.5116 644.515C17.0908 642.648 21.3152 640.692 26.067 638.667C41.3252 632.167 62.2535 624.861 85.3183 617.396C112.623 608.559 143.052 599.459 170.693 591.193L170.696 591.193C189.704 585.508 207.395 580.218 221.845 575.678L221.976 575.637L222.112 575.62C260.548 570.908 286.563 565.584 302.833 555.941C310.912 551.152 316.539 545.323 320.096 537.993C323.664 530.641 325.207 521.663 324.912 510.494L324.911 510.47L324.911 510.445L324.968 501.845Z" fill="#868393"/>
</svg>
