<svg width="362" height="215" viewBox="0 0 362 215" fill="none" xmlns="http://www.w3.org/2000/svg">
<path d="M318.917 82.5209V92.4897C318.917 94.5313 321.135 95.8125 322.906 94.7916L327.229 92.3021L331.552 89.8021C333.323 88.7812 333.323 86.2291 331.552 85.2084L327.229 82.7084L322.906 80.2188C321.135 79.198 318.917 80.4688 318.917 82.5209Z" stroke="#190C40" stroke-width="1.5" stroke-linecap="round" stroke-linejoin="round"/>
<path d="M336.083 93.9375V81.0625" stroke="#190C40" stroke-width="1.5" stroke-linecap="round" stroke-linejoin="round"/>
<path d="M227.083 92.4791V82.5103C227.083 80.4687 224.864 79.1875 223.093 80.2084L218.771 82.6979L214.448 85.1979C212.677 86.2188 212.677 88.7709 214.448 89.7916L218.771 92.2916L223.093 94.7812C224.864 95.802 227.083 94.5312 227.083 92.4791Z" stroke="#190C40" stroke-width="1.5" stroke-linecap="round" stroke-linejoin="round"/>
<path d="M209.916 81.0625V93.9375" stroke="#190C40" stroke-width="1.5" stroke-linecap="round" stroke-linejoin="round"/>
<path d="M277 94.1667L279 94.3333V78H277M265 94.3333H267.5V86.1667V78H265V94.3333Z" fill="#190C40"/>
<path d="M361 179.056C333.839 199.753 321.91 197.582 302.252 186.999C292.11 179.985 286.182 173.058 283.185 164.616C279.387 155.471 274.769 148.569 267.414 141.511C239.17 115.031 220.78 113.506 183.391 135.735C176.299 141.222 172.207 144.444 168.362 145.843C146.829 153.446 135.952 153.323 119.178 143.677L95.2695 127.071C85.4902 118.993 79.9165 118.512 70.6774 127.071C60.458 137.202 51.3867 137.814 44.7192 127.071C39.5417 117.142 35.8008 113.472 26.9583 111.908C16.1957 109.813 10.7828 113.895 1.68311 125.627C1.68311 182.233 1.2277 193.016 1 191.331C1.59193 209.363 10.3997 211.473 26.9583 214.436L70.6774 211.548H341.19C355.7 202.391 359.496 195.288 361 179.056Z" fill="#190C40"/>
<path fill-rule="evenodd" clip-rule="evenodd" d="M34.4725 40.4277C21.0444 33.3121 13.7657 36.8445 1 49.0919L1.68311 125.627C10.7828 113.895 16.1957 109.813 26.9583 111.908C35.8008 113.472 39.5417 117.142 44.7192 127.071C51.3867 137.814 60.458 137.202 70.6774 127.071C79.9165 118.512 85.4902 118.993 95.2695 127.071L119.178 143.677C135.952 153.323 146.829 153.446 168.362 145.843C172.207 144.444 176.299 141.222 183.391 135.735C220.78 113.506 239.17 115.031 267.414 141.511C274.769 148.569 279.387 155.471 283.185 164.616C286.182 173.058 292.11 179.985 302.252 186.999C321.91 197.582 333.839 199.753 361 179.056V49.0919L318.647 10.8246C275.918 -22.2397 200.566 38.2119 186.123 44.7598C177.44 47.9984 172.743 48.1174 164.947 44.7598L147.869 32.4854C138.713 23.6325 132.399 21.1032 117.812 32.4854C103.174 45.9392 94.0094 54.9927 85.7059 58.4783C74.445 62.6087 68.8073 62.5052 59.7476 58.4783L34.4725 40.4277ZM296.106 72.9188C286.141 58.6277 279.028 54.8821 262.633 58.4783C250.593 65.3431 247.064 70.6433 245.555 82.3051C245.154 97.4644 247.778 103.931 257.851 111.908C274.595 121.284 282.732 120.344 294.739 105.41C301.038 92.0976 301.151 85.0037 296.106 72.9188Z" fill="#BCBCFF"/>
<path d="M361 179.056V49.0919L318.647 10.8246C275.918 -22.2397 200.566 38.2119 186.123 44.7598C177.44 47.9984 172.743 48.1174 164.947 44.7598L147.869 32.4854C138.713 23.6325 132.399 21.1032 117.812 32.4854C103.174 45.9392 94.0094 54.9927 85.7059 58.4783C74.445 62.6087 68.8073 62.5052 59.7476 58.4783L34.4725 40.4277C21.0444 33.3121 13.7657 36.8445 1 49.0919L1.68311 125.627M361 179.056C333.839 199.753 321.91 197.582 302.252 186.999C292.11 179.985 286.182 173.058 283.185 164.616C279.387 155.471 274.769 148.569 267.414 141.511C239.17 115.031 220.78 113.506 183.391 135.735C176.299 141.222 172.207 144.444 168.362 145.843C146.829 153.446 135.952 153.323 119.178 143.677L95.2695 127.071C85.4902 118.993 79.9165 118.512 70.6774 127.071C60.458 137.202 51.3867 137.814 44.7192 127.071C39.5417 117.142 35.8008 113.472 26.9583 111.908C16.1957 109.813 10.7828 113.895 1.68311 125.627M361 179.056C359.496 195.288 355.7 202.391 341.19 211.548H70.6774L26.9583 214.436C10.3997 211.473 1.59193 209.363 1 191.331C1.2277 193.016 1.68311 182.233 1.68311 125.627M262.633 58.4783C279.028 54.8821 286.141 58.6277 296.106 72.9188C301.151 85.0037 301.038 92.0976 294.739 105.41C282.732 120.344 274.595 121.284 257.851 111.908C247.778 103.931 245.154 97.4644 245.555 82.3051C247.064 70.6433 250.593 65.3431 262.633 58.4783Z" stroke="black"/>
</svg>
