<svg width="313" height="75" viewBox="0 0 313 75" fill="none" xmlns="http://www.w3.org/2000/svg">
<g clip-path="url(#clip0_299_83)">
<path fill-rule="evenodd" clip-rule="evenodd" d="M21.7237 65.1851C21.7237 65.9404 21.0723 66.2633 20.2697 66.2633H18.8158C18.0132 66.2633 17.3618 65.9404 17.3618 65.1851V63.8166C17.3618 62.3045 16.0605 60.7897 14.4539 60.7897H11.546C9.93943 60.7897 8.63814 62.3045 8.63814 63.8166V65.1851C8.63814 65.9404 7.98678 66.2633 7.1842 66.2633H5.73025C4.92767 66.2633 4.2763 65.9404 4.2763 65.1851V54.1514C4.2763 53.9694 4.35336 53.7956 4.48857 53.667L11.9575 46.6388C12.526 46.1038 13.4464 46.1038 14.0134 46.6388L21.5114 53.6944C21.6466 53.823 21.7237 53.9969 21.7237 54.1775V65.1851ZM24.6316 53.4344C24.6316 53.0718 24.4789 52.7256 24.2085 52.4683L15.0501 43.8062C13.916 42.7347 12.0738 42.7306 10.9354 43.798L1.79587 52.3712C1.52253 52.6284 1.36841 52.976 1.36841 53.34V66.5535C1.36841 68.0656 2.66969 69.0002 4.2763 69.0002H8.63814C10.2448 69.0002 11.546 68.0656 11.546 66.5535V65.1851C11.546 64.4297 12.1974 63.8166 13 63.8166C13.8026 63.8166 14.4539 64.4297 14.4539 65.1851V66.5535C14.4539 68.0656 15.7552 69.0002 17.3618 69.0002H21.7237C23.3303 69.0002 24.6316 68.0656 24.6316 66.5535V53.4344Z" fill="#F5F5F5"/>
</g>
<path d="M140.867 48.4269L152.187 44.6535C157.267 42.9602 160.027 45.7335 158.347 50.8135L154.573 62.1335C152.04 69.7468 147.88 69.7468 145.347 62.1335L144.227 58.7735L140.867 57.6535C133.253 55.1202 133.253 50.9735 140.867 48.4269Z" stroke="white" stroke-width="3" stroke-linecap="round" stroke-linejoin="round"/>
<path d="M144.48 58.2002L149.253 53.4136" stroke="white" stroke-width="3" stroke-linecap="round" stroke-linejoin="round"/>
<path fill-rule="evenodd" clip-rule="evenodd" d="M214.104 48.7918C211.962 48.7918 210.25 50.5083 210.25 52.5946C210.25 54.9443 211.609 57.4515 213.713 59.9071C215.479 61.9681 217.625 63.828 219.5 65.3284C221.375 63.828 223.521 61.9681 225.287 59.9071C227.391 57.4515 228.75 54.9443 228.75 52.5946C228.75 50.5083 227.039 48.7918 224.896 48.7918C222.753 48.7918 221.042 50.5083 221.042 52.5946C221.042 53.4461 220.352 54.1363 219.5 54.1363C218.649 54.1363 217.958 53.4461 217.958 52.5946C217.958 50.5083 216.247 48.7918 214.104 48.7918ZM219.5 48.2657C218.226 46.7038 216.278 45.7085 214.104 45.7085C210.287 45.7085 207.167 48.7776 207.167 52.5946C207.167 56.0659 209.121 59.286 211.372 61.9131C213.654 64.5777 216.454 66.8745 218.553 68.5084C219.11 68.9419 219.89 68.9419 220.447 68.5084C222.546 66.8745 225.346 64.5777 227.629 61.9131C229.879 59.286 231.833 56.0659 231.833 52.5946C231.833 48.7776 228.713 45.7085 224.896 45.7085C222.722 45.7085 220.774 46.7038 219.5 48.2657Z" fill="white"/>
<g opacity="0.15">
<path d="M74.25 63.875C74.25 65.6009 72.8509 67 71.125 67C69.3991 67 68 65.6009 68 63.875C68 62.1491 69.3991 60.75 71.125 60.75C72.8509 60.75 74.25 62.1491 74.25 63.875Z" fill="#F5F5F5"/>
<path d="M88 62.625C88 64.3509 86.6009 65.75 84.875 65.75C83.1491 65.75 81.75 64.3509 81.75 62.625C81.75 60.8991 83.1491 59.5 84.875 59.5C86.6009 59.5 88 60.8991 88 62.625Z" fill="#F5F5F5"/>
</g>
<path d="M74.25 63.875V49.5L88 45.75V62.625M74.25 63.875C74.25 65.6009 72.8509 67 71.125 67C69.3991 67 68 65.6009 68 63.875C68 62.1491 69.3991 60.75 71.125 60.75C72.8509 60.75 74.25 62.1491 74.25 63.875ZM88 62.625C88 64.3509 86.6009 65.75 84.875 65.75C83.1491 65.75 81.75 64.3509 81.75 62.625C81.75 60.8991 83.1491 59.5 84.875 59.5C86.6009 59.5 88 60.8991 88 62.625Z" stroke="#F5F5F5" stroke-width="4" stroke-linecap="round" stroke-linejoin="round"/>
<circle cx="294" cy="19" r="19" fill="#190C40"/>
<path d="M295.93 7.2199C295.691 7.07991 295.402 7.09529 295.177 7.26279L287.828 13.6376L285.388 13.6393C284.14 13.6393 283.125 14.6168 283.125 15.8241L283.164 21.1632C283.164 22.3656 284.179 23.344 285.426 23.344L287.866 23.3456L295.175 29.7366C295.298 29.8281 295.441 29.875 295.585 29.875C295.703 29.875 295.821 29.8434 295.928 29.7803C296.168 29.6403 296.318 29.366 296.318 29.0658V7.93361C296.318 7.63502 296.168 7.35989 295.929 7.21909L295.93 7.2199ZM294.854 27.5445L288.501 21.8672C288.38 21.7774 288.237 21.7288 288.091 21.7288L285.428 21.7272C284.957 21.7272 284.629 21.431 284.629 21.1591L284.59 15.8201C284.59 15.5546 284.918 15.2593 285.388 15.2593L288.052 15.2577C288.198 15.2577 288.34 15.2099 288.461 15.1193L294.854 9.4549V27.5445ZM302.2 18.6401C302.2 16.4909 300.863 14.6839 299.021 14.3441C298.616 14.2704 298.244 14.5682 298.178 15.0092C298.112 15.4502 298.381 15.867 298.78 15.9406C299.932 16.1526 300.736 17.2637 300.736 18.6401C300.736 19.951 299.903 21.0847 298.756 21.338C298.36 21.4254 298.102 21.851 298.182 22.2896C298.251 22.6748 298.557 22.941 298.899 22.941C298.946 22.941 298.995 22.9361 299.044 22.9248C300.873 22.5218 302.201 20.7189 302.201 18.6393L302.2 18.6401ZM301.228 11.2157C300.85 11.0604 300.427 11.2724 300.286 11.6915C300.144 12.1099 300.338 12.576 300.716 12.7322C302.926 13.6433 304.41 16.0167 304.41 18.6401C304.41 21.2643 302.926 23.6434 300.718 24.5578C300.339 24.7156 300.147 25.1808 300.289 25.5992C300.399 25.9245 300.678 26.1244 300.975 26.1244C301.06 26.1244 301.147 26.1082 301.232 26.0726C304.009 24.9219 305.875 21.9352 305.875 18.6393C305.875 15.3434 304.007 12.3607 301.229 11.2149L301.228 11.2157Z" fill="white"/>
<defs>
<clipPath id="clip0_299_83">
<rect width="26" height="26" fill="white" transform="translate(0 43)"/>
</clipPath>
</defs>
</svg>
