<svg width="696" height="687" viewBox="0 0 696 687" fill="none" xmlns="http://www.w3.org/2000/svg">
<path d="M570.163 560.482C568.298 552.005 559.027 545.272 548.518 541.796C543.854 536.08 535.294 529.608 520.678 522.56C488.3 506.979 470.83 498.927 461.866 494.929C458.927 493.68 455.741 493.099 452.544 493.227C449.347 493.355 446.22 494.19 443.394 495.671L369.103 539.13C368.087 539.615 366.974 539.867 365.845 539.867C364.717 539.867 363.604 539.615 362.588 539.13C362.376 539.013 362.184 538.865 362.017 538.69C362.173 538.519 362.356 538.375 362.56 538.265C389.816 522.56 436.643 495.506 443.978 490.752C447.639 488.361 447.542 485.256 446.233 483.181C442.6 477.369 424.908 472.986 417.196 477.396L322.54 531.34C319.339 533.167 317.585 535.86 317.752 538.718C317.933 541.782 320.23 544.475 324.072 546.124C337.351 551.812 360.389 562.076 394.716 578.591C402.163 581.982 409.173 586.24 415.596 591.273C414.955 591.177 414.315 591.109 413.675 591.04C389.259 588.69 376.091 597.305 374.225 606.305C372.722 613.505 378.081 620.141 387.867 623.219C401.606 627.547 423.85 621.969 428.666 610.125C429.872 607.172 429.995 603.897 429.014 600.864C434.875 604.065 439.496 608.517 440.596 613.518C442.099 620.388 436.656 627.602 424.852 634.335C390.818 653.722 364.996 641.809 326.563 619.908C321.079 616.775 282.52 594.983 215.064 556.896C210.722 554.438 207.114 550.892 204.604 546.617C202.094 542.342 200.771 537.49 200.768 532.549V515.25C200.721 514.631 200.439 514.053 199.978 513.631C199.517 513.209 198.912 512.974 198.283 512.974C197.655 512.974 197.049 513.209 196.589 513.631C196.128 514.053 195.846 514.631 195.799 515.25V532.562C195.802 538.366 197.358 544.066 200.308 549.087C203.258 554.107 207.498 558.27 212.6 561.155C280.056 599.243 318.601 621.034 324.085 624.153C349.239 638.484 369.91 648.968 391.194 648.968C402.789 648.968 414.552 645.862 427.386 638.58C444.897 628.605 446.874 618.891 445.482 612.474C443.616 603.942 434.889 597.195 425.033 593.623C420.426 587.866 411.837 581.326 396.984 574.181C362.574 557.624 339.467 547.333 326.146 541.617C324.141 540.765 322.86 539.542 322.805 538.429C322.749 537.316 323.598 536.437 325.116 535.571L419.772 481.614C423.627 479.416 432.787 480.639 438.41 483.195C441.375 484.569 442.155 485.695 442.211 485.86C442.266 486.025 442.085 486.162 441.348 486.643C434.109 491.342 387.366 518.342 360.152 534.033C359.239 534.433 358.464 535.086 357.92 535.913C357.376 536.74 357.086 537.705 357.086 538.69C357.086 539.676 357.376 540.641 357.92 541.468C358.464 542.295 359.239 542.948 360.152 543.348C361.932 544.269 363.912 544.75 365.922 544.75C367.932 544.75 369.912 544.269 371.692 543.348L445.983 499.875C448.13 498.809 450.486 498.212 452.888 498.127C455.29 498.042 457.683 498.469 459.903 499.38C468.84 503.379 486.253 511.403 518.59 526.956C526.035 530.35 533.044 534.608 539.47 539.639C538.815 539.542 538.175 539.474 537.535 539.405C513.119 537.055 499.951 545.67 498.099 554.67C496.596 561.87 501.955 568.506 511.741 571.584C525.48 575.912 547.724 570.334 552.527 558.49C553.796 555.381 553.87 551.921 552.735 548.762C559.236 551.936 564.4 556.47 565.514 561.526C566.989 568.273 561.185 575.596 548.712 582.7L537.382 589.157C537.118 588.931 536.834 588.728 536.532 588.553C536.18 588.297 535.764 588.139 535.328 588.095C534.892 588.052 534.452 588.124 534.055 588.306L529.113 591.054C528.674 590.786 528.175 590.63 527.66 590.599C527.145 590.568 526.631 590.663 526.162 590.875L507.593 601.469C507.109 601.794 506.723 602.244 506.478 602.769C506.233 603.294 506.137 603.875 506.201 604.45C506.206 604.832 506.239 605.213 506.298 605.591L505.616 606.03L501.44 608.613L500.633 609.122L496.457 611.76L495.705 612.227L491.446 614.906L490.764 615.332L484.959 617.586C484.871 617.638 484.791 617.703 484.722 617.778L483.149 619.152C482.983 619.322 482.855 619.526 482.774 619.748C482.692 619.971 482.659 620.207 482.676 620.443C482.721 621.227 482.95 621.989 483.347 622.669C483.743 623.349 484.295 623.928 484.959 624.359C485.162 624.491 485.39 624.581 485.629 624.624C485.868 624.666 486.114 624.661 486.351 624.607L488.355 624.002C488.467 623.975 488.575 623.934 488.676 623.878L493.561 620.045L498.754 617.366L499.533 616.967L503.932 614.7L504.781 614.26L509.124 612.021L509.876 611.636C510.175 611.877 510.492 612.098 510.822 612.296C511.292 612.631 511.844 612.837 512.421 612.893C512.999 612.948 513.581 612.851 514.107 612.612L519.675 609.465L532.732 602.018C532.851 601.952 532.959 601.868 533.052 601.771C533.378 601.47 533.637 601.106 533.815 600.702C533.992 600.297 534.083 599.862 534.083 599.421L539.01 596.605C539.349 596.413 539.617 596.119 539.776 595.766C539.968 595.334 540.063 594.865 540.054 594.392C540.051 594.051 540.014 593.71 539.943 593.376C539.943 593.376 539.943 593.376 539.943 593.279L551.246 586.835C569.328 576.475 571.541 566.775 570.163 560.482Z" fill="#E0E0E0"/>
<path d="M391.069 641.795C369.785 641.795 349.114 631.312 323.96 616.981C317 613.01 259.497 580.529 212.475 553.983C207.373 551.098 203.133 546.935 200.183 541.915C197.233 536.894 195.677 531.194 195.673 525.39V507.995C195.72 507.377 196.003 506.798 196.463 506.376C196.924 505.954 197.53 505.72 198.158 505.72C198.787 505.72 199.392 505.954 199.853 506.376C200.314 506.798 200.596 507.377 200.643 507.995V525.39C200.646 530.329 201.97 535.179 204.48 539.452C206.99 543.724 210.598 547.268 214.939 549.724C261.961 576.283 319.478 608.806 326.438 612.735C364.899 634.651 390.693 646.549 424.727 627.162C436.531 620.43 441.974 613.23 440.471 606.346C439.371 601.359 434.763 596.893 428.889 593.692C429.866 596.729 429.743 600.008 428.541 602.966C423.739 614.796 401.481 620.375 387.742 616.06C377.998 612.983 372.597 606.332 374.1 599.146C375.979 590.133 389.12 581.518 413.549 583.881C414.19 583.881 414.83 584.019 415.484 584.115C409.056 579.085 402.047 574.824 394.604 571.419C360.291 554.931 337.254 544.654 323.96 538.952C320.118 537.316 317.821 534.61 317.641 531.546C317.46 528.482 319.227 526.05 322.429 524.167L417.085 470.224C424.797 465.827 442.489 470.224 446.122 476.009C447.431 478.111 447.514 481.202 443.867 483.579C436.559 488.32 389.718 515.387 362.449 531.106C362.247 531.214 362.064 531.353 361.906 531.518C362.069 531.697 362.262 531.845 362.477 531.958C363.492 532.443 364.606 532.695 365.734 532.695C366.862 532.695 367.976 532.443 368.991 531.958L443.282 488.484C446.11 487.008 449.237 486.175 452.433 486.047C455.629 485.919 458.814 486.498 461.754 487.743C470.705 491.741 488.202 499.779 520.566 515.374C535.238 522.436 543.799 528.921 548.406 534.61C558.86 538.086 568.187 544.818 570.052 553.31C571.444 559.603 569.231 569.289 550.884 579.746L528.71 592.386C528.139 592.711 527.462 592.798 526.826 592.629C526.19 592.461 525.649 592.049 525.32 591.486C524.991 590.923 524.903 590.255 525.074 589.627C525.245 589 525.661 588.465 526.232 588.141L548.406 575.5C560.934 568.396 566.683 561.087 565.208 554.34C564.094 549.27 558.93 544.722 552.429 541.576C553.564 544.735 553.49 548.195 552.22 551.304C547.418 563.134 525.174 568.712 511.435 564.398C501.691 561.32 496.29 554.67 497.793 547.484C499.672 538.471 512.813 529.856 537.229 532.219C537.869 532.219 538.509 532.356 539.163 532.439C532.738 527.408 525.729 523.151 518.283 519.757C485.933 504.203 468.519 496.179 459.597 492.194C457.38 491.274 454.987 490.84 452.583 490.923C450.18 491.006 447.823 491.604 445.677 492.675L371.386 536.149C369.605 537.069 367.626 537.55 365.616 537.55C363.606 537.55 361.626 537.069 359.846 536.149C358.955 535.713 358.199 535.05 357.656 534.229C357.112 533.407 356.802 532.457 356.756 531.477C356.8 530.504 357.106 529.559 357.641 528.741C358.177 527.922 358.923 527.259 359.804 526.819C406.826 499.724 435.654 482.851 441 479.43C441.737 478.949 441.863 478.647 441.863 478.647C441.863 478.647 441.027 477.273 438.062 475.981C432.494 473.425 423.279 472.216 419.424 474.415L324.768 528.358C323.25 529.224 322.401 530.268 322.457 531.216C322.513 532.164 323.849 533.552 325.798 534.404C339.133 540.133 362.254 550.424 396.637 566.967C411.489 574.112 420.078 580.707 424.685 586.423C434.541 589.982 443.269 596.728 445.134 605.261C446.526 611.65 444.535 621.364 427.038 631.367C414.426 638.69 402.664 641.795 391.069 641.795ZM405.643 588.374C389.69 588.374 380.253 593.87 378.958 600.136C377.984 604.78 381.937 609.094 389.245 611.389C400.562 614.947 420.147 610.441 423.934 601.139C425.228 597.951 424.449 594.392 421.762 590.628C418.943 589.68 416.024 589.049 413.062 588.745C410.445 588.498 407.967 588.374 405.643 588.374ZM529.433 536.712C513.495 536.712 504.057 542.208 502.763 548.473C501.788 553.117 505.728 557.432 513.05 559.726C524.366 563.285 543.952 558.778 547.738 549.476C549.047 546.247 548.225 542.606 545.455 538.814C542.657 537.959 539.78 537.379 536.867 537.083C534.25 536.836 531.772 536.712 529.433 536.712Z" fill="#455A64"/>
<path d="M533.86 581.106C534.258 580.927 534.697 580.856 535.133 580.9C535.568 580.943 535.984 581.1 536.338 581.353C537.358 582.01 538.207 582.894 538.817 583.935C539.426 584.976 539.779 586.143 539.846 587.344C539.892 587.777 539.82 588.215 539.636 588.612C539.452 589.008 539.164 589.348 538.802 589.597L524.784 597.58L519.843 589.089L533.86 581.106Z" fill="#868393"/>
<path opacity="0.1" d="M539.428 585.242C539.683 585.915 539.824 586.625 539.846 587.344C539.892 587.777 539.82 588.215 539.636 588.611C539.452 589.008 539.164 589.348 538.802 589.597L524.784 597.58L523.03 594.571L539.428 585.242Z" fill="#868393"/>
<path d="M525.828 595.34C525.762 594.14 525.41 592.972 524.801 591.931C524.191 590.89 523.341 590.005 522.32 589.35C521.968 589.098 521.556 588.941 521.124 588.896C520.691 588.85 520.254 588.916 519.856 589.089C519.494 589.338 519.206 589.678 519.022 590.074C518.838 590.471 518.766 590.909 518.812 591.342C518.878 592.543 519.23 593.711 519.84 594.752C520.449 595.793 521.299 596.677 522.32 597.333C522.654 597.629 523.074 597.813 523.52 597.859C523.967 597.905 524.416 597.811 524.805 597.59C525.194 597.37 525.502 597.033 525.686 596.629C525.87 596.225 525.919 595.774 525.828 595.34Z" fill="#868393"/>
<path d="M525.967 583.758C526.494 583.517 527.076 583.419 527.653 583.474C528.231 583.53 528.783 583.737 529.252 584.074C530.607 584.945 531.734 586.12 532.542 587.502C533.35 588.884 533.816 590.435 533.902 592.029C533.964 592.604 533.867 593.184 533.622 593.709C533.377 594.234 532.993 594.684 532.51 595.011L513.926 605.59L507.384 594.337L525.967 583.758Z" fill="#455A64"/>
<path opacity="0.1" d="M533.345 589.24C533.688 590.118 533.876 591.047 533.902 591.988C533.964 592.563 533.867 593.143 533.622 593.668C533.377 594.193 532.993 594.643 532.51 594.969L513.926 605.549L511.616 601.578L533.345 589.24Z" fill="#868393"/>
<path d="M515.305 602.623C515.22 601.031 514.754 599.481 513.946 598.101C513.138 596.72 512.01 595.548 510.655 594.681C510.222 594.26 509.661 593.991 509.058 593.915C508.455 593.839 507.843 593.959 507.316 594.258C506.79 594.557 506.376 595.018 506.14 595.571C505.903 596.124 505.856 596.738 506.006 597.319C506.095 598.912 506.563 600.462 507.37 601.844C508.178 603.225 509.303 604.401 510.655 605.274C511.089 605.698 511.652 605.968 512.257 606.045C512.862 606.121 513.476 606 514.004 605.698C514.533 605.397 514.946 604.933 515.181 604.377C515.416 603.822 515.459 603.205 515.305 602.623Z" fill="#868393"/>
<path d="M510.655 596.962C510.391 596.771 510.08 596.653 509.754 596.622C509.429 596.59 509.1 596.646 508.804 596.783L490.597 608.215L484.792 610.454L488.509 616.844L493.394 613.01L512.521 603.186C512.792 603.002 513.007 602.749 513.144 602.454C513.282 602.159 513.335 601.832 513.3 601.51C513.253 600.6 512.989 599.713 512.53 598.923C512.07 598.133 511.428 597.461 510.655 596.962Z" fill="#1D0F44"/>
<path opacity="0.7" d="M510.655 596.962C510.391 596.771 510.08 596.653 509.754 596.622C509.429 596.59 509.1 596.646 508.804 596.783L490.597 608.215L484.792 610.454L488.509 616.844L493.394 613.01L512.521 603.186C512.792 603.002 513.007 602.749 513.144 602.454C513.282 602.159 513.335 601.832 513.3 601.51C513.253 600.6 512.989 599.713 512.53 598.923C512.07 598.133 511.428 597.461 510.655 596.962Z" fill="white"/>
<path d="M486.643 610.647C486.379 610.458 486.069 610.34 485.744 610.306C485.419 610.273 485.091 610.324 484.792 610.454L484.555 610.647L483.024 612.09L486.226 617.586L488.23 616.995C488.343 616.963 488.45 616.917 488.55 616.857C488.822 616.671 489.039 616.416 489.176 616.118C489.313 615.821 489.366 615.492 489.33 615.167C489.275 614.258 489.003 613.374 488.536 612.589C488.069 611.803 487.421 611.138 486.643 610.647Z" fill="#1D0F44"/>
<path opacity="0.5" d="M486.643 610.647C486.379 610.458 486.069 610.34 485.744 610.306C485.419 610.273 485.091 610.324 484.792 610.454L484.555 610.647L483.024 612.09L486.226 617.586L488.23 616.995C488.343 616.963 488.45 616.917 488.55 616.857C488.822 616.671 489.039 616.416 489.176 616.118C489.313 615.821 489.366 615.492 489.33 615.167C489.275 614.258 489.003 613.374 488.536 612.589C488.069 611.803 487.421 611.138 486.643 610.647Z" fill="white"/>
<path d="M487.103 616.005C487.057 615.221 486.826 614.457 486.427 613.777C486.028 613.097 485.473 612.519 484.806 612.089C484.587 611.9 484.313 611.782 484.023 611.754C483.733 611.726 483.442 611.789 483.19 611.933C482.937 612.077 482.737 612.296 482.618 612.558C482.498 612.82 482.465 613.113 482.523 613.395C482.567 614.178 482.796 614.941 483.192 615.621C483.589 616.301 484.141 616.88 484.806 617.311C485.024 617.506 485.299 617.628 485.592 617.66C485.885 617.691 486.181 617.629 486.436 617.484C486.692 617.339 486.894 617.118 487.013 616.852C487.133 616.586 487.164 616.29 487.103 616.005Z" fill="#1D0F44"/>
<path d="M490.597 608.215C490.82 608.114 491.067 608.074 491.311 608.098C491.556 608.123 491.789 608.21 491.989 608.352C492.562 608.724 493.04 609.224 493.383 609.811C493.727 610.398 493.926 611.056 493.965 611.732C493.994 611.976 493.957 612.223 493.857 612.448C493.756 612.673 493.597 612.867 493.394 613.01L494.118 612.639C494.318 612.487 494.474 612.287 494.574 612.059C494.674 611.831 494.713 611.581 494.689 611.334C494.65 610.654 494.45 609.992 494.104 609.402C493.758 608.813 493.277 608.312 492.698 607.94C492.497 607.803 492.266 607.716 492.023 607.688C491.781 607.659 491.535 607.689 491.306 607.775L490.597 608.215Z" fill="#1D0F44"/>
<path d="M495.552 605.11C495.794 605.002 496.06 604.959 496.324 604.985C496.588 605.012 496.841 605.107 497.055 605.261C497.684 605.666 498.207 606.212 498.582 606.854C498.957 607.496 499.173 608.217 499.213 608.957C499.241 609.219 499.199 609.483 499.092 609.724C498.984 609.965 498.815 610.174 498.6 610.331L499.38 609.919C499.592 609.759 499.76 609.55 499.87 609.31C499.979 609.07 500.026 608.807 500.006 608.545C499.963 607.807 499.746 607.09 499.371 606.45C498.996 605.811 498.475 605.267 497.849 604.862C497.629 604.704 497.371 604.604 497.101 604.57C496.831 604.536 496.557 604.571 496.304 604.67L495.552 605.11Z" fill="#1D0F44"/>
<path d="M500.48 602.004C500.742 601.889 501.031 601.843 501.316 601.872C501.602 601.901 501.875 602.004 502.108 602.169C502.789 602.608 503.355 603.198 503.761 603.893C504.167 604.588 504.402 605.367 504.447 606.168C504.479 606.453 504.434 606.742 504.316 607.005C504.199 607.268 504.014 607.496 503.779 607.665L504.628 607.226C504.863 607.047 505.048 606.811 505.165 606.542C505.282 606.273 505.327 605.978 505.296 605.687C505.251 604.886 505.016 604.107 504.61 603.412C504.204 602.717 503.638 602.127 502.957 601.688C502.718 601.52 502.44 601.413 502.147 601.38C501.855 601.346 501.559 601.386 501.287 601.496L500.48 602.004Z" fill="#1D0F44"/>
<path d="M505.421 598.899C505.704 598.776 506.015 598.728 506.322 598.759C506.63 598.791 506.924 598.9 507.175 599.078C507.908 599.549 508.518 600.184 508.955 600.931C509.393 601.678 509.646 602.517 509.695 603.378C509.729 603.689 509.678 604.003 509.549 604.288C509.419 604.573 509.215 604.818 508.957 605L509.89 604.519C510.141 604.327 510.339 604.075 510.463 603.786C510.588 603.497 510.635 603.182 510.6 602.87C510.553 602.009 510.302 601.172 509.866 600.425C509.431 599.678 508.824 599.042 508.094 598.569C507.836 598.384 507.535 598.267 507.218 598.228C506.901 598.19 506.58 598.232 506.284 598.35L505.421 598.899Z" fill="#1D0F44"/>
<g opacity="0.1">
<path d="M490.597 608.215C490.82 608.114 491.067 608.074 491.311 608.098C491.556 608.123 491.789 608.21 491.989 608.352C492.562 608.724 493.04 609.224 493.383 609.811C493.727 610.398 493.926 611.056 493.965 611.732C493.994 611.976 493.957 612.223 493.857 612.448C493.756 612.673 493.597 612.867 493.394 613.01L494.118 612.639C494.318 612.487 494.474 612.287 494.574 612.059C494.674 611.831 494.713 611.581 494.689 611.334C494.65 610.654 494.45 609.992 494.104 609.402C493.758 608.813 493.277 608.312 492.698 607.94C492.497 607.803 492.266 607.716 492.023 607.688C491.781 607.659 491.535 607.689 491.306 607.775L490.597 608.215Z" fill="#868393"/>
<path d="M495.552 605.11C495.794 605.002 496.06 604.959 496.324 604.985C496.589 605.012 496.841 605.107 497.055 605.261C497.684 605.666 498.207 606.212 498.582 606.854C498.957 607.496 499.173 608.217 499.213 608.957C499.241 609.219 499.199 609.483 499.092 609.724C498.984 609.965 498.815 610.174 498.601 610.331L499.38 609.919C499.592 609.759 499.761 609.55 499.87 609.31C499.979 609.07 500.026 608.807 500.007 608.545C499.963 607.807 499.746 607.09 499.371 606.45C498.996 605.811 498.475 605.267 497.849 604.862C497.629 604.704 497.372 604.604 497.101 604.57C496.831 604.536 496.557 604.571 496.304 604.67L495.552 605.11Z" fill="#868393"/>
<path d="M500.48 602.004C500.742 601.889 501.031 601.843 501.316 601.872C501.602 601.901 501.875 602.004 502.108 602.169C502.789 602.608 503.355 603.198 503.761 603.893C504.167 604.588 504.402 605.367 504.447 606.168C504.479 606.453 504.434 606.742 504.316 607.005C504.199 607.268 504.014 607.496 503.779 607.665L504.628 607.226C504.863 607.047 505.048 606.811 505.165 606.542C505.282 606.273 505.327 605.978 505.296 605.687C505.251 604.886 505.016 604.107 504.61 603.412C504.204 602.717 503.638 602.127 502.957 601.688C502.718 601.52 502.44 601.413 502.147 601.38C501.855 601.346 501.559 601.386 501.287 601.496L500.48 602.004Z" fill="#868393"/>
<path d="M505.421 598.899C505.704 598.776 506.015 598.728 506.322 598.759C506.63 598.791 506.924 598.9 507.175 599.078C507.908 599.549 508.518 600.184 508.955 600.931C509.393 601.678 509.646 602.517 509.695 603.378C509.729 603.689 509.678 604.003 509.549 604.288C509.419 604.573 509.215 604.818 508.957 605L509.89 604.519C510.141 604.327 510.339 604.075 510.463 603.786C510.588 603.497 510.635 603.182 510.6 602.87C510.553 602.009 510.302 601.172 509.866 600.425C509.431 599.678 508.824 599.042 508.094 598.569C507.836 598.384 507.535 598.267 507.218 598.228C506.901 598.19 506.58 598.232 506.284 598.35L505.421 598.899Z" fill="#868393"/>
</g>
<path d="M328.665 260.785C328.15 260.991 327.635 261.184 327.148 261.431C326.661 261.678 326.354 261.843 325.979 262.049C325.603 262.255 325.032 262.585 324.587 262.874C324.141 263.162 323.849 263.382 323.487 263.657C323.125 263.932 322.638 264.316 322.22 264.674C321.803 265.031 321.552 265.264 321.232 265.58C320.912 265.896 320.452 266.364 320.077 266.776C319.701 267.188 319.478 267.477 319.186 267.834C318.893 268.191 318.49 268.741 318.156 269.208C317.821 269.675 317.641 269.95 317.404 270.335L317.237 270.609C316.972 271.049 316.722 271.502 316.485 271.983C316.402 272.121 316.332 272.258 316.262 272.396C316.068 272.767 315.873 273.151 315.706 273.536C315.539 273.921 315.399 274.223 315.26 274.566C315.121 274.91 315.065 274.992 314.982 275.226L314.731 275.844C314.564 276.284 314.411 276.737 314.272 277.218C314.133 277.699 314.007 278.015 313.896 278.414C313.687 279.142 313.478 279.884 313.311 280.653C313.181 281.166 313.07 281.688 312.977 282.22C312.977 282.508 312.866 282.783 312.81 283.085C312.755 283.388 312.699 283.704 312.657 284.033C312.532 284.803 312.448 285.613 312.365 286.424C312.365 286.809 312.267 287.18 312.24 287.564C312.24 287.716 312.24 287.853 312.24 288.004C312.142 289.378 312.086 290.67 312.086 292.057C312.127 297.652 312.804 303.224 314.105 308.669C319.283 331.134 334.08 354.355 352.176 367.641C354.296 369.225 356.508 370.684 358.802 372.011L359.749 372.519C360.277 372.807 360.806 373.11 361.335 373.371L362.546 373.962L363.855 374.58L365.177 375.143L366.333 375.61C366.792 375.789 367.237 375.954 367.725 376.105L368.824 376.476L370.147 376.888L371.316 377.19L372.513 377.493L374.1 377.795L374.838 377.932L375.464 378.001L384.958 372.615C379.075 371.683 373.427 369.645 368.323 366.611C342.432 351.881 321.552 316.02 321.552 286.616C321.552 274.676 325.004 265.635 330.823 260.057L329.904 260.318C329.473 260.455 329.069 260.62 328.665 260.785Z" fill="#190C43"/>
<path d="M337.045 250.837C335.599 251.336 334.201 251.961 332.869 252.706L323.417 258.092C327.578 255.769 332.265 254.517 337.045 254.451V250.837Z" fill="#868393"/>
<path d="M374.852 377.932L374.114 377.795L372.527 377.493L371.33 377.19L370.55 376.998L370.161 376.888L368.88 376.476L367.78 376.105L366.388 375.61L365.233 375.143L363.911 374.58L362.602 373.962L361.391 373.371C360.862 373.11 360.319 372.807 359.776 372.505C359.484 372.34 359.178 372.203 358.872 372.024C356.661 370.74 354.523 369.336 352.468 367.82C346.575 363.486 341.233 358.467 336.558 352.871C332.519 348.068 328.897 342.938 325.728 337.537C320.494 328.68 316.597 319.117 314.161 309.15L314.077 308.683C312.778 303.247 312.101 297.684 312.059 292.099C312.059 290.807 312.059 289.557 312.198 288.32C312.198 288.141 312.198 287.963 312.198 287.784C312.191 287.661 312.191 287.537 312.198 287.413C312.281 286.383 312.393 285.366 312.546 284.377L312.629 283.745C312.629 283.415 312.755 283.113 312.81 282.783C312.866 282.453 312.991 281.876 313.089 281.409C313.186 280.942 313.284 280.447 313.395 280.035C313.506 279.623 313.673 279.046 313.826 278.551C313.826 278.359 313.924 278.166 313.98 277.988C314.035 277.809 313.98 277.836 314.049 277.768C314.174 277.369 314.3 276.957 314.439 276.559C314.578 276.16 314.801 275.624 314.996 275.185C315.191 274.745 315.469 273.989 315.747 273.412C316.026 272.835 316.151 272.615 316.36 272.217L316.61 271.75C316.833 271.337 317.07 270.939 317.306 270.541C317.543 270.142 317.766 269.84 318.002 269.496L318.323 269.043C318.49 268.782 318.671 268.535 318.852 268.301L319.283 267.765C319.408 267.614 319.52 267.449 319.659 267.298L320.425 266.432L320.689 266.171C321.009 265.841 321.329 265.512 321.677 265.196C321.83 265.058 322.011 264.935 322.165 264.811C322.582 264.454 323 264.11 323.431 263.794C323.863 263.478 324.155 263.258 324.531 263.011C324.907 262.764 325.45 262.448 325.923 262.187C326.396 261.926 326.689 261.761 327.092 261.568C327.496 261.376 328.094 261.129 328.61 260.923C329.125 260.716 329.417 260.593 329.834 260.455C330.252 260.318 330.461 260.263 330.781 260.167L331.491 259.988C331.909 259.892 332.326 259.768 332.758 259.686C333.189 259.604 333.983 259.494 334.595 259.425C335.208 259.356 335.416 259.301 335.848 259.274C336.279 259.246 336.6 259.274 336.989 259.274V254.657C332.209 254.723 327.523 255.975 323.362 258.298C322.777 258.642 322.206 258.999 321.636 259.384L321.343 259.576C319.716 260.72 318.218 262.033 316.875 263.492L316.416 263.987C316.012 264.44 315.622 264.907 315.232 265.361L314.898 265.841C314.254 266.699 313.654 267.589 313.103 268.507C312.908 268.851 312.699 269.194 312.504 269.551C312.309 269.909 312.017 270.458 311.78 270.925C311.544 271.392 311.335 271.873 311.112 272.299C310.889 272.725 310.694 273.261 310.5 273.756C310.193 274.525 309.915 275.322 309.65 276.133C309.539 276.517 309.414 276.916 309.302 277.314C309.108 278.001 308.927 278.688 308.746 279.417C308.662 279.774 308.579 280.117 308.509 280.475C308.277 281.519 308.082 282.591 307.924 283.69C307.924 283.965 307.855 284.239 307.827 284.5C307.702 285.435 307.604 286.369 307.535 287.248C307.535 287.592 307.535 287.935 307.465 288.279C307.381 289.502 307.34 290.738 307.34 292.002C307.453 300.153 308.771 308.244 311.251 316.02C312.525 320.138 314.04 324.18 315.789 328.125C316.717 330.122 317.645 332.096 318.573 334.047C321.585 339.913 325.082 345.524 329.027 350.823C336.864 361.334 346.316 370.252 356.477 376.036C360.512 378.407 364.84 380.254 369.353 381.532L375.422 378.097L374.852 377.932Z" fill="#455A64"/>
<path d="M422.486 331.285C422.486 304.41 403.374 271.736 379.793 258.298C367.961 251.566 357.271 250.947 349.545 255.385C347.193 256.759 331.449 265.704 329.041 267.037C321.274 271.42 316.513 280.873 316.513 294.352C316.513 321.227 335.625 353.901 359.206 367.339C371.01 374.072 381.7 374.69 389.426 370.266C391.792 368.892 407.661 359.906 410.041 358.545C417.711 354.149 422.486 344.709 422.486 331.285Z" fill="#1D0F44"/>
<path opacity="0.3" d="M422.486 331.285C422.486 304.41 403.374 271.736 379.793 258.298C367.961 251.566 357.271 250.947 349.545 255.385C347.193 256.759 331.449 265.704 329.041 267.037C321.274 271.42 316.513 280.873 316.513 294.352C316.513 321.227 335.625 353.901 359.206 367.339C371.01 374.072 381.7 374.69 389.426 370.266C391.792 368.892 407.661 359.906 410.041 358.545C417.711 354.149 422.486 344.709 422.486 331.285Z" fill="#868393"/>
<path d="M359.136 270.018C382.703 283.456 401.815 316.144 401.815 343.005C401.815 369.867 382.8 380.777 359.136 367.339C335.472 353.901 316.443 321.227 316.443 294.352C316.443 267.477 335.583 256.581 359.136 270.018Z" fill="#1D0F44"/>
<path d="M377.232 378.207H377.441C378.165 378.207 378.833 378.29 379.584 378.303H379.932C380.956 378.307 381.979 378.248 382.995 378.125H383.106C383.959 378.014 384.804 377.858 385.64 377.658C385.988 377.589 386.35 377.506 386.698 377.41C387.352 377.232 388.006 377.026 388.646 376.792C389.287 376.558 389.607 376.407 390.038 376.187C390.275 376.091 390.484 375.981 390.707 375.871C392.754 374.849 394.632 373.524 396.275 371.942C392.569 372.951 388.689 373.18 384.888 372.615L375.395 378.001C376.063 378.084 376.647 378.166 377.232 378.207Z" fill="#190C43"/>
<path d="M370.676 262.049C370.918 265.652 372.493 269.041 375.102 271.571C395.439 290.024 410.306 319.977 410.306 345.355C410.306 363.821 402.455 376.957 389.621 381.367C391.261 380.84 392.834 380.13 394.312 379.251L403.764 373.865C413.814 368.15 419.799 356.003 419.799 339.941C419.799 314.577 404.919 284.61 384.582 266.171C381.98 263.636 380.406 260.25 380.155 256.649V219.263L370.676 224.677V262.049Z" fill="#868393"/>
<path d="M375.102 271.571C372.493 269.041 370.918 265.652 370.676 262.049V224.676L365.999 222.011V264.289C366.011 264.852 366.076 265.414 366.193 265.965L366.277 266.377C366.41 266.965 366.582 267.543 366.792 268.109C367.131 268.985 367.546 269.83 368.031 270.637L368.421 271.2C368.783 271.769 369.192 272.307 369.646 272.808C369.921 273.121 370.219 273.415 370.536 273.687C371.664 274.663 372.764 275.679 373.849 276.71L374.712 277.548C375.659 278.482 376.592 279.43 377.496 280.42L377.914 280.846C378.944 281.959 379.946 283.099 380.949 284.281L381.7 285.187C382.522 286.177 383.329 287.193 384.108 288.21L384.679 288.952C385.612 290.175 386.517 291.439 387.394 292.703L388.006 293.624C388.73 294.682 389.398 295.767 390.108 296.853L390.693 297.787C391.514 299.161 392.293 300.453 393.059 301.813L393.491 302.623C394.117 303.764 394.729 304.918 395.314 306.086L395.857 307.171C396.544 308.555 397.198 309.956 397.82 311.376C397.889 311.568 397.973 311.747 398.042 311.939C398.585 313.19 399.1 314.454 399.601 315.731C399.741 316.116 399.894 316.487 400.033 316.872C400.576 318.246 401.091 319.771 401.55 321.214C402.01 322.656 402.441 324.127 402.831 325.583L403.081 326.517C403.443 327.891 403.777 329.348 404.07 330.763L404.195 331.477C404.455 332.778 404.678 334.07 404.863 335.352C404.863 335.586 404.933 335.833 404.975 336.067C405.155 337.441 405.309 338.815 405.406 340.189C405.406 340.491 405.406 340.793 405.476 341.095C405.559 342.469 405.629 343.926 405.629 345.314C405.629 353.558 403.972 360.428 401.007 365.8C400.371 366.95 399.65 368.052 398.85 369.098C398.46 369.606 398.056 370.101 397.639 370.568C397.221 371.035 396.79 371.475 396.344 371.942C394.702 373.524 392.824 374.849 390.776 375.871C390.567 375.981 390.345 376.091 390.108 376.187C389.649 376.407 389.175 376.613 388.716 376.792C388.257 376.971 387.519 377.204 386.92 377.369H386.767C386.419 377.465 386.071 377.548 385.709 377.616L385.083 377.781C384.456 377.905 383.816 378.001 383.176 378.084H383.064C382.048 378.206 381.026 378.266 380.002 378.262H379.209C378.652 378.262 378.081 378.262 377.51 378.166H377.232C376.647 378.166 376.063 378.056 375.464 377.974L369.395 381.409C372.762 382.367 376.247 382.867 379.752 382.893C380.225 382.893 380.684 382.893 381.144 382.824C381.603 382.755 382.41 382.824 382.995 382.728L384.067 382.577C384.749 382.48 385.459 382.384 386.057 382.26C386.377 382.26 386.698 382.123 387.018 382.041L387.408 381.931C388.006 381.78 388.605 381.642 389.189 381.45L389.607 381.326C402.441 376.957 410.292 363.78 410.292 345.314C410.306 319.977 395.439 290.024 375.102 271.571Z" fill="#455A64"/>
<path d="M349.392 260.016L349.587 259.933C349.7 259.892 349.808 259.837 349.907 259.768L359.401 254.355C360.011 253.971 360.506 253.431 360.832 252.793C361.158 252.154 361.303 251.441 361.252 250.728V208.45L351.772 213.863V256.141C351.84 256.952 351.646 257.764 351.219 258.459C350.791 259.155 350.152 259.7 349.392 260.016Z" fill="#868393"/>
<path d="M337.95 254.437C340.229 254.446 342.502 254.658 344.743 255.069C345.019 255.144 345.308 255.152 345.588 255.094C345.868 255.037 346.13 254.914 346.353 254.737C346.576 254.56 346.753 254.334 346.87 254.076C346.987 253.819 347.04 253.538 347.026 253.256V249.051C343.621 249.091 340.247 249.695 337.045 250.837V254.492C337.351 254.479 337.643 254.437 337.95 254.437Z" fill="#868393"/>
<path d="M339.147 259.081C340.274 259.123 341.399 259.224 342.515 259.384C343.601 259.549 344.715 259.768 345.828 260.043H346.037H346.149C346.506 260.128 346.869 260.188 347.234 260.222H347.332C347.633 260.25 347.936 260.25 348.237 260.222H348.404C348.687 260.176 348.967 260.107 349.239 260.016C349.999 259.7 350.638 259.155 351.065 258.459C351.493 257.764 351.687 256.952 351.619 256.141V213.863L346.942 211.115V253.187C346.957 253.469 346.903 253.75 346.786 254.008C346.669 254.265 346.492 254.492 346.269 254.669C346.047 254.846 345.785 254.968 345.505 255.026C345.225 255.083 344.935 255.075 344.659 255.001C342.419 254.589 340.145 254.378 337.866 254.369C337.56 254.369 337.268 254.369 336.961 254.369V258.985C337.296 258.985 337.616 258.985 337.95 258.985C338.284 258.985 338.771 259.068 339.147 259.081Z" fill="#455A64"/>
<path d="M418.115 356.842C418.115 317.133 389.871 268.906 355.03 248.996C337.63 239.076 321.886 238.142 310.486 244.627L291.429 255.482C280.043 261.994 272.985 275.913 272.985 295.753C272.985 335.462 301.229 383.689 336.057 403.599C353.457 413.505 369.2 414.453 380.601 407.968L399.643 397.086C411.058 390.614 418.115 376.682 418.115 356.842Z" fill="#1D0F44"/>
<path opacity="0.1" d="M380.664 407.955C405.298 393.917 405.297 348.393 380.662 306.274C356.026 264.156 316.085 241.393 291.451 255.432C266.817 269.47 266.818 314.994 291.454 357.112C316.09 399.231 356.03 421.994 380.664 407.955Z" fill="#868393"/>
<path d="M399.17 367.655C399.17 327.946 370.926 279.719 336.084 259.81C318.657 249.876 302.885 248.955 291.471 255.482L282.033 260.854C270.591 267.353 263.52 281.299 263.52 301.167C263.52 340.876 291.763 389.103 326.591 409.012C344.019 418.933 359.79 419.867 371.205 413.354L380.698 407.941C392.099 401.442 399.17 387.468 399.17 367.655Z" fill="#F0F0F0"/>
<path d="M326.591 265.182C361.391 285.036 389.677 333.319 389.677 373.027C389.677 412.736 361.433 428.825 326.591 408.971C291.749 389.117 263.52 340.834 263.52 301.126C263.52 261.417 291.763 245.369 326.591 265.182Z" fill="#E0E0E0"/>
<path d="M394.312 373.068C394.312 331.958 364.968 281.794 328.888 261.239C318.267 255.179 308.008 252.115 298.375 252.115C291.789 252.025 285.3 253.681 279.583 256.91C276.437 258.724 263.714 265.91 260.485 267.765C247.539 275.253 239.828 290.999 239.828 311.994C239.828 353.104 269.171 403.269 305.252 423.824C315.873 429.883 326.132 432.947 335.764 432.947C342.394 433.038 348.926 431.357 354.668 428.083C357.758 426.283 370.328 419.194 373.529 417.366C386.558 409.905 394.312 394.132 394.312 373.068Z" fill="#455A64"/>
<path d="M335.764 432.947C326.146 432.947 315.873 429.883 305.252 423.824C269.185 403.214 239.828 353.104 239.828 311.994C239.828 282.178 255.362 262.929 279.402 262.929C289.035 262.929 299.294 265.993 309.915 272.052C345.982 292.662 375.339 342.772 375.339 383.882C375.339 413.684 359.804 432.947 335.764 432.947Z" fill="#868393"/>
<path d="M321.663 390.395C316.241 390.233 310.959 388.659 306.351 385.833C288.339 375.569 273.681 350.521 273.681 329.98C273.681 315.099 281.449 305.481 293.448 305.481C298.844 305.654 304.1 307.222 308.69 310.029C326.702 320.307 341.36 345.355 341.36 365.896C341.43 380.777 333.662 390.395 321.663 390.395Z" fill="#190C43"/>
<path d="M241.206 460.29C241.206 419.18 211.862 369.015 175.782 348.446C165.161 342.401 154.902 339.337 145.283 339.337C138.697 339.243 132.206 340.9 126.491 344.132C123.345 345.946 110.608 353.132 107.393 354.987C94.4332 362.475 86.7216 378.221 86.7216 399.202C86.7216 440.312 116.065 490.491 152.146 511.046C162.767 517.105 173.026 520.169 182.644 520.169C189.285 520.247 195.822 518.547 201.562 515.25C204.666 513.45 217.235 506.36 220.423 504.533C233.452 497.127 241.206 481.353 241.206 460.29Z" fill="#455A64"/>
<path d="M182.658 520.169C173.039 520.169 162.78 517.105 152.159 511.046C116.079 490.436 86.7355 440.312 86.7355 399.202C86.7355 369.4 102.27 350.15 126.324 350.15C135.943 350.15 146.202 353.214 156.823 359.26C192.889 379.87 222.247 429.993 222.247 471.103C222.233 500.905 206.698 520.169 182.658 520.169Z" fill="#868393"/>
<path d="M217.57 471.103C217.57 431.395 189.326 383.167 154.484 363.258C137.056 353.324 121.285 352.39 109.94 358.916L100.502 364.302C89.0741 370.801 81.9888 384.734 81.9888 404.602C81.9888 444.31 110.233 492.538 145.074 512.447C162.502 522.381 178.26 523.302 189.618 516.803L199.112 511.389C210.512 504.876 217.57 490.944 217.57 471.103Z" fill="#F0F0F0"/>
<path d="M145.005 368.658C179.805 388.512 208.09 436.795 208.09 476.503C208.09 516.212 179.846 532.301 145.005 512.502C110.163 492.703 81.9192 444.365 81.9192 404.657C81.9192 364.948 110.163 348.804 145.005 368.658Z" fill="#E0E0E0"/>
<path d="M208.09 476.503C208.09 436.795 179.846 388.567 145.005 368.658C127.605 358.738 111.861 357.803 100.461 364.289L81.4041 375.102C70.0037 381.615 62.9462 395.547 62.9462 415.374C62.9462 455.083 91.1899 503.31 126.032 523.219C143.418 533.139 159.161 534.074 170.576 527.589L189.604 516.748C201.019 510.29 208.09 496.357 208.09 476.503Z" fill="#1D0F44"/>
<path opacity="0.1" d="M126.032 379.471C160.832 399.326 189.103 447.608 189.103 487.317C189.103 527.025 160.873 543.115 126.032 523.26C91.1899 503.406 62.9462 455.124 62.9462 415.415C62.9462 375.706 91.1899 359.617 126.032 379.471Z" fill="#868393"/>
<path d="M80.736 402.074C80.221 402.266 79.7059 402.472 79.2048 402.706C78.7037 402.939 78.4253 403.118 78.0494 403.338C77.6736 403.557 77.1029 403.874 76.6574 404.162C76.212 404.451 75.9197 404.67 75.5578 404.945C75.1958 405.22 74.7086 405.591 74.291 405.948L73.2888 406.869C72.8991 407.254 72.5232 407.652 72.1474 408.064C71.7715 408.476 71.5349 408.765 71.2426 409.122C70.9502 409.479 70.5605 410.029 70.2264 410.496C69.8923 410.963 69.7114 411.252 69.4747 411.637L69.3077 411.911C69.0432 412.351 68.7926 412.791 68.5421 413.285L68.3333 413.698C68.1384 414.069 67.9435 414.44 67.7626 414.824C67.5816 415.209 67.4702 415.511 67.331 415.855C67.1918 416.198 67.1362 416.294 67.0526 416.514L66.8021 417.146C66.635 417.586 66.4819 418.039 66.3288 418.52C66.1757 419.001 66.0782 419.317 65.9669 419.716C65.7442 420.439 65.5493 421.181 65.3822 421.942C65.257 422.464 65.1456 422.986 65.0482 423.522L64.8811 424.374C64.8811 424.69 64.7698 425.006 64.728 425.322C64.6027 426.105 64.5192 426.902 64.4357 427.712C64.4357 428.097 64.3382 428.468 64.3104 428.867C64.3104 429.004 64.3104 429.155 64.3104 429.306C64.213 430.612 64.1573 431.958 64.1573 433.36C64.1976 438.954 64.8746 444.526 66.1757 449.971C71.3818 472.477 86.1927 495.698 104.316 508.985C106.443 510.559 108.655 512.017 110.942 513.354L111.889 513.862L113.476 514.714L114.687 515.305L115.995 515.909C116.441 516.116 116.872 516.294 117.387 516.473C117.902 516.651 118.153 516.803 118.543 516.94L119.935 517.448L121.02 517.819L122.412 518.218L123.582 518.534L124.779 518.822C125.308 518.946 125.837 519.042 126.366 519.138L127.09 519.276L127.716 519.344L137.001 513.876C131.092 512.959 125.419 510.92 120.297 507.872C94.4472 493.142 73.4976 457.35 73.4976 427.877C73.4976 415.951 76.9498 406.91 82.7683 401.332C82.4621 401.414 82.1419 401.483 81.8496 401.579L80.736 402.074Z" fill="#190C43"/>
<path d="M89.088 392.126C87.6449 392.625 86.2477 393.246 84.912 393.981L75.4603 399.367C79.6264 397.063 84.3127 395.829 89.088 395.781V392.126Z" fill="#868393"/>
<path d="M126.867 519.221L126.143 519.083C125.614 518.987 125.099 518.891 124.556 518.767C124.013 518.644 123.763 518.575 123.359 518.479L122.566 518.287L122.19 518.163L120.798 517.764L119.684 517.393L118.292 516.885C117.902 516.748 117.527 516.583 117.137 516.418L115.745 515.868L114.436 515.25L113.225 514.659L111.611 513.794L110.706 513.313C108.498 512.023 106.361 510.62 104.303 509.108C98.4095 504.775 93.0674 499.755 88.392 494.159C84.3714 489.355 80.7674 484.226 77.6179 478.825C72.3628 469.945 68.4516 460.354 66.0086 450.356C66.0086 450.205 66.0086 450.054 65.9112 449.889C64.6644 444.451 64.0341 438.894 64.032 433.318C64.032 432.027 64.032 430.776 64.1712 429.54C64.1712 429.361 64.1712 429.169 64.1712 428.99C64.1648 428.867 64.1648 428.743 64.1712 428.619C64.2547 427.589 64.3661 426.586 64.5192 425.596L64.6027 424.964C64.6027 424.635 64.728 424.319 64.7837 424.003C64.8393 423.687 64.9646 423.096 65.0481 422.629C65.1317 422.161 65.243 421.667 65.3683 421.255C65.4936 420.842 65.6467 420.252 65.7859 419.757L65.9529 419.207C65.9593 419.134 65.9593 419.061 65.9529 418.988C66.0921 418.575 66.2174 418.177 66.3566 417.778C66.4958 417.38 66.7185 416.83 66.8995 416.404C67.0805 415.978 67.3867 415.209 67.6651 414.646C67.9435 414.082 68.0688 413.849 68.2776 413.45L68.5281 412.969C68.7509 412.571 68.9875 412.159 69.2241 411.774C69.4608 411.389 69.6835 411.073 69.9201 410.73L70.2264 410.263L70.992 409.452L71.4096 408.93C71.5488 408.779 71.6601 408.614 71.7993 408.463C71.9385 408.312 72.3005 407.886 72.5649 407.597L72.8155 407.336L73.8038 406.36C73.9569 406.223 74.1379 406.113 74.291 405.976C74.7086 405.619 75.1262 405.289 75.5577 404.973C75.9893 404.657 76.2816 404.437 76.6574 404.19C77.0333 403.942 77.5761 403.626 78.0494 403.365C78.5227 403.104 78.815 402.925 79.2048 402.733C79.5945 402.541 80.2209 402.293 80.736 402.101L81.9609 401.62L82.9075 401.345L83.52 401.208C83.9376 401.098 84.3552 400.988 84.7867 400.906C85.2182 400.823 85.9977 400.713 86.6241 400.645C87.0417 400.645 87.4454 400.521 87.8769 400.48C88.3085 400.439 88.6286 400.48 89.0184 400.48V395.863C84.2382 395.929 79.5517 397.181 75.3907 399.504C74.7921 399.834 74.2214 400.205 73.6646 400.576L73.3723 400.782C71.7407 401.925 70.2381 403.238 68.8901 404.698L68.4446 405.193C68.0409 405.646 67.6512 406.113 67.2614 406.567C67.1501 406.718 67.0387 406.883 66.9134 407.034C66.287 407.886 65.6885 408.779 65.1317 409.782L64.5331 410.812C64.2825 411.266 64.0459 411.733 63.8093 412.186C63.5726 412.64 63.3638 413.134 63.1411 413.629C62.9184 414.124 62.7235 414.577 62.5286 415.085C62.2224 415.855 61.944 416.638 61.6795 417.449C61.5542 417.833 61.4429 418.232 61.3315 418.63C61.1366 419.331 60.9417 420.004 60.7747 420.746L60.5241 421.804C60.3014 422.848 60.1065 423.92 59.9534 425.019C59.9534 425.28 59.9534 425.569 59.856 425.83C59.7307 426.751 59.6333 427.685 59.5637 428.578L59.4801 429.609C59.4105 430.831 59.3549 432.068 59.3549 433.332C59.4535 441.468 60.7572 449.545 63.2246 457.308C64.4982 461.422 66.0134 465.46 67.7625 469.4C68.6441 471.387 69.5721 473.361 70.5465 475.322C73.5521 481.191 77.0489 486.803 81.0005 492.098C88.8374 502.609 98.2891 511.526 108.451 517.325C112.491 519.684 116.817 521.531 121.327 522.821L127.396 519.372L126.867 519.221Z" fill="#455A64"/>
<path d="M168.724 475.693C168.724 448.831 149.612 416.143 126.032 402.706C114.2 395.973 103.509 395.355 95.7835 399.807L75.2793 411.444C67.512 415.827 62.7513 425.294 62.7513 438.759C62.7513 465.635 81.8635 498.309 105.444 511.746C117.248 518.479 127.939 519.111 135.664 514.673L156.28 502.966C163.95 498.556 168.724 489.144 168.724 475.693Z" fill="#1D0F44"/>
<path opacity="0.3" d="M168.724 475.693C168.724 448.831 149.612 416.143 126.032 402.706C114.2 395.973 103.509 395.355 95.7835 399.807L75.2793 411.444C67.512 415.827 62.7513 425.294 62.7513 438.759C62.7513 465.635 81.8635 498.309 105.444 511.746C117.248 518.479 127.939 519.111 135.664 514.673L156.28 502.966C163.95 498.556 168.724 489.144 168.724 475.693Z" fill="#868393"/>
<path d="M135.581 514.693C152.253 505.192 152.253 474.386 135.582 445.884C118.911 417.382 91.8816 401.979 75.2104 411.48C58.5392 420.98 58.539 451.787 75.21 480.289C91.881 508.79 118.91 524.194 135.581 514.693Z" fill="#1D0F44"/>
<path d="M127.573 506.197C140.569 498.825 140.615 474.835 127.676 452.613C114.738 430.39 93.714 418.352 80.7184 425.724C67.7229 433.097 67.6767 457.087 80.6153 479.309C93.5539 501.531 114.578 513.57 127.573 506.197Z" fill="#190C43"/>
<path d="M121.856 445.629L102.256 464.948L78.8568 424.923C84.8285 421.488 93.1248 421.983 102.256 427.19C110.032 431.906 116.711 438.19 121.856 445.629Z" fill="#455A64"/>
<path d="M135.4 483.854C135.4 494.269 131.683 501.606 125.656 504.986L102.256 464.948L121.856 445.629C130.055 457.185 135.4 471.282 135.4 483.854Z" fill="#868393"/>
<path d="M125.684 504.986C119.712 508.38 111.36 507.94 102.256 502.733C94.4675 498.033 87.793 491.735 82.6848 484.266L102.256 464.948L125.684 504.986Z" fill="#455A64"/>
<path d="M102.256 464.948L82.6848 484.266C74.4581 472.725 69.1406 458.586 69.1406 446.097C69.1406 435.654 72.8573 428.344 78.8846 424.923L102.256 464.948Z" fill="#868393"/>
<path d="M129.261 519.496H129.456C130.18 519.496 130.848 519.578 131.6 519.578H131.948C132.992 519.578 134.008 519.509 135.01 519.399H135.121C135.974 519.297 136.82 519.146 137.655 518.946C138.003 518.864 138.365 518.795 138.713 518.699C139.367 518.52 140.021 518.3 140.648 518.067C141.274 517.833 141.622 517.682 142.04 517.476L142.708 517.146C144.758 516.133 146.636 514.812 148.276 513.23C144.569 514.234 140.69 514.459 136.889 513.89L127.382 519.29C128.064 519.372 128.677 519.454 129.261 519.496Z" fill="#190C43"/>
<path d="M122.705 403.338C122.95 406.939 124.525 410.328 127.131 412.86C147.455 431.299 162.335 461.266 162.335 486.63C162.335 505.11 154.484 518.232 141.65 522.642C143.291 522.123 144.865 521.417 146.341 520.54L155.793 515.154C165.843 509.438 171.828 497.292 171.828 481.23C171.828 455.866 156.948 425.899 136.611 407.46C134.027 404.918 132.472 401.532 132.24 397.938V360.551L122.76 365.965L122.705 403.338Z" fill="#868393"/>
<path d="M127.131 412.86C124.525 410.328 122.95 406.939 122.705 403.338V365.965L118.028 363.299V405.577C118.04 406.136 118.105 406.693 118.223 407.24L118.306 407.666C118.439 408.253 118.611 408.832 118.821 409.397C119.158 410.27 119.572 411.111 120.06 411.911C120.185 412.118 120.311 412.296 120.45 412.488C120.812 413.054 121.216 413.591 121.661 414.096C121.945 414.406 122.247 414.7 122.566 414.975C123.693 415.937 124.793 416.954 125.879 417.998L126.742 418.836C127.688 419.771 128.621 420.719 129.526 421.694L129.943 422.134C130.973 423.247 131.976 424.387 132.964 425.555C133.228 425.858 133.479 426.174 133.729 426.476C134.551 427.465 135.358 428.468 136.138 429.499C136.333 429.746 136.527 429.98 136.708 430.227C137.641 431.463 138.532 432.714 139.492 433.992L140.105 434.912C140.829 435.97 141.497 437.042 142.207 438.127L142.791 439.075C143.613 440.449 144.392 441.741 145.158 443.088L145.589 443.912C146.216 445.052 146.828 446.206 147.413 447.374L147.956 448.446C148.638 449.82 149.348 451.194 149.905 452.664C149.988 452.843 150.072 453.035 150.141 453.214C150.689 454.478 151.204 455.742 151.686 457.006C151.839 457.391 151.993 457.776 152.132 458.16C152.661 459.603 153.19 461.046 153.649 462.502C154.108 463.959 154.526 465.415 154.93 466.871C155.013 467.174 155.097 467.49 155.166 467.806C155.547 469.216 155.881 470.632 156.169 472.051L156.294 472.766C156.558 474.057 156.767 475.349 156.962 476.641C156.962 476.874 156.962 477.108 157.059 477.341C157.254 478.715 157.393 480.089 157.505 481.463C157.505 481.766 157.505 482.068 157.505 482.37C157.588 483.744 157.658 485.187 157.658 486.575C157.658 494.819 156.001 501.757 153.037 507.075C152.401 508.225 151.679 509.327 150.879 510.372C150.489 510.881 150.085 511.375 149.668 511.842C149.25 512.31 148.819 512.749 148.373 513.216C146.734 514.798 144.855 516.119 142.805 517.132L142.137 517.462C141.664 517.668 141.191 517.874 140.745 518.053C140.3 518.232 139.562 518.479 138.963 518.644H138.81C138.462 518.74 138.1 518.809 137.752 518.891L137.126 519.042C136.5 519.166 135.859 519.276 135.219 519.345H135.024C134.007 519.46 132.985 519.52 131.962 519.523H131.168C130.611 519.523 130.041 519.523 129.47 519.427H129.261C128.677 519.427 128.078 519.303 127.493 519.221L121.424 522.67C124.791 523.629 128.276 524.128 131.781 524.154C132.254 524.154 132.713 524.154 133.173 524.154C133.632 524.154 134.439 524.153 135.024 524.057L136.096 523.906C136.778 523.81 137.488 523.714 138.073 523.59L139.047 523.37L139.437 523.26C140.035 523.109 140.634 522.958 141.218 522.78L141.636 522.642C154.47 518.287 162.321 505.11 162.321 486.63C162.335 461.266 147.455 431.299 127.131 412.86Z" fill="#455A64"/>
<path d="M101.338 401.304L101.616 401.208L101.936 401.043L111.36 395.712C111.971 395.328 112.465 394.788 112.791 394.15C113.117 393.511 113.262 392.798 113.211 392.085V349.738L103.732 355.151V397.416C103.801 398.231 103.607 399.046 103.177 399.745C102.746 400.444 102.102 400.99 101.338 401.304Z" fill="#868393"/>
<path d="M89.9789 395.712C92.2582 395.714 94.5323 395.926 96.7718 396.344C97.0475 396.415 97.3362 396.421 97.6148 396.362C97.8934 396.304 98.1541 396.181 98.376 396.005C98.598 395.828 98.775 395.603 98.8929 395.347C99.0107 395.091 99.0662 394.811 99.0547 394.53V390.326C95.6486 390.351 92.2723 390.955 89.0741 392.112V395.767C89.3803 395.712 89.6727 395.712 89.9789 395.712Z" fill="#868393"/>
<path d="M91.176 400.356C92.2757 400.356 93.4032 400.507 94.5447 400.672C95.6598 400.835 96.7657 401.055 97.8576 401.332C97.9224 401.324 97.9878 401.324 98.0525 401.332H98.1778C98.5382 401.423 98.9063 401.483 99.2775 401.51H99.3749C99.6761 401.531 99.9785 401.531 100.28 401.51H100.447C100.732 401.471 101.012 401.402 101.282 401.304C102.047 400.99 102.691 400.444 103.121 399.745C103.551 399.046 103.746 398.231 103.676 397.416V355.152L98.9991 352.404V394.489C99.0105 394.77 98.9551 395.05 98.8372 395.306C98.7193 395.562 98.5423 395.787 98.3204 395.963C98.0984 396.14 97.8377 396.262 97.5591 396.321C97.2806 396.38 96.9919 396.374 96.7162 396.303C94.4766 395.885 92.2025 395.673 89.9232 395.671C89.617 395.671 89.3247 395.671 89.0184 395.671V400.287H90.0068C90.48 400.37 90.8002 400.342 91.176 400.356Z" fill="#455A64"/>
<path d="M106.697 329.348C104.971 328.372 102.604 328.51 99.9873 330.007C97.214 331.779 94.9062 334.175 93.2534 336.998C91.6007 339.822 90.6502 342.992 90.48 346.248C90.48 349.257 91.5518 351.373 93.264 352.335L131.182 373.934L144.545 350.975L106.697 329.348Z" fill="#1D0F44"/>
<path opacity="0.3" d="M106.697 329.348C104.971 328.372 102.604 328.51 99.9873 330.007C97.214 331.779 94.9062 334.175 93.2534 336.998C91.6007 339.822 90.6502 342.992 90.48 346.248C90.48 349.257 91.5518 351.373 93.264 352.335L131.182 373.934L144.545 350.975L106.697 329.348Z" fill="#868393"/>
<path opacity="0.3" d="M91.6353 340.546C90.9161 342.365 90.525 344.295 90.48 346.248C90.48 349.257 91.5518 351.373 93.264 352.335L131.182 373.934L135.901 365.827L91.6353 340.546Z" fill="#868393"/>
<path d="M128.44 367.847C128.613 364.597 129.563 361.433 131.213 358.615C132.863 355.797 135.166 353.405 137.933 351.634C140.522 350.15 142.875 349.999 144.587 350.947C146.299 351.895 147.371 354.025 147.371 357.034C147.193 360.283 146.242 363.446 144.595 366.265C142.948 369.084 140.652 371.481 137.892 373.261C135.261 374.745 132.894 374.896 131.182 373.907C129.47 372.917 128.44 370.843 128.44 367.847Z" fill="#1D0F44"/>
<path opacity="0.2" d="M128.44 367.847C128.613 364.597 129.563 361.433 131.213 358.615C132.863 355.797 135.166 353.405 137.933 351.634C140.522 350.15 142.875 349.999 144.587 350.947C146.299 351.895 147.371 354.025 147.371 357.034C147.193 360.283 146.242 363.446 144.595 366.265C142.948 369.084 140.652 371.481 137.892 373.261C135.261 374.745 132.894 374.896 131.182 373.907C129.47 372.917 128.44 370.843 128.44 367.847Z" fill="#868393"/>
<path d="M132.546 365.484C132.648 363.64 133.188 361.845 134.124 360.245C135.06 358.646 136.365 357.287 137.933 356.278C138.448 355.827 139.093 355.548 139.778 355.48C140.463 355.412 141.152 355.559 141.747 355.9C142.342 356.241 142.813 356.759 143.093 357.379C143.373 357.999 143.448 358.691 143.306 359.356C143.204 361.197 142.665 362.988 141.731 364.585C140.798 366.182 139.497 367.539 137.933 368.548C137.417 368.993 136.774 369.268 136.092 369.335C135.41 369.401 134.724 369.255 134.13 368.917C133.536 368.579 133.064 368.067 132.78 367.451C132.496 366.836 132.414 366.148 132.546 365.484Z" fill="#868393"/>
<path d="M140.787 357.982C140.814 357.154 140.617 356.333 140.216 355.605C139.409 355.651 138.625 355.892 137.933 356.306C136.365 357.314 135.06 358.673 134.124 360.273C133.188 361.872 132.648 363.667 132.546 365.512C132.527 366.339 132.723 367.158 133.117 367.889C133.929 367.843 134.717 367.602 135.414 367.188C136.979 366.178 138.281 364.818 139.215 363.219C140.148 361.619 140.687 359.825 140.787 357.982Z" fill="#190C43"/>
<path d="M353.345 188.788C351.633 187.812 349.253 187.949 346.636 189.447C343.873 191.223 341.574 193.616 339.925 196.433C338.275 199.25 337.322 202.411 337.142 205.66C337.142 208.669 338.228 210.772 339.926 211.747L377.83 233.346L391.208 210.387L353.345 188.788Z" fill="#1D0F44"/>
<path opacity="0.3" d="M353.345 188.788C351.633 187.812 349.253 187.949 346.636 189.447C343.873 191.223 341.574 193.616 339.925 196.433C338.275 199.25 337.322 202.411 337.142 205.66C337.142 208.669 338.228 210.772 339.926 211.747L377.83 233.346L391.208 210.387L353.345 188.788Z" fill="#868393"/>
<path opacity="0.3" d="M338.256 199.972C337.551 201.79 337.165 203.714 337.115 205.66C337.115 208.669 338.2 210.772 339.899 211.747L377.803 233.346L382.535 225.226L338.256 199.972Z" fill="#868393"/>
<path d="M375.102 227.287C375.28 224.038 376.231 220.875 377.878 218.056C379.525 215.237 381.822 212.84 384.582 211.06C387.185 209.59 389.537 209.439 391.25 210.387C392.962 211.335 394.034 213.465 394.034 216.474C393.861 219.724 392.91 222.888 391.26 225.706C389.61 228.524 387.307 230.916 384.54 232.687C381.923 234.185 379.557 234.322 377.831 233.346C376.105 232.371 375.102 230.269 375.102 227.287Z" fill="#1D0F44"/>
<path opacity="0.2" d="M375.102 227.287C375.28 224.038 376.231 220.875 377.878 218.056C379.525 215.237 381.822 212.84 384.582 211.06C387.185 209.59 389.537 209.439 391.25 210.387C392.962 211.335 394.034 213.465 394.034 216.474C393.861 219.724 392.91 222.888 391.26 225.706C389.61 228.524 387.307 230.916 384.54 232.687C381.923 234.185 379.557 234.322 377.831 233.346C376.105 232.371 375.102 230.269 375.102 227.287Z" fill="#868393"/>
<path d="M379.209 224.951C379.309 223.108 379.847 221.314 380.781 219.715C381.714 218.115 383.016 216.755 384.582 215.745C385.124 215.361 385.759 215.123 386.423 215.056C387.087 214.988 387.758 215.093 388.368 215.361C388.925 215.74 389.367 216.261 389.649 216.868C389.93 217.475 390.041 218.146 389.969 218.809C389.869 220.654 389.33 222.45 388.394 224.05C387.457 225.65 386.151 227.009 384.582 228.015C384.068 228.464 383.424 228.742 382.741 228.81C382.059 228.878 381.371 228.732 380.777 228.393C380.183 228.054 379.712 227.54 379.43 226.922C379.149 226.304 379.071 225.615 379.209 224.951Z" fill="#868393"/>
<path d="M387.449 217.422C387.469 216.594 387.272 215.776 386.879 215.045C386.067 215.09 385.278 215.331 384.582 215.745C383.015 216.755 381.71 218.114 380.774 219.713C379.838 221.313 379.297 223.107 379.195 224.951C379.172 225.781 379.374 226.601 379.779 227.328C380.587 227.282 381.371 227.042 382.062 226.628C383.629 225.618 384.934 224.259 385.87 222.66C386.806 221.06 387.347 219.266 387.449 217.422Z" fill="#190C43"/>
<path d="M382.536 110.744L341.611 87.3864C338.99 82.4584 335.845 77.8201 332.229 73.5502C354.194 77.3287 371.567 90.4641 382.536 110.744Z" fill="#1D0F44"/>
<path opacity="0.2" d="M382.536 110.744L341.611 87.3864C338.99 82.4584 335.845 77.8201 332.229 73.5502C354.194 77.3287 371.567 90.4641 382.536 110.744Z" fill="#868393"/>
<path d="M374.963 211.294C377.045 200.37 378.121 189.282 378.179 178.167C378.179 103.022 324.74 72.5609 258.815 110.14C192.889 147.719 139.437 239.076 139.437 314.22C139.372 324.138 140.456 334.031 142.666 343.706L127.271 352.486C125.354 342.689 124.421 332.73 124.487 322.753C124.487 238.183 184.649 135.325 258.856 93.0473C333.064 50.7693 393.212 85.0368 393.212 169.62C393.188 180.668 392.257 191.697 390.428 202.596L375.116 211.349" fill="#868393"/>
<path d="M374.977 211.294C377.048 200.364 378.12 189.272 378.179 178.153C378.179 128.593 354.932 98.4608 320.174 94.49C331.045 108.807 337.282 129.238 337.282 154.946C337.215 166.033 336.144 177.092 334.08 187.991L374.977 211.294Z" fill="#190C43"/>
<path d="M351.383 82.44C327.273 70.074 294.686 72.6296 258.815 93.0747C184.593 135.325 124.445 238.169 124.445 322.766C124.379 332.735 125.311 342.685 127.229 352.472L86.4014 329.197C84.4431 319.428 83.4778 309.49 83.52 299.532C83.52 214.949 143.668 112.105 217.89 69.8129C254.959 48.6808 288.506 46.6885 312.824 60.5247C319.06 64.0146 342.014 77.1089 351.383 82.44Z" fill="#455A64"/>
<path d="M106.377 317.683C105.238 317.642 104.13 317.311 103.161 316.721C101.169 315.437 99.5101 313.711 98.3159 311.681C97.1218 309.65 96.4261 307.372 96.2847 305.028C96.2847 301.895 97.9272 299.875 100.461 299.875C101.598 299.91 102.706 300.237 103.676 300.824C105.672 302.119 107.334 303.857 108.528 305.899C109.722 307.941 110.415 310.231 110.553 312.585C110.539 315.649 108.896 317.683 106.377 317.683Z" fill="#190C43"/>
<path d="M357.452 74.3196C345.566 68.0267 332.254 64.8209 318.768 65.0039C298.264 65.0039 276.395 71.5442 253.748 84.4323C201.339 114.289 155.612 173.468 131.808 235.861L90.9115 212.503C114.715 150.11 160.512 90.9313 212.851 61.0743C235.499 48.1862 257.395 41.6184 277.871 41.6184C291.871 41.4295 305.671 44.9096 317.863 51.7036C324.336 55.4684 348.793 69.3732 357.452 74.3196Z" fill="#1D0F44"/>
<path opacity="0.6" d="M357.452 74.3196C345.566 68.0267 332.254 64.8209 318.768 65.0039C298.264 65.0039 276.395 71.5442 253.748 84.4323C201.339 114.289 155.612 173.468 131.808 235.861L90.9115 212.503C114.715 150.11 160.512 90.9313 212.851 61.0743C235.499 48.1862 257.395 41.6184 277.871 41.6184C291.871 41.4295 305.671 44.9096 317.863 51.7036C324.336 55.4684 348.793 69.3732 357.452 74.3196Z" fill="white"/>
<path d="M382.522 110.731C369.409 86.562 347.151 72.451 318.768 72.451C299.6 72.451 278.985 78.6478 257.52 90.8901C206.155 120.156 161.375 178.386 138.351 239.598L131.808 235.861C155.612 173.468 201.339 114.289 253.748 84.4323C276.396 71.5442 298.292 65.0039 318.768 65.0039C348.64 65.0039 372.374 78.9363 386.976 103.132L382.522 110.731Z" fill="#1D0F44"/>
<path d="M558.262 88.3757L551.441 110.566C550.881 110.151 550.255 109.831 549.589 109.618C548.425 109.27 547.182 109.27 546.017 109.62C544.853 109.969 543.82 110.651 543.048 111.58C542.277 112.509 541.802 113.643 541.683 114.839C541.565 116.034 541.808 117.238 542.383 118.297C542.957 119.356 543.837 120.223 544.91 120.788C545.984 121.354 547.203 121.592 548.414 121.474C549.625 121.355 550.774 120.885 551.714 120.122C552.654 119.359 553.344 118.338 553.696 117.188L559.821 97.3067L581.717 98.1036L575.689 117.82C575.133 117.4 574.507 117.079 573.838 116.872C572.673 116.524 571.43 116.525 570.266 116.874C569.102 117.224 568.068 117.906 567.297 118.835C566.525 119.764 566.05 120.898 565.932 122.094C565.813 123.289 566.057 124.492 566.631 125.551C567.206 126.61 568.085 127.478 569.159 128.043C570.233 128.609 571.452 128.847 572.663 128.728C573.874 128.61 575.022 128.139 575.962 127.377C576.902 126.614 577.592 125.593 577.944 124.443L588.009 91.4672L558.262 88.3757Z" fill="#1D0F44"/>
<path d="M541.808 428.372L534.987 450.562C534.431 450.142 533.805 449.821 533.136 449.614C531.971 449.266 530.728 449.267 529.564 449.616C528.4 449.965 527.366 450.648 526.595 451.577C525.823 452.506 525.348 453.64 525.23 454.835C525.111 456.031 525.355 457.234 525.929 458.293C526.504 459.352 527.383 460.219 528.457 460.785C529.531 461.35 530.75 461.589 531.961 461.47C533.172 461.351 534.32 460.881 535.26 460.118C536.2 459.355 536.89 458.335 537.243 457.185L543.367 437.303L565.263 438.1L559.236 457.817C558.68 457.397 558.053 457.076 557.385 456.869C556.22 456.521 554.977 456.521 553.813 456.871C552.648 457.22 551.615 457.902 550.844 458.831C550.072 459.76 549.597 460.894 549.479 462.09C549.36 463.285 549.603 464.489 550.178 465.548C550.752 466.607 551.632 467.474 552.706 468.039C553.779 468.605 554.999 468.843 556.21 468.725C557.421 468.606 558.569 468.136 559.509 467.373C560.449 466.61 561.139 465.589 561.491 464.439L571.541 431.463L541.808 428.372Z" fill="#1D0F44"/>
<path d="M498.503 167.065C499.88 166.399 501.384 166.03 502.916 165.979C504.965 165.94 507.011 166.171 508.999 166.666C511.634 167.381 514.333 167.842 517.058 168.04C518.425 168.132 519.797 167.951 521.091 167.507C522.385 167.063 523.575 166.366 524.589 165.457C522.994 165.604 521.385 165.393 519.884 164.839C516.279 163.465 513.384 159.824 510.14 157.79C505.31 154.781 500.535 155.042 494.661 156.499C494.661 161.431 494.564 166.391 494.508 171.338L494.383 182.976C494.383 183.347 494.202 188.265 494.202 188.265C492.839 187.592 491.341 187.225 489.817 187.194C488.148 187.178 486.512 187.65 485.115 188.552C483.719 189.454 482.625 190.745 481.971 192.261C481.318 193.777 481.135 195.45 481.445 197.068C481.756 198.687 482.546 200.178 483.715 201.354C484.884 202.529 486.381 203.336 488.015 203.672C489.649 204.007 491.347 203.857 492.894 203.24C494.441 202.623 495.769 201.566 496.708 200.204C497.647 198.842 498.155 197.236 498.169 195.589L498.503 167.065Z" fill="#1D0F44"/>
<path d="M634.752 375.267C636.264 375.002 637.816 375.058 639.304 375.432C641.28 375.959 643.18 376.735 644.955 377.74C647.29 379.147 649.756 380.329 652.319 381.271C653.608 381.73 654.977 381.928 656.346 381.852C657.714 381.777 659.052 381.43 660.281 380.832C658.705 380.541 657.215 379.902 655.924 378.963C652.848 376.696 651.094 372.368 648.547 369.524C644.761 365.305 640.111 364.234 634.042 364.028C632.65 368.782 631.175 373.508 629.741 378.248L626.358 389.405L624.688 394.42C623.569 393.403 622.232 392.647 620.776 392.208C619.179 391.73 617.474 391.729 615.877 392.207C614.28 392.685 612.862 393.62 611.804 394.893C610.745 396.167 610.093 397.722 609.929 399.361C609.766 401.001 610.099 402.651 610.887 404.104C611.674 405.556 612.881 406.746 614.353 407.521C615.826 408.297 617.498 408.624 619.159 408.461C620.82 408.298 622.394 407.652 623.683 406.606C624.972 405.559 625.918 404.159 626.4 402.582L634.752 375.267Z" fill="#1D0F44"/>
<path d="M435.348 78.9226C436.003 77.4139 436.976 76.0603 438.202 74.9517C439.855 73.4886 441.7 72.2502 443.686 71.2694C446.37 70.0075 448.924 68.4937 451.314 66.7489C452.503 65.8712 453.5 64.7649 454.244 63.4969C454.988 62.2288 455.464 60.8252 455.643 59.3705C454.434 60.5971 452.959 61.5367 451.328 62.1185C447.417 63.4925 442.392 62.517 438.271 63.1078C432.133 64.0009 428.374 67.5321 424.602 72.8495C428.151 76.9715 431.562 81.0935 435.111 85.2155L443.366 94.8335C443.63 95.1358 446.999 99.3127 446.999 99.3127C445.402 99.7276 443.919 100.488 442.656 101.539C441.272 102.692 440.265 104.225 439.763 105.944C439.262 107.662 439.288 109.489 439.838 111.193C440.388 112.897 441.438 114.401 442.855 115.516C444.272 116.631 445.991 117.306 447.797 117.456C449.602 117.606 451.412 117.224 452.998 116.358C454.583 115.493 455.873 114.183 456.704 112.594C457.535 111.004 457.87 109.208 457.666 107.431C457.462 105.654 456.729 103.976 455.56 102.61L435.348 78.9226Z" fill="#1D0F44"/>
<path d="M558.192 210.881L521.708 231.683C521.364 231.902 521.078 232.197 520.872 232.546C520.666 232.895 520.547 233.287 520.524 233.689V275.239C520.545 275.641 520.663 276.031 520.869 276.378C521.075 276.725 521.363 277.018 521.708 277.231L525.884 279.608C526.246 279.788 526.647 279.882 527.053 279.882C527.459 279.882 527.859 279.788 528.222 279.608L564.72 258.792C565.06 258.574 565.344 258.281 565.547 257.934C565.75 257.588 565.867 257.199 565.89 256.8V215.182C565.869 214.78 565.751 214.389 565.545 214.043C565.339 213.696 565.051 213.403 564.706 213.189L560.53 210.867C560.166 210.692 559.765 210.603 559.36 210.605C558.954 210.607 558.555 210.702 558.192 210.881Z" fill="#1D0F44"/>
<path d="M527.122 278.922V237.317C527.145 236.916 527.262 236.525 527.465 236.177C527.668 235.829 527.951 235.532 528.292 235.311L564.79 214.509C565.43 214.138 565.959 214.44 565.959 215.182V256.801C565.937 257.2 565.819 257.589 565.616 257.935C565.413 258.281 565.13 258.575 564.79 258.793L528.292 279.609C527.651 279.966 527.122 279.678 527.122 278.922Z" fill="#1D0F44"/>
<path d="M527.122 278.922V237.317C527.145 236.916 527.262 236.525 527.465 236.177C527.668 235.829 527.951 235.532 528.292 235.311L564.79 214.509C565.43 214.138 565.959 214.44 565.959 215.182V256.801C565.937 257.2 565.819 257.589 565.616 257.935C565.413 258.281 565.13 258.575 564.79 258.793L528.292 279.609C527.651 279.966 527.122 279.678 527.122 278.922Z" fill="#1D0F44"/>
<path opacity="0.2" d="M528.292 279.609C527.923 279.778 527.522 279.866 527.115 279.866C526.709 279.866 526.308 279.778 525.939 279.609L521.763 277.218C521.418 277.004 521.131 276.712 520.925 276.365C520.719 276.018 520.601 275.627 520.58 275.226V233.69C520.6 233.271 520.729 232.864 520.956 232.508L527.484 236.177C527.266 236.519 527.146 236.913 527.136 237.317V278.922C527.122 279.609 527.568 279.994 528.292 279.609Z" fill="#868393"/>
<path opacity="0.4" d="M565.945 214.976C565.848 214.385 565.375 214.179 564.79 214.509L528.292 235.311C527.951 235.529 527.669 235.827 527.47 236.177L520.942 232.508C521.133 232.168 521.411 231.883 521.749 231.684L558.192 210.882C558.556 210.698 558.959 210.603 559.368 210.603C559.777 210.603 560.18 210.698 560.544 210.882L564.72 213.204C565.044 213.392 565.322 213.648 565.534 213.954C565.746 214.261 565.886 214.61 565.945 214.976Z" fill="white"/>
<path d="M560.837 238.787C560.837 249.257 554.392 261.431 546.43 265.965C538.467 270.499 532.008 265.69 532.008 255.207C532.008 244.723 538.467 232.563 546.43 228.029C554.392 223.495 560.837 228.304 560.837 238.787Z" fill="#FAFAFA"/>
<path d="M544.481 242.168V254.3C544.463 254.602 544.375 254.895 544.223 255.158C544.07 255.42 543.859 255.644 543.604 255.811L541.237 257.185C540.75 257.46 540.36 257.185 540.36 256.677V244.572C540.378 244.27 540.466 243.977 540.619 243.714C540.771 243.452 540.983 243.228 541.237 243.061L543.604 241.687C544.077 241.398 544.481 241.618 544.481 242.168Z" fill="#455A64"/>
<path d="M552.735 237.468V249.587C552.718 249.889 552.629 250.182 552.477 250.445C552.325 250.707 552.113 250.931 551.858 251.098L549.492 252.472C549.005 252.747 548.601 252.472 548.601 251.964V239.845C548.62 239.544 548.711 239.252 548.866 238.992C549.02 238.732 549.235 238.511 549.492 238.348L551.858 236.974C552.346 236.685 552.735 236.905 552.735 237.468Z" fill="#455A64"/>
<path d="M600.606 191.893L571.374 208.532C571.102 208.71 570.876 208.947 570.715 209.227C570.553 209.506 570.459 209.818 570.442 210.14V243.377C570.457 243.698 570.551 244.011 570.716 244.288C570.881 244.566 571.112 244.8 571.388 244.97L574.743 246.88C575.034 247.026 575.356 247.102 575.682 247.102C576.009 247.102 576.331 247.026 576.622 246.88L605.854 230.241C606.128 230.065 606.357 229.828 606.521 229.549C606.686 229.269 606.781 228.956 606.801 228.634V195.328C606.779 195.008 606.683 194.697 606.518 194.42C606.354 194.144 606.127 193.909 605.854 193.734L602.499 191.879C602.205 191.733 601.88 191.658 601.551 191.66C601.222 191.663 600.898 191.742 600.606 191.893Z" fill="#1D0F44"/>
<path d="M575.717 246.331V213.039C575.734 212.719 575.827 212.408 575.989 212.131C576.151 211.854 576.378 211.619 576.65 211.445L605.882 194.792C606.397 194.503 606.828 194.792 606.828 195.328V228.62C606.809 228.942 606.714 229.256 606.549 229.535C606.385 229.814 606.156 230.051 605.882 230.227L576.65 246.867C576.135 247.169 575.717 246.922 575.717 246.331Z" fill="#1D0F44"/>
<path d="M575.717 246.331V213.039C575.734 212.719 575.827 212.408 575.989 212.131C576.151 211.854 576.378 211.619 576.65 211.445L605.882 194.792C606.397 194.503 606.828 194.792 606.828 195.328V228.62C606.809 228.942 606.714 229.256 606.549 229.535C606.385 229.814 606.156 230.051 605.882 230.227L576.65 246.867C576.135 247.169 575.717 246.922 575.717 246.331Z" fill="#1D0F44"/>
<path opacity="0.2" d="M576.65 246.867C576.358 247.008 576.036 247.082 575.71 247.082C575.385 247.082 575.063 247.008 574.771 246.867L571.416 244.957C571.14 244.786 570.909 244.552 570.744 244.275C570.579 243.997 570.485 243.684 570.469 243.363V210.14C570.481 209.804 570.582 209.477 570.762 209.191L575.996 212.132C575.822 212.404 575.726 212.717 575.717 213.039V246.331C575.717 246.88 576.093 247.183 576.65 246.867Z" fill="#868393"/>
<path opacity="0.4" d="M606.773 195.108C606.689 194.641 606.313 194.476 605.84 194.737L576.608 211.39C576.333 211.559 576.108 211.796 575.954 212.077L570.72 209.191C570.875 208.918 571.101 208.69 571.374 208.532L600.606 191.893C600.897 191.747 601.219 191.671 601.546 191.671C601.872 191.671 602.194 191.747 602.485 191.893L605.84 193.748C606.081 193.9 606.288 194.099 606.449 194.333C606.609 194.567 606.719 194.83 606.773 195.108Z" fill="white"/>
<path d="M599.548 210.016V222.135C599.533 222.437 599.445 222.731 599.293 222.994C599.141 223.256 598.928 223.48 598.671 223.646L596.305 225.02C595.818 225.295 595.414 225.02 595.414 224.525V212.393C595.433 212.092 595.524 211.799 595.679 211.539C595.833 211.279 596.048 211.058 596.305 210.895L598.671 209.521C599.159 209.233 599.548 209.453 599.548 210.016Z" fill="#455A64"/>
<path d="M582.942 219.606V231.478C582.942 232.371 583.415 232.536 584.013 231.876L595.149 219.208C595.748 218.535 595.497 217.999 594.593 217.999H584.64C584.42 217.99 584.201 218.024 583.995 218.101C583.79 218.178 583.602 218.294 583.443 218.445C583.284 218.595 583.158 218.775 583.072 218.975C582.986 219.175 582.941 219.389 582.942 219.606Z" fill="#455A64"/>
<path d="M507.941 244.709L478.709 261.349C478.434 261.524 478.204 261.761 478.04 262.04C477.875 262.32 477.78 262.633 477.762 262.956V296.193C477.781 296.514 477.877 296.825 478.042 297.102C478.206 297.379 478.435 297.614 478.709 297.787L482.063 299.697C482.355 299.843 482.677 299.919 483.003 299.919C483.33 299.919 483.652 299.843 483.943 299.697L513.175 283.058C513.447 282.881 513.674 282.643 513.836 282.364C513.998 282.085 514.091 281.772 514.107 281.45V248.144C514.092 247.823 513.997 247.51 513.833 247.233C513.668 246.955 513.437 246.721 513.161 246.551L509.806 244.696C509.516 244.554 509.196 244.481 508.872 244.484C508.548 244.486 508.229 244.563 507.941 244.709Z" fill="#1D0F44"/>
<path d="M483.024 299.147V265.855C483.04 265.536 483.133 265.224 483.296 264.947C483.458 264.67 483.684 264.435 483.957 264.261L513.189 247.609C513.704 247.32 514.121 247.609 514.121 248.144V281.436C514.105 281.758 514.012 282.071 513.85 282.35C513.688 282.63 513.461 282.867 513.189 283.044L483.957 299.683C483.469 299.985 483.024 299.738 483.024 299.147Z" fill="#1D0F44"/>
<path d="M483.024 299.147V265.855C483.04 265.536 483.133 265.224 483.296 264.947C483.458 264.67 483.684 264.435 483.957 264.261L513.189 247.609C513.704 247.32 514.121 247.609 514.121 248.144V281.436C514.105 281.758 514.012 282.071 513.85 282.35C513.688 282.63 513.461 282.867 513.189 283.044L483.957 299.683C483.469 299.985 483.024 299.738 483.024 299.147Z" fill="#1D0F44"/>
<path opacity="0.2" d="M483.984 299.683C483.692 299.825 483.371 299.899 483.045 299.899C482.719 299.899 482.398 299.825 482.105 299.683L478.751 297.773C478.476 297.6 478.248 297.366 478.083 297.089C477.919 296.812 477.823 296.5 477.804 296.179V262.956C477.82 262.619 477.926 262.292 478.11 262.008L483.33 264.948C483.156 265.22 483.06 265.534 483.052 265.855V299.147C483.024 299.697 483.442 299.999 483.984 299.683Z" fill="#868393"/>
<path opacity="0.4" d="M514.107 247.979C514.038 247.512 513.648 247.347 513.175 247.608L483.943 264.261C483.671 264.434 483.446 264.67 483.288 264.948L478.055 262.008C478.217 261.74 478.441 261.514 478.709 261.348L507.941 244.709C508.232 244.563 508.554 244.487 508.88 244.487C509.207 244.487 509.529 244.563 509.82 244.709L513.175 246.564C513.422 246.722 513.633 246.93 513.793 247.174C513.954 247.418 514.061 247.692 514.107 247.979Z" fill="white"/>
<path d="M493.951 270.499V282.618C493.937 282.921 493.85 283.215 493.697 283.478C493.545 283.741 493.331 283.964 493.074 284.129L490.708 285.503C490.221 285.792 489.831 285.503 489.831 285.009V272.89C489.845 272.588 489.932 272.293 490.085 272.03C490.237 271.767 490.451 271.544 490.708 271.379L493.074 270.005C493.561 269.716 493.951 269.95 493.951 270.499Z" fill="#455A64"/>
<path d="M507.342 274.924V262.558C507.342 261.61 506.827 261.417 506.187 262.132L494.327 275.363C493.687 276.078 493.951 276.655 494.912 276.655H505.602C506.064 276.648 506.504 276.463 506.829 276.139C507.155 275.816 507.339 275.379 507.342 274.924Z" fill="#455A64"/>
<path d="M604.685 253.819L477.066 326.544C476.725 326.764 476.442 327.061 476.238 327.409C476.035 327.758 475.918 328.149 475.897 328.55V408.861C475.92 409.258 476.038 409.644 476.242 409.988C476.445 410.332 476.727 410.624 477.066 410.839L481.242 413.23C481.608 413.409 482.01 413.502 482.418 413.502C482.827 413.502 483.229 413.409 483.595 413.23L611.213 340.49C611.554 340.27 611.837 339.973 612.04 339.625C612.243 339.276 612.36 338.886 612.383 338.484V258.119C612.362 257.718 612.244 257.327 612.038 256.98C611.832 256.633 611.544 256.341 611.199 256.127L607.023 253.805C606.66 253.626 606.259 253.534 605.852 253.536C605.446 253.539 605.046 253.635 604.685 253.819Z" fill="#455A64"/>
<path d="M612.396 257.9C612.299 257.323 611.826 257.117 611.241 257.446L483.622 330.186C483.274 330.4 482.986 330.698 482.787 331.052L476.259 327.369C476.453 327.031 476.731 326.748 477.066 326.545L604.685 253.805C605.05 253.626 605.453 253.533 605.861 253.533C606.269 253.533 606.672 253.626 607.037 253.805L611.213 256.127C611.529 256.32 611.799 256.578 612.004 256.884C612.208 257.19 612.342 257.537 612.396 257.9Z" fill="#868393"/>
<path d="M482.439 412.543V332.192C482.462 331.789 482.581 331.397 482.787 331.049C482.992 330.7 483.279 330.404 483.622 330.186L611.241 257.446C611.881 257.075 612.41 257.378 612.41 258.12V338.471C612.388 338.872 612.271 339.263 612.067 339.611C611.864 339.96 611.581 340.256 611.241 340.477L483.622 413.217C483.024 413.574 482.439 413.285 482.439 412.543Z" fill="#455A64"/>
<path opacity="0.2" d="M483.622 413.217C483.256 413.393 482.854 413.484 482.446 413.484C482.039 413.484 481.636 413.393 481.27 413.217L477.094 410.826C476.755 410.61 476.472 410.319 476.269 409.975C476.066 409.631 475.948 409.245 475.925 408.847V328.551C475.939 328.133 476.064 327.725 476.287 327.369L482.815 331.052C482.603 331.397 482.484 331.789 482.467 332.192V412.544C482.439 413.217 482.926 413.574 483.622 413.217Z" fill="#190C43"/>
<path d="M498.67 393.83C498.656 393.84 498.639 393.845 498.621 393.845C498.604 393.845 498.587 393.84 498.573 393.83C498.568 393.819 498.565 393.807 498.565 393.795C498.565 393.783 498.568 393.772 498.573 393.761V393.308L497.181 394.132C497.167 394.138 497.153 394.141 497.139 394.141C497.124 394.141 497.11 394.138 497.097 394.132V394.063V393.582C497.084 393.505 497.084 393.426 497.097 393.349L498.489 390.848C498.506 390.808 498.529 390.771 498.559 390.738H498.656L499.352 390.34C499.352 390.34 499.422 390.34 499.436 390.34V390.408V392.153L499.825 391.934C499.84 391.923 499.857 391.918 499.874 391.918C499.892 391.918 499.909 391.923 499.923 391.934V392.428C499.934 392.459 499.934 392.493 499.923 392.524L499.825 392.621L499.436 392.84V393.308C499.445 393.344 499.445 393.381 499.436 393.417C499.419 393.454 499.389 393.483 499.352 393.5L498.67 393.83ZM498.559 392.579V391.741L497.89 392.964L498.559 392.579Z" fill="white"/>
<path d="M501.398 390.56C501.403 390.596 501.403 390.633 501.398 390.669L501.301 390.752L500.702 391.095C500.702 391.095 500.633 391.095 500.619 391.095V390.505C500.607 390.469 500.607 390.43 500.619 390.395C500.625 390.375 500.635 390.357 500.65 390.343C500.665 390.329 500.683 390.318 500.702 390.312L501.301 389.955H501.398C501.406 389.977 501.406 390.001 501.398 390.024V390.56ZM501.398 392.153C501.403 392.19 501.403 392.227 501.398 392.263L501.301 392.346L500.702 392.689C500.702 392.689 500.633 392.689 500.619 392.689V392.621V392.03C500.607 391.994 500.607 391.955 500.619 391.92C500.625 391.9 500.635 391.883 500.65 391.868C500.665 391.854 500.683 391.843 500.702 391.837L501.301 391.494C501.315 391.484 501.332 391.478 501.35 391.478C501.367 391.478 501.384 391.484 501.398 391.494V392.153Z" fill="white"/>
<path d="M503.737 390.944C503.737 390.944 503.667 390.944 503.639 390.944C503.634 390.933 503.632 390.922 503.632 390.91C503.632 390.898 503.634 390.886 503.639 390.876V390.408L502.178 391.246H502.094V390.766C502.096 390.683 502.12 390.602 502.164 390.532L503.556 388.031L503.626 387.921C503.652 387.891 503.685 387.867 503.723 387.853L504.419 387.454C504.419 387.454 504.489 387.454 504.502 387.454V387.523V389.268L504.906 389.034H504.99C504.996 389.045 504.999 389.057 504.999 389.069C504.999 389.081 504.996 389.093 504.99 389.103V389.584C505.001 389.62 505.001 389.658 504.99 389.694L504.906 389.79L504.502 390.01V390.477C504.512 390.513 504.512 390.551 504.502 390.587C504.486 390.624 504.456 390.653 504.419 390.669L503.737 390.944ZM503.626 389.68V388.842L502.957 390.065L503.626 389.68Z" fill="white"/>
<path d="M589.637 340.889C589.641 341.074 589.603 341.257 589.526 341.425C589.456 341.617 589.358 341.798 589.233 341.961C589.1 342.134 588.951 342.295 588.788 342.442C588.629 342.582 588.457 342.706 588.273 342.813C588.108 342.91 587.93 342.984 587.744 343.033C587.597 343.066 587.445 343.066 587.299 343.033C587.179 343.01 587.071 342.947 586.992 342.854C586.915 342.726 586.876 342.578 586.881 342.428C586.867 342.337 586.867 342.245 586.881 342.153L586.965 341.892C586.99 341.805 587.028 341.722 587.076 341.645L587.187 341.412L588.078 339.735V339.639L588.176 339.557L588.913 339.144V339.213L588.301 340.367C588.446 340.296 588.601 340.246 588.76 340.216C588.884 340.187 589.012 340.187 589.136 340.216C589.244 340.256 589.336 340.328 589.401 340.422C589.533 340.545 589.617 340.711 589.637 340.889ZM587.744 341.975C587.728 342.024 587.728 342.077 587.744 342.126C587.784 342.141 587.829 342.141 587.869 342.126C587.924 342.139 587.981 342.139 588.036 342.126L588.231 342.044L588.412 341.906C588.475 341.858 588.531 341.803 588.579 341.741C588.626 341.676 588.668 341.607 588.705 341.535C588.718 341.467 588.718 341.397 588.705 341.329C588.721 341.28 588.721 341.227 588.705 341.178C588.664 341.165 588.62 341.165 588.579 341.178C588.525 341.158 588.466 341.158 588.412 341.178C588.347 341.194 588.286 341.222 588.231 341.26C588.158 341.293 588.092 341.34 588.036 341.398C587.974 341.446 587.918 341.501 587.869 341.563C587.818 341.625 587.775 341.694 587.744 341.769C587.731 341.837 587.731 341.907 587.744 341.975Z" fill="white"/>
<path d="M591.113 339.378C591.122 339.414 591.122 339.452 591.113 339.488L591.029 339.57L590.431 339.914C590.431 339.914 590.361 339.914 590.333 339.914C590.328 339.903 590.326 339.891 590.326 339.88C590.326 339.868 590.328 339.856 590.333 339.845V339.378C590.327 339.342 590.327 339.304 590.333 339.268C590.354 339.23 590.389 339.2 590.431 339.186L591.029 338.842C591.029 338.842 591.099 338.842 591.113 338.842V339.378ZM591.113 340.972C591.122 341.008 591.122 341.046 591.113 341.082C591.092 341.116 591.064 341.144 591.029 341.164L590.431 341.508C590.431 341.508 590.361 341.508 590.333 341.508V340.917C590.327 340.881 590.327 340.843 590.333 340.807C590.354 340.769 590.389 340.739 590.431 340.725L591.029 340.381C591.029 340.381 591.099 340.381 591.113 340.381V340.972Z" fill="white"/>
<path d="M594.231 336.177H594.384C594.39 336.187 594.393 336.199 594.393 336.211C594.393 336.223 594.39 336.235 594.384 336.245V336.726C594.39 336.763 594.39 336.8 594.384 336.836C594.387 336.873 594.387 336.909 594.384 336.946L593.827 337.812C594.017 337.752 594.222 337.752 594.412 337.812C594.494 337.854 594.561 337.92 594.604 338.001C594.646 338.082 594.662 338.175 594.648 338.265C594.64 338.621 594.513 338.964 594.286 339.241C594.005 339.582 593.66 339.866 593.27 340.079C593.088 340.188 592.892 340.272 592.686 340.326C592.545 340.365 592.395 340.365 592.254 340.326C592.153 340.319 592.059 340.275 591.99 340.202C591.923 340.126 591.888 340.028 591.892 339.928C591.88 339.897 591.88 339.862 591.892 339.831C591.908 339.802 591.932 339.778 591.962 339.763L592.546 339.433C592.568 339.422 592.592 339.416 592.616 339.416C592.64 339.416 592.664 339.422 592.686 339.433H592.797H592.964C593.065 339.42 593.161 339.382 593.242 339.323C593.381 339.245 593.508 339.148 593.618 339.034C593.662 338.994 593.697 338.945 593.721 338.891C593.745 338.836 593.757 338.778 593.758 338.718C593.758 338.609 593.758 338.567 593.618 338.567C593.486 338.591 593.359 338.638 593.242 338.705L592.867 338.925C592.867 338.925 592.867 338.925 592.783 338.925V338.54C592.777 338.503 592.777 338.466 592.783 338.43C592.803 338.391 592.826 338.355 592.853 338.32L593.34 337.551L592.143 338.238C592.143 338.238 592.073 338.238 592.045 338.238V337.757C592.043 337.716 592.053 337.675 592.076 337.64C592.098 337.605 592.132 337.579 592.171 337.564L594.231 336.177Z" fill="white"/>
<path d="M596.542 334.816C596.727 334.706 596.929 334.628 597.14 334.583C597.272 334.546 597.412 334.546 597.544 334.583C597.657 334.637 597.746 334.73 597.794 334.844C597.85 334.975 597.882 335.114 597.892 335.256V336.067C597.878 336.248 597.846 336.428 597.794 336.603C597.737 336.788 597.652 336.963 597.544 337.125C597.43 337.309 597.294 337.48 597.14 337.633C596.958 337.801 596.757 337.949 596.542 338.073C596.355 338.184 596.154 338.267 595.943 338.32C595.807 338.364 595.661 338.364 595.525 338.32C595.423 338.263 595.341 338.177 595.289 338.073C595.232 337.937 595.199 337.793 595.191 337.647C595.191 337.523 595.191 337.399 595.191 337.248C595.191 337.097 595.191 336.973 595.191 336.836C595.205 336.659 595.237 336.484 595.289 336.314C595.35 336.128 595.429 335.949 595.525 335.778C595.644 335.593 595.784 335.422 595.943 335.27C596.125 335.098 596.326 334.946 596.542 334.816ZM597.029 336.561C597.043 336.305 597.043 336.048 597.029 335.792C597.036 335.728 597.036 335.663 597.029 335.599C597.014 335.555 596.984 335.516 596.945 335.49C596.921 335.479 596.895 335.473 596.869 335.473C596.842 335.473 596.816 335.479 596.792 335.49C596.713 335.503 596.638 335.531 596.569 335.572C596.482 335.62 596.403 335.68 596.333 335.751C596.277 335.808 596.23 335.873 596.194 335.943C596.151 336.01 596.123 336.085 596.11 336.163C596.103 336.236 596.103 336.31 596.11 336.383C596.096 336.639 596.096 336.896 596.11 337.152C596.102 337.216 596.102 337.281 596.11 337.344C596.1 337.385 596.1 337.428 596.11 337.468C596.16 337.482 596.213 337.482 596.263 337.468C596.347 337.449 596.427 337.417 596.5 337.372C596.579 337.324 596.653 337.269 596.722 337.207C596.782 337.145 596.834 337.076 596.876 337.001C596.915 336.938 596.944 336.868 596.959 336.795C596.986 336.741 597.009 336.686 597.029 336.63V336.561Z" fill="white"/>
<path opacity="0.3" d="M513.801 380.983L581.062 342.648C582.162 342.016 583.053 342.47 583.053 343.651C583.006 344.313 582.801 344.954 582.455 345.522C582.109 346.09 581.632 346.57 581.062 346.921L513.801 385.256C512.701 385.888 511.797 385.435 511.797 384.253C511.845 383.59 512.052 382.948 512.4 382.38C512.749 381.812 513.229 381.333 513.801 380.983Z" fill="white"/>
<path d="M513.801 380.983L564.303 352.197C565.402 351.565 566.307 352.019 566.307 353.2C566.255 353.862 566.047 354.503 565.699 355.071C565.351 355.639 564.873 356.118 564.303 356.471L513.801 385.256C512.701 385.888 511.797 385.434 511.797 384.253C511.845 383.59 512.052 382.948 512.4 382.38C512.749 381.812 513.229 381.333 513.801 380.983Z" fill="white"/>
<path d="M606.787 292.662L600.829 296.042C598.379 297.416 594.105 300.068 591.656 299.408C589.595 298.859 588.008 296.124 585.169 297.746C583.373 298.763 581.383 305.042 577.889 307.034C574.395 309.026 572.321 303.407 571.193 300.508C570.066 297.608 568.075 292.181 563.913 294.544C559.751 296.908 557.593 305.22 554.948 311.321C552.304 317.421 548.865 323.33 544.62 325.748C539.609 328.606 536.156 327.218 533.804 328.565C531.452 329.911 529.475 334.171 526.844 336.63C524.505 338.87 520.9 341.027 518.826 339.378C516.752 337.729 515.263 333.497 513.175 334.679C511.087 335.861 509.402 342.703 507.426 346.124C505.449 349.546 503.25 351.62 497.417 354.932L486.365 361.225V362.008L491.125 359.26C493.506 357.886 496.86 356.113 499.101 357.048C501.343 357.982 501.44 358.834 503.417 357.707C505.393 356.58 506.201 354.959 507.593 352.747C508.51 351.045 509.822 349.581 511.421 348.474C512.813 347.636 514.72 348.474 515.875 349.573C517.03 350.672 518.158 351.868 519.87 350.947C521.658 349.641 523.046 347.872 523.879 345.836C524.993 343.692 525.605 342.002 526.83 341.288C528.182 340.673 529.709 340.547 531.145 340.931C533.472 341.304 535.857 340.815 537.841 339.557C540.736 337.908 544.105 334.995 548.336 327.548L554.754 323.879C559.431 321.227 562.66 319.675 564.804 320.169C567.476 320.774 571.151 325.858 575.146 323.563C579.141 321.269 580.311 315.319 582.287 311.39C583.854 307.659 586.73 304.61 590.389 302.802L606.731 293.486L606.787 292.662Z" fill="#1D0F44"/>
<path opacity="0.2" d="M571.193 323.756C568.785 322.849 566.6 320.54 564.86 320.142C562.716 319.647 559.486 321.2 554.809 323.852L548.448 327.52C552.151 320.966 555.672 310.703 556.995 306.636C557.565 304.904 558.206 303.173 558.957 301.483C559.711 299.664 560.703 297.95 561.909 296.386C563.983 294.256 565.542 294.022 566.544 296.495C567.546 298.969 566.808 306.333 566.989 312.585C567.17 318.837 568.841 322.354 571.193 323.756Z" fill="#868393"/>
<path opacity="0.2" d="M518.868 339.378C520.942 340.999 524.547 338.842 526.886 336.63C529.475 334.171 531.438 329.911 533.846 328.565C536.254 327.218 539.65 328.565 544.662 325.748C546.307 324.75 547.752 323.459 548.921 321.942C547.098 324.69 544.328 329.829 538.913 333.69C535.767 335.929 531.688 337.303 529.879 338.334C528.049 339.353 526.559 340.876 525.591 342.717C525.076 343.555 524.603 344.627 523.977 345.836C523.143 347.872 521.756 349.641 519.968 350.947C519.644 351.157 519.271 351.279 518.885 351.3C518.499 351.322 518.113 351.243 517.768 351.071C516.251 349.903 515.569 347.347 515.374 341.961C515.137 335.737 514.246 334.528 513.258 334.706C515.304 333.552 516.794 337.825 518.868 339.378Z" fill="#868393"/>
<path opacity="0.2" d="M566.934 312.585C566.753 306.333 567.504 298.969 566.488 296.495C565.806 294.819 564.874 294.393 563.704 294.943C565.472 294.709 567.031 297.471 566.001 304.272C565.43 308.037 563.746 315.099 564.609 320.101C564.706 320.094 564.804 320.094 564.901 320.101C566.641 320.499 568.827 322.849 571.235 323.714C568.841 322.354 567.115 318.85 566.934 312.585Z" fill="#868393"/>
<path opacity="0.2" d="M548.448 327.52L551.997 325.487C553.24 322.19 554.313 318.833 555.213 315.429C556.605 310.497 557.663 304.698 558.957 301.483C558.206 303.173 557.565 304.904 556.995 306.636C555.617 310.703 552.095 320.966 548.448 327.52Z" fill="#868393"/>
<path opacity="0.5" d="M583.248 300.192C581.856 302.5 580.213 305.688 577.875 307.062C574.381 309.054 572.307 303.434 571.179 300.535C570.845 299.697 570.442 298.625 569.94 297.608C571.332 300.549 572.502 305.935 573.351 308.971C574.075 311.554 574.812 313.313 576.859 312.53C578.905 311.747 580.311 307.487 581.16 305.193C581.741 303.481 582.439 301.81 583.248 300.192Z" fill="white"/>
<path opacity="0.2" d="M583.596 304.052C582.538 307.281 582.051 310.84 580.394 316.034C581.049 314.385 581.647 312.736 582.343 311.362C583.909 307.631 586.786 304.582 590.445 302.775L595.804 299.724C590.639 302.665 588.412 300.411 587.173 299.724C585.934 299.037 584.64 300.824 583.596 304.052Z" fill="#868393"/>
<path opacity="0.2" d="M586.449 299.601C585.447 299.793 584.445 301.442 583.596 304.052C582.538 307.281 582.051 310.84 580.394 316.034C581.049 314.385 581.647 312.736 582.343 311.362C582.844 310.359 583.317 309.494 583.735 308.697C583.93 307.158 584.055 305.811 584.139 305.014C584.459 302.637 585.336 300.398 586.449 299.601Z" fill="#868393"/>
<path opacity="0.2" d="M544.62 325.775C539.609 328.633 536.157 327.246 533.804 328.592C533.407 328.824 533.042 329.106 532.718 329.43C534.305 328.056 536.894 329.087 538.885 329.43C540.902 329.649 542.936 329.21 544.676 328.18C546.181 326.201 547.575 324.141 548.852 322.011C547.686 323.511 546.252 324.787 544.62 325.775Z" fill="#868393"/>
<path opacity="0.2" d="M515.332 341.989C515.527 347.375 516.209 349.93 517.726 351.098C518.072 351.27 518.457 351.349 518.843 351.328C519.229 351.306 519.603 351.184 519.926 350.975C521.555 349.829 522.835 348.266 523.629 346.454C521.61 349.202 518.576 349.656 517.713 347.045C516.85 344.434 516.822 340.807 516.223 338.334C515.625 335.861 514.943 334.583 513.968 334.528H513.773H513.634H513.55H513.439L513.216 334.624C514.205 334.555 515.04 335.764 515.332 341.989Z" fill="#868393"/>
<path opacity="0.5" d="M507.467 346.248C505.477 349.669 503.291 351.744 497.459 355.055L496.178 355.784C503.542 351.662 506.423 352.678 508.33 348.707C510.238 344.737 510.989 338.086 511.95 336.218C510.418 338.65 509.026 343.5 507.467 346.248Z" fill="white"/>
<path opacity="0.5" d="M551.83 320.403C550.81 322.835 549.658 325.211 548.378 327.52C544.202 334.967 540.792 337.88 537.897 339.529C535.922 340.795 533.538 341.285 531.215 340.903C529.772 340.53 528.242 340.661 526.886 341.274C528.606 340.138 530.651 339.579 532.718 339.68C535.029 339.612 538.439 338.609 542.365 334.761C546.29 330.914 551.663 320.719 551.83 320.403Z" fill="white"/>
<path d="M531.549 353.736C531.572 353.716 531.602 353.705 531.633 353.705C531.663 353.705 531.693 353.716 531.716 353.736C531.742 353.803 531.742 353.876 531.716 353.942V354.396C531.735 354.491 531.735 354.589 531.716 354.684C531.702 354.726 531.681 354.764 531.652 354.797C531.623 354.83 531.588 354.857 531.549 354.877L529.976 355.784V363.286C529.973 363.385 529.949 363.484 529.906 363.574C529.87 363.652 529.812 363.719 529.739 363.767L529.391 363.959C529.382 363.97 529.371 363.98 529.357 363.986C529.344 363.992 529.33 363.996 529.315 363.996C529.3 363.996 529.286 363.992 529.272 363.986C529.259 363.98 529.247 363.97 529.238 363.959C529.211 363.933 529.19 363.9 529.178 363.864C529.166 363.828 529.163 363.79 529.169 363.753V356.251L527.582 357.158C527.558 357.175 527.528 357.185 527.498 357.185C527.468 357.185 527.439 357.175 527.415 357.158C527.365 357.1 527.34 357.027 527.345 356.951V356.484C527.348 356.389 527.372 356.295 527.415 356.21C527.415 356.113 527.512 356.045 527.582 356.017L531.549 353.736Z" fill="white"/>
<path d="M537.061 350.59C537.085 350.572 537.115 350.562 537.145 350.562C537.175 350.562 537.204 350.572 537.228 350.59C537.278 350.647 537.303 350.721 537.298 350.796V359.109C537.295 359.208 537.271 359.307 537.228 359.397C537.196 359.478 537.137 359.546 537.061 359.59L536.713 359.782C536.704 359.793 536.693 359.803 536.679 359.809C536.666 359.815 536.652 359.819 536.637 359.819C536.622 359.819 536.607 359.815 536.594 359.809C536.581 359.803 536.569 359.793 536.56 359.782C536.535 359.716 536.535 359.642 536.56 359.576V355.948L533.581 357.652V361.28C533.6 361.375 533.6 361.473 533.581 361.568C533.549 361.649 533.49 361.717 533.414 361.76L533.08 361.953C533.006 361.953 532.95 361.953 532.913 361.953C532.861 361.891 532.836 361.812 532.844 361.733V353.489C532.847 353.394 532.87 353.3 532.913 353.214C532.927 353.173 532.949 353.135 532.977 353.102C533.006 353.069 533.041 353.041 533.08 353.022L533.414 352.816C533.438 352.798 533.468 352.788 533.498 352.788C533.528 352.788 533.557 352.798 533.581 352.816C533.607 352.882 533.607 352.955 533.581 353.022V356.553L536.56 354.849V351.318C536.541 351.227 536.541 351.134 536.56 351.043C536.588 350.964 536.642 350.896 536.713 350.851L537.061 350.59Z" fill="white"/>
<path d="M542.407 355.399C542.428 355.382 542.455 355.373 542.483 355.373C542.511 355.373 542.538 355.382 542.56 355.399C542.587 355.425 542.608 355.458 542.62 355.493C542.632 355.529 542.635 355.568 542.629 355.605V356.072C542.635 356.169 542.61 356.264 542.56 356.347C542.527 356.427 542.475 356.498 542.407 356.553L538.982 358.504C538.958 358.522 538.929 358.532 538.899 358.532C538.869 358.532 538.839 358.522 538.815 358.504C538.766 358.447 538.741 358.373 538.746 358.298V350.054C538.749 349.954 538.773 349.856 538.815 349.765C538.815 349.669 538.913 349.601 538.982 349.573L542.337 347.663C542.358 347.644 542.385 347.633 542.414 347.633C542.442 347.633 542.469 347.644 542.49 347.663C542.505 347.696 542.513 347.731 542.513 347.766C542.513 347.802 542.505 347.837 542.49 347.869V348.336C542.515 348.431 542.515 348.53 542.49 348.625C542.458 348.702 542.405 348.768 542.337 348.817L539.553 350.397V353.145L542.156 351.662C542.178 351.645 542.205 351.636 542.233 351.636C542.26 351.636 542.287 351.645 542.309 351.662C542.359 351.719 542.384 351.793 542.379 351.868V352.335C542.377 352.43 542.353 352.524 542.309 352.61C542.277 352.69 542.224 352.761 542.156 352.816L539.553 354.286V357.034L542.407 355.399Z" fill="white"/>
<path d="M547.654 344.434C547.922 344.256 548.237 344.161 548.559 344.16C548.801 344.169 549.036 344.24 549.241 344.366C549.422 344.503 549.565 344.683 549.659 344.888C549.748 345.093 549.8 345.311 549.812 345.534C549.83 345.61 549.83 345.69 549.812 345.767C549.781 345.829 549.733 345.882 549.673 345.918L549.325 346.124C549.28 346.141 549.23 346.141 549.186 346.124C549.186 346.124 549.102 346.056 549.06 345.959C549.024 345.872 548.978 345.789 548.921 345.712C548.858 345.611 548.766 345.53 548.657 345.479C548.539 345.409 548.404 345.375 548.267 345.382C548.068 345.39 547.876 345.452 547.71 345.561C547.546 345.654 547.396 345.77 547.265 345.905C547.113 346.041 546.981 346.198 546.875 346.372C546.76 346.553 546.666 346.746 546.597 346.949C546.528 347.157 546.495 347.375 546.499 347.595C546.488 347.769 546.521 347.944 546.597 348.103C546.632 348.161 546.678 348.211 546.733 348.251C546.788 348.292 546.85 348.321 546.917 348.337C547.096 348.372 547.28 348.372 547.46 348.337C547.73 348.314 548 348.277 548.267 348.227C548.535 348.188 548.807 348.188 549.074 348.227C549.277 348.245 549.471 348.322 549.631 348.446C549.778 348.574 549.884 348.741 549.937 348.927C550.003 349.193 550.036 349.465 550.035 349.738C550.035 350.129 549.978 350.517 549.868 350.892C549.755 351.274 549.601 351.642 549.408 351.991C549.211 352.334 548.968 352.648 548.685 352.926C548.416 353.217 548.101 353.463 547.752 353.654C547.48 353.827 547.169 353.931 546.847 353.956C546.599 353.977 546.35 353.92 546.137 353.791C545.936 353.673 545.772 353.502 545.664 353.297C545.546 353.067 545.484 352.813 545.483 352.555C545.464 352.483 545.464 352.407 545.483 352.335C545.51 352.271 545.553 352.214 545.608 352.17L545.956 351.978C545.98 351.967 546.006 351.961 546.033 351.961C546.059 351.961 546.085 351.967 546.109 351.978C546.109 351.978 546.193 352.046 546.221 352.143C546.258 352.25 546.309 352.351 546.374 352.445C546.451 352.548 546.551 352.633 546.666 352.692C546.803 352.746 546.95 352.769 547.098 352.761C547.312 352.734 547.517 352.659 547.696 352.541C547.903 352.428 548.091 352.284 548.253 352.115C548.437 351.95 548.596 351.76 548.726 351.552C548.863 351.352 548.971 351.135 549.046 350.906C549.128 350.691 549.171 350.463 549.172 350.233C549.188 350.057 549.138 349.881 549.033 349.738C548.934 349.623 548.795 349.549 548.643 349.532C548.436 349.49 548.223 349.49 548.016 349.532C547.74 349.563 547.466 349.609 547.195 349.669C546.956 349.711 546.711 349.711 546.471 349.669C546.283 349.631 546.113 349.535 545.984 349.394C545.853 349.245 545.762 349.066 545.72 348.872C545.66 348.62 545.632 348.362 545.636 348.103C545.639 347.765 545.681 347.428 545.761 347.1C545.847 346.748 545.973 346.407 546.137 346.083C546.307 345.756 546.517 345.452 546.764 345.176C547.019 344.884 547.32 344.634 547.654 344.434Z" fill="white"/>
<path d="M550.856 346.097C550.86 345.608 550.911 345.12 551.009 344.64C551.115 344.168 551.269 343.708 551.469 343.266C551.663 342.851 551.906 342.459 552.192 342.099C552.474 341.768 552.808 341.485 553.181 341.26C553.481 341.075 553.828 340.975 554.183 340.972C554.456 340.995 554.712 341.111 554.907 341.302C555.123 341.548 555.28 341.839 555.366 342.154C555.472 342.567 555.523 342.991 555.519 343.418C555.519 344.173 555.519 344.943 555.519 345.712C555.512 346.202 555.456 346.69 555.352 347.169C555.25 347.642 555.096 348.102 554.893 348.543C554.707 348.958 554.463 349.347 554.169 349.697C553.894 350.033 553.559 350.317 553.181 350.535C552.886 350.721 552.543 350.822 552.192 350.823C552.058 350.818 551.925 350.787 551.803 350.73C551.681 350.673 551.572 350.593 551.482 350.494C551.254 350.251 551.095 349.952 551.023 349.628C550.906 349.222 550.849 348.8 550.856 348.378C550.828 347.622 550.828 346.866 550.856 346.097ZM554.726 343.953C554.725 343.624 554.678 343.295 554.587 342.978C554.542 342.762 554.43 342.565 554.266 342.415C554.204 342.355 554.129 342.309 554.048 342.278C553.967 342.248 553.88 342.233 553.793 342.236C553.577 342.255 553.368 342.321 553.181 342.428C552.962 342.57 552.762 342.736 552.582 342.923C552.39 343.137 552.23 343.378 552.109 343.637C551.964 343.936 551.852 344.249 551.775 344.572C551.703 344.943 551.661 345.32 551.649 345.698C551.649 346.097 551.649 346.454 551.649 346.798C551.649 347.141 551.649 347.485 551.649 347.869C551.654 348.198 551.696 348.525 551.775 348.845C551.832 349.059 551.948 349.254 552.109 349.408C552.172 349.468 552.246 349.514 552.327 349.545C552.409 349.575 552.495 349.59 552.582 349.587C552.796 349.571 553.003 349.5 553.181 349.381C553.412 349.252 553.619 349.085 553.793 348.886C553.988 348.674 554.147 348.433 554.266 348.172C554.415 347.88 554.522 347.571 554.587 347.251C554.671 346.876 554.718 346.494 554.726 346.111C554.726 345.726 554.726 345.355 554.726 345.025C554.726 344.695 554.726 344.338 554.726 343.953Z" fill="white"/>
<path d="M560.656 346.152C560.572 346.152 560.517 346.152 560.461 346.152C560.404 346.096 560.356 346.031 560.322 345.959L557.538 341.233V347.622C557.534 347.722 557.511 347.82 557.468 347.911C557.441 347.99 557.387 348.058 557.315 348.103L556.967 348.309C556.943 348.327 556.914 348.336 556.883 348.336C556.853 348.336 556.824 348.327 556.8 348.309C556.774 348.243 556.774 348.169 556.8 348.103V339.79C556.781 339.695 556.781 339.597 556.8 339.502C556.814 339.46 556.835 339.422 556.864 339.389C556.893 339.356 556.928 339.329 556.967 339.309L557.259 339.131C557.343 339.131 557.398 339.131 557.454 339.131C557.508 339.184 557.555 339.244 557.593 339.309L560.377 344.036V337.715C560.381 337.616 560.404 337.517 560.447 337.427C560.474 337.348 560.528 337.28 560.6 337.235L560.948 337.028C560.972 337.011 561.001 337.001 561.032 337.001C561.062 337.001 561.091 337.011 561.115 337.028C561.141 337.095 561.141 337.168 561.115 337.235V345.547C561.134 345.643 561.134 345.741 561.115 345.836C561.102 345.877 561.08 345.915 561.051 345.948C561.022 345.981 560.987 346.009 560.948 346.028L560.656 346.152Z" fill="white"/>
<path d="M562.368 339.474C562.374 339.012 562.426 338.552 562.521 338.1C562.62 337.626 562.775 337.165 562.98 336.726C563.171 336.298 563.424 335.9 563.732 335.545C564.032 335.198 564.39 334.906 564.79 334.679C565.089 334.483 565.434 334.369 565.792 334.349C566.057 334.349 566.315 334.431 566.53 334.583C566.722 334.724 566.871 334.914 566.962 335.132C567.056 335.355 567.113 335.592 567.129 335.833C567.146 335.905 567.146 335.981 567.129 336.053C567.101 336.121 567.052 336.179 566.989 336.218L566.641 336.41C566.516 336.493 566.433 336.493 566.405 336.41C566.34 336.257 566.261 336.109 566.168 335.971C566.096 335.848 565.989 335.748 565.862 335.682C565.729 335.616 565.578 335.592 565.43 335.613C565.222 335.646 565.023 335.721 564.846 335.833C564.608 335.97 564.392 336.142 564.205 336.341C564.004 336.564 563.835 336.814 563.704 337.083C563.545 337.377 563.428 337.692 563.356 338.018C563.272 338.383 563.226 338.756 563.217 339.131C563.217 339.515 563.217 339.873 563.217 340.202C563.217 340.532 563.217 340.876 563.217 341.26C563.218 341.599 563.265 341.937 563.356 342.263C563.413 342.485 563.534 342.685 563.704 342.841C563.772 342.901 563.851 342.947 563.937 342.975C564.023 343.003 564.115 343.014 564.205 343.005C564.433 342.982 564.652 342.907 564.846 342.786C565.079 342.654 565.29 342.487 565.472 342.291C565.688 342.087 565.863 341.845 565.987 341.576C566.147 341.278 566.264 340.959 566.335 340.628C566.422 340.236 566.464 339.835 566.46 339.433V339.076L565.235 339.763C565.215 339.782 565.187 339.793 565.159 339.793C565.13 339.793 565.103 339.782 565.082 339.763C565.033 339.706 565.008 339.632 565.013 339.557V339.103C565.016 339.003 565.04 338.905 565.082 338.815C565.11 338.735 565.164 338.668 565.235 338.622L567.031 337.592C567.055 337.574 567.085 337.564 567.115 337.564C567.145 337.564 567.174 337.574 567.198 337.592C567.224 337.658 567.224 337.732 567.198 337.798V339.021C567.199 339.529 567.143 340.036 567.031 340.532C566.927 341.007 566.768 341.468 566.558 341.906C566.365 342.329 566.112 342.722 565.806 343.074C565.514 343.413 565.166 343.701 564.776 343.926C564.462 344.132 564.095 344.246 563.718 344.256C563.577 344.253 563.438 344.223 563.309 344.166C563.179 344.109 563.063 344.028 562.966 343.926C562.747 343.678 562.594 343.381 562.521 343.06C562.41 342.639 562.353 342.205 562.354 341.769C562.363 341.009 562.368 340.244 562.368 339.474Z" fill="white"/>
</svg>
