<svg width="249" height="230" viewBox="0 0 249 230" fill="none" xmlns="http://www.w3.org/2000/svg">
<path d="M12.9205 125.215C17.2763 125.184 17.8673 125.208 17.8768 125.491C17.896 125.67 17.926 126.041 17.9439 126.311C18.048 127.58 18.0961 127.832 18.3924 128.261C18.9747 129.074 20.0828 129.148 20.7721 128.419C21.4865 127.651 21.3594 126.091 20.5171 125.538C19.9314 125.148 19.9532 125.143 22.7769 125.14L25.0062 125.148L24.966 125.659C24.9452 125.96 24.9715 126.217 25.0255 126.251C25.0795 126.286 25.0838 126.547 25.0496 126.84C24.9134 127.771 25.7155 128.835 26.6082 128.921C27.041 128.955 27.7803 128.535 28.0648 128.087C28.5921 127.256 28.3143 125.932 27.5042 125.418C27.0451 125.127 27.1326 125.109 29.3702 125.104C30.6566 125.105 31.7057 125.123 31.7024 125.158C31.766 127.715 31.8532 128.085 32.7039 128.624C33.6895 129.25 34.9526 128.423 35.062 127.086C35.1132 126.378 34.9417 125.992 34.3303 125.493L33.7781 125.05L36.4216 125.062C37.8713 125.075 39.1237 124.981 39.1906 124.876C39.358 124.612 40.8514 123.69 41.2837 123.576C41.6066 123.485 41.6403 123.044 41.7447 118.133L41.8609 112.786L40.8771 112.217C40.3473 111.918 39.7918 111.51 39.6446 111.324C39.428 111.039 39.0994 110.96 37.5128 110.804C36.4702 110.717 35.2778 110.626 34.8449 110.592L34.0551 110.554L34.5171 110.273C35.0968 109.956 35.306 109.627 35.4312 108.892C35.6087 107.746 34.6143 106.598 33.5575 106.741C32.6672 106.861 32.2269 107.525 32.091 108.993C32.012 109.924 31.9257 110.239 31.7372 110.268C31.5925 110.287 30.5332 110.225 29.3793 110.104C27.7708 109.953 27.3714 109.867 27.6674 109.758C28.2103 109.529 28.7357 108.641 28.718 107.982C28.675 106.827 27.7389 105.974 26.7412 106.173C25.9893 106.344 25.3378 107.281 25.4351 108.083C25.4665 108.362 25.4606 108.58 25.4066 108.546C25.3526 108.512 25.3215 108.77 25.3111 109.115L25.3101 109.743L22.8931 109.524C21.5675 109.404 20.4491 109.287 20.4086 109.261C20.3681 109.236 20.5276 109.133 20.7663 109.026C21.8993 108.523 21.9338 106.528 20.8131 105.817C20.1515 105.398 19.3739 105.46 18.8758 105.976C18.5823 106.29 18.4843 106.653 18.3519 107.698C18.2704 108.423 18.1498 109.031 18.0758 109.058C17.9967 109.063 15.7752 108.894 13.1595 108.659C7.80003 108.183 7.80003 108.183 6.70258 109.615C5.46096 111.214 4.30573 114.736 4.34704 116.761C4.41927 119.841 5.82577 123.564 7.39125 124.798C7.98401 125.266 8.01938 125.27 12.9205 125.215ZM14.6775 122.296C14.5235 121.643 14.6851 121.209 15.1741 120.946C15.416 120.803 17.7477 120.71 17.9367 120.83C17.9907 120.864 18.0013 121.444 17.9887 122.121L17.9378 123.365L16.7171 123.349C16.0385 123.345 15.3259 123.244 15.1504 123.133C14.9748 123.021 14.7596 122.644 14.6775 122.296ZM19.7176 122.052C19.7405 121.419 19.7704 120.864 19.7955 120.825C19.8541 120.732 25.0363 120.652 25.0485 120.752C25.0453 120.787 25.061 121.389 25.0536 122.088C25.0337 123.074 24.9859 123.359 24.7872 123.343C24.6508 123.35 23.5143 123.35 22.2549 123.365C20.9956 123.381 19.8977 123.35 19.8301 123.307C19.7408 123.269 19.6999 122.707 19.7176 122.052ZM26.7992 121.992C26.8099 121.259 26.9054 120.691 27.0064 120.681C27.1158 120.658 28.2472 120.635 29.5066 120.62L31.8182 120.588L31.7763 121.967C31.7305 123.233 31.699 123.343 31.3857 123.329C31.214 123.331 30.1482 123.34 29.0168 123.362C27.8938 123.371 26.929 123.37 26.875 123.336C26.8126 123.315 26.7834 122.704 26.7992 121.992ZM14.8265 112.27C14.7568 111.634 15.0562 111.102 15.6127 110.882C16.0295 110.702 18.123 110.864 18.1692 111.06C18.2103 111.234 18.1801 113.491 18.1447 113.487C18.1228 113.491 17.5485 113.442 16.868 113.38C15.3875 113.237 14.9033 112.985 14.8265 112.27ZM33.4951 122.78C33.5126 122.514 33.5187 121.907 33.5338 121.435L33.549 120.575L34.1839 120.59C35.0528 120.623 35.5356 120.966 35.7153 121.728C35.9174 122.633 35.6007 123.043 34.5374 123.256C34.0511 123.336 33.6253 123.381 33.5713 123.346C33.5173 123.312 33.4827 123.068 33.4951 122.78ZM19.9055 112.92C19.9024 112.567 19.9188 112.003 19.921 111.672L19.9406 111.074L22.5158 111.283C23.934 111.405 25.145 111.526 25.1855 111.551C25.3341 111.646 25.1956 114.222 25.049 114.185C24.9512 114.16 23.8328 114.042 22.5561 113.935C21.2659 113.82 20.1475 113.703 20.053 113.643C19.9636 113.605 19.895 113.265 19.9055 112.92ZM26.9728 113.092C26.9937 112.402 27.0269 111.813 27.052 111.773C27.1106 111.681 31.7606 112.022 31.9092 112.116C31.9632 112.15 31.984 112.774 31.9463 113.49L31.9109 114.8L29.4585 114.576C28.1111 114.462 26.9978 114.366 26.9843 114.358C26.9708 114.349 26.9737 113.777 26.9728 113.092ZM33.6745 113.661C33.709 112.98 33.7421 112.391 33.7486 112.321C33.7764 112.098 34.8362 112.307 35.3628 112.642C36.1729 113.155 36.1839 114.272 35.3977 114.736C34.9827 114.972 34.0184 115.119 33.7889 114.973C33.7079 114.922 33.6484 114.329 33.6745 113.661Z" fill="#16093C"/>
<path d="M48.3637 123.997C50.4688 124.111 53.1836 124.279 54.3844 124.356C60.2688 124.721 68.9992 125.227 69.1439 125.207C69.2314 125.189 69.3512 122.582 69.4083 119.417C69.4654 116.253 69.5698 113.581 69.6368 113.475C69.7288 113.33 67.6456 113.211 63.4173 113.101C59.93 113.017 56.9681 112.969 56.8504 113.006C56.7191 113.034 56.8658 113.071 57.152 113.068C57.4517 113.073 57.691 113.113 57.7012 113.157C57.698 113.192 57.6581 115.553 57.5864 118.413C57.5281 121.281 57.4804 123.804 57.4829 124.009C57.491 124.384 57.4389 124.406 56.6407 124.381C56.1641 124.356 55.7834 124.3 55.7866 124.265C55.768 124.234 55.8241 121.698 55.8933 118.634C55.9907 113.645 56.0373 113.064 56.3403 113.034C56.6214 113.009 56.6298 112.995 56.3821 112.968C56.2272 112.943 53.538 112.884 50.3993 112.818L44.6994 112.699L44.6307 115.912C44.602 117.688 44.5575 120.176 44.5169 121.464C44.4847 122.739 44.4802 123.791 44.4886 123.777C44.5021 123.786 46.2367 123.887 48.3637 123.997Z" fill="#16093C"/>
<path d="M75.8231 125.633C78.8949 125.805 81.4683 125.957 81.566 125.982C81.6856 126.003 82.0416 114.128 81.9338 113.671C81.9132 113.584 79.4647 113.474 76.4977 113.405C71.1194 113.287 70.6614 113.293 71.044 113.406C71.1553 113.439 71.188 115.865 71.1185 119.318L71.0059 125.167L70.5531 125.195C70.3074 125.224 70.1408 125.248 70.1813 125.273C70.2218 125.299 72.7597 125.447 75.8231 125.633Z" fill="#16093C"/>
<path d="M87.9085 126.342L92.4236 126.597L92.4048 125.642C92.4045 125.105 92.4543 122.25 92.5274 119.299C92.5869 116.34 92.65 113.882 92.6533 113.847C92.643 113.804 90.6273 113.728 88.1587 113.679L83.6796 113.576L83.6716 114.126C83.6643 114.436 83.6042 117.247 83.5317 120.346C83.4644 123.468 83.4134 126.026 83.405 126.039C83.4102 126.06 85.4278 126.193 87.9085 126.342Z" fill="#16093C"/>
<path d="M128.859 151.874C130.579 152.595 131.838 152.968 133.491 153.258C137.615 153.95 140.63 153.587 149.02 151.434C154.877 149.932 156.331 149.818 158.933 150.673C160.861 151.304 162.984 152.614 167.474 155.924C172.09 159.333 177.049 162.442 179.659 163.58C187.375 166.938 195.885 167.822 203.92 166.11C207.231 165.398 209.818 164.393 212.274 162.88C222.079 156.796 226.835 144.493 227.088 124.542C227.188 115.817 226.12 107.59 224.105 101.871C220.224 90.8249 212.879 84.4636 201.707 82.4647C195.392 81.3453 188.778 81.6828 183.039 83.4454C178.692 84.7766 175.002 86.6541 168.533 90.8215C161.388 95.429 158.823 96.1888 154.439 94.9806C153.728 94.7885 151.3 93.9887 149.028 93.2131C144.046 91.5147 141.988 90.9679 139.219 90.6173C134.994 90.0836 131.026 90.7862 127.521 92.6702C123.436 94.8711 120.049 99.4943 118.164 105.422C117.51 107.468 116.803 110.701 116.535 112.825C116.388 113.953 116.298 114.303 116.104 114.31C115.976 114.303 115.298 114.298 114.601 114.263L113.344 114.243L113.311 115.072C113.285 116.277 113.089 125.571 113.074 126.819L113.056 127.862L114.445 127.911C115.199 127.945 115.866 127.998 115.934 128.041C116.001 128.084 116.146 128.99 116.248 130.054C117.423 141.216 121.87 148.921 128.859 151.874ZM119.236 121.403C119.318 117.81 119.393 114.768 119.419 114.636C119.467 114.352 121.029 114.307 121.061 114.586C121.15 115.161 120.772 128.205 120.676 128.237C120.313 128.303 119.167 128.168 119.128 128.051C119.113 127.985 119.162 124.982 119.236 121.403ZM126.35 121.531C126.427 117.768 126.521 114.664 126.555 114.611C126.58 114.572 126.94 114.541 127.351 114.58C127.978 114.607 128.107 114.671 128.15 114.902C128.259 115.507 127.901 128.638 127.783 128.675C127.42 128.74 126.274 128.606 126.249 128.497C126.22 128.423 126.273 125.293 126.35 121.531ZM132.64 121.765C132.746 116.762 132.852 114.683 133.024 114.681C133.393 114.638 134.432 114.76 134.452 114.847C134.463 114.891 134.407 118.112 134.335 121.988L134.201 129.064L133.425 129.034C133.011 129.031 132.63 128.974 132.584 128.927C132.525 128.871 132.559 125.654 132.64 121.765ZM138.147 122.038C138.234 118.079 138.35 114.822 138.372 114.817C138.416 114.808 138.808 114.817 139.222 114.82L140.007 114.837L139.863 121.721C139.778 125.497 139.716 128.788 139.71 129.006C139.718 129.382 139.666 129.404 138.925 129.378C138.484 129.357 138.1 129.336 138.06 129.31C138.019 129.284 138.064 126.019 138.147 122.038ZM143.112 131.793C142.65 131.297 142.053 130.566 141.781 130.19L141.317 129.489L143.1 129.602L144.884 129.716L145.534 130.332C146.44 131.203 148.463 132.431 149.64 132.844C150.193 133.047 151.307 133.291 152.112 133.395C153.293 133.533 153.975 133.503 155.492 133.171C157.116 132.85 157.599 132.657 158.803 131.922C160.607 130.809 161.276 130.142 162.356 128.44C163.026 127.385 163.318 126.775 163.552 125.868C164.492 122.357 163.766 118.844 161.494 115.978C160.657 114.91 160.471 114.755 158.77 113.676C157.149 112.648 156.814 112.491 155.695 112.225C153.87 111.789 152.292 111.769 150.534 112.152C148.819 112.527 147.137 113.328 145.95 114.333C145.214 114.957 145.192 114.962 143.53 114.925C142.617 114.901 141.841 114.872 141.814 114.854C141.665 114.76 142.573 113.597 143.394 112.841C145.312 111.042 146.955 110.123 149.362 109.522C157.864 107.403 166.206 113.416 166.779 122.124C167.089 126.65 164.839 131.273 161.097 133.858C157.432 136.381 152.685 136.94 148.336 135.348C146.856 134.816 144.255 133.036 143.112 131.793ZM146.158 129.618C145.817 129.29 145.135 128.395 144.642 127.62C141.676 122.982 143.134 117.042 147.926 114.143C149.123 113.422 151.7 112.762 153.124 112.815C157.627 112.97 161.491 116.013 162.613 120.333C163.35 123.113 163.025 125.534 161.588 127.86C161.119 128.599 160.483 129.453 160.115 129.794C157.493 132.256 153.746 133.118 150.235 132.056C149.122 131.72 147.091 130.506 146.158 129.618ZM187.537 144.265C187.344 143.883 188.267 104.19 188.459 103.887C188.811 103.332 189.389 103.256 192.111 103.354C195.009 103.471 195.68 103.638 195.874 104.316C196.057 104.894 195.209 144.081 195.017 144.533C194.71 145.226 194.047 145.286 189.801 145.054C188.5 144.987 187.738 144.725 187.537 144.265Z" fill="#16093C"/>
<path d="M97.9811 126.94C100.157 127.062 102.028 127.158 102.159 127.13C102.29 127.102 102.423 124.892 102.504 120.706C102.571 117.197 102.622 114.25 102.602 114.163C102.581 114.076 100.727 113.955 98.4522 113.899L94.3216 113.814L94.3147 114.661C94.2937 116.664 94.088 125.526 94.0581 126.08L94.0217 126.705L97.9811 126.94Z" fill="#16093C"/>
<path d="M107.635 127.513C109.603 127.633 111.257 127.683 111.29 127.63C111.332 127.565 111.42 124.53 111.496 120.859C111.585 116.568 111.555 114.199 111.418 114.205C109.759 114.134 104.792 114.054 104.604 114.082C104.393 114.115 104.325 114.849 104.261 117.399C104.229 119.21 104.161 122.183 104.129 123.995L104.046 127.29L107.635 127.513Z" fill="#16093C"/>
</svg>
