<svg width="1476" height="588" viewBox="0 0 1476 588" fill="none" xmlns="http://www.w3.org/2000/svg">
<path d="M55.1351 435.767L175.61 436.848H825.857C838.815 439.484 844.963 441.66 854.266 446.575M55.1351 435.767C48.1683 434.594 43.1206 433.446 38.3002 431.771M55.1351 435.767L38.3002 431.771M854.266 446.575C869.592 455.827 874.453 461.871 877.414 473.956L878.466 499.535C884.689 509.679 890.376 514.32 905.823 520.07M854.266 446.575C845.893 443.349 840.961 442.089 831.118 442.252H69.3395C66.5558 441.803 64.9365 441.482 61.9743 440.811C56.4596 439.361 53.132 438.183 46.7177 435.407L38.3002 431.771M905.823 520.07H975.793H1134.67C1144.54 522.756 1151.61 525.335 1156.77 528.251M905.823 520.07C913.711 523.852 924.599 525.848 924.236 525.474C923.873 525.1 1147.3 526.195 1147.3 526.195C1151.99 526.279 1153.78 526.935 1156.77 528.251M1199.38 579.515C1187.42 576.632 1178.86 571.229 1174.65 562.943C1170.45 554.656 1169.77 554.727 1170.45 547.451C1168.54 538.797 1165.27 533.064 1156.77 528.251M1199.38 579.515H1417.18C1440.77 573.752 1450.25 567.866 1459.8 552.134V373.8C1459.64 366.882 1457.21 363.519 1449.27 358.308M1199.38 579.515C1206.19 583.168 1208.13 583.947 1209.9 584.199C1214.12 585.196 1215.8 585.541 1218.32 586L1427.18 585.279C1454.68 580.648 1465.02 574.369 1472.95 556.818L1474 549.252L1472.95 375.962C1467.45 366.055 1462.25 362.215 1449.27 358.308M1449.27 358.308C1422.74 346.793 1390.91 345.404 1310.39 350.022L1058.39 369.477L917.397 381.726C905.094 385.645 896.818 389.251 890.636 393.975M744.839 248.065C782.104 249.219 804.352 249.919 838.483 250.948C838.483 250.948 844.278 250.152 861.105 250.948C862.827 251.029 864.403 251.198 865.84 251.466M744.839 248.065C725.99 242.479 720.6 237.982 717.483 228.25V195.105C717.483 195.105 719.061 108.28 719.061 103.236C719.061 98.1925 714.396 96.4503 712.748 91.3473M744.839 248.065C734.209 241.591 730.818 237.322 730.635 228.25V154.755V110.442C728.656 100.622 724.463 96.5733 712.748 91.3473M712.748 91.3473C704.289 85.3771 698.527 83.0552 685.917 81.2597L400.25 43.7915L236.11 23.256L70.3917 2C70.3917 2 54.6847 2.14237 41.4566 5.96299C30.6128 9.09497 22.4703 15.6512 17.2565 18.5725C5.6825 25.0574 2 40.549 2 40.549V106.479L3.05218 402.622C9.09995 414.082 14.3838 419.134 26.2001 426.4C30.6766 428.726 34.4146 430.42 38.3002 431.771M890.636 393.975C884.962 398.311 881.052 403.587 877.414 410.908L878.466 427.841L877.414 288.416C880.412 263.753 878.445 253.817 865.84 251.466M890.636 393.975C889.738 291.946 890.262 278.448 890.636 284.453V263.917C885.017 255.339 879.893 252.335 865.84 251.466" stroke="#868393" stroke-width="3"/>
</svg>
