<svg width="364" height="544" viewBox="0 0 364 544" fill="none" xmlns="http://www.w3.org/2000/svg">
<path d="M92.6848 117.641L83.7792 111.758C83.1611 110.436 82.3554 109.231 81.3926 108.188C80.1102 107.012 63.0294 105.815 62.5485 106.227C62.0676 106.639 62.7088 119.955 63.5993 120.524C64.4899 121.093 77.9372 121.328 79.273 121.289C80.18 121.21 81.0465 120.842 81.7666 120.23L90.0488 126.957L92.6848 117.641Z" fill="#BAB8F0"/>
<path d="M171.41 133.213C157.428 136.547 129.251 139.429 125.724 137.606C122.198 135.782 89.4788 114.856 89.4788 114.856L83.1381 122.956C83.1381 122.956 108.857 147.019 125.404 153.609C141.95 160.198 180.618 159.257 180.618 159.257C180.618 159.257 186.211 153.216 185.231 145.078C184.251 136.939 171.41 133.213 171.41 133.213Z" fill="#877FA0"/>
<path d="M316.766 511.676L334.755 529.542L350.197 527.502L329.411 502.36L316.766 511.676Z" fill="#BAB8F0"/>
<path d="M60.9277 512.029L41.0149 527.228L25.9468 523.07L49.4574 501.027L60.9277 512.029Z" fill="#BAB8F0"/>
<path d="M262.246 86.6744L252.824 82.2814C251.526 82.5145 250.203 82.5145 248.906 82.2814C247.32 81.8499 236.634 67.6316 236.616 67.004C236.598 66.3764 246.537 59.3163 247.498 59.7085C248.46 60.1008 256.315 71.7304 257.063 72.9267C257.526 73.7644 257.761 74.731 257.74 75.7115L267.322 79.0651L262.246 86.6744Z" fill="#BAB8F0"/>
<path d="M341.202 509.224L326.954 524.404C326.954 524.404 223.845 433.838 222.153 418.678C220.461 403.518 222.153 322.758 222.153 322.758C222.153 322.758 208.385 340.506 187.083 366.845C152.886 409.186 99.2927 473.708 52.3427 522.443L35.7963 509.813C154.881 346.174 192.783 258.648 192.783 258.648L197.681 217.464L266.111 210.639C266.111 210.639 282.568 258.099 278.116 293.341C273.663 328.583 256.742 394.164 258.524 407.382C260.305 420.6 341.202 509.224 341.202 509.224Z" fill="#190C43"/>
<path d="M333.597 526.443H350.678C350.957 526.441 351.228 526.546 351.446 526.739C351.663 526.932 351.814 527.201 351.871 527.502L354.65 541.231C354.761 541.823 354.654 542.44 354.354 542.947C354.054 543.454 353.584 543.81 353.047 543.937C352.899 543.956 352.749 543.956 352.601 543.937C347.062 543.839 343.037 543.466 336.108 543.466C331.834 543.466 318.939 543.956 312.954 543.956C306.969 543.956 306.293 537.544 308.697 536.955C319.544 534.347 327.702 530.738 331.175 527.326C331.846 526.693 332.716 526.376 333.597 526.443Z" fill="#263238"/>
<path d="M28.9212 518.991L44.3811 526.992C44.6337 527.127 44.8379 527.35 44.9607 527.628C45.0836 527.906 45.1178 528.221 45.058 528.522L42.226 542.25C42.1632 542.542 42.0489 542.816 41.8895 543.059C41.7301 543.301 41.5288 543.507 41.2972 543.663C41.0655 543.82 40.8081 543.925 40.5396 543.972C40.2711 544.019 39.9968 544.007 39.7325 543.937L39.305 543.78C34.3357 541.093 30.8448 538.877 24.5574 535.622C20.6924 533.66 8.83028 528.012 3.48697 525.247C-1.85635 522.482 -0.0752414 516.304 2.34706 516.912C13.1584 519.638 21.9392 520.187 26.4098 518.716C27.2493 518.467 28.1425 518.565 28.9212 518.991Z" fill="#263238"/>
<path d="M194.671 228.623L269.317 219.405L270.314 229.191L194.6 237.507L194.671 228.623Z" fill="#696278"/>
<path d="M244.859 217.98L242.186 218.31L243.952 235.675L246.625 235.345L244.859 217.98Z" fill="white"/>
<path d="M207.093 222.659L204.42 222.989L206.187 240.354L208.859 240.024L207.093 222.659Z" fill="white"/>
<path d="M228.504 222.733L214.697 224.435L215.811 235.388L229.618 233.686L228.504 222.733Z" fill="white"/>
<path d="M194.778 229.956C186.816 166.258 171.41 133.213 171.41 133.213C206.675 118.229 250.954 110.601 250.954 110.601C263.279 145.372 268.106 195.087 269.727 221.719L194.778 229.956Z" fill="#877FA0"/>
<path d="M225.11 116.131C221.281 124.74 205.749 128.996 205.749 128.996C205.749 128.996 195.579 130.212 196.363 126.211C201.421 122.877 203.042 118.955 202.864 114.935C202.654 112.578 202.05 110.284 201.083 108.169C201.034 108.081 200.992 107.989 200.958 107.894C200.424 106.678 199.783 105.462 199.177 104.305L212.054 81.5754C212.963 90.3026 215.421 104.501 220.764 112.052C221.91 113.76 223.397 115.155 225.11 116.131Z" fill="#BAB8F0"/>
<path opacity="0.2" d="M220.746 111.973C220.39 112.797 219.98 113.326 219.517 113.464C212.393 115.621 205.838 112.169 201.101 108.09C201.052 108.003 201.01 107.911 200.976 107.816C200.442 106.6 199.8 105.384 199.195 104.227L212.072 81.4969C212.945 90.2241 215.403 104.423 220.746 111.973Z" fill="#8F8EF2"/>
<path d="M250.936 110.601C250.936 110.601 284.474 107.365 284.955 102.364C285.436 97.3627 256.76 85.1055 256.76 85.1055L261.694 75.9273C261.694 75.9273 291.064 84.5172 302.339 94.3033C313.613 104.089 308.715 118.367 258.541 137.606C258.541 137.606 245.094 124.878 250.936 110.601Z" fill="#877FA0"/>
<path opacity="0.3" d="M224.967 287.006L222.171 322.758C222.171 322.758 208.403 340.506 187.101 366.845C209.703 326.661 215.812 298.989 215.812 298.989C208.439 288.144 207.673 270.807 207.673 270.807L224.967 287.006Z" fill="black"/>
<path d="M240.64 175.456C240.64 188.838 231.566 199.529 220.55 199.529C209.534 199.529 200.461 188.838 200.461 175.456C200.461 162.074 209.534 151.383 220.55 151.383C231.566 151.383 240.64 162.074 240.64 175.456Z" fill="white" stroke="#190C43"/>
<path d="M229.474 169.317C228.191 168.18 226.642 167.494 225.431 166.572C224.18 165.651 223.033 164.571 222.011 163.355C221.017 162.23 220.155 160.971 219.446 159.61C219.308 159.385 219.123 159.202 218.905 159.075C218.688 158.948 218.445 158.883 218.199 158.884C218.053 158.878 217.908 158.908 217.774 158.973C217.64 159.038 217.521 159.135 217.427 159.258C217.332 159.381 217.265 159.526 217.229 159.682C217.193 159.838 217.19 160.001 217.22 160.159L221.049 182.183C219.297 181.15 217.336 180.623 215.35 180.653C211.004 180.653 207.904 183.32 208.439 186.536C208.973 189.753 212.945 192.243 217.344 192.204C221.744 192.165 224.789 189.537 224.255 186.321C224.154 185.766 223.954 185.24 223.667 184.771L220.337 164.062C220.515 164.258 220.693 164.454 220.889 164.63C222.15 165.808 223.531 166.821 225.003 167.65C226.499 168.513 227.96 168.925 229.26 169.847C230.589 170.729 231.79 171.827 232.822 173.102C231.896 171.652 230.766 170.375 229.474 169.317Z" fill="#484A92"/>
<path d="M231.54 156.59C231.164 156.548 230.8 156.419 230.472 156.213C230.144 156.007 229.858 155.728 229.634 155.393C214.833 137.586 221.512 83.7131 221.797 81.4185L222.688 81.5558C222.688 82.1245 215.777 137.272 230.293 154.746C230.899 155.452 231.397 155.727 231.807 155.55C236.295 153.589 235.12 112.895 234.621 95.5388C234.354 86.0469 234.336 84.6937 234.532 84.321C235.28 82.8894 240 80.3987 240.944 79.8496L241.336 80.7321C239.158 81.7508 237.13 83.1188 235.316 84.7917C235.227 85.2624 235.316 90.0084 235.512 95.5192C236.331 123.897 236.812 154.354 232.145 156.452C231.955 156.546 231.748 156.593 231.54 156.59Z" fill="#407BFF"/>
<g opacity="0.2">
<path d="M231.54 156.59C231.164 156.548 230.8 156.419 230.472 156.213C230.144 156.007 229.858 155.728 229.634 155.393C214.833 137.586 221.512 83.7131 221.797 81.4185L222.688 81.5558C222.688 82.1245 215.777 137.272 230.293 154.746C230.899 155.452 231.397 155.727 231.807 155.55C236.295 153.589 235.12 112.895 234.621 95.5388C234.354 86.0469 234.336 84.6937 234.532 84.321C235.28 82.8894 240 80.3987 240.944 79.8496L241.336 80.7321C239.158 81.7508 237.13 83.1188 235.316 84.7917C235.227 85.2624 235.316 90.0084 235.512 95.5192C236.331 123.897 236.812 154.354 232.145 156.452C231.955 156.546 231.748 156.593 231.54 156.59Z" fill="black"/>
</g>
<path d="M232.133 69.6312L236.777 82.0116C237.055 82.7524 237.826 83.105 238.498 82.799L261.694 72.2512C262.367 71.9452 262.687 71.0967 262.409 70.3559L257.765 57.9754C257.488 57.2346 256.717 56.8821 256.044 57.188L232.849 67.7359C232.176 68.0418 231.856 68.8903 232.133 69.6312Z" fill="#407BFF"/>
<path opacity="0.4" d="M232.133 69.6312L236.777 82.0116C237.055 82.7524 237.826 83.105 238.498 82.799L261.694 72.2512C262.367 71.9452 262.687 71.0967 262.409 70.3559L257.765 57.9754C257.488 57.2346 256.717 56.8821 256.044 57.188L232.849 67.7359C232.176 68.0418 231.856 68.8903 232.133 69.6312Z" fill="white"/>
<path d="M232.61 70.8909L237.254 83.2713C237.532 84.0121 238.303 84.3646 238.975 84.0587L262.171 73.5109C262.844 73.2049 263.164 72.3563 262.886 71.6155L258.242 59.2351C257.965 58.4943 257.194 58.1418 256.521 58.4477L233.326 68.9956C232.653 69.3015 232.333 70.1501 232.61 70.8909Z" fill="#407BFF"/>
<path opacity="0.7" d="M232.61 70.8909L237.254 83.2713C237.532 84.0121 238.303 84.3646 238.975 84.0587L262.171 73.5109C262.844 73.2049 263.164 72.3563 262.886 71.6155L258.242 59.2351C257.965 58.4943 257.194 58.1418 256.521 58.4477L233.326 68.9956C232.653 69.3015 232.333 70.1501 232.61 70.8909Z" fill="white"/>
<path d="M234.01 70.0718L238.953 83.2497L261.358 73.0612L256.415 59.8833L234.01 70.0718Z" fill="#407BFF"/>
<path opacity="0.2" d="M238.89 69.1879L242.969 80.0638L253.554 75.2503L249.475 64.3743L238.89 69.1879Z" fill="#484A92"/>
<path opacity="0.4" d="M252.285 74.1813L252.557 74.9064L253.297 74.5695L253.025 73.8444L252.285 74.1813Z" fill="white"/>
<path opacity="0.4" d="M250.177 73.6677L250.449 74.3928L252.836 73.3073L252.564 72.5822L250.177 73.6677Z" fill="white"/>
<path opacity="0.4" d="M248.128 73.1684L248.399 73.8936L252.433 72.0611L252.161 71.3359L248.128 73.1684Z" fill="white"/>
<path opacity="0.4" d="M249.232 71.1543L249.504 71.8794L251.891 70.794L251.619 70.0688L249.232 71.1543Z" fill="white"/>
<path opacity="0.4" d="M247.113 70.6589L247.385 71.3839L251.419 69.5498L251.147 68.8248L247.113 70.6589Z" fill="white"/>
<path opacity="0.4" d="M243.355 70.9155L243.626 71.6405L250.952 68.3093L250.68 67.5842L243.355 70.9155Z" fill="white"/>
<path opacity="0.4" d="M247.826 67.4131L248.098 68.1382L250.485 67.0527L250.213 66.3277L247.826 67.4131Z" fill="white"/>
<path opacity="0.4" d="M248.634 68.9742L248.904 69.6959L249.642 69.3606L249.371 68.6389L248.634 68.9742Z" fill="white"/>
<path d="M253.447 67.1021C253.733 66.9694 254.048 66.933 254.353 66.9976C254.658 67.0622 254.938 67.2249 255.159 67.4651C255.379 67.7053 255.53 68.0122 255.592 68.3469C255.654 68.6815 255.625 69.029 255.507 69.3452C255.39 69.6614 255.19 69.9321 254.933 70.1231C254.676 70.3141 254.373 70.4168 254.063 70.4181C253.752 70.4194 253.449 70.3193 253.19 70.1305C252.932 69.9417 252.73 69.6727 252.61 69.3575C252.45 68.9361 252.449 68.4621 252.606 68.0394C252.763 67.6166 253.065 67.2796 253.447 67.1021Z" fill="white"/>
<path d="M253.339 69.1654L253.509 69.6185L254.941 68.967L254.771 68.5138L253.339 69.1654Z" fill="#407BFF"/>
<path d="M253.036 68.4087L253.206 68.8619L254.638 68.2109L254.468 67.7577L253.036 68.4087Z" fill="#407BFF"/>
<path d="M252.005 63.2582C252.193 63.172 252.395 63.1274 252.599 63.127C252.803 63.1266 253.005 63.1705 253.193 63.2561C253.382 63.3417 253.553 63.4673 253.698 63.6258C253.842 63.7844 253.957 63.9727 254.035 64.18C254.114 64.3873 254.154 64.6096 254.154 64.8341C254.155 65.0587 254.115 65.2811 254.037 65.4887C253.959 65.6963 253.845 65.8851 253.701 66.0441C253.557 66.2032 253.386 66.3294 253.198 66.4157C253.01 66.502 252.808 66.5466 252.604 66.5469C252.4 66.5473 252.198 66.5034 252.009 66.4178C251.821 66.3323 251.649 66.2066 251.505 66.0481C251.361 65.8896 251.246 65.7013 251.168 65.4939C251.089 65.2866 251.049 65.0643 251.048 64.8398C251.048 64.6152 251.088 64.3928 251.166 64.1852C251.243 63.9776 251.357 63.7889 251.501 63.6298C251.645 63.4708 251.816 63.3445 252.005 63.2582Z" fill="white"/>
<path d="M251.809 64.984L253.251 64.3369L252.254 63.9446L251.809 64.984Z" fill="#407BFF"/>
<path d="M252.076 65.7097L253.519 65.0429L252.539 64.6507L252.076 65.7097Z" fill="#407BFF"/>
<path d="M256.084 74.0838C256.372 73.9566 256.62 73.7379 256.795 73.4553C256.97 73.1727 257.066 72.8391 257.068 72.4969C257.071 72.1547 256.981 71.8193 256.811 71.5334C256.64 71.2475 256.396 71.0239 256.109 70.8911C255.823 70.7583 255.507 70.7222 255.202 70.7876C254.897 70.8529 254.616 71.0166 254.396 71.2579C254.175 71.4992 254.025 71.8073 253.964 72.1428C253.903 72.4784 253.934 72.8263 254.053 73.1425C254.129 73.3519 254.243 73.5425 254.386 73.7034C254.53 73.8642 254.701 73.9922 254.89 74.0797C255.079 74.1673 255.281 74.2127 255.486 74.2134C255.691 74.2141 255.894 74.1701 256.084 74.0838Z" fill="white"/>
<path d="M254.837 73.0641L256.279 72.3973L255.816 73.4563L254.837 73.0641Z" fill="#407BFF"/>
<path d="M254.569 72.3384L256.012 71.6912L255.549 72.7306L254.569 72.3384Z" fill="#407BFF"/>
<path d="M226.143 66.5726C229.598 73.162 228.708 80.8694 224.148 83.7719C219.589 86.6744 213.105 83.6542 209.65 77.0647C206.195 70.4753 207.067 62.7679 211.627 59.885C216.187 57.0021 222.688 59.9831 226.143 66.5726Z" fill="#263238"/>
<path opacity="0.2" d="M226.143 66.5726C229.598 73.162 228.708 80.8694 224.148 83.7719C219.589 86.6744 213.105 83.6542 209.65 77.0647C206.195 70.4753 207.067 62.7679 211.627 59.885C216.187 57.0021 222.688 59.9831 226.143 66.5726Z" fill="#484A92"/>
<path d="M221.512 69.5143C223.917 74.1034 223.293 79.4574 220.123 81.4774C216.952 83.4974 212.446 81.4774 210.042 76.8098C207.637 72.1423 208.261 66.8864 211.413 64.8664C214.566 62.8464 219.108 64.9448 221.512 69.5143Z" fill="#BCBCFF"/>
<path d="M209.08 46.9218C215.706 48.3927 221.548 62.7876 216.917 75.3978C212.286 88.008 193.656 55.3352 193.656 55.3352C193.656 55.3352 204.859 45.9805 209.08 46.9218Z" fill="#263238"/>
<path d="M200.299 106.364C203.724 108.025 207.55 108.403 211.189 107.439C214.828 106.476 218.079 104.224 220.444 101.03C223.583 96.9707 225.195 91.7442 224.95 86.4195C224.95 85.6938 224.843 84.9486 224.754 84.2034C222.795 70.593 213.408 50.8638 199.088 51.001C195.925 51.004 192.815 51.898 190.054 53.598C187.293 55.2981 184.973 57.7476 183.314 60.7137C181.656 63.6797 180.715 67.0637 180.579 70.5436C180.444 74.0235 181.119 77.4836 182.542 80.5949C188.437 94.0092 191.34 102.207 200.299 106.364Z" fill="#BAB8F0"/>
<path d="M204.948 77.2805C204.271 77.5943 203.327 76.9471 202.989 75.8097C202.937 75.6782 202.901 75.5397 202.882 75.3978C203.02 75.7766 203.273 76.0911 203.597 76.2877C203.922 76.4844 204.299 76.5511 204.663 76.4764C205.215 76.2215 205.429 75.3978 205.269 74.5153C205.305 74.5833 205.335 74.6557 205.358 74.731C205.803 75.8293 205.625 76.9863 204.948 77.2805Z" fill="#263238"/>
<path d="M216.472 72.1227C215.813 72.4364 214.851 71.7893 214.495 70.6518C214.423 70.4692 214.369 70.2785 214.334 70.0831C214.726 71.0833 215.599 71.5931 216.115 71.299C216.632 71.0048 216.899 70.1615 216.703 69.2202C216.703 69.3182 216.703 69.4162 216.828 69.5339C217.326 70.5733 217.131 71.75 216.472 72.1227Z" fill="#263238"/>
<path d="M211.039 72.7894C213.54 75.6623 216.386 78.1434 219.5 80.1634C219.006 81.034 218.345 81.775 217.564 82.3341C216.782 82.8931 215.899 83.2568 214.976 83.3993L211.039 72.7894Z" fill="#5988FF"/>
<path d="M216.739 63.2191C216.661 63.3193 216.561 63.3968 216.449 63.4447C216.338 63.4926 216.217 63.5094 216.098 63.4936C215.303 63.3235 214.483 63.3608 213.703 63.6026C212.924 63.8444 212.207 64.284 211.609 64.886C211.552 64.9543 211.483 65.0094 211.406 65.0483C211.33 65.0872 211.247 65.1092 211.162 65.1128C211.078 65.1164 210.994 65.1017 210.915 65.0696C210.835 65.0374 210.763 64.9884 210.701 64.9253C210.639 64.8622 210.589 64.7862 210.553 64.7018C210.518 64.6174 210.498 64.5262 210.495 64.4333C210.492 64.3404 210.505 64.2477 210.534 64.1605C210.563 64.0733 210.608 63.9933 210.665 63.9251C211.403 63.1421 212.301 62.5658 213.284 62.245C214.267 61.9242 215.305 61.8681 216.311 62.0816C216.396 62.0936 216.477 62.124 216.551 62.1712C216.625 62.2183 216.689 62.2811 216.741 62.356C216.792 62.4308 216.829 62.5163 216.851 62.6072C216.872 62.6982 216.876 62.7928 216.863 62.8856C216.83 63.0004 216.789 63.1119 216.739 63.2191Z" fill="#263238"/>
<path d="M198.803 71.7696C198.682 71.8192 198.55 71.8192 198.429 71.7696C198.351 71.7318 198.281 71.677 198.224 71.6084C198.166 71.5398 198.121 71.459 198.093 71.3708C198.065 71.2827 198.053 71.1891 198.059 71.0958C198.064 71.0025 198.087 70.9114 198.126 70.8282C198.571 69.8029 199.234 68.911 200.059 68.2281C200.884 67.5453 201.846 67.0917 202.864 66.9059C202.949 66.8922 203.035 66.8978 203.118 66.9225C203.2 66.9471 203.277 66.9902 203.344 67.049C203.411 67.1079 203.466 67.1813 203.506 67.2647C203.546 67.348 203.57 67.4395 203.576 67.5335C203.587 67.719 203.535 67.9023 203.429 68.0474C203.324 68.1925 203.173 68.289 203.006 68.318C202.209 68.485 201.458 68.856 200.815 69.401C200.171 69.946 199.653 70.6499 199.302 71.4558C199.248 71.5483 199.174 71.6251 199.087 71.6797C199 71.7343 198.903 71.7652 198.803 71.7696Z" fill="#263238"/>
<path d="M185.284 59.2379L186.353 61.199C185.035 63.1602 187.03 69.632 188.847 71.554C192.712 75.6528 193.46 84.7329 191.287 89.6358C191.287 89.6358 190.254 87.5177 188.811 88.8905C187.368 90.2633 192.64 101.305 198.18 105.011C198.18 105.011 191.216 102.677 183.379 92.2833C176.147 82.6541 171.944 73.672 172.175 68.3769L185.284 59.2379Z" fill="#263238"/>
<path d="M181.33 94.3818C183.885 96.8613 187.229 98.1237 190.628 97.8922C195.134 97.5588 195.882 92.7148 193.388 88.8905C191.126 85.5173 186.05 81.497 182.132 83.7523C178.213 86.0076 178.213 91.2831 181.33 94.3818Z" fill="#E4897B"/>
<path d="M215.545 87.302C215.502 89.1955 215.586 91.0898 215.795 92.9698L214.922 93.2443C210.968 94.4602 208.777 93.5777 207.531 92.2441C206.938 91.5763 206.499 90.763 206.248 89.8711C206.1 89.3692 206.01 88.8486 205.981 88.3218C208.727 88.768 211.528 88.5539 214.192 87.6943C214.649 87.5911 215.101 87.4602 215.545 87.302Z" fill="#190C43"/>
<path d="M214.156 87.6942V89.3808C210.434 90.5183 207.673 90.7536 206.177 89.8711C206.029 89.3692 205.939 88.8486 205.91 88.3218C208.667 88.7737 211.481 88.5596 214.156 87.6942Z" fill="white"/>
<path d="M214.922 93.2443C210.968 94.4602 208.777 93.5777 207.531 92.2441C209.041 91.8126 210.609 91.6798 212.161 91.8519C213.191 91.9888 214.156 92.4755 214.922 93.2443Z" fill="#5988FF"/>
<path d="M173.565 75.2606C170.804 72.7307 168.221 66.3177 174.687 56.0413C181.152 45.7648 199.622 37.0377 207.53 39.3715C215.438 41.7052 214.851 53.7271 204.182 61.0814L207.53 55.649C207.53 55.649 199.943 63.2387 193.656 66.1412C196.69 63.3533 199.18 59.9176 200.976 56.0413C200.976 56.0413 189.132 65.2391 182.435 67.8082C178.769 69.0551 175.625 71.6966 173.565 75.2606Z" fill="#190C43"/>
<path d="M193.549 84.1642C197.004 90.7733 196.114 98.461 191.554 101.364C186.994 104.266 180.493 101.364 177.038 94.6564C173.583 87.9492 174.473 80.3791 179.033 77.4766C183.592 74.5741 190.076 77.5747 193.549 84.1642Z" fill="#263238"/>
<path opacity="0.2" d="M193.549 84.1642C197.004 90.7733 196.114 98.461 191.554 101.364C186.994 104.266 180.493 101.364 177.038 94.6564C173.583 87.9492 174.473 80.3791 179.033 77.4766C183.592 74.5741 190.076 77.5747 193.549 84.1642Z" fill="#484A92"/>
<path d="M182.898 83.3993C182.898 83.3993 175.773 56.0804 185.284 46.0197C184.423 46.1654 183.583 46.4426 182.791 46.8434C181.259 47.569 171.16 59.2183 177.857 84.5564L182.898 83.3993Z" fill="#407BFF"/>
<path opacity="0.2" d="M182.898 83.3993C182.898 83.3993 175.773 56.0804 185.284 46.0197C184.423 46.1654 183.583 46.4426 182.791 46.8434C181.259 47.569 171.16 59.2183 177.857 84.5564L182.898 83.3993Z" fill="#BCBCFF"/>
<path d="M203.933 139.076C201.085 139.087 198.302 138.143 195.953 136.37C184.162 127.584 184.715 99.1082 184.732 97.7942C184.749 97.669 184.803 97.5539 184.888 97.4681C184.972 97.3824 185.081 97.3313 185.195 97.3236C185.255 97.3233 185.313 97.3367 185.368 97.3627C185.422 97.3888 185.471 97.427 185.511 97.475C185.551 97.5229 185.582 97.5795 185.601 97.6413C185.62 97.703 185.628 97.7684 185.623 97.8334C185.623 98.108 185.071 127.074 196.452 135.546C207.833 144.019 221.031 128.898 221.174 128.761C221.214 128.714 221.262 128.677 221.316 128.651C221.369 128.625 221.427 128.612 221.485 128.612C221.544 128.612 221.602 128.625 221.655 128.651C221.709 128.677 221.757 128.714 221.797 128.761C221.879 128.852 221.924 128.976 221.924 129.104C221.924 129.232 221.879 129.356 221.797 129.447C221.708 129.545 213.284 139.076 203.933 139.076Z" fill="#407BFF"/>
<g opacity="0.2">
<path d="M203.933 139.076C201.085 139.087 198.302 138.143 195.953 136.37C184.162 127.584 184.715 99.1082 184.732 97.7942C184.749 97.669 184.803 97.5539 184.888 97.4681C184.972 97.3824 185.081 97.3313 185.195 97.3236C185.255 97.3233 185.313 97.3367 185.368 97.3627C185.422 97.3888 185.471 97.427 185.511 97.475C185.551 97.5229 185.582 97.5795 185.601 97.6413C185.62 97.703 185.628 97.7684 185.623 97.8334C185.623 98.108 185.071 127.074 196.452 135.546C207.833 144.019 221.031 128.898 221.174 128.761C221.214 128.714 221.262 128.677 221.316 128.651C221.369 128.625 221.427 128.612 221.485 128.612C221.544 128.612 221.602 128.625 221.655 128.651C221.709 128.677 221.757 128.714 221.797 128.761C221.879 128.852 221.924 128.976 221.924 129.104C221.924 129.232 221.879 129.356 221.797 129.447C221.708 129.545 213.284 139.076 203.933 139.076Z" fill="black"/>
</g>
<path d="M188.9 87.1255C191.305 91.695 190.681 97.049 187.529 99.0689C184.376 101.089 179.834 99.0689 177.43 94.421C175.025 89.7731 175.649 84.478 178.819 82.458C181.989 80.438 186.496 82.5364 188.9 87.1255Z" fill="#BCBCFF"/>
<path d="M227.35 114.172C226.869 114.172 226.602 114.172 226.566 114.172L226.673 113.282C226.869 113.282 245.873 115.187 252.505 83.1088C258.995 51.618 263.719 28.8726 294.989 34.8573C324.315 40.4679 334.317 0.409666 334.317 0L335.19 0.213744C335.101 0.605599 326.277 36.2466 300.462 36.2644C298.534 36.2611 296.612 36.0702 294.721 35.6944C265.716 30.1372 260.332 49.16 253.272 83.2513C247.282 112.427 231.059 114.172 227.35 114.172Z" fill="#868393"/>
<path d="M230.131 117.806C229.404 117.811 228.678 117.769 227.956 117.681L228.099 116.808C228.313 116.808 249.385 119.961 258.157 91.7652C259.69 86.7958 260.92 82.1826 262.097 77.7119C267.641 56.7477 271.296 42.8903 297.538 42.8903C330.537 42.8903 341.18 29.3178 347.67 7.4274L348.508 7.67676C340.717 34.0023 326.9 43.7808 297.538 43.7808C271.92 43.7808 268.586 56.623 263.006 77.9969C261.829 82.4676 260.599 87.0986 259.048 92.0859C251.685 115.544 235.908 117.806 230.131 117.806Z" fill="#868393"/>
<path d="M235.07 123.22C233.057 123.24 231.046 123.079 229.062 122.74L229.24 121.867C229.436 121.867 249.082 125.75 258.192 110.824C260.737 106.138 262.866 101.239 264.557 96.1825C271.278 78.2641 279.639 55.9283 306.078 54.6281C342.749 52.8469 355.55 44.2083 363.126 16.2976L364 16.5291C355.425 47.8597 339.202 53.9334 306.06 55.5187C280.21 56.8011 271.973 78.8162 265.341 96.4853C263.636 101.593 261.482 106.54 258.905 111.269C252.755 121.475 241.862 123.22 235.07 123.22Z" fill="#868393"/>
<path d="M276.876 42.8725C275.877 42.4272 274.772 42.2847 273.845 41.9463C272.899 41.6223 271.995 41.1857 271.153 40.6461C270.337 40.1499 269.588 39.5513 268.925 38.8649C268.803 38.7565 268.656 38.6802 268.497 38.6429C268.338 38.6056 268.173 38.6084 268.015 38.6512C267.92 38.6711 267.83 38.7126 267.753 38.7725C267.676 38.8323 267.613 38.909 267.571 38.9966C267.528 39.0842 267.505 39.1804 267.505 39.278C267.505 39.3755 267.527 39.4718 267.57 39.5596L273.417 51.7783C272.143 51.4503 270.805 51.4503 269.531 51.7783C266.732 52.5442 265.127 54.5925 265.965 56.3559C266.803 58.1192 269.745 58.9386 272.526 58.137C275.307 57.3355 276.911 55.3228 276.091 53.5595C275.938 53.2589 275.733 52.9877 275.485 52.7579L270.137 41.216L270.583 41.4654C271.574 41.935 272.614 42.2934 273.685 42.5341C274.79 42.7656 275.788 42.7835 276.769 43.0863C277.759 43.3838 278.702 43.8217 279.568 44.3865C278.753 43.747 277.846 43.2364 276.876 42.8725Z" fill="#484A92"/>
<path d="M326.58 41.5544C325.349 41.0023 323.995 40.8241 322.854 40.4145C321.687 40.0036 320.569 39.4661 319.52 38.8114C318.522 38.1985 317.6 37.469 316.774 36.6384C316.622 36.5081 316.44 36.4159 316.245 36.3694C316.05 36.323 315.846 36.3236 315.651 36.3712C315.533 36.3988 315.423 36.4527 315.329 36.529C315.234 36.6053 315.159 36.7019 315.107 36.8116C315.056 36.9213 315.03 37.0413 315.031 37.1625C315.033 37.2836 315.062 37.4029 315.116 37.5112L322.247 52.562C320.675 52.1539 319.024 52.1539 317.452 52.562C313.993 53.4882 312.103 56.0174 313.066 58.1904C314.029 60.3634 317.701 61.3787 321.142 60.4347C324.583 59.4907 326.49 56.9792 325.528 54.7884C325.332 54.424 325.079 54.0932 324.779 53.8088L318.218 39.5595L318.771 39.8445C319.99 40.4392 321.277 40.8818 322.604 41.1626C323.941 41.4654 325.189 41.4832 326.383 41.875C327.611 42.2237 328.777 42.7583 329.842 43.4603C328.858 42.6632 327.758 42.0205 326.58 41.5544Z" fill="#484A92"/>
<path d="M247.674 98.9611C246.925 98.6227 246.105 98.5158 245.41 98.2665C244.042 97.7855 242.795 97.0137 241.755 96.0044C241.662 95.922 241.549 95.8642 241.428 95.8362C241.306 95.8082 241.18 95.8109 241.06 95.8441C240.99 95.8609 240.925 95.8931 240.869 95.9384C240.813 95.9837 240.768 96.0409 240.737 96.1058C240.707 96.1707 240.691 96.2417 240.691 96.3136C240.691 96.3854 240.708 96.4562 240.739 96.5209L245.089 105.623C244.136 105.374 243.136 105.374 242.183 105.623C240.115 106.193 238.921 107.724 239.544 109.042C240.168 110.361 242.343 110.948 244.429 110.396C246.515 109.844 247.692 108.294 247.068 106.976C246.957 106.754 246.806 106.555 246.622 106.389L242.646 97.7856L242.985 97.9815C243.727 98.3272 244.504 98.59 245.303 98.7652C246.123 98.9433 246.872 98.9611 247.603 99.1927C248.342 99.4065 249.046 99.7308 249.688 100.155C249.079 99.661 248.4 99.259 247.674 98.9611Z" fill="#484A92"/>
</svg>
