<svg width="38" height="38" viewBox="0 0 38 38" fill="none" xmlns="http://www.w3.org/2000/svg">
<path d="M19.134 21.1035L20.2292 22.4597C20.3739 22.6465 20.5594 22.7978 20.7716 22.9018C20.9837 23.0059 21.2169 23.0601 21.4532 23.0601H26.1059" stroke="#190C40" stroke-width="2" stroke-miterlimit="10" stroke-linecap="round"/>
<path d="M9.27686 14.8638H13.8809C14.1174 14.864 14.3507 14.9185 14.5628 15.0229C14.775 15.1273 14.9604 15.2789 15.1049 15.4661L16.2468 16.8861" stroke="#190C40" stroke-width="2" stroke-miterlimit="10" stroke-linecap="round"/>
<path d="M26.1059 14.8638H21.4999C21.2637 14.8638 21.0305 14.9179 20.8184 15.0219C20.6062 15.1259 20.4207 15.277 20.276 15.4638L15.1517 22.46C15.0069 22.6467 14.8214 22.7979 14.6092 22.9019C14.3971 23.0059 14.1639 23.06 13.9277 23.06H9.27686" stroke="#190C40" stroke-width="2" stroke-miterlimit="10" stroke-linecap="round"/>
<path d="M25.7632 12.6577L28.723 14.8477" stroke="#190C40" stroke-width="2" stroke-miterlimit="10" stroke-linecap="round"/>
<path d="M28.723 14.8906L25.7632 17.0806" stroke="#190C40" stroke-width="2" stroke-miterlimit="10" stroke-linecap="round"/>
<path d="M25.7632 20.9194L28.723 23.1094" stroke="#190C40" stroke-width="2" stroke-miterlimit="10" stroke-linecap="round"/>
<path d="M28.723 23.1523L25.7632 25.3423" stroke="#190C40" stroke-width="2" stroke-miterlimit="10" stroke-linecap="round"/>
</svg>
