<svg width="615" height="567" viewBox="0 0 615 567" fill="none" xmlns="http://www.w3.org/2000/svg">
<path d="M360.525 58.1742H196.911V289.465H360.525V58.1742Z" fill="#DBDBDB"/>
<path d="M274.917 67.439H205.828V170.315H274.917V67.439Z" fill="white"/>
<path d="M351.608 67.439H282.519V170.315H351.608V67.439Z" fill="white"/>
<path d="M274.917 177.324H205.828V280.2H274.917V177.324Z" fill="white"/>
<path d="M351.608 177.324H282.519V280.2H351.608V177.324Z" fill="white"/>
<path d="M235.668 58.1742H196.911V389.075H235.668V58.1742Z" fill="#EBEBEB"/>
<path d="M228.313 73.9028L228.62 109.681L228.719 145.458L228.928 217.014L228.731 288.569L228.62 324.347L228.313 360.124L228.018 324.347L227.907 288.569L227.698 217.014L227.907 145.458L228.018 109.681L228.313 73.9028Z" fill="white"/>
<path d="M210.527 82.2036L210.822 114.148L210.994 146.093L211.142 209.983L210.994 273.884L210.822 305.828L210.527 337.773L210.219 305.828L210.047 273.884L209.912 209.983L210.047 146.093L210.219 114.148L210.527 82.2036Z" fill="white"/>
<path d="M219.42 89.7448L219.715 127.155L219.826 164.555L220.035 239.376L219.826 314.186L219.715 351.597L219.42 388.996L219.125 351.597L219.014 314.186L218.805 239.376L219.014 164.555L219.125 127.155L219.42 89.7448Z" fill="white"/>
<path d="M203.909 75.7965L204.205 114.942L204.315 154.088L204.524 232.391L204.315 310.693L204.205 349.85L203.909 388.996L203.602 349.85L203.491 310.693L203.294 232.391L203.491 154.088L203.602 114.942L203.909 75.7965Z" fill="white"/>
<path d="M321.768 389.075H360.525L360.525 58.1742H321.768L321.768 389.075Z" fill="#EBEBEB"/>
<path d="M329.111 73.9028L329.419 109.681L329.529 145.458L329.726 217.014L329.529 288.569L329.419 324.347L329.111 360.124L328.816 324.347L328.705 288.569L328.509 217.014L328.705 145.458L328.816 109.681L329.111 73.9028Z" fill="white"/>
<path d="M346.909 82.2036L347.217 114.148L347.389 146.093L347.524 209.983L347.389 273.884L347.217 305.828L346.909 337.773L346.614 305.828L346.442 273.884L346.294 209.983L346.442 146.093L346.614 114.148L346.909 82.2036Z" fill="white"/>
<path d="M338.016 89.7448L338.312 127.155L338.422 164.555L338.631 239.376L338.422 314.186L338.312 351.597L338.016 388.996L337.709 351.597L337.61 314.186L337.401 239.376L337.61 164.555L337.721 127.155L338.016 89.7448Z" fill="white"/>
<path d="M353.527 75.7965L353.834 114.942L353.933 154.088L354.142 232.391L353.933 310.693L353.834 349.85L353.527 388.996L353.232 349.85L353.121 310.693L352.912 232.391L353.121 154.088L353.232 114.942L353.527 75.7965Z" fill="white"/>
<path d="M507.252 401.334H539.823V388.645H507.252V401.334Z" fill="#EBEBEB"/>
<path d="M525.432 417.335H558.002V404.645H525.432V417.335Z" fill="#EBEBEB"/>
<path d="M157.182 307.359H189.752V294.67H157.182V307.359Z" fill="#EBEBEB"/>
<path d="M175.337 323.36H207.907V310.671H175.337V323.36Z" fill="#EBEBEB"/>
<path d="M402.395 199.471H434.965V186.781H402.395V199.471Z" fill="#EBEBEB"/>
<path d="M420.574 215.471H453.144V202.782H420.574V215.471Z" fill="#EBEBEB"/>
<path d="M438.68 199.471H471.25V186.781H438.68V199.471Z" fill="#EBEBEB"/>
<path d="M56.9982 417.335H89.5686V404.645H56.9982V417.335Z" fill="#EBEBEB"/>
<path d="M75.1777 83.3263H107.748V70.6368H75.1777V83.3263Z" fill="#EBEBEB"/>
<path d="M56.9982 99.327H89.5686V86.6376H56.9982V99.327Z" fill="#EBEBEB"/>
<path d="M486.158 378.268H525.825L548.531 273.906L512.209 258.518L486.158 378.268Z" fill="#DBDBDB"/>
<path d="M372.604 378.268H486.158L512.209 258.518H398.655L372.604 378.268Z" fill="#EBEBEB"/>
<path d="M506.526 437.293H567.325V322.271H506.526V437.293Z" fill="#DBDBDB"/>
<path d="M343.428 437.293H360.033L384.781 322.283H343.428V437.293Z" fill="#DBDBDB"/>
<path d="M473.107 437.293H506.514V322.271H473.107V437.293Z" fill="#EBEBEB"/>
<path d="M310.022 437.293H343.428V322.271H310.022V437.293Z" fill="#EBEBEB"/>
<path d="M343.416 437.304H473.107V378.28H343.416V437.304Z" fill="#EBEBEB"/>
<path d="M343.416 378.518H473.107V352.765H343.416V378.518Z" fill="#EBEBEB"/>
<path d="M498.335 322.283L485.727 322.056L473.12 321.909H472.738V322.271L472.591 335.732V349.193C472.591 358.163 472.517 367.132 472.591 376.102C472.664 385.072 472.591 394.054 472.751 403.024C472.91 411.994 472.972 420.975 473.181 429.945C473.378 420.979 473.517 412.005 473.599 403.024C473.722 394.054 473.735 385.084 473.771 376.102C473.808 367.121 473.771 358.163 473.771 349.193L473.71 335.732L473.55 322.283L473.169 322.634L485.776 322.487L498.335 322.283Z" fill="#DBDBDB"/>
<path d="M343.428 322.283C343.158 331.287 343.047 340.291 342.936 349.295L342.789 376.318L342.936 403.341L343.109 416.847L343.428 430.364L343.736 416.847L343.908 403.341L344.056 376.318L343.908 349.272C343.81 340.291 343.687 331.287 343.428 322.283Z" fill="#DBDBDB"/>
<path d="M343.428 378.268C354.228 378.518 365.039 378.62 375.851 378.722L408.274 378.858L440.697 378.722L456.908 378.563L473.12 378.268L456.908 377.985L440.697 377.826L408.274 377.69L375.851 377.826C365.039 377.917 354.24 378.03 343.428 378.268Z" fill="#DBDBDB"/>
<path d="M343.428 352.753C354.228 352.992 365.039 353.105 375.851 353.207L408.274 353.332L440.697 353.207L456.908 353.037L473.12 352.753L456.908 352.47L440.697 352.311L408.274 352.175L375.851 352.311C365.039 352.402 354.24 352.515 343.428 352.753Z" fill="#DBDBDB"/>
<path d="M544.214 437.293L545.038 446.615L546.956 468.138H555.763L557.682 446.615L558.506 437.293H544.214Z" fill="#C7C7C7"/>
<path d="M558.506 437.293H544.214L545.038 446.615H557.682L558.506 437.293Z" fill="#A6A6A6"/>
<path d="M482.677 437.293L483.501 446.615L485.42 468.138H494.226L496.145 446.615L496.969 437.293H482.677Z" fill="#C7C7C7"/>
<path d="M496.969 437.293H482.677L483.501 446.615H496.145L496.969 437.293Z" fill="#A6A6A6"/>
<path d="M380.599 437.293L381.423 446.615L383.342 468.138H392.136L394.068 446.615L394.879 437.293H380.599Z" fill="#C7C7C7"/>
<path d="M394.879 437.293H380.599L381.423 446.615H394.068L394.879 437.293Z" fill="#A6A6A6"/>
<path d="M319.037 437.293L319.862 446.615L321.78 468.138H330.587L332.506 446.615L333.33 437.293H319.037Z" fill="#C7C7C7"/>
<path d="M319.037 437.293L319.862 446.615H332.506L333.33 437.293H319.037Z" fill="#A6A6A6"/>
<path d="M130.134 68.6296H69.7288V124.32H130.134V68.6296Z" fill="white"/>
<path d="M66.5801 65.772V127.257H133.271V65.772H66.5801ZM130.134 124.354H69.7289V68.6297H130.134V124.354Z" fill="#DBDBDB"/>
<path d="M125.78 113.547V94.2921H78.6954V113.547H125.78Z" fill="#EBEBEB"/>
<path d="M111.992 107.594V85.3562H87.8714V107.594H111.992Z" fill="#C7C7C7"/>
<path d="M135.841 65.738H133.271V127.224H135.841V65.738Z" fill="#C7C7C7"/>
<path d="M130.134 147.703H69.7288V203.394H130.134V147.703Z" fill="white"/>
<path d="M95.8787 156.617H80.1101V198.62H95.8787V156.617Z" fill="#C7C7C7"/>
<path d="M66.5801 144.812V206.297H133.271V144.812H66.5801ZM130.134 203.394H69.7289V147.703H130.134V203.394Z" fill="#DBDBDB"/>
<path d="M111.992 164.43H87.8713V186.668H111.992V164.43Z" fill="#EBEBEB"/>
<path d="M135.841 144.812H133.271V206.297H135.841V144.812Z" fill="#C7C7C7"/>
<path d="M130.134 226.789H69.7288V282.479H130.134V226.789Z" fill="white"/>
<path d="M109.568 234.375H76.4199V252.644H109.568V234.375Z" fill="#EBEBEB"/>
<path d="M66.5801 223.886V285.371H133.271V223.886H66.5801ZM130.134 282.479H69.7289V226.8H130.134V282.479Z" fill="#DBDBDB"/>
<path d="M111.992 243.515H87.8713V265.753H111.992V243.515Z" fill="#C7C7C7"/>
<path d="M135.841 223.886H133.271V285.371H135.841V223.886Z" fill="#C7C7C7"/>
<path d="M47.6748 468.138L112.631 467.866L177.587 467.764L307.5 467.582L437.413 467.764L502.369 467.866L567.325 468.138L502.369 468.421L437.413 468.524L307.5 468.705L177.587 468.524L112.631 468.421L47.6748 468.138Z" fill="#263238"/>
<path d="M307.5 536.983C376.511 536.983 432.456 532.013 432.456 525.881C432.456 519.75 376.511 514.779 307.5 514.779C238.489 514.779 182.544 519.75 182.544 525.881C182.544 532.013 238.489 536.983 307.5 536.983Z" fill="#EBEBEB"/>
<path d="M152.692 345.632C148.129 341.504 142.225 336.56 135.239 338.295C128.67 339.973 126.161 346.584 124.98 352.084C123.467 359.183 122.287 366.35 121.069 373.505C119.851 380.661 118.609 387.941 117.539 395.176C116.912 399.259 116.309 403.341 115.657 407.423L114.734 413.547C114.439 415.554 114.07 417.55 113.947 419.569C113.947 420.215 115.005 420.306 115.177 419.693C116.026 416.291 116.407 412.753 116.912 409.295C117.416 405.836 118.006 402.343 118.56 398.862C119.654 391.967 120.786 385.061 121.905 378.166C123.025 371.272 124.205 364.365 125.399 357.471C126.419 351.619 126.899 344.362 132.52 340.461C134.043 339.498 135.807 338.909 137.645 338.751C139.483 338.592 141.335 338.868 143.024 339.554C146.714 340.858 149.679 343.296 152.569 345.711C152.583 345.714 152.598 345.715 152.612 345.713C152.626 345.71 152.639 345.705 152.651 345.698C152.662 345.69 152.672 345.68 152.679 345.669C152.687 345.658 152.691 345.645 152.692 345.632Z" fill="#263238"/>
<path d="M146.444 341.413C146.444 341.413 137.108 338.317 132.496 344.6C127.883 350.882 133.406 366.849 175.902 375.864C174.657 363.613 171.203 351.64 165.681 340.438C156.567 322.124 140.331 329.064 146.444 341.413Z" fill="#008000"/>
<path d="M173.43 373.256C172.783 372.157 172.068 371.094 171.29 370.07L169.137 367.053C168.584 366.305 168.03 365.556 167.464 364.785C167.506 364.598 167.535 364.409 167.551 364.218L167.698 363.198C167.797 362.472 167.92 361.735 168.03 360.998C168.141 360.26 168.276 359.546 168.436 358.82C168.535 358.049 168.72 357.289 168.99 356.552C168.99 356.439 168.817 356.382 168.805 356.552C168.714 356.992 168.587 357.424 168.424 357.845C168.325 358.174 168.227 358.503 168.141 358.832C167.936 359.588 167.739 360.344 167.551 361.1C167.391 361.791 167.243 362.483 167.12 363.175C167.059 363.515 166.997 363.844 166.948 364.184C166.198 363.186 165.423 362.2 164.623 361.236C162.372 358.491 159.986 355.849 157.514 353.298C157.514 353.298 157.514 353.298 157.514 353.23C157.735 349.113 157.624 345.042 158.621 340.982C158.621 340.88 158.461 340.812 158.436 340.926C157.308 344.742 156.774 348.686 156.85 352.64C155.964 351.733 155.066 350.826 154.156 349.93C152.089 347.877 149.986 345.847 147.821 343.874C147.803 343.864 147.78 343.859 147.758 343.861C147.736 343.864 147.716 343.873 147.7 343.887C147.685 343.902 147.675 343.921 147.672 343.941C147.67 343.961 147.675 343.982 147.686 343.999C151.265 347.548 154.672 351.257 157.981 355.021C155.387 354.983 152.792 355.071 150.208 355.282C147.329 355.486 144.463 355.827 141.598 356.189C141.475 356.189 141.511 356.382 141.598 356.359C144.452 355.983 147.326 355.748 150.208 355.656C152.987 355.543 155.743 355.656 158.51 355.656C160.306 357.698 162.077 359.758 163.824 361.837H163.59C162.938 361.837 162.286 361.837 161.634 361.837C160.343 361.837 159.039 361.939 157.76 362.041C155.12 362.235 152.498 362.594 149.912 363.118C149.886 363.118 149.861 363.128 149.843 363.145C149.824 363.162 149.814 363.185 149.814 363.209C149.814 363.233 149.824 363.256 149.843 363.273C149.861 363.29 149.886 363.3 149.912 363.3C152.52 363.027 155.14 362.801 157.76 362.71C158.99 362.71 160.22 362.71 161.524 362.71H163.479C163.839 362.756 164.205 362.725 164.549 362.619C165.693 363.991 166.837 365.352 167.969 366.736C168.879 367.87 169.765 368.936 170.638 370.047C171.511 371.158 172.335 372.428 173.332 373.449C173.43 373.438 173.504 373.335 173.43 373.256Z" fill="#263238"/>
<path d="M150.503 350.315C148.998 350.134 147.48 350.066 145.964 350.111C144.451 350.111 142.926 350.111 141.413 350.202C141.398 350.197 141.382 350.195 141.366 350.197C141.351 350.199 141.336 350.204 141.323 350.212C141.31 350.221 141.299 350.232 141.292 350.245C141.284 350.258 141.28 350.272 141.28 350.287C141.28 350.301 141.284 350.316 141.292 350.329C141.299 350.342 141.31 350.353 141.323 350.361C141.336 350.37 141.351 350.375 141.366 350.377C141.382 350.379 141.398 350.377 141.413 350.372C142.951 350.27 144.488 350.247 146.026 350.27C147.563 350.293 149.002 350.417 150.49 350.383L150.503 350.315Z" fill="#263238"/>
<path d="M163.848 353.468C164.021 352.13 164.205 350.791 164.513 349.476C164.518 349.462 164.52 349.448 164.518 349.433C164.516 349.419 164.51 349.405 164.501 349.393C164.492 349.381 164.48 349.371 164.466 349.364C164.452 349.357 164.436 349.354 164.42 349.354C164.404 349.354 164.389 349.357 164.375 349.364C164.361 349.371 164.349 349.381 164.339 349.393C164.33 349.405 164.325 349.419 164.323 349.433C164.321 349.448 164.323 349.462 164.328 349.476C164.107 350.791 163.836 352.107 163.627 353.422C163.516 354.08 163.418 354.749 163.332 355.407C163.201 356.023 163.143 356.65 163.16 357.278C163.16 357.308 163.172 357.337 163.196 357.358C163.219 357.379 163.25 357.391 163.283 357.391C163.315 357.391 163.346 357.379 163.369 357.358C163.393 357.337 163.406 357.308 163.406 357.278C163.535 356.665 163.609 356.043 163.627 355.418C163.688 354.738 163.762 354.103 163.848 353.468Z" fill="#263238"/>
<path d="M161.056 338.646C160.687 339.939 160.318 341.266 160.048 342.593C159.925 343.262 159.814 343.942 159.715 344.611C159.574 345.264 159.525 345.931 159.568 346.596C159.568 346.652 159.666 346.652 159.679 346.596C159.85 345.975 159.961 345.341 160.011 344.702C160.109 344.055 160.22 343.398 160.343 342.751C160.601 341.391 160.859 340.03 161.241 338.692C161.265 338.59 161.13 338.533 161.056 338.646Z" fill="#263238"/>
<path d="M105.706 418.128C105.472 415.656 105.214 413.196 104.931 410.723C104.365 405.847 103.726 400.975 103.012 396.106C102.299 391.253 101.623 386.399 100.786 381.568C100.469 379.323 99.9251 377.11 99.1625 374.957C98.8873 374.033 98.3861 373.18 97.6974 372.462C97.0087 371.745 96.1508 371.182 95.1896 370.818C90.1958 369.219 86.8133 374.005 84.7961 377.384C84.7961 377.486 84.8945 377.565 84.9683 377.475C86.1983 375.864 89.5193 371.374 93.3077 371.578C95.8661 371.725 97.9079 373.381 99.1256 379.255C102.188 393.872 104.931 423.549 105.276 425.488C105.436 426.52 106.235 426.475 106.235 425.375C106.235 422.982 105.928 420.544 105.706 418.128Z" fill="#263238"/>
<path d="M86.0999 375.592C86.0999 375.592 90.4664 361.36 80.8109 368.471C64.7717 380.321 64.1936 406.085 64.1936 406.085C64.1936 406.085 92.7911 390.765 96.3458 380.672C101.647 365.624 86.0999 375.592 86.0999 375.592Z" fill="#008000"/>
<path d="M91.5611 382.577C89.3102 382.997 87.0347 383.269 84.7715 383.564L81.5612 383.984C80.8355 384.074 80.0975 384.142 79.3718 384.222C81.4997 381.523 83.6522 378.824 85.694 376.068C85.7037 376.056 85.7108 376.043 85.7148 376.028C85.7188 376.014 85.7197 375.999 85.7174 375.984C85.7151 375.97 85.7097 375.955 85.7014 375.943C85.6932 375.93 85.6823 375.919 85.6694 375.91C85.6565 375.901 85.6418 375.894 85.6261 375.89C85.6105 375.887 85.5942 375.886 85.5782 375.888C85.5622 375.89 85.5468 375.895 85.5329 375.903C85.519 375.91 85.5069 375.92 85.4972 375.932C83.8054 377.547 82.2121 379.247 80.7248 381.024L79.4948 377.724C79.0151 376.454 78.4862 375.184 78.1418 373.868C78.1418 373.766 77.9204 373.812 77.9573 373.925C78.3509 375.229 78.6215 376.556 79.0028 377.86C79.3841 379.164 79.7777 380.378 80.2328 381.602C79.1873 382.861 78.1787 384.142 77.207 385.435C76.715 384.154 76.1 382.906 75.6695 381.602C75.6588 381.583 75.6409 381.568 75.6191 381.56C75.5974 381.552 75.5732 381.551 75.5509 381.558C75.5286 381.565 75.5097 381.579 75.4976 381.597C75.4856 381.616 75.4811 381.638 75.485 381.659C76.0016 383.099 76.2722 384.596 76.715 386.048C76.0631 386.932 75.4112 387.817 74.7839 388.712C73.6277 390.357 72.533 392.035 71.4752 393.725C71.3914 393.756 71.3208 393.812 71.2743 393.883C71.2277 393.955 71.2076 394.039 71.2169 394.122C69.4211 397.002 67.6991 399.928 66.0017 402.876C66.0017 402.978 66.1124 403.058 66.1739 402.955C67.8713 400.041 69.7532 397.206 71.7212 394.428C72.0258 394.345 72.3392 394.291 72.656 394.269L73.6523 394.065C74.3903 393.918 75.116 393.747 75.854 393.577C77.3054 393.237 78.7445 392.931 80.2082 392.693C80.3312 392.693 80.282 392.5 80.2082 392.523C78.4739 392.829 76.7396 393.01 74.993 393.192L72.5699 393.498H72.4469C73.4801 392.062 74.5215 390.633 75.5711 389.211C76.6166 387.817 77.6867 386.444 78.7568 385.084C79.7531 384.948 80.7371 384.709 81.7088 384.539L85.0298 383.938C87.2438 383.541 89.4455 383.088 91.6718 382.748C91.7333 382.725 91.6841 382.555 91.5611 382.577Z" fill="#263238"/>
<path d="M74.378 383.972C74.2427 383.598 74.1197 383.224 73.9844 382.838C73.7195 382.052 73.5019 381.254 73.3325 380.446C73.3325 380.332 73.1234 380.389 73.148 380.502C73.3325 381.296 73.5416 382.101 73.7384 382.906C73.9208 383.71 74.1717 384.498 74.4887 385.265C74.4952 385.285 74.5059 385.304 74.5202 385.32C74.5345 385.337 74.5521 385.35 74.5721 385.36C74.5921 385.37 74.614 385.376 74.6367 385.379C74.6593 385.381 74.6822 385.379 74.704 385.373C74.7258 385.367 74.7461 385.357 74.7638 385.344C74.7814 385.331 74.7961 385.314 74.807 385.296C74.8178 385.278 74.8246 385.257 74.827 385.236C74.8294 385.216 74.8273 385.194 74.8208 385.174C74.6978 384.777 74.5133 384.426 74.378 383.972Z" fill="#263238"/>
<path d="M94.4885 379.278C93.1847 379.459 91.8686 379.538 90.5525 379.652C89.2364 379.765 87.9326 379.924 86.6288 380.105C86.555 380.105 86.555 380.219 86.6288 380.207C87.9449 380.128 89.2487 380.037 90.5648 379.879C91.8809 379.72 93.1724 379.538 94.4885 379.459C94.6115 379.448 94.5992 379.266 94.4885 379.278Z" fill="#263238"/>
<path d="M126.752 400.109C126.235 389.631 125.522 379.176 124.378 368.731C123.812 363.538 123.148 358.344 122.373 353.173C121.668 348.09 120.583 343.058 119.126 338.113C118.122 334.264 116.267 330.646 113.677 327.488C112.403 325.952 110.726 324.741 108.805 323.967C106.884 323.193 104.78 322.883 102.693 323.065C97.7728 323.632 93.7138 326.524 90.2575 329.665C86.3707 333.18 82.8037 337.025 79.1875 340.79C78.2773 341.742 77.3671 342.706 76.4692 343.67C76.4512 343.688 76.4418 343.712 76.443 343.736C76.4441 343.761 76.4558 343.784 76.4753 343.8C76.4949 343.817 76.5208 343.826 76.5473 343.825C76.5739 343.824 76.5988 343.813 76.6168 343.795C80.1346 340.064 83.7877 336.446 87.613 332.988C91.1431 329.779 94.7962 326.286 99.6916 324.959C101.964 324.288 104.399 324.236 106.703 324.812C108.539 325.345 110.192 326.31 111.5 327.613C114.11 330.398 115.962 333.718 116.899 337.297C119.962 346.925 121.057 357.029 122.188 366.974C123.32 376.919 124.119 387.204 124.648 397.354C125.177 407.503 125.632 417.766 126.702 427.972C126.825 429.23 127.01 430.478 127.182 431.725C127.293 432.576 128.707 432.576 128.633 431.725C127.785 421.156 127.256 410.633 126.752 400.109Z" fill="#263238"/>
<path d="M89.6301 330.799C89.6301 330.799 96.1122 319.72 88.4001 316.171C80.688 312.621 55.1163 339.066 47.6133 377.622C47.6133 377.622 89.0643 360.714 103.148 343.863C117.231 327.012 101.266 323.337 89.6301 330.799Z" fill="#008000"/>
<path d="M95.7185 339.803C91.0568 339.803 86.4197 339.474 81.758 339.508L84.3779 336.798C85.6967 335.571 86.9292 334.268 88.0679 332.897C88.1417 332.806 87.9941 332.682 87.908 332.75C86.6437 333.755 85.4636 334.846 84.3779 336.015C83.1479 337.149 82.0532 338.283 80.897 339.417C79.1135 341.198 77.3669 343.001 75.6326 344.815C75.6326 344.634 75.6326 344.464 75.6326 344.294V342.026C75.6326 340.563 75.6326 339.111 75.6326 337.648C75.6326 334.7 75.6326 331.729 75.8786 328.781C75.8786 328.667 75.6941 328.679 75.6941 328.781C75.4727 331.74 75.1406 334.689 74.9807 337.66C74.9069 339.111 74.8577 340.574 74.8454 342.026C74.8454 342.774 74.8454 343.534 74.8454 344.294C74.8454 344.702 74.8454 345.133 74.8454 345.564L74.0213 346.403C70.3313 350.315 66.7766 354.341 63.3326 358.491C63.3326 358.265 63.3326 358.038 63.3326 357.811C63.3326 357.357 63.2219 356.904 63.1727 356.45C63.0497 355.464 62.9021 354.477 62.7422 353.502C62.5823 352.527 62.4347 351.653 62.2625 350.735C62.0903 349.816 61.8074 348.66 61.7213 347.616C61.7213 347.592 61.711 347.569 61.6925 347.552C61.6741 347.535 61.649 347.526 61.6229 347.526C61.5968 347.526 61.5718 347.535 61.5534 347.552C61.5349 347.569 61.5245 347.592 61.5245 347.616C61.7238 348.655 61.8552 349.704 61.9181 350.757C62.0165 351.699 62.1149 352.651 62.201 353.592C62.2871 354.534 62.3855 355.486 62.4962 356.427L62.6438 357.788C62.6438 358.015 62.6438 358.242 62.7299 358.469C62.7556 358.66 62.8225 358.845 62.9267 359.013L61.1555 361.145C58.8062 364.014 56.5061 366.917 54.1937 369.809C54.1199 369.899 54.1937 370.024 54.329 369.933C56.5184 367.303 58.7693 364.728 61.0448 362.166C62.7545 362.234 64.4888 362.166 66.1985 362.097C67.9082 362.029 69.7901 362.097 71.5859 362.097C71.7089 362.097 71.7089 361.916 71.5859 361.927L66.1985 361.984C64.5503 361.984 62.8775 361.916 61.2785 361.984C63.2834 359.716 65.3129 357.505 67.3424 355.282L69.5687 352.844C70.2571 352.934 70.9539 352.957 71.6474 352.912H74.1074L78.7076 352.855C81.8687 352.855 85.0298 352.708 88.1909 352.697C88.2058 352.702 88.2218 352.703 88.2376 352.702C88.2533 352.7 88.2683 352.694 88.2814 352.686C88.2944 352.678 88.305 352.667 88.3124 352.654C88.3198 352.641 88.3236 352.626 88.3236 352.612C88.3236 352.597 88.3198 352.583 88.3124 352.57C88.305 352.557 88.2944 352.545 88.2814 352.537C88.2683 352.529 88.2533 352.523 88.2376 352.522C88.2218 352.52 88.2058 352.521 88.1909 352.527C85.0298 352.527 81.8564 352.368 78.6953 352.288L74.0951 352.186H71.6351C71.18 352.186 70.7003 352.186 70.2206 352.186C71.9672 350.281 73.7015 348.376 75.4481 346.516C75.4898 346.491 75.5237 346.455 75.5465 346.414C77.2439 344.566 78.9413 342.717 80.6633 340.88L81.3644 340.132C86.1983 340.279 91.0199 339.985 95.8538 340.075C95.8538 339.985 95.8415 339.803 95.7185 339.803Z" fill="#263238"/>
<path d="M93.3323 347.401H92.2499C92.2271 347.401 92.2052 347.409 92.189 347.424C92.1729 347.439 92.1638 347.459 92.1638 347.48C92.1638 347.501 92.1729 347.521 92.189 347.536C92.2052 347.551 92.2271 347.56 92.2499 347.56H93.3815C93.4799 347.571 93.4799 347.401 93.3323 347.401Z" fill="#263238"/>
<path d="M90.8232 347.412L86.346 347.321L84.1074 347.253C83.4172 347.174 82.7189 347.174 82.0287 347.253C82.0155 347.259 82.0043 347.267 81.9964 347.279C81.9886 347.29 81.9844 347.303 81.9844 347.316C81.9844 347.329 81.9886 347.342 81.9964 347.353C82.0043 347.364 82.0155 347.373 82.0287 347.378C82.7156 347.512 83.4187 347.562 84.1197 347.526H86.3583C87.8466 347.526 89.3472 347.526 90.8355 347.526C91.02 347.582 90.9462 347.412 90.8232 347.412Z" fill="#263238"/>
<path d="M77.7975 360.306C74.7684 359.838 71.705 359.584 68.634 359.546V359.603C71.6721 359.875 74.784 360.022 77.7483 360.476C77.8713 360.499 77.9205 360.317 77.7975 360.306Z" fill="#263238"/>
<path d="M65.3376 348.013C65.3376 347.764 65.3376 347.514 65.2392 347.276C65.1654 346.72 65.067 346.142 64.9809 345.62C64.7964 344.566 64.5996 343.523 64.3782 342.479C64.3782 342.377 64.1814 342.411 64.1937 342.479C64.3413 343.613 64.4643 344.645 64.575 345.734L64.7226 347.321C64.7063 347.837 64.7853 348.35 64.9563 348.841C64.98 348.873 65.0128 348.897 65.051 348.912C65.0892 348.927 65.1313 348.932 65.1723 348.926C65.2134 348.92 65.2518 348.904 65.2832 348.879C65.3146 348.854 65.3377 348.821 65.3499 348.784C65.4039 348.529 65.3997 348.267 65.3376 348.013Z" fill="#263238"/>
<path d="M126.333 316.579C124.857 314.027 122.963 310.671 119.261 310.909C116.211 311.079 114.833 313.959 114.169 316.329C112.152 323.689 112.016 331.445 111.623 339.009C110.786 354.885 110.036 370.875 109.938 386.83C109.938 391.253 109.938 395.671 109.938 400.086C109.938 404.622 109.938 409.158 110.282 413.694C110.282 413.782 110.319 413.865 110.386 413.927C110.453 413.989 110.544 414.023 110.639 414.023C110.733 414.023 110.824 413.989 110.891 413.927C110.958 413.865 110.995 413.782 110.995 413.694C110.995 409.839 110.885 405.983 110.86 402.128C110.835 398.272 110.86 394.598 110.946 390.788C111.077 383.167 111.299 375.547 111.61 367.926C111.906 360.351 112.275 352.787 112.619 345.246C112.791 341.466 112.967 337.686 113.148 333.906C113.332 330.243 113.505 326.581 113.96 322.929C114.218 320.888 114.538 318.847 115.005 316.84C115.23 315.342 115.889 313.928 116.912 312.746C117.621 312.104 118.554 311.715 119.545 311.649C120.537 311.582 121.521 311.842 122.324 312.383C124.005 313.51 125.326 315.034 126.149 316.794C126.235 316.771 126.395 316.681 126.333 316.579Z" fill="#263238"/>
<path d="M125.337 315.365C125.337 315.365 122.287 305.454 129.027 310.41C140.22 318.654 140.626 336.605 140.626 336.605C140.626 336.605 120.712 325.934 118.228 318.903C114.538 308.448 125.337 315.365 125.337 315.365Z" fill="#008000"/>
<path d="M136.432 329.246L135.866 328.429C135.89 328.15 135.89 327.869 135.866 327.59V326.308C135.866 325.469 135.903 324.63 135.977 323.791C135.977 323.678 135.78 323.689 135.78 323.791C135.78 324.607 135.694 325.435 135.669 326.252C135.669 326.66 135.669 327.08 135.669 327.488C135.669 327.647 135.669 327.828 135.669 328.021C134.894 326.887 134.082 325.753 133.209 324.698L132.471 323.768C132.373 322.689 132.373 321.604 132.471 320.525C132.471 319.391 132.471 318.257 132.545 317.066C132.545 316.953 132.36 316.964 132.36 317.066C132.36 318.257 132.25 319.459 132.188 320.661C132.108 321.513 132.084 322.369 132.114 323.224C130.183 320.809 128.154 318.484 126.087 316.171C126.014 316.091 125.866 316.171 125.94 316.284C127.17 317.769 128.4 319.312 129.63 320.82C127.28 320.321 124.907 320.026 122.52 319.686C122.397 319.686 122.348 319.845 122.52 319.856C124.98 320.208 127.514 320.797 130.011 321.296C130.958 322.532 131.905 323.78 132.84 325.027L133.972 326.558H133.861L133.086 326.456C132.545 326.399 131.991 326.354 131.438 326.32C130.282 326.24 129.138 326.184 127.982 326.127C127.859 326.127 127.871 326.297 127.982 326.297C129.113 326.297 130.232 326.399 131.364 326.513L133.148 326.717L133.922 326.796H134.144L136.063 329.393C137.194 330.924 138.191 332.568 139.396 334.054C139.47 334.144 139.593 334.054 139.544 333.963C138.606 332.336 137.567 330.761 136.432 329.246Z" fill="#263238"/>
<path d="M131.475 318.053C131.475 317.667 131.475 317.282 131.475 316.919C131.44 316.105 131.473 315.29 131.573 314.481C131.579 314.467 131.581 314.452 131.579 314.438C131.577 314.423 131.571 314.409 131.562 314.397C131.553 314.385 131.541 314.376 131.527 314.369C131.512 314.362 131.497 314.359 131.481 314.359C131.465 314.359 131.449 314.362 131.435 314.369C131.421 314.376 131.409 314.385 131.4 314.397C131.391 314.409 131.385 314.423 131.383 314.438C131.381 314.452 131.383 314.467 131.389 314.481C131.389 315.275 131.29 316.08 131.253 316.885C131.253 317.282 131.253 317.69 131.253 318.087V318.654C131.216 318.845 131.216 319.041 131.253 319.232C131.26 319.247 131.271 319.26 131.285 319.269C131.299 319.277 131.316 319.282 131.333 319.282C131.351 319.282 131.367 319.277 131.382 319.269C131.396 319.26 131.407 319.247 131.413 319.232C131.45 319.056 131.45 318.875 131.413 318.699L131.475 318.053Z" fill="#263238"/>
<path d="M129.015 322.158C128.264 322.033 127.514 321.999 126.764 321.942C126.013 321.886 125.128 321.818 124.304 321.716C124.168 321.716 124.144 321.886 124.304 321.886C125.878 321.988 127.44 322.237 129.015 322.294C129.076 322.294 129.15 322.169 129.015 322.158Z" fill="#263238"/>
<path d="M126.801 369.468C122.606 366.565 118.843 362.404 113.271 362.2C108.621 362.029 105.362 365.261 103.504 368.856C102.562 370.765 101.801 372.746 101.229 374.776C100.409 377.482 99.6176 380.207 98.855 382.952C97.3954 388.342 96.1654 393.774 95.165 399.247C94.5992 402.298 94.0703 405.348 93.6521 408.421C93.1202 411.534 92.7957 414.673 92.6804 417.822C92.6904 417.935 92.7429 418.042 92.8289 418.123C92.9148 418.204 93.0288 418.255 93.1512 418.267C93.2736 418.279 93.3968 418.252 93.4994 418.189C93.6021 418.127 93.6778 418.033 93.7136 417.924C94.2917 415.361 94.5254 412.708 94.9436 410.111C95.3618 407.514 95.7923 404.895 96.272 402.298C97.215 397.097 98.3261 391.918 99.6053 386.762C100.835 381.908 101.979 376.976 103.689 372.247C104.919 368.845 106.862 364.887 110.835 363.674C116.875 361.814 122.373 366.531 126.825 369.593C126.764 369.684 126.899 369.537 126.801 369.468Z" fill="#263238"/>
<path d="M122.459 366.69C122.459 366.69 118.609 356.484 124.193 354.534C132.557 351.551 154.463 374.299 150.183 409.147C150.183 409.147 133.246 400.551 120.749 390.89C108.252 381.228 105.054 368.55 110.565 365.318C116.075 362.086 122.459 366.69 122.459 366.69Z" fill="#008000"/>
<path d="M147.6 401.685C147.017 400.467 146.335 399.292 145.558 398.17C144.845 396.979 144.119 395.789 143.381 394.609C141.917 392.341 140.478 390.017 138.99 387.737L138.252 386.603C138.252 386.467 138.252 386.331 138.35 386.195C138.424 385.866 138.51 385.526 138.596 385.186C138.781 384.437 138.929 383.666 139.076 382.918C139.384 381.432 139.667 379.913 140.097 378.45C140.097 378.348 139.937 378.302 139.913 378.45C139.568 379.947 139.052 381.41 138.572 382.872C138.338 383.587 138.092 384.301 137.883 385.027C137.809 385.276 137.748 385.526 137.674 385.775C135.878 383.054 133.984 380.355 132.065 377.735C132.202 377.371 132.269 376.987 132.262 376.601C132.323 376.102 132.385 375.592 132.459 375.082C132.606 373.948 132.742 372.814 132.926 371.68C133.245 369.434 133.689 367.205 134.255 365.001C134.248 364.983 134.235 364.968 134.219 364.958C134.202 364.947 134.182 364.941 134.162 364.941C134.142 364.941 134.123 364.947 134.106 364.958C134.09 364.968 134.077 364.983 134.07 365.001C133.467 367.201 132.84 369.389 132.36 371.623C132.139 372.757 131.93 373.8 131.77 374.9C131.684 375.456 131.622 376.034 131.561 376.556C131.561 376.726 131.561 376.896 131.487 377.055C130.884 376.273 130.257 375.479 129.642 374.708C127.711 372.36 125.706 370.07 123.689 367.79C123.603 367.711 123.443 367.79 123.529 367.892C126.989 371.98 130.169 376.264 133.049 380.718L134.697 383.179L134.144 383.111C133.443 383.031 132.717 382.986 132.016 382.929L127.736 382.589C124.882 382.373 122.028 382.215 119.126 381.931C119.003 381.931 118.966 382.101 119.126 382.113C122.004 382.419 124.882 382.838 127.736 383.247C129.15 383.439 130.565 383.609 131.979 383.78C133.052 383.981 134.144 384.083 135.239 384.086C136.358 385.764 137.489 387.488 138.596 389.121C138.35 389.121 138.092 389.121 137.846 389.121H133.775C131.93 389.121 130.085 389.121 128.264 389.121C128.141 389.121 128.154 389.291 128.264 389.291C130.122 389.291 131.954 389.404 133.836 389.495C134.722 389.495 135.608 389.586 136.481 389.642L137.809 389.722C138.19 389.796 138.584 389.796 138.965 389.722C139.913 391.151 140.872 392.568 141.831 393.997C142.791 395.426 143.59 396.628 144.488 397.932C145.34 399.322 146.302 400.653 147.366 401.912C147.6 401.844 147.698 401.788 147.6 401.685Z" fill="#263238"/>
<path d="M139.58 373.506C139.411 374.627 139.16 375.737 138.83 376.828C138.51 377.962 138.154 379.096 137.76 380.173C137.754 380.188 137.75 380.204 137.751 380.219C137.751 380.235 137.755 380.25 137.762 380.265C137.769 380.279 137.78 380.292 137.793 380.302C137.805 380.312 137.82 380.32 137.837 380.325C137.853 380.33 137.87 380.331 137.887 380.33C137.904 380.328 137.92 380.323 137.935 380.315C137.95 380.307 137.963 380.297 137.973 380.284C137.983 380.271 137.99 380.257 137.994 380.241C138.363 379.107 138.695 378.042 138.99 376.919C139.285 375.796 139.482 374.651 139.777 373.517C139.802 373.426 139.593 373.392 139.58 373.506Z" fill="#263238"/>
<path d="M127.145 380.321C126.892 380.112 126.562 379.999 126.223 380.003L124.624 379.799C123.64 379.674 122.643 379.572 121.647 379.47C119.593 379.244 117.526 379.062 115.497 378.824C115.374 378.824 115.337 378.983 115.497 378.994C117.453 379.21 119.384 379.482 121.327 379.72L124.181 380.06L125.558 380.207C126.094 380.207 126.625 380.288 127.133 380.446C127.145 380.491 127.219 380.378 127.145 380.321Z" fill="#263238"/>
<path d="M139.556 395.641C138.584 395.573 137.6 395.539 136.628 395.516H135.14H134.439C134.133 395.551 133.823 395.551 133.517 395.516C133.381 395.516 133.369 395.709 133.517 395.687C133.803 395.658 134.091 395.658 134.378 395.687H135.152L136.628 395.777C137.6 395.777 138.584 395.879 139.556 395.879C139.667 395.845 139.667 395.653 139.556 395.641Z" fill="#263238"/>
<path d="M145.521 391.752C145.632 391.241 145.743 390.731 145.841 390.209C146.038 389.211 146.235 388.202 146.444 387.204C146.444 387.091 146.284 387.057 146.247 387.204C146.013 388.18 145.767 389.166 145.534 390.141C145.411 390.629 145.3 391.117 145.189 391.604C145.128 391.831 145.078 392.058 145.029 392.285C144.952 392.519 144.922 392.766 144.943 393.01C144.943 393.09 145.091 393.158 145.152 393.01C145.359 392.616 145.484 392.189 145.521 391.752Z" fill="#263238"/>
<path d="M88.2156 413.921L89.3841 426.282L93.3939 468.002H128.83L133.836 426.282L135.312 413.921H88.2156Z" fill="#455A64"/>
<path d="M88.2156 413.921L89.3841 426.282H133.836L135.312 413.921H88.2156Z" fill="#263238"/>
<path d="M84.7101 420.578H138.83V410.553H84.7101V420.578Z" fill="#455A64"/>
<path d="M255.692 427.269C255.692 427.269 229.862 474.953 229.862 474.999C227.722 484.842 226.049 493.517 225.631 498.076C225.624 498.102 225.624 498.129 225.631 498.155C225.405 499.212 225.451 500.304 225.767 501.341C225.767 501.341 225.767 501.341 225.767 501.409C228.509 503.984 313.404 522.003 316.59 521.708C319.775 521.413 319.136 513.022 316.442 509.892C313.748 506.762 284.659 486.486 284.659 486.486L309.96 438.699L255.692 427.269Z" fill="#AD6359"/>
<path d="M315.384 521.719C312.199 522.003 228.583 503.984 225.84 501.409V501.341C225.532 500.303 225.486 499.213 225.705 498.155C225.699 498.129 225.699 498.102 225.705 498.075C226.123 493.539 227.796 484.842 229.924 474.987C229.924 474.987 233.245 468.875 236.074 463.568L289.628 477.108L284.708 486.463C284.708 486.463 312.568 506.773 315.274 509.892C317.98 513.01 318.57 521.436 315.384 521.719Z" fill="#EBEBEB"/>
<path d="M316.541 520.506C313.306 520.733 228.227 500.729 225.521 498.076C224.475 497.078 226.91 485.477 230.293 471.54L230.404 471.109L285.458 483.447L285.2 484.297C285.2 484.297 314.056 505.378 316.7 508.599C319.345 511.82 319.8 520.245 316.541 520.506Z" fill="#263238"/>
<path d="M316.418 517.195C302.162 513.498 244.29 499.833 229.899 497.18C229.776 497.18 229.764 497.18 229.899 497.259C243.946 501.205 301.928 514.439 316.381 517.41C316.664 517.478 316.713 517.274 316.418 517.195Z" fill="white"/>
<path d="M289.751 485.488C284.376 483.22 277.254 482.37 271.916 485.057C271.707 485.159 271.916 485.431 272.076 485.42C277.913 485.085 283.772 485.325 289.554 486.134C289.641 486.143 289.729 486.124 289.801 486.078C289.874 486.033 289.927 485.966 289.95 485.888C289.974 485.811 289.967 485.728 289.93 485.654C289.894 485.581 289.83 485.522 289.751 485.488Z" fill="white"/>
<path d="M293.207 488.754C287.832 486.486 280.698 485.635 275.36 488.323C275.163 488.425 275.36 488.697 275.52 488.686C281.357 488.351 287.216 488.591 292.998 489.4C293.087 489.413 293.177 489.396 293.253 489.352C293.329 489.308 293.385 489.241 293.41 489.162C293.436 489.083 293.429 488.998 293.392 488.923C293.355 488.848 293.289 488.788 293.207 488.754Z" fill="white"/>
<path d="M296.652 491.929C291.276 489.661 284.155 488.811 278.817 491.498C278.607 491.6 278.817 491.873 278.964 491.861C284.802 491.524 290.661 491.768 296.442 492.587C296.529 492.592 296.614 492.569 296.685 492.524C296.755 492.478 296.807 492.411 296.831 492.335C296.856 492.259 296.851 492.177 296.818 492.103C296.786 492.029 296.727 491.968 296.652 491.929Z" fill="white"/>
<path d="M318.57 517.955C319.935 518.85 318.312 523.488 317.106 523.625C315.901 523.761 223.233 501.557 221.744 500.865C220.256 500.173 222.273 495.082 224.204 495.252C226.136 495.422 318.57 517.955 318.57 517.955Z" fill="#190C43"/>
<path d="M242.015 483.152C236.627 478.854 229.383 486.554 234.77 490.863C240.158 495.173 247.402 487.45 242.015 483.152Z" fill="white"/>
<path d="M236.258 459.758L298.337 474.194C298.337 474.194 356.208 377.906 354.917 353.434C353.133 319.641 310.145 215.88 310.145 215.88H258.669C258.669 215.88 292.826 328.089 293.269 346.97C293.503 356.847 236.258 459.758 236.258 459.758Z" fill="#BCBCFF"/>
<path d="M300.993 462.581C297.685 461.368 268.128 453.509 246.086 449.2C246.057 449.2 246.029 449.211 246.008 449.23C245.987 449.249 245.975 449.275 245.975 449.302C245.975 449.329 245.987 449.355 246.008 449.374C246.029 449.393 246.057 449.404 246.086 449.404C253.023 451.672 296.836 462.286 300.944 462.808C301.03 462.831 301.141 462.672 300.993 462.581Z" fill="#263238"/>
<path d="M297.549 322.873C293.466 306.997 289.148 291.234 284.474 275.528C279.8 259.822 274.93 244.003 269.53 228.422C268.866 226.528 268.177 224.623 267.513 222.752C267.493 222.69 267.448 222.638 267.387 222.607C267.326 222.576 267.254 222.569 267.187 222.587C267.12 222.605 267.064 222.647 267.03 222.703C266.997 222.76 266.989 222.826 267.008 222.888C271.83 238.401 276.725 253.891 281.301 269.461C285.877 285.031 290.268 300.646 294.388 316.318C295.405 320.211 296.409 324.097 297.402 327.976C298.542 331.972 299.421 336.027 300.034 340.121C300.547 344.032 300.259 347.998 299.185 351.812C298.011 355.555 296.48 359.194 294.61 362.687C287.23 377.543 279.809 392.402 272.347 407.265C264.967 422.177 263.737 425.568 256.639 440.593C255.754 442.464 254.881 444.324 254.032 446.206C253.97 446.331 254.167 446.433 254.229 446.308C262.347 431.566 263.601 428.028 271.141 413.048C278.681 398.068 286.282 382.895 293.81 367.79C297.205 360.986 301.19 354.035 301.707 346.414C302.236 338.465 299.53 330.493 297.549 322.873Z" fill="#263238"/>
<path d="M295.766 446.127C295.766 446.127 297.758 498.62 297.758 498.665C298.078 508.701 298.558 517.501 299.271 522.026C299.265 522.052 299.265 522.079 299.271 522.105C299.318 523.178 299.625 524.228 300.169 525.178C300.169 525.178 300.169 525.235 300.243 525.246C303.552 527.174 390.66 527.129 393.723 526.187C396.786 525.246 394.08 517.183 390.697 514.7C387.315 512.216 353.933 498.484 353.933 498.484L351.411 446.025L295.766 446.127Z" fill="#AD6359"/>
<path d="M297.353 487.881C297.353 487.881 297.758 498.62 297.758 498.665C298.078 508.701 298.558 517.501 299.271 522.026C299.265 522.052 299.265 522.079 299.271 522.105C299.44 523.158 299.742 524.189 300.169 525.178C300.169 525.178 300.169 525.235 300.243 525.246C303.552 527.174 390.66 527.129 393.723 526.187C396.786 525.246 394.08 517.183 390.697 514.7C387.315 512.217 353.933 498.484 353.933 498.484L353.687 487.541L297.353 487.881Z" fill="#EBEBEB"/>
<path d="M393.748 526.085C390.673 527.004 302.863 525.745 299.554 523.738C298.324 522.989 297.734 511.185 297.525 496.907V496.454L354.24 496.692V497.577C354.24 497.577 387.61 511.922 391.005 514.484C394.4 517.047 396.835 525.189 393.748 526.085Z" fill="#263238"/>
<path d="M392.813 522.933C378.053 522.389 318.287 521.47 303.613 521.969C303.49 521.969 303.49 522.048 303.613 522.048C318.263 522.887 378.004 523.364 392.801 523.182C393.12 523.16 393.12 522.944 392.813 522.933Z" fill="white"/>
<path d="M358.902 497.826C353.084 496.692 345.95 497.463 341.436 501.228C341.264 501.375 341.436 501.602 341.682 501.546C347.288 499.97 353.061 498.951 358.902 498.506C358.983 498.487 359.056 498.443 359.107 498.381C359.159 498.32 359.187 498.244 359.187 498.166C359.187 498.088 359.159 498.013 359.107 497.951C359.056 497.89 358.983 497.846 358.902 497.826Z" fill="white"/>
<path d="M363.059 500.196C357.254 499.062 350.12 499.833 345.606 503.598C345.421 503.745 345.606 503.972 345.839 503.927C351.445 502.349 357.218 501.327 363.059 500.876C363.157 500.876 363.251 500.841 363.32 500.777C363.389 500.713 363.428 500.626 363.428 500.536C363.428 500.446 363.389 500.359 363.32 500.296C363.251 500.232 363.157 500.196 363.059 500.196Z" fill="white"/>
<path d="M367.229 502.589C361.423 501.455 354.277 502.226 349.763 505.991C349.591 506.127 349.763 506.354 350.009 506.308C355.613 504.727 361.387 503.708 367.229 503.269C367.327 503.269 367.421 503.233 367.49 503.17C367.559 503.106 367.598 503.019 367.598 502.929C367.598 502.839 367.559 502.752 367.49 502.688C367.421 502.625 367.327 502.589 367.229 502.589Z" fill="white"/>
<path d="M395.138 523.205C396.7 523.783 396.281 528.648 395.138 529.022C393.994 529.397 298.275 527.639 296.651 527.276C295.028 526.913 295.717 521.538 297.611 521.3C299.505 521.062 395.138 523.205 395.138 523.205Z" fill="#190C43"/>
<path d="M311.867 505.764C305.544 502.736 300.44 511.786 306.762 514.836C313.084 517.887 318.189 508.758 311.867 505.764Z" fill="white"/>
<path d="M304.892 215.834C304.671 216.809 291.842 263.576 290.231 264.46C288.423 265.447 336.86 325.537 342.604 355.033C346.294 373.902 354.658 483.878 354.658 483.878H292.949C292.949 483.878 286.91 390.482 284.88 359.705C284.093 347.764 233.626 296.507 229.469 257.089C228.239 245.466 238.472 215.789 238.472 215.789L304.892 215.834Z" fill="#BCBCFF"/>
<path d="M291.387 439.391C290.661 423.923 289.985 408.422 288.767 392.965C288.078 384.222 286.713 375.74 285.778 367.008C285.778 366.554 285.323 366.441 285.335 366.917C285.778 382.453 287.168 397.819 288.066 413.343C288.964 428.868 289.825 432.496 290.772 447.964C291.313 456.719 291.781 465.484 292.519 474.228C292.527 474.25 292.542 474.27 292.563 474.284C292.584 474.298 292.61 474.306 292.635 474.306C292.661 474.306 292.687 474.298 292.708 474.284C292.729 474.27 292.744 474.25 292.752 474.228C292.74 458.68 292.125 454.916 291.387 439.391Z" fill="#263238"/>
<path d="M342.666 355.736C342.139 351.638 341.279 347.582 340.095 343.602C338.825 339.756 337.148 336.033 335.089 332.489C330.882 325.05 326.098 317.849 321.485 310.625C316.873 303.402 312.063 296.008 307.193 288.796C304.454 284.751 301.699 280.707 298.927 276.662C296.135 272.568 293.158 268.577 290.255 264.562C290.145 264.404 289.874 264.562 289.985 264.71C294.708 272.013 299.382 279.338 304.105 286.641C308.828 293.944 313.478 301.27 318.14 308.607C322.801 315.944 327.315 323.043 331.67 330.357C333.836 333.835 335.695 337.468 337.229 341.221C338.67 345.111 339.716 349.116 340.353 353.184C341.989 362.642 343.342 372.156 345.409 381.534C345.409 381.659 345.642 381.625 345.63 381.534C345.015 372.927 343.908 364.298 342.666 355.736Z" fill="#263238"/>
<path d="M349.246 474.069C345.716 473.649 318.804 472.787 296.295 473.672C296.27 473.679 296.249 473.694 296.234 473.713C296.218 473.732 296.21 473.756 296.21 473.78C296.21 473.803 296.218 473.827 296.234 473.846C296.249 473.865 296.27 473.88 296.295 473.887C303.675 474.488 345.077 474.749 349.185 474.307C349.32 474.295 349.406 474.091 349.246 474.069Z" fill="#263238"/>
<path d="M298.3 261.217C291.993 263.329 285.898 265.943 280.083 269.03C280.041 269.054 280.009 269.092 279.993 269.135C279.978 269.179 279.98 269.227 279.999 269.269C280.019 269.312 280.054 269.347 280.099 269.367C280.143 269.388 280.195 269.393 280.243 269.382C286.393 266.955 292.642 264.63 298.632 261.886C298.728 261.845 298.803 261.771 298.84 261.68C298.877 261.588 298.873 261.487 298.829 261.398C298.785 261.31 298.704 261.241 298.605 261.207C298.506 261.173 298.396 261.176 298.3 261.217Z" fill="#263238"/>
<path d="M300.12 222.457C300.12 222.264 299.726 222.219 299.726 222.457C299.73 228.774 299.389 235.087 298.706 241.372C298.423 244.286 295.877 260.389 290.391 259.21C289.481 259.017 289.001 258.189 288.866 256.942C288.888 255.276 289.132 253.62 289.591 252.009C290.194 248.607 290.686 245.205 291.006 241.803C291.639 235.458 291.565 229.071 290.784 222.74C290.774 222.704 290.751 222.672 290.719 222.649C290.686 222.626 290.647 222.614 290.606 222.614C290.565 222.614 290.526 222.626 290.493 222.649C290.461 222.672 290.438 222.704 290.428 222.74C290.585 231.532 290.026 240.323 288.755 249.038C288.066 253.234 285.778 259.539 290.538 260.185C295.298 260.831 298.509 250.274 299.148 247.382C300.64 239.147 300.966 230.769 300.12 222.457Z" fill="#263238"/>
<path d="M290.563 259.618C290.072 260.703 289.661 261.816 289.333 262.952C288.974 263.828 288.799 264.76 288.816 265.696C288.816 265.878 289.099 265.889 289.198 265.776C289.745 264.943 290.159 264.041 290.428 263.099C290.834 262.067 291.276 261.047 291.658 260.004C291.665 259.883 291.631 259.764 291.56 259.663C291.489 259.562 291.385 259.485 291.263 259.442C291.141 259.399 291.008 259.393 290.882 259.425C290.756 259.456 290.644 259.524 290.563 259.618Z" fill="#263238"/>
<path d="M293.134 374.674C292.568 366.736 292.592 358.333 288.927 350.95C286.975 347.359 284.73 343.909 282.211 340.631C279.702 337.116 277.242 333.57 274.831 329.994C265.09 315.728 255.779 301.179 247.255 286.256C243.159 279.066 239.37 271.661 237.316 263.723C235.3 255.378 234.916 246.768 236.185 238.299C236.468 236.19 236.787 234.092 237.169 231.994C237.169 231.846 236.947 231.778 236.91 231.937C234.922 240.003 234.238 248.295 234.881 256.545C235.817 264.427 238.226 272.101 242.003 279.225C245.754 286.732 250.231 293.967 254.635 301.134C259.169 308.542 263.851 315.879 268.681 323.145C273.478 330.357 278.521 337.433 283.527 344.532C286.078 347.887 288.068 351.576 289.431 355.475C290.532 359.541 291.162 363.704 291.313 367.892C292.543 385.481 297.389 443.927 299.087 461.425C299.308 463.693 299.517 465.87 299.739 468.081C299.739 468.285 300.083 468.274 300.071 468.081C299.321 450.516 294.401 392.194 293.134 374.674Z" fill="#263238"/>
<path d="M259.112 231.211C259.112 231.087 258.89 231.132 258.878 231.211C258.706 236.099 258.878 241.134 256.812 245.749C254.942 249.979 251.191 252.95 246.972 255.173C244.527 256.431 242.01 257.567 239.432 258.575C239.247 258.643 239.321 258.915 239.518 258.858C244.438 257.429 249.358 255.876 253.429 252.882C257.771 249.673 259.665 245.012 259.887 239.977C259.952 237.038 259.692 234.101 259.112 231.211Z" fill="#263238"/>
<path d="M302.346 155.358C306.307 164.589 331.694 197.781 348.275 199.346C365.175 200.956 401.755 178.231 405.63 175.872C408.163 174.341 391.017 147.125 387.081 149.405C376.479 155.562 351.534 171.03 346.762 168.921C336.737 164.509 329.013 158.363 314.585 149.643C304.524 143.553 297.98 145.152 302.346 155.358Z" fill="#AD6359"/>
<path d="M427.314 162.661C419.098 170.452 406.121 176.428 401.964 176.904C397.807 177.38 384.031 155.358 385.654 151.707C387.278 148.055 404.178 128.221 411.57 126.929C418.963 125.636 432.653 157.626 427.314 162.661Z" fill="#AD6359"/>
<path d="M416.121 132.315C416.121 132.315 408.188 135.581 405.629 136.851C403.44 137.906 399.061 140.355 399.947 144.256C400.832 148.157 406.675 146.207 407.093 146.082C406.749 146.263 400.808 149.631 402.173 153.464C403.538 157.297 409.098 154.689 409.455 154.519C409.307 154.666 421.472 146.581 424.473 148.384C427.856 150.459 425.211 164.181 425.248 164.26C425.285 164.339 451.779 144.823 449.971 140.378C447.818 135.059 430.07 147.499 430.07 147.499C430.07 147.499 433.55 143.859 432.616 140.809C432.124 139.244 428.987 138.541 428.987 138.541C429.673 137.951 430.169 137.2 430.423 136.368C430.677 135.536 430.678 134.656 430.426 133.823C429.614 131.691 426.589 131.34 426.589 131.34C426.589 131.34 448.372 124.536 443.132 119.104C439.922 115.77 417.671 124.967 411.607 126.929C411.57 126.929 416.749 128.822 416.121 132.315Z" fill="#AD6359"/>
<path d="M429.036 138.484C429.122 138.484 429.098 138.348 429.036 138.348C420.916 138.352 413.064 141.03 406.896 145.9C406.687 146.082 406.687 146.433 406.896 146.252C411.238 143.122 422.333 139.403 429.036 138.484Z" fill="#263238"/>
<path d="M409.738 154.95C415.826 150.244 419.012 149.416 426.712 147.874C426.81 147.874 426.773 147.726 426.712 147.715C423.831 147.443 420.921 147.808 418.225 148.781C414.803 149.988 411.819 152.059 409.615 154.757C409.467 154.859 409.59 155.052 409.738 154.95Z" fill="#263238"/>
<path d="M405.629 136.817C404.338 137.474 403.133 138.266 402.038 139.176C400.852 140.068 399.958 141.245 399.455 142.578C399.225 143.311 399.304 144.096 399.676 144.778C400.039 145.451 400.586 146.026 401.263 146.445C402.075 146.917 403.022 147.154 403.981 147.125C404.424 146.717 404.904 146.32 405.396 145.991L405.961 146.898C405.321 147.085 404.653 147.176 403.981 147.171C403.32 147.763 402.727 148.417 402.21 149.121C401.726 149.752 401.391 150.47 401.228 151.228C401.065 151.986 401.077 152.767 401.263 153.521C401.495 154.305 401.979 155.005 402.653 155.528C403.354 156.037 404.221 156.313 405.113 156.311C405.913 156.296 406.706 156.166 407.462 155.925C407.862 155.265 408.336 154.645 408.877 154.077L409.688 154.961L409.775 154.87L412.308 152.24L409.012 153.975C407.839 154.645 406.503 155.035 405.125 155.109C404.511 155.119 403.912 154.936 403.427 154.589C402.941 154.243 402.599 153.754 402.456 153.203C402.311 152.609 402.302 151.993 402.432 151.395C402.561 150.797 402.825 150.231 403.206 149.733C403.97 148.629 404.921 147.645 406.023 146.819L408.483 144.925L405.457 145.9C404.848 146.124 404.195 146.227 403.54 146.202C402.885 146.176 402.243 146.023 401.656 145.753C401.089 145.447 400.618 145.009 400.291 144.483C399.978 143.957 399.886 143.344 400.033 142.759C400.43 141.501 401.181 140.363 402.21 139.459C403.257 138.482 404.402 137.597 405.629 136.817Z" fill="#263238"/>
<path d="M408.95 154.077C408.41 154.645 407.935 155.265 407.536 155.925C408.309 155.669 409.055 155.346 409.762 154.961L408.95 154.077Z" fill="#263238"/>
<path d="M405.396 145.946C404.904 146.32 404.424 146.717 403.981 147.08C404.653 147.086 405.321 146.994 405.961 146.808L405.396 145.946Z" fill="#263238"/>
<path d="M388.126 148.452C388.126 148.452 397.474 120.907 407.364 129.548C410.303 132.122 419.036 145.9 416.072 147.567C412.234 149.733 407.462 144.608 405.002 140.945C405.002 140.945 403.255 150.731 395.506 151.638C394.077 151.79 392.63 151.573 391.326 151.01C390.023 150.447 388.915 149.562 388.126 148.452Z" fill="#AD6359"/>
<path d="M406.49 128.879C407.771 129.763 408.906 130.814 409.861 131.998C410.842 133.161 411.742 134.38 412.554 135.649C414.211 138.177 415.627 140.833 416.786 143.587C417.095 144.314 417.29 145.078 417.364 145.855C417.402 146.306 417.33 146.759 417.155 147.182C417.064 147.416 416.931 147.635 416.761 147.828C416.583 148.012 416.376 148.168 416.146 148.293C415.321 148.745 414.347 148.906 413.403 148.747C412.535 148.593 411.703 148.301 410.943 147.885C409.535 147.073 408.287 146.045 407.253 144.846C406.225 143.695 405.292 142.474 404.461 141.194L405.482 141.002C405.234 142.111 404.875 143.196 404.412 144.245C403.961 145.285 403.397 146.281 402.727 147.216C402.042 148.147 401.214 148.98 400.267 149.688C399.336 150.392 398.267 150.924 397.118 151.253C398.189 150.793 399.17 150.172 400.021 149.416C400.845 148.659 401.556 147.805 402.136 146.876C402.713 145.943 403.194 144.964 403.575 143.95C403.951 142.944 404.223 141.907 404.387 140.854L404.584 139.55L405.408 140.684C406.257 141.876 407.194 143.013 408.212 144.086C409.177 145.163 410.323 146.09 411.607 146.83C412.149 147.198 412.785 147.43 413.453 147.505C414.12 147.581 414.798 147.497 415.42 147.261C416.38 146.808 416.035 145.231 415.58 143.939C415.125 142.646 414.461 141.262 413.834 139.936C413.206 138.609 412.53 137.282 411.804 136.001C410.441 133.389 408.649 130.987 406.49 128.879Z" fill="#263238"/>
<path d="M401.915 179.308L381.743 151.276C378.463 151.272 375.229 151.987 372.309 153.362C363.527 157.195 348.521 168.104 346.282 167.333C342.653 166.199 329.32 157.558 317.586 149.767C305.852 141.977 289.296 138.427 303.195 160.064C317.094 181.701 337.475 198.62 346.245 200.888C352.001 202.374 381.706 195.003 395.876 186.759C398.844 185.074 401.004 182.41 401.915 179.308Z" fill="#1C0E44"/>
<path d="M392.481 185.443C391.503 184.236 390.599 182.979 389.775 181.678C388.988 180.544 388.163 179.41 387.389 178.276C385.679 175.804 383.957 173.332 382.259 170.848C380.562 168.365 378.877 165.904 377.204 163.409C375.531 160.915 373.809 158.488 372.284 155.936C372.276 155.925 372.27 155.913 372.268 155.9C372.265 155.886 372.265 155.873 372.268 155.86C372.271 155.846 372.276 155.834 372.284 155.823C372.292 155.812 372.303 155.802 372.315 155.795C372.327 155.787 372.341 155.782 372.355 155.779C372.369 155.777 372.384 155.777 372.398 155.779C372.412 155.782 372.426 155.787 372.438 155.795C372.45 155.802 372.461 155.812 372.469 155.823C374.486 158.091 376.257 160.506 378.053 162.91C379.849 165.315 381.521 167.685 383.182 170.111C384.842 172.538 386.503 175.101 388.102 177.63C388.877 178.843 389.603 180.091 390.328 181.327C391.183 182.616 391.944 183.957 392.604 185.341C392.641 185.443 392.542 185.511 392.481 185.443Z" fill="#263238"/>
<path opacity="0.1" d="M342.653 199.448C332.69 194.481 315.409 179.093 303.195 160.064C297.18 150.697 296.873 146.059 299.419 144.426L342.653 199.448Z" fill="black"/>
<path d="M230.736 243.663L322.555 247.178C322.949 246.838 326.393 245.59 325.864 234.012C324.634 207.658 315.335 160.529 309.603 150.346C308.541 148.297 307.048 146.464 305.21 144.954C303.372 143.443 301.226 142.284 298.898 141.545C296.569 140.807 294.105 140.502 291.647 140.65C289.19 140.798 286.79 141.396 284.585 142.408C279.382 145.163 274.548 148.837 268.325 156.73C253.048 176.144 236.099 210.777 230.195 229.918C227.685 237.845 230.551 243.424 230.736 243.663Z" fill="#190C43"/>
<path opacity="0.1" d="M293.343 238.662C302.346 239.002 311.276 239.342 320.218 239.796L319.714 240.306L317.697 227.48L317.992 227.843C316.365 227.073 314.97 225.943 313.933 224.555C312.926 223.191 312.154 221.691 311.645 220.109C311.106 218.562 310.723 216.971 310.501 215.358C310.256 213.754 310.141 212.135 310.157 210.516L310.624 210.992L289.456 209.926L289.911 209.597L289.099 212.602C288.804 213.6 288.386 214.576 288.041 215.551C287.697 216.526 287.144 217.456 286.676 218.408L285.815 219.747C285.68 219.973 285.532 220.2 285.385 220.416L284.868 221.039C283.558 222.769 281.788 224.16 279.727 225.076C277.637 225.951 275.292 226.158 273.06 225.666L273.306 225.564L266.172 237.607L293.343 238.662ZM272.925 225.405L272.986 225.28H273.171C275.306 225.671 277.522 225.408 279.481 224.532C281.44 223.632 283.111 222.276 284.327 220.597L284.807 219.996C284.954 219.781 285.089 219.565 285.225 219.338L286.037 218.034C286.467 217.104 286.947 216.186 287.267 215.233C287.586 214.281 287.98 213.317 288.251 212.33L289.001 209.37L289.087 209.019H289.456L310.637 209.971H311.116V210.425C311.117 211.996 311.24 213.565 311.485 215.12C311.712 216.659 312.087 218.177 312.604 219.656C313.095 221.137 313.82 222.543 314.757 223.829C315.681 225.084 316.927 226.109 318.386 226.811L318.644 226.936V227.186L320.575 240.022L320.661 240.555H320.071C311.006 240.113 301.928 239.592 292.912 239.081L266.074 237.528L272.925 225.405Z" fill="black"/>
<path d="M278.115 144.347C255.594 147.068 224.537 155.211 214.598 161.538C207.636 165.984 191.843 196.794 189.002 206.002C187.772 209.971 219.161 223.727 221.671 219.973C224.672 215.437 238.645 179.966 240.121 179.807C241.597 179.648 266.972 167.061 282.703 156.946C299.972 145.866 286.947 143.281 278.115 144.347Z" fill="#AD6359"/>
<path d="M187.415 205.311L227.378 215.857C229.684 213.292 231.362 210.298 232.298 207.08C234.758 198.427 236.16 186.044 237.734 184.4C240.293 181.746 268.251 167.617 280.501 160.529C292.752 153.442 301.793 139.675 274.843 143.394C247.894 147.114 218.005 156.492 211.154 161.107C206.332 164.373 195.016 181.519 188.633 193.143C185.951 198.019 187.415 205.311 187.415 205.311Z" fill="#190C43"/>
<path d="M256.713 173.502C259.1 172.209 261.51 170.939 263.921 169.692C266.627 168.286 269.358 166.921 272.113 165.598C274.794 164.305 277.525 163.137 280.243 161.924C280.44 161.833 280.612 162.139 280.415 162.241C276.91 163.976 273.441 165.791 269.973 167.605C271.83 167.004 273.663 166.471 275.582 165.893C275.597 165.888 275.613 165.885 275.63 165.886C275.646 165.886 275.662 165.89 275.677 165.896C275.692 165.903 275.705 165.912 275.716 165.923C275.727 165.934 275.736 165.947 275.741 165.961C275.747 165.975 275.75 165.99 275.749 166.005C275.748 166.02 275.745 166.035 275.738 166.049C275.731 166.062 275.721 166.075 275.709 166.085C275.697 166.095 275.683 166.103 275.668 166.108C273.429 166.845 271.166 167.514 268.89 168.172L266.43 169.476C261.719 171.914 254.475 174.715 256.713 173.502Z" fill="#263238"/>
<path d="M191.117 196.182C192.71 196.528 194.278 196.96 195.816 197.475C197.206 197.872 198.608 198.246 199.998 198.609C203.024 199.505 206.062 200.378 209.088 201.285C212.113 202.192 215.127 203.088 218.14 204.018C221.154 204.948 224.167 205.776 227.107 206.853C227.218 206.853 227.107 207.057 227.107 207.046C223.995 206.513 220.957 205.685 217.894 204.902C214.832 204.12 211.917 203.292 208.952 202.408C205.988 201.523 202.938 200.537 199.949 199.539C198.522 199.051 197.095 198.529 195.681 198.008C194.129 197.519 192.614 196.939 191.142 196.273C190.994 196.273 191.031 196.182 191.117 196.182Z" fill="#263238"/>
<path d="M299.419 161.55C299.419 161.55 288.693 145.118 279.296 143.179L265.311 144.902C265.311 144.902 262.494 145.061 262.125 143.349C261.191 139.119 267.599 132.803 277.734 128.936C287.008 125.409 302.617 130.331 312.482 135.445C321.965 140.367 326.012 147.227 321.153 152.602C316.295 157.978 299.419 161.55 299.419 161.55Z" fill="#190C43"/>
<path opacity="0.1" d="M301.252 158.919C301.252 158.919 315.089 154.043 317.586 149.767C320.083 145.492 311.436 138.768 305.507 135.536C296.369 130.523 289.517 129.492 282.556 133.03C275.594 136.568 301.252 158.919 301.252 158.919Z" fill="black"/>
<path d="M292.592 122.937C291.96 124.892 291.137 126.79 290.132 128.607C289.136 129.945 284.93 130.285 284.93 130.285C284.93 130.285 288.509 132.996 289.776 133.132C291.043 133.268 293.995 131.136 293.995 131.136C293.995 131.136 290.538 134.969 288.779 134.64C287.685 134.436 291.239 135.672 291.239 135.672C292.467 135.999 293.782 135.893 294.929 135.377C296.602 134.504 292.592 122.937 292.592 122.937Z" fill="#263238"/>
<path d="M318.275 124.74C317.709 129.276 320.735 133.245 324.978 133.71C329.222 134.175 333.182 130.909 333.748 126.418C334.314 121.928 331.288 117.913 327.057 117.448C322.826 116.983 318.853 120.204 318.275 124.74Z" fill="#455A64"/>
<path d="M315.729 124.74C315.101 129.73 318.435 134.198 323.183 134.719C327.93 135.241 332.309 131.601 332.949 126.6C333.588 121.599 330.255 117.142 325.495 116.621C320.735 116.099 316.368 119.716 315.729 124.74Z" fill="#C7C7C7"/>
<path d="M302.912 158.318C297.439 158.601 290.612 151.094 289.382 144.88C289.308 144.46 291.301 140.865 293.503 136.386C294.831 133.665 296.233 130.614 297.303 127.734L315.237 138.269C312.788 141.511 310.781 145.019 309.259 148.713C309.118 149.112 309.016 149.522 308.951 149.937C307.611 153.827 305.372 158.182 302.912 158.318Z" fill="#AD6359"/>
<path d="M315.286 138.269C312.843 141.513 310.84 145.02 309.32 148.713C309.174 149.111 309.071 149.521 309.013 149.937L308.939 150.13C308.252 150.005 307.577 149.827 306.922 149.597C295.606 145.708 296.824 133.041 297.808 128.051L315.286 138.269Z" fill="#263238"/>
<path d="M296.073 107.73C292.691 114.069 293.146 133.903 297.537 138.96C303.896 146.297 315.987 148.713 323.195 141.308C330.157 134.118 329.074 108.286 324.019 103.523C316.565 96.5262 301.055 98.3859 296.073 107.73Z" fill="#AD6359"/>
<path d="M311.313 118.923C311.934 118.772 312.546 118.59 313.146 118.378C313.818 118.263 314.432 117.949 314.892 117.482C315.014 117.308 315.067 117.1 315.042 116.893C315.018 116.687 314.917 116.495 314.757 116.348C314.412 116.103 314.003 115.946 313.57 115.894C313.138 115.842 312.699 115.897 312.297 116.054C311.432 116.266 310.68 116.762 310.182 117.448C310.069 117.612 310.011 117.803 310.016 117.996C310.021 118.19 310.089 118.378 310.21 118.536C310.331 118.694 310.501 118.815 310.698 118.884C310.894 118.953 311.108 118.966 311.313 118.923Z" fill="#263238"/>
<path d="M326.012 119.206C325.382 119.078 324.762 118.915 324.154 118.719C323.479 118.633 322.853 118.346 322.371 117.902C322.245 117.732 322.185 117.527 322.201 117.321C322.216 117.116 322.307 116.921 322.457 116.768C322.794 116.509 323.199 116.338 323.632 116.272C324.064 116.207 324.508 116.248 324.917 116.394C325.791 116.567 326.564 117.037 327.082 117.709C327.202 117.868 327.268 118.056 327.271 118.249C327.274 118.442 327.214 118.632 327.099 118.793C326.983 118.955 326.818 119.08 326.624 119.154C326.43 119.228 326.217 119.246 326.012 119.206Z" fill="#263238"/>
<path d="M312.777 134.674C313.121 135.003 313.453 135.434 314.007 135.49C314.545 135.49 315.077 135.386 315.569 135.184C315.569 135.184 315.667 135.184 315.569 135.252C315.357 135.512 315.071 135.714 314.744 135.836C314.417 135.958 314.06 135.995 313.712 135.944C313.419 135.866 313.159 135.71 312.962 135.496C312.765 135.283 312.641 135.02 312.604 134.742C312.617 134.663 312.727 134.629 312.777 134.674Z" fill="#263238"/>
<path d="M314.4 130.716C314.755 131.252 315.227 131.715 315.786 132.074C316.345 132.433 316.979 132.681 317.648 132.803C318.228 132.926 318.826 132.964 319.419 132.916H319.763H320.083C320.159 132.905 320.228 132.871 320.282 132.82C320.335 132.768 320.369 132.703 320.378 132.633C320.385 132.588 320.385 132.542 320.378 132.497V132.372C320.44 131.351 320.378 129.786 320.378 129.786C320.784 129.979 322.838 130.92 322.838 130.342C322.826 125.705 322.303 121.081 321.276 116.541C321.276 116.508 321.262 116.476 321.236 116.453C321.211 116.43 321.177 116.417 321.141 116.417C321.105 116.417 321.07 116.43 321.045 116.453C321.02 116.476 321.005 116.508 321.005 116.541C321.005 120.828 321.793 125.08 321.854 129.389C321.125 129.052 320.346 128.815 319.542 128.686C319.382 128.686 319.739 131.714 319.677 132.179C318.761 132.245 317.839 132.139 316.969 131.868C316.098 131.598 315.295 131.167 314.609 130.603C314.437 130.512 314.314 130.603 314.4 130.716Z" fill="#263238"/>
<path d="M318.779 132.383C318.15 133.105 317.327 133.664 316.393 134.005C315.87 134.164 315.305 134.164 314.782 134.005C313.638 133.699 313.638 132.723 313.871 131.896C313.995 131.453 314.177 131.027 314.413 130.625C315.629 131.624 317.158 132.24 318.779 132.383Z" fill="#263238"/>
<path d="M316.393 134.005C315.87 134.164 315.305 134.164 314.782 134.005C313.638 133.699 313.638 132.723 313.871 131.896C314.489 131.93 315.076 132.158 315.535 132.541C315.993 132.925 316.296 133.441 316.393 134.005Z" fill="#FF97B8"/>
<path d="M310.44 121.826C310.842 121.734 311.256 121.695 311.67 121.712C312.088 121.724 312.503 121.793 312.9 121.916C313.312 122.054 313.695 122.258 314.031 122.517C314.363 122.803 314.623 123.151 314.794 123.538L315.089 124.241L314.29 124.071C313.716 123.954 313.131 123.89 312.543 123.878C311.938 123.856 311.336 123.977 310.796 124.23C311.2 123.727 311.8 123.39 312.469 123.288C313.135 123.164 313.821 123.164 314.486 123.288L313.982 123.821C313.696 123.256 313.21 122.796 312.604 122.517C311.915 122.208 311.189 121.976 310.44 121.826Z" fill="#263238"/>
<path d="M312.42 125.08C313.056 125.015 313.681 124.874 314.277 124.661C314.413 124.604 314.954 124.32 314.942 124.23C314.912 123.938 314.837 123.652 314.72 123.379C314.919 123.629 315.057 123.915 315.126 124.218C315.063 124.375 314.964 124.518 314.837 124.637C314.71 124.756 314.557 124.849 314.388 124.91C313.76 125.126 313.081 125.185 312.42 125.08Z" fill="#263238"/>
<path d="M326.368 122.223C326.029 122.132 325.675 122.097 325.323 122.121C324.956 122.134 324.595 122.203 324.253 122.325C323.865 122.471 323.517 122.693 323.23 122.975C322.944 123.257 322.726 123.592 322.592 123.958L322.322 124.661L323.035 124.491C323.53 124.371 324.037 124.303 324.548 124.286C325.085 124.262 325.619 124.38 326.085 124.627C325.922 124.389 325.708 124.183 325.457 124.024C325.205 123.864 324.921 123.753 324.622 123.697C324.043 123.572 323.441 123.572 322.863 123.697L323.293 124.23C323.533 123.677 323.966 123.215 324.523 122.914C325.104 122.613 325.724 122.381 326.368 122.223Z" fill="#263238"/>
<path d="M324.72 125.488C324.164 125.425 323.622 125.287 323.109 125.08C322.998 125.08 322.518 124.74 322.531 124.649C322.557 124.359 322.623 124.074 322.727 123.799C322.552 124.059 322.431 124.348 322.371 124.649C322.423 124.795 322.506 124.929 322.616 125.044C322.726 125.159 322.86 125.253 323.01 125.318C323.548 125.534 324.145 125.593 324.72 125.488Z" fill="#263238"/>
<path d="M297.66 124.218C297.66 124.218 293.896 117.346 290.588 118.492C287.279 119.637 289.419 129.174 292.838 130.886C293.257 131.138 293.727 131.309 294.22 131.388C294.712 131.468 295.217 131.454 295.704 131.348C296.19 131.242 296.648 131.046 297.05 130.771C297.452 130.497 297.789 130.15 298.041 129.752L297.66 124.218Z" fill="#AD6359"/>
<path d="M291.276 121.213V121.293C293.663 122.574 294.659 124.921 295.237 127.28C295.126 127.027 294.958 126.799 294.742 126.612C294.526 126.425 294.269 126.283 293.989 126.197C293.708 126.111 293.41 126.082 293.116 126.112C292.822 126.143 292.538 126.232 292.285 126.373C292.211 126.373 292.285 126.509 292.285 126.509C292.75 126.436 293.229 126.498 293.654 126.687C294.08 126.876 294.431 127.183 294.659 127.564C295.039 128.2 295.34 128.873 295.557 129.571C295.643 129.798 296.073 129.741 296.024 129.491C296.553 126.464 294.696 121.973 291.276 121.213Z" fill="#263238"/>
<path d="M293.798 123.799C297.66 123.527 302.002 112.584 302.002 112.584L301.338 118.911C303.366 117.9 305.139 116.505 306.541 114.818C307.708 112.978 308.28 110.869 308.189 108.739C310.46 111.142 313.175 113.154 316.208 114.681C317.832 115.419 328.89 117.698 329.05 116.949C329.529 114.795 327.82 106.743 325.028 104.192C321.879 101.21 313.958 96.5601 305.803 97.8075C299.296 98.8168 298.927 103.228 296.947 105.984C296.947 105.984 291.842 108.422 291.252 110.043C289.997 113.57 292.383 123.901 293.798 123.799Z" fill="#263238"/>
<path d="M294.536 119.07C294.536 119.07 294.536 109.182 298.14 103.954C302.1 98.1477 314.327 97.1498 319.333 100.382C319.333 100.382 310.477 96.7869 302.334 104.668C298.902 107.991 298.078 119.569 298.078 119.569L294.536 119.07Z" fill="#C7C7C7"/>
<path d="M304.142 124.74C303.81 129.752 299.665 133.608 294.88 133.336C290.096 133.064 286.504 128.8 286.848 123.742C287.193 118.684 291.326 114.874 296.11 115.146C300.895 115.419 304.487 119.682 304.142 124.74Z" fill="#C7C7C7"/>
<path d="M301.645 124.275C301.338 128.811 297.611 132.213 293.318 131.998C289.026 131.782 285.791 127.893 286.098 123.379C286.406 118.866 290.132 115.441 294.425 115.657C298.718 115.872 301.953 119.762 301.645 124.275Z" fill="#455A64"/>
<path d="M297.402 124.116C297.223 124.954 296.785 125.727 296.142 126.342C295.499 126.957 294.677 127.388 293.775 127.584C292.874 127.78 291.93 127.732 291.056 127.446C290.183 127.16 289.418 126.648 288.852 125.971C288.287 125.294 287.944 124.482 287.867 123.631C287.789 122.779 287.979 121.925 288.413 121.171C288.848 120.417 289.509 119.794 290.318 119.377C291.127 118.96 292.049 118.767 292.974 118.821C294.321 118.984 295.543 119.634 296.373 120.626C297.203 121.618 297.573 122.873 297.402 124.116Z" fill="#37474F"/>
<path d="M301.252 158.919C301.252 158.919 294.806 138.144 280.895 132.905L279.296 143.179C279.296 143.179 287.906 145.254 299.419 161.55L301.252 158.919Z" fill="#190C43"/>
<path d="M275.36 142.419C278.033 142.859 280.573 143.818 282.814 145.231C285.08 146.59 287.168 148.184 289.038 149.983C290.932 151.766 292.698 153.66 294.327 155.653L296.676 158.715L298.878 161.867L299.136 162.219L299.542 162.139C302.592 161.509 305.592 160.687 308.521 159.679C309.994 159.198 311.433 158.63 312.826 157.978C314.233 157.346 315.568 156.586 316.811 155.71C314.101 157.078 311.234 158.162 308.263 158.941C306.787 159.361 305.298 159.724 303.798 160.075C302.297 160.427 300.797 160.745 299.296 161.005L299.96 161.277L297.771 158.034C296.996 156.991 296.196 155.948 295.385 154.916C294.573 153.884 293.663 152.92 292.752 151.967C291.842 151.015 290.895 150.074 289.862 149.223C287.861 147.458 285.625 145.934 283.208 144.687C282.605 144.37 281.978 144.097 281.35 143.825C280.723 143.553 280.12 143.338 279.407 143.145C278.111 142.696 276.744 142.45 275.36 142.419Z" fill="#263238"/>
<path d="M265.68 144.857C268.14 144.778 270.514 144.54 272.802 144.268C274.996 144 277.172 143.622 279.321 143.134C276.861 143.213 274.487 143.44 272.199 143.712C270.006 143.987 267.83 144.37 265.68 144.857Z" fill="#263238"/>
<path d="M296.172 155.12C294.595 159.229 293.401 163.456 292.605 167.753C292.039 170.746 291.473 181.712 295.151 181.837C298.829 181.962 294.118 174.171 294.044 168.331C293.97 162.491 296.319 158.579 297.107 155.199L296.172 155.12Z" fill="#190C43"/>
<g opacity="0.1">
<path d="M296.172 155.12C294.595 159.229 293.401 163.456 292.605 167.753C292.039 170.746 291.473 181.712 295.151 181.837C298.829 181.962 294.118 174.171 294.044 168.331C293.97 162.491 296.319 158.579 297.107 155.199L296.172 155.12Z" fill="black"/>
</g>
<path d="M309.53 156.322C310.153 160.233 310.412 164.186 310.304 168.138C310.243 170.905 308.656 180.737 305.384 180.261C302.113 179.784 307.771 173.604 308.951 168.422C310.132 163.239 308.792 159.35 308.718 156.243L309.53 156.322Z" fill="#190C43"/>
<g opacity="0.1">
<path d="M309.53 156.322C310.153 160.233 310.412 164.186 310.304 168.138C310.243 170.905 308.656 180.737 305.384 180.261C302.113 179.784 307.771 173.604 308.951 168.422C310.132 163.239 308.792 159.35 308.718 156.243L309.53 156.322Z" fill="black"/>
</g>
<path d="M230.502 250.274C223.983 250.274 206.333 241.871 205.533 241.485L205.816 240.986C206.025 241.077 226.283 250.727 231.437 249.627C233.762 249.117 236.135 247.496 238.891 245.613C245.582 241.077 253.909 235.35 268.3 240.193C269.53 240.601 270.76 241.054 272.113 241.519C284.228 245.772 300.809 251.589 306.553 238.775C309.013 233.275 306.959 227.526 304.794 221.436C303.392 217.501 301.94 213.43 301.854 209.461C301.781 206.15 303.269 201.41 304.979 195.853C308.177 185.647 311.805 174.001 306.725 167.503C301.838 161.148 297.322 154.558 293.195 147.76C290.243 142.567 294.191 128.063 294.425 127.45L295.016 127.586C295.016 127.734 290.957 142.498 293.786 147.488C297.873 154.264 302.352 160.831 307.205 167.163C312.469 173.899 308.804 185.647 305.557 196.023C303.933 201.251 302.396 206.229 302.457 209.405C302.531 213.283 303.97 217.343 305.36 221.221C307.475 227.129 309.653 233.253 307.119 238.945C301.178 252.27 284.265 246.328 271.928 241.996C270.6 241.531 269.333 241.088 268.115 240.68C254.032 235.94 245.852 241.531 239.284 246.021C236.48 247.938 234.044 249.605 231.597 250.126C231.24 250.216 230.872 250.265 230.502 250.274Z" fill="#1C0E44"/>
<path d="M307.045 167.889C306.639 163.829 311.965 159.259 316.737 155.222C318.819 153.55 320.763 151.738 322.555 149.801C325.593 146.195 327.795 134.232 327.807 134.107L328.422 134.198C328.324 134.696 326.184 146.422 323.035 150.153C321.229 152.114 319.263 153.945 317.156 155.63C312.531 159.576 307.316 164.056 307.66 167.832L307.045 167.889Z" fill="#263238"/>
<path d="M176.48 217.728L218.719 232.663C219.949 233.003 220.711 233.99 220.293 234.931L212.913 250.682C212.599 251.148 212.121 251.5 211.559 251.68C210.997 251.859 210.385 251.855 209.826 251.669L167.6 236.723C166.308 236.394 165.607 235.396 166.013 234.523L173.393 218.771C173.693 218.291 174.166 217.923 174.731 217.732C175.295 217.541 175.915 217.54 176.48 217.728Z" fill="#37474F"/>
<path d="M175.583 219.576L217.808 234.511C219.038 234.851 219.813 235.838 219.395 236.723L212.015 252.474C211.699 252.937 211.22 253.287 210.659 253.465C210.097 253.642 209.486 253.637 208.928 253.449L166.702 238.514C165.472 238.174 164.697 237.187 165.115 236.314L172.495 220.563C172.808 220.096 173.286 219.742 173.848 219.562C174.411 219.383 175.023 219.388 175.583 219.576Z" fill="#455A64"/>
<path d="M175.312 224.929C176.259 225.462 177.292 225.28 177.612 224.532C177.734 224.085 177.69 223.613 177.487 223.192C177.284 222.771 176.934 222.424 176.493 222.207C175.558 221.674 174.525 221.856 174.205 222.604C174.082 223.05 174.124 223.521 174.325 223.942C174.525 224.363 174.873 224.711 175.312 224.929Z" fill="#263238"/>
<path d="M214.862 246.335L223.796 250.028L224.943 247.669L216.009 243.976L214.862 246.335Z" fill="#190C43"/>
<path d="M203.048 258.552C201.921 258.472 200.846 258.078 199.967 257.422C199.089 256.766 198.447 255.878 198.128 254.878C196.457 255.771 194.498 256.096 192.593 255.796C189.272 255.116 188.903 250.013 188.903 250.013C186.959 250.601 184.868 250.636 182.901 250.115C179.789 249.174 178.682 244.071 178.682 244.071C176.57 243.704 174.671 242.649 173.332 241.1C169.949 236.825 173.196 229.317 175.226 224.521C177.255 219.724 187.833 207.885 189.605 205.447L223.073 217.116C223.073 217.116 220.613 240.93 217.403 246.305C214.684 250.829 207.403 258.733 203.048 258.552Z" fill="#AD6359"/>
<path d="M198.251 254.923C202.384 250.795 204.98 245.772 207.882 240.884C207.886 240.863 207.882 240.842 207.872 240.823C207.862 240.804 207.845 240.788 207.825 240.778C207.805 240.769 207.782 240.765 207.759 240.767C207.736 240.77 207.715 240.779 207.698 240.794C204.881 245.681 201.044 249.99 198.005 254.764C197.983 254.795 197.974 254.832 197.981 254.868C197.987 254.904 198.01 254.936 198.042 254.957C198.075 254.978 198.115 254.987 198.155 254.98C198.194 254.974 198.229 254.953 198.251 254.923Z" fill="#263238"/>
<path d="M189.039 250.138C189.876 249.113 190.567 247.992 191.093 246.804C191.745 245.579 192.323 244.354 192.95 243.107C194.156 240.627 195.287 238.117 196.345 235.577C196.345 235.464 196.21 235.362 196.16 235.486C194.93 237.959 193.7 240.419 192.47 242.846C191.819 244.06 191.154 245.262 190.478 246.475C189.759 247.571 189.178 248.739 188.744 249.956C188.742 249.989 188.75 250.021 188.767 250.051C188.783 250.08 188.807 250.104 188.837 250.123C188.866 250.141 188.9 250.152 188.935 250.154C188.971 250.157 189.006 250.151 189.039 250.138Z" fill="#263238"/>
<path d="M178.744 244.014C179.491 243.082 180.061 242.039 180.429 240.93C180.945 239.796 181.474 238.662 182.015 237.528C183.073 235.26 184.143 232.992 185.3 230.724C185.3 230.61 185.177 230.52 185.115 230.633C183.885 232.901 182.717 235.169 181.548 237.437C180.982 238.571 180.416 239.705 179.863 240.839C179.25 241.821 178.833 242.896 178.633 244.014C178.64 244.021 178.648 244.027 178.658 244.031C178.667 244.035 178.678 244.037 178.688 244.037C178.699 244.037 178.709 244.035 178.719 244.031C178.728 244.027 178.737 244.021 178.744 244.014Z" fill="#263238"/>
<path d="M396.06 90.1984C395.514 94.9476 393.549 99.464 390.385 103.245C387.22 107.026 382.98 109.923 378.135 111.615C373.291 113.306 368.032 113.725 362.945 112.825C357.858 111.925 353.141 109.741 349.32 106.517L335.261 108.41L342.272 97.2518C340.509 93.3077 339.845 89.0193 340.341 84.7778C341.121 77.9657 344.804 71.7182 350.58 67.4095C353.44 65.2761 356.727 63.683 360.255 62.721C363.783 61.759 367.482 61.4471 371.14 61.803C374.799 62.1589 378.345 63.1757 381.578 64.7953C384.81 66.4149 387.665 68.6057 389.979 71.2424C392.293 73.8792 394.021 76.9103 395.064 80.1628C396.108 83.4153 396.446 86.8253 396.06 90.1984Z" fill="white"/>
<path d="M396.06 90.1984C395.509 94.9524 393.552 99.4755 390.402 103.273C389.621 104.222 388.775 105.124 387.868 105.972C386.935 106.783 385.949 107.54 384.916 108.24C380.752 111.146 375.796 112.931 370.599 113.4C369.306 113.502 368.008 113.525 366.712 113.468C365.412 113.434 364.117 113.309 362.838 113.094C357.674 112.222 352.877 110.039 348.988 106.789L349.32 106.88L335.335 108.864L334.314 109.011L334.831 108.184L341.792 97.0024V97.4446C339.733 92.8262 339.155 87.7597 340.127 82.8473C341.099 77.9348 343.58 73.3829 347.276 69.7322C350.971 66.0816 355.725 63.4857 360.974 62.253C366.223 61.0203 371.745 61.2026 376.884 62.7783C380.929 64.0437 384.615 66.1284 387.671 68.8792C390.725 71.6179 393.067 74.9588 394.52 78.6512C395.972 82.3436 396.499 86.2915 396.06 90.1984ZM396.06 90.1984C396.506 86.3118 395.979 82.3826 394.519 78.7135C393.058 75.0444 390.704 71.7332 387.637 69.035C384.571 66.3368 380.873 64.3236 376.829 63.1504C372.786 61.9772 368.504 61.6753 364.314 62.268C360.163 62.8432 356.209 64.2819 352.752 66.4751C349.337 68.6913 346.487 71.5665 344.4 74.9007C342.338 78.2474 341.122 81.9805 340.845 85.8211C340.589 89.6553 341.261 93.4941 342.813 97.0591L342.924 97.2972L342.789 97.5013L335.741 108.637L335.236 107.957L349.258 106.154H349.443L349.591 106.267C353.326 109.496 357.965 111.699 362.985 112.629C364.237 112.869 365.508 113.013 366.786 113.06C368.059 113.145 369.338 113.145 370.611 113.06C373.168 112.878 375.684 112.37 378.09 111.552C380.51 110.731 382.786 109.584 384.842 108.15C385.876 107.45 386.862 106.692 387.794 105.882C388.688 105.036 389.522 104.138 390.291 103.194C393.474 99.4339 395.47 94.9371 396.06 90.1984Z" fill="#263238"/>
<path d="M380.07 92.3757C376.927 96.2536 372.917 99.4635 368.311 101.788C363.705 99.4635 359.695 96.2536 356.552 92.3757C352.42 87.3294 352.616 79.4254 358.545 77.7131C365.089 75.8193 368.311 84.9026 368.311 84.9026C368.311 84.9026 371.571 75.7626 378.077 77.7131C383.969 79.4821 384.19 87.3181 380.07 92.3757Z" fill="#FE1111"/>
<path d="M285.791 69.7636C285.616 70.6096 285.172 71.3886 284.516 72.0016C283.86 72.6147 283.021 73.034 282.105 73.2063C281.19 73.3786 280.24 73.2962 279.376 72.9694C278.511 72.6427 277.772 72.0864 277.251 71.3712C276.731 70.6561 276.452 69.8144 276.452 68.9532C276.451 68.0919 276.729 67.25 277.248 66.5343C277.768 65.8187 278.507 65.2617 279.371 64.9341C280.235 64.6065 281.185 64.5231 282.101 64.6946C283.317 64.9193 284.387 65.5784 285.079 66.528C285.77 67.4776 286.026 68.6407 285.791 69.7636Z" fill="#455A64"/>
<path d="M290.207 48.2928L286.679 47.6741L282.256 69.1079L285.785 69.7267L290.207 48.2928Z" fill="#455A64"/>
<path d="M302.039 66.1915C301.864 67.0351 301.423 67.8121 300.769 68.4244C300.116 69.0366 299.281 69.4565 298.369 69.6311C297.457 69.8057 296.509 69.7271 295.645 69.4053C294.782 69.0834 294.041 68.5327 293.517 67.8228C292.993 67.1129 292.709 66.2757 292.7 65.417C292.692 64.5582 292.96 63.7165 293.471 62.9982C293.981 62.2799 294.711 61.7172 295.569 61.3813C296.426 61.0455 297.372 60.9515 298.287 61.1112C298.896 61.2173 299.475 61.433 299.993 61.7459C300.511 62.0587 300.957 62.4626 301.305 62.9344C301.654 63.4062 301.898 63.9368 302.024 64.4956C302.149 65.0545 302.155 65.6308 302.039 66.1915Z" fill="#455A64"/>
<path d="M306.453 44.7141L302.924 44.0953L298.502 65.5292L302.03 66.1479L306.453 44.7141Z" fill="#455A64"/>
<path d="M306.455 44.7476L286.098 50.531L286.688 47.662L307.045 41.8899L306.455 44.7476Z" fill="#455A64"/>
<path d="M305.347 50.1567L284.979 55.9288L285.569 53.0711L305.938 47.2877L305.347 50.1567Z" fill="#455A64"/>
<path d="M264.822 115.115C266.238 114.842 267.145 113.561 266.849 112.256C266.552 110.95 265.163 110.114 263.747 110.387C262.331 110.661 261.423 111.941 261.72 113.247C262.017 114.553 263.406 115.389 264.822 115.115Z" fill="#455A64"/>
<path d="M273.714 103.843L272.036 102.831L264.822 113.007L266.5 114.018L273.714 103.843Z" fill="#455A64"/>
<path d="M275.68 115.396C275.39 115.787 274.981 116.092 274.505 116.271C274.029 116.45 273.506 116.496 273.002 116.403C272.497 116.31 272.034 116.082 271.669 115.748C271.304 115.414 271.054 114.988 270.95 114.523C270.846 114.059 270.892 113.577 271.084 113.136C271.275 112.696 271.602 112.318 272.025 112.048C272.448 111.778 272.948 111.629 273.463 111.62C273.977 111.61 274.483 111.74 274.917 111.994C275.214 112.167 275.47 112.394 275.67 112.661C275.87 112.927 276.01 113.228 276.081 113.546C276.153 113.863 276.154 114.19 276.085 114.508C276.016 114.826 275.878 115.128 275.68 115.396Z" fill="#455A64"/>
<path d="M282.933 105.181L281.255 104.17L274.041 114.345L275.719 115.357L282.933 105.181Z" fill="#455A64"/>
<path d="M282.9 105.212L271.067 104.203L272.039 102.842L283.859 103.852L282.9 105.212Z" fill="#455A64"/>
<path d="M281.08 107.775L269.259 106.766L270.219 105.405L282.051 106.415L281.08 107.775Z" fill="#455A64"/>
<path d="M254.413 97.6374C254.286 98.2572 253.963 98.8284 253.484 99.2786C253.005 99.7289 252.391 100.038 251.722 100.166C251.052 100.295 250.356 100.238 249.721 100.001C249.087 99.7648 248.543 99.3601 248.158 98.8385C247.774 98.3169 247.566 97.7017 247.561 97.071C247.555 96.4402 247.753 95.8223 248.129 95.2954C248.505 94.7684 249.043 94.3562 249.673 94.111C250.303 93.8658 250.998 93.7986 251.67 93.9178C252.568 94.0772 253.361 94.5582 253.875 95.2553C254.389 95.9524 254.583 96.809 254.413 97.6374Z" fill="#455A64"/>
<path d="M257.649 81.8927L255.063 81.4392L251.818 97.1692L254.404 97.6227L257.649 81.8927Z" fill="#455A64"/>
<path d="M267.294 79.3822L264.709 78.9287L263.771 83.4739L266.357 83.9274L267.294 79.3822Z" fill="#455A64"/>
<path d="M267.181 79.9809L254.635 83.5304L255.077 81.4211L267.611 77.8717L267.181 79.9809Z" fill="#455A64"/>
<path d="M266.356 83.9386L253.823 87.488L254.253 85.3901L266.799 81.8407L266.356 83.9386Z" fill="#455A64"/>
</svg>
