<svg width="550" height="550" viewBox="0 0 550 550" fill="none" xmlns="http://www.w3.org/2000/svg">
<path d="M550 420.64H0V420.915H550V420.64Z" fill="#EBEBEB"/>
<path d="M494.89 438.339H458.458V438.614H494.89V438.339Z" fill="#EBEBEB"/>
<path d="M364.342 441.331H354.783V441.606H364.342V441.331Z" fill="#EBEBEB"/>
<path d="M457.358 428.131H436.249V428.406H457.358V428.131Z" fill="#EBEBEB"/>
<path d="M105.215 429.979H57.706V430.254H105.215V429.979Z" fill="#EBEBEB"/>
<path d="M121.979 429.979H115.016V430.254H121.979V429.979Z" fill="#EBEBEB"/>
<path d="M247.665 434.621H144.617V434.896H247.665V434.621Z" fill="#EBEBEB"/>
<path d="M260.7 371.58H48.301C46.6371 371.577 45.0423 370.914 43.8668 369.736C42.6912 368.559 42.031 366.963 42.031 365.299V66.726C42.0455 65.0716 42.7121 63.4898 43.8861 62.324C45.0601 61.1583 46.6466 60.5028 48.301 60.5H260.7C262.366 60.5 263.963 61.1617 265.141 62.3397C266.319 63.5176 266.981 65.1152 266.981 66.781V365.299C266.981 366.965 266.319 368.562 265.141 369.74C263.963 370.918 262.366 371.58 260.7 371.58ZM48.301 60.72C46.71 60.7229 45.1852 61.357 44.0612 62.483C42.9373 63.609 42.306 65.135 42.306 66.726V365.299C42.306 366.89 42.9373 368.416 44.0612 369.542C45.1852 370.668 46.71 371.302 48.301 371.305H260.7C262.292 371.302 263.818 370.668 264.944 369.543C266.069 368.417 266.703 366.891 266.706 365.299V66.726C266.703 65.134 266.069 63.608 264.944 62.4823C263.818 61.3566 262.292 60.7229 260.7 60.72H48.301Z" fill="#EBEBEB"/>
<path d="M498.641 371.58H286.231C284.566 371.577 282.97 370.914 281.793 369.737C280.616 368.56 279.953 366.964 279.95 365.299V66.726C279.967 65.0706 280.636 63.4888 281.812 62.3234C282.988 61.1579 284.575 60.5028 286.231 60.5H498.641C500.293 60.5057 501.877 61.1625 503.049 62.3279C504.22 63.4933 504.885 65.0735 504.9 66.726V365.299C504.9 366.961 504.241 368.555 503.068 369.733C501.895 370.91 500.303 371.574 498.641 371.58ZM286.231 60.72C284.639 60.7229 283.113 61.3566 281.987 62.4823C280.862 63.608 280.228 65.134 280.225 66.726V365.299C280.228 366.891 280.862 368.417 281.987 369.543C283.113 370.668 284.639 371.302 286.231 371.305H498.641C500.233 371.302 501.759 370.668 502.885 369.543C504.01 368.417 504.644 366.891 504.647 365.299V66.726C504.644 65.134 504.01 63.608 502.885 62.4823C501.759 61.3566 500.233 60.7229 498.641 60.72H286.231Z" fill="#EBEBEB"/>
<path d="M225.06 166.661H188.353V191.664H225.06V166.661Z" fill="#E6E6E6"/>
<path d="M240.218 175.043H211.31V194.722H240.218V175.043Z" fill="#EBEBEB"/>
<path d="M166.419 194.755C170.641 194.755 174.064 191.332 174.064 187.11C174.064 182.888 170.641 179.465 166.419 179.465C162.197 179.465 158.774 182.888 158.774 187.11C158.774 191.332 162.197 194.755 166.419 194.755Z" fill="#E6E6E6"/>
<path d="M128.313 156.613L127.26 156.928L136.713 188.499L137.767 188.184L128.313 156.613Z" fill="#E0E0E0"/>
<path d="M139.718 155.15L129.04 188.171L130.086 188.51L140.765 155.488L139.718 155.15Z" fill="#E0E0E0"/>
<path d="M133.063 152.69L131.965 152.746L133.831 189.592L134.93 189.537L133.063 152.69Z" fill="#E0E0E0"/>
<path d="M141.603 175.637H127.16V193.083H141.603V175.637Z" fill="#EBEBEB"/>
<path d="M75.779 420.827H256.751V191.664L75.779 191.664L75.779 420.827Z" fill="#F0F0F0"/>
<path d="M82.17 249.018L250.349 249.018V200.013L82.17 200.013V249.018Z" fill="#E0E0E0"/>
<path d="M240.801 249.018H250.349V207.944H240.801V249.018Z" fill="#EBEBEB"/>
<path d="M194.59 249.018H204.149V207.944H194.59V249.018Z" fill="#EBEBEB"/>
<path d="M135.18 247.381L144.6 249.004L151.577 208.527L142.157 206.904L135.18 247.381Z" fill="#EBEBEB"/>
<path d="M228.954 249.018H238.513V213.356H228.954V249.018Z" fill="#EBEBEB"/>
<path d="M206.987 249.018H216.546V213.356H206.987V249.018Z" fill="#EBEBEB"/>
<path d="M151.558 249.018H161.117V213.356H151.558V249.018Z" fill="#EBEBEB"/>
<path d="M174.32 246.929L183.652 249.003L191.389 214.191L182.057 212.117L174.32 246.929Z" fill="#EBEBEB"/>
<path d="M220.693 249.018H225.467V205.909H220.693V249.018Z" fill="#EBEBEB"/>
<path d="M163.878 249.018H168.652V205.909H163.878V249.018Z" fill="#EBEBEB"/>
<path d="M250.349 256.773H82.17V305.778H250.349V256.773Z" fill="#E0E0E0"/>
<path d="M91.729 264.715H82.17V305.789H91.729V264.715Z" fill="#EBEBEB"/>
<path d="M137.918 264.715H128.359V305.789H137.918V264.715Z" fill="#EBEBEB"/>
<path d="M190.373 263.674L180.953 265.298L187.93 305.775L197.35 304.151L190.373 263.674Z" fill="#EBEBEB"/>
<path d="M103.565 270.127H94.006V305.789H103.565V270.127Z" fill="#EBEBEB"/>
<path d="M125.521 270.127H115.962V305.789H125.521V270.127Z" fill="#EBEBEB"/>
<path d="M180.95 270.127H171.391V305.789H180.95V270.127Z" fill="#EBEBEB"/>
<path d="M150.481 268.887L141.15 270.96L148.887 305.773L158.218 303.699L150.481 268.887Z" fill="#EBEBEB"/>
<path d="M111.815 262.669H107.041V305.778H111.815V262.669Z" fill="#EBEBEB"/>
<path d="M168.641 262.669H163.867V305.778H168.641V262.669Z" fill="#EBEBEB"/>
<path d="M240.801 305.778H250.349V264.704H240.801V305.778Z" fill="#EBEBEB"/>
<path d="M228.954 305.778H238.513V270.116H228.954V305.778Z" fill="#EBEBEB"/>
<path d="M206.987 305.778H216.546V270.116H206.987V305.778Z" fill="#EBEBEB"/>
<path d="M220.693 305.778H225.467V262.669H220.693V305.778Z" fill="#EBEBEB"/>
<path d="M82.17 362.538H250.349V313.533H82.17V362.538Z" fill="#E0E0E0"/>
<path d="M144.254 362.538H153.813V321.464H144.254V362.538Z" fill="#EBEBEB"/>
<path d="M84.8493 360.926L94.2694 362.549L101.246 322.072L91.8264 320.448L84.8493 360.926Z" fill="#EBEBEB"/>
<path d="M178.618 362.538H188.177V326.876H178.618V362.538Z" fill="#EBEBEB"/>
<path d="M156.662 362.538H166.221V326.876H156.662V362.538Z" fill="#EBEBEB"/>
<path d="M101.233 362.538H110.792V326.876H101.233V362.538Z" fill="#EBEBEB"/>
<path d="M123.984 360.467L133.315 362.541L141.052 327.728L131.721 325.654L123.984 360.467Z" fill="#EBEBEB"/>
<path d="M170.368 362.549H175.142V319.44H170.368V362.549Z" fill="#EBEBEB"/>
<path d="M113.542 362.549H118.316V319.44H113.542V362.549Z" fill="#EBEBEB"/>
<path d="M194.764 360.922L204.184 362.546L211.161 322.069L201.741 320.445L194.764 360.922Z" fill="#EBEBEB"/>
<path d="M211.145 362.538H220.704V326.876H211.145V362.538Z" fill="#EBEBEB"/>
<path d="M233.906 360.469L243.238 362.543L250.975 327.73L241.643 325.657L233.906 360.469Z" fill="#EBEBEB"/>
<path d="M223.454 362.549H228.228V319.44H223.454V362.549Z" fill="#EBEBEB"/>
<path d="M103.796 159.973C103.796 159.973 109.175 153.571 112.596 156.552C116.017 159.533 114.29 165.869 110.319 166.078C107.951 166.215 105.612 165.505 103.719 164.076L103.796 159.973Z" fill="#EBEBEB"/>
<path d="M81.862 143.737C81.862 143.737 77.341 139.007 74.547 139.81C71.753 140.613 72.039 151.91 80.707 147.334L81.862 143.737Z" fill="#F0F0F0"/>
<path d="M97.988 179.036C97.988 179.036 112.827 158.73 100.782 154.616C88.737 150.502 86.592 170.951 90.035 176.616C93.478 182.281 97.988 179.036 97.988 179.036Z" fill="#F0F0F0"/>
<path d="M91.102 137.5C91.102 137.5 81.895 116.127 95.502 115.5C109.109 114.873 110.627 136.697 94.93 139.865L91.102 137.5Z" fill="#F0F0F0"/>
<path d="M94.369 154.968C94.369 154.968 98.846 136.092 90.244 134.585C81.642 133.078 73.15 150.139 90.948 158.708C90.948 158.708 93.995 156.816 94.369 154.968Z" fill="#EBEBEB"/>
<path d="M108.669 176.154H83.754L85.833 192.093H106.59L108.669 176.154Z" fill="#E0E0E0"/>
<path d="M95.7 135.938C99.44 132.011 102.63 126.775 101.827 121.176C101.799 120.778 101.732 120.384 101.629 119.999C100.903 117.04 102.729 122.364 102.487 123.53C102.487 128.469 99.55 133.056 95.7 135.938Z" fill="#E0E0E0"/>
<path d="M99 117.601C93.643 119.592 91.388 125.301 91.498 130.592C91.498 131.362 91.564 132.132 91.498 132.924C91.344 132.154 91.234 131.384 91.091 130.603C90.42 125.103 93.016 118.789 98.945 117.601H99Z" fill="#E0E0E0"/>
<path d="M88.55 135.938C86.7477 136.948 85.3352 138.532 84.5378 140.438C83.7404 142.344 83.6039 144.462 84.15 146.454C85.2066 149.392 86.8965 152.062 89.1 154.275C89.793 155.067 90.53 155.815 91.3 156.552C89.5846 155.302 88.0325 153.843 86.68 152.207C84.8445 150.21 83.6292 147.722 83.182 145.046C82.885 141.317 84.964 137.214 88.572 135.938H88.55Z" fill="#E0E0E0"/>
<path d="M91.102 137.5C90.783 140.217 90.134 143.451 91.476 145.915C92.2763 147.218 92.692 148.72 92.675 150.249C92.7099 151.731 92.5434 153.212 92.18 154.649C92.18 151.844 92.466 148.698 90.86 146.289C89.441 143.561 90.2 140.261 91.102 137.489V137.5Z" fill="#E0E0E0"/>
<path d="M97.163 156.552C95.92 157.465 95.623 159.159 95.15 160.545C94.0075 165.006 93.0897 169.522 92.4 174.075C92.29 170.148 93.588 158.554 97.13 156.552H97.163Z" fill="#E0E0E0"/>
<path d="M101.376 157.212C102.509 159.527 102.941 162.122 102.616 164.679C102.292 167.236 101.226 169.642 99.55 171.6C99.0594 172.129 98.5378 172.629 97.988 173.096C99.8542 170.953 101.144 168.371 101.737 165.592C102.33 162.813 102.206 159.929 101.376 157.212Z" fill="#E0E0E0"/>
<path d="M78.353 146.047C76.813 146.696 74.536 145.849 74.272 144.067C75.4321 145.078 76.8408 145.761 78.353 146.047Z" fill="#E0E0E0"/>
<path d="M79.277 142.923C77.792 142.263 76.505 141.482 74.877 142.12C75.977 140.448 78.518 141.405 79.277 142.923Z" fill="#E0E0E0"/>
<path d="M106.249 160.919C107.096 158.961 110.209 156.519 112.024 158.719C109.736 157.619 108.02 159.731 106.249 160.919Z" fill="#E0E0E0"/>
<path d="M106.249 164.076C108.713 163.79 112.013 164.373 113.322 161.799C113.025 164.989 108.537 164.923 106.249 164.076Z" fill="#E0E0E0"/>
<path d="M278.388 470.316C404.374 470.316 506.506 464.741 506.506 457.864C506.506 450.987 404.374 445.412 278.388 445.412C152.402 445.412 50.27 450.987 50.27 457.864C50.27 464.741 152.402 470.316 278.388 470.316Z" fill="#F5F5F5"/>
<path d="M479.787 115.434H305.998V279.378H479.787V115.434Z" fill="#190C42"/>
<path opacity="0.7" d="M479.787 115.434H305.998V279.378H479.787V115.434Z" fill="white"/>
<path d="M479.787 118.569H309.408V275.924H479.787V118.569Z" fill="#263238"/>
<path opacity="0.2" d="M315.7 218.416V205.205H319.473V196.394H324.511V183.172H325.765V196.394H330.803V205.205H334.587V218.416H341.506V222.2H344.652V236.676H345.279V215.908H347.171V229.119H349.052V197.648H350.317V210.87H355.355V206.459H357.236V188.21H361.02V169.961H362.274V172.48H388.08V164.923H392.491V135.971H394.372V164.923H400.664V172.48H403.183V210.243H416.405V198.913H411.994V197.021H416.405V193.875H428.989V164.923H432.135V160.512H447.238V164.923H449.13V205.205H456.049V223.454H459.833V208.978H462.979V205.205H469.898V191.983H473.671V183.172H478.082V169.961H479.787V275.924H309.408V218.416H315.7Z" fill="white"/>
<g opacity="0.2">
<path d="M378.444 174.449H376.662V176.231H378.444V174.449Z" fill="white"/>
<path d="M378.444 177.441H376.662V179.223H378.444V177.441Z" fill="white"/>
<path d="M378.444 189.398H376.662V191.18H378.444V189.398Z" fill="white"/>
<path d="M378.444 192.39H376.662V194.172H378.444V192.39Z" fill="white"/>
<path d="M378.444 195.371H376.662V197.153H378.444V195.371Z" fill="white"/>
<path d="M378.444 204.347H376.662V206.129H378.444V204.347Z" fill="white"/>
<path d="M378.444 207.339H376.662V209.121H378.444V207.339Z" fill="white"/>
<path d="M381.271 186.406H379.489V188.188H381.271V186.406Z" fill="white"/>
<path d="M381.271 189.398H379.489V191.18H381.271V189.398Z" fill="white"/>
<path d="M381.271 192.39H379.489V194.172H381.271V192.39Z" fill="white"/>
<path d="M381.271 195.371H379.489V197.153H381.271V195.371Z" fill="white"/>
<path d="M381.271 198.363H379.489V200.145H381.271V198.363Z" fill="white"/>
<path d="M381.271 204.347H379.489V206.129H381.271V204.347Z" fill="white"/>
<path d="M381.271 207.339H379.489V209.121H381.271V207.339Z" fill="white"/>
<path d="M384.109 174.449H382.327V176.231H384.109V174.449Z" fill="white"/>
<path d="M384.109 177.441H382.327V179.223H384.109V177.441Z" fill="white"/>
<path d="M384.109 180.433H382.327V182.215H384.109V180.433Z" fill="white"/>
<path d="M384.109 183.414H382.327V185.196H384.109V183.414Z" fill="white"/>
<path d="M384.109 186.406H382.327V188.188H384.109V186.406Z" fill="white"/>
<path d="M384.109 189.398H382.327V191.18H384.109V189.398Z" fill="white"/>
<path d="M384.109 192.39H382.327V194.172H384.109V192.39Z" fill="white"/>
<path d="M384.109 195.371H382.327V197.153H384.109V195.371Z" fill="white"/>
<path d="M384.109 198.363H382.327V200.145H384.109V198.363Z" fill="white"/>
<path d="M384.109 201.355H382.327V203.137H384.109V201.355Z" fill="white"/>
<path d="M384.109 207.339H382.327V209.121H384.109V207.339Z" fill="white"/>
<path d="M386.936 174.449H385.154V176.231H386.936V174.449Z" fill="white"/>
<path d="M386.936 177.441H385.154V179.223H386.936V177.441Z" fill="white"/>
<path d="M386.936 180.433H385.154V182.215H386.936V180.433Z" fill="white"/>
<path d="M386.936 183.414H385.154V185.196H386.936V183.414Z" fill="white"/>
<path d="M386.936 186.406H385.154V188.188H386.936V186.406Z" fill="white"/>
<path d="M386.936 189.398H385.154V191.18H386.936V189.398Z" fill="white"/>
<path d="M386.936 192.39H385.154V194.172H386.936V192.39Z" fill="white"/>
<path d="M386.936 219.296H385.154V221.078H386.936V219.296Z" fill="white"/>
<path d="M389.774 174.449H387.992V176.231H389.774V174.449Z" fill="white"/>
<path d="M389.774 177.441H387.992V179.223H389.774V177.441Z" fill="white"/>
<path d="M389.774 180.433H387.992V182.215H389.774V180.433Z" fill="white"/>
<path d="M389.774 183.414H387.992V185.196H389.774V183.414Z" fill="white"/>
<path d="M389.774 186.406H387.992V188.188H389.774V186.406Z" fill="white"/>
<path d="M389.774 189.398H387.992V191.18H389.774V189.398Z" fill="white"/>
<path d="M389.774 192.39H387.992V194.172H389.774V192.39Z" fill="white"/>
<path d="M389.774 195.371H387.992V197.153H389.774V195.371Z" fill="white"/>
<path d="M389.774 213.312H387.992V215.094H389.774V213.312Z" fill="white"/>
<path d="M389.774 216.304H387.992V218.086H389.774V216.304Z" fill="white"/>
<path d="M389.774 219.296H387.992V221.078H389.774V219.296Z" fill="white"/>
<path d="M389.774 222.277H387.992V224.059H389.774V222.277Z" fill="white"/>
<path d="M389.774 234.245H387.992V236.027H389.774V234.245Z" fill="white"/>
<path d="M392.601 174.449H390.819V176.231H392.601V174.449Z" fill="white"/>
<path d="M392.601 177.441H390.819V179.223H392.601V177.441Z" fill="white"/>
<path d="M392.601 180.433H390.819V182.215H392.601V180.433Z" fill="white"/>
<path d="M392.601 183.414H390.819V185.196H392.601V183.414Z" fill="white"/>
<path d="M392.601 186.406H390.819V188.188H392.601V186.406Z" fill="white"/>
<path d="M392.601 189.398H390.819V191.18H392.601V189.398Z" fill="white"/>
<path d="M392.601 192.39H390.819V194.172H392.601V192.39Z" fill="white"/>
<path d="M392.601 195.371H390.819V197.153H392.601V195.371Z" fill="white"/>
<path d="M392.601 198.363H390.819V200.145H392.601V198.363Z" fill="white"/>
<path d="M392.601 201.355H390.819V203.137H392.601V201.355Z" fill="white"/>
<path d="M392.601 210.32H390.819V212.102H392.601V210.32Z" fill="white"/>
<path d="M392.601 213.312H390.819V215.094H392.601V213.312Z" fill="white"/>
<path d="M392.601 216.304H390.819V218.086H392.601V216.304Z" fill="white"/>
<path d="M392.601 219.296H390.819V221.078H392.601V219.296Z" fill="white"/>
<path d="M392.601 222.277H390.819V224.059H392.601V222.277Z" fill="white"/>
<path d="M392.601 234.245H390.819V236.027H392.601V234.245Z" fill="white"/>
<path d="M395.439 174.449H393.657V176.231H395.439V174.449Z" fill="white"/>
<path d="M395.439 177.441H393.657V179.223H395.439V177.441Z" fill="white"/>
<path d="M395.439 180.433H393.657V182.215H395.439V180.433Z" fill="white"/>
<path d="M395.439 183.414H393.657V185.196H395.439V183.414Z" fill="white"/>
<path d="M395.439 186.406H393.657V188.188H395.439V186.406Z" fill="white"/>
<path d="M395.439 189.398H393.657V191.18H395.439V189.398Z" fill="white"/>
<path d="M395.439 192.39H393.657V194.172H395.439V192.39Z" fill="white"/>
<path d="M395.439 195.371H393.657V197.153H395.439V195.371Z" fill="white"/>
<path d="M395.439 198.363H393.657V200.145H395.439V198.363Z" fill="white"/>
<path d="M395.439 201.355H393.657V203.137H395.439V201.355Z" fill="white"/>
<path d="M395.439 204.347H393.657V206.129H395.439V204.347Z" fill="white"/>
<path d="M395.439 207.339H393.657V209.121H395.439V207.339Z" fill="white"/>
<path d="M395.439 210.32H393.657V212.102H395.439V210.32Z" fill="white"/>
<path d="M395.439 213.312H393.657V215.094H395.439V213.312Z" fill="white"/>
<path d="M395.439 216.304H393.657V218.086H395.439V216.304Z" fill="white"/>
<path d="M395.439 219.296H393.657V221.078H395.439V219.296Z" fill="white"/>
<path d="M395.439 222.277H393.657V224.059H395.439V222.277Z" fill="white"/>
<path d="M395.439 225.269H393.657V227.051H395.439V225.269Z" fill="white"/>
<path d="M398.266 174.449H396.484V176.231H398.266V174.449Z" fill="white"/>
<path d="M398.266 177.441H396.484V179.223H398.266V177.441Z" fill="white"/>
<path d="M398.266 180.433H396.484V182.215H398.266V180.433Z" fill="white"/>
<path d="M398.266 183.414H396.484V185.196H398.266V183.414Z" fill="white"/>
<path d="M398.266 186.406H396.484V188.188H398.266V186.406Z" fill="white"/>
<path d="M398.266 189.398H396.484V191.18H398.266V189.398Z" fill="white"/>
<path d="M398.266 192.39H396.484V194.172H398.266V192.39Z" fill="white"/>
<path d="M398.266 195.371H396.484V197.153H398.266V195.371Z" fill="white"/>
<path d="M398.266 198.363H396.484V200.145H398.266V198.363Z" fill="white"/>
<path d="M398.266 201.355H396.484V203.137H398.266V201.355Z" fill="white"/>
<path d="M398.266 210.32H396.484V212.102H398.266V210.32Z" fill="white"/>
<path d="M398.266 213.312H396.484V215.094H398.266V213.312Z" fill="white"/>
<path d="M398.266 216.304H396.484V218.086H398.266V216.304Z" fill="white"/>
<path d="M398.266 219.296H396.484V221.078H398.266V219.296Z" fill="white"/>
<path d="M401.104 174.449H399.322V176.231H401.104V174.449Z" fill="white"/>
<path d="M401.104 177.441H399.322V179.223H401.104V177.441Z" fill="white"/>
<path d="M401.104 180.433H399.322V182.215H401.104V180.433Z" fill="white"/>
<path d="M401.104 183.414H399.322V185.196H401.104V183.414Z" fill="white"/>
<path d="M401.104 186.406H399.322V188.188H401.104V186.406Z" fill="white"/>
<path d="M401.104 189.398H399.322V191.18H401.104V189.398Z" fill="white"/>
<path d="M401.104 192.39H399.322V194.172H401.104V192.39Z" fill="white"/>
<path d="M401.104 195.371H399.322V197.153H401.104V195.371Z" fill="white"/>
<path d="M401.104 198.363H399.322V200.145H401.104V198.363Z" fill="white"/>
<path d="M401.104 201.355H399.322V203.137H401.104V201.355Z" fill="white"/>
<path d="M401.104 210.32H399.322V212.102H401.104V210.32Z" fill="white"/>
<path d="M401.104 213.312H399.322V215.094H401.104V213.312Z" fill="white"/>
<path d="M401.104 216.304H399.322V218.086H401.104V216.304Z" fill="white"/>
<path d="M432.993 166.683H431.211V168.465H432.993V166.683Z" fill="white"/>
<path d="M432.993 169.675H431.211V171.457H432.993V169.675Z" fill="white"/>
<path d="M432.993 172.667H431.211V174.449H432.993V172.667Z" fill="white"/>
<path d="M432.993 175.659H431.211V177.441H432.993V175.659Z" fill="white"/>
<path d="M432.993 178.64H431.211V180.422H432.993V178.64Z" fill="white"/>
<path d="M432.993 181.632H431.211V183.414H432.993V181.632Z" fill="white"/>
<path d="M432.993 184.624H431.211V186.406H432.993V184.624Z" fill="white"/>
<path d="M432.993 187.616H431.211V189.398H432.993V187.616Z" fill="white"/>
<path d="M432.993 196.581H431.211V198.363H432.993V196.581Z" fill="white"/>
<path d="M432.993 199.573H431.211V201.355H432.993V199.573Z" fill="white"/>
<path d="M435.82 166.683H434.038V168.465H435.82V166.683Z" fill="white"/>
<path d="M435.82 169.675H434.038V171.457H435.82V169.675Z" fill="white"/>
<path d="M435.82 172.667H434.038V174.449H435.82V172.667Z" fill="white"/>
<path d="M435.82 175.659H434.038V177.441H435.82V175.659Z" fill="white"/>
<path d="M435.82 178.64H434.038V180.422H435.82V178.64Z" fill="white"/>
<path d="M435.82 181.632H434.038V183.414H435.82V181.632Z" fill="white"/>
<path d="M435.82 184.624H434.038V186.406H435.82V184.624Z" fill="white"/>
<path d="M435.82 187.616H434.038V189.398H435.82V187.616Z" fill="white"/>
<path d="M435.82 199.573H434.038V201.355H435.82V199.573Z" fill="white"/>
<path d="M438.647 166.683H436.865V168.465H438.647V166.683Z" fill="white"/>
<path d="M438.647 169.675H436.865V171.457H438.647V169.675Z" fill="white"/>
<path d="M438.647 172.667H436.865V174.449H438.647V172.667Z" fill="white"/>
<path d="M438.647 175.659H436.865V177.441H438.647V175.659Z" fill="white"/>
<path d="M438.647 178.64H436.865V180.422H438.647V178.64Z" fill="white"/>
<path d="M438.647 181.632H436.865V183.414H438.647V181.632Z" fill="white"/>
<path d="M438.647 184.624H436.865V186.406H438.647V184.624Z" fill="white"/>
<path d="M438.647 187.616H436.865V189.398H438.647V187.616Z" fill="white"/>
<path d="M441.485 166.683H439.703V168.465H441.485V166.683Z" fill="white"/>
<path d="M441.485 169.675H439.703V171.457H441.485V169.675Z" fill="white"/>
<path d="M441.485 172.667H439.703V174.449H441.485V172.667Z" fill="white"/>
<path d="M441.485 175.659H439.703V177.441H441.485V175.659Z" fill="white"/>
<path d="M441.485 178.64H439.703V180.422H441.485V178.64Z" fill="white"/>
<path d="M441.485 181.632H439.703V183.414H441.485V181.632Z" fill="white"/>
<path d="M441.485 187.616H439.703V189.398H441.485V187.616Z" fill="white"/>
<path d="M441.485 190.608H439.703V192.39H441.485V190.608Z" fill="white"/>
<path d="M441.485 199.573H439.703V201.355H441.485V199.573Z" fill="white"/>
<path d="M441.485 202.565H439.703V204.347H441.485V202.565Z" fill="white"/>
<path d="M441.485 205.546H439.703V207.328H441.485V205.546Z" fill="white"/>
<path d="M441.485 208.538H439.703V210.32H441.485V208.538Z" fill="white"/>
<path d="M441.485 211.53H439.703V213.312H441.485V211.53Z" fill="white"/>
<path d="M441.485 214.522H439.703V216.304H441.485V214.522Z" fill="white"/>
<path d="M441.485 217.514H439.703V219.296H441.485V217.514Z" fill="white"/>
<path d="M444.312 166.683H442.53V168.465H444.312V166.683Z" fill="white"/>
<path d="M444.312 169.675H442.53V171.457H444.312V169.675Z" fill="white"/>
<path d="M444.312 172.667H442.53V174.449H444.312V172.667Z" fill="white"/>
<path d="M444.312 175.659H442.53V177.441H444.312V175.659Z" fill="white"/>
<path d="M444.312 178.64H442.53V180.422H444.312V178.64Z" fill="white"/>
<path d="M444.312 181.632H442.53V183.414H444.312V181.632Z" fill="white"/>
<path d="M444.312 190.608H442.53V192.39H444.312V190.608Z" fill="white"/>
<path d="M444.312 193.589H442.53V195.371H444.312V193.589Z" fill="white"/>
<path d="M444.312 196.581H442.53V198.363H444.312V196.581Z" fill="white"/>
<path d="M444.312 199.573H442.53V201.355H444.312V199.573Z" fill="white"/>
<path d="M444.312 202.565H442.53V204.347H444.312V202.565Z" fill="white"/>
<path d="M444.312 205.546H442.53V207.328H444.312V205.546Z" fill="white"/>
<path d="M444.312 208.538H442.53V210.32H444.312V208.538Z" fill="white"/>
<path d="M444.312 211.53H442.53V213.312H444.312V211.53Z" fill="white"/>
<path d="M444.312 214.522H442.53V216.304H444.312V214.522Z" fill="white"/>
<path d="M444.312 217.514H442.53V219.296H444.312V217.514Z" fill="white"/>
<path d="M444.312 220.495H442.53V222.277H444.312V220.495Z" fill="white"/>
<path d="M444.312 226.479H442.53V228.261H444.312V226.479Z" fill="white"/>
<path d="M447.15 166.683H445.368V168.465H447.15V166.683Z" fill="white"/>
<path d="M447.15 169.675H445.368V171.457H447.15V169.675Z" fill="white"/>
<path d="M447.15 172.667H445.368V174.449H447.15V172.667Z" fill="white"/>
<path d="M447.15 175.659H445.368V177.441H447.15V175.659Z" fill="white"/>
<path d="M447.15 178.64H445.368V180.422H447.15V178.64Z" fill="white"/>
<path d="M447.15 181.632H445.368V183.414H447.15V181.632Z" fill="white"/>
<path d="M447.15 190.608H445.368V192.39H447.15V190.608Z" fill="white"/>
<path d="M447.15 193.589H445.368V195.371H447.15V193.589Z" fill="white"/>
<path d="M447.15 196.581H445.368V198.363H447.15V196.581Z" fill="white"/>
<path d="M447.15 199.573H445.368V201.355H447.15V199.573Z" fill="white"/>
<path d="M447.15 208.538H445.368V210.32H447.15V208.538Z" fill="white"/>
<path d="M447.15 211.53H445.368V213.312H447.15V211.53Z" fill="white"/>
<path d="M447.15 214.522H445.368V216.304H447.15V214.522Z" fill="white"/>
<path d="M447.15 217.514H445.368V219.296H447.15V217.514Z" fill="white"/>
<path d="M447.15 220.495H445.368V222.277H447.15V220.495Z" fill="white"/>
<path d="M447.15 226.479H445.368V228.261H447.15V226.479Z" fill="white"/>
<path d="M447.15 229.471H445.368V231.253H447.15V229.471Z" fill="white"/>
<path d="M472.846 194.48H471.064V196.262H472.846V194.48Z" fill="white"/>
<path d="M472.846 197.472H471.064V199.254H472.846V197.472Z" fill="white"/>
<path d="M472.846 200.464H471.064V202.246H472.846V200.464Z" fill="white"/>
<path d="M472.846 203.456H471.064V205.238H472.846V203.456Z" fill="white"/>
<path d="M472.846 206.437H471.064V208.219H472.846V206.437Z" fill="white"/>
<path d="M472.846 209.429H471.064V211.211H472.846V209.429Z" fill="white"/>
<path d="M472.846 212.421H471.064V214.203H472.846V212.421Z" fill="white"/>
<path d="M472.846 221.386H471.064V223.168H472.846V221.386Z" fill="white"/>
<path d="M472.846 224.378H471.064V226.16H472.846V224.378Z" fill="white"/>
<path d="M472.846 227.37H471.064V229.152H472.846V227.37Z" fill="white"/>
<path d="M475.684 194.48H473.902V196.262H475.684V194.48Z" fill="white"/>
<path d="M475.684 197.472H473.902V199.254H475.684V197.472Z" fill="white"/>
<path d="M475.684 200.464H473.902V202.246H475.684V200.464Z" fill="white"/>
<path d="M475.684 203.456H473.902V205.238H475.684V203.456Z" fill="white"/>
<path d="M475.684 206.437H473.902V208.219H475.684V206.437Z" fill="white"/>
<path d="M475.684 209.429H473.902V211.211H475.684V209.429Z" fill="white"/>
<path d="M475.684 212.421H473.902V214.203H475.684V212.421Z" fill="white"/>
<path d="M479.292 194.48H476.729V196.262H479.292V194.48Z" fill="white"/>
<path d="M479.292 197.472H476.729V199.254H479.292V197.472Z" fill="white"/>
<path d="M479.292 200.464H476.729V202.246H479.292V200.464Z" fill="white"/>
<path d="M479.292 203.456H476.729V205.238H479.292V203.456Z" fill="white"/>
<path d="M479.292 206.437H476.729V208.219H479.292V206.437Z" fill="white"/>
<path d="M479.292 209.429H476.729V211.211H479.292V209.429Z" fill="white"/>
<path d="M479.292 212.421H476.729V214.203H479.292V212.421Z" fill="white"/>
<path d="M322.74 198.363H320.958V200.145H322.74V198.363Z" fill="white"/>
<path d="M322.74 201.355H320.958V203.137H322.74V201.355Z" fill="white"/>
<path d="M322.74 204.347H320.958V206.129H322.74V204.347Z" fill="white"/>
<path d="M322.74 207.339H320.958V209.121H322.74V207.339Z" fill="white"/>
<path d="M322.74 210.32H320.958V212.102H322.74V210.32Z" fill="white"/>
<path d="M322.74 213.312H320.958V215.094H322.74V213.312Z" fill="white"/>
<path d="M322.74 216.304H320.958V218.086H322.74V216.304Z" fill="white"/>
<path d="M322.74 219.296H320.958V221.078H322.74V219.296Z" fill="white"/>
<path d="M322.74 222.277H320.958V224.059H322.74V222.277Z" fill="white"/>
<path d="M322.74 225.269H320.958V227.051H322.74V225.269Z" fill="white"/>
<path d="M322.74 228.261H320.958V230.043H322.74V228.261Z" fill="white"/>
<path d="M322.74 231.253H320.958V233.035H322.74V231.253Z" fill="white"/>
<path d="M322.74 234.245H320.958V236.027H322.74V234.245Z" fill="white"/>
<path d="M322.74 237.226H320.958V239.008H322.74V237.226Z" fill="white"/>
<path d="M322.74 240.218H320.958V242H322.74V240.218Z" fill="white"/>
<path d="M322.74 243.21H320.958V244.992H322.74V243.21Z" fill="white"/>
<path d="M322.74 246.202H320.958V247.984H322.74V246.202Z" fill="white"/>
<path d="M322.74 249.183H320.958V250.965H322.74V249.183Z" fill="white"/>
<path d="M322.74 252.175H320.958V253.957H322.74V252.175Z" fill="white"/>
<path d="M322.74 255.167H320.958V256.949H322.74V255.167Z" fill="white"/>
<path d="M325.578 198.363H323.796V200.145H325.578V198.363Z" fill="white"/>
<path d="M325.578 201.355H323.796V203.137H325.578V201.355Z" fill="white"/>
<path d="M325.578 204.347H323.796V206.129H325.578V204.347Z" fill="white"/>
<path d="M325.578 207.339H323.796V209.121H325.578V207.339Z" fill="white"/>
<path d="M325.578 210.32H323.796V212.102H325.578V210.32Z" fill="white"/>
<path d="M325.578 213.312H323.796V215.094H325.578V213.312Z" fill="white"/>
<path d="M325.578 216.304H323.796V218.086H325.578V216.304Z" fill="white"/>
<path d="M325.578 219.296H323.796V221.078H325.578V219.296Z" fill="white"/>
<path d="M325.578 222.277H323.796V224.059H325.578V222.277Z" fill="white"/>
<path d="M325.578 225.269H323.796V227.051H325.578V225.269Z" fill="white"/>
<path d="M325.578 228.261H323.796V230.043H325.578V228.261Z" fill="white"/>
<path d="M325.578 231.253H323.796V233.035H325.578V231.253Z" fill="white"/>
<path d="M325.578 234.245H323.796V236.027H325.578V234.245Z" fill="white"/>
<path d="M325.578 237.226H323.796V239.008H325.578V237.226Z" fill="white"/>
<path d="M325.578 240.218H323.796V242H325.578V240.218Z" fill="white"/>
<path d="M325.578 243.21H323.796V244.992H325.578V243.21Z" fill="white"/>
<path d="M325.578 246.202H323.796V247.984H325.578V246.202Z" fill="white"/>
<path d="M325.578 249.183H323.796V250.965H325.578V249.183Z" fill="white"/>
<path d="M328.405 198.363H326.623V200.145H328.405V198.363Z" fill="white"/>
<path d="M328.405 201.355H326.623V203.137H328.405V201.355Z" fill="white"/>
<path d="M328.405 204.347H326.623V206.129H328.405V204.347Z" fill="white"/>
<path d="M328.405 207.339H326.623V209.121H328.405V207.339Z" fill="white"/>
<path d="M328.405 210.32H326.623V212.102H328.405V210.32Z" fill="white"/>
<path d="M328.405 213.312H326.623V215.094H328.405V213.312Z" fill="white"/>
<path d="M328.405 216.304H326.623V218.086H328.405V216.304Z" fill="white"/>
<path d="M328.405 219.296H326.623V221.078H328.405V219.296Z" fill="white"/>
<path d="M328.405 222.277H326.623V224.059H328.405V222.277Z" fill="white"/>
<path d="M328.405 225.269H326.623V227.051H328.405V225.269Z" fill="white"/>
<path d="M328.405 228.261H326.623V230.043H328.405V228.261Z" fill="white"/>
<path d="M328.405 231.253H326.623V233.035H328.405V231.253Z" fill="white"/>
<path d="M328.405 234.245H326.623V236.027H328.405V234.245Z" fill="white"/>
<path d="M328.405 237.226H326.623V239.008H328.405V237.226Z" fill="white"/>
<path d="M328.405 240.218H326.623V242H328.405V240.218Z" fill="white"/>
<path d="M328.405 243.21H326.623V244.992H328.405V243.21Z" fill="white"/>
<path d="M328.405 246.202H326.623V247.984H328.405V246.202Z" fill="white"/>
<path d="M328.405 249.183H326.623V250.965H328.405V249.183Z" fill="white"/>
<path d="M312.147 220.187H310.365V221.969H312.147V220.187Z" fill="white"/>
<path d="M312.147 223.168H310.365V224.95H312.147V223.168Z" fill="white"/>
<path d="M312.147 226.16H310.365V227.942H312.147V226.16Z" fill="white"/>
<path d="M312.147 229.152H310.365V230.934H312.147V229.152Z" fill="white"/>
<path d="M312.147 232.144H310.365V233.926H312.147V232.144Z" fill="white"/>
<path d="M312.147 235.136H310.365V236.918H312.147V235.136Z" fill="white"/>
<path d="M312.147 238.117H310.365V239.899H312.147V238.117Z" fill="white"/>
<path d="M312.147 241.109H310.365V242.891H312.147V241.109Z" fill="white"/>
<path d="M312.147 244.101H310.365V245.883H312.147V244.101Z" fill="white"/>
<path d="M312.147 247.093H310.365V248.875H312.147V247.093Z" fill="white"/>
<path d="M312.147 250.074H310.365V251.856H312.147V250.074Z" fill="white"/>
<path d="M312.147 253.066H310.365V254.848H312.147V253.066Z" fill="white"/>
<path d="M312.147 256.058H310.365V257.84H312.147V256.058Z" fill="white"/>
<path d="M314.974 220.187H313.192V221.969H314.974V220.187Z" fill="white"/>
<path d="M314.974 223.168H313.192V224.95H314.974V223.168Z" fill="white"/>
<path d="M314.974 226.16H313.192V227.942H314.974V226.16Z" fill="white"/>
<path d="M314.974 229.152H313.192V230.934H314.974V229.152Z" fill="white"/>
<path d="M314.974 232.144H313.192V233.926H314.974V232.144Z" fill="white"/>
<path d="M314.974 235.136H313.192V236.918H314.974V235.136Z" fill="white"/>
<path d="M314.974 238.117H313.192V239.899H314.974V238.117Z" fill="white"/>
<path d="M314.974 241.109H313.192V242.891H314.974V241.109Z" fill="white"/>
<path d="M314.974 244.101H313.192V245.883H314.974V244.101Z" fill="white"/>
<path d="M314.974 247.093H313.192V248.875H314.974V247.093Z" fill="white"/>
<path d="M314.974 250.074H313.192V251.856H314.974V250.074Z" fill="white"/>
<path d="M314.974 253.066H313.192V254.848H314.974V253.066Z" fill="white"/>
<path d="M314.974 256.058H313.192V257.84H314.974V256.058Z" fill="white"/>
<path d="M317.812 220.187H316.03V221.969H317.812V220.187Z" fill="white"/>
<path d="M317.812 223.168H316.03V224.95H317.812V223.168Z" fill="white"/>
<path d="M317.812 226.16H316.03V227.942H317.812V226.16Z" fill="white"/>
<path d="M317.812 229.152H316.03V230.934H317.812V229.152Z" fill="white"/>
<path d="M317.812 232.144H316.03V233.926H317.812V232.144Z" fill="white"/>
<path d="M317.812 235.136H316.03V236.918H317.812V235.136Z" fill="white"/>
<path d="M317.812 238.117H316.03V239.899H317.812V238.117Z" fill="white"/>
<path d="M317.812 241.109H316.03V242.891H317.812V241.109Z" fill="white"/>
<path d="M317.812 244.101H316.03V245.883H317.812V244.101Z" fill="white"/>
<path d="M317.812 247.093H316.03V248.875H317.812V247.093Z" fill="white"/>
<path d="M317.812 250.074H316.03V251.856H317.812V250.074Z" fill="white"/>
<path d="M317.812 253.066H316.03V254.848H317.812V253.066Z" fill="white"/>
<path d="M317.812 256.058H316.03V257.84H317.812V256.058Z" fill="white"/>
<path d="M317.812 259.05H316.03V260.832H317.812V259.05Z" fill="white"/>
<path d="M333.542 221.078H331.76V222.86H333.542V221.078Z" fill="white"/>
<path d="M333.542 224.07H331.76V225.852H333.542V224.07Z" fill="white"/>
<path d="M333.542 227.051H331.76V228.833H333.542V227.051Z" fill="white"/>
<path d="M333.542 230.043H331.76V231.825H333.542V230.043Z" fill="white"/>
<path d="M333.542 233.035H331.76V234.817H333.542V233.035Z" fill="white"/>
<path d="M333.542 236.027H331.76V237.809H333.542V236.027Z" fill="white"/>
<path d="M333.542 239.008H331.76V240.79H333.542V239.008Z" fill="white"/>
<path d="M333.542 242H331.76V243.782H333.542V242Z" fill="white"/>
<path d="M333.542 244.992H331.76V246.774H333.542V244.992Z" fill="white"/>
<path d="M333.542 247.984H331.76V249.766H333.542V247.984Z" fill="white"/>
<path d="M333.542 256.949H331.76V258.731H333.542V256.949Z" fill="white"/>
<path d="M336.38 221.078H334.598V222.86H336.38V221.078Z" fill="white"/>
<path d="M336.38 224.07H334.598V225.852H336.38V224.07Z" fill="white"/>
<path d="M336.38 227.051H334.598V228.833H336.38V227.051Z" fill="white"/>
<path d="M336.38 230.043H334.598V231.825H336.38V230.043Z" fill="white"/>
<path d="M336.38 233.035H334.598V234.817H336.38V233.035Z" fill="white"/>
<path d="M336.38 236.027H334.598V237.809H336.38V236.027Z" fill="white"/>
<path d="M336.38 239.008H334.598V240.79H336.38V239.008Z" fill="white"/>
<path d="M336.38 242H334.598V243.782H336.38V242Z" fill="white"/>
<path d="M336.38 244.992H334.598V246.774H336.38V244.992Z" fill="white"/>
<path d="M336.38 253.957H334.598V255.739H336.38V253.957Z" fill="white"/>
<path d="M336.38 256.949H334.598V258.731H336.38V256.949Z" fill="white"/>
<path d="M339.207 221.078H337.425V222.86H339.207V221.078Z" fill="white"/>
<path d="M339.207 224.07H337.425V225.852H339.207V224.07Z" fill="white"/>
<path d="M339.207 227.051H337.425V228.833H339.207V227.051Z" fill="white"/>
<path d="M339.207 230.043H337.425V231.825H339.207V230.043Z" fill="white"/>
<path d="M339.207 233.035H337.425V234.817H339.207V233.035Z" fill="white"/>
<path d="M339.207 236.027H337.425V237.809H339.207V236.027Z" fill="white"/>
<path d="M339.207 239.008H337.425V240.79H339.207V239.008Z" fill="white"/>
<path d="M339.207 242H337.425V243.782H339.207V242Z" fill="white"/>
<path d="M339.207 250.976H337.425V252.758H339.207V250.976Z" fill="white"/>
<path d="M339.207 253.957H337.425V255.739H339.207V253.957Z" fill="white"/>
<path d="M339.207 256.949H337.425V258.731H339.207V256.949Z" fill="white"/>
<path d="M365.541 175.659H363.759V177.441H365.541V175.659Z" fill="white"/>
<path d="M365.541 178.64H363.759V180.422H365.541V178.64Z" fill="white"/>
<path d="M365.541 181.632H363.759V183.414H365.541V181.632Z" fill="white"/>
<path d="M365.541 184.624H363.759V186.406H365.541V184.624Z" fill="white"/>
<path d="M365.541 187.616H363.759V189.398H365.541V187.616Z" fill="white"/>
<path d="M365.541 190.608H363.759V192.39H365.541V190.608Z" fill="white"/>
<path d="M365.541 193.589H363.759V195.371H365.541V193.589Z" fill="white"/>
<path d="M365.541 196.581H363.759V198.363H365.541V196.581Z" fill="white"/>
<path d="M365.541 199.573H363.759V201.355H365.541V199.573Z" fill="white"/>
<path d="M365.541 202.565H363.759V204.347H365.541V202.565Z" fill="white"/>
<path d="M365.541 205.546H363.759V207.328H365.541V205.546Z" fill="white"/>
<path d="M365.541 208.538H363.759V210.32H365.541V208.538Z" fill="white"/>
<path d="M365.541 211.53H363.759V213.312H365.541V211.53Z" fill="white"/>
<path d="M365.541 214.522H363.759V216.304H365.541V214.522Z" fill="white"/>
<path d="M365.541 217.514H363.759V219.296H365.541V217.514Z" fill="white"/>
<path d="M365.541 220.495H363.759V222.277H365.541V220.495Z" fill="white"/>
<path d="M365.541 223.487H363.759V225.269H365.541V223.487Z" fill="white"/>
<path d="M365.541 229.471H363.759V231.253H365.541V229.471Z" fill="white"/>
<path d="M365.541 232.452H363.759V234.234H365.541V232.452Z" fill="white"/>
<path d="M365.541 235.444H363.759V237.226H365.541V235.444Z" fill="white"/>
<path d="M365.541 238.436H363.759V240.218H365.541V238.436Z" fill="white"/>
<path d="M365.541 241.428H363.759V243.21H365.541V241.428Z" fill="white"/>
<path d="M368.368 175.659H366.586V177.441H368.368V175.659Z" fill="white"/>
<path d="M368.368 178.64H366.586V180.422H368.368V178.64Z" fill="white"/>
<path d="M368.368 181.632H366.586V183.414H368.368V181.632Z" fill="white"/>
<path d="M368.368 184.624H366.586V186.406H368.368V184.624Z" fill="white"/>
<path d="M368.368 187.616H366.586V189.398H368.368V187.616Z" fill="white"/>
<path d="M368.368 190.608H366.586V192.39H368.368V190.608Z" fill="white"/>
<path d="M368.368 193.589H366.586V195.371H368.368V193.589Z" fill="white"/>
<path d="M368.368 196.581H366.586V198.363H368.368V196.581Z" fill="white"/>
<path d="M368.368 199.573H366.586V201.355H368.368V199.573Z" fill="white"/>
<path d="M368.368 202.565H366.586V204.347H368.368V202.565Z" fill="white"/>
<path d="M368.368 205.546H366.586V207.328H368.368V205.546Z" fill="white"/>
<path d="M368.368 208.538H366.586V210.32H368.368V208.538Z" fill="white"/>
<path d="M368.368 211.53H366.586V213.312H368.368V211.53Z" fill="white"/>
<path d="M368.368 214.522H366.586V216.304H368.368V214.522Z" fill="white"/>
<path d="M368.368 217.514H366.586V219.296H368.368V217.514Z" fill="white"/>
<path d="M368.368 220.495H366.586V222.277H368.368V220.495Z" fill="white"/>
<path d="M368.368 238.436H366.586V240.218H368.368V238.436Z" fill="white"/>
<path d="M368.368 241.428H366.586V243.21H368.368V241.428Z" fill="white"/>
<path d="M371.206 175.659H369.424V177.441H371.206V175.659Z" fill="white"/>
<path d="M371.206 178.64H369.424V180.422H371.206V178.64Z" fill="white"/>
<path d="M371.206 181.632H369.424V183.414H371.206V181.632Z" fill="white"/>
<path d="M371.206 184.624H369.424V186.406H371.206V184.624Z" fill="white"/>
<path d="M371.206 187.616H369.424V189.398H371.206V187.616Z" fill="white"/>
<path d="M371.206 190.608H369.424V192.39H371.206V190.608Z" fill="white"/>
<path d="M371.206 193.589H369.424V195.371H371.206V193.589Z" fill="white"/>
<path d="M371.206 196.581H369.424V198.363H371.206V196.581Z" fill="white"/>
<path d="M371.206 199.573H369.424V201.355H371.206V199.573Z" fill="white"/>
<path d="M371.206 202.565H369.424V204.347H371.206V202.565Z" fill="white"/>
<path d="M371.206 205.546H369.424V207.328H371.206V205.546Z" fill="white"/>
<path d="M371.206 208.538H369.424V210.32H371.206V208.538Z" fill="white"/>
<path d="M371.206 211.53H369.424V213.312H371.206V211.53Z" fill="white"/>
<path d="M371.206 214.522H369.424V216.304H371.206V214.522Z" fill="white"/>
<path d="M371.206 217.514H369.424V219.296H371.206V217.514Z" fill="white"/>
<path d="M371.206 220.495H369.424V222.277H371.206V220.495Z" fill="white"/>
<path d="M371.206 226.479H369.424V228.261H371.206V226.479Z" fill="white"/>
<path d="M371.206 229.471H369.424V231.253H371.206V229.471Z" fill="white"/>
<path d="M371.206 232.452H369.424V234.234H371.206V232.452Z" fill="white"/>
<path d="M371.206 235.444H369.424V237.226H371.206V235.444Z" fill="white"/>
<path d="M371.206 241.428H369.424V243.21H371.206V241.428Z" fill="white"/>
<path d="M355.256 213.312H353.474V215.094H355.256V213.312Z" fill="white"/>
<path d="M355.256 216.304H353.474V218.086H355.256V216.304Z" fill="white"/>
<path d="M355.256 219.296H353.474V221.078H355.256V219.296Z" fill="white"/>
<path d="M355.256 222.277H353.474V224.059H355.256V222.277Z" fill="white"/>
<path d="M355.256 225.269H353.474V227.051H355.256V225.269Z" fill="white"/>
<path d="M355.256 228.261H353.474V230.043H355.256V228.261Z" fill="white"/>
<path d="M355.256 231.253H353.474V233.035H355.256V231.253Z" fill="white"/>
<path d="M355.256 237.226H353.474V239.008H355.256V237.226Z" fill="white"/>
<path d="M355.256 240.218H353.474V242H355.256V240.218Z" fill="white"/>
<path d="M355.256 243.21H353.474V244.992H355.256V243.21Z" fill="white"/>
<path d="M355.256 246.202H353.474V247.984H355.256V246.202Z" fill="white"/>
<path d="M355.256 249.183H353.474V250.965H355.256V249.183Z" fill="white"/>
<path d="M355.256 252.175H353.474V253.957H355.256V252.175Z" fill="white"/>
<path d="M355.256 255.167H353.474V256.949H355.256V255.167Z" fill="white"/>
<path d="M355.256 258.159H353.474V259.941H355.256V258.159Z" fill="white"/>
<path d="M358.094 213.312H356.312V215.094H358.094V213.312Z" fill="white"/>
<path d="M358.094 216.304H356.312V218.086H358.094V216.304Z" fill="white"/>
<path d="M358.094 219.296H356.312V221.078H358.094V219.296Z" fill="white"/>
<path d="M358.094 222.277H356.312V224.059H358.094V222.277Z" fill="white"/>
<path d="M358.094 225.269H356.312V227.051H358.094V225.269Z" fill="white"/>
<path d="M358.094 228.261H356.312V230.043H358.094V228.261Z" fill="white"/>
<path d="M358.094 237.226H356.312V239.008H358.094V237.226Z" fill="white"/>
<path d="M358.094 240.218H356.312V242H358.094V240.218Z" fill="white"/>
<path d="M358.094 243.21H356.312V244.992H358.094V243.21Z" fill="white"/>
<path d="M358.094 246.202H356.312V247.984H358.094V246.202Z" fill="white"/>
<path d="M358.094 249.183H356.312V250.965H358.094V249.183Z" fill="white"/>
<path d="M358.094 252.175H356.312V253.957H358.094V252.175Z" fill="white"/>
<path d="M358.094 255.167H356.312V256.949H358.094V255.167Z" fill="white"/>
<path d="M358.094 258.159H356.312V259.941H358.094V258.159Z" fill="white"/>
<path d="M360.921 213.312H359.139V215.094H360.921V213.312Z" fill="white"/>
<path d="M360.921 216.304H359.139V218.086H360.921V216.304Z" fill="white"/>
<path d="M360.921 219.296H359.139V221.078H360.921V219.296Z" fill="white"/>
<path d="M360.921 222.277H359.139V224.059H360.921V222.277Z" fill="white"/>
<path d="M360.921 225.269H359.139V227.051H360.921V225.269Z" fill="white"/>
<path d="M360.921 228.261H359.139V230.043H360.921V228.261Z" fill="white"/>
<path d="M360.921 234.245H359.139V236.027H360.921V234.245Z" fill="white"/>
<path d="M360.921 237.226H359.139V239.008H360.921V237.226Z" fill="white"/>
<path d="M360.921 240.218H359.139V242H360.921V240.218Z" fill="white"/>
<path d="M360.921 243.21H359.139V244.992H360.921V243.21Z" fill="white"/>
<path d="M360.921 246.202H359.139V247.984H360.921V246.202Z" fill="white"/>
<path d="M360.921 249.183H359.139V250.965H360.921V249.183Z" fill="white"/>
<path d="M360.921 252.175H359.139V253.957H360.921V252.175Z" fill="white"/>
<path d="M360.921 255.167H359.139V256.949H360.921V255.167Z" fill="white"/>
<path d="M360.921 258.159H359.139V259.941H360.921V258.159Z" fill="white"/>
<path d="M420.607 196.581H418.825V198.363H420.607V196.581Z" fill="white"/>
<path d="M420.607 199.573H418.825V201.355H420.607V199.573Z" fill="white"/>
<path d="M420.607 202.565H418.825V204.347H420.607V202.565Z" fill="white"/>
<path d="M420.607 205.546H418.825V207.328H420.607V205.546Z" fill="white"/>
<path d="M420.607 208.538H418.825V210.32H420.607V208.538Z" fill="white"/>
<path d="M420.607 211.53H418.825V213.312H420.607V211.53Z" fill="white"/>
<path d="M420.607 214.522H418.825V216.304H420.607V214.522Z" fill="white"/>
<path d="M420.607 217.514H418.825V219.296H420.607V217.514Z" fill="white"/>
<path d="M420.607 220.495H418.825V222.277H420.607V220.495Z" fill="white"/>
<path d="M420.607 223.487H418.825V225.269H420.607V223.487Z" fill="white"/>
<path d="M420.607 226.479H418.825V228.261H420.607V226.479Z" fill="white"/>
<path d="M420.607 229.471H418.825V231.253H420.607V229.471Z" fill="white"/>
<path d="M420.607 232.452H418.825V234.234H420.607V232.452Z" fill="white"/>
<path d="M420.607 238.436H418.825V240.218H420.607V238.436Z" fill="white"/>
<path d="M420.607 241.428H418.825V243.21H420.607V241.428Z" fill="white"/>
<path d="M420.607 244.42H418.825V246.202H420.607V244.42Z" fill="white"/>
<path d="M420.607 247.401H418.825V249.183H420.607V247.401Z" fill="white"/>
<path d="M420.607 253.385H418.825V255.167H420.607V253.385Z" fill="white"/>
<path d="M420.607 256.377H418.825V258.159H420.607V256.377Z" fill="white"/>
<path d="M420.607 259.358H418.825V261.14H420.607V259.358Z" fill="white"/>
<path d="M423.445 196.581H421.663V198.363H423.445V196.581Z" fill="white"/>
<path d="M423.445 199.573H421.663V201.355H423.445V199.573Z" fill="white"/>
<path d="M423.445 202.565H421.663V204.347H423.445V202.565Z" fill="white"/>
<path d="M423.445 205.546H421.663V207.328H423.445V205.546Z" fill="white"/>
<path d="M423.445 208.538H421.663V210.32H423.445V208.538Z" fill="white"/>
<path d="M423.445 211.53H421.663V213.312H423.445V211.53Z" fill="white"/>
<path d="M423.445 214.522H421.663V216.304H423.445V214.522Z" fill="white"/>
<path d="M423.445 217.514H421.663V219.296H423.445V217.514Z" fill="white"/>
<path d="M423.445 220.495H421.663V222.277H423.445V220.495Z" fill="white"/>
<path d="M423.445 223.487H421.663V225.269H423.445V223.487Z" fill="white"/>
<path d="M423.445 226.479H421.663V228.261H423.445V226.479Z" fill="white"/>
<path d="M423.445 229.471H421.663V231.253H423.445V229.471Z" fill="white"/>
<path d="M423.445 232.452H421.663V234.234H423.445V232.452Z" fill="white"/>
<path d="M423.445 241.428H421.663V243.21H423.445V241.428Z" fill="white"/>
<path d="M423.445 244.42H421.663V246.202H423.445V244.42Z" fill="white"/>
<path d="M423.445 250.393H421.663V252.175H423.445V250.393Z" fill="white"/>
<path d="M423.445 253.385H421.663V255.167H423.445V253.385Z" fill="white"/>
<path d="M423.445 256.377H421.663V258.159H423.445V256.377Z" fill="white"/>
<path d="M423.445 259.358H421.663V261.14H423.445V259.358Z" fill="white"/>
<path d="M426.272 196.581H424.49V198.363H426.272V196.581Z" fill="white"/>
<path d="M426.272 199.573H424.49V201.355H426.272V199.573Z" fill="white"/>
<path d="M426.272 202.565H424.49V204.347H426.272V202.565Z" fill="white"/>
<path d="M426.272 205.546H424.49V207.328H426.272V205.546Z" fill="white"/>
<path d="M426.272 208.538H424.49V210.32H426.272V208.538Z" fill="white"/>
<path d="M426.272 211.53H424.49V213.312H426.272V211.53Z" fill="white"/>
<path d="M426.272 214.522H424.49V216.304H426.272V214.522Z" fill="white"/>
<path d="M426.272 217.514H424.49V219.296H426.272V217.514Z" fill="white"/>
<path d="M426.272 220.495H424.49V222.277H426.272V220.495Z" fill="white"/>
<path d="M426.272 223.487H424.49V225.269H426.272V223.487Z" fill="white"/>
<path d="M426.272 226.479H424.49V228.261H426.272V226.479Z" fill="white"/>
<path d="M426.272 229.471H424.49V231.253H426.272V229.471Z" fill="white"/>
<path d="M426.272 232.452H424.49V234.234H426.272V232.452Z" fill="white"/>
<path d="M426.272 235.444H424.49V237.226H426.272V235.444Z" fill="white"/>
<path d="M426.272 241.428H424.49V243.21H426.272V241.428Z" fill="white"/>
<path d="M426.272 247.401H424.49V249.183H426.272V247.401Z" fill="white"/>
<path d="M426.272 250.393H424.49V252.175H426.272V250.393Z" fill="white"/>
<path d="M426.272 253.385H424.49V255.167H426.272V253.385Z" fill="white"/>
<path d="M426.272 256.377H424.49V258.159H426.272V256.377Z" fill="white"/>
<path d="M426.272 259.358H424.49V261.14H426.272V259.358Z" fill="white"/>
<path d="M409.068 213.631H407.286V215.413H409.068V213.631Z" fill="white"/>
<path d="M409.068 216.612H407.286V218.394H409.068V216.612Z" fill="white"/>
<path d="M409.068 219.604H407.286V221.386H409.068V219.604Z" fill="white"/>
<path d="M409.068 222.596H407.286V224.378H409.068V222.596Z" fill="white"/>
<path d="M409.068 225.588H407.286V227.37H409.068V225.588Z" fill="white"/>
<path d="M409.068 228.58H407.286V230.362H409.068V228.58Z" fill="white"/>
<path d="M409.068 237.545H407.286V239.327H409.068V237.545Z" fill="white"/>
<path d="M409.068 240.537H407.286V242.319H409.068V240.537Z" fill="white"/>
<path d="M409.068 243.518H407.286V245.3H409.068V243.518Z" fill="white"/>
<path d="M409.068 246.51H407.286V248.292H409.068V246.51Z" fill="white"/>
<path d="M409.068 249.502H407.286V251.284H409.068V249.502Z" fill="white"/>
<path d="M409.068 252.494H407.286V254.276H409.068V252.494Z" fill="white"/>
<path d="M409.068 255.486H407.286V257.268H409.068V255.486Z" fill="white"/>
<path d="M411.906 213.631H410.124V215.413H411.906V213.631Z" fill="white"/>
<path d="M411.906 216.612H410.124V218.394H411.906V216.612Z" fill="white"/>
<path d="M411.906 219.604H410.124V221.386H411.906V219.604Z" fill="white"/>
<path d="M411.906 222.596H410.124V224.378H411.906V222.596Z" fill="white"/>
<path d="M411.906 225.588H410.124V227.37H411.906V225.588Z" fill="white"/>
<path d="M411.906 228.58H410.124V230.362H411.906V228.58Z" fill="white"/>
<path d="M411.906 237.545H410.124V239.327H411.906V237.545Z" fill="white"/>
<path d="M411.906 240.537H410.124V242.319H411.906V240.537Z" fill="white"/>
<path d="M411.906 243.518H410.124V245.3H411.906V243.518Z" fill="white"/>
<path d="M411.906 246.51H410.124V248.292H411.906V246.51Z" fill="white"/>
<path d="M411.906 249.502H410.124V251.284H411.906V249.502Z" fill="white"/>
<path d="M411.906 252.494H410.124V254.276H411.906V252.494Z" fill="white"/>
<path d="M411.906 258.467H410.124V260.249H411.906V258.467Z" fill="white"/>
</g>
<path opacity="0.7" d="M348 156.634C353.994 154.151 356.84 147.279 354.358 141.284C351.875 135.29 345.002 132.443 339.008 134.926C333.014 137.409 330.167 144.282 332.65 150.276C335.133 156.27 342.005 159.117 348 156.634Z" fill="white"/>
<path d="M479.787 115.874H476.245V279.378H479.787V115.874Z" fill="#190C42"/>
<path d="M422.928 115.874H419.936V279.378H422.928V115.874Z" fill="#190C42"/>
<path d="M366.63 115.874H363.638V279.378H366.63V115.874Z" fill="#190C42"/>
<g opacity="0.7">
<path d="M479.787 115.874H476.245V279.378H479.787V115.874Z" fill="white"/>
<path d="M422.928 115.874H419.936V279.378H422.928V115.874Z" fill="white"/>
<path d="M366.63 115.874H363.638V279.378H366.63V115.874Z" fill="white"/>
</g>
<path d="M445.863 454.729H301.609C274.659 454.729 272.932 422.994 295.086 408.056C299.118 405.352 303.582 403.358 308.286 402.16C352.143 390.621 413.787 313.06 457.138 345.521C457.179 345.544 457.216 345.574 457.248 345.609C500.61 378.29 470.393 454.729 445.863 454.729Z" fill="#190C42"/>
<path opacity="0.2" d="M457.138 345.521C453.497 345.279 449.075 346.302 444.334 350.284C432.003 360.624 450.758 410.421 421.234 431.134C404.734 442.684 333.773 447.788 310.068 433.609C292.6 423.137 292.369 416.581 295.086 408.1C299.118 405.396 303.582 403.402 308.286 402.204C352.143 390.621 413.787 313.06 457.138 345.521Z" fill="white"/>
<path d="M287.749 371.382C294.184 364.782 330.517 364.43 341.792 364.529C353.067 364.628 368.434 403.106 373.01 409.2C377.586 415.294 340.01 433.246 321.915 430.958C303.82 428.67 277.629 381.7 287.749 371.382Z" fill="#190C42"/>
<path opacity="0.2" d="M287.749 371.382C294.184 364.782 330.517 364.43 341.792 364.529C353.067 364.628 368.434 403.106 373.01 409.2C377.586 415.294 340.01 433.246 321.915 430.958C303.82 428.67 277.629 381.7 287.749 371.382Z" fill="black"/>
<path d="M228.635 112.761L222.992 100.595L220.11 94.3689L218.812 95.9089L213.081 102.773L205.084 102.388L203.027 102.278L206.173 109.087L210.518 118.459C209.715 118.455 208.922 118.632 208.197 118.976C206.129 119.933 204.996 121.913 205.689 123.376C206.382 124.839 208.615 125.279 210.683 124.311C212.751 123.343 213.884 121.374 213.202 119.911L208.186 109.076H216.546L221.749 102.212L225.951 111.287C225.148 111.283 224.355 111.46 223.63 111.804C221.562 112.761 220.44 114.741 221.122 116.204C221.804 117.667 224.048 118.107 226.116 117.15C228.184 116.193 229.317 114.202 228.635 112.75V112.761Z" fill="#190C42"/>
<path d="M223.85 218.801L219.89 215.501L218.856 214.643L216.403 226.017C215.983 225.709 215.504 225.492 214.995 225.379C213.532 225.06 212.168 225.654 211.937 226.699C211.706 227.744 212.718 228.833 214.137 229.152C215.556 229.471 216.964 228.877 217.195 227.832L218.834 220.209L222.86 223.245L223.85 218.801Z" fill="#190C42"/>
<path d="M205.304 151.976L205.106 149.776L198.264 146.916L196.482 146.168L196.856 150.48L197.582 158.741L197.934 162.844C197.23 162.59 196.479 162.492 195.734 162.558C193.6 162.745 191.972 164.131 192.104 165.66C192.236 167.189 194.073 168.278 196.218 168.091C198.363 167.904 199.969 166.518 199.848 164.989L199.287 158.598L198.88 153.824L205.689 156.299L205.491 154.099L198.649 151.228L198.506 149.534L205.304 151.976Z" fill="#190C42"/>
<path d="M242.363 191.686L244.2 182.82L245.113 178.277L243.793 178.596L237.941 180.048L233.739 176.649L232.639 175.769L232.023 178.816L230.813 184.855L230.263 187.561C229.831 187.238 229.331 187.019 228.8 186.923C227.293 186.615 225.885 187.242 225.665 188.32C225.445 189.398 226.501 190.52 228.019 190.828C229.537 191.136 230.923 190.509 231.143 189.431L232.738 181.533L237.281 184.833L242.847 183.183L242 187.11L241.45 189.827C241.015 189.507 240.516 189.285 239.987 189.178C238.469 188.881 237.072 189.508 236.852 190.586C236.632 191.664 237.688 192.786 239.195 193.094C240.702 193.402 242.11 192.764 242.33 191.686H242.363ZM243.133 181.643L237.27 183.095L233.068 179.685L233.31 178.486L237.864 181.786L243.43 180.125L243.133 181.599V181.643Z" fill="#190C42"/>
<path d="M243.562 457.897H307.582C307.748 457.897 307.912 457.864 308.064 457.801C308.217 457.737 308.356 457.644 308.473 457.526C308.589 457.408 308.681 457.269 308.744 457.115C308.806 456.962 308.837 456.798 308.836 456.632V452.551C308.836 452.219 308.704 451.9 308.469 451.664C308.234 451.429 307.915 451.297 307.582 451.297H246.862V320.595H306.537C306.838 320.597 307.137 320.538 307.416 320.424C307.695 320.31 307.948 320.141 308.162 319.929C308.376 319.716 308.545 319.464 308.661 319.185C308.776 318.907 308.836 318.608 308.836 318.307V313.995H243.562C242.687 313.995 241.847 314.343 241.229 314.962C240.61 315.581 240.262 316.42 240.262 317.295V454.597C240.262 455.472 240.61 456.312 241.229 456.931C241.847 457.549 242.687 457.897 243.562 457.897Z" fill="#263238"/>
<g opacity="0.3">
<path d="M240.262 317.306V454.597C240.262 455.472 240.61 456.312 241.229 456.931C241.847 457.549 242.687 457.897 243.562 457.897H307.582C307.915 457.897 308.234 457.765 308.469 457.53C308.704 457.295 308.836 456.976 308.836 456.643V452.562C308.836 452.229 308.704 451.908 308.469 451.671C308.235 451.435 307.916 451.3 307.582 451.297H246.862V320.606H306.548C307.156 320.603 307.738 320.36 308.167 319.929C308.595 319.498 308.836 318.915 308.836 318.307V314.006H243.562C242.687 314.006 241.847 314.354 241.229 314.973C240.61 315.592 240.262 316.431 240.262 317.306Z" fill="white"/>
</g>
<path opacity="0.2" d="M240.262 317.295V352.308C242.462 352.88 244.662 353.408 246.862 353.925V320.595H306.548C307.156 320.592 307.738 320.349 308.167 319.918C308.595 319.487 308.836 318.904 308.836 318.296V313.995H243.562C242.687 313.995 241.847 314.343 241.229 314.962C240.61 315.581 240.262 316.42 240.262 317.295Z" fill="black"/>
<path d="M126.687 439.516L152.9 437.228V402.754H162.129V437.217L188.529 439.516C189.648 439.626 190.687 440.148 191.441 440.982C192.196 441.816 192.613 442.901 192.61 444.026V447.524H122.595V444.026C122.595 442.9 123.014 441.815 123.771 440.981C124.527 440.148 125.567 439.625 126.687 439.516Z" fill="#263238"/>
<path opacity="0.1" d="M126.687 439.516L152.9 437.228V402.754H162.129V437.217L188.529 439.516C189.648 439.626 190.687 440.148 191.441 440.982C192.196 441.816 192.613 442.901 192.61 444.026V447.524H122.595V444.026C122.595 442.9 123.014 441.815 123.771 440.981C124.527 440.148 125.567 439.625 126.687 439.516Z" fill="white"/>
<path d="M184.107 451.858C184.105 453.053 184.457 454.223 185.12 455.217C185.783 456.212 186.726 456.988 187.83 457.446C188.934 457.905 190.149 458.025 191.321 457.793C192.494 457.56 193.571 456.985 194.416 456.139C195.261 455.294 195.837 454.217 196.069 453.045C196.302 451.872 196.182 450.657 195.723 449.553C195.265 448.449 194.489 447.506 193.494 446.843C192.499 446.181 191.33 445.828 190.135 445.83C188.536 445.83 187.003 446.465 185.873 447.596C184.742 448.726 184.107 450.259 184.107 451.858Z" fill="#263238"/>
<path d="M131.098 451.858C131.1 453.053 130.748 454.222 130.086 455.216C129.423 456.211 128.481 456.986 127.378 457.445C126.274 457.904 125.06 458.025 123.888 457.793C122.715 457.562 121.638 456.987 120.793 456.143C119.947 455.299 119.371 454.223 119.137 453.051C118.903 451.88 119.022 450.665 119.479 449.561C119.935 448.456 120.709 447.513 121.703 446.849C122.696 446.185 123.864 445.83 125.059 445.83C126.659 445.83 128.193 446.465 129.325 447.595C130.458 448.725 131.095 450.258 131.098 451.858Z" fill="#263238"/>
<path d="M159.676 409.783H155.441C154.905 409.783 154.374 409.678 153.879 409.473C153.384 409.267 152.934 408.967 152.555 408.588C152.176 408.209 151.876 407.759 151.671 407.264C151.466 406.769 151.36 406.238 151.36 405.702V376.002H163.757V405.702C163.757 406.785 163.327 407.823 162.562 408.588C161.796 409.353 160.758 409.783 159.676 409.783Z" fill="#263238"/>
<path opacity="0.2" d="M159.676 409.783H155.441C154.905 409.783 154.374 409.678 153.879 409.473C153.384 409.267 152.934 408.967 152.555 408.588C152.176 408.209 151.876 407.759 151.671 407.264C151.466 406.769 151.36 406.238 151.36 405.702V376.002H163.757V405.702C163.757 406.785 163.327 407.823 162.562 408.588C161.796 409.353 160.758 409.783 159.676 409.783Z" fill="white"/>
<path d="M130.328 307.835C130.328 307.835 133.166 364.837 145.453 374.66H132.319C132.319 374.66 120.604 355.234 119.735 307.835H130.328Z" fill="#263238"/>
<path opacity="0.1" d="M130.328 307.835C130.328 307.835 133.166 364.837 145.453 374.66H132.319C132.319 374.66 120.604 355.234 119.735 307.835H130.328Z" fill="white"/>
<path d="M129.261 369.93H187.473C188.122 369.93 188.764 370.058 189.363 370.306C189.962 370.554 190.507 370.918 190.965 371.377C191.424 371.835 191.788 372.38 192.036 372.979C192.284 373.578 192.412 374.221 192.412 374.869V379.379H124.3V374.869C124.3 374.219 124.429 373.575 124.678 372.974C124.928 372.373 125.293 371.828 125.754 371.369C126.215 370.91 126.762 370.547 127.364 370.3C127.966 370.053 128.611 369.927 129.261 369.93Z" fill="#190C42"/>
<path d="M193.017 374.66H123.717C122.617 374.66 121.726 375.552 121.726 376.651V377.388C121.726 378.488 122.617 379.379 123.717 379.379H193.017C194.117 379.379 195.008 378.488 195.008 377.388V376.651C195.008 375.552 194.117 374.66 193.017 374.66Z" fill="#263238"/>
<path opacity="0.6" d="M193.017 374.66H123.717C122.617 374.66 121.726 375.552 121.726 376.651V377.388C121.726 378.488 122.617 379.379 123.717 379.379H193.017C194.117 379.379 195.008 378.488 195.008 377.388V376.651C195.008 375.552 194.117 374.66 193.017 374.66Z" fill="white"/>
<path d="M117.436 320.309H138.468C144.628 320.309 149.083 314.809 148.368 307.945L147.466 298.826C146.795 291.995 141.251 286.462 135.091 286.462H114.103C107.932 286.462 103.488 291.962 104.203 298.826L105.105 307.945C105.732 314.776 111.265 320.309 117.436 320.309Z" fill="#190C42"/>
<path d="M190.014 270.105C195.954 277.024 202.059 284.306 208.714 290.51C210.617 292.138 212.212 293.81 214.467 294.525C220.044 296.109 226.193 296.329 232.067 296.725C238.315 297.022 244.695 297.22 251.009 297.352L251.559 303.534C245.125 304.725 238.628 305.551 232.1 306.009C227.083 306.424 222.042 306.464 217.019 306.13C213.257 305.91 208.67 304.942 205.447 302.753C195.459 296.076 187.847 287.122 180.257 277.992L189.992 270.105H190.014Z" fill="#B65B52"/>
<path d="M207.724 285.747L205.59 287.518L200.09 292.094L196.163 295.394L194.7 296.582L184.866 290.972L180.466 288.475C181.267 286.156 182.203 283.886 183.271 281.677C185.262 277.585 188.155 272.932 191.411 271.777C192.029 271.551 192.689 271.466 193.344 271.529C193.999 271.592 194.632 271.801 195.195 272.14C202.169 276.1 207.724 285.747 207.724 285.747Z" fill="#263238"/>
<path opacity="0.2" d="M202.73 300.905C202.125 300.454 201.542 300.003 200.981 299.541C199.287 298.166 197.681 296.769 196.163 295.35L194.7 296.582L184.866 290.972L187.264 286.22L191.224 278.366C194.9 282.436 197.898 287.072 200.101 292.094C201.342 294.91 202.225 297.87 202.73 300.905Z" fill="black"/>
<path d="M210.859 446.149C210.859 446.149 210.859 446.204 210.859 446.226H210.936C211.656 446.644 212.415 446.99 213.202 447.26C213.779 447.501 214.424 447.524 215.017 447.326C215.214 447.22 215.376 447.06 215.485 446.866C215.594 446.671 215.645 446.449 215.633 446.226C215.651 446.088 215.633 445.948 215.581 445.819C215.529 445.69 215.444 445.576 215.336 445.489C214.507 445.135 213.579 445.088 212.718 445.357C213.398 444.921 213.9 444.259 214.137 443.487C214.155 443.303 214.11 443.119 214.01 442.963C213.911 442.808 213.762 442.69 213.587 442.629C213.441 442.561 213.281 442.525 213.12 442.525C212.958 442.525 212.798 442.561 212.652 442.629C211.497 443.234 211.002 445.83 210.969 445.929H210.815C210.799 445.945 210.786 445.964 210.78 445.985C210.773 446.007 210.771 446.029 210.776 446.051C210.78 446.073 210.79 446.094 210.805 446.111C210.819 446.128 210.838 446.141 210.859 446.149ZM211.574 445.643L211.354 445.709C211.596 444.851 212.091 443.454 212.784 443.102C212.86 443.058 212.944 443.03 213.031 443.021C213.118 443.012 213.207 443.02 213.29 443.047H213.389C213.675 443.179 213.708 443.344 213.686 443.476C213.598 444.136 212.498 445.159 211.574 445.643ZM211.574 446.127C212.817 445.786 214.533 445.478 215.05 445.885C215.103 445.928 215.144 445.984 215.169 446.048C215.194 446.111 215.203 446.18 215.193 446.248C215.199 446.388 215.167 446.527 215.101 446.651C215.035 446.774 214.938 446.878 214.819 446.952C214.291 447.238 213.103 446.93 211.596 446.127H211.574Z" fill="#190C42"/>
<path d="M205.733 427.229L200.244 444.818L209.572 445.709L214.566 429.693L205.733 427.229Z" fill="#B55B52"/>
<path opacity="0.2" d="M205.733 427.229L203.005 435.941L212.201 437.25L214.566 429.693L205.733 427.229Z" fill="black"/>
<path d="M210.507 444.785L200.453 441.738C200.287 441.682 200.105 441.692 199.946 441.769C199.788 441.845 199.666 441.98 199.606 442.145L196.702 449.955C196.575 450.374 196.62 450.826 196.826 451.211C197.032 451.597 197.383 451.885 197.802 452.012C201.322 453.024 203.06 453.321 207.493 454.63C210.21 455.444 215.512 457.303 219.406 457.831C223.3 458.359 223.707 454.531 222.112 453.937C218.317 452.573 213.829 448.492 211.904 445.753C211.563 445.28 211.07 444.939 210.507 444.785Z" fill="#263238"/>
<path d="M149.435 333.586C150.722 354.486 153.89 365.882 172.667 368.599C191.444 371.316 220.781 368.599 220.781 368.599L202.818 432.839L220.759 438.9C220.759 438.9 250.8 361.24 246.774 352.814C242.748 344.388 186.274 338.811 186.274 338.811L181.137 328.152L149.435 333.586Z" fill="#190C42"/>
<path opacity="0.4" d="M233.607 403.766C227.128 422.4 220.759 438.9 220.759 438.9L202.818 432.883L220.781 368.643C208.451 369.7 196.068 370.02 183.7 369.6C179.839 369.424 176.077 369.116 172.7 368.621C153.923 365.904 150.755 354.464 149.468 333.608L181.148 328.174L186.285 338.833C186.285 338.833 242.825 344.421 246.785 352.836C248.919 357.357 241.197 382.008 233.607 403.766Z" fill="white"/>
<path opacity="0.2" d="M233.607 403.766C227.128 422.4 220.759 438.9 220.759 438.9L202.818 432.883L220.781 368.643C208.451 369.7 196.068 370.02 183.7 369.6L184.525 341.407C184.525 341.407 219.615 341.231 232.793 348.953C236.005 350.823 235.125 378.081 233.607 403.766Z" fill="black"/>
<path d="M132.935 333.586C134.222 354.486 137.39 365.882 156.167 368.599C174.944 371.316 204.281 368.599 204.281 368.599L208.318 437.239L226.259 436.656C226.259 436.656 234.256 359.04 230.274 350.614C226.292 342.188 175.274 341.011 175.274 341.011L170.137 328.152L132.935 333.586Z" fill="#190C42"/>
<path opacity="0.4" d="M132.935 333.586C134.222 354.486 137.39 365.882 156.167 368.599C174.944 371.316 204.281 368.599 204.281 368.599L208.318 437.239L226.259 436.656C226.259 436.656 234.256 359.04 230.274 350.614C226.292 342.188 175.274 341.011 175.274 341.011L170.137 328.152L132.935 333.586Z" fill="white"/>
<path d="M222.42 448.635C222.42 448.635 222.42 448.635 222.42 448.701H222.497C223.299 448.917 224.121 449.046 224.95 449.086C225.572 449.172 226.203 449.023 226.721 448.668C226.879 448.512 226.99 448.315 227.042 448.1C227.095 447.884 227.086 447.658 227.018 447.447C226.995 447.309 226.938 447.179 226.852 447.07C226.765 446.96 226.652 446.874 226.523 446.82C225.63 446.701 224.724 446.908 223.971 447.403C224.515 446.797 224.823 446.017 224.84 445.203C224.812 445.019 224.721 444.85 224.583 444.726C224.444 444.602 224.267 444.529 224.081 444.521C223.921 444.496 223.756 444.506 223.6 444.552C223.444 444.598 223.301 444.677 223.179 444.785C222.233 445.676 222.453 448.316 222.464 448.459C222.464 448.459 222.31 448.514 222.31 448.525C222.335 448.572 222.373 448.61 222.42 448.635ZM222.959 447.964L222.772 448.074C222.772 447.183 222.882 445.698 223.454 445.181C223.513 445.119 223.585 445.07 223.665 445.038C223.745 445.006 223.83 444.991 223.916 444.994H224.026C224.334 444.994 224.411 445.192 224.433 445.313C224.271 446.343 223.749 447.283 222.959 447.964ZM223.113 448.415C224.213 447.755 225.797 446.996 226.413 447.249C226.476 447.277 226.531 447.322 226.571 447.378C226.612 447.434 226.637 447.499 226.644 447.568C226.686 447.7 226.693 447.84 226.664 447.975C226.635 448.11 226.571 448.235 226.479 448.338C226.017 448.8 224.785 448.8 223.113 448.415Z" fill="#190C42"/>
<path d="M212.399 431.783L211.838 450.197L221.056 448.558L221.562 431.783H212.399Z" fill="#B55B52"/>
<path opacity="0.2" d="M212.399 431.783L212.113 440.902L221.331 439.703L221.573 431.783H212.399Z" fill="black"/>
<path d="M221.705 447.403L211.211 447.172C211.123 447.166 211.034 447.178 210.951 447.206C210.867 447.234 210.79 447.279 210.723 447.337C210.657 447.395 210.603 447.466 210.564 447.546C210.525 447.625 210.502 447.711 210.496 447.799L209.803 456.104C209.797 456.319 209.834 456.534 209.911 456.735C209.988 456.936 210.104 457.12 210.252 457.276C210.4 457.432 210.577 457.558 210.774 457.646C210.971 457.733 211.183 457.782 211.398 457.787C215.072 457.787 216.821 457.644 221.441 457.71C224.279 457.765 229.878 458.139 233.772 457.6C237.666 457.061 237.072 453.2 235.334 453.123C231.319 452.826 225.896 450.098 223.311 447.975C222.852 447.615 222.288 447.414 221.705 447.403Z" fill="#263238"/>
<path d="M207.218 437.272L226.567 437.767L227.887 429.429L206.646 429.297L207.218 437.272Z" fill="#190C42"/>
<path opacity="0.2" d="M207.218 437.272L226.567 437.767L227.887 429.429L206.646 429.297L207.218 437.272Z" fill="white"/>
<path d="M195.217 272.129C195.217 272.129 183.7 302.5 183.194 333.586H132.935C132.935 333.586 132.935 304.887 141.46 282.304C142.984 278.158 144.926 274.177 147.257 270.424C148.344 268.671 149.561 267.001 150.898 265.43C157.682 263.476 164.756 262.731 171.798 263.23C182.292 264.308 195.217 272.129 195.217 272.129Z" fill="#263238"/>
<path d="M164.593 264L176.935 273.383L178.827 269.588C178.266 266.75 178.42 265.133 180.488 262.757L174.746 248.974C173.173 254.518 169.697 261.657 164.593 264Z" fill="#B55B52"/>
<path opacity="0.2" d="M177.1 254.573L180.488 262.724C179.75 263.557 179.084 264.451 178.497 265.397C176.396 263.923 174.559 259.897 175.516 257.378C175.864 256.352 176.401 255.401 177.1 254.573Z" fill="black"/>
<path d="M197.627 250.969C198.341 247.141 196.373 243.563 193.232 242.977C190.09 242.391 186.965 245.02 186.251 248.848C185.538 252.676 187.506 256.255 190.647 256.84C193.789 257.426 196.914 254.797 197.627 250.969Z" fill="black"/>
<path d="M199.1 240.097C199.408 243.397 197.505 249.711 193.6 246.697C189.695 243.683 198.528 234.388 199.1 240.097Z" fill="#263238"/>
<path d="M175.725 239.492C173.525 247.401 171.842 251.911 174.394 257.202C178.244 265.155 189.068 264.825 193.589 257.708C197.67 251.317 200.574 239.47 194.018 233.838C192.567 232.592 190.824 231.733 188.951 231.344C187.078 230.955 185.137 231.047 183.31 231.611C181.482 232.176 179.828 233.196 178.501 234.574C177.175 235.952 176.22 237.644 175.725 239.492Z" fill="#B55B52"/>
<path d="M172.568 230.34L181.687 230.626L181.533 235.862L181.027 235.532C181.027 235.532 179.861 243.111 175.318 245.377C169.763 240.427 168.597 232.947 172.568 230.34Z" fill="#263238"/>
<path d="M170.5 244.915C170.482 245.932 170.667 246.943 171.045 247.887C171.423 248.832 171.985 249.691 172.7 250.415C174.614 252.362 176.946 250.976 177.562 248.468C178.123 246.202 177.804 242.462 175.362 241.461C174.811 241.236 174.213 241.154 173.622 241.222C173.031 241.29 172.466 241.507 171.981 241.851C171.496 242.196 171.106 242.657 170.847 243.193C170.588 243.729 170.469 244.321 170.5 244.915Z" fill="#B55B52"/>
<path d="M186.78 245.608C186.56 246.235 186.714 246.862 187.132 246.994C187.55 247.126 188.056 246.741 188.232 246.103C188.408 245.465 188.287 244.849 187.88 244.717C187.473 244.585 187 244.97 186.78 245.608Z" fill="#263238"/>
<path d="M193.941 247.995C193.721 248.633 193.875 249.249 194.293 249.392C194.711 249.535 195.217 249.128 195.393 248.501C195.569 247.874 195.448 247.247 195.041 247.104C194.634 246.961 194.15 247.368 193.941 247.995Z" fill="#263238"/>
<path d="M191.554 247.555C191.688 249.68 192.118 251.775 192.83 253.781C192.295 253.926 191.736 253.957 191.188 253.872C190.64 253.787 190.117 253.587 189.651 253.286L191.554 247.555Z" fill="#A02724"/>
<path d="M185.416 254.562C185.68 254.689 185.952 254.799 186.23 254.892C186.255 254.901 186.281 254.904 186.306 254.902C186.332 254.899 186.357 254.892 186.38 254.879C186.403 254.867 186.423 254.85 186.439 254.829C186.454 254.809 186.466 254.785 186.472 254.76C186.481 254.736 186.484 254.711 186.483 254.686C186.481 254.661 186.475 254.636 186.463 254.613C186.452 254.591 186.436 254.571 186.417 254.554C186.398 254.538 186.375 254.526 186.351 254.518C185.562 254.275 184.841 253.85 184.246 253.277C183.652 252.703 183.201 251.998 182.93 251.218C182.929 251.189 182.921 251.16 182.907 251.134C182.893 251.107 182.873 251.085 182.85 251.067C182.826 251.05 182.798 251.038 182.769 251.032C182.74 251.027 182.71 251.028 182.682 251.035C182.653 251.043 182.626 251.057 182.604 251.076C182.581 251.095 182.563 251.119 182.551 251.146C182.539 251.173 182.534 251.203 182.534 251.232C182.535 251.262 182.543 251.291 182.556 251.317C182.784 252.026 183.156 252.679 183.648 253.238C184.14 253.796 184.742 254.247 185.416 254.562Z" fill="#263238"/>
<path d="M185.361 242.561C185.421 242.596 185.49 242.614 185.559 242.614C185.629 242.614 185.697 242.596 185.757 242.561C186.159 242.273 186.624 242.083 187.113 242.007C187.602 241.93 188.102 241.969 188.573 242.121C188.667 242.151 188.769 242.145 188.859 242.104C188.948 242.063 189.019 241.989 189.058 241.899C189.097 241.808 189.1 241.706 189.067 241.613C189.034 241.519 188.968 241.442 188.881 241.395C188.288 241.194 187.656 241.137 187.037 241.226C186.418 241.316 185.828 241.551 185.317 241.912C185.232 241.972 185.173 242.063 185.152 242.165C185.132 242.268 185.151 242.374 185.207 242.462C185.25 242.507 185.303 242.541 185.361 242.561Z" fill="#263238"/>
<path d="M197.868 246.576C197.94 246.593 198.016 246.593 198.088 246.576C198.192 246.562 198.287 246.509 198.352 246.427C198.418 246.345 198.449 246.241 198.44 246.136C198.376 245.519 198.164 244.926 197.824 244.408C197.483 243.889 197.023 243.46 196.482 243.155C196.387 243.113 196.279 243.109 196.181 243.143C196.083 243.178 196.001 243.249 195.954 243.342C195.931 243.388 195.918 243.437 195.915 243.488C195.911 243.539 195.918 243.589 195.934 243.637C195.951 243.685 195.977 243.73 196.01 243.768C196.044 243.806 196.084 243.837 196.13 243.859C196.558 244.102 196.919 244.445 197.184 244.859C197.449 245.273 197.608 245.745 197.648 246.235C197.652 246.306 197.674 246.375 197.712 246.435C197.751 246.495 197.805 246.544 197.868 246.576Z" fill="#263238"/>
<path d="M178.068 237.27C178.585 237.782 179.239 238.135 179.951 238.285C180.663 238.435 181.403 238.377 182.083 238.117C184.437 237.171 185.636 230.802 191.818 234.564C192.537 234.45 193.273 234.546 193.939 234.84C194.605 235.135 195.171 235.616 195.569 236.225C197.076 238.425 195.36 245.696 198.979 244.948C202.598 244.2 202.059 243.056 202.059 243.056C202.059 243.056 201.025 243.606 200.475 243.056C201.033 242.657 201.452 242.094 201.675 241.445C201.897 240.797 201.913 240.095 201.718 239.437C201.718 239.437 200.783 240.383 200.222 240.141C201.046 237.193 200.942 234.063 199.925 231.176C198.275 225.907 185.625 226.083 185.625 226.083C185.625 226.083 184.25 223.322 178.442 224.73C172.634 226.138 169.521 232.771 170.192 235.818L178.068 237.27Z" fill="#263238"/>
<path d="M179.641 246.4C178.926 250.228 175.802 252.857 172.656 252.274C169.51 251.691 167.541 248.105 168.256 244.277C168.971 240.449 172.106 237.809 175.241 238.403C178.376 238.997 180.4 242.561 179.641 246.4Z" fill="black"/>
<path d="M174.702 240.526C177.012 231.99 180.73 225.94 192.83 226.798L192.115 225.918L185.515 224.73C185.515 224.73 173.492 224.345 170.764 240.526H174.702Z" fill="#263238"/>
<path opacity="0.3" d="M174.702 240.526C177.012 231.99 180.73 225.94 192.83 226.798L192.115 225.918L185.515 224.73C185.515 224.73 173.492 224.345 170.764 240.526H174.702Z" fill="white"/>
<path d="M177.166 245.784C176.561 249.029 173.921 251.284 171.259 250.756C168.597 250.228 166.925 247.225 167.53 243.98C168.135 240.735 170.83 238.48 173.448 239.008C176.066 239.536 177.771 242.539 177.166 245.784Z" fill="#263238"/>
<path opacity="0.4" d="M177.166 245.784C176.561 249.029 173.921 251.284 171.259 250.756C168.597 250.228 166.925 247.225 167.53 243.98C168.135 240.735 170.83 238.48 173.448 239.008C176.066 239.536 177.771 242.539 177.166 245.784Z" fill="white"/>
<path opacity="0.2" d="M221.705 447.403L211.211 447.172C211.123 447.166 211.034 447.178 210.951 447.206C210.867 447.234 210.79 447.279 210.723 447.337C210.657 447.395 210.603 447.466 210.564 447.546C210.525 447.625 210.502 447.711 210.496 447.799L209.803 456.104C209.797 456.319 209.834 456.534 209.911 456.735C209.988 456.936 210.104 457.12 210.252 457.276C210.4 457.432 210.577 457.558 210.774 457.646C210.971 457.733 211.183 457.782 211.398 457.787C215.072 457.787 216.821 457.644 221.441 457.71C224.279 457.765 229.878 458.139 233.772 457.6C237.666 457.061 237.072 453.2 235.334 453.123C231.319 452.826 225.896 450.098 223.311 447.975C222.852 447.615 222.288 447.414 221.705 447.403Z" fill="white"/>
<path d="M247.137 297L255.519 297.055L250.976 306.636C250.976 306.636 243.859 305.008 244.376 301.136L247.137 297Z" fill="#B55B52"/>
<path d="M260.909 301.323L256.784 309.067L250.976 306.647L255.519 297.066L260.909 301.323Z" fill="#B55B52"/>
<path d="M218.834 280.005L202.004 271.469C201.923 271.428 201.852 271.372 201.793 271.303C201.735 271.235 201.69 271.155 201.662 271.069C201.635 270.983 201.625 270.893 201.632 270.803C201.64 270.713 201.665 270.625 201.707 270.545L201.839 270.303C201.919 270.141 202.061 270.018 202.232 269.96C202.403 269.903 202.59 269.915 202.752 269.995L219.582 278.542L220.781 279.994L218.834 280.005Z" fill="#263238"/>
<path d="M200.453 280.621L206.107 274.428L210.166 284.229C210.166 284.229 204.193 288.409 201.63 285.461L200.453 280.621Z" fill="#B55B52"/>
<path d="M212.883 273.273L215.864 281.534L210.166 284.229L206.107 274.428L212.883 273.273Z" fill="#B55B52"/>
<path opacity="0.2" d="M169.521 293.7L149.039 296.054C145.718 291.956 143.152 287.3 141.46 282.304C142.984 278.158 144.926 274.177 147.257 270.424C152.031 269.94 157.883 270.556 162.063 274.967C164.478 277.445 166.38 280.376 167.659 283.59C168.939 286.805 169.572 290.24 169.521 293.7Z" fill="black"/>
<path d="M156.673 271.502C159.269 276.936 162.173 282.623 165.22 287.826C167.728 291.94 170.335 296.34 173.932 299.112C180.73 299.046 195.272 285.197 200.794 280.236L205.546 284.229C199.012 293.337 184.646 311.729 172.095 310.244C161.997 308.418 154.198 293.821 149.6 285.637C148.06 282.656 146.586 279.774 145.2 276.595L156.651 271.502H156.673Z" fill="#B65B52"/>
<path d="M150.898 265.43C144.144 267.773 141.713 278.905 149.435 293.7L167.035 285.747C167.035 285.747 162.173 274.56 159.544 270.457C156.915 266.354 150.898 265.43 150.898 265.43Z" fill="#263238"/>
<path d="M270.6 268.917L256.85 299.2C256.606 299.652 256.248 300.031 255.812 300.302C255.376 300.572 254.877 300.723 254.364 300.74H205.095C204.105 300.74 203.61 300.047 203.995 299.2L217.8 268.917C218.048 268.468 218.408 268.09 218.846 267.822C219.284 267.554 219.784 267.405 220.297 267.388H269.5C270.512 267.388 271.007 268.081 270.6 268.917Z" fill="#263238"/>
<path opacity="0.4" d="M270.6 268.928L256.85 299.2C256.606 299.652 256.248 300.031 255.812 300.302C255.376 300.572 254.877 300.723 254.364 300.74H205.095C204.105 300.74 203.61 300.047 203.995 299.2L217.8 268.928C218.044 268.477 218.401 268.097 218.838 267.827C219.274 267.557 219.773 267.405 220.286 267.388H269.5C270.512 267.388 271.007 268.081 270.6 268.928Z" fill="white"/>
<path opacity="0.4" d="M270.6 268.917L256.85 299.2C256.606 299.652 256.248 300.031 255.812 300.302C255.376 300.572 254.877 300.723 254.364 300.74H206.195C205.205 300.74 204.71 300.047 205.095 299.2L218.9 268.917C219.148 268.468 219.508 268.09 219.946 267.822C220.384 267.554 220.884 267.405 221.397 267.388H269.5C270.512 267.388 271.007 268.081 270.6 268.917Z" fill="white"/>
<path opacity="0.4" d="M242.176 284.031C241.612 285.221 240.747 286.243 239.666 286.995C238.586 287.748 237.328 288.205 236.016 288.321C233.684 288.321 232.716 286.407 233.75 284.031C234.317 282.841 235.184 281.82 236.266 281.067C237.349 280.315 238.608 279.858 239.921 279.741C242.242 279.741 243.254 281.666 242.176 284.031Z" fill="white"/>
<path opacity="0.4" d="M217.47 277.97L211.97 290.07C211.782 290.396 211.513 290.669 211.19 290.861C210.866 291.054 210.498 291.16 210.122 291.17H207.625L214.225 276.76H216.7C217.404 276.826 217.8 277.343 217.47 277.97Z" fill="black"/>
<path d="M232.661 304.579H216.568C216.239 304.579 215.917 304.491 215.633 304.325C215.35 304.158 215.116 303.919 214.956 303.632C214.796 303.345 214.715 303.021 214.722 302.692C214.728 302.364 214.823 302.043 214.995 301.763L223.476 287.837C223.537 287.742 223.622 287.665 223.723 287.613C223.823 287.56 223.935 287.535 224.048 287.54L224.884 287.595L226.072 287.661C226.17 287.665 226.265 287.692 226.35 287.74C226.435 287.789 226.508 287.856 226.561 287.938C226.615 288.02 226.649 288.113 226.659 288.21C226.67 288.307 226.657 288.406 226.622 288.497L221.936 301.532C221.864 301.738 221.842 301.958 221.873 302.173C221.903 302.389 221.985 302.594 222.111 302.772C222.237 302.95 222.403 303.095 222.597 303.195C222.79 303.295 223.005 303.347 223.223 303.347H231.176C231.347 303.347 231.515 303.387 231.668 303.463C231.821 303.54 231.954 303.65 232.056 303.787L232.661 304.579Z" fill="#263238"/>
<path opacity="0.2" d="M232.661 304.579H217.668C217.339 304.579 217.017 304.491 216.733 304.325C216.45 304.158 216.216 303.919 216.056 303.632C215.896 303.346 215.815 303.021 215.822 302.692C215.828 302.364 215.923 302.043 216.095 301.763L224.576 287.837C224.652 287.727 224.759 287.643 224.884 287.595L226.072 287.661C226.17 287.665 226.265 287.692 226.35 287.741C226.435 287.789 226.508 287.856 226.561 287.938C226.615 288.02 226.649 288.113 226.659 288.21C226.67 288.308 226.657 288.406 226.622 288.497L221.936 301.532C221.864 301.738 221.842 301.958 221.873 302.173C221.903 302.389 221.985 302.594 222.111 302.772C222.237 302.95 222.403 303.095 222.597 303.195C222.79 303.295 223.005 303.347 223.223 303.347H231.176C231.347 303.347 231.515 303.387 231.668 303.463C231.821 303.54 231.954 303.651 232.056 303.787L232.661 304.579Z" fill="white"/>
<path d="M256.861 304.579H240.768C240.439 304.579 240.117 304.491 239.833 304.325C239.55 304.158 239.316 303.919 239.156 303.632C238.996 303.345 238.915 303.021 238.922 302.692C238.928 302.364 239.023 302.043 239.195 301.763L247.676 287.837C247.737 287.742 247.822 287.665 247.922 287.613C248.023 287.56 248.135 287.535 248.248 287.54L249.084 287.595L250.272 287.661C250.37 287.665 250.465 287.692 250.55 287.74C250.635 287.789 250.708 287.856 250.761 287.938C250.815 288.02 250.849 288.113 250.859 288.21C250.87 288.307 250.857 288.406 250.822 288.497L246.136 301.532C246.064 301.738 246.042 301.958 246.073 302.173C246.103 302.389 246.185 302.594 246.311 302.772C246.437 302.95 246.603 303.095 246.797 303.195C246.99 303.295 247.205 303.347 247.423 303.347H255.376C255.547 303.347 255.715 303.387 255.868 303.463C256.021 303.54 256.154 303.65 256.256 303.787L256.861 304.579Z" fill="#263238"/>
<path opacity="0.2" d="M256.861 304.579H241.868C241.539 304.579 241.217 304.491 240.933 304.325C240.65 304.158 240.416 303.919 240.256 303.632C240.096 303.346 240.015 303.021 240.022 302.692C240.029 302.364 240.123 302.043 240.295 301.763L248.776 287.837C248.852 287.727 248.959 287.643 249.084 287.595L250.272 287.661C250.37 287.665 250.465 287.692 250.55 287.741C250.635 287.789 250.708 287.856 250.762 287.938C250.815 288.02 250.849 288.113 250.859 288.21C250.87 288.308 250.857 288.406 250.822 288.497L246.136 301.532C246.064 301.738 246.042 301.958 246.073 302.173C246.103 302.389 246.185 302.594 246.311 302.772C246.437 302.95 246.603 303.095 246.797 303.195C246.991 303.295 247.205 303.347 247.423 303.347H255.376C255.547 303.347 255.715 303.387 255.868 303.463C256.021 303.54 256.154 303.651 256.256 303.787L256.861 304.579Z" fill="white"/>
<path d="M276.661 298.793H293.161C293.453 298.793 293.733 298.909 293.939 299.115C294.145 299.322 294.261 299.601 294.261 299.893V304.557H275.561V299.893C275.561 299.601 275.677 299.322 275.883 299.115C276.09 298.909 276.369 298.793 276.661 298.793Z" fill="#263238"/>
<path opacity="0.2" d="M276.661 298.793H293.161C293.453 298.793 293.733 298.909 293.939 299.115C294.145 299.322 294.261 299.601 294.261 299.893V304.557H275.561V299.893C275.561 299.601 275.677 299.322 275.883 299.115C276.09 298.909 276.369 298.793 276.661 298.793Z" fill="white"/>
<path d="M291.148 277.552H278.685C278.211 277.552 277.827 277.936 277.827 278.41V302.027C277.827 302.501 278.211 302.885 278.685 302.885H291.148C291.622 302.885 292.006 302.501 292.006 302.027V278.41C292.006 277.936 291.622 277.552 291.148 277.552Z" fill="#263238"/>
<path d="M291.148 277.552H278.685C278.211 277.552 277.827 277.936 277.827 278.41V302.027C277.827 302.501 278.211 302.885 278.685 302.885H291.148C291.622 302.885 292.006 302.501 292.006 302.027V278.41C292.006 277.936 291.622 277.552 291.148 277.552Z" fill="#190C42"/>
<path opacity="0.2" d="M291.148 277.552H278.685C278.211 277.552 277.827 277.936 277.827 278.41V302.027C277.827 302.501 278.211 302.885 278.685 302.885H291.148C291.622 302.885 292.006 302.501 292.006 302.027V278.41C292.006 277.936 291.622 277.552 291.148 277.552Z" fill="black"/>
<path d="M291.082 279.279H278.729V301.136H291.082V279.279Z" fill="#263238"/>
<path d="M291.082 279.279H278.729V282.15H291.082V279.279Z" fill="#190C42"/>
<path opacity="0.2" d="M291.082 279.279H278.729V282.15H291.082V279.279Z" fill="white"/>
<path d="M291.082 297.121H278.729V301.136H291.082V297.121Z" fill="#190C42"/>
<path opacity="0.2" d="M291.082 297.121H278.729V301.136H291.082V297.121Z" fill="white"/>
<path d="M279.906 288.145H279.521V290.829H279.906V288.145Z" fill="#190C42"/>
<path d="M283.8 288.145H283.415V290.829H283.8V288.145Z" fill="#190C42"/>
<path d="M280.555 289.047H280.17V289.927H280.555V289.047Z" fill="#190C42"/>
<path d="M287.705 289.047H287.32V289.927H287.705V289.047Z" fill="#190C42"/>
<path d="M283.151 288.827H282.766V290.136H283.151V288.827Z" fill="#190C42"/>
<path d="M290.301 288.827H289.916V290.136H290.301V288.827Z" fill="#190C42"/>
<path d="M287.056 288.827H286.671V290.136H287.056V288.827Z" fill="#190C42"/>
<path d="M281.204 288.145H280.819V290.829H281.204V288.145Z" fill="#190C42"/>
<path d="M286.407 288.145H286.022V290.829H286.407V288.145Z" fill="#190C42"/>
<path d="M288.354 288.145H287.969V290.829H288.354V288.145Z" fill="#190C42"/>
<path d="M282.502 287.892H282.117V291.071H282.502V287.892Z" fill="#190C42"/>
<path d="M289.652 287.892H289.267V291.071H289.652V287.892Z" fill="#190C42"/>
<path d="M285.098 287.892H284.713V291.071H285.098V287.892Z" fill="#190C42"/>
<path d="M281.853 287.298H281.468V291.676H281.853V287.298Z" fill="#190C42"/>
<path d="M285.758 287.298H285.373V291.676H285.758V287.298Z" fill="#190C42"/>
<path d="M284.449 287.298H284.064V291.676H284.449V287.298Z" fill="#190C42"/>
<path d="M289.003 287.298H288.618V291.676H289.003V287.298Z" fill="#190C42"/>
<g opacity="0.5">
<path d="M279.906 288.145H279.521V290.829H279.906V288.145Z" fill="white"/>
<path d="M283.8 288.145H283.415V290.829H283.8V288.145Z" fill="white"/>
<path d="M280.555 289.047H280.17V289.927H280.555V289.047Z" fill="white"/>
<path d="M287.705 289.047H287.32V289.927H287.705V289.047Z" fill="white"/>
<path d="M283.151 288.827H282.766V290.136H283.151V288.827Z" fill="white"/>
<path d="M290.301 288.827H289.916V290.136H290.301V288.827Z" fill="white"/>
<path d="M287.056 288.827H286.671V290.136H287.056V288.827Z" fill="white"/>
<path d="M281.204 288.145H280.819V290.829H281.204V288.145Z" fill="white"/>
<path d="M286.407 288.145H286.022V290.829H286.407V288.145Z" fill="white"/>
<path d="M288.354 288.145H287.969V290.829H288.354V288.145Z" fill="white"/>
<path d="M282.502 287.892H282.117V291.071H282.502V287.892Z" fill="white"/>
<path d="M289.652 287.892H289.267V291.071H289.652V287.892Z" fill="white"/>
<path d="M285.098 287.892H284.713V291.071H285.098V287.892Z" fill="white"/>
<path d="M281.853 287.298H281.468V291.676H281.853V287.298Z" fill="white"/>
<path d="M285.758 287.298H285.373V291.676H285.758V287.298Z" fill="white"/>
<path d="M284.449 287.298H284.064V291.676H284.449V287.298Z" fill="white"/>
<path d="M289.003 287.298H288.618V291.676H289.003V287.298Z" fill="white"/>
</g>
<path d="M287.617 298.287V299.838L288.607 299.057L287.617 298.287Z" fill="white"/>
<path d="M288.893 298.287H288.662V299.838H288.893V298.287Z" fill="white"/>
<path d="M282.205 299.838V298.287L281.215 299.057L282.205 299.838Z" fill="white"/>
<path d="M280.929 299.838H281.16V298.287H280.929V299.838Z" fill="white"/>
<path d="M285.89 299.057C285.869 299.247 285.793 299.427 285.672 299.575C285.55 299.723 285.389 299.832 285.206 299.89C285.024 299.948 284.829 299.952 284.644 299.902C284.46 299.851 284.294 299.748 284.167 299.605C284.039 299.462 283.956 299.286 283.927 299.096C283.899 298.907 283.925 298.714 284.004 298.54C284.083 298.365 284.21 298.217 284.371 298.114C284.532 298.011 284.72 297.956 284.911 297.957C285.181 297.987 285.431 298.116 285.612 298.319C285.793 298.522 285.892 298.785 285.89 299.057Z" fill="white"/>
<path d="M284.559 299.64H284.79V298.496H284.559V299.64Z" fill="#190C42"/>
<path d="M285.032 299.64H285.263V298.496H285.032V299.64Z" fill="#190C42"/>
<path d="M160.996 457.897H225.016C225.352 457.897 225.673 457.764 225.911 457.527C226.148 457.289 226.281 456.968 226.281 456.632V452.551C226.278 452.218 226.144 451.899 225.907 451.664C225.67 451.429 225.35 451.297 225.016 451.297H164.296V320.595H223.982C224.59 320.595 225.173 320.354 225.604 319.926C226.035 319.497 226.278 318.915 226.281 318.307V313.995H160.996C160.121 313.995 159.281 314.343 158.663 314.962C158.044 315.581 157.696 316.42 157.696 317.295V454.597C157.696 455.472 158.044 456.312 158.663 456.931C159.281 457.549 160.121 457.897 160.996 457.897Z" fill="#263238"/>
<g opacity="0.4">
<path d="M160.996 457.897H225.016C225.352 457.897 225.673 457.764 225.911 457.527C226.148 457.289 226.281 456.968 226.281 456.632V452.551C226.278 452.218 226.144 451.899 225.907 451.664C225.67 451.429 225.35 451.297 225.016 451.297H164.296V320.595H223.982C224.59 320.595 225.173 320.354 225.604 319.926C226.035 319.497 226.278 318.915 226.281 318.307V313.995H160.996C160.121 313.995 159.281 314.343 158.663 314.962C158.044 315.581 157.696 316.42 157.696 317.295V454.597C157.696 455.472 158.044 456.312 158.663 456.931C159.281 457.549 160.121 457.897 160.996 457.897Z" fill="white"/>
</g>
<path d="M321.563 315.095H152.801C152.235 315.095 151.692 314.87 151.292 314.47C150.892 314.07 150.667 313.527 150.667 312.961V307.769H323.664V312.972C323.661 313.531 323.44 314.066 323.047 314.463C322.654 314.859 322.121 315.087 321.563 315.095Z" fill="#190C42"/>
<path opacity="0.2" d="M150.667 311.421H323.697V307.758H150.667V311.421Z" fill="black"/>
<path d="M147.037 308.704H327.327C327.874 308.704 328.398 308.488 328.785 308.102C329.173 307.717 329.392 307.194 329.395 306.647C329.395 306.099 329.177 305.573 328.789 305.185C328.401 304.797 327.875 304.579 327.327 304.579H147.037C146.489 304.579 145.963 304.797 145.575 305.185C145.187 305.573 144.969 306.099 144.969 306.647C144.972 307.194 145.191 307.717 145.579 308.102C145.966 308.488 146.49 308.704 147.037 308.704Z" fill="#190C42"/>
</svg>
