<svg width="31" height="31" viewBox="0 0 31 31" fill="none" xmlns="http://www.w3.org/2000/svg">
<circle cx="15.5" cy="15.5" r="15.5" fill="#BCBCFF"/>
<path fill-rule="evenodd" clip-rule="evenodd" d="M11.0625 9.4C9.49902 9.4 8.25 10.736 8.25 12.36C8.25 14.189 9.24187 16.1405 10.777 18.0519C12.0656 19.6562 13.6319 21.1038 15 22.2717C16.3681 21.1038 17.9345 19.6562 19.2229 18.0519C20.7581 16.1405 21.75 14.189 21.75 12.36C21.75 10.736 20.501 9.4 18.9375 9.4C17.374 9.4 16.125 10.736 16.125 12.36C16.125 13.0228 15.6213 13.56 15 13.56C14.3787 13.56 13.875 13.0228 13.875 12.36C13.875 10.736 12.626 9.4 11.0625 9.4ZM15 8.99044C14.0702 7.77471 12.6489 7 11.0625 7C8.27673 7 6 9.38895 6 12.36C6 15.062 7.4259 17.5684 9.06836 19.6133C10.7341 21.6874 12.7773 23.4752 14.3089 24.7469C14.7154 25.0844 15.2846 25.0844 15.6911 24.7469C17.2227 23.4752 19.2659 21.6874 20.9317 19.6133C22.5741 17.5684 24 15.062 24 12.36C24 9.38895 21.7232 7 18.9375 7C17.3511 7 15.9298 7.77471 15 8.99044Z" fill="#190C40"/>
</svg>
