<svg width="123" height="45" viewBox="0 0 123 45" fill="none" xmlns="http://www.w3.org/2000/svg">
<path d="M61.5 0C49.0745 0 39 10.0745 39 22.5C39 34.9254 49.0745 45 61.5 45C73.9254 45 84 34.9254 84 22.5C84 10.0745 73.9254 0 61.5 0ZM69.8551 22.7547L57.1988 30.3085C57.1082 30.3635 56.9928 30.3662 56.8995 30.3112C56.8088 30.259 56.7512 30.1616 56.7512 30.0531V22.4992V14.9454C56.7512 14.8383 56.8088 14.7394 56.8995 14.6871C56.9928 14.6336 57.1082 14.6363 57.1988 14.6899L69.8551 22.2451C69.9457 22.2966 69.9993 22.3961 69.9993 22.4991C69.9993 22.6043 69.9458 22.7019 69.8551 22.7547Z" fill="#BCBCFF"/>
<path d="M69.8551 22.7547L57.1988 30.3085C57.1082 30.3635 56.9928 30.3662 56.8995 30.3112C56.8088 30.259 56.7512 30.1616 56.7512 30.0531V22.4992V14.9454C56.7512 14.8383 56.8088 14.7394 56.8995 14.6871C56.9928 14.6336 57.1082 14.6363 57.1988 14.6899L69.8551 22.2451C69.9457 22.2966 69.9993 22.3961 69.9993 22.4991C69.9993 22.6043 69.9458 22.7019 69.8551 22.7547Z" fill="white"/>
<path d="M121.5 15V30M104 30V15L116.5 22.5L104 30Z" stroke="white" stroke-width="2" stroke-linecap="round" stroke-linejoin="round"/>
<path d="M0.999998 30L0.999998 15M18.5 15L18.5 30L6 22.5L18.5 15Z" stroke="white" stroke-width="2" stroke-linecap="round" stroke-linejoin="round"/>
</svg>
