<svg width="45" height="45" viewBox="0 0 45 45" fill="none" xmlns="http://www.w3.org/2000/svg">
<path d="M22.5 0C10.0745 0 0 10.0745 0 22.5C0 34.9254 10.0745 45 22.5 45C34.9254 45 45 34.9254 45 22.5C45 10.0745 34.9254 0 22.5 0ZM30.8551 22.7547L18.1988 30.3085C18.1082 30.3635 17.9928 30.3662 17.8995 30.3112C17.8088 30.259 17.7512 30.1616 17.7512 30.0531V22.4992V14.9454C17.7512 14.8383 17.8088 14.7394 17.8995 14.6871C17.9928 14.6336 18.1082 14.6363 18.1988 14.6899L30.8551 22.2451C30.9457 22.2966 30.9993 22.3961 30.9993 22.4991C30.9993 22.6043 30.9458 22.7019 30.8551 22.7547Z" fill="#BCBCFF"/>
<path d="M30.8551 22.7547L18.1988 30.3085C18.1082 30.3635 17.9928 30.3662 17.8995 30.3112C17.8088 30.259 17.7512 30.1616 17.7512 30.0531V22.4992V14.9454C17.7512 14.8383 17.8088 14.7394 17.8995 14.6871C17.9928 14.6336 18.1082 14.6363 18.1988 14.6899L30.8551 22.2451C30.9457 22.2966 30.9993 22.3961 30.9993 22.4991C30.9993 22.6043 30.9458 22.7019 30.8551 22.7547Z" fill="white"/>
</svg>
