<svg width="350" height="350" viewBox="0 0 350 350" fill="none" xmlns="http://www.w3.org/2000/svg">
<g filter="url(#filter0_dd_238_185)">
<path d="M168.658 11.746C168.658 11.746 114.856 14.476 80.1289 60.046C45.4019 105.616 44.4289 167.846 42.3289 218.246C40.2289 268.646 69.7619 306.817 113.064 311.85C156.366 316.883 168.035 278.173 216.608 256.389C265.181 234.605 281.4 236.166 310.45 191.436C339.5 146.706 319.2 77.938 266.497 42.7C213.794 7.46198 168.658 11.746 168.658 11.746Z" fill="#8F8EEB"/>
<path opacity="0.7" d="M168.658 11.746C168.658 11.746 114.856 14.476 80.1289 60.046C45.4019 105.616 44.4289 167.846 42.3289 218.246C40.2289 268.646 69.7619 306.817 113.064 311.85C156.366 316.883 168.035 278.173 216.608 256.389C265.181 234.605 281.4 236.166 310.45 191.436C339.5 146.706 319.2 77.938 266.497 42.7C213.794 7.46198 168.658 11.746 168.658 11.746Z" fill="#8F8EEB"/>
</g>
<path d="M63.6373 250.698C60.0731 250.697 56.5885 251.752 53.6244 253.732C50.6603 255.711 48.3498 258.525 46.9852 261.818C45.6206 265.11 45.2632 268.734 45.9582 272.229C46.6532 275.725 48.3694 278.936 50.8897 281.457C53.4099 283.977 56.6211 285.693 60.1169 286.388C63.6127 287.083 67.2361 286.726 70.5287 285.361C73.8214 283.997 76.6353 281.686 78.6147 278.722C80.594 275.758 81.6497 272.273 81.6483 268.709C81.6483 263.932 79.7507 259.351 76.373 255.973C72.9953 252.596 68.4141 250.698 63.6373 250.698ZM63.6373 275.198C62.3484 275.198 61.0884 274.816 60.0167 274.1C58.9449 273.384 58.1096 272.366 57.6164 271.175C57.1231 269.984 56.9941 268.674 57.2455 267.41C57.497 266.145 58.1177 264.984 59.0291 264.073C59.9405 263.161 61.1017 262.541 62.3659 262.289C63.6301 262.038 64.9404 262.167 66.1313 262.66C67.3221 263.153 68.3399 263.989 69.056 265.06C69.7721 266.132 70.1543 267.392 70.1543 268.681C70.158 269.539 69.9922 270.39 69.6663 271.184C69.3404 271.977 68.861 272.699 68.2555 273.307C67.6499 273.915 66.9303 274.398 66.1377 274.727C65.3452 275.056 64.4955 275.226 63.6373 275.226V275.198Z" fill="#190C40"/>
<path d="M63.6375 222.334C61.439 222.334 59.2898 222.986 57.4618 224.207C55.6338 225.429 54.209 227.165 53.3676 229.196C52.5263 231.227 52.3062 233.462 52.7351 235.619C53.164 237.775 54.2227 239.756 55.7773 241.31C57.3319 242.865 59.3126 243.923 61.4689 244.352C63.6252 244.781 65.8602 244.561 67.8914 243.72C69.9226 242.878 71.6587 241.454 72.8801 239.626C74.1015 237.798 74.7535 235.649 74.7535 233.45C74.7535 230.502 73.5823 227.674 71.4977 225.59C69.413 223.505 66.5856 222.334 63.6375 222.334ZM63.6375 237.468C62.8428 237.468 62.066 237.232 61.4052 236.791C60.7444 236.349 60.2295 235.722 59.9253 234.988C59.6212 234.253 59.5417 233.446 59.6967 232.666C59.8517 231.887 60.2344 231.171 60.7963 230.609C61.3583 230.047 62.0742 229.664 62.8536 229.509C63.633 229.354 64.4409 229.434 65.1751 229.738C65.9093 230.042 66.5368 230.557 66.9783 231.218C67.4198 231.878 67.6555 232.655 67.6555 233.45C67.6555 234.516 67.2322 235.538 66.4786 236.291C65.7251 237.045 64.7031 237.468 63.6375 237.468Z" fill="#190C40"/>
<path d="M84.0211 216.636H43.2531C41.7299 216.636 40.4951 217.871 40.4951 219.394V289.205C40.4951 290.728 41.7299 291.963 43.2531 291.963H84.0211C85.5443 291.963 86.7791 290.728 86.7791 289.205V219.394C86.7791 217.871 85.5443 216.636 84.0211 216.636Z" stroke="#190C40" stroke-miterlimit="10"/>
<path d="M283.409 250.698C279.845 250.698 276.361 251.755 273.398 253.735C270.434 255.715 268.125 258.53 266.761 261.822C265.398 265.115 265.042 268.738 265.737 272.234C266.433 275.729 268.15 278.94 270.67 281.459C273.191 283.979 276.402 285.694 279.898 286.389C283.393 287.083 287.016 286.725 290.309 285.36C293.601 283.996 296.414 281.685 298.393 278.721C300.372 275.757 301.428 272.273 301.427 268.709C301.427 266.343 300.961 264.001 300.055 261.815C299.149 259.629 297.822 257.643 296.149 255.971C294.476 254.298 292.489 252.972 290.303 252.067C288.117 251.162 285.774 250.697 283.409 250.698ZM283.409 275.198C282.12 275.198 280.86 274.816 279.788 274.1C278.716 273.384 277.881 272.366 277.388 271.175C276.894 269.984 276.765 268.674 277.017 267.41C277.268 266.145 277.889 264.984 278.8 264.073C279.712 263.161 280.873 262.541 282.137 262.289C283.401 262.038 284.712 262.167 285.903 262.66C287.093 263.153 288.111 263.989 288.827 265.06C289.543 266.132 289.926 267.392 289.926 268.681C289.93 269.539 289.765 270.39 289.439 271.185C289.114 271.979 288.635 272.701 288.029 273.309C287.423 273.918 286.703 274.4 285.91 274.729C285.117 275.058 284.267 275.227 283.409 275.226V275.198Z" fill="#190C40"/>
<path d="M283.409 222.334C281.21 222.334 279.061 222.986 277.233 224.207C275.405 225.429 273.98 227.165 273.139 229.196C272.298 231.227 272.078 233.462 272.507 235.619C272.935 237.775 273.994 239.756 275.549 241.31C277.103 242.865 279.084 243.923 281.24 244.352C283.397 244.781 285.632 244.561 287.663 243.72C289.694 242.878 291.43 241.454 292.652 239.626C293.873 237.798 294.525 235.649 294.525 233.45C294.525 230.502 293.354 227.674 291.269 225.59C289.185 223.505 286.357 222.334 283.409 222.334ZM283.409 237.468C282.615 237.467 281.838 237.23 281.179 236.787C280.519 236.345 280.005 235.717 279.702 234.983C279.399 234.248 279.32 233.441 279.476 232.662C279.632 231.883 280.015 231.168 280.577 230.606C281.139 230.045 281.855 229.663 282.635 229.509C283.414 229.354 284.221 229.434 284.955 229.739C285.689 230.043 286.316 230.558 286.757 231.218C287.198 231.879 287.434 232.656 287.434 233.45C287.434 233.978 287.33 234.501 287.127 234.989C286.925 235.477 286.629 235.92 286.255 236.294C285.881 236.667 285.437 236.963 284.949 237.164C284.46 237.366 283.937 237.469 283.409 237.468Z" fill="#190C40"/>
<path d="M303.8 216.636H263.032C261.509 216.636 260.274 217.871 260.274 219.394V289.205C260.274 290.728 261.509 291.963 263.032 291.963H303.8C305.324 291.963 306.558 290.728 306.558 289.205V219.394C306.558 217.871 305.324 216.636 303.8 216.636Z" stroke="#190C40" stroke-miterlimit="10"/>
<path d="M106.288 42.056V53.816" stroke="#190C40" stroke-linecap="round" stroke-linejoin="round"/>
<path d="M112.167 47.936H100.4" stroke="#190C40" stroke-linecap="round" stroke-linejoin="round"/>
<path d="M80.5557 114.086V122.171" stroke="#190C40" stroke-linecap="round" stroke-linejoin="round"/>
<path d="M84.6016 118.132H76.5166" stroke="#190C40" stroke-linecap="round" stroke-linejoin="round"/>
<path d="M258.439 36.176V44.261" stroke="#190C40" stroke-linecap="round" stroke-linejoin="round"/>
<path d="M262.479 40.215H254.394" stroke="#190C40" stroke-linecap="round" stroke-linejoin="round"/>
<path d="M209.923 225.078V233.163" stroke="#190C40" stroke-linecap="round" stroke-linejoin="round"/>
<path d="M213.969 229.124H205.884" stroke="#190C40" stroke-linecap="round" stroke-linejoin="round"/>
<path d="M249.249 107.471V117.026" stroke="#190C40" stroke-linecap="round" stroke-linejoin="round"/>
<path d="M254.03 112.252H244.475" stroke="#190C40" stroke-linecap="round" stroke-linejoin="round"/>
<path d="M273.14 40.586V50.141" stroke="#190C40" stroke-linecap="round" stroke-linejoin="round"/>
<path d="M277.913 45.36H268.358" stroke="#190C40" stroke-linecap="round" stroke-linejoin="round"/>
<path d="M62.9159 85.05C62.9173 85.7054 62.7241 86.3465 62.3609 86.8921C61.9976 87.4377 61.4805 87.8631 60.8752 88.1146C60.2699 88.3661 59.6036 88.4322 58.9607 88.3047C58.3178 88.1772 57.7272 87.8617 57.2637 87.3982C56.8002 86.9347 56.4848 86.3441 56.3572 85.7012C56.2297 85.0583 56.2959 84.392 56.5473 83.7867C56.7988 83.1814 57.2243 82.6644 57.7698 82.3011C58.3154 81.9378 58.9565 81.7446 59.6119 81.746C60.4882 81.746 61.3286 82.0941 61.9482 82.7137C62.5678 83.3333 62.9159 84.1737 62.9159 85.05Z" stroke="#190C40" stroke-linecap="round" stroke-linejoin="round"/>
<path d="M234.92 211.113C234.92 211.768 234.726 212.408 234.362 212.952C233.998 213.497 233.481 213.921 232.876 214.172C232.271 214.423 231.605 214.488 230.963 214.36C230.321 214.233 229.731 213.917 229.268 213.454C228.805 212.991 228.489 212.401 228.361 211.759C228.234 211.117 228.299 210.451 228.55 209.846C228.8 209.241 229.225 208.724 229.769 208.36C230.314 207.996 230.954 207.802 231.609 207.802C232.044 207.802 232.474 207.888 232.876 208.054C233.278 208.22 233.643 208.464 233.95 208.772C234.258 209.079 234.501 209.444 234.668 209.846C234.834 210.248 234.92 210.678 234.92 211.113Z" stroke="#190C40" stroke-linecap="round" stroke-linejoin="round"/>
<path d="M288.575 101.227C288.575 101.882 288.381 102.522 288.017 103.066C287.653 103.611 287.136 104.035 286.531 104.286C285.926 104.537 285.26 104.602 284.618 104.474C283.976 104.347 283.386 104.031 282.923 103.568C282.46 103.105 282.145 102.515 282.017 101.873C281.889 101.231 281.955 100.565 282.205 99.9599C282.456 99.3549 282.88 98.8378 283.425 98.474C283.969 98.1101 284.609 97.916 285.264 97.916C285.699 97.915 286.13 98 286.532 98.1661C286.934 98.3322 287.3 98.576 287.607 98.8837C287.915 99.1913 288.159 99.5567 288.325 99.9588C288.491 100.361 288.576 100.792 288.575 101.227Z" stroke="#190C40" stroke-linecap="round" stroke-linejoin="round"/>
<path d="M80.5555 30.296C81.9782 30.296 83.1315 29.1427 83.1315 27.72C83.1315 26.2973 81.9782 25.144 80.5555 25.144C79.1328 25.144 77.9795 26.2973 77.9795 27.72C77.9795 29.1427 79.1328 30.296 80.5555 30.296Z" stroke="#190C40" stroke-linecap="round" stroke-linejoin="round"/>
<path d="M118.048 213.318C119.47 213.318 120.624 212.165 120.624 210.742C120.624 209.319 119.47 208.166 118.048 208.166C116.625 208.166 115.472 209.319 115.472 210.742C115.472 212.165 116.625 213.318 118.048 213.318Z" stroke="#190C40" stroke-linecap="round" stroke-linejoin="round"/>
<path d="M58.5057 150.108C59.9284 150.108 61.0817 148.955 61.0817 147.532C61.0817 146.109 59.9284 144.956 58.5057 144.956C57.083 144.956 55.9297 146.109 55.9297 147.532C55.9297 148.955 57.083 150.108 58.5057 150.108Z" stroke="#190C40" stroke-linecap="round" stroke-linejoin="round"/>
<path d="M45.5703 169.988H51.8003V162.4C51.8003 161.472 52.1691 160.581 52.8254 159.925C53.4818 159.269 54.3721 158.9 55.3003 158.9C56.2286 158.9 57.1188 159.269 57.7752 159.925C58.4316 160.581 58.8003 161.472 58.8003 162.4V184.03C58.8003 185.02 59.1932 185.97 59.8927 186.671C60.5922 187.372 61.5411 187.766 62.5313 187.768C63.5227 187.768 64.4735 187.374 65.1745 186.673C65.8755 185.972 66.2693 185.021 66.2693 184.03V144.83C66.2712 143.628 66.7499 142.476 67.6003 141.627C68.4508 140.778 69.6035 140.301 70.8053 140.301C71.4001 140.301 71.989 140.418 72.5385 140.646C73.088 140.873 73.5872 141.207 74.0078 141.628C74.4284 142.048 74.762 142.547 74.9896 143.097C75.2172 143.646 75.3343 144.235 75.3343 144.83V197.33C75.3343 198.462 75.7842 199.549 76.585 200.349C77.3857 201.15 78.4718 201.6 79.6043 201.6C80.7356 201.598 81.8199 201.147 82.6191 200.347C83.4184 199.546 83.8673 198.461 83.8673 197.33V133.28C83.8673 131.795 84.4573 130.37 85.5075 129.32C86.5577 128.27 87.9821 127.68 89.4673 127.68C90.9525 127.68 92.3769 128.27 93.4271 129.32C94.4773 130.37 95.0673 131.795 95.0673 133.28V197.05C95.0673 198.253 95.5452 199.407 96.3959 200.257C97.2465 201.108 98.4003 201.586 99.6033 201.586C100.806 201.586 101.96 201.108 102.811 200.257C103.661 199.407 104.139 198.253 104.139 197.05V146.237C104.139 144.822 104.701 143.466 105.702 142.465C106.702 141.465 108.059 140.903 109.473 140.903C110.888 140.903 112.245 141.465 113.245 142.465C114.245 143.466 114.807 144.822 114.807 146.237V183.722C114.807 184.782 115.228 185.799 115.978 186.548C116.728 187.298 117.744 187.719 118.804 187.719C119.33 187.72 119.85 187.617 120.336 187.417C120.822 187.216 121.263 186.922 121.635 186.551C122.007 186.18 122.302 185.739 122.503 185.253C122.705 184.768 122.808 184.247 122.808 183.722V163.345C122.808 162.333 123.21 161.363 123.926 160.647C124.641 159.932 125.612 159.53 126.623 159.53C127.635 159.53 128.605 159.932 129.321 160.647C130.036 161.363 130.438 162.333 130.438 163.345V169.988H137.536" stroke="#190C40" stroke-miterlimit="10"/>
<path d="M132.531 169.988H138.733V162.4C138.733 161.478 139.097 160.593 139.746 159.937C140.395 159.282 141.276 158.909 142.198 158.9C143.127 158.9 144.017 159.269 144.673 159.925C145.33 160.581 145.698 161.472 145.698 162.4V184.03C145.698 185.021 146.092 185.972 146.793 186.673C147.494 187.374 148.445 187.768 149.436 187.768C150.426 187.766 151.375 187.372 152.075 186.671C152.774 185.97 153.167 185.02 153.167 184.03V144.83C153.169 143.628 153.648 142.476 154.498 141.627C155.349 140.778 156.501 140.301 157.703 140.301C158.904 140.301 160.056 140.778 160.906 141.628C161.755 142.477 162.232 143.629 162.232 144.83V197.33C162.232 198.462 162.682 199.549 163.483 200.349C164.284 201.15 165.37 201.6 166.502 201.6C167.634 201.598 168.718 201.147 169.517 200.347C170.316 199.546 170.765 198.461 170.765 197.33V133.28C170.765 131.795 171.355 130.37 172.405 129.32C173.456 128.27 174.88 127.68 176.365 127.68C177.85 127.68 179.275 128.27 180.325 129.32C181.375 130.37 181.965 131.795 181.965 133.28V197.05C181.964 197.645 182.081 198.235 182.308 198.785C182.535 199.336 182.869 199.836 183.289 200.257C183.71 200.678 184.21 201.013 184.759 201.241C185.309 201.469 185.899 201.586 186.494 201.586C187.09 201.586 187.68 201.469 188.23 201.241C188.78 201.013 189.28 200.679 189.702 200.257C190.123 199.836 190.457 199.336 190.685 198.786C190.913 198.236 191.03 197.646 191.03 197.05V146.237C191.03 144.822 191.592 143.466 192.593 142.465C193.593 141.465 194.95 140.903 196.364 140.903C197.779 140.903 199.136 141.465 200.136 142.465C201.136 143.466 201.698 144.822 201.698 146.237V183.722C201.698 184.782 202.119 185.799 202.869 186.548C203.619 187.298 204.635 187.719 205.695 187.719C206.221 187.72 206.741 187.617 207.227 187.417C207.713 187.216 208.154 186.922 208.526 186.551C208.898 186.18 209.193 185.739 209.394 185.253C209.596 184.768 209.699 184.247 209.699 183.722V163.345C209.699 162.336 210.099 161.367 210.812 160.652C211.524 159.937 212.491 159.534 213.5 159.53C214.512 159.53 215.482 159.932 216.198 160.647C216.913 161.363 217.315 162.333 217.315 163.345V169.988H224.413" stroke="#190C40" stroke-miterlimit="10"/>
<path d="M219.492 169.988H225.694V162.4C225.694 161.478 226.058 160.593 226.707 159.937C227.356 159.282 228.237 158.909 229.159 158.9C230.081 158.909 230.963 159.282 231.611 159.937C232.26 160.593 232.624 161.478 232.624 162.4V184.03C232.624 185.021 233.018 185.972 233.719 186.673C234.42 187.374 235.371 187.768 236.362 187.768C237.354 187.768 238.304 187.374 239.005 186.673C239.706 185.972 240.1 185.021 240.1 184.03V144.83C240.102 143.628 240.581 142.476 241.431 141.627C242.282 140.778 243.434 140.301 244.636 140.301C245.231 140.301 245.82 140.418 246.369 140.646C246.919 140.873 247.418 141.207 247.839 141.628C248.259 142.048 248.593 142.547 248.82 143.097C249.048 143.646 249.165 144.235 249.165 144.83V197.33C249.165 198.456 249.61 199.537 250.403 200.337C251.197 201.137 252.274 201.591 253.4 201.6C253.961 201.6 254.516 201.489 255.033 201.275C255.551 201.06 256.021 200.746 256.417 200.349C256.813 199.952 257.127 199.482 257.341 198.964C257.555 198.446 257.664 197.89 257.663 197.33V133.28C257.663 131.795 258.253 130.37 259.303 129.32C260.354 128.27 261.778 127.68 263.263 127.68C264.748 127.68 266.173 128.27 267.223 129.32C268.273 130.37 268.863 131.795 268.863 133.28V197.05C268.863 198.252 269.34 199.404 270.189 200.255C271.038 201.105 272.19 201.584 273.392 201.586C273.988 201.586 274.578 201.469 275.128 201.241C275.678 201.013 276.178 200.679 276.6 200.257C277.021 199.836 277.355 199.336 277.583 198.786C277.811 198.236 277.928 197.646 277.928 197.05V146.237C277.928 144.822 278.49 143.466 279.49 142.465C280.491 141.465 281.848 140.903 283.262 140.903C284.677 140.903 286.034 141.465 287.034 142.465C288.034 143.466 288.596 144.822 288.596 146.237V183.722C288.596 184.782 289.017 185.799 289.767 186.548C290.516 187.298 291.533 187.719 292.593 187.719C293.119 187.72 293.639 187.617 294.125 187.417C294.611 187.216 295.052 186.922 295.424 186.551C295.796 186.18 296.091 185.739 296.292 185.253C296.494 184.768 296.597 184.247 296.597 183.722V163.345C296.597 162.333 296.999 161.363 297.715 160.647C298.43 159.932 299.4 159.53 300.412 159.53C301.424 159.53 302.394 159.932 303.11 160.647C303.825 161.363 304.227 162.333 304.227 163.345V169.988H311.36" stroke="#190C40" stroke-miterlimit="10"/>
<path d="M170.604 334.6C208.155 334.6 238.595 327.36 238.595 318.43C238.595 309.5 208.155 302.26 170.604 302.26C133.054 302.26 102.613 309.5 102.613 318.43C102.613 327.36 133.054 334.6 170.604 334.6Z" stroke="#190C40" stroke-linecap="round" stroke-linejoin="round"/>
<g filter="url(#filter1_ddddd_238_185)">
<path d="M146.468 44.135C146.468 44.135 147.567 40.705 148.568 38.01C149.569 35.315 151.263 33.11 152.124 32.494C152.985 31.878 157.269 30.394 165.599 32.249C173.929 34.104 177.73 37.149 179.074 38.255C180.418 39.361 180.425 41.195 180.67 43.4C180.84 44.8423 181.085 46.2746 181.405 47.691C181.405 47.691 180.544 45.85 170.009 44.38C159.474 42.91 155.4 41.93 152.348 43.4C149.296 44.87 145.733 46.711 145.733 46.711L146.468 44.135Z" fill="#190C40" stroke="black" stroke-linecap="round" stroke-linejoin="round"/>
<path d="M149.1 61.831C147.45 61.6826 145.813 61.4182 144.2 61.04C140.203 60.242 136.934 57.26 140.567 52.297C144.2 47.334 146.559 43.554 146.559 43.554C146.559 43.554 148.064 40.754 153.825 39.263C159.586 37.772 172.081 41.545 176.981 43.421C181.881 45.297 185.794 47.6 187.6 50.785C189.406 53.97 187.845 54.943 184.905 58.023C181.965 61.103 180.131 62.041 175.231 63.385C170.331 64.729 149.1 61.831 149.1 61.831Z" fill="#190C40" stroke="black" stroke-linecap="round" stroke-linejoin="round"/>
<path d="M152.908 45.5C152.908 45.5 148.183 49.861 148.183 52.038C148.183 54.215 148.547 61.481 149.093 64.204C149.639 66.927 153.636 75.285 155.267 76.559C156.898 77.833 162.533 76.377 162.533 76.377L165.263 80.01L179.963 70.567C179.963 70.567 177.597 65.296 177.415 64.75C177.275 63.4834 177.215 62.2093 177.233 60.935C177.233 60.935 179.417 59.85 180.145 58.03C180.602 56.6767 180.838 55.2586 180.845 53.83C180.845 53.83 174.489 47.474 167.405 45.297C160.321 43.12 152.908 45.5 152.908 45.5Z" fill="#E0AC69" stroke="black" stroke-linecap="round" stroke-linejoin="round"/>
<path d="M154.182 52.241L154.546 55.146C154.546 55.146 152.726 57.141 152.726 58.597C152.726 60.053 155.267 60.053 155.267 60.053" stroke="black" stroke-linecap="round" stroke-linejoin="round"/>
<path d="M159.446 51.331L159.628 52.605L164.171 51.149" stroke="black" stroke-linecap="round" stroke-linejoin="round"/>
<path d="M150.549 55.146L150.073 57.169L152.978 55.531" stroke="black" stroke-linecap="round" stroke-linejoin="round"/>
<path d="M163.489 52.395C163.489 52.4377 163.47 52.4925 163.408 52.5461C163.345 52.6005 163.245 52.644 163.121 52.644C162.997 52.644 162.897 52.6005 162.834 52.5461C162.772 52.4925 162.753 52.4377 162.753 52.395C162.753 52.3523 162.772 52.2975 162.834 52.2439C162.897 52.1895 162.997 52.146 163.121 52.146C163.245 52.146 163.345 52.1895 163.408 52.2439C163.47 52.2975 163.489 52.3523 163.489 52.395Z" fill="#190C40" stroke="black"/>
<path d="M152.982 56.42C152.982 56.4627 152.963 56.5176 152.901 56.5711C152.838 56.6255 152.738 56.669 152.614 56.669C152.49 56.669 152.39 56.6255 152.327 56.5711C152.265 56.5176 152.246 56.4627 152.246 56.42C152.246 56.3773 152.265 56.3225 152.327 56.2689C152.39 56.2145 152.49 56.171 152.614 56.171C152.738 56.171 152.838 56.2145 152.901 56.2689C152.963 56.3225 152.982 56.3773 152.982 56.42Z" fill="#190C40" stroke="black"/>
<path d="M157.003 49.77C157.003 49.77 157.99 46.2701 161.287 45.6051C161.963 45.4665 162.662 45.4948 163.324 45.6875C163.987 45.8802 164.592 46.2315 165.088 46.7111" stroke="black" stroke-linecap="round" stroke-linejoin="round"/>
<path d="M152.957 51.485C152.957 51.485 151.865 50.638 150.997 50.995C150.505 51.2087 150.077 51.5471 149.755 51.9768C149.433 52.4064 149.229 52.9125 149.163 53.445" stroke="black" stroke-linecap="round" stroke-linejoin="round"/>
<path d="M172.809 50.26C174.909 51.975 174.524 54.551 176.113 53.935C177.163 53.4864 178.157 52.9155 179.074 52.234C176.599 50.0929 173.875 48.2573 170.961 46.767C170.987 47.4507 171.166 48.1199 171.486 48.7246C171.806 49.3294 172.258 49.8542 172.809 50.26Z" fill="#190C40" stroke="black" stroke-linecap="round" stroke-linejoin="round"/>
<path d="M162.533 76.398L168.392 72.065L165.263 80.031L162.533 76.398Z" fill="#190C40" stroke="black" stroke-linecap="round" stroke-linejoin="round"/>
<path d="M160.868 291.235C160.868 291.235 151.803 297.605 150.333 297.85C148.863 298.095 142.493 299.32 141.758 300.79C141.023 302.26 140.533 304.22 142.983 304.71C145.433 305.2 156.458 305.935 160.378 305.935C164.298 305.935 168.708 306.18 170.878 305.69C173.048 305.2 176.513 306.18 177.738 301.28C178.963 296.38 178.718 292.46 177.983 289.765C177.248 287.07 160.868 291.235 160.868 291.235Z" fill="#8F8EEB" stroke="black" stroke-linecap="round" stroke-linejoin="round"/>
<path d="M172.838 303.702C167.908 303.187 162.953 302.97 157.998 303.051C151.74 303.24 143.298 301.931 141.401 301.616C140.946 302.911 140.974 304.304 142.983 304.71C145.433 305.2 156.458 305.935 160.378 305.935C164.298 305.935 168.708 306.18 170.878 305.69C172.047 305.431 173.552 305.578 174.896 305.053L172.838 303.702Z" stroke="black" stroke-linecap="round" stroke-linejoin="round"/>
<path d="M158.949 300.811C158.901 300.811 158.853 300.801 158.808 300.783C158.763 300.764 158.723 300.737 158.689 300.702C158.655 300.667 158.629 300.626 158.611 300.581C158.593 300.537 158.584 300.488 158.585 300.44L158.62 299.159C158.62 299.111 158.63 299.063 158.648 299.019C158.667 298.975 158.695 298.935 158.729 298.902C158.764 298.868 158.805 298.842 158.85 298.825C158.895 298.808 158.943 298.8 158.991 298.802C159.089 298.806 159.181 298.847 159.249 298.918C159.317 298.988 159.355 299.082 159.355 299.18V300.454C159.356 300.505 159.345 300.556 159.324 300.603C159.303 300.65 159.272 300.692 159.234 300.726C159.195 300.759 159.15 300.785 159.101 300.799C159.052 300.814 159 300.818 158.949 300.811Z" fill="white" stroke="black" stroke-linecap="round" stroke-linejoin="round"/>
<path d="M158.977 299.908C158.786 299.896 158.607 299.81 158.477 299.67C158.347 299.529 158.275 299.344 158.277 299.152L158.389 294.217C158.403 294.028 158.488 293.85 158.627 293.721C158.766 293.591 158.948 293.518 159.138 293.517C159.33 293.526 159.51 293.609 159.641 293.749C159.771 293.889 159.842 294.075 159.838 294.266L159.726 299.201C159.719 299.394 159.637 299.575 159.496 299.708C159.356 299.84 159.17 299.912 158.977 299.908Z" fill="white" stroke="black" stroke-linecap="round" stroke-linejoin="round"/>
<path d="M150.318 298.942C150.118 298.942 149.921 298.886 149.751 298.781C149.58 298.676 149.442 298.526 149.352 298.347C149.211 298.095 149.137 297.81 149.137 297.521C149.137 297.232 149.211 296.948 149.352 296.695C149.912 295.722 151.326 295.533 151.914 295.498C152.196 295.498 152.469 295.605 152.674 295.799C152.88 295.993 153.004 296.259 153.02 296.541C153.036 296.823 152.943 297.101 152.761 297.317C152.579 297.533 152.321 297.671 152.04 297.703C151.832 297.72 151.626 297.755 151.424 297.808C151.432 298.019 151.379 298.228 151.271 298.409C151.163 298.591 151.004 298.737 150.815 298.83C150.66 298.904 150.49 298.943 150.318 298.942Z" fill="white" stroke="black" stroke-linecap="round" stroke-linejoin="round"/>
<path d="M153.042 297.262C152.84 297.265 152.641 297.21 152.469 297.105C152.297 297 152.158 296.848 152.069 296.667C151.928 296.415 151.854 296.13 151.854 295.841C151.854 295.552 151.928 295.267 152.069 295.015C152.636 294.042 154.05 293.86 154.631 293.825C154.775 293.816 154.919 293.836 155.056 293.883C155.193 293.93 155.319 294.004 155.427 294.1C155.535 294.196 155.624 294.312 155.687 294.442C155.75 294.572 155.787 294.713 155.796 294.858C155.805 295.002 155.785 295.146 155.738 295.283C155.691 295.42 155.617 295.546 155.521 295.654C155.425 295.762 155.309 295.851 155.179 295.914C155.049 295.977 154.908 296.014 154.764 296.023C154.553 296.039 154.345 296.074 154.141 296.128C154.149 296.339 154.096 296.548 153.987 296.729C153.879 296.911 153.721 297.057 153.532 297.15C153.379 297.224 153.211 297.263 153.042 297.262Z" fill="white" stroke="black" stroke-linecap="round" stroke-linejoin="round"/>
<path d="M155.757 295.589C155.556 295.589 155.359 295.534 155.187 295.429C155.015 295.324 154.876 295.173 154.784 294.994C154.643 294.742 154.568 294.457 154.568 294.168C154.568 293.879 154.643 293.594 154.784 293.342C155.344 292.362 156.758 292.18 157.339 292.145C157.631 292.127 157.917 292.226 158.136 292.42C158.355 292.614 158.487 292.886 158.505 293.178C158.523 293.469 158.424 293.756 158.23 293.974C158.036 294.193 157.764 294.325 157.472 294.343C157.264 294.359 157.057 294.396 156.856 294.455C156.861 294.664 156.806 294.871 156.698 295.05C156.59 295.23 156.434 295.375 156.247 295.47C156.095 295.545 155.928 295.586 155.757 295.589Z" fill="white" stroke="black" stroke-linecap="round" stroke-linejoin="round"/>
<path d="M143.773 299.789C143.773 299.789 143.892 300.027 146.286 300.027C148.68 300.027 149.394 301.105 149.632 301.938" stroke="black" stroke-linecap="round" stroke-linejoin="round"/>
<path d="M166.418 298.956C166.944 298.479 167.586 298.149 168.28 297.997" stroke="black" stroke-linecap="round" stroke-linejoin="round"/>
<path d="M163.142 302.897C163.807 301.831 164.568 300.828 165.417 299.901" stroke="black" stroke-linecap="round" stroke-linejoin="round"/>
<path d="M150.878 171.423C150.878 171.423 150.633 186.858 150.633 202.783C150.633 218.708 151.452 233.275 153.433 237.93C155.414 242.585 160.643 266.735 161.133 269.92C161.623 273.105 160.888 278.005 160.888 280.42C160.894 281.92 161.142 283.409 161.623 284.83C161.623 284.83 160.398 286.79 160.398 288.015C160.398 289.24 158.928 291.69 160.398 292.425C161.868 293.16 162.848 293.895 170.198 295.12C177.548 296.345 182.203 289.24 183.428 287.28C184.653 285.32 177.688 238.63 176.708 230.055C175.728 221.48 176.379 203.728 177.849 196.868C179.319 190.008 178.584 174.083 177.604 170.898C176.624 167.713 167.069 165.753 161.924 166.243C156.779 166.733 150.878 171.423 150.878 171.423Z" fill="#190C40" stroke="black" stroke-linecap="round" stroke-linejoin="round"/>
<path d="M169.268 178.131C169.268 178.131 163.962 215.728 163.962 221.853C163.962 227.978 166.657 234.838 167.392 237.778C168.127 240.718 170.927 273.933 171.662 276.138C172.397 278.343 172.642 284.223 172.642 284.223C172.642 284.223 170.682 284.958 170.437 286.428C170.192 287.898 171.417 288.878 171.417 290.103C171.417 291.328 170.192 293.288 169.702 295.003C169.431 296.144 169.516 297.341 169.947 298.433C169.947 298.433 165.047 305.048 162.842 307.253C160.637 309.458 155.002 313.623 151.817 315.828C148.632 318.033 142.262 320.728 142.017 324.158C141.772 327.588 144.222 330.528 150.347 330.773C156.472 331.018 167.497 331.263 173.622 330.528C179.747 329.793 191.752 322.933 193.712 320.483C195.672 318.033 196.925 317.788 196.925 310.928C196.925 304.068 197.17 297.453 196.925 296.718C196.68 295.983 196.225 294.758 196.68 290.838C196.999 288.606 196.746 286.33 195.945 284.223C196.346 283.019 196.673 281.791 196.925 280.548C197.17 279.078 195.21 275.648 195.21 275.648C195.21 275.648 196.575 250.273 196.575 244.638C196.575 239.003 189.47 226.753 189.47 226.753C189.47 226.753 190.45 221.608 190.45 220.628C190.45 219.648 188.98 217.198 188.98 217.198C188.98 217.198 196.225 196.996 196.925 194.301C197.625 191.606 199.62 182.786 200.11 179.846C200.6 176.906 198.885 170.781 196.68 167.106C194.475 163.431 184.92 159.021 181.49 161.961C178.06 164.901 169.268 178.131 169.268 178.131Z" fill="#190C40" stroke="black" stroke-linecap="round" stroke-linejoin="round"/>
<path d="M148.918 171.668C148.918 171.668 155.533 183.183 159.943 185.388C164.353 187.593 168.763 184.408 174.888 177.793C181.013 171.178 184.688 166.033 189.098 167.748C193.508 169.463 201.593 186.123 202.818 188.083C204.043 190.043 203.798 171.913 201.348 166.278C198.898 160.643 186.403 158.438 171.248 160.398C156.093 162.358 148.918 171.668 148.918 171.668Z" fill="#D9D9D9" stroke="black" stroke-linecap="round" stroke-linejoin="round"/>
<path d="M147.7 163.8C147.7 163.8 147.21 168.21 147.21 170.66C147.21 173.11 150.885 172.865 150.885 172.865C150.885 172.865 161.91 168.21 174.16 167.475C186.41 166.74 198.66 169.925 200.62 169.925C202.58 169.925 203.56 168.21 203.56 166.25C203.56 164.29 201.355 159.88 201.355 159.88C201.355 159.88 196.21 154.245 181.02 153.755C165.83 153.265 154.805 153.51 151.62 156.205C148.435 158.9 147.7 163.8 147.7 163.8Z" fill="#C7C1D8" stroke="black" stroke-linecap="round" stroke-linejoin="round"/>
<path d="M179.158 67.788C179.158 67.788 165.403 78.288 162.589 80.451C159.775 82.614 162.12 84.511 162.75 84.98C163.403 85.6433 163.978 86.3783 164.465 87.171C161.224 90.0703 157.778 92.7325 154.154 95.137C148.057 99.204 146.965 99.827 145.243 102.011C143.521 104.195 137.123 111.391 137.123 111.391C137.642 109.133 137.956 106.832 138.061 104.517C138.061 101.717 139.349 98.294 137.942 95.949C136.535 93.604 133.098 90.636 129.976 90.636C126.854 90.636 124.033 91.728 122.157 94.696C120.281 97.664 118.839 103.733 117.747 110.299C116.655 116.865 111.846 124.859 113.876 127.981C115.906 131.103 119.189 134.981 123.564 134.981C127.939 134.981 131.845 134.666 133.882 132.79C135.919 130.914 145.558 126.826 146.65 126.042C147.859 125.291 149.112 124.613 150.402 124.012C150.402 124.012 150.248 136.045 149.625 140.889C149.002 145.733 144.935 157.297 144.62 159.789C144.305 162.281 148.218 164.787 148.218 164.787C148.218 164.787 152.278 160.587 164.318 159.474C173.948 158.727 183.627 158.884 193.228 159.943C196.196 160.412 200.417 162.449 202.328 160.573C204.239 158.697 205.45 158.697 205.128 154.476C204.806 150.255 204.197 145.726 204.197 143.85C204.197 141.974 205.443 126.973 205.443 126.504C205.443 126.035 209.51 108.22 209.51 108.22C209.51 108.22 218.729 105.42 224.98 104.16C231.231 102.9 233.884 94.318 231.854 89.313C229.824 84.308 221.851 79.156 218.414 76.811C214.977 74.466 203.567 74.011 202.006 74.627C200.445 75.243 195.601 74.312 191.849 73.843C188.097 73.374 186.067 73.374 185.444 73.528L184.814 73.689C184.814 73.689 183.876 68.53 182.476 67.592C181.076 66.654 179.158 67.788 179.158 67.788Z" fill="#D9D9D9" stroke="black" stroke-linecap="round" stroke-linejoin="round"/>
<path d="M214.852 101.703C215.72 101.877 216.599 101.989 217.484 102.039" stroke="black" stroke-linecap="round" stroke-linejoin="round"/>
<path d="M198.576 77.819C198.576 77.819 194.509 80.01 195.601 83.601C196.693 87.192 204.043 95.501 207.501 98.301C208.964 99.4882 210.622 100.412 212.401 101.031" stroke="black" stroke-linecap="round" stroke-linejoin="round"/>
<path d="M206.073 98C206.073 98 208.733 101.752 211.386 102.844C212.917 103.493 214.568 103.813 216.23 103.782" stroke="black" stroke-linecap="round" stroke-linejoin="round"/>
<path d="M136.402 122.325C136.057 123.605 135.524 124.827 134.82 125.951" stroke="black" stroke-linecap="round" stroke-linejoin="round"/>
<path d="M137.123 111.391C137.123 111.391 136.689 117.201 136.689 120.169" stroke="black" stroke-linecap="round" stroke-linejoin="round"/>
<path d="M136.85 125.167C136.85 125.167 135.597 128.135 133.721 128.604" stroke="black" stroke-linecap="round" stroke-linejoin="round"/>
<path d="M149.191 111.104L150.402 124.047L147.007 113.764" stroke="black" stroke-linecap="round" stroke-linejoin="round"/>
<path d="M192.794 98.6021C192.794 98.6021 194.355 105.483 199.794 107.044C205.233 108.605 208.705 108.136 208.705 108.136" stroke="black" stroke-linecap="round" stroke-linejoin="round"/>
<path d="M156.219 154.847C155.519 157.514 155.68 159.327 157.493 160.153" stroke="black" stroke-linecap="round" stroke-linejoin="round"/>
<path d="M159.125 145.831C158.76 147.366 158.292 148.874 157.725 150.346L157.438 151.102" stroke="black" stroke-linecap="round" stroke-linejoin="round"/>
<path d="M164.045 96.4041C163.192 98.8256 162.476 101.294 161.903 103.796C160.678 109.676 160.433 123.641 160.433 131.726C160.502 135.765 160.207 139.801 159.551 143.787" stroke="black" stroke-linecap="round" stroke-linejoin="round"/>
<path d="M165.334 78.561C165.334 78.561 163.374 81.991 164.354 82.971C165.334 83.951 167.294 87.626 167.294 87.626C167.294 87.626 166.013 90.79 164.662 94.626" stroke="black" stroke-linecap="round" stroke-linejoin="round"/>
<path d="M162.162 131.474C160.76 131.515 159.392 131.039 158.319 130.137C155.596 127.813 154.665 122.696 155.288 113.547C155.288 113.183 155.344 112.812 155.386 112.441C155.463 102.928 160.531 92.057 160.79 91.441C160.944 91.07 161.658 89.593 162.029 89.747C162.4 89.901 162.729 89.047 162.582 89.39C162.582 89.39 162.456 89.691 162.267 90.181C163.121 88.263 163.723 87.031 163.807 86.856C163.894 86.6814 164.047 86.5483 164.232 86.4854C164.416 86.4225 164.618 86.435 164.794 86.52C164.884 86.5592 164.965 86.6169 165.031 86.6893C165.097 86.7617 165.147 86.8472 165.178 86.9403C165.209 87.0333 165.22 87.1319 165.211 87.2295C165.201 87.3271 165.171 87.4217 165.123 87.507C165.053 87.654 157.997 102.081 156.856 112.532C156.847 113.351 156.894 114.169 156.996 114.982C157.227 116.746 157.92 118.895 159.887 119.133C162.918 119.497 167.916 115.388 170.527 108.689C174.412 98.742 183.435 78.001 183.526 77.791C183.592 77.6053 183.729 77.4535 183.907 77.3688C184.085 77.2841 184.289 77.2736 184.474 77.3395C184.66 77.4054 184.812 77.5424 184.897 77.7202C184.981 77.8981 184.992 78.1023 184.926 78.288C182.64 86.534 180.928 94.9284 179.802 103.411C178.22 115.878 172.802 129.311 164.29 131.236C163.592 131.395 162.878 131.474 162.162 131.474ZM156.562 118.447C156.562 124.047 157.43 127.456 159.257 129.024C160.391 129.99 161.917 130.242 163.933 129.787C170.597 128.282 176.533 117.355 178.311 103.187C179.095 97.027 180.243 91.189 181.258 86.674C178.283 93.625 174.181 103.299 171.885 109.179C169.246 115.941 163.786 121.079 159.698 120.547C159.049 120.467 158.428 120.235 157.886 119.87C157.343 119.505 156.895 119.018 156.576 118.447H156.562Z" fill="#FFD700" stroke="black" stroke-linecap="round" stroke-linejoin="round"/>
<path d="M164.353 82.971L163.618 88.606L165.823 87.626L164.353 82.971Z" fill="#D9D9D9" stroke="black" stroke-linecap="round" stroke-linejoin="round"/>
<path d="M184.667 79.695C184.667 79.695 178.416 82.355 176.54 83.601" stroke="black" stroke-linecap="round" stroke-linejoin="round"/>
<path d="M195.3 76.104C195.3 76.104 195.769 77.819 198.422 80.164C201.075 82.509 206.234 82.04 208.271 80.948C210.308 79.856 210.882 76.384 210.882 76.384C210.882 76.384 207.802 72.975 206.234 72.821C204.666 72.667 195.916 71.729 195.3 76.104Z" fill="#C7C1D8" stroke="black" stroke-linecap="round" stroke-linejoin="round"/>
<path d="M211.974 74.354C211.673 73.787 211.351 73.241 211.022 72.709C211.082 72.6354 211.138 72.5583 211.19 72.478C211.394 72.216 211.529 71.9073 211.584 71.5798C211.639 71.2523 211.612 70.9163 211.505 70.602C211.19 69.979 209.783 67.326 209.314 67.326C209.069 67.326 207.984 67.494 206.997 67.655L206.815 67.48C206.372 67.078 205.973 66.6298 205.625 66.143C205.94 65.086 207.102 62.237 206.815 61.243C206.528 60.249 203.693 59.213 202.615 59.367C201.915 59.472 200.333 61.418 199.325 62.776L197.925 62.524C197.428 61.075 196.448 58.387 195.874 58.275C195.097 58.114 193.69 59.836 193.69 60.62C193.69 60.872 193.739 61.509 193.809 62.251L191.968 63.427C191.968 63.427 189.469 69.524 188.377 70.777C187.285 72.03 182.777 74.837 179.935 74.977C177.093 75.117 173.999 75.446 174.622 77.322C175.245 79.198 177.422 79.352 181.622 79.821C185.822 80.29 189.434 78.26 190.995 77.322C192.556 76.384 195.839 76.853 198.03 76.853C200.221 76.853 203.189 76.076 203.812 76.076C204.435 76.076 206.157 77.476 208.012 77.952C209.867 78.428 213.325 77.322 213.325 77.322C213.325 77.322 213.535 77.322 211.974 74.354Z" fill="#E0AC69" stroke="black" stroke-linecap="round" stroke-linejoin="round"/>
<path d="M202.125 61.698L201.971 66.073C201.971 66.073 200.879 69.664 201.502 70.917C202.125 72.17 204.624 71.071 204.939 70.448C205.254 69.825 207.599 62.048 207.438 61.075C207.277 60.102 205.093 58.884 203.847 58.884C203.462 58.895 203.084 58.9838 202.735 59.145C202.387 59.3062 202.074 59.5365 201.817 59.822" fill="#E0AC69"/>
<path d="M202.125 61.698L201.971 66.073C201.971 66.073 200.879 69.664 201.502 70.917C202.125 72.17 204.624 71.071 204.939 70.448C205.254 69.825 207.599 62.048 207.438 61.075C207.277 60.102 205.093 58.884 203.847 58.884C203.462 58.895 203.084 58.9838 202.735 59.145C202.387 59.3062 202.074 59.5365 201.817 59.822" stroke="black" stroke-linecap="round" stroke-linejoin="round"/>
<path d="M213.066 70.6021C213.066 70.6021 215.866 72.4781 216.034 73.1011C216.202 73.7241 215.719 77.301 215.719 79.198C215.719 81.095 215.096 82.9501 214.004 81.8581C212.912 80.7661 212.912 77.168 212.751 76.545C212.59 75.922 211.813 75.6071 211.813 75.6071" fill="#E0AC69"/>
<path d="M213.066 70.6021C213.066 70.6021 215.866 72.4781 216.034 73.1011C216.202 73.7241 215.719 77.301 215.719 79.198C215.719 81.095 215.096 82.9501 214.004 81.8581C212.912 80.7661 212.912 77.168 212.751 76.545C212.59 75.922 211.813 75.6071 211.813 75.6071" stroke="black" stroke-linecap="round" stroke-linejoin="round"/>
<path d="M195.097 56.7C195.097 56.7 191.191 55.923 190.897 57.484C190.603 59.045 190.428 64.204 191.681 64.484C192.934 64.764 194.957 64.953 195.272 64.484C195.587 64.015 196.672 58.541 196.525 57.603C196.378 56.665 195.097 56.7 195.097 56.7Z" fill="#E0AC69" stroke="black" stroke-linecap="round" stroke-linejoin="round"/>
<path d="M206.031 67.788C206.031 67.788 209.783 64.988 210.875 64.666C211.967 64.344 214.788 67.2 214.788 67.2C214.53 69.2619 214.111 71.3004 213.535 73.297C212.751 75.642 211.813 76.419 210.875 76.419C210.618 76.411 210.366 76.3518 210.132 76.2449C209.898 76.138 209.688 75.9856 209.514 75.7966C209.34 75.6075 209.206 75.3857 209.119 75.144C209.031 74.9023 208.993 74.6456 209.006 74.389C209.006 73.136 209.475 69.076 209.475 69.076" fill="#E0AC69"/>
<path d="M206.031 67.788C206.031 67.788 209.783 64.988 210.875 64.666C211.967 64.344 214.788 67.2 214.788 67.2C214.53 69.2619 214.111 71.3004 213.535 73.297C212.751 75.642 211.813 76.419 210.875 76.419C210.618 76.411 210.366 76.3518 210.132 76.2449C209.898 76.138 209.688 75.9856 209.514 75.7966C209.34 75.6075 209.206 75.3857 209.119 75.144C209.031 74.9023 208.993 74.6456 209.006 74.389C209.006 73.136 209.475 69.076 209.475 69.076" stroke="black" stroke-linecap="round" stroke-linejoin="round"/>
<path d="M197.911 63.882C197.911 63.882 196.511 65.758 195.251 66.073C194.275 66.2781 193.281 66.3836 192.283 66.388" fill="#E0AC69"/>
<path d="M197.911 63.882C197.911 63.882 196.511 65.758 195.251 66.073C194.275 66.2781 193.281 66.3836 192.283 66.388" stroke="black" stroke-linecap="round" stroke-linejoin="round"/>
<path d="M199.5 64.82C199.568 65.2935 199.787 65.7322 200.126 66.0705C200.464 66.4087 200.903 66.6282 201.376 66.696" fill="white"/>
<path d="M199.5 64.82C199.568 65.2935 199.787 65.7322 200.126 66.0705C200.464 66.4087 200.903 66.6282 201.376 66.696" stroke="black" stroke-linecap="round" stroke-linejoin="round"/>
<path d="M206.661 70C206.661 70 206.346 72.03 208.691 71.561L206.661 70Z" fill="white"/>
<path d="M206.661 70C206.661 70 206.346 72.03 208.691 71.561" stroke="black" stroke-linecap="round" stroke-linejoin="round"/>
<path d="M134.19 88.1371C135.893 85.4832 137.408 82.7138 138.726 79.8491C140.602 75.6491 142.163 72.9751 144.193 70.6301C146.223 68.2851 151.543 64.12 152.005 64.071C153.405 63.91 153.405 65.6321 153.405 65.6321C153.405 65.6321 155.904 64.2321 156.688 64.8481C157.472 65.4641 157.143 67.0251 155.904 67.9771C153.874 69.5381 151.221 73.577 151.06 74.067C150.941 74.397 150.783 74.7118 150.591 75.0051C150.591 75.0051 154.028 77.0421 154.028 77.9801C153.947 78.7878 153.737 79.5772 153.405 80.318C153.555 81.6231 153.272 82.9413 152.6 84.07C151.508 85.792 150.731 87.5071 149.8 87.5071C148.869 87.5071 148.4 87.353 148.4 86.415C148.4 85.477 149.492 83.293 149.492 83.293C148.563 84.136 147.725 85.0745 146.993 86.093C146.055 87.493 145.117 89.2221 143.556 89.8451C141.995 90.4681 139.181 91.2451 139.181 91.2451L136.339 95.9001C134.968 96.1704 133.546 95.9577 132.314 95.298C130.599 94.206 130.13 91.861 130.13 91.861L134.19 88.1371Z" fill="#E0AC69" stroke="black" stroke-linecap="round" stroke-linejoin="round"/>
<path d="M133.098 88.291C133.098 88.8137 133.225 89.3286 133.469 89.7909C133.713 90.2532 134.066 90.649 134.498 90.944C136.059 92.197 139.188 92.344 139.188 92.344C139.188 92.344 139.811 91.875 139.811 92.659C139.811 93.443 137.466 97.503 136.528 99.064C135.59 100.625 130.438 100.94 128.562 98.441C126.686 95.942 126.84 92.659 127.162 92.19C127.484 91.721 131.691 87.99 131.691 87.99C131.691 87.99 132.944 87.199 133.098 88.291Z" fill="#C7C1D8" stroke="black" stroke-linecap="round" stroke-linejoin="round"/>
<path d="M153.412 65.632C153.412 65.632 149.506 68.285 148.253 70.007C147 71.729 146.223 72.667 146.223 72.667" stroke="black" stroke-linecap="round" stroke-linejoin="round"/>
<path d="M149.821 77.98L153.412 80.318" stroke="black" stroke-linecap="round" stroke-linejoin="round"/>
<path d="M150.598 75.005C150.598 75.005 149.506 74.228 148.722 74.697" stroke="black" stroke-linecap="round" stroke-linejoin="round"/>
<path d="M197.442 303.688C196.672 304.369 195.832 305.118 194.922 305.935C190.022 310.345 182.672 310.345 182.672 310.345C182.672 310.345 180.222 299.32 177.282 298.585C174.342 297.85 170.422 298.585 170.422 298.585C170.422 298.585 165.522 305.2 163.317 307.405C161.112 309.61 155.477 313.775 152.292 315.98C149.107 318.185 142.737 320.88 142.492 324.31C142.247 327.74 143.08 329.294 148.967 331.016C154.42 332.605 167.972 331.415 174.097 330.68C180.222 329.945 192.227 323.085 194.187 320.635C196.147 318.185 197.4 317.94 197.4 311.08C197.4 308.476 197.4 305.9 197.442 303.688Z" fill="#8F8EEB" stroke="black" stroke-linecap="round" stroke-linejoin="round"/>
<path d="M196.924 314.237C191.312 318.812 184.992 322.444 178.213 324.989C169.183 328.433 157.57 328.65 149.177 327.145C144.872 326.368 143.178 325.087 142.548 324.023C142.523 324.117 142.504 324.213 142.492 324.31C142.247 327.74 143.08 329.294 148.967 331.016C154.42 332.605 167.972 331.415 174.097 330.68C180.222 329.945 192.227 323.085 194.187 320.635C195.825 318.591 196.945 318.073 197.274 313.992C197.155 314.076 197.043 314.146 196.924 314.237Z" stroke="black" stroke-linecap="round" stroke-linejoin="round"/>
<path d="M156.205 313.775C156.205 313.775 153.342 314.734 154.77 315.959C155.428 316.519 161.945 320.355 163.618 319.277C166.187 317.625 156.205 313.775 156.205 313.775Z" stroke="black" stroke-linecap="round" stroke-linejoin="round"/>
<path d="M164.451 317.247C164.451 317.247 177.996 307.783 179.718 304.99" stroke="black" stroke-linecap="round" stroke-linejoin="round"/>
<path d="M166.817 317.492C166.524 317.491 166.243 317.375 166.033 317.17C161.833 312.97 158.333 313.369 158.158 313.39C157.869 313.435 157.575 313.363 157.339 313.19C157.104 313.017 156.946 312.758 156.902 312.47C156.857 312.181 156.929 311.886 157.102 311.651C157.274 311.415 157.533 311.258 157.822 311.213C158.011 311.213 162.526 310.513 167.622 315.609C167.725 315.711 167.807 315.833 167.863 315.967C167.919 316.101 167.947 316.244 167.947 316.39C167.947 316.535 167.919 316.678 167.863 316.812C167.807 316.946 167.725 317.068 167.622 317.17C167.516 317.275 167.39 317.357 167.252 317.412C167.114 317.467 166.966 317.495 166.817 317.492Z" fill="white" stroke="black" stroke-linecap="round" stroke-linejoin="round"/>
<path d="M170.472 315.126C170.319 315.127 170.168 315.095 170.028 315.034C169.888 314.972 169.762 314.882 169.66 314.769C165.572 310.289 160.756 310.814 160.714 310.814C160.57 310.831 160.425 310.821 160.286 310.782C160.146 310.743 160.016 310.677 159.902 310.588C159.789 310.499 159.694 310.389 159.623 310.263C159.552 310.137 159.506 309.998 159.489 309.855C159.471 309.712 159.482 309.566 159.521 309.427C159.56 309.288 159.625 309.158 159.714 309.044C159.803 308.93 159.914 308.835 160.04 308.764C160.166 308.693 160.304 308.647 160.448 308.63C160.693 308.63 166.44 307.972 171.284 313.278C171.43 313.435 171.527 313.632 171.563 313.843C171.599 314.055 171.572 314.273 171.485 314.469C171.399 314.666 171.257 314.833 171.077 314.949C170.897 315.066 170.686 315.128 170.472 315.126Z" fill="white" stroke="black" stroke-linecap="round" stroke-linejoin="round"/>
<path d="M173.698 312.76C173.532 312.761 173.368 312.723 173.218 312.65C173.069 312.577 172.939 312.471 172.837 312.34C169.743 308.462 164.661 308.14 163.786 308.406C163.528 308.516 163.238 308.524 162.974 308.429C162.71 308.333 162.493 308.141 162.365 307.891C162.238 307.641 162.211 307.352 162.289 307.082C162.366 306.813 162.544 306.583 162.785 306.439C164.15 305.683 170.688 306.11 174.559 310.968C174.69 311.13 174.773 311.326 174.797 311.533C174.822 311.74 174.787 311.949 174.696 312.137C174.606 312.325 174.464 312.483 174.288 312.593C174.111 312.704 173.906 312.762 173.698 312.76Z" fill="white" stroke="black" stroke-linecap="round" stroke-linejoin="round"/>
<path d="M176.281 310.177C176.127 310.178 175.975 310.146 175.834 310.085C175.693 310.023 175.566 309.933 175.462 309.82C173.115 307.231 169.849 305.662 166.362 305.445C166.085 305.423 165.826 305.297 165.637 305.093C165.449 304.888 165.344 304.621 165.344 304.342C165.344 304.064 165.449 303.796 165.637 303.592C165.826 303.388 166.085 303.262 166.362 303.24C170.465 303.457 174.315 305.289 177.072 308.336C177.216 308.493 177.311 308.689 177.346 308.9C177.38 309.11 177.353 309.326 177.267 309.521C177.181 309.717 177.04 309.883 176.861 309.999C176.682 310.115 176.473 310.177 176.26 310.177H176.281Z" fill="white" stroke="black" stroke-linecap="round" stroke-linejoin="round"/>
<path d="M179.291 318.416C179.099 318.405 178.919 318.32 178.788 318.179C178.658 318.038 178.587 317.852 178.591 317.66L178.633 315.721C178.633 315.626 178.652 315.532 178.689 315.445C178.727 315.358 178.781 315.279 178.85 315.213C178.919 315.148 179 315.097 179.089 315.064C179.178 315.031 179.273 315.016 179.368 315.021C179.559 315.03 179.739 315.113 179.87 315.253C180.001 315.393 180.072 315.579 180.068 315.77L180.026 317.716C180.017 317.905 179.936 318.083 179.799 318.213C179.662 318.344 179.48 318.416 179.291 318.416Z" fill="white" stroke="black" stroke-linecap="round" stroke-linejoin="round"/>
<path d="M179.333 316.834C179.041 316.827 178.764 316.704 178.562 316.493C178.36 316.282 178.249 315.999 178.255 315.707L178.423 308.189C178.415 308.037 178.438 307.885 178.491 307.742C178.545 307.599 178.627 307.469 178.733 307.36C178.839 307.25 178.966 307.164 179.107 307.106C179.248 307.048 179.4 307.02 179.552 307.023C179.704 307.027 179.854 307.062 179.993 307.126C180.131 307.19 180.254 307.282 180.355 307.396C180.456 307.51 180.533 307.643 180.58 307.788C180.627 307.933 180.643 308.086 180.628 308.238L180.46 315.756C180.453 316.048 180.33 316.325 180.119 316.527C179.908 316.729 179.625 316.84 179.333 316.834Z" fill="white" stroke="black" stroke-linecap="round" stroke-linejoin="round"/>
<path d="M173.6 323.848C173.947 324.422 174.164 325.064 174.237 325.731" stroke="black" stroke-linecap="round" stroke-linejoin="round"/>
<path d="M148.435 318.92C148.435 318.92 146.643 320.11 149.751 321.426C152.859 322.742 160.993 321.909 166.369 320.831C167.946 320.455 169.606 320.643 171.059 321.363" stroke="black" stroke-linecap="round" stroke-linejoin="round"/>
<path d="M193.746 309.603C194.02 309.054 194.341 308.529 194.705 308.035" stroke="black" stroke-linecap="round" stroke-linejoin="round"/>
<path d="M192.073 317.1C192.085 315.13 192.406 313.174 193.025 311.304" stroke="black" stroke-linecap="round" stroke-linejoin="round"/>
</g>
<path d="M194.887 114.394C195.114 112.958 194.911 111.486 194.302 110.166C193.693 108.846 192.706 107.735 191.466 106.976C190.226 106.217 188.788 105.842 187.335 105.9C185.882 105.958 184.479 106.445 183.303 107.3C182.128 108.156 181.232 109.341 180.73 110.706C180.227 112.07 180.141 113.553 180.482 114.967C180.823 116.38 181.575 117.661 182.644 118.647C183.713 119.633 185.05 120.279 186.487 120.505C188.41 120.803 190.374 120.328 191.948 119.183C193.522 118.038 194.579 116.316 194.887 114.394Z" fill="#C7C1D8" stroke="#190C40" stroke-linecap="round" stroke-linejoin="round"/>
<path d="M224.7 121.982L192.087 119L193.676 108.962L225.596 116.172C226.021 116.266 226.394 116.52 226.639 116.88C226.884 117.241 226.981 117.681 226.912 118.111L226.527 120.561C226.455 120.983 226.227 121.363 225.889 121.626C225.551 121.889 225.127 122.016 224.7 121.982Z" fill="#190C40" stroke="#190C40" stroke-linecap="round" stroke-linejoin="round"/>
<path d="M195.391 109.333L193.676 108.948L192.087 118.986L193.844 119.147L195.391 109.333Z" fill="#FFD700" stroke="#190C40" stroke-linecap="round" stroke-linejoin="round"/>
<path d="M185.5 120.267C185.826 120.368 186.158 120.448 186.494 120.505H186.697L189 106.022C188.93 106.022 188.867 106.022 188.797 105.98C188.461 105.934 188.122 105.908 187.782 105.903L185.5 120.267Z" fill="#FFD700" stroke="#190C40" stroke-linecap="round" stroke-linejoin="round"/>
<defs>
<filter id="filter0_dd_238_185" x="38.2236" y="11.5821" width="289.521" height="308.714" filterUnits="userSpaceOnUse" color-interpolation-filters="sRGB">
<feFlood flood-opacity="0" result="BackgroundImageFix"/>
<feColorMatrix in="SourceAlpha" type="matrix" values="0 0 0 0 0 0 0 0 0 0 0 0 0 0 0 0 0 0 127 0" result="hardAlpha"/>
<feOffset dy="4"/>
<feGaussianBlur stdDeviation="2"/>
<feComposite in2="hardAlpha" operator="out"/>
<feColorMatrix type="matrix" values="0 0 0 0 0 0 0 0 0 0 0 0 0 0 0 0 0 0 0.25 0"/>
<feBlend mode="normal" in2="BackgroundImageFix" result="effect1_dropShadow_238_185"/>
<feColorMatrix in="SourceAlpha" type="matrix" values="0 0 0 0 0 0 0 0 0 0 0 0 0 0 0 0 0 0 127 0" result="hardAlpha"/>
<feOffset dy="4"/>
<feGaussianBlur stdDeviation="2"/>
<feComposite in2="hardAlpha" operator="out"/>
<feColorMatrix type="matrix" values="0 0 0 0 0 0 0 0 0 0 0 0 0 0 0 0 0 0 0.25 0"/>
<feBlend mode="normal" in2="effect1_dropShadow_238_185" result="effect2_dropShadow_238_185"/>
<feBlend mode="normal" in="SourceGraphic" in2="effect2_dropShadow_238_185" result="shape"/>
</filter>
<filter id="filter1_ddddd_238_185" x="108.882" y="30.8475" width="128.144" height="309.455" filterUnits="userSpaceOnUse" color-interpolation-filters="sRGB">
<feFlood flood-opacity="0" result="BackgroundImageFix"/>
<feColorMatrix in="SourceAlpha" type="matrix" values="0 0 0 0 0 0 0 0 0 0 0 0 0 0 0 0 0 0 127 0" result="hardAlpha"/>
<feOffset dy="4"/>
<feGaussianBlur stdDeviation="2"/>
<feComposite in2="hardAlpha" operator="out"/>
<feColorMatrix type="matrix" values="0 0 0 0 0 0 0 0 0 0 0 0 0 0 0 0 0 0 0.25 0"/>
<feBlend mode="normal" in2="BackgroundImageFix" result="effect1_dropShadow_238_185"/>
<feColorMatrix in="SourceAlpha" type="matrix" values="0 0 0 0 0 0 0 0 0 0 0 0 0 0 0 0 0 0 127 0" result="hardAlpha"/>
<feOffset dy="4"/>
<feGaussianBlur stdDeviation="2"/>
<feComposite in2="hardAlpha" operator="out"/>
<feColorMatrix type="matrix" values="0 0 0 0 0 0 0 0 0 0 0 0 0 0 0 0 0 0 0.25 0"/>
<feBlend mode="normal" in2="effect1_dropShadow_238_185" result="effect2_dropShadow_238_185"/>
<feColorMatrix in="SourceAlpha" type="matrix" values="0 0 0 0 0 0 0 0 0 0 0 0 0 0 0 0 0 0 127 0" result="hardAlpha"/>
<feOffset dy="4"/>
<feGaussianBlur stdDeviation="2"/>
<feComposite in2="hardAlpha" operator="out"/>
<feColorMatrix type="matrix" values="0 0 0 0 0 0 0 0 0 0 0 0 0 0 0 0 0 0 0.25 0"/>
<feBlend mode="normal" in2="effect2_dropShadow_238_185" result="effect3_dropShadow_238_185"/>
<feColorMatrix in="SourceAlpha" type="matrix" values="0 0 0 0 0 0 0 0 0 0 0 0 0 0 0 0 0 0 127 0" result="hardAlpha"/>
<feOffset dy="4"/>
<feGaussianBlur stdDeviation="2"/>
<feComposite in2="hardAlpha" operator="out"/>
<feColorMatrix type="matrix" values="0 0 0 0 0 0 0 0 0 0 0 0 0 0 0 0 0 0 0.25 0"/>
<feBlend mode="normal" in2="effect3_dropShadow_238_185" result="effect4_dropShadow_238_185"/>
<feColorMatrix in="SourceAlpha" type="matrix" values="0 0 0 0 0 0 0 0 0 0 0 0 0 0 0 0 0 0 127 0" result="hardAlpha"/>
<feOffset dy="4"/>
<feGaussianBlur stdDeviation="2"/>
<feComposite in2="hardAlpha" operator="out"/>
<feColorMatrix type="matrix" values="0 0 0 0 0 0 0 0 0 0 0 0 0 0 0 0 0 0 0.25 0"/>
<feBlend mode="normal" in2="effect4_dropShadow_238_185" result="effect5_dropShadow_238_185"/>
<feBlend mode="normal" in="SourceGraphic" in2="effect5_dropShadow_238_185" result="shape"/>
</filter>
</defs>
</svg>
