<svg width="345" height="684" viewBox="0 0 345 684" fill="none" xmlns="http://www.w3.org/2000/svg">
<path d="M277.332 679.2C118.543 629.442 41.3427 625.928 2 606.938L28.7856 632.746C130.637 643.025 156.365 657.804 220.646 679.2C235.141 684.204 251.82 681.41 277.332 679.2Z" fill="#8F8EEB"/>
<path d="M57.4401 2C174.986 47.6755 233.562 66.657 314.707 79.4238C230.307 50.2149 186.984 33.3689 120.978 2H57.4401Z" fill="#8F8EEB"/>
<path d="M2 606.938V58.2613C2.1828 14.9962 14.487 2.86101 57.4401 2M2 606.938C41.3427 625.928 118.543 629.442 277.332 679.2M2 606.938L28.7856 632.746C130.637 643.025 156.365 657.804 220.646 679.2C235.141 684.204 251.82 681.41 277.332 679.2M57.4401 2C174.986 47.6755 233.562 66.657 314.707 79.4238M57.4401 2H120.978C186.984 33.3689 230.307 50.2149 314.707 79.4238M314.707 79.4238C372.269 98.776 324.206 398.284 324.051 625.003C316.527 654.563 308.027 667.783 277.332 679.2" stroke="#8F8EEB" stroke-width="4"/>
</svg>
