<svg width="294" height="566" viewBox="0 0 294 566" fill="none" xmlns="http://www.w3.org/2000/svg">
<path d="M6.78262 0V73.2246C7.87095 84.7472 11.0252 86.9054 18.7826 86.2523H262.435C262.435 86.2523 288.326 85.5046 290 86.2523C291.674 87 293.674 183 290 183C286.326 183 269.217 183 269.217 183H26.6087H6.78262C1.57356e-05 183 11.3677 280.624 6.78262 279H26.6087H290C288.662 291.19 293.978 375.783 290 380H262.435H26.6087H6.78268C-4.73506 382.917 6.99791 487.052 6.78265 489C6.56739 490.948 26.6087 489 26.6087 489H262.435C263.713 488.701 289.958 486.498 290 489V566" stroke="#190C40" stroke-width="3"/>
</svg>
