<svg width="336" height="350" viewBox="0 0 336 350" fill="none" xmlns="http://www.w3.org/2000/svg">
<path d="M161.912 11.7459C161.912 11.7459 110.262 14.4759 76.9239 60.0459C43.5859 105.616 42.6519 167.846 40.6359 218.246C38.6199 268.646 66.9715 306.817 108.541 311.85C150.111 316.883 161.314 278.173 207.944 256.389C254.574 234.605 270.144 236.166 298.032 191.436C325.92 146.706 306.432 77.9379 255.837 42.6999C205.242 7.46192 161.912 11.7459 161.912 11.7459Z" fill="#D9D9D9"/>
<path opacity="0.7" d="M161.912 11.7459C161.912 11.7459 110.262 14.4759 76.9239 60.0459C43.5859 105.616 42.6519 167.846 40.6359 218.246C38.6199 268.646 66.9715 306.817 108.541 311.85C150.111 316.883 161.314 278.173 207.944 256.389C254.574 234.605 270.144 236.166 298.032 191.436C325.92 146.706 306.432 77.9379 255.837 42.6999C205.242 7.46192 161.912 11.7459 161.912 11.7459Z" fill="white"/>
<path d="M61.0915 250.698C57.6698 250.697 54.3247 251.752 51.4791 253.732C48.6335 255.711 46.4155 258.525 45.1054 261.818C43.7954 265.11 43.4523 268.734 44.1195 272.229C44.7867 275.725 46.4343 278.936 48.8537 281.457C51.2732 283.977 54.3559 285.693 57.7119 286.388C61.0679 287.083 64.5463 286.726 67.7072 285.361C70.8682 283.997 73.5696 281.686 75.4697 278.722C77.3699 275.758 78.3834 272.273 78.382 268.709C78.382 263.932 76.5604 259.351 73.3178 255.973C70.0751 252.596 65.6772 250.698 61.0915 250.698ZM61.0915 275.198C59.8541 275.198 58.6445 274.816 57.6157 274.1C56.5868 273.384 55.7849 272.366 55.3114 271.175C54.8379 269.984 54.714 268.674 54.9554 267.41C55.1968 266.145 55.7926 264.984 56.6676 264.073C57.5426 263.161 58.6573 262.541 59.8709 262.289C61.0845 262.038 62.3425 262.167 63.4857 262.66C64.6289 263.153 65.606 263.989 66.2934 265.06C66.9809 266.132 67.3478 267.392 67.3478 268.681C67.3513 269.539 67.1921 270.39 66.8793 271.184C66.5665 271.977 66.1062 272.699 65.5249 273.307C64.9436 273.915 64.2527 274.398 63.4919 274.727C62.7311 275.056 61.9153 275.226 61.0915 275.226V275.198Z" fill="#190C40"/>
<path d="M61.0915 222.334C58.9809 222.334 56.9177 222.986 55.1628 224.207C53.4079 225.429 52.0402 227.165 51.2325 229.196C50.4248 231.227 50.2135 233.462 50.6252 235.619C51.037 237.775 52.0533 239.756 53.5457 241.31C55.0382 242.865 56.9396 243.923 59.0097 244.352C61.0797 244.781 63.2253 244.561 65.1753 243.72C67.1252 242.878 68.7919 241.454 69.9644 239.626C71.137 237.798 71.7629 235.649 71.7629 233.45C71.7629 230.502 70.6386 227.674 68.6373 225.59C66.6361 223.505 63.9218 222.334 61.0915 222.334ZM61.0915 237.468C60.3286 237.468 59.5829 237.232 58.9485 236.791C58.3142 236.349 57.8198 235.722 57.5279 234.988C57.2359 234.253 57.1595 233.446 57.3084 232.666C57.4572 231.887 57.8246 231.171 58.364 230.609C58.9035 230.047 59.5908 229.664 60.339 229.509C61.0873 229.354 61.8628 229.434 62.5677 229.738C63.2725 230.042 63.8749 230.557 64.2987 231.218C64.7226 231.878 64.9488 232.655 64.9488 233.45C64.9488 234.516 64.5424 235.538 63.819 236.291C63.0957 237.045 62.1145 237.468 61.0915 237.468Z" fill="#190C40"/>
<path d="M80.6601 216.636H41.5229C40.0606 216.636 38.8752 217.871 38.8752 219.394V289.205C38.8752 290.728 40.0606 291.963 41.5229 291.963H80.6601C82.1224 291.963 83.3078 290.728 83.3078 289.205V219.394C83.3078 217.871 82.1224 216.636 80.6601 216.636Z" stroke="#190C40" stroke-miterlimit="10"/>
<path d="M272.073 250.698C268.651 250.698 265.307 251.755 262.462 253.735C259.617 255.715 257.4 258.53 256.091 261.822C254.782 265.115 254.44 268.738 255.108 272.234C255.776 275.729 257.424 278.94 259.844 281.459C262.264 283.979 265.346 285.694 268.702 286.389C272.058 287.083 275.536 286.725 278.697 285.36C281.857 283.996 284.558 281.685 286.458 278.721C288.358 275.757 289.371 272.273 289.37 268.709C289.37 266.343 288.922 264.001 288.053 261.815C287.184 259.629 285.91 257.643 284.303 255.971C282.697 254.298 280.79 252.972 278.691 252.067C276.593 251.162 274.344 250.697 272.073 250.698ZM272.073 275.198C270.835 275.198 269.626 274.816 268.597 274.1C267.568 273.384 266.766 272.366 266.293 271.175C265.819 269.984 265.695 268.674 265.937 267.41C266.178 266.145 266.774 264.984 267.649 264.073C268.524 263.161 269.638 262.541 270.852 262.289C272.066 262.038 273.324 262.167 274.467 262.66C275.61 263.153 276.587 263.989 277.275 265.06C277.962 266.132 278.329 267.392 278.329 268.681C278.333 269.539 278.175 270.39 277.862 271.185C277.55 271.979 277.089 272.701 276.508 273.309C275.927 273.918 275.235 274.4 274.474 274.729C273.713 275.058 272.897 275.227 272.073 275.226V275.198Z" fill="#190C40"/>
<path d="M272.073 222.334C269.962 222.334 267.899 222.986 266.144 224.207C264.389 225.429 263.021 227.165 262.214 229.196C261.406 231.227 261.195 233.462 261.606 235.619C262.018 237.775 263.034 239.756 264.527 241.31C266.019 242.865 267.921 243.923 269.991 244.352C272.061 244.781 274.206 244.561 276.156 243.72C278.106 242.878 279.773 241.454 280.946 239.626C282.118 237.798 282.744 235.649 282.744 233.45C282.744 230.502 281.62 227.674 279.618 225.59C277.617 223.505 274.903 222.334 272.073 222.334ZM272.073 237.468C271.31 237.467 270.565 237.23 269.931 236.787C269.298 236.345 268.805 235.717 268.514 234.983C268.223 234.248 268.147 233.441 268.297 232.662C268.447 231.883 268.814 231.168 269.354 230.606C269.894 230.045 270.581 229.663 271.329 229.509C272.077 229.354 272.853 229.434 273.557 229.739C274.261 230.043 274.863 230.558 275.287 231.218C275.711 231.879 275.937 232.656 275.937 233.45C275.937 233.978 275.837 234.501 275.642 234.989C275.448 235.477 275.163 235.92 274.804 236.294C274.446 236.667 274.02 236.963 273.551 237.164C273.082 237.366 272.58 237.469 272.073 237.468Z" fill="#190C40"/>
<path d="M291.648 216.636H252.511C251.048 216.636 249.863 217.871 249.863 219.394V289.205C249.863 290.728 251.048 291.963 252.511 291.963H291.648C293.11 291.963 294.296 290.728 294.296 289.205V219.394C294.296 217.871 293.11 216.636 291.648 216.636Z" stroke="#190C40" stroke-miterlimit="10"/>
<path d="M102.036 42.0562V53.8161" stroke="#190C40" stroke-linecap="round" stroke-linejoin="round"/>
<path d="M107.681 47.936H96.3849" stroke="#190C40" stroke-linecap="round" stroke-linejoin="round"/>
<path d="M77.3338 114.086V122.171" stroke="#190C40" stroke-linecap="round" stroke-linejoin="round"/>
<path d="M81.2179 118.132H73.4563" stroke="#190C40" stroke-linecap="round" stroke-linejoin="round"/>
<path d="M248.102 36.176V44.261" stroke="#190C40" stroke-linecap="round" stroke-linejoin="round"/>
<path d="M251.98 40.2151H244.218" stroke="#190C40" stroke-linecap="round" stroke-linejoin="round"/>
<path d="M201.526 225.078V233.163" stroke="#190C40" stroke-linecap="round" stroke-linejoin="round"/>
<path d="M205.41 229.124H197.649" stroke="#190C40" stroke-linecap="round" stroke-linejoin="round"/>
<path d="M239.279 107.471V117.026" stroke="#190C40" stroke-linecap="round" stroke-linejoin="round"/>
<path d="M243.869 112.252H234.696" stroke="#190C40" stroke-linecap="round" stroke-linejoin="round"/>
<path d="M262.214 40.5859V50.1409" stroke="#190C40" stroke-linecap="round" stroke-linejoin="round"/>
<path d="M266.797 45.3601H257.625" stroke="#190C40" stroke-linecap="round" stroke-linejoin="round"/>
<path d="M60.3994 85.0501C60.4007 85.7055 60.2152 86.3467 59.8665 86.8922C59.5177 87.4378 59.0214 87.8633 58.4403 88.1147C57.8592 88.3662 57.2195 88.4323 56.6023 88.3048C55.9851 88.1773 55.4182 87.8618 54.9732 87.3983C54.5283 86.9349 54.2254 86.3442 54.103 85.7013C53.9806 85.0584 54.0441 84.3921 54.2855 83.7868C54.5269 83.1815 54.9353 82.6645 55.4591 82.3012C55.9828 81.9379 56.5983 81.7447 57.2275 81.7461C58.0687 81.7461 58.8755 82.0942 59.4703 82.7138C60.0652 83.3334 60.3994 84.1738 60.3994 85.0501Z" stroke="#190C40" stroke-linecap="round" stroke-linejoin="round"/>
<path d="M225.523 211.113C225.523 211.768 225.337 212.408 224.988 212.952C224.638 213.497 224.142 213.921 223.561 214.172C222.98 214.423 222.341 214.488 221.725 214.36C221.108 214.233 220.542 213.917 220.097 213.454C219.653 212.991 219.35 212.401 219.227 211.759C219.105 211.117 219.167 210.451 219.408 209.846C219.649 209.241 220.056 208.724 220.579 208.36C221.101 207.996 221.716 207.802 222.345 207.802C222.762 207.802 223.175 207.888 223.561 208.054C223.947 208.22 224.297 208.464 224.592 208.772C224.887 209.079 225.122 209.444 225.281 209.846C225.441 210.248 225.523 210.678 225.523 211.113Z" stroke="#190C40" stroke-linecap="round" stroke-linejoin="round"/>
<path d="M277.032 101.227C277.032 101.882 276.846 102.522 276.496 103.067C276.147 103.611 275.651 104.035 275.07 104.286C274.489 104.537 273.85 104.602 273.233 104.474C272.617 104.347 272.05 104.031 271.606 103.568C271.161 103.105 270.859 102.515 270.736 101.873C270.613 101.231 270.676 100.565 270.917 99.96C271.157 99.355 271.565 98.8378 272.088 98.474C272.61 98.1102 273.225 97.916 273.853 97.916C274.271 97.9151 274.685 98.0001 275.071 98.1662C275.457 98.3322 275.808 98.5761 276.103 98.8837C276.398 99.1914 276.632 99.5567 276.792 99.9589C276.951 100.361 277.033 100.792 277.032 101.227Z" stroke="#190C40" stroke-linecap="round" stroke-linejoin="round"/>
<path d="M77.3338 30.296C78.6996 30.296 79.8068 29.1427 79.8068 27.72C79.8068 26.2974 78.6996 25.144 77.3338 25.144C75.968 25.144 74.8608 26.2974 74.8608 27.72C74.8608 29.1427 75.968 30.296 77.3338 30.296Z" stroke="#190C40" stroke-linecap="round" stroke-linejoin="round"/>
<path d="M113.326 213.318C114.692 213.318 115.799 212.165 115.799 210.742C115.799 209.319 114.692 208.166 113.326 208.166C111.96 208.166 110.853 209.319 110.853 210.742C110.853 212.165 111.96 213.318 113.326 213.318Z" stroke="#190C40" stroke-linecap="round" stroke-linejoin="round"/>
<path d="M56.1658 150.108C57.5315 150.108 58.6387 148.955 58.6387 147.532C58.6387 146.109 57.5315 144.956 56.1658 144.956C54.8 144.956 53.6928 146.109 53.6928 147.532C53.6928 148.955 54.8 150.108 56.1658 150.108Z" stroke="#190C40" stroke-linecap="round" stroke-linejoin="round"/>
<path d="M43.7472 169.988H49.728V162.4C49.728 161.472 50.082 160.581 50.7121 159.925C51.3422 159.269 52.1969 158.9 53.088 158.9C53.9791 158.9 54.8338 159.269 55.4639 159.925C56.094 160.581 56.448 161.472 56.448 162.4V184.03C56.448 185.02 56.8251 185.97 57.4967 186.671C58.1682 187.371 59.0792 187.766 60.0298 187.768C60.9815 187.768 61.8942 187.374 62.5672 186.673C63.2402 185.972 63.6182 185.021 63.6182 184.03V144.83C63.62 143.628 64.0796 142.476 64.896 141.627C65.7125 140.778 66.8191 140.301 67.9728 140.301C68.5438 140.301 69.1091 140.418 69.6366 140.646C70.1641 140.873 70.6434 141.207 71.0472 141.627C71.4509 142.048 71.7712 142.547 71.9897 143.097C72.2082 143.646 72.3206 144.235 72.3206 144.83V197.33C72.3206 198.462 72.7525 199.548 73.5213 200.349C74.29 201.15 75.3327 201.6 76.4198 201.6C77.5058 201.598 78.5468 201.147 79.3141 200.347C80.0814 199.546 80.5123 198.461 80.5123 197.33V133.28C80.5123 131.795 81.0787 130.37 82.0869 129.32C83.0951 128.27 84.4625 127.68 85.8883 127.68C87.3141 127.68 88.6815 128.27 89.6897 129.32C90.6979 130.37 91.2643 131.795 91.2643 133.28V197.05C91.2643 198.253 91.7231 199.407 92.5397 200.257C93.3564 201.108 94.464 201.586 95.6189 201.586C96.7738 201.586 97.8814 201.108 98.698 200.257C99.5147 199.407 99.9734 198.253 99.9734 197.05V146.237C99.9734 144.822 100.513 143.466 101.473 142.465C102.434 141.465 103.736 140.903 105.094 140.903C106.452 140.903 107.755 141.465 108.715 142.465C109.675 143.466 110.215 144.822 110.215 146.237V183.722C110.215 184.782 110.619 185.799 111.339 186.548C112.058 187.298 113.034 187.719 114.052 187.719C114.556 187.72 115.056 187.617 115.522 187.417C115.989 187.216 116.412 186.922 116.769 186.551C117.126 186.179 117.41 185.739 117.603 185.253C117.796 184.768 117.896 184.247 117.896 183.722V163.345C117.896 162.333 118.282 161.363 118.968 160.647C119.655 159.932 120.587 159.53 121.558 159.53C122.529 159.53 123.461 159.932 124.148 160.647C124.835 161.363 125.22 162.333 125.22 163.345V169.988H132.035" stroke="#190C40" stroke-miterlimit="10"/>
<path d="M127.23 169.988H133.184V162.4C133.184 161.478 133.533 160.593 134.156 159.937C134.779 159.282 135.625 158.909 136.51 158.9C137.401 158.9 138.256 159.269 138.886 159.925C139.516 160.581 139.87 161.472 139.87 162.4V184.03C139.87 185.021 140.248 185.972 140.921 186.673C141.594 187.374 142.507 187.768 143.459 187.768C144.409 187.766 145.32 187.371 145.992 186.671C146.663 185.97 147.04 185.02 147.04 184.03V144.83C147.042 143.628 147.502 142.476 148.318 141.627C149.135 140.778 150.241 140.301 151.395 140.301C152.548 140.301 153.654 140.778 154.469 141.627C155.285 142.477 155.743 143.629 155.743 144.83V197.33C155.743 198.462 156.175 199.548 156.943 200.349C157.712 201.15 158.755 201.6 159.842 201.6C160.928 201.598 161.969 201.147 162.736 200.347C163.503 199.546 163.934 198.461 163.934 197.33V133.28C163.934 131.795 164.501 130.37 165.509 129.32C166.517 128.27 167.885 127.68 169.31 127.68C170.736 127.68 172.104 128.27 173.112 129.32C174.12 130.37 174.686 131.795 174.686 133.28V197.05C174.685 197.645 174.797 198.235 175.015 198.785C175.234 199.336 175.554 199.836 175.957 200.257C176.361 200.678 176.841 201.012 177.369 201.241C177.897 201.469 178.463 201.586 179.034 201.586C179.606 201.586 180.172 201.469 180.701 201.241C181.229 201.013 181.709 200.679 182.113 200.257C182.518 199.836 182.838 199.336 183.057 198.786C183.276 198.235 183.389 197.646 183.389 197.05V146.237C183.389 144.822 183.928 143.466 184.889 142.465C185.849 141.465 187.151 140.903 188.509 140.903C189.867 140.903 191.17 141.465 192.13 142.465C193.091 143.466 193.63 144.822 193.63 146.237V183.722C193.63 184.782 194.034 185.799 194.754 186.548C195.474 187.298 196.45 187.719 197.467 187.719C197.972 187.72 198.471 187.617 198.938 187.417C199.404 187.216 199.828 186.922 200.185 186.551C200.542 186.179 200.825 185.739 201.018 185.253C201.212 184.768 201.311 184.247 201.311 183.722V163.345C201.311 162.336 201.695 161.367 202.379 160.652C203.063 159.937 203.991 159.534 204.96 159.53C205.931 159.53 206.863 159.932 207.55 160.647C208.237 161.363 208.622 162.333 208.622 163.345V169.988H215.436" stroke="#190C40" stroke-miterlimit="10"/>
<path d="M210.712 169.988H216.666V162.4C216.666 161.478 217.016 160.593 217.638 159.937C218.261 159.282 219.107 158.909 219.993 158.9C220.878 158.909 221.724 159.282 222.347 159.937C222.97 160.593 223.319 161.478 223.319 162.4V184.03C223.319 185.021 223.697 185.972 224.37 186.673C225.043 187.374 225.956 187.768 226.908 187.768C227.859 187.768 228.772 187.374 229.445 186.673C230.118 185.972 230.496 185.021 230.496 184.03V144.83C230.498 143.628 230.957 142.476 231.774 141.627C232.59 140.778 233.697 140.301 234.851 140.301C235.422 140.301 235.987 140.418 236.514 140.646C237.042 140.873 237.521 141.207 237.925 141.627C238.329 142.048 238.649 142.547 238.867 143.097C239.086 143.646 239.198 144.235 239.198 144.83V197.33C239.198 198.456 239.626 199.537 240.387 200.337C241.149 201.137 242.183 201.591 243.264 201.6C243.802 201.6 244.335 201.489 244.832 201.275C245.329 201.06 245.78 200.745 246.16 200.349C246.54 199.952 246.842 199.481 247.047 198.963C247.252 198.445 247.357 197.89 247.356 197.33V133.28C247.356 131.795 247.923 130.37 248.931 129.32C249.939 128.27 251.307 127.68 252.732 127.68C254.158 127.68 255.526 128.27 256.534 129.32C257.542 130.37 258.108 131.795 258.108 133.28V197.05C258.108 198.252 258.566 199.404 259.382 200.255C260.197 201.105 261.303 201.584 262.456 201.586C263.028 201.586 263.594 201.469 264.123 201.241C264.651 201.013 265.131 200.679 265.535 200.257C265.94 199.836 266.261 199.336 266.479 198.786C266.698 198.235 266.811 197.646 266.811 197.05V146.237C266.811 144.822 267.35 143.466 268.311 142.465C269.271 141.465 270.573 140.903 271.932 140.903C273.29 140.903 274.592 141.465 275.552 142.465C276.513 143.466 277.052 144.822 277.052 146.237V183.722C277.052 184.782 277.456 185.799 278.176 186.548C278.896 187.298 279.872 187.719 280.889 187.719C281.394 187.72 281.893 187.617 282.36 187.417C282.826 187.216 283.25 186.922 283.607 186.551C283.964 186.179 284.247 185.739 284.44 185.253C284.634 184.768 284.733 184.247 284.733 183.722V163.345C284.733 162.333 285.119 161.363 285.806 160.647C286.493 159.932 287.424 159.53 288.396 159.53C289.367 159.53 290.298 159.932 290.985 160.647C291.672 161.363 292.058 162.333 292.058 163.345V169.988H298.906" stroke="#190C40" stroke-miterlimit="10"/>
<path d="M163.78 334.6C199.828 334.6 229.051 327.36 229.051 318.43C229.051 309.5 199.828 302.26 163.78 302.26C127.731 302.26 98.5085 309.5 98.5085 318.43C98.5085 327.36 127.731 334.6 163.78 334.6Z" stroke="#190C40" stroke-linecap="round" stroke-linejoin="round"/>
<path d="M140.609 44.1349C140.609 44.1349 141.664 40.7049 142.625 38.0099C143.586 35.3149 145.212 33.1099 146.039 32.4939C146.866 31.8779 150.978 30.3939 158.975 32.2489C166.972 34.1039 170.621 37.1489 171.911 38.2549C173.201 39.3609 173.208 41.1949 173.443 43.3999C173.606 44.8422 173.841 46.2745 174.149 47.6909C174.149 47.6909 173.322 45.8499 163.209 44.3799C153.095 42.9099 149.184 41.9299 146.254 43.3999C143.324 44.8699 139.904 46.7109 139.904 46.7109L140.609 44.1349Z" fill="#190C40" stroke="#190C40" stroke-linecap="round" stroke-linejoin="round"/>
<path d="M143.136 61.8309C141.552 61.6824 139.98 61.4181 138.432 61.0399C134.595 60.2419 131.457 57.2599 134.944 52.2969C138.432 47.3339 140.697 43.5539 140.697 43.5539C140.697 43.5539 142.141 40.7539 147.672 39.2629C153.203 37.7719 165.198 41.5449 169.902 43.4209C174.606 45.2969 178.362 47.5999 180.096 50.7849C181.83 53.9699 180.331 54.9429 177.509 58.0229C174.686 61.1029 172.926 62.0409 168.222 63.3849C163.518 64.7289 143.136 61.8309 143.136 61.8309Z" fill="#190C40" stroke="#190C40" stroke-linecap="round" stroke-linejoin="round"/>
<path d="M146.792 45.5C146.792 45.5 142.256 49.861 142.256 52.038C142.256 54.215 142.605 61.481 143.129 64.204C143.653 66.927 147.491 75.285 149.056 76.559C150.622 77.833 156.032 76.377 156.032 76.377L158.652 80.01L172.764 70.567C172.764 70.567 170.493 65.296 170.318 64.75C170.185 63.4833 170.126 62.2092 170.144 60.935C170.144 60.935 172.24 59.85 172.939 58.03C173.378 56.6767 173.605 55.2585 173.611 53.83C173.611 53.83 167.509 47.474 160.709 45.297C153.908 43.12 146.792 45.5 146.792 45.5Z" fill="white" stroke="#190C40" stroke-linecap="round" stroke-linejoin="round"/>
<path d="M148.015 52.241L148.364 55.146C148.364 55.146 146.617 57.141 146.617 58.597C146.617 60.053 149.056 60.053 149.056 60.053" stroke="#190C40" stroke-linecap="round" stroke-linejoin="round"/>
<path d="M153.068 51.3309L153.243 52.6049L157.604 51.1489" stroke="#190C40" stroke-linecap="round" stroke-linejoin="round"/>
<path d="M144.527 55.146L144.07 57.169L146.859 55.531" stroke="#190C40" stroke-linecap="round" stroke-linejoin="round"/>
<path d="M156.596 53.144C157.056 53.144 157.429 52.8087 157.429 52.395C157.429 51.9813 157.056 51.646 156.596 51.646C156.136 51.646 155.763 51.9813 155.763 52.395C155.763 52.8087 156.136 53.144 156.596 53.144Z" fill="#190C40"/>
<path d="M146.509 57.1689C146.97 57.1689 147.343 56.8336 147.343 56.4199C147.343 56.0062 146.97 55.6709 146.509 55.6709C146.049 55.6709 145.676 56.0062 145.676 56.4199C145.676 56.8336 146.049 57.1689 146.509 57.1689Z" fill="#190C40"/>
<path d="M150.723 49.7698C150.723 49.7698 151.67 46.2698 154.836 45.6048C155.484 45.4662 156.156 45.4945 156.791 45.6872C157.427 45.88 158.008 46.2313 158.485 46.7108" stroke="#190C40" stroke-width="2" stroke-linecap="round" stroke-linejoin="round"/>
<path d="M146.839 51.4848C146.839 51.4848 145.79 50.6378 144.957 50.9948C144.485 51.2085 144.074 51.5469 143.765 51.9765C143.456 52.4062 143.26 52.9122 143.196 53.4448" stroke="#190C40" stroke-width="2" stroke-linecap="round" stroke-linejoin="round"/>
<path d="M165.897 50.2598C167.913 51.9748 167.543 54.5508 169.068 53.9348C170.077 53.4862 171.031 52.9153 171.911 52.2338C169.535 50.0927 166.92 48.2572 164.123 46.7668C164.147 47.4506 164.319 48.1197 164.627 48.7244C164.934 49.3292 165.368 49.854 165.897 50.2598Z" fill="#190C40" stroke="#190C40" stroke-linecap="round" stroke-linejoin="round"/>
<path d="M156.032 76.3979L161.656 72.0649L158.652 80.0309L156.032 76.3979Z" fill="#190C40" stroke="#190C40" stroke-linecap="round" stroke-linejoin="round"/>
<path d="M154.432 291.235C154.432 291.235 145.73 297.605 144.319 297.85C142.908 298.095 136.792 299.32 136.087 300.79C135.381 302.26 134.911 304.22 137.263 304.71C139.615 305.2 150.199 305.935 153.962 305.935C157.725 305.935 161.959 306.18 164.042 305.69C166.125 305.2 169.452 306.18 170.628 301.28C171.804 296.38 171.568 292.46 170.863 289.765C170.157 287.07 154.432 291.235 154.432 291.235Z" fill="white" stroke="#190C40" stroke-linecap="round" stroke-linejoin="round"/>
<path d="M165.924 303.702C161.192 303.187 156.434 302.969 151.677 303.051C145.669 303.24 137.565 301.931 135.744 301.616C135.307 302.911 135.334 304.304 137.263 304.71C139.615 305.2 150.199 305.935 153.962 305.935C157.725 305.935 161.959 306.18 164.042 305.69C165.164 305.431 166.609 305.578 167.899 305.053L165.924 303.702Z" stroke="#190C40" stroke-linecap="round" stroke-linejoin="round"/>
<path d="M152.591 300.811C152.545 300.811 152.499 300.801 152.456 300.782C152.413 300.764 152.374 300.736 152.342 300.702C152.309 300.667 152.283 300.626 152.266 300.581C152.249 300.536 152.241 300.488 152.242 300.44L152.275 299.159C152.275 299.111 152.284 299.063 152.303 299.019C152.321 298.975 152.347 298.935 152.38 298.901C152.414 298.868 152.453 298.842 152.496 298.825C152.539 298.808 152.585 298.8 152.631 298.802C152.725 298.805 152.814 298.847 152.879 298.917C152.945 298.988 152.981 299.082 152.981 299.18V300.454C152.981 300.505 152.971 300.556 152.951 300.603C152.931 300.65 152.901 300.691 152.864 300.725C152.827 300.759 152.784 300.784 152.737 300.799C152.69 300.814 152.64 300.818 152.591 300.811Z" fill="white" stroke="#190C40" stroke-linecap="round" stroke-linejoin="round"/>
<path d="M152.618 299.908C152.434 299.895 152.262 299.81 152.137 299.669C152.012 299.529 151.944 299.343 151.946 299.152L152.053 294.217C152.067 294.027 152.148 293.85 152.282 293.72C152.415 293.591 152.59 293.518 152.772 293.517C152.956 293.526 153.129 293.609 153.255 293.749C153.38 293.889 153.448 294.074 153.444 294.266L153.337 299.201C153.33 299.393 153.251 299.575 153.116 299.707C152.982 299.84 152.803 299.912 152.618 299.908Z" fill="white" stroke="#190C40" stroke-linecap="round" stroke-linejoin="round"/>
<path d="M144.305 298.942C144.113 298.941 143.925 298.886 143.761 298.781C143.597 298.676 143.465 298.525 143.378 298.347C143.243 298.094 143.172 297.81 143.172 297.521C143.172 297.232 143.243 296.947 143.378 296.695C143.916 295.722 145.273 295.533 145.837 295.498C146.109 295.497 146.37 295.605 146.568 295.799C146.765 295.993 146.884 296.258 146.899 296.541C146.915 296.823 146.826 297.101 146.651 297.317C146.476 297.533 146.228 297.671 145.958 297.703C145.759 297.72 145.561 297.755 145.367 297.808C145.375 298.019 145.324 298.228 145.22 298.409C145.116 298.59 144.964 298.737 144.782 298.83C144.634 298.904 144.47 298.942 144.305 298.942Z" fill="white" stroke="#190C40" stroke-linecap="round" stroke-linejoin="round"/>
<path d="M146.919 297.262C146.726 297.264 146.535 297.21 146.37 297.105C146.205 296.999 146.071 296.848 145.985 296.667C145.85 296.414 145.779 296.13 145.779 295.841C145.779 295.552 145.85 295.267 145.985 295.015C146.53 294.042 147.887 293.86 148.445 293.825C148.583 293.816 148.722 293.836 148.853 293.883C148.985 293.93 149.106 294.004 149.21 294.1C149.313 294.196 149.398 294.312 149.459 294.442C149.52 294.572 149.555 294.713 149.564 294.857C149.572 295.002 149.553 295.146 149.508 295.283C149.463 295.42 149.392 295.546 149.3 295.654C149.208 295.762 149.096 295.85 148.971 295.914C148.847 295.977 148.711 296.014 148.572 296.023C148.371 296.039 148.17 296.074 147.974 296.128C147.982 296.339 147.931 296.548 147.827 296.729C147.724 296.91 147.572 297.057 147.39 297.15C147.243 297.224 147.082 297.262 146.919 297.262Z" fill="white" stroke="#190C40" stroke-linecap="round" stroke-linejoin="round"/>
<path d="M149.527 295.589C149.334 295.589 149.144 295.533 148.979 295.428C148.814 295.323 148.681 295.173 148.593 294.994C148.457 294.742 148.385 294.457 148.385 294.168C148.385 293.879 148.457 293.594 148.593 293.342C149.13 292.362 150.488 292.18 151.045 292.145C151.325 292.127 151.6 292.226 151.81 292.42C152.02 292.613 152.147 292.886 152.164 293.177C152.181 293.469 152.086 293.755 151.9 293.974C151.715 294.192 151.453 294.325 151.173 294.343C150.973 294.358 150.775 294.396 150.582 294.455C150.586 294.664 150.533 294.87 150.43 295.05C150.326 295.23 150.176 295.375 149.997 295.47C149.851 295.545 149.69 295.586 149.527 295.589Z" fill="white" stroke="#190C40" stroke-linecap="round" stroke-linejoin="round"/>
<path d="M138.022 299.789C138.022 299.789 138.136 300.027 140.435 300.027C142.733 300.027 143.418 301.105 143.647 301.938" stroke="#190C40" stroke-linecap="round" stroke-linejoin="round"/>
<path d="M159.761 298.956C160.267 298.479 160.883 298.148 161.549 297.997" stroke="#190C40" stroke-linecap="round" stroke-linejoin="round"/>
<path d="M156.616 302.897C157.255 301.831 157.986 300.828 158.8 299.901" stroke="#190C40" stroke-linecap="round" stroke-linejoin="round"/>
<path d="M144.843 171.423C144.843 171.423 144.608 186.858 144.608 202.783C144.608 218.708 145.394 233.275 147.296 237.93C149.197 242.585 154.217 266.735 154.688 269.92C155.158 273.105 154.452 278.005 154.452 280.42C154.458 281.92 154.696 283.409 155.158 284.83C155.158 284.83 153.982 286.79 153.982 288.015C153.982 289.24 152.571 291.69 153.982 292.425C155.393 293.16 156.334 293.895 163.39 295.12C170.446 296.345 174.915 289.24 176.091 287.28C177.267 285.32 170.58 238.63 169.64 230.055C168.699 221.48 169.324 203.728 170.735 196.868C172.146 190.008 171.441 174.083 170.5 170.898C169.559 167.713 160.386 165.753 155.447 166.243C150.508 166.733 144.843 171.423 144.843 171.423Z" fill="#190C40" stroke="#190C40" stroke-linecap="round" stroke-linejoin="round"/>
<path d="M162.953 178.283C162.953 178.283 157.86 215.88 157.86 222.005C157.86 228.13 160.447 234.99 161.152 237.93C161.858 240.87 164.546 274.085 165.252 276.29C165.957 278.495 166.192 284.375 166.192 284.375C166.192 284.375 164.311 285.11 164.076 286.58C163.84 288.05 165.016 289.03 165.016 290.255C165.016 291.48 163.84 293.44 163.37 295.155C163.11 296.296 163.192 297.493 163.605 298.585C163.605 298.585 158.901 305.2 156.784 307.405C154.668 309.61 149.258 313.775 146.2 315.98C143.143 318.185 137.028 320.88 136.792 324.31C136.557 327.74 138.909 330.68 144.789 330.925C150.669 331.17 161.253 331.415 167.133 330.68C173.013 329.945 184.538 323.085 186.42 320.635C188.301 318.185 189.504 317.94 189.504 311.08C189.504 304.22 189.739 297.605 189.504 296.87C189.269 296.135 188.832 294.91 189.269 290.99C189.576 288.758 189.333 286.482 188.563 284.375C188.949 283.171 189.263 281.944 189.504 280.7C189.739 279.23 187.858 275.8 187.858 275.8C187.858 275.8 189.168 250.425 189.168 244.79C189.168 239.155 182.347 226.905 182.347 226.905C182.347 226.905 183.288 221.76 183.288 220.78C183.288 219.8 181.877 217.35 181.877 217.35C181.877 217.35 188.832 197.148 189.504 194.453C190.176 191.758 192.091 182.938 192.562 179.998C193.032 177.058 191.386 170.933 189.269 167.258C187.152 163.583 177.979 159.173 174.686 162.113C171.394 165.053 162.953 178.283 162.953 178.283Z" fill="#190C40" stroke="#190C40" stroke-linecap="round" stroke-linejoin="round"/>
<path d="M142.961 171.668C142.961 171.668 149.312 183.183 153.545 185.388C157.779 187.593 162.012 184.408 167.892 177.793C173.772 171.178 177.301 166.033 181.534 167.748C185.768 169.463 193.529 186.123 194.705 188.083C195.881 190.043 195.646 171.913 193.294 166.278C190.942 160.643 178.947 158.438 164.398 160.398C149.849 162.358 142.961 171.668 142.961 171.668Z" fill="white" stroke="#190C40" stroke-linecap="round" stroke-linejoin="round"/>
<path d="M141.792 163.8C141.792 163.8 141.322 168.21 141.322 170.66C141.322 173.11 144.85 172.865 144.85 172.865C144.85 172.865 155.434 168.21 167.194 167.475C178.954 166.74 190.714 169.925 192.595 169.925C194.477 169.925 195.418 168.21 195.418 166.25C195.418 164.29 193.301 159.88 193.301 159.88C193.301 159.88 188.362 154.245 173.779 153.755C159.197 153.265 148.613 153.51 145.555 156.205C142.498 158.9 141.792 163.8 141.792 163.8Z" fill="#C7C1D8" stroke="#190C40" stroke-linecap="round" stroke-linejoin="round"/>
<path d="M171.992 67.788C171.992 67.788 158.787 78.288 156.085 80.451C153.384 82.614 155.635 84.511 156.24 84.98C156.866 85.6432 157.419 86.3782 157.886 87.171C154.775 90.0702 151.467 92.7324 147.988 95.137C142.135 99.204 141.086 99.827 139.433 102.011C137.78 104.195 131.638 111.391 131.638 111.391C132.136 109.133 132.437 106.832 132.539 104.517C132.539 101.717 133.775 98.294 132.424 95.949C131.074 93.604 127.774 90.636 124.777 90.636C121.78 90.636 119.072 91.728 117.271 94.696C115.47 97.664 114.085 103.733 113.037 110.299C111.989 116.865 107.372 124.859 109.321 127.981C111.27 131.103 114.421 134.981 118.621 134.981C122.821 134.981 126.571 134.666 128.527 132.79C130.482 130.914 139.736 126.826 140.784 126.042C141.945 125.291 143.148 124.613 144.386 124.012C144.386 124.012 144.238 136.045 143.64 140.889C143.042 145.733 139.138 157.297 138.835 159.789C138.533 162.281 142.289 164.787 142.289 164.787C142.289 164.787 146.187 160.587 157.745 159.474C166.99 158.727 176.282 158.884 185.499 159.943C188.348 160.412 192.4 162.449 194.235 160.573C196.069 158.697 197.232 158.697 196.923 154.476C196.614 150.255 196.029 145.726 196.029 143.85C196.029 141.974 197.225 126.973 197.225 126.504C197.225 126.035 201.13 108.22 201.13 108.22C201.13 108.22 209.98 105.42 215.981 104.16C221.982 102.9 224.529 94.318 222.58 89.313C220.631 84.308 212.977 79.156 209.677 76.811C206.378 74.466 195.424 74.011 193.926 74.627C192.427 75.243 187.777 74.312 184.175 73.843C180.573 73.374 178.624 73.374 178.026 73.528L177.421 73.689C177.421 73.689 176.521 68.53 175.177 67.592C173.833 66.654 171.992 67.788 171.992 67.788Z" fill="#D9D9D9" stroke="#190C40" stroke-linecap="round" stroke-linejoin="round"/>
<path d="M206.257 101.703C207.091 101.877 207.935 101.989 208.784 102.039" stroke="#190C40" stroke-linecap="round" stroke-linejoin="round"/>
<path d="M190.633 77.8188C190.633 77.8188 186.729 80.0098 187.777 83.6008C188.825 87.1918 195.881 95.5008 199.201 98.3008C200.605 99.488 202.197 100.412 203.905 101.031" stroke="#190C40" stroke-linecap="round" stroke-linejoin="round"/>
<path d="M197.83 98C197.83 98 200.384 101.752 202.931 102.844C204.4 103.493 205.985 103.813 207.581 103.782" stroke="#190C40" stroke-linecap="round" stroke-linejoin="round"/>
<path d="M130.946 122.325C130.614 123.605 130.102 124.827 129.427 125.951" stroke="#190C40" stroke-linecap="round" stroke-linejoin="round"/>
<path d="M131.638 111.391C131.638 111.391 131.221 117.201 131.221 120.169" stroke="#190C40" stroke-linecap="round" stroke-linejoin="round"/>
<path d="M131.376 125.167C131.376 125.167 130.173 128.135 128.372 128.604" stroke="#190C40" stroke-linecap="round" stroke-linejoin="round"/>
<path d="M143.223 111.104L144.386 124.047L141.127 113.764" stroke="#190C40" stroke-linecap="round" stroke-linejoin="round"/>
<path d="M185.082 98.6018C185.082 98.6018 186.581 105.483 191.802 107.044C197.024 108.605 200.357 108.136 200.357 108.136" stroke="#190C40" stroke-linecap="round" stroke-linejoin="round"/>
<path d="M149.97 154.847C149.298 157.514 149.453 159.327 151.193 160.153" stroke="#190C40" stroke-linecap="round" stroke-linejoin="round"/>
<path d="M152.759 145.831C152.409 147.365 151.96 148.874 151.415 150.346L151.14 151.102" stroke="#190C40" stroke-linecap="round" stroke-linejoin="round"/>
<path d="M157.483 96.4038C156.664 98.8253 155.978 101.293 155.427 103.796C154.251 109.676 154.016 123.641 154.016 131.726C154.082 135.764 153.799 139.801 153.169 143.787" stroke="#190C40" stroke-linecap="round" stroke-linejoin="round"/>
<path d="M158.72 78.5608C158.72 78.5608 156.838 81.9908 157.779 82.9708C158.72 83.9508 160.601 87.6258 160.601 87.6258C160.601 87.6258 159.372 90.7898 158.075 94.6258" stroke="#190C40" stroke-linecap="round" stroke-linejoin="round"/>
<path d="M155.676 131.474C154.33 131.515 153.017 131.039 151.986 130.137C149.372 127.813 148.478 122.696 149.076 113.547C149.076 113.183 149.13 112.812 149.171 112.441C149.244 102.928 154.11 92.0569 154.358 91.4409C154.506 91.0699 155.192 89.5929 155.548 89.7469C155.904 89.9009 156.22 89.0469 156.079 89.3899C156.079 89.3899 155.958 89.6909 155.776 90.1809C156.596 88.2629 157.174 87.0309 157.255 86.8559C157.338 86.6814 157.485 86.5482 157.662 86.4854C157.84 86.4225 158.034 86.4349 158.202 86.5199C158.289 86.5591 158.366 86.6168 158.43 86.6892C158.493 86.7616 158.541 86.8471 158.571 86.9402C158.601 87.0333 158.612 87.1318 158.602 87.2294C158.593 87.3271 158.565 87.4216 158.518 87.5069C158.451 87.6539 151.677 102.081 150.582 112.532C150.574 113.351 150.618 114.169 150.716 114.982C150.938 116.746 151.603 118.895 153.492 119.133C156.401 119.497 161.199 115.388 163.706 108.689C167.436 98.7419 176.098 78.0009 176.185 77.7909C176.248 77.6053 176.38 77.4534 176.55 77.3687C176.721 77.2841 176.917 77.2735 177.096 77.3394C177.274 77.4053 177.42 77.5423 177.501 77.7202C177.582 77.8981 177.592 78.1023 177.529 78.2879C175.335 86.534 173.691 94.9284 172.61 103.411C171.091 115.878 165.89 129.311 157.718 131.236C157.048 131.394 156.363 131.474 155.676 131.474ZM150.3 118.447C150.3 124.047 151.133 127.456 152.887 129.024C153.975 129.99 155.44 130.242 157.376 129.787C163.773 128.282 169.472 117.355 171.179 103.187C171.931 97.0269 173.033 91.1889 174.008 86.6739C171.152 93.6249 167.214 103.299 165.01 109.179C162.476 115.941 157.235 121.079 153.31 120.547C152.687 120.467 152.091 120.235 151.57 119.87C151.05 119.505 150.619 119.018 150.313 118.447H150.3Z" fill="white" stroke="#190C40" stroke-linecap="round" stroke-linejoin="round"/>
<path d="M157.779 82.9709L157.073 88.6059L159.19 87.6259L157.779 82.9709Z" fill="white" stroke="#190C40" stroke-linecap="round" stroke-linejoin="round"/>
<path d="M177.28 79.6948C177.28 79.6948 171.279 82.3548 169.478 83.6008" stroke="#190C40" stroke-linecap="round" stroke-linejoin="round"/>
<path d="M187.488 76.1039C187.488 76.1039 187.938 77.8189 190.485 80.1639C193.032 82.5089 197.985 82.0399 199.94 80.9479C201.896 79.8559 202.447 76.3839 202.447 76.3839C202.447 76.3839 199.49 72.9749 197.985 72.8209C196.479 72.6669 188.079 71.7289 187.488 76.1039Z" fill="#C7C1D8" stroke="#190C40" stroke-linecap="round" stroke-linejoin="round"/>
<path d="M203.495 74.354C203.206 73.787 202.897 73.241 202.581 72.709C202.639 72.6354 202.693 72.5582 202.742 72.478C202.938 72.2159 203.068 71.9072 203.121 71.5798C203.174 71.2523 203.148 70.9163 203.045 70.602C202.742 69.979 201.392 67.326 200.941 67.326C200.706 67.326 199.665 67.494 198.717 67.655L198.542 67.48C198.117 67.0779 197.734 66.6297 197.4 66.143C197.702 65.086 198.818 62.237 198.542 61.243C198.267 60.249 195.545 59.213 194.51 59.367C193.838 59.472 192.32 61.418 191.352 62.776L190.008 62.524C189.531 61.075 188.59 58.387 188.039 58.275C187.293 58.114 185.942 59.836 185.942 60.62C185.942 60.872 185.989 61.509 186.057 62.251L184.289 63.427C184.289 63.427 181.89 69.524 180.842 70.777C179.794 72.03 175.466 74.837 172.738 74.977C170.009 75.117 167.039 75.446 167.637 77.322C168.235 79.198 170.325 79.352 174.357 79.821C178.389 80.29 181.857 78.26 183.355 77.322C184.854 76.384 188.005 76.853 190.109 76.853C192.212 76.853 195.061 76.076 195.66 76.076C196.258 76.076 197.911 77.476 199.692 77.952C201.472 78.428 204.792 77.322 204.792 77.322C204.792 77.322 204.994 77.322 203.495 74.354Z" fill="white" stroke="#190C40" stroke-linecap="round" stroke-linejoin="round"/>
<path d="M194.04 61.6978L193.892 66.0728C193.892 66.0728 192.844 69.6638 193.442 70.9168C194.04 72.1698 196.439 71.0708 196.741 70.4478C197.044 69.8248 199.295 62.0478 199.14 61.0748C198.986 60.1018 196.889 58.8838 195.693 58.8838C195.324 58.8947 194.961 58.9835 194.626 59.1447C194.291 59.306 193.991 59.5363 193.744 59.8218" fill="white"/>
<path d="M194.04 61.6978L193.892 66.0728C193.892 66.0728 192.844 69.6638 193.442 70.9168C194.04 72.1698 196.439 71.0708 196.741 70.4478C197.044 69.8248 199.295 62.0478 199.14 61.0748C198.986 60.1018 196.889 58.8838 195.693 58.8838C195.324 58.8947 194.961 58.9835 194.626 59.1447C194.291 59.306 193.991 59.5363 193.744 59.8218" stroke="#190C40" stroke-linecap="round" stroke-linejoin="round"/>
<path d="M204.543 70.6018C204.543 70.6018 207.231 72.4778 207.393 73.1008C207.554 73.7238 207.09 77.3008 207.09 79.1978C207.09 81.0948 206.492 82.9498 205.444 81.8578C204.395 80.7658 204.395 77.1678 204.241 76.5448C204.086 75.9218 203.34 75.6068 203.34 75.6068" fill="white"/>
<path d="M204.543 70.6018C204.543 70.6018 207.231 72.4778 207.393 73.1008C207.554 73.7238 207.09 77.3008 207.09 79.1978C207.09 81.0948 206.492 82.9498 205.444 81.8578C204.395 80.7658 204.395 77.1678 204.241 76.5448C204.086 75.9218 203.34 75.6068 203.34 75.6068" stroke="#190C40" stroke-linecap="round" stroke-linejoin="round"/>
<path d="M187.293 56.7C187.293 56.7 183.543 55.923 183.261 57.484C182.979 59.045 182.811 64.204 184.014 64.484C185.217 64.764 187.159 64.953 187.461 64.484C187.764 64.015 188.805 58.541 188.664 57.603C188.523 56.665 187.293 56.7 187.293 56.7Z" fill="white" stroke="#190C40" stroke-linecap="round" stroke-linejoin="round"/>
<path d="M197.79 67.7879C197.79 67.7879 201.392 64.9879 202.44 64.6659C203.488 64.3439 206.196 67.1999 206.196 67.1999C205.949 69.2618 205.546 71.3003 204.994 73.2969C204.241 75.6419 203.34 76.4189 202.44 76.4189C202.193 76.4109 201.951 76.3517 201.727 76.2448C201.502 76.1379 201.301 75.9855 201.134 75.7965C200.966 75.6075 200.837 75.3856 200.754 75.1439C200.67 74.9022 200.633 74.6456 200.646 74.3889C200.646 73.1359 201.096 69.0759 201.096 69.0759" fill="white"/>
<path d="M197.79 67.7879C197.79 67.7879 201.392 64.9879 202.44 64.6659C203.488 64.3439 206.196 67.1999 206.196 67.1999C205.949 69.2618 205.546 71.3003 204.994 73.2969C204.241 75.6419 203.34 76.4189 202.44 76.4189C202.193 76.4109 201.951 76.3517 201.727 76.2448C201.502 76.1379 201.301 75.9855 201.134 75.7965C200.966 75.6075 200.837 75.3856 200.754 75.1439C200.67 74.9022 200.633 74.6456 200.646 74.3889C200.646 73.1359 201.096 69.0759 201.096 69.0759" stroke="#190C40" stroke-linecap="round" stroke-linejoin="round"/>
<path d="M189.995 63.8818C189.995 63.8818 188.651 65.7578 187.441 66.0728C186.504 66.2779 185.549 66.3835 184.592 66.3878" fill="white"/>
<path d="M189.995 63.8818C189.995 63.8818 188.651 65.7578 187.441 66.0728C186.504 66.2779 185.549 66.3835 184.592 66.3878" stroke="#190C40" stroke-linecap="round" stroke-linejoin="round"/>
<path d="M191.52 64.8198C191.585 65.2933 191.796 65.7321 192.121 66.0703C192.445 66.4085 192.866 66.628 193.321 66.6958" fill="white"/>
<path d="M191.52 64.8198C191.585 65.2933 191.796 65.7321 192.121 66.0703C192.445 66.4085 192.866 66.628 193.321 66.6958" stroke="#190C40" stroke-linecap="round" stroke-linejoin="round"/>
<path d="M198.395 70C198.395 70 198.092 72.03 200.343 71.561Z" fill="white"/>
<path d="M198.395 70C198.395 70 198.092 72.03 200.343 71.561" stroke="#190C40" stroke-linecap="round" stroke-linejoin="round"/>
<path d="M128.822 88.1369C130.457 85.4831 131.912 82.7137 133.177 79.8489C134.978 75.6489 136.476 72.9749 138.425 70.6299C140.374 68.2849 145.481 64.1199 145.925 64.0709C147.269 63.9099 147.269 65.6319 147.269 65.6319C147.269 65.6319 149.668 64.2319 150.42 64.8479C151.173 65.4639 150.857 67.0249 149.668 67.9769C147.719 69.5379 145.172 73.5769 145.018 74.0669C144.903 74.3969 144.752 74.7117 144.567 75.0049C144.567 75.0049 147.867 77.0419 147.867 77.9799C147.789 78.7877 147.587 79.5771 147.269 80.3179C147.413 81.623 147.141 82.9411 146.496 84.0699C145.448 85.7919 144.702 87.5069 143.808 87.5069C142.914 87.5069 142.464 87.3529 142.464 86.4149C142.464 85.4769 143.512 83.2929 143.512 83.2929C142.62 84.1359 141.816 85.0744 141.113 86.0929C140.213 87.4929 139.312 89.2219 137.814 89.8449C136.315 90.4679 133.614 91.2449 133.614 91.2449L130.885 95.8999C129.569 96.1703 128.204 95.9575 127.021 95.2979C125.375 94.2059 124.925 91.8609 124.925 91.8609L128.822 88.1369Z" fill="white" stroke="#190C40" stroke-linecap="round" stroke-linejoin="round"/>
<path d="M127.774 88.291C127.774 88.8137 127.896 89.3286 128.131 89.7909C128.365 90.2532 128.704 90.649 129.118 90.944C130.617 92.197 133.62 92.344 133.62 92.344C133.62 92.344 134.219 91.875 134.219 92.659C134.219 93.443 131.967 97.503 131.067 99.064C130.166 100.625 125.22 100.94 123.42 98.441C121.619 95.942 121.766 92.659 122.076 92.19C122.385 91.721 126.423 87.99 126.423 87.99C126.423 87.99 127.626 87.199 127.774 88.291Z" fill="#C7C1D8" stroke="#190C40" stroke-linecap="round" stroke-linejoin="round"/>
<path d="M147.276 65.6318C147.276 65.6318 143.526 68.2848 142.323 70.0068C141.12 71.7288 140.374 72.6668 140.374 72.6668" stroke="#190C40" stroke-linecap="round" stroke-linejoin="round"/>
<path d="M143.828 77.98L147.276 80.318" stroke="#190C40" stroke-linecap="round" stroke-linejoin="round"/>
<path d="M144.574 75.0049C144.574 75.0049 143.526 74.2279 142.773 74.6969" stroke="#190C40" stroke-linecap="round" stroke-linejoin="round"/>
<path d="M189.544 303.688C188.805 304.369 187.999 305.118 187.125 305.935C182.421 310.345 175.365 310.345 175.365 310.345C175.365 310.345 173.013 299.32 170.191 298.585C167.368 297.85 163.605 298.585 163.605 298.585C163.605 298.585 158.901 305.2 156.784 307.405C154.668 309.61 149.258 313.775 146.2 315.98C143.143 318.185 137.028 320.88 136.792 324.31C136.557 327.74 137.357 329.294 143.008 331.016C148.243 332.605 161.253 331.415 167.133 330.68C173.013 329.945 184.538 323.085 186.42 320.635C188.301 318.185 189.504 317.94 189.504 311.08C189.504 308.476 189.504 305.9 189.544 303.688Z" fill="white" stroke="#190C40" stroke-linecap="round" stroke-linejoin="round"/>
<path d="M189.047 314.237C183.659 318.812 177.592 322.444 171.085 324.989C162.416 328.433 151.267 328.65 143.21 327.145C139.077 326.368 137.451 325.087 136.846 324.023C136.822 324.117 136.804 324.213 136.792 324.31C136.557 327.74 137.357 329.294 143.008 331.016C148.243 332.605 161.253 331.415 167.133 330.68C173.013 329.945 184.538 323.085 186.42 320.635C187.992 318.591 189.067 318.073 189.383 313.992C189.269 314.076 189.161 314.146 189.047 314.237Z" stroke="#190C40" stroke-linecap="round" stroke-linejoin="round"/>
<path d="M149.957 313.775C149.957 313.775 147.208 314.734 148.579 315.959C149.211 316.519 155.467 320.355 157.073 319.277C159.54 317.625 149.957 313.775 149.957 313.775Z" stroke="#190C40" stroke-linecap="round" stroke-linejoin="round"/>
<path d="M157.873 317.247C157.873 317.247 170.876 307.783 172.529 304.99" stroke="#190C40" stroke-linecap="round" stroke-linejoin="round"/>
<path d="M160.144 317.492C159.863 317.491 159.593 317.375 159.392 317.17C155.36 312.97 152 313.369 151.832 313.39C151.555 313.435 151.272 313.363 151.046 313.19C150.819 313.017 150.668 312.758 150.625 312.469C150.583 312.181 150.652 311.886 150.817 311.651C150.983 311.415 151.232 311.257 151.509 311.213C151.691 311.213 156.025 310.513 160.917 315.609C161.016 315.711 161.095 315.833 161.148 315.967C161.202 316.101 161.229 316.244 161.229 316.389C161.229 316.535 161.202 316.678 161.148 316.812C161.095 316.946 161.016 317.068 160.917 317.17C160.815 317.274 160.695 317.357 160.562 317.412C160.429 317.467 160.287 317.494 160.144 317.492Z" fill="white" stroke="#190C40" stroke-linecap="round" stroke-linejoin="round"/>
<path d="M163.652 315.126C163.505 315.127 163.36 315.095 163.226 315.034C163.092 314.972 162.971 314.882 162.873 314.769C158.948 310.289 154.325 310.814 154.284 310.814C154.147 310.831 154.007 310.821 153.874 310.782C153.74 310.743 153.615 310.677 153.506 310.588C153.397 310.499 153.305 310.389 153.237 310.263C153.169 310.137 153.125 309.998 153.108 309.855C153.092 309.712 153.102 309.566 153.139 309.427C153.177 309.288 153.24 309.158 153.325 309.044C153.411 308.93 153.517 308.835 153.638 308.764C153.758 308.693 153.891 308.647 154.029 308.63C154.264 308.63 159.781 307.972 164.432 313.278C164.572 313.435 164.665 313.632 164.7 313.843C164.734 314.055 164.708 314.273 164.626 314.469C164.543 314.666 164.406 314.833 164.233 314.949C164.06 315.066 163.858 315.128 163.652 315.126Z" fill="white" stroke="#190C40" stroke-linecap="round" stroke-linejoin="round"/>
<path d="M166.75 312.76C166.591 312.76 166.433 312.723 166.29 312.65C166.147 312.577 166.021 312.471 165.924 312.34C162.953 308.462 158.075 308.14 157.235 308.406C156.987 308.516 156.708 308.524 156.455 308.428C156.202 308.333 155.993 308.14 155.871 307.89C155.749 307.64 155.723 307.351 155.797 307.082C155.872 306.812 156.042 306.582 156.274 306.439C157.584 305.683 163.86 306.11 167.577 310.968C167.703 311.13 167.782 311.325 167.806 311.532C167.829 311.739 167.795 311.949 167.709 312.137C167.622 312.325 167.486 312.483 167.316 312.593C167.146 312.704 166.95 312.761 166.75 312.76Z" fill="white" stroke="#190C40" stroke-linecap="round" stroke-linejoin="round"/>
<path d="M169.23 310.177C169.082 310.178 168.936 310.146 168.8 310.085C168.665 310.023 168.544 309.933 168.444 309.82C166.19 307.231 163.056 305.662 159.708 305.445C159.441 305.423 159.193 305.297 159.012 305.093C158.831 304.888 158.73 304.621 158.73 304.342C158.73 304.064 158.831 303.796 159.012 303.592C159.193 303.388 159.441 303.262 159.708 303.24C163.646 303.457 167.343 305.289 169.989 308.336C170.127 308.493 170.219 308.689 170.252 308.9C170.285 309.11 170.259 309.326 170.176 309.521C170.094 309.717 169.958 309.883 169.786 309.999C169.615 310.115 169.414 310.177 169.21 310.177H169.23Z" fill="white" stroke="#190C40" stroke-linecap="round" stroke-linejoin="round"/>
<path d="M172.119 318.416C171.935 318.405 171.762 318.32 171.637 318.179C171.512 318.038 171.444 317.852 171.447 317.66L171.488 315.721C171.488 315.626 171.506 315.532 171.542 315.445C171.578 315.357 171.63 315.279 171.696 315.213C171.762 315.148 171.84 315.097 171.926 315.064C172.011 315.031 172.102 315.016 172.193 315.021C172.377 315.03 172.55 315.113 172.675 315.253C172.801 315.393 172.869 315.578 172.865 315.77L172.825 317.716C172.816 317.905 172.738 318.083 172.607 318.213C172.475 318.343 172.301 318.416 172.119 318.416Z" fill="white" stroke="#190C40" stroke-linecap="round" stroke-linejoin="round"/>
<path d="M172.16 316.834C171.879 316.827 171.613 316.704 171.419 316.493C171.225 316.282 171.119 315.999 171.125 315.707L171.286 308.189C171.278 308.037 171.301 307.885 171.352 307.742C171.403 307.599 171.482 307.469 171.584 307.359C171.685 307.25 171.808 307.164 171.943 307.106C172.078 307.048 172.224 307.02 172.37 307.023C172.516 307.027 172.66 307.061 172.793 307.126C172.926 307.19 173.044 307.282 173.141 307.396C173.238 307.51 173.311 307.643 173.356 307.788C173.401 307.933 173.417 308.086 173.403 308.238L173.242 315.756C173.235 316.048 173.117 316.325 172.914 316.527C172.711 316.729 172.44 316.84 172.16 316.834Z" fill="white" stroke="#190C40" stroke-linecap="round" stroke-linejoin="round"/>
<path d="M166.656 323.848C166.989 324.422 167.198 325.064 167.268 325.731" stroke="#190C40" stroke-linecap="round" stroke-linejoin="round"/>
<path d="M142.498 318.92C142.498 318.92 140.777 320.11 143.761 321.426C146.745 322.742 154.553 321.909 159.714 320.831C161.229 320.455 162.822 320.643 164.217 321.363" stroke="#190C40" stroke-linecap="round" stroke-linejoin="round"/>
<path d="M185.996 309.603C186.259 309.054 186.567 308.529 186.917 308.035" stroke="#190C40" stroke-linecap="round" stroke-linejoin="round"/>
<path d="M184.39 317.1C184.401 315.13 184.709 313.174 185.304 311.304" stroke="#190C40" stroke-linecap="round" stroke-linejoin="round"/>
<path d="M187.092 114.394C187.31 112.958 187.114 111.486 186.53 110.166C185.945 108.846 184.998 107.735 183.807 106.976C182.617 106.217 181.237 105.842 179.842 105.9C178.447 105.958 177.1 106.445 175.971 107.3C174.843 108.156 173.983 109.341 173.501 110.706C173.018 112.07 172.936 113.553 173.263 114.967C173.59 116.38 174.312 117.661 175.339 118.647C176.365 119.633 177.648 120.279 179.028 120.505C180.874 120.803 182.759 120.328 184.27 119.183C185.781 118.038 186.796 116.316 187.092 114.394Z" fill="#C7C1D8" stroke="#190C40" stroke-linecap="round" stroke-linejoin="round"/>
<path d="M215.712 121.982L184.404 119L185.929 108.962L216.572 116.172C216.98 116.266 217.339 116.52 217.573 116.88C217.808 117.241 217.902 117.681 217.836 118.111L217.466 120.561C217.397 120.983 217.178 121.363 216.854 121.626C216.529 121.889 216.122 122.016 215.712 121.982Z" fill="#190C40" stroke="#190C40" stroke-linecap="round" stroke-linejoin="round"/>
<path d="M187.575 109.333L185.929 108.948L184.404 118.986L186.09 119.147L187.575 109.333Z" fill="white" stroke="#190C40" stroke-linecap="round" stroke-linejoin="round"/>
<path d="M178.08 120.267C178.393 120.369 178.711 120.448 179.034 120.505H179.229L181.44 106.022C181.373 106.022 181.312 106.022 181.245 105.98C180.922 105.934 180.597 105.908 180.271 105.903L178.08 120.267Z" fill="white" stroke="#190C40" stroke-linecap="round" stroke-linejoin="round"/>
</svg>
