<svg width="150" height="150" viewBox="0 0 150 150" fill="none" xmlns="http://www.w3.org/2000/svg">
<path opacity="0.7" d="M20.379 50.1272C20.379 50.1272 12.015 71.7272 23.769 93.4772C35.523 115.227 59.733 126.717 79.11 136.542C98.487 146.367 118.608 141.582 128.169 125.49C137.73 109.398 124.617 97.9112 124.599 74.9642C124.581 52.0172 128.034 45.9422 115.599 26.5562C103.164 7.17017 72.681 2.87717 49.629 17.2562C26.577 31.6352 20.379 50.1272 20.379 50.1272Z" fill="white"/>
<path d="M25.74 28.7674C30.219 23.4004 36.273 19.2694 43.5 19.3594C55.8 19.5094 62.469 30.4114 69.54 38.8234C73.2 43.2004 77.352 47.4004 82.8 49.4434C90.963 52.5184 100.05 50.7214 108 47.8684C111.561 46.5904 115.779 44.7934 119.79 45.7114C131.985 48.5014 130.716 63.3844 128.7 72.8074C125.982 85.5304 121.56 99.0784 112.602 108.852C91.152 132.252 52.548 117.909 33.201 99.2344C31.779 97.8634 30.414 96.4294 29.133 94.9234C25.8065 91.0322 22.9916 86.7312 20.757 82.1254C14.511 69.1594 13.653 53.4004 19.059 39.9964C20.696 35.9324 22.9494 32.145 25.74 28.7674Z" fill="#BCBCFF"/>
<path opacity="0.7" d="M25.74 28.7674C30.219 23.4004 36.273 19.2694 43.5 19.3594C55.8 19.5094 62.469 30.4114 69.54 38.8234C73.2 43.2004 77.352 47.4004 82.8 49.4434C90.963 52.5184 100.05 50.7214 108 47.8684C111.561 46.5904 115.779 44.7934 119.79 45.7114C131.985 48.5014 130.716 63.3844 128.7 72.8074C125.982 85.5304 121.56 99.0784 112.602 108.852C91.152 132.252 52.548 117.909 33.201 99.2344C31.779 97.8634 30.414 96.4294 29.133 94.9234C25.8065 91.0322 22.9916 86.7312 20.757 82.1254C14.511 69.1594 13.653 53.4004 19.059 39.9964C20.696 35.9324 22.9494 32.145 25.74 28.7674Z" fill="white"/>
<path d="M144.429 131.205H8.57098" stroke="#263238" stroke-width="1.10975" stroke-linecap="round" stroke-linejoin="round"/>
<path d="M130.515 116.448C130.515 116.448 131.487 107.991 134.715 100.659C137.943 93.3268 135.036 91.7608 133.308 93.5938C131.58 95.4268 129.681 102.294 129.681 102.294C129.681 102.294 130.536 95.0938 130.191 91.2568C129.681 85.6378 128.805 81.2458 126.216 81.9418C123.216 82.7428 127.473 93.5848 126.351 104.961C126.351 104.961 122.403 98.6908 121.011 93.3328C119.619 87.9748 116.064 90.2998 117.3 95.0998C118.536 99.8998 123.333 102.573 125.19 107.775C125.19 107.775 119.013 102.06 117.042 104.31C115.929 105.579 118.743 106.494 119.961 107.076C125.874 109.908 127.389 116.991 127.389 116.991L130.515 116.448Z" fill="#BCBCFF" stroke="#263238" stroke-width="1.10975" stroke-linecap="round" stroke-linejoin="round"/>
<path opacity="0.2" d="M130.515 116.448C130.515 116.448 131.487 107.991 134.715 100.659C137.943 93.3268 135.036 91.7608 133.308 93.5938C131.58 95.4268 129.681 102.294 129.681 102.294C129.681 102.294 130.536 95.0938 130.191 91.2568C129.681 85.6378 128.805 81.2458 126.216 81.9418C123.216 82.7428 127.473 93.5848 126.351 104.961C126.351 104.961 122.403 98.6908 121.011 93.3328C119.619 87.9748 116.064 90.2998 117.3 95.0998C118.536 99.8998 123.333 102.573 125.19 107.775C125.19 107.775 119.013 102.06 117.042 104.31C115.929 105.579 118.743 106.494 119.961 107.076C125.874 109.908 127.389 116.991 127.389 116.991L130.515 116.448Z" fill="black" fill-opacity="0.7" stroke="#263238" stroke-width="1.10975" stroke-miterlimit="10"/>
<path d="M126.924 114.624C126.924 114.624 127.413 105.774 124.182 98.442C120.951 91.11 123.837 90.54 125.565 92.37C127.293 94.2 128.61 103.698 128.61 103.698C128.61 103.698 130.131 95.196 129.441 89.316C128.751 83.436 128.796 80.127 131.22 80.124C134.313 80.124 133.587 94.524 131.085 103.146C131.085 103.146 135.03 96.876 136.425 91.518C137.82 86.16 141.375 88.479 140.136 93.276C138.897 98.073 134.103 100.749 132.246 105.951C132.246 105.951 138.423 100.236 140.394 102.486C141.504 103.755 138.693 104.667 137.475 105.252C131.562 108.084 130.047 115.167 130.047 115.167L126.924 114.624Z" fill="#BCBCFF" stroke="#263238" stroke-width="1.10975" stroke-linecap="round" stroke-linejoin="round"/>
<path d="M125.817 98.0733C128.559 104.262 128.715 113.286 128.715 113.286C128.715 113.286 132.315 95.3553 131.415 87.8013" stroke="#263238" stroke-width="1.10975" stroke-linecap="round" stroke-linejoin="round"/>
<path d="M137.67 94.5181C137.67 94.5181 133.644 103.014 129.963 106.275" stroke="#263238" stroke-width="1.10975" stroke-linecap="round" stroke-linejoin="round"/>
<path d="M137.67 103.671C137.67 103.671 130.866 108.051 129.198 110.733" stroke="#263238" stroke-width="1.10975" stroke-linecap="round" stroke-linejoin="round"/>
<path d="M138.114 111.153H119.166L120.633 131.205H136.647L138.114 111.153Z" fill="#757575" stroke="#263238" stroke-width="1.10975" stroke-linecap="round" stroke-linejoin="round"/>
<path d="M51.615 51.5279C51.615 51.5279 46.611 49.7969 43.815 46.2329C43.815 46.2329 42.72 46.3199 42.183 46.3229" stroke="#263238" stroke-width="1.10975" stroke-linecap="round" stroke-linejoin="round"/>
<path d="M53.763 33.1348C54.3545 34.0295 54.7266 35.0512 54.849 36.1168C55.278 39.9898 52.245 43.6528 47.649 45.3448C47.649 45.3448 47.919 48.8818 51.606 51.5278" stroke="#263238" stroke-width="1.10975" stroke-linecap="round" stroke-linejoin="round"/>
<path d="M52.002 31.1997C52.2971 31.4377 52.5766 31.6942 52.839 31.9677" stroke="#263238" stroke-width="1.10975" stroke-linecap="round" stroke-linejoin="round"/>
<path d="M35.007 31.1998C37.1446 29.7561 39.6097 28.8704 42.1773 28.6236C44.7449 28.3768 47.3335 28.7767 49.707 29.7868" stroke="#263238" stroke-width="1.10975" stroke-linecap="round" stroke-linejoin="round"/>
<path d="M39.03 46.0136C34.689 45.1136 31.422 42.3566 31.026 38.7626C30.747 36.2546 31.926 33.8306 34.026 31.9766" stroke="#263238" stroke-width="1.10975" stroke-linecap="round" stroke-linejoin="round"/>
<path d="M39.432 34.4426C39.762 33.2906 41.442 33.0986 42.183 31.9766V40.0076C42.183 41.5076 45.03 41.9186 46.017 40.7996C47.004 39.6806 45.162 37.7696 42.717 39.2186" stroke="#263238" stroke-width="1.10975" stroke-linecap="round" stroke-linejoin="round"/>
<path d="M94.641 96.3872H59.298C57.2481 96.3872 55.2822 97.2013 53.8324 98.6505C52.3827 100.1 51.5678 102.065 51.567 104.115C51.5669 106.041 52.2857 107.897 53.5825 109.32C54.8793 110.744 56.6608 111.632 58.578 111.81V131.205H94.5V111.846H94.65C95.6651 111.846 96.6703 111.646 97.6081 111.258C98.5459 110.869 99.3979 110.3 100.116 109.582C100.833 108.864 101.402 108.011 101.791 107.074C102.179 106.136 102.378 105.13 102.378 104.115C102.378 103.1 102.178 102.094 101.789 101.156C101.4 100.218 100.83 99.3652 100.111 98.6475C99.3928 97.9298 98.5398 97.3607 97.6012 96.9729C96.6625 96.585 95.6566 96.386 94.641 96.3872Z" fill="#BCBCFF"/>
<mask id="mask0_218_508" style="mask-type:luminance" maskUnits="userSpaceOnUse" x="51" y="96" width="52" height="36">
<path d="M94.641 96.3872H59.298C57.2481 96.3872 55.2822 97.2013 53.8324 98.6505C52.3827 100.1 51.5678 102.065 51.567 104.115C51.5669 106.041 52.2857 107.897 53.5825 109.32C54.8793 110.744 56.6608 111.632 58.578 111.81V131.205H94.5V111.846H94.65C95.6651 111.846 96.6703 111.646 97.6081 111.258C98.5459 110.869 99.3979 110.3 100.116 109.582C100.833 108.864 101.402 108.011 101.791 107.074C102.179 106.136 102.378 105.13 102.378 104.115C102.378 103.1 102.178 102.094 101.789 101.156C101.4 100.218 100.83 99.3652 100.111 98.6475C99.3928 97.9298 98.5398 97.3607 97.6012 96.9729C96.6625 96.585 95.6566 96.386 94.641 96.3872Z" fill="white"/>
</mask>
<g mask="url(#mask0_218_508)">
<path opacity="0.3" d="M94.641 96.3872H59.298C57.2481 96.3872 55.2822 97.2013 53.8324 98.6505C52.3827 100.1 51.5678 102.065 51.567 104.115C51.5669 106.041 52.2857 107.897 53.5825 109.32C54.8793 110.744 56.6608 111.632 58.578 111.81V131.205H94.5V111.846H94.65C95.6651 111.846 96.6703 111.646 97.6081 111.258C98.5459 110.869 99.3979 110.3 100.116 109.582C100.833 108.864 101.402 108.011 101.791 107.074C102.179 106.136 102.378 105.13 102.378 104.115C102.378 103.1 102.178 102.094 101.789 101.156C101.4 100.218 100.83 99.3652 100.111 98.6475C99.3928 97.9298 98.5398 97.3607 97.6012 96.9729C96.6625 96.585 95.6566 96.386 94.641 96.3872Z" fill="black" fill-opacity="0.7"/>
<path opacity="0.3" d="M102.369 104.115C102.369 106.165 101.555 108.13 100.106 109.58C98.6563 111.029 96.6906 111.843 94.641 111.843H94.5V122.244C87 118.755 78.81 111.801 78.81 111.801L74.844 110.424C62.082 111.435 57.978 102.273 54.051 98.4541C55.4783 97.1252 57.3568 96.3875 59.307 96.3901H94.641C96.6901 96.3901 98.6553 97.2039 100.104 98.6526C101.554 100.101 102.368 102.066 102.369 104.115Z" fill="black" fill-opacity="0.7"/>
<path d="M89.439 111.81H91.581Z" fill="white"/>
<path d="M89.439 111.81H91.581" stroke="#263238" stroke-width="1.10975" stroke-linecap="round" stroke-linejoin="round"/>
<path d="M72.723 111.798H86.619C81.957 111.798 77.325 111.798 72.723 111.798Z" fill="white" stroke="#263238" stroke-width="1.10975" stroke-linecap="round" stroke-linejoin="round"/>
<path d="M69.3 111.798H58.578" stroke="#263238" stroke-width="1.10975" stroke-linecap="round" stroke-linejoin="round"/>
</g>
<path d="M94.641 96.3872H59.298C57.2481 96.3872 55.2822 97.2013 53.8324 98.6505C52.3827 100.1 51.5678 102.065 51.567 104.115C51.5669 106.041 52.2857 107.897 53.5825 109.32C54.8793 110.744 56.6608 111.632 58.578 111.81V131.205H94.5V111.846H94.65C95.6651 111.846 96.6703 111.646 97.6081 111.258C98.5459 110.869 99.3979 110.3 100.116 109.582C100.833 108.864 101.402 108.011 101.791 107.074C102.179 106.136 102.378 105.13 102.378 104.115C102.378 103.1 102.178 102.094 101.789 101.156C101.4 100.218 100.83 99.3652 100.111 98.6475C99.3928 97.9298 98.5398 97.3607 97.6012 96.9729C96.6625 96.585 95.6566 96.386 94.641 96.3872Z" stroke="#263238" stroke-width="1.10975" stroke-linecap="round" stroke-linejoin="round"/>
<path d="M80.07 55.7011C88.791 58.2631 93.774 59.0641 93.774 59.0641C94.074 52.8601 94.875 49.4401 94.692 42.0691C94.692 42.0691 93.015 40.4281 93.267 39.4711C93.369 39.0721 94.224 36.9091 94.224 36.9091L97.731 33.7231C97.731 33.7231 99.714 35.3371 99.615 37.1941C99.615 37.1941 99.966 39.1651 99.615 40.1581C99.264 41.1511 98.517 43.1581 98.517 43.1581C98.517 43.1581 98.73 50.5681 99.747 54.7711C100.764 58.9741 100.011 65.8291 98.319 65.9821C96.627 66.1351 78.993 64.5661 78.993 64.5661C78.993 64.5661 78.126 55.1281 80.07 55.7011Z" fill="white"/>
<mask id="mask1_218_508" style="mask-type:luminance" maskUnits="userSpaceOnUse" x="78" y="33" width="23" height="33">
<path d="M80.07 55.7011C88.791 58.2631 93.774 59.0641 93.774 59.0641C94.074 52.8601 94.875 49.4401 94.692 42.0691C94.692 42.0691 93.015 40.4281 93.267 39.4711C93.369 39.0721 94.224 36.9091 94.224 36.9091L97.731 33.7231C97.731 33.7231 99.714 35.3371 99.615 37.1941C99.615 37.1941 99.966 39.1651 99.615 40.1581C99.264 41.1511 98.517 43.1581 98.517 43.1581C98.517 43.1581 98.73 50.5681 99.747 54.7711C100.764 58.9741 100.011 65.8291 98.319 65.9821C96.627 66.1351 78.993 64.5661 78.993 64.5661C78.993 64.5661 78.126 55.1281 80.07 55.7011Z" fill="white"/>
</mask>
<g mask="url(#mask1_218_508)">
<g opacity="0.5">
<path d="M98.808 55.7007C98.9358 55.9231 98.9764 56.1851 98.922 56.4357C98.8495 56.6899 98.6969 56.914 98.487 57.0747C98.2713 57.2501 98 57.3426 97.722 57.3357C97.5744 57.3328 97.429 57.2989 97.2951 57.2364C97.1613 57.1739 97.0421 57.0841 96.945 56.9727L96.867 56.8947L96.813 56.8077L96.699 56.6247C96.6403 56.4996 96.5883 56.3714 96.543 56.2407C96.468 55.9776 96.4227 55.7069 96.408 55.4337C96.4131 55.1517 96.4586 54.8719 96.543 54.6027C96.629 54.3438 96.7395 54.0936 96.873 53.8557C97.4108 52.9616 98.093 52.1628 98.892 51.4917C98.973 51.4197 99.057 51.3477 99.138 51.2817C99.201 51.7617 99.27 52.2327 99.345 52.6917C98.6753 53.1351 98.0774 53.6784 97.572 54.3027C97.2987 54.6402 97.1132 55.0401 97.032 55.4667C96.9738 55.8948 97.0547 56.3303 97.263 56.7087C97.3859 56.8789 97.5706 56.9943 97.7774 57.0302C97.9843 57.0661 98.197 57.0196 98.37 56.9007C98.5705 56.7876 98.7293 56.613 98.823 56.4027C98.9051 56.1749 98.8997 55.9248 98.808 55.7007Z" fill="#BCBCFF"/>
<path d="M100.2 59.0761C100.059 59.3708 99.8578 59.6326 99.6092 59.8445C99.3606 60.0564 99.0703 60.2136 98.757 60.3061C97.143 60.6991 95.109 59.8561 93.786 58.6921C93.837 57.7471 93.897 56.8651 93.966 56.0221C94.827 57.3841 96.066 58.8121 97.392 58.8121C99.894 58.8121 99.873 55.5781 99.222 54.8911C99.1484 54.7986 99.0549 54.7239 98.9484 54.6726C98.8419 54.6212 98.7252 54.5946 98.607 54.5946C98.4888 54.5946 98.3721 54.6212 98.2656 54.6726C98.1592 54.7239 98.0656 54.7986 97.992 54.8911C97.992 54.8911 98.367 53.3251 99.573 53.9911C99.627 54.2581 99.681 54.5101 99.741 54.7561C100.058 56.1739 100.212 57.6233 100.2 59.0761Z" fill="#BCBCFF"/>
<path d="M95.511 52.7098C95.511 52.7098 96.54 52.0498 96.024 50.5798C95.775 49.8658 95.124 49.8418 94.494 50.0128C94.539 49.4128 94.578 48.8128 94.611 48.1978C94.9775 48.1992 95.3397 48.2771 95.6744 48.4264C96.0091 48.5757 96.309 48.7931 96.555 49.0648C97.587 50.2798 96.726 53.0218 95.511 52.7098Z" fill="#BCBCFF"/>
<path d="M99 49.9529C98.6541 50.2338 98.3245 50.5343 98.013 50.8529C98.059 50.3622 97.9945 49.8674 97.8242 49.4048C97.654 48.9422 97.3822 48.5237 97.029 48.1799C96.3671 47.6049 95.5477 47.2422 94.677 47.1389C94.695 46.6439 94.71 46.1399 94.719 45.6089C95.1002 45.5391 95.49 45.53 95.874 45.5819C95.304 44.1359 96.315 43.2119 97.029 43.3019C97.743 43.3919 97.683 44.3099 97.683 44.3099C97.425 43.5659 96.27 43.7849 96.732 45.0149C97.032 45.8159 98.016 45.8519 98.658 45.7799C98.715 46.9829 98.826 48.4589 99 49.9529Z" fill="#BCBCFF"/>
<path d="M95.928 53.604C95.889 53.733 95.058 56.166 94.059 54.978C94.089 54.615 94.122 54.261 94.152 53.907C94.4359 54.0752 94.7704 54.1371 95.0957 54.0816C95.4209 54.0261 95.7159 53.8568 95.928 53.604Z" fill="#BCBCFF"/>
<path d="M94.29 52.4159C94.335 51.9299 94.377 51.4439 94.419 50.9519C94.752 50.8229 95.07 50.8229 95.175 51.2159C95.337 51.8159 94.83 52.4999 94.29 52.4159Z" fill="#BCBCFF"/>
</g>
</g>
<path d="M80.07 55.7011C88.791 58.2631 93.774 59.0641 93.774 59.0641C94.074 52.8601 94.875 49.4401 94.692 42.0691C94.692 42.0691 93.015 40.4281 93.267 39.4711C93.369 39.0721 94.224 36.9091 94.224 36.9091L97.731 33.7231C97.731 33.7231 99.714 35.3371 99.615 37.1941C99.615 37.1941 99.966 39.1651 99.615 40.1581C99.264 41.1511 98.517 43.1581 98.517 43.1581C98.517 43.1581 98.73 50.5681 99.747 54.7711C100.764 58.9741 100.011 65.8291 98.319 65.9821C96.627 66.1351 78.993 64.5661 78.993 64.5661C78.993 64.5661 78.126 55.1281 80.07 55.7011Z" stroke="#263238" stroke-width="1.10975" stroke-linecap="round" stroke-linejoin="round"/>
<path d="M71.382 53.6612C71.382 53.6612 76.542 53.2712 79.635 54.5192C82.728 55.7672 87.888 56.9192 87.888 56.9192C87.888 56.9192 87.459 62.9432 85.767 65.1242L77.16 66.9962C77.16 66.9962 74.787 55.2692 71.382 53.6612Z" fill="#757575"/>
<mask id="mask2_218_508" style="mask-type:luminance" maskUnits="userSpaceOnUse" x="71" y="53" width="17" height="14">
<path d="M71.382 53.6612C71.382 53.6612 76.542 53.2712 79.635 54.5192C82.728 55.7672 87.888 56.9192 87.888 56.9192C87.888 56.9192 87.459 62.9432 85.767 65.1242L77.16 66.9962C77.16 66.9962 74.787 55.2692 71.382 53.6612Z" fill="white"/>
</mask>
<g mask="url(#mask2_218_508)">
<path opacity="0.2" d="M85.362 65.2231L77.16 67.0231C77.16 67.0231 78.99 66.0151 78.915 65.6821L79.569 62.1841C79.569 62.1841 83.061 62.4331 84.051 64.2601V63.2221C84.051 63.2221 85.35 63.3571 85.362 65.2231Z" fill="black" fill-opacity="0.7"/>
</g>
<path d="M71.382 53.6612C71.382 53.6612 76.542 53.2712 79.635 54.5192C82.728 55.7672 87.888 56.9192 87.888 56.9192C87.888 56.9192 87.459 62.9432 85.767 65.1242L77.16 66.9962C77.16 66.9962 74.787 55.2692 71.382 53.6612Z" stroke="#263238" stroke-width="1.10975" stroke-linecap="round" stroke-linejoin="round"/>
<path d="M83.223 64.4732C83.805 59.9132 87.525 58.4522 93.018 59.4272C93.018 59.4272 93.993 64.8272 96.75 64.4102C99.507 63.9932 100.608 63.5102 101.781 65.1902C102.954 66.8702 99.876 69.8012 100.518 72.9332C101.16 76.0652 103.896 81.7772 103.368 85.9262C102.84 90.0752 100.368 93.6422 89.589 92.2682C78.81 90.8942 77.511 85.9022 77.922 82.6832C78.333 79.4642 83.106 72.4592 83.445 69.7832C83.784 67.1072 82.887 67.1162 83.223 64.4732Z" fill="#BCBCFF" stroke="#263238" stroke-width="1.10975" stroke-linecap="round" stroke-linejoin="round"/>
<path d="M95.2792 71.3883C96.2667 69.6779 95.6806 67.4909 93.9703 66.5034C92.2599 65.5159 90.0728 66.1019 89.0854 67.8123C88.0979 69.5227 88.6839 71.7097 90.3943 72.6972C92.1046 73.6847 94.2917 73.0987 95.2792 71.3883Z" fill="#263238"/>
<path d="M94.134 67.614L90.789 67.188L95.361 35.46L97.668 35.757L94.134 67.614Z" fill="#757575" stroke="#263238" stroke-width="1.10975" stroke-linecap="round" stroke-linejoin="round"/>
<path d="M98.943 28.5001C98.548 28.1265 98.0445 27.8882 97.5052 27.8197C96.9659 27.7512 96.4188 27.8561 95.943 28.1191L95.271 28.0321L94.863 35.4001L98.163 35.8231L99.612 28.5811L98.943 28.5001Z" fill="#BCBCFF" stroke="#263238" stroke-width="1.10975" stroke-linecap="round" stroke-linejoin="round"/>
<path d="M94.842 66.3302L95.043 64.7432C95.7606 65.1 96.5772 65.2056 97.362 65.0432C98.784 64.7852 100.317 64.7222 100.98 65.5022C101.643 66.2822 100.239 68.5802 99.897 70.1762C99.555 71.7722 99.714 73.8002 100.5 75.9002C100.5 75.9002 98.892 77.1002 98.523 73.9982C98.088 70.3382 96.246 70.0982 96.246 70.0982C96.246 70.0982 96.762 68.1152 94.842 66.3302Z" fill="#757575" stroke="#263238" stroke-width="1.10975" stroke-linecap="round" stroke-linejoin="round"/>
<path d="M96.213 78.4859L86.049 77.1899L85.767 79.4099L88.635 79.7759C89.016 80.0759 89.835 80.3399 90.798 80.4629C91.761 80.5859 92.622 80.5289 93.06 80.3399L95.931 80.7059L96.213 78.4859Z" fill="#757575" stroke="#263238" stroke-width="1.10975" stroke-linecap="round" stroke-linejoin="round"/>
<path d="M99.8513 30.5956L99.3623 30.5015L99.1541 31.5826L99.6431 31.6768L99.8513 30.5956Z" fill="#757575" stroke="#263238" stroke-width="1.10975" stroke-linecap="round" stroke-linejoin="round"/>
<path d="M99.5038 32.3881L99.0148 32.2939L98.8066 33.3751L99.2957 33.4693L99.5038 32.3881Z" fill="#757575" stroke="#263238" stroke-width="1.10975" stroke-linecap="round" stroke-linejoin="round"/>
<path d="M99.1589 34.1806L98.6699 34.0864L98.4617 35.1676L98.9507 35.2617L99.1589 34.1806Z" fill="#757575" stroke="#263238" stroke-width="1.10975" stroke-linecap="round" stroke-linejoin="round"/>
<path d="M94.5257 31.0232L95.0227 31.0547L95.0924 29.9559L94.5954 29.9244L94.5257 31.0232Z" fill="#757575" stroke="#263238" stroke-width="1.10975" stroke-linecap="round" stroke-linejoin="round"/>
<path d="M94.4099 32.843L94.9069 32.8745L94.9766 31.7757L94.4796 31.7442L94.4099 32.843Z" fill="#757575" stroke="#263238" stroke-width="1.10975" stroke-linecap="round" stroke-linejoin="round"/>
<path d="M93.9985 34.9066L94.4965 34.9365L94.5625 33.8355L94.0645 33.8056L93.9985 34.9066Z" fill="#757575" stroke="#263238" stroke-width="1.11175" stroke-linecap="round" stroke-linejoin="round"/>
<g opacity="0.5">
<path d="M97.275 29.6548C97.2294 29.6544 97.1843 29.663 97.1421 29.6802C97.0999 29.6974 97.0615 29.7227 97.0291 29.7548C96.9968 29.7869 96.9711 29.825 96.9535 29.8671C96.936 29.9091 96.927 29.9542 96.927 29.9998L96.519 34.4638C96.5126 34.5034 96.5214 34.544 96.5437 34.5774C96.5659 34.6107 96.6 34.6345 96.639 34.6438C96.714 34.6438 96.783 34.5898 96.798 34.4968L97.524 30.0748C97.5353 30.0309 97.5378 29.9852 97.5313 29.9403C97.5249 29.8954 97.5097 29.8522 97.4866 29.8132C97.4635 29.7742 97.4329 29.7401 97.3966 29.7129C97.3603 29.6857 97.3189 29.666 97.275 29.6548Z" fill="black"/>
<path d="M98.4 29.8108C98.3554 29.8041 98.3099 29.8066 98.2664 29.8183C98.2228 29.83 98.1821 29.8506 98.1469 29.8788C98.1117 29.907 98.0827 29.9421 98.0617 29.982C98.0407 30.022 98.0283 30.0658 98.025 30.1108L97.2 34.5148C97.1904 34.555 97.1954 34.5972 97.2141 34.634C97.2328 34.6709 97.2639 34.6998 97.302 34.7158C97.3215 34.7188 97.3414 34.7179 97.3606 34.7132C97.3798 34.7084 97.3978 34.7 97.4137 34.6883C97.4296 34.6766 97.443 34.6618 97.4532 34.6449C97.4634 34.6281 97.4701 34.6093 97.473 34.5898L98.589 30.2668C98.6201 30.1809 98.6179 30.0865 98.583 30.0021C98.548 29.9178 98.4828 29.8495 98.4 29.8108Z" fill="black"/>
<path d="M96.159 29.5259C96.0695 29.542 95.9892 29.5908 95.9337 29.6629C95.8782 29.735 95.8516 29.8252 95.859 29.9159V34.3799C95.8548 34.4192 95.8663 34.4587 95.891 34.4896C95.9157 34.5205 95.9517 34.5404 95.991 34.5449C96.0321 34.5404 96.07 34.5206 96.0972 34.4895C96.1244 34.4584 96.139 34.4182 96.138 34.3769L96.465 29.9099C96.4727 29.8642 96.4706 29.8174 96.459 29.7726C96.4474 29.7278 96.4265 29.6859 96.3976 29.6496C96.3688 29.6134 96.3326 29.5837 96.2915 29.5624C96.2504 29.541 96.2052 29.5286 96.159 29.5259Z" fill="black"/>
</g>
<path d="M94.947 33.8999L95.547 35.4839L89.52 78.9659" stroke="white" stroke-width="0.832313" stroke-linecap="round" stroke-linejoin="round"/>
<path d="M90.096 79.0413L95.934 35.5353L95.034 32.3643" stroke="white" stroke-width="0.832313" stroke-linecap="round" stroke-linejoin="round"/>
<path d="M90.675 79.1129L96.318 35.5829L95.13 30.6689" stroke="white" stroke-width="0.832313" stroke-linecap="round" stroke-linejoin="round"/>
<path d="M98.463 34.3472L97.482 35.7302L92.409 79.3352" stroke="white" stroke-width="0.832313" stroke-linecap="round" stroke-linejoin="round"/>
<path d="M91.83 79.2603L97.095 35.6823L98.76 32.8413" stroke="white" stroke-width="0.832313" stroke-linecap="round" stroke-linejoin="round"/>
<path d="M91.254 79.1879L96.708 35.6339L99.096 31.1699" stroke="white" stroke-width="0.832313" stroke-linecap="round" stroke-linejoin="round"/>
<path d="M116.277 96.7742C116.277 96.7742 113.421 101.133 110.523 101.307C107.625 101.481 103.434 101.307 103.434 101.307C103.434 101.307 110.1 95.4872 116.277 96.7742Z" fill="#757575" stroke="#263238" stroke-width="1.10975" stroke-linecap="round" stroke-linejoin="round"/>
<path d="M114.213 95.2803C114.213 95.2803 114.57 98.3313 114.213 99.9003C113.856 101.469 105.033 117.141 103.434 123.408L98.763 122.061C98.763 122.061 101.715 114.123 101.715 109.344C101.715 104.565 105.645 97.7703 105.645 97.7703L114.213 95.2803Z" fill="white" stroke="#263238" stroke-width="1.10975" stroke-linecap="round" stroke-linejoin="round"/>
<path d="M94.23 130.152C94.677 132.153 102.312 131.352 105.285 131.58C107.201 131.721 109.126 131.721 111.042 131.58C111.042 131.58 112.191 129.321 109.332 128.607C106.473 127.893 103.5 126.522 103.797 125.907C104.094 125.292 104.697 122.736 104.697 122.736C104.697 122.736 104.502 122.037 102.219 123.066C102.219 123.066 99.855 121.236 98.469 121.236C97.083 121.236 97.08 124.395 97.08 124.395L94.23 130.152Z" fill="#263238"/>
<path d="M113.499 123.408C113.499 123.408 116.118 123.144 117.666 124.386C117.666 124.386 118.14 123.858 119.211 124.386C120.282 124.914 120.996 126.312 122.544 126.849C124.092 127.386 127.662 128.25 128.844 128.724C130.026 129.198 130.866 129.726 130.152 131.58C129.438 133.434 125.034 132.819 120.273 132.306C115.512 131.793 115.275 129.669 115.275 129.669C115.275 129.669 107.073 126.9 113.499 123.408Z" fill="#263238"/>
<path d="M97.668 104.169L116.343 124.5C116.343 124.5 116.277 126.9 112.626 126.864C112.626 126.864 101.91 120.888 99.096 119.181C96.282 117.474 91.254 109.2 91.254 109.2L97.668 104.169Z" fill="white"/>
<mask id="mask3_218_508" style="mask-type:luminance" maskUnits="userSpaceOnUse" x="91" y="104" width="26" height="23">
<path d="M97.668 104.169L116.343 124.5C116.343 124.5 116.277 126.9 112.626 126.864C112.626 126.864 101.91 120.888 99.096 119.181C96.282 117.474 91.254 109.2 91.254 109.2L97.668 104.169Z" fill="white"/>
</mask>
<g mask="url(#mask3_218_508)">
<path opacity="0.5" d="M101.157 113.838C97.794 114.042 98.757 111.438 98.757 111.438C99.192 112.938 100.152 113.283 101.157 112.185C102.621 110.571 98.319 105.777 96.561 108.762L95.418 105.927C96.5696 105.568 97.7843 105.456 98.982 105.6L103.467 110.478C103.68 112.236 102.93 113.727 101.157 113.838Z" fill="#BCBCFF"/>
<path opacity="0.5" d="M106.5 113.76C106.354 114.204 106.039 114.572 105.624 114.786C104.337 115.368 102.9 115.356 102.507 116.148C102.114 116.94 102.942 117.201 103.449 117.201C103.956 117.201 103.812 116.235 103.812 116.235C103.812 116.235 104.436 117.156 104.085 117.462C103.734 117.768 102.24 118.341 101.538 117.162C100.836 115.983 101.364 114.969 103.812 113.862C104.157 113.731 104.456 113.503 104.673 113.205C104.89 112.908 105.016 112.553 105.036 112.185L106.5 113.76Z" fill="#BCBCFF"/>
<path opacity="0.5" d="M100.557 117.684C100.557 117.684 97.923 118.167 97.002 116.412C96.102 114.717 96.702 113.973 96.735 113.922C96.4264 114.042 96.1479 114.228 95.9193 114.468C95.6907 114.707 95.5175 114.994 95.412 115.308C94.587 114.231 93.792 113.094 93.123 112.101L96.561 110.1C96.561 110.1 96.519 112.605 97.836 114.138C99.153 115.671 100.557 115.017 100.557 115.017C100.557 115.017 99.726 116.718 100.557 117.684Z" fill="#BCBCFF"/>
<path opacity="0.5" d="M104.016 119.88C104.016 119.88 104.49 119.427 104.016 119.148C103.644 118.929 103.011 120.168 101.532 120.591C100.509 119.991 99.6481 119.502 99.0961 119.166C99.8027 119.301 100.528 119.301 101.235 119.166C102.885 118.77 103.806 118.023 104.379 118.638C104.952 119.253 104.313 119.925 104.016 119.88Z" fill="#BCBCFF"/>
</g>
<path d="M97.668 104.169L116.343 124.5C116.343 124.5 116.277 126.9 112.626 126.864C112.626 126.864 101.91 120.888 99.096 119.181C96.282 117.474 91.254 109.2 91.254 109.2L97.668 104.169Z" stroke="#263238" stroke-width="1.10975" stroke-linecap="round" stroke-linejoin="round"/>
<path d="M79.635 85.6533C79.635 85.6533 109.935 88.9803 112.467 90.5223C114.999 92.0643 116.277 96.7743 116.277 96.7743C110.403 97.7703 103.434 101.295 103.434 101.295V100.071C103.434 100.071 74.463 101.1 66.9 101.745" fill="#BFBFBF"/>
<mask id="mask4_218_508" style="mask-type:luminance" maskUnits="userSpaceOnUse" x="66" y="85" width="51" height="17">
<path d="M79.635 85.6533C79.635 85.6533 109.935 88.9803 112.467 90.5223C114.999 92.0643 116.277 96.7743 116.277 96.7743C110.403 97.7703 103.434 101.295 103.434 101.295V100.071C103.434 100.071 74.463 101.1 66.9 101.745" fill="white"/>
</mask>
<g mask="url(#mask4_218_508)">
<path opacity="0.2" d="M98.847 100.243C93.342 100.453 83.922 100.822 76.428 101.185L79.713 96.7445L80.529 94.6835C80.529 94.6835 81.36 94.0985 82.113 91.6025C82.113 91.6025 83.664 92.4605 83.655 94.1945C83.655 94.1945 88.605 94.2725 90.99 92.9375C90.99 92.9375 92.001 94.6895 91.251 95.7185C91.251 95.7185 96.423 96.9185 98.847 100.243Z" fill="black" fill-opacity="0.7"/>
</g>
<path d="M79.635 85.6533C79.635 85.6533 109.935 88.9803 112.467 90.5223C114.999 92.0643 116.277 96.7743 116.277 96.7743C110.403 97.7703 103.434 101.295 103.434 101.295V100.071C103.434 100.071 74.463 101.1 66.9 101.745" stroke="#263238" stroke-width="1.10975" stroke-miterlimit="10"/>
<path d="M76.017 96.6002C75.753 95.5682 80.517 94.6952 80.517 94.6952C80.517 94.6952 92.778 99.5372 95.163 100.92C97.548 102.303 101.142 105.885 101.142 105.885C99.669 110.805 91.242 113.841 91.242 113.841L89.508 112.455C89.508 112.455 66.657 109.356 64.488 106.188C62.937 103.923 61.752 96.7862 61.752 96.7862L69.945 88.4912" fill="#BFBFBF"/>
<mask id="mask5_218_508" style="mask-type:luminance" maskUnits="userSpaceOnUse" x="61" y="88" width="41" height="26">
<path d="M76.017 96.6002C75.753 95.5682 80.517 94.6952 80.517 94.6952C80.517 94.6952 92.778 99.5372 95.163 100.92C97.548 102.303 101.142 105.885 101.142 105.885C99.669 110.805 91.242 113.841 91.242 113.841L89.508 112.455C89.508 112.455 66.657 109.356 64.488 106.188C62.937 103.923 61.752 96.7862 61.752 96.7862L69.945 88.4912" fill="white"/>
</mask>
<g mask="url(#mask5_218_508)">
<path opacity="0.2" d="M76.215 91.1074C75.5653 93.0732 74.627 94.9315 73.431 96.6214C72.2601 98.3205 70.8167 99.8146 69.159 101.043C67.4219 102.329 65.593 103.486 63.687 104.505C62.787 102.159 62.115 98.7064 61.863 97.3504L63.24 96.7504L76.215 91.1074Z" fill="black" fill-opacity="0.7"/>
</g>
<path d="M76.017 96.6002C75.753 95.5682 80.517 94.6952 80.517 94.6952C80.517 94.6952 92.778 99.5372 95.163 100.92C97.548 102.303 101.142 105.885 101.142 105.885C99.669 110.805 91.242 113.841 91.242 113.841L89.508 112.455C89.508 112.455 66.657 109.356 64.488 106.188C62.937 103.923 61.752 96.7862 61.752 96.7862L69.945 88.4912" stroke="#263238" stroke-width="1.10975" stroke-miterlimit="10"/>
<path d="M91.056 111.057C91.3434 111.29 91.6031 111.554 91.83 111.846" stroke="#263238" stroke-width="1.10975" stroke-linecap="round" stroke-linejoin="round"/>
<path d="M65.832 98.979C66.18 101.472 66.846 103.479 68.832 104.802C70.827 105.801 73.158 106.134 75.156 106.8C80.151 108.132 85.143 109.464 89.985 110.424" stroke="#263238" stroke-width="1.10975" stroke-linecap="round" stroke-linejoin="round"/>
<path d="M82.113 90.3003C82.113 90.3003 82.161 93.5433 81.459 95.0553" stroke="#263238" stroke-width="1.10975" stroke-linecap="round" stroke-linejoin="round"/>
<path d="M109.014 96.3871C109.492 96.1879 109.998 96.0635 110.514 96.0181" stroke="#263238" stroke-width="1.10975" stroke-linecap="round" stroke-linejoin="round"/>
<path d="M103.434 100.071C104.859 98.7771 106.441 97.6683 108.144 96.771" stroke="#263238" stroke-width="1.10975" stroke-linecap="round" stroke-linejoin="round"/>
<path d="M94.143 91.0351C94.4181 90.8127 94.6543 90.546 94.842 90.2461" stroke="#263238" stroke-width="1.10975" stroke-linecap="round" stroke-linejoin="round"/>
<path d="M83.118 95.7181C86.592 94.7221 90.318 93.5881 93.375 91.6021" stroke="#263238" stroke-width="1.10975" stroke-linecap="round" stroke-linejoin="round"/>
<path d="M76.8 89.1602C76.8 89.1602 77.25 91.9442 78.825 92.6762C80.4 93.4082 80.523 94.6831 80.523 94.6831" stroke="#263238" stroke-width="1.10975" stroke-linecap="round" stroke-linejoin="round"/>
<path d="M49.749 75.855L46.323 83.922C46.323 83.922 45.228 89.268 48.255 90.057C51.282 90.846 52.47 89.586 53.568 85.653C54.168 83.511 57.768 77.19 57.768 77.19L49.749 75.855Z" fill="white" stroke="#263238" stroke-width="1.10975" stroke-linecap="round" stroke-linejoin="round"/>
<path d="M52.017 85.6169C53.049 87.8909 51.096 91.0709 48.036 91.0709C43.959 91.0709 44.649 91.6169 43.713 88.1039C43.209 86.2169 45.621 82.1789 49.923 83.7989" fill="white"/>
<path d="M52.017 85.6169C53.049 87.8909 51.096 91.0709 48.036 91.0709C43.959 91.0709 44.649 91.6169 43.713 88.1039C43.209 86.2169 45.621 82.1789 49.923 83.7989" stroke="#263238" stroke-width="1.10975" stroke-linecap="round" stroke-linejoin="round"/>
<path d="M78.915 65.6673C77.058 67.6143 77.883 79.4913 77.16 81.7593C77.16 81.7593 78.501 82.6893 78.501 83.5143C78.501 84.3393 82.101 84.6483 82.101 84.6483C82.101 84.6483 74.7 96.0993 69.939 97.9563C66.9732 99.0612 63.7492 99.276 60.663 98.5743L56.163 81.8103L55.725 82.5003C55.725 82.5003 52.299 77.1243 48.585 77.8473C48.585 77.8473 51.585 68.4123 53.538 64.8483C55.038 62.1483 61.239 58.3773 66.57 55.2183C68.799 53.8953 72.771 52.8663 75.717 54.5253" fill="#757575"/>
<mask id="mask6_218_508" style="mask-type:luminance" maskUnits="userSpaceOnUse" x="48" y="53" width="35" height="46">
<path d="M78.915 65.6673C77.058 67.6143 77.883 79.4913 77.16 81.7593C77.16 81.7593 78.501 82.6893 78.501 83.5143C78.501 84.3393 82.101 84.6483 82.101 84.6483C82.101 84.6483 74.7 96.0993 69.939 97.9563C66.9732 99.0612 63.7492 99.276 60.663 98.5743L56.163 81.8103L55.725 82.5003C55.725 82.5003 52.299 77.1243 48.585 77.8473C48.585 77.8473 51.585 68.4123 53.538 64.8483C55.038 62.1483 61.239 58.3773 66.57 55.2183C68.799 53.8953 72.771 52.8663 75.717 54.5253" fill="white"/>
</mask>
<g mask="url(#mask6_218_508)">
<path opacity="0.2" d="M61.26 80.4513C61.308 80.7513 58.896 84.3513 57.429 86.5113L56.178 81.8373L58.059 79.1133C58.059 79.1133 60.159 76.4793 60.309 74.1753C60.309 74.1753 62.295 76.4793 60.396 80.0403C60.396 80.0403 61.2 80.0103 61.26 80.4513Z" fill="black" fill-opacity="0.7"/>
<path d="M62.4691 70.9082L65.4271 73.0352L65.5561 75.6512L66.5491 73.7642L66.2911 72.4232L67.4401 72.8252L68.9101 72.2762L67.1431 71.2742L69.3001 70.4552L68.7391 71.1452L69.4891 71.4392L71.6731 71.0162L71.9821 69.9392L70.8931 70.1462L70.7341 69.3152L72.5821 68.2592L72.7111 68.9342L72.9811 70.3292L73.6201 69.6212L74.2531 68.6402L74.4121 69.4712L75.6031 69.2402L74.5831 67.8752L75.1231 63.3662L72.2221 66.3932L72.9121 66.8762L74.1691 65.7182L73.5061 67.6352L71.7931 67.0922L69.5221 68.6702L70.2691 69.4052L68.0701 69.8282L68.9281 68.5172L66.1201 69.7712L66.0331 71.0822L65.1451 71.5682L64.8121 69.8462L62.4691 70.9082Z" fill="white"/>
</g>
<path d="M78.915 65.6673C77.058 67.6143 77.883 79.4913 77.16 81.7593C77.16 81.7593 78.501 82.6893 78.501 83.5143C78.501 84.3393 82.101 84.6483 82.101 84.6483C82.101 84.6483 74.7 96.0993 69.939 97.9563C66.9732 99.0612 63.7492 99.276 60.663 98.5743L56.163 81.8103L55.725 82.5003C55.725 82.5003 52.299 77.1243 48.585 77.8473C48.585 77.8473 51.585 68.4123 53.538 64.8483C55.038 62.1483 61.239 58.3773 66.57 55.2183C68.799 53.8953 72.771 52.8663 75.717 54.5253" stroke="#263238" stroke-width="1.10975" stroke-linecap="round" stroke-linejoin="round"/>
<path d="M60.396 60.342C60.396 60.342 60.996 63.174 64.368 64.161C67.74 65.148 67.668 57.105 67.668 57.105L60.396 60.342Z" fill="white" stroke="#263238" stroke-width="1.10975" stroke-linecap="round" stroke-linejoin="round"/>
<path d="M56.172 81.8099C56.172 81.8099 57.732 79.1489 58.059 79.1099C58.386 79.0709 61.314 73.9169 59.952 71.4419" stroke="#263238" stroke-width="1.10975" stroke-linecap="round" stroke-linejoin="round"/>
<path d="M60.3 77.1899C60.3 77.1899 60.072 80.3699 57 80.4629" stroke="#263238" stroke-width="1.10975" stroke-linecap="round" stroke-linejoin="round"/>
<path d="M62.073 63.8999C62.073 63.8999 65.388 67.3619 67.662 64.9199" stroke="#263238" stroke-width="1.10975" stroke-linecap="round" stroke-linejoin="round"/>
<path d="M67.362 57.1262C68.1628 54.8836 68.288 52.4553 67.722 50.1422C67.032 47.2442 63.585 43.2692 58.359 46.8872C55.659 48.7502 55.5 52.7942 56.34 56.5022C56.541 57.3872 56.391 58.2512 56.682 59.0642C57.717 61.9172 59.607 64.1132 60.639 64.1642C62.364 64.2512 65.814 62.1632 65.67 60.3452" fill="white"/>
<path d="M67.362 57.1262C68.1628 54.8836 68.288 52.4553 67.722 50.1422C67.032 47.2442 63.585 43.2692 58.359 46.8872C55.659 48.7502 55.5 52.7942 56.34 56.5022C56.541 57.3872 56.391 58.2512 56.682 59.0642C57.717 61.9172 59.607 64.1132 60.639 64.1642C62.364 64.2512 65.814 62.1632 65.67 60.3452" stroke="#263238" stroke-width="1.10975" stroke-linecap="round" stroke-linejoin="round"/>
<path d="M59.952 60.51C59.952 60.51 61.656 59.271 61.98 59.442C62.304 59.613 63.909 62.205 64.5 62.457C64.3106 62.9851 64.0588 63.4886 63.75 63.957L63.396 63.804C62.4112 64.3699 61.3299 64.7483 60.207 64.92C60.207 64.92 59.37 64.266 59.136 63.612L58.836 63.957C58.836 63.957 58.491 62.106 58.836 60.657L59.952 60.51Z" fill="#263238"/>
<path d="M60.396 55.8152C60.396 55.8152 61.791 54.8072 63.132 55.6322" stroke="#263238" stroke-width="1.10975" stroke-linecap="round" stroke-linejoin="round"/>
<path d="M57.765 55.632C57.765 55.632 56.712 54.666 56.028 54.801" stroke="#263238" stroke-width="1.10975" stroke-linecap="round" stroke-linejoin="round"/>
<path d="M62.364 57.363C62.364 57.618 62.235 57.8279 62.064 57.8279C61.893 57.8279 61.764 57.618 61.764 57.363C61.764 57.108 61.893 56.8979 62.064 56.8979C62.235 56.8979 62.364 57.105 62.364 57.363Z" fill="#263238"/>
<path d="M58.059 57.1051C58.059 57.3601 57.927 57.5701 57.759 57.5701C57.591 57.5701 57.459 57.3601 57.459 57.1051C57.459 56.8501 57.591 56.6401 57.759 56.6401C57.927 56.6401 58.059 56.8501 58.059 57.1051Z" fill="#263238"/>
<path d="M58.356 56.6069C58.872 57.2759 58.149 59.8319 58.356 60.0119C58.563 60.1919 59.877 59.6759 59.877 59.6759C59.877 59.6759 60.177 59.2889 59.544 59.0759" stroke="#263238" stroke-width="1.10975" stroke-linecap="round" stroke-linejoin="round"/>
<path d="M59.547 61.2899C59.547 61.2899 61.311 61.2899 61.782 60.6509" stroke="white" stroke-width="1.10975" stroke-linecap="round" stroke-linejoin="round"/>
<path d="M63.75 51.741L63.888 53.874C63.888 53.874 65.388 54.651 65.778 55.449C66.0061 55.9692 66.0891 56.5415 66.018 57.105C66.018 57.105 66.939 55.5 67.431 55.632C67.608 55.68 67.608 56.352 67.608 56.352C67.608 56.352 69.663 51.741 67.806 49.299C65.949 46.857 63.75 51.741 63.75 51.741Z" fill="#757575" stroke="#263238" stroke-width="1.10975" stroke-linecap="round" stroke-linejoin="round"/>
<path d="M63.9 52.2001C63.9 52.2001 62.673 54.5011 60.834 54.5011C60.834 54.5011 61.734 53.6701 61.869 52.9021C59.7835 54.0589 57.4173 54.6125 55.035 54.5011C55.035 54.5011 54.327 50.1541 57.636 46.8271C57.636 46.8271 55.791 47.7271 55.287 48.6271C55.6749 47.5841 56.3139 46.6527 57.1474 45.9155C57.981 45.1782 58.9834 44.6577 60.066 44.4001C63.846 43.4401 66.612 46.4461 66.612 46.4461L66.99 45.1021C66.99 45.1021 68.907 48.6541 67.539 50.4601C66.171 52.2661 63.9 52.2001 63.9 52.2001Z" fill="#263238"/>
<path d="M66.663 56.6401C66.663 56.6401 67.077 55.0921 68.463 54.6811C69.849 54.2701 68.901 57.9811 67.716 58.4731C66.531 58.9651 66.216 59.2981 66.162 58.8601" fill="white"/>
<path d="M66.663 56.6401C66.663 56.6401 67.077 55.0921 68.463 54.6811C69.849 54.2701 68.901 57.9811 67.716 58.4731C66.531 58.9651 66.216 59.2981 66.162 58.8601" stroke="#263238" stroke-width="1.10975" stroke-linecap="round" stroke-linejoin="round"/>
<path d="M68.583 56.4329C68.583 56.4329 68.649 57.0779 69.399 56.8979C70.149 56.7179 69.375 56.2979 69.051 56.2979" stroke="#263238" stroke-width="1.10975" stroke-linecap="round" stroke-linejoin="round"/>
<path d="M44.7 84.936C44.7 84.936 46.938 83.595 48.3 83.823C49.662 84.051 49.305 84.747 49.38 85.437C49.455 86.127 50.061 86.853 49.38 86.919C48.699 86.985 47.598 85.044 47.598 85.044L44.7 84.936Z" fill="white" stroke="#263238" stroke-width="1.10975" stroke-linecap="round" stroke-linejoin="round"/>
<path d="M45.072 80.4631L50.232 88.8841L49.17 89.1601L44.151 81.0271C44.2105 80.8378 44.3366 80.6763 44.5059 80.5727C44.6752 80.469 44.8763 80.4301 45.072 80.4631Z" fill="#263238"/>
<path d="M43.5 85.3709C43.593 84.7169 47.055 84.9119 47.451 84.9779C47.847 85.0439 49.029 86.4779 49.029 86.4779C49.1204 86.6508 49.1682 86.8434 49.1682 87.0389C49.1682 87.2345 49.1204 87.427 49.029 87.5999C49.029 87.5999 49.719 88.5899 49.176 89.1479C48.633 89.7059 43.761 90.1469 43.5 90.0239C43.239 89.9009 42.618 87.9239 42.675 87.2789C42.732 86.6339 43.329 86.5289 43.5 85.3709Z" fill="white" stroke="#263238" stroke-width="1.10975" stroke-linecap="round" stroke-linejoin="round"/>
<path d="M49.023 87.6C49.023 87.6 47.631 86.61 47.19 86.544C46.749 86.478 44.436 86.544 44.436 86.544" stroke="#263238" stroke-width="1.10975" stroke-linecap="round" stroke-linejoin="round"/>
<path d="M44.7 88.302C44.7 88.302 47.235 88.104 47.334 88.104C47.7599 88.3309 48.1735 88.5803 48.573 88.851" stroke="#263238" stroke-width="1.10975" stroke-linecap="round" stroke-linejoin="round"/>
<path d="M68.466 98.979C68.466 98.979 68.73 101.571 66.885 102.186" stroke="#263238" stroke-width="1.10975" stroke-linecap="round" stroke-linejoin="round"/>
<path d="M100.158 104.913C100.158 104.913 98.4 110.1 90.678 112.635" stroke="#263238" stroke-width="1.10975" stroke-linecap="round" stroke-linejoin="round"/>
<path d="M113.247 95.2799C114.077 95.0896 114.94 95.0896 115.77 95.2799" stroke="#263238" stroke-width="1.10975" stroke-linecap="round" stroke-linejoin="round"/>
<path d="M87.081 96.7563C87.081 96.7563 102.87 96.5883 106.581 97.5033L107.643 98.5863" stroke="#263238" stroke-width="1.10975" stroke-linecap="round" stroke-linejoin="round"/>
<path d="M79.635 59.064C79.8174 60.7645 79.6416 62.4844 79.119 64.113" stroke="#263238" stroke-width="1.10975" stroke-miterlimit="10"/>
<path d="M67.272 84.4982C66.8952 84.4341 66.5254 84.3336 66.168 84.1982" stroke="#263238" stroke-width="1.10975" stroke-miterlimit="10"/>
<path d="M77.16 81.7593C74.616 83.3493 71.46 84.6813 68.433 84.6153" stroke="#263238" stroke-width="1.10975" stroke-miterlimit="10"/>
<path d="M76.218 86.7358C73.716 89.6878 69.669 94.1818 65.349 93.6598" stroke="#263238" stroke-width="1.10975" stroke-miterlimit="10"/>
<path d="M77.916 84.582C77.616 84.993 77.316 85.395 76.992 85.782" stroke="#263238" stroke-width="1.10975" stroke-miterlimit="10"/>
<path d="M53.538 64.8422C53.538 64.8422 56.838 63.3422 59.136 67.6142" stroke="#263238" stroke-width="1.10975" stroke-miterlimit="10"/>
<path d="M93.375 40.158C92.916 39.087 93.63 37.608 93.906 36.747C94.182 35.886 95.283 36.045 96.144 35.562C96.144 35.562 97.002 35.784 96.144 36.576C95.8025 36.9097 95.4419 37.2232 95.064 37.515L94.806 39.315" fill="white"/>
<path d="M93.375 40.158C92.916 39.087 93.63 37.608 93.906 36.747C94.182 35.886 95.283 36.045 96.144 35.562C96.144 35.562 97.002 35.784 96.144 36.576C95.8025 36.9097 95.4419 37.2232 95.064 37.515L94.806 39.315" stroke="#263238" stroke-width="1.10975" stroke-linecap="round" stroke-linejoin="round"/>
<path d="M99.342 35.8199C98.8702 35.6701 98.3892 35.5509 97.902 35.4629C97.668 35.4629 96.549 36.9059 96.549 36.9059L96.447 37.7129C96.6961 37.7562 96.9509 37.7562 97.2 37.7129C97.461 37.57 97.6954 37.3833 97.893 37.1609" fill="white"/>
<path d="M99.342 35.8199C98.8702 35.6701 98.3892 35.5509 97.902 35.4629C97.668 35.4629 96.549 36.9059 96.549 36.9059L96.447 37.7129C96.6961 37.7562 96.9509 37.7562 97.2 37.7129C97.461 37.57 97.6954 37.3833 97.893 37.1609" stroke="#263238" stroke-width="1.10975" stroke-linecap="round" stroke-linejoin="round"/>
<path d="M99.615 37.2003C99.615 37.2003 98.583 36.8583 98.205 36.7533C97.827 36.6483 96.723 38.7783 96.723 38.7783C96.723 38.7783 97.584 39.3333 98.463 38.0283" fill="white"/>
<path d="M99.615 37.2003C99.615 37.2003 98.583 36.8583 98.205 36.7533C97.827 36.6483 96.723 38.7783 96.723 38.7783C96.723 38.7783 97.584 39.3333 98.463 38.0283" stroke="#263238" stroke-width="1.10975" stroke-linecap="round" stroke-linejoin="round"/>
<path d="M28.554 91.5628L25.605 88.4788V73.9138L30.51 67.6138L31.269 68.2498C31.269 68.2498 30.291 72.4078 31.269 73.1458C32.988 74.4388 38.829 69.4798 37.92 67.6138C37.38 66.5008 32.625 66.6118 32.625 66.6118L31.152 65.3788C31.0691 65.3088 30.9728 65.2564 30.869 65.2249C30.7652 65.1934 30.656 65.1833 30.5482 65.1954C30.4404 65.2075 30.3361 65.2414 30.2419 65.2951C30.1476 65.3488 30.0653 65.4212 30 65.5078L24.156 73.1728V88.4728L21.21 91.5628H28.554Z" fill="#263238"/>
<path d="M36.21 68.877C35.492 69.0319 34.8252 69.3668 34.2721 69.85C33.719 70.3333 33.2978 70.9492 33.048 71.64" stroke="white" stroke-width="1.10975" stroke-linecap="round" stroke-linejoin="round"/>
<path d="M35.28 69.1919C35.28 69.1919 35.748 70.1819 34.98 70.8359C34.7654 71.0355 34.487 71.1526 34.1942 71.1663C33.9015 71.18 33.6133 71.0895 33.381 70.9109" stroke="white" stroke-width="1.10975" stroke-linecap="round" stroke-linejoin="round"/>
<path d="M31.335 71.5587C31.335 71.5587 32.997 67.9857 36.537 67.1787" stroke="white" stroke-width="1.10975" stroke-linecap="round" stroke-linejoin="round"/>
<path d="M35.979 69.9297L36.537 69.9957" stroke="white" stroke-width="1.10975" stroke-linecap="round" stroke-linejoin="round"/>
<path d="M35.205 71.1719L35.424 71.4449" stroke="white" stroke-width="1.10975" stroke-linecap="round" stroke-linejoin="round"/>
<path d="M34.002 71.6396L33.936 72.3326" stroke="white" stroke-width="1.10975" stroke-linecap="round" stroke-linejoin="round"/>
<path d="M60.492 92.5677H18.138C18.0373 92.5677 17.9376 92.5478 17.8445 92.5092C17.7515 92.4706 17.6671 92.414 17.596 92.3426C17.5249 92.2713 17.4686 92.1866 17.4304 92.0934C17.3921 92.0003 17.3726 91.9005 17.373 91.7997C17.3726 91.699 17.3921 91.5992 17.4304 91.5061C17.4686 91.4129 17.5249 91.3282 17.596 91.2569C17.6671 91.1855 17.7515 91.1289 17.8445 91.0903C17.9376 91.0516 18.0373 91.0317 18.138 91.0317H60.492C60.6957 91.0317 60.891 91.1127 61.0351 91.2567C61.1791 91.4007 61.26 91.5961 61.26 91.7997C61.26 92.0034 61.1791 92.1988 61.0351 92.3428C60.891 92.4868 60.6957 92.5677 60.492 92.5677Z" fill="#BCBCFF"/>
<mask id="mask7_218_508" style="mask-type:luminance" maskUnits="userSpaceOnUse" x="17" y="91" width="45" height="2">
<path d="M60.492 92.5677H18.138C18.0373 92.5677 17.9376 92.5478 17.8445 92.5092C17.7515 92.4706 17.6671 92.414 17.596 92.3426C17.5249 92.2713 17.4686 92.1866 17.4304 92.0934C17.3921 92.0003 17.3726 91.9005 17.373 91.7997C17.3726 91.699 17.3921 91.5992 17.4304 91.5061C17.4686 91.4129 17.5249 91.3282 17.596 91.2569C17.6671 91.1855 17.7515 91.1289 17.8445 91.0903C17.9376 91.0516 18.0373 91.0317 18.138 91.0317H60.492C60.6957 91.0317 60.891 91.1127 61.0351 91.2567C61.1791 91.4007 61.26 91.5961 61.26 91.7997C61.26 92.0034 61.1791 92.1988 61.0351 92.3428C60.891 92.4868 60.6957 92.5677 60.492 92.5677Z" fill="white"/>
</mask>
<g mask="url(#mask7_218_508)">
<path opacity="0.5" d="M60.492 92.5677H18.138C18.0373 92.5677 17.9376 92.5478 17.8445 92.5092C17.7515 92.4706 17.6671 92.414 17.596 92.3426C17.5249 92.2713 17.4686 92.1866 17.4304 92.0934C17.3921 92.0003 17.3726 91.9005 17.373 91.7997C17.3726 91.699 17.3921 91.5992 17.4304 91.5061C17.4686 91.4129 17.5249 91.3282 17.596 91.2569C17.6671 91.1855 17.7515 91.1289 17.8445 91.0903C17.9376 91.0516 18.0373 91.0317 18.138 91.0317H60.492C60.6957 91.0317 60.891 91.1127 61.0351 91.2567C61.1791 91.4007 61.26 91.5961 61.26 91.7997C61.26 92.0034 61.1791 92.1988 61.0351 92.3428C60.891 92.4868 60.6957 92.5677 60.492 92.5677Z" fill="black" fill-opacity="0.7"/>
</g>
<path d="M60.492 92.5677H18.138C18.0373 92.5677 17.9376 92.5478 17.8445 92.5092C17.7515 92.4706 17.6671 92.414 17.596 92.3426C17.5249 92.2713 17.4686 92.1866 17.4304 92.0934C17.3921 92.0003 17.3726 91.9005 17.373 91.7997C17.3726 91.699 17.3921 91.5992 17.4304 91.5061C17.4686 91.4129 17.5249 91.3282 17.596 91.2569C17.6671 91.1855 17.7515 91.1289 17.8445 91.0903C17.9376 91.0516 18.0373 91.0317 18.138 91.0317H60.492C60.6957 91.0317 60.891 91.1127 61.0351 91.2567C61.1791 91.4007 61.26 91.5961 61.26 91.7997C61.26 92.0034 61.1791 92.1988 61.0351 92.3428C60.891 92.4868 60.6957 92.5677 60.492 92.5677Z" stroke="#263238" stroke-width="1.10975" stroke-linecap="round" stroke-linejoin="round"/>
<path d="M60.096 92.5679H18.534V133.578H60.096V92.5679Z" fill="#BCBCFF"/>
<mask id="mask8_218_508" style="mask-type:luminance" maskUnits="userSpaceOnUse" x="18" y="92" width="43" height="42">
<path d="M60.096 92.5679H18.534V133.578H60.096V92.5679Z" fill="white"/>
</mask>
<g mask="url(#mask8_218_508)">
<path opacity="0.3" d="M34.266 92.5679H18.534V133.578H34.266V92.5679Z" fill="black" fill-opacity="0.7"/>
</g>
<path d="M60.096 92.5679H18.534V133.578H60.096V92.5679Z" stroke="#263238" stroke-width="1.10975" stroke-linecap="round" stroke-linejoin="round"/>
<path d="M34.266 101.745V100.605" stroke="#263238" stroke-width="1.10975" stroke-linecap="round" stroke-linejoin="round"/>
<path d="M34.266 98.0819V92.5679H60.096V133.575H34.266V113.073" stroke="#263238" stroke-width="1.10975" stroke-linecap="round" stroke-linejoin="round"/>
<path d="M58.242 94.6826H35.985V100.605H58.242V94.6826Z" stroke="#263238" stroke-width="1.10975" stroke-linecap="round" stroke-linejoin="round"/>
<path d="M58.242 102.186H35.985V130.458H58.242V102.186Z" stroke="#263238" stroke-width="1.10975" stroke-linecap="round" stroke-linejoin="round"/>
<path d="M48.072 96.0178C48.072 96.1637 48.0287 96.3064 47.9476 96.4278C47.8665 96.5492 47.7513 96.6437 47.6164 96.6996C47.4816 96.7555 47.3332 96.7701 47.19 96.7416C47.0469 96.7131 46.9154 96.6428 46.8122 96.5396C46.709 96.4364 46.6387 96.3049 46.6102 96.1618C46.5817 96.0186 46.5963 95.8702 46.6522 95.7354C46.708 95.6005 46.8026 95.4853 46.924 95.4042C47.0454 95.3231 47.188 95.2798 47.334 95.2798C47.5297 95.2798 47.7175 95.3575 47.8559 95.4959C47.9943 95.6343 48.072 95.8221 48.072 96.0178Z" stroke="#263238" stroke-width="1.10975" stroke-linecap="round" stroke-linejoin="round"/>
<path d="M37.653 117.06C38.0606 117.06 38.391 116.73 38.391 116.322C38.391 115.914 38.0606 115.584 37.653 115.584C37.2454 115.584 36.915 115.914 36.915 116.322C36.915 116.73 37.2454 117.06 37.653 117.06Z" stroke="#263238" stroke-width="1.10975" stroke-linecap="round" stroke-linejoin="round"/>
<path d="M42.855 90.4199C42.855 90.4199 44.262 88.5779 50.232 88.8839C56.202 89.1899 57.564 90.3029 59.319 90.0989L59.1 91.0349H42.855V90.4199Z" fill="#BCBCFF" stroke="#263238" stroke-width="1.10975" stroke-linecap="round" stroke-linejoin="round"/>
<path d="M42.855 90.4197C42.855 90.4197 44.766 88.9197 48.255 89.1897C51.744 89.4597 52.548 90.2728 55.368 90.2458L54.753 91.0348H34.296L33.504 90.0987C33.504 90.0987 34.908 90.5788 37.104 89.8498C40.8 88.6228 42.855 90.4197 42.855 90.4197Z" fill="white" stroke="#263238" stroke-width="1.10975" stroke-linecap="round" stroke-linejoin="round"/>
<path d="M57.834 90.2816C58.3343 90.2766 58.8324 90.2152 59.319 90.0986" stroke="#263238" stroke-width="1.10975" stroke-linecap="round" stroke-linejoin="round"/>
<path d="M55.368 90.2456C55.905 90.2786 56.445 90.2936 56.985 90.2966" stroke="#263238" stroke-width="1.10975" stroke-linecap="round" stroke-linejoin="round"/>
</svg>
