<svg width="38" height="7" viewBox="0 0 33 7" fill="none" xmlns="http://www.w3.org/2000/svg">
<path d="M32.5 3.87914C32.5 5.1674 31.2375 6.34618 29.5 6.34618C27.7625 6.34618 26.5 5.1674 26.5 3.87914C26.5 2.59089 27.7625 1.41211 29.5 1.41211C31.2375 1.41211 32.5 2.59089 32.5 3.87914Z" stroke="#190C40"/>
<path d="M19.5 3.87914C19.5 5.1674 18.2375 6.34618 16.5 6.34618C14.7625 6.34618 13.5 5.1674 13.5 3.87914C13.5 2.59089 14.7625 1.41211 16.5 1.41211C18.2375 1.41211 19.5 2.59089 19.5 3.87914Z" stroke="#190C40"/>
<path d="M6.5 3.87914C6.5 5.1674 5.23748 6.34618 3.5 6.34618C1.76252 6.34618 0.5 5.1674 0.5 3.87914C0.5 2.59089 1.76252 1.41211 3.5 1.41211C5.23748 1.41211 6.5 2.59089 6.5 3.87914Z" stroke="#190C40"/>
</svg>
