<svg width="22" height="22" viewBox="0 0 22 22" fill="none" xmlns="http://www.w3.org/2000/svg">
<path d="M15.123 18.6034L14.265 18.2671L17.4595 10.1017C17.6065 9.72502 17.4071 9.30004 17.0224 9.17516L11.4351 7.35033C11.0766 7.23351 10.6899 7.41881 10.5569 7.77129L7.77338 15.1351L6.4541 14.6376L10.3616 4.30089C10.4925 3.95244 10.8732 3.76714 11.2297 3.8759L19.5884 6.45806C19.9792 6.57891 20.1866 7.00591 20.0376 7.3886L15.7595 18.3255C15.6588 18.5773 15.3748 18.7021 15.123 18.6034Z" fill="#5C596C"/>
<path d="M2.39954 14.1401C2.39954 14.8773 2.69238 15.5842 3.21364 16.1055C3.73491 16.6268 4.4419 16.9196 5.17908 16.9196C5.91626 16.9196 6.62324 16.6268 7.14451 16.1055C7.66577 15.5842 7.95862 14.8773 7.95862 14.1401C7.95862 13.4029 7.66577 12.6959 7.14451 12.1746C6.62324 11.6534 5.91626 11.3605 5.17908 11.3605C4.4419 11.3605 3.73491 11.6534 3.21364 12.1746C2.69238 12.6959 2.39954 13.4029 2.39954 14.1401Z" fill="#5C596C"/>
<path d="M10.4199 17.2499C10.4199 17.9871 10.7128 18.6941 11.234 19.2154C11.7553 19.7366 12.4623 20.0295 13.1995 20.0295C13.9366 20.0295 14.6436 19.7366 15.1649 19.2154C15.6862 18.6941 15.979 17.9871 15.979 17.2499C15.979 16.5128 15.6862 15.8058 15.1649 15.2845C14.6436 14.7632 13.9366 14.4704 13.1995 14.4704C12.4623 14.4704 11.7553 14.7632 11.234 15.2845C10.7128 15.8058 10.4199 16.5128 10.4199 17.2499Z" fill="#5C596C"/>
<path d="M5.29656 8.15045L3.06003 2.54948C2.91394 2.18639 3.1116 1.77604 3.48542 1.66217L5.80359 0.955336C6.11296 0.860805 6.44167 1.00905 6.57703 1.30338L6.86062 1.92213C7.02175 2.27233 6.84128 2.68268 6.47605 2.80299L4.89265 3.32506C4.74441 3.37448 4.66707 3.53776 4.72507 3.6817L6.23757 7.5403C6.28269 7.65631 6.22683 7.78522 6.11081 7.83248L5.29656 8.15045Z" fill="#E51C5A"/>
<path d="M2.72278 8.15046C2.72278 8.38971 2.7699 8.62662 2.86146 8.84766C2.95302 9.0687 3.08722 9.26954 3.25639 9.43872C3.42557 9.60789 3.62641 9.74209 3.84745 9.83365C4.06849 9.92521 4.3054 9.97233 4.54465 9.97233C4.78391 9.97233 5.02081 9.92521 5.24185 9.83365C5.46289 9.74209 5.66374 9.60789 5.83291 9.43872C6.00209 9.26954 6.13629 9.0687 6.22785 8.84766C6.3194 8.62662 6.36653 8.38971 6.36653 8.15046C6.36653 7.66727 6.17458 7.20387 5.83291 6.8622C5.49125 6.52053 5.02784 6.32858 4.54465 6.32858C4.06146 6.32858 3.59806 6.52053 3.25639 6.8622C2.91473 7.20387 2.72278 7.66727 2.72278 8.15046Z" fill="#E51C5A"/>
</svg>
