<svg width="74" height="74" viewBox="0 0 74 74" fill="none" xmlns="http://www.w3.org/2000/svg">
<path d="M71.984 36.974C71.9876 43.8963 69.9379 50.6641 66.0943 56.4213C62.2507 62.1785 56.7859 66.6663 50.3912 69.317C43.9965 71.9676 36.9593 72.6622 30.1698 71.3126C23.3804 69.963 17.1437 66.6299 12.2489 61.7351C7.35414 56.8403 4.0211 50.6037 2.6715 43.8142C1.3219 37.0248 2.01637 29.9875 4.66706 23.5928C7.31775 17.1982 11.8055 11.7334 17.5627 7.88976C23.3199 4.04616 30.0877 1.99648 37.01 2.00004C41.6049 1.99293 46.1559 2.89271 50.4024 4.6478C54.6488 6.40289 58.5071 8.97877 61.7562 12.2278C65.0052 15.4769 67.5811 19.3352 69.3362 23.5816C71.0913 27.8281 71.9911 32.3792 71.984 36.974Z" stroke="#1C0E44" stroke-width="4" stroke-miterlimit="10"/>
<path d="M46.3333 50H51V22H46.3333M23 50L42.8333 36L23 22V50Z" fill="#1C0E44"/>
</svg>
