<svg width="74" height="74" viewBox="0 0 74 74" fill="none" xmlns="http://www.w3.org/2000/svg">
<path d="M1.99986 37.0101C1.9963 30.0878 4.04603 23.32 7.88963 17.5628C11.7332 11.8057 17.198 7.31787 23.5927 4.66718C29.9874 2.01648 37.0246 1.32197 43.814 2.67157C50.6035 4.02117 56.8401 7.35421 61.7349 12.249C66.6297 17.1438 69.9628 23.3804 71.3124 30.1699C72.662 36.9594 71.9675 43.9966 69.3168 50.3913C66.6661 56.786 62.1783 62.2508 56.4212 66.0944C50.664 69.938 43.8961 71.9876 36.9739 71.9841C32.379 71.9912 27.828 71.0914 23.5815 69.3363C19.3351 67.5812 15.4767 65.0054 12.2277 61.7563C8.97864 58.5073 6.40276 54.6489 4.64767 50.4025C2.89259 46.156 1.99275 41.605 1.99986 37.0101Z" stroke="#1C0E44" stroke-width="4" stroke-miterlimit="10"/>
<path d="M27.6664 22H22.9998L22.9998 50H27.6664M50.9998 22L31.1664 36L50.9998 50L50.9998 22Z" fill="#1C0E44"/>
</svg>
