<svg width="70" height="70" viewBox="0 0 70 70" fill="none" xmlns="http://www.w3.org/2000/svg">
<path fill-rule="evenodd" clip-rule="evenodd" d="M25 21H29.6667L29.6667 49H25L25 21Z" fill="#1C0E44"/>
<path fill-rule="evenodd" clip-rule="evenodd" d="M45 49H40.3333V21H45V49Z" fill="#1C0E44"/>
<path d="M35 70C54.2987 70 70 54.2987 70 35C70 15.7013 54.2987 0 35 0C15.7013 0 0 15.7013 0 35C0 54.2987 15.7013 70 35 70ZM35 4.375C51.8869 4.375 65.625 18.1131 65.625 35C65.625 51.8869 51.8869 65.625 35 65.625C18.1131 65.625 4.375 51.8869 4.375 35C4.375 18.1131 18.1131 4.375 35 4.375Z" fill="#1C0E44"/>
</svg>
