<svg width="626" height="30" viewBox="0 0 626 30" fill="none" xmlns="http://www.w3.org/2000/svg">
<mask id="path-1-inside-1_124_17" fill="white">
<path fill-rule="evenodd" clip-rule="evenodd" d="M160.64 18.7639C159.463 18.5237 158.137 18.5187 156.884 18.7247C156.033 25.0806 150.589 29.9826 144 29.9826H13C5.8203 29.9826 0 24.1623 0 16.9826V13.9826C0 6.80289 5.8203 0.982593 13 0.982593H144C149.887 0.982593 154.859 4.89505 156.46 10.2614C157.854 10.6968 159.227 10.6779 160.613 10.3078C162.41 4.33822 167.953 -0.00785897 174.509 1.0851e-05L562.525 0.465817C568.607 0.473117 573.834 4.25078 575.975 9.60926C579.031 11.2709 581.931 10.6397 585.021 8.75678C587.498 4.59046 591.998 1.78988 597.14 1.66596L610.83 1.3361C618.874 1.14226 625.5 7.61049 625.5 15.6573C625.5 23.5689 619.086 29.9826 611.175 29.9826H597.509C590.893 29.9826 585.285 25.5443 583.557 19.4436C581.676 18.3467 578.587 18.3085 576.244 19.1163C574.311 24.8521 568.888 28.9826 562.5 28.9826H174.491C167.975 28.9826 162.463 24.6818 160.64 18.7639Z"/>
</mask>
<path fill-rule="evenodd" clip-rule="evenodd" d="M160.64 18.7639C159.463 18.5237 158.137 18.5187 156.884 18.7247C156.033 25.0806 150.589 29.9826 144 29.9826H13C5.8203 29.9826 0 24.1623 0 16.9826V13.9826C0 6.80289 5.8203 0.982593 13 0.982593H144C149.887 0.982593 154.859 4.89505 156.46 10.2614C157.854 10.6968 159.227 10.6779 160.613 10.3078C162.41 4.33822 167.953 -0.00785897 174.509 1.0851e-05L562.525 0.465817C568.607 0.473117 573.834 4.25078 575.975 9.60926C579.031 11.2709 581.931 10.6397 585.021 8.75678C587.498 4.59046 591.998 1.78988 597.14 1.66596L610.83 1.3361C618.874 1.14226 625.5 7.61049 625.5 15.6573C625.5 23.5689 619.086 29.9826 611.175 29.9826H597.509C590.893 29.9826 585.285 25.5443 583.557 19.4436C581.676 18.3467 578.587 18.3085 576.244 19.1163C574.311 24.8521 568.888 28.9826 562.5 28.9826H174.491C167.975 28.9826 162.463 24.6818 160.64 18.7639Z" fill="white"/>
<path d="M160.64 18.7639L162.551 18.175L162.202 17.0416L161.04 16.8043L160.64 18.7639ZM156.884 18.7247L156.56 16.7512L155.099 16.9914L154.902 18.4592L156.884 18.7247ZM156.46 10.2614L154.543 10.833L154.847 11.8531L155.863 12.1705L156.46 10.2614ZM160.613 10.3078L161.129 12.2401L162.207 11.9523L162.528 10.8843L160.613 10.3078ZM174.509 1.0851e-05L174.511 -1.99999L174.509 1.0851e-05ZM562.525 0.465817L562.523 2.46582L562.525 0.465817ZM575.975 9.60926L574.118 10.3513L574.386 11.0214L575.02 11.3662L575.975 9.60926ZM585.021 8.75678L586.061 10.4647L586.486 10.2061L586.74 9.77911L585.021 8.75678ZM597.14 1.66596L597.188 3.66538L597.188 3.66538L597.14 1.66596ZM610.83 1.3361L610.781 -0.663322L610.83 1.3361ZM583.557 19.4436L585.481 18.8987L585.261 18.1224L584.564 17.7159L583.557 19.4436ZM576.244 19.1163L575.592 17.2255L574.663 17.5459L574.349 18.4776L576.244 19.1163ZM161.04 16.8043C159.598 16.5098 158.024 16.5104 156.56 16.7512L157.209 20.6982C158.25 20.527 159.329 20.5375 160.24 20.7235L161.04 16.8043ZM154.902 18.4592C154.182 23.8353 149.574 27.9826 144 27.9826V31.9826C151.604 31.9826 157.884 26.3259 158.867 18.9901L154.902 18.4592ZM144 27.9826H13V31.9826H144V27.9826ZM13 27.9826C6.92487 27.9826 2 23.0577 2 16.9826H-2C-2 25.2669 4.71573 31.9826 13 31.9826V27.9826ZM2 16.9826V13.9826H-2V16.9826H2ZM2 13.9826C2 7.90746 6.92487 2.98259 13 2.98259V-1.01741C4.71573 -1.01741 -2 5.69832 -2 13.9826H2ZM13 2.98259H144V-1.01741H13V2.98259ZM144 2.98259C148.978 2.98259 153.188 6.29079 154.543 10.833L158.376 9.68985C156.53 3.49931 150.795 -1.01741 144 -1.01741V2.98259ZM155.863 12.1705C157.66 12.7315 159.421 12.6961 161.129 12.2401L160.097 8.37549C159.033 8.65975 158.048 8.66221 157.056 8.35234L155.863 12.1705ZM162.528 10.8843C164.078 5.73709 168.858 1.99323 174.506 2.00001L174.511 -1.99999C167.048 -2.00895 160.742 2.93934 158.698 9.73128L162.528 10.8843ZM174.506 2.00001L562.523 2.46582L562.528 -1.53418L174.511 -1.99999L174.506 2.00001ZM562.523 2.46582C567.757 2.4721 572.269 5.72387 574.118 10.3513L577.832 8.86727C575.4 2.77768 569.456 -1.52586 562.528 -1.53418L562.523 2.46582ZM575.02 11.3662C576.905 12.3915 578.813 12.7353 580.731 12.497C582.606 12.2641 584.379 11.4901 586.061 10.4647L583.98 7.04892C582.573 7.90636 581.35 8.38942 580.238 8.52749C579.17 8.66013 578.101 8.48867 576.931 7.85228L575.02 11.3662ZM586.74 9.77911C588.878 6.18391 592.757 3.77216 597.188 3.66538L597.092 -0.333455C591.238 -0.192401 586.119 2.997 583.302 7.73446L586.74 9.77911ZM597.188 3.66538L610.878 3.33552L610.781 -0.663322L597.092 -0.333455L597.188 3.66538ZM610.878 3.33552C617.799 3.16874 623.5 8.73392 623.5 15.6573H627.5C627.5 6.48706 619.949 -0.884227 610.781 -0.663322L610.878 3.33552ZM623.5 15.6573C623.5 22.4644 617.982 27.9826 611.175 27.9826V31.9826C620.191 31.9826 627.5 24.6735 627.5 15.6573H623.5ZM611.175 27.9826H597.509V31.9826H611.175V27.9826ZM597.509 27.9826C591.808 27.9826 586.971 24.1581 585.481 18.8987L581.633 19.9886C583.599 26.9305 589.978 31.9826 597.509 31.9826V27.9826ZM584.564 17.7159C583.25 16.9496 581.654 16.62 580.144 16.5669C578.615 16.5132 577.011 16.7363 575.592 17.2255L576.896 21.0071C577.82 20.6886 578.932 20.5268 580.004 20.5645C581.094 20.6028 581.983 20.8407 582.55 21.1714L584.564 17.7159ZM574.349 18.4776C572.681 23.4246 568.004 26.9826 562.5 26.9826V30.9826C569.772 30.9826 575.94 26.2797 578.139 19.7551L574.349 18.4776ZM562.5 26.9826H174.491V30.9826H562.5V26.9826ZM174.491 26.9826C168.877 26.9826 164.124 23.2778 162.551 18.175L158.729 19.3528C160.803 26.0857 167.073 30.9826 174.491 30.9826V26.9826Z" fill="#5C596C" mask="url(#path-1-inside-1_124_17)"/>
</svg>
