<svg width="735" height="780" viewBox="0 0 735 780" fill="none" xmlns="http://www.w3.org/2000/svg">
<g clip-path="url(#clip0_44_1174)">
<path d="M656.844 621.644H605.177V622.034H656.844V621.644Z" fill="#EBEBEB"/>
<path d="M471.703 625.888H458.147V626.278H471.703V625.888Z" fill="#EBEBEB"/>
<path d="M603.617 607.168H573.68V607.558H603.617V607.168Z" fill="#EBEBEB"/>
<path d="M104.214 609.788H36.8376V610.178H104.214V609.788Z" fill="#EBEBEB"/>
<path d="M127.988 609.788H118.114V610.178H127.988V609.788Z" fill="#EBEBEB"/>
<path d="M306.234 616.372H160.093V616.762H306.234V616.372Z" fill="#EBEBEB"/>
<path d="M324.72 526.968H23.4997C21.1399 526.964 18.8783 526.024 17.2111 524.353C15.544 522.683 14.6077 520.42 14.6077 518.06V94.6296C14.6282 92.2834 15.5736 90.04 17.2385 88.3868C18.9034 86.7336 21.1534 85.804 23.4997 85.8H324.72C327.083 85.8 329.348 86.7385 331.019 88.409C332.689 90.0795 333.628 92.3451 333.628 94.7076V518.06C333.628 520.423 332.689 522.689 331.019 524.359C329.348 526.03 327.083 526.968 324.72 526.968ZM23.4997 86.112C21.2434 86.1161 19.0809 87.0153 17.4869 88.6122C15.8929 90.2092 14.9977 92.3733 14.9977 94.6296V518.06C14.9977 520.317 15.8929 522.481 17.4869 524.078C19.0809 525.675 21.2434 526.574 23.4997 526.578H324.72C326.978 526.574 329.142 525.675 330.738 524.079C332.335 522.482 333.234 520.318 333.238 518.06V94.6296C333.234 92.3718 332.335 90.2078 330.738 88.6113C329.142 87.0148 326.978 86.1161 324.72 86.112H23.4997Z" fill="#EBEBEB"/>
<path d="M662.164 526.968H360.928C358.566 526.964 356.303 526.024 354.634 524.354C352.964 522.685 352.024 520.422 352.02 518.06V94.6296C352.045 92.282 352.994 90.0386 354.661 88.3858C356.328 86.733 358.58 85.804 360.928 85.8H662.164C664.507 85.8081 666.753 86.7395 668.415 88.3923C670.076 90.0451 671.02 92.2861 671.04 94.6296V518.06C671.04 520.417 670.106 522.678 668.442 524.348C666.778 526.018 664.521 526.96 662.164 526.968ZM360.928 86.112C358.67 86.1161 356.506 87.0148 354.909 88.6113C353.313 90.2078 352.414 92.3718 352.41 94.6296V518.06C352.414 520.318 353.313 522.482 354.909 524.079C356.506 525.675 358.67 526.574 360.928 526.578H662.164C664.421 526.574 666.585 525.675 668.182 524.079C669.778 522.482 670.677 520.318 670.681 518.06V94.6296C670.677 92.3718 669.778 90.2078 668.182 88.6113C666.585 87.0148 664.421 86.1161 662.164 86.112H360.928Z" fill="#EBEBEB"/>
<path d="M734.532 599.82H-45.468V600.21H734.532V599.82Z" fill="#EBEBEB"/>
<path d="M184.117 277.961C179.25 277.961 174.398 277.836 169.531 277.571C161.185 277.134 152.371 276.198 144.571 272.47C135.976 268.351 129.923 260.91 128.8 253.048L130.36 252.814C131.42 260.177 137.13 267.166 145.258 271.066C152.777 274.669 161.388 275.574 169.578 276.011C211.37 278.273 252.43 270.504 301.226 258.149C308.392 256.339 315.552 254.493 322.708 252.611C358.166 243.407 394.842 233.891 431.908 230.272C483.091 225.295 526.896 232.658 562.121 252.112L561.372 253.469C526.428 234.109 482.92 226.808 432.064 231.754C395.154 235.342 358.556 244.858 323.144 254.046C315.984 255.902 308.824 257.774 301.663 259.584C258.373 270.613 221.167 277.961 184.117 277.961Z" fill="#F0F0F0"/>
<path d="M184.117 291.127C179.25 291.127 174.398 290.987 169.531 290.737C161.185 290.285 152.371 289.349 144.571 285.636C135.976 281.518 129.923 274.061 128.8 266.198L130.36 265.98C131.42 273.328 137.13 280.332 145.258 284.216C152.777 287.836 161.388 288.74 169.578 289.177C211.37 291.424 252.43 283.655 301.226 271.3C308.387 269.49 315.547 267.634 322.708 265.777C358.166 256.558 394.842 247.057 431.908 243.438C483.091 238.446 526.896 245.825 562.121 265.278L561.372 266.635C526.428 247.276 482.92 239.975 432.064 244.92C395.154 248.524 358.541 258.024 323.144 267.212C315.979 269.084 308.818 270.93 301.663 272.75C258.389 283.764 221.167 291.127 184.117 291.127Z" fill="#F0F0F0"/>
<path d="M184.117 304.278C179.25 304.278 174.398 304.153 169.531 303.888C161.185 303.436 152.371 302.515 144.571 298.787C135.976 294.668 129.923 287.212 128.8 279.349L130.36 279.131C131.42 286.494 137.13 293.483 145.258 297.383C152.777 300.986 161.388 301.891 169.578 302.328C211.37 304.574 252.43 296.806 301.226 284.466C308.392 282.646 315.547 280.8 322.692 278.928C358.166 269.724 394.826 260.208 431.892 256.589C483.076 251.612 526.88 258.976 562.105 278.429L561.356 279.802C526.412 260.442 482.904 253.126 432.048 258.086C395.138 261.674 358.525 271.19 323.113 280.379C315.953 282.235 308.808 284.092 301.648 285.901C258.373 296.915 221.167 304.278 184.117 304.278Z" fill="#F0F0F0"/>
<path d="M184.117 317.429C179.25 317.429 174.398 317.304 169.531 317.039C161.185 316.602 152.371 315.666 144.571 311.938C135.976 307.819 129.923 300.378 128.8 292.5L130.36 292.282C131.42 299.645 137.13 306.634 145.258 310.534C152.777 314.137 161.388 315.042 169.578 315.479C211.37 317.725 252.43 309.956 301.226 297.617C308.387 295.807 315.547 293.935 322.708 292.079C358.166 282.875 394.842 273.359 431.908 269.74C483.091 264.763 526.896 272.126 562.121 291.658L561.372 293.015C526.428 273.655 482.92 266.339 432.064 271.3C395.154 274.888 358.556 284.404 323.144 293.592C315.984 295.448 308.824 297.32 301.663 299.13C258.373 310.081 221.167 317.429 184.117 317.429Z" fill="#F0F0F0"/>
<path d="M184.117 330.58C179.25 330.58 174.398 330.455 169.531 330.205C161.185 329.753 152.371 328.817 144.571 325.104C135.976 320.97 129.923 313.529 128.8 305.666L130.36 305.448C131.42 312.796 137.13 319.8 145.258 323.684C152.777 327.304 161.388 328.208 169.578 328.645C211.37 330.892 252.43 323.123 301.226 310.768C308.387 308.958 315.547 307.102 322.708 305.245C358.166 296.026 394.826 286.525 431.908 282.906C483.091 277.914 526.896 285.293 562.121 304.746L561.372 306.103C526.428 286.744 482.92 279.443 432.064 284.388C395.154 287.992 358.541 297.492 323.144 306.68C315.979 308.552 308.818 310.398 301.663 312.218C258.389 323.232 221.167 330.58 184.117 330.58Z" fill="#F0F0F0"/>
<path d="M178.298 481.369H69.114V599.851H178.298V481.369Z" fill="#E6E6E6"/>
<path d="M145.585 481.369H49.8948V599.851H145.585V481.369Z" fill="#F0F0F0"/>
<path d="M141.092 484.536H53.6077V502.788H141.092V484.536Z" fill="#FAFAFA"/>
<path d="M141.092 506.501H53.6077V596.201H141.092V506.501Z" fill="#E0E0E0"/>
<path d="M64.1845 498.966C66.9156 498.966 69.1297 496.752 69.1297 494.021C69.1297 491.29 66.9156 489.076 64.1845 489.076C61.4533 489.076 59.2393 491.29 59.2393 494.021C59.2393 496.752 61.4533 498.966 64.1845 498.966Z" fill="#1D0F44"/>
<path d="M112.544 498.966C115.275 498.966 117.49 496.752 117.49 494.021C117.49 491.29 115.275 489.076 112.544 489.076C109.813 489.076 107.599 491.29 107.599 494.021C107.599 496.752 109.813 498.966 112.544 498.966Z" fill="#1D0F44"/>
<path d="M78.0683 494.021C78.0683 494.508 77.9237 494.985 77.6529 495.39C77.382 495.796 76.9971 496.111 76.5467 496.298C76.0963 496.485 75.6007 496.533 75.1226 496.438C74.6445 496.343 74.2053 496.108 73.8606 495.764C73.5159 495.419 73.2811 494.98 73.186 494.502C73.0909 494.024 73.1397 493.528 73.3263 493.078C73.5129 492.627 73.8288 492.242 74.2341 491.971C74.6394 491.701 75.116 491.556 75.6035 491.556C76.2572 491.556 76.8841 491.816 77.3464 492.278C77.8086 492.74 78.0683 493.367 78.0683 494.021Z" fill="#1D0F44"/>
<path d="M90.72 494.021C90.7231 494.512 90.5803 494.993 90.3096 495.403C90.0389 495.813 89.6526 496.133 89.1997 496.323C88.7467 496.514 88.2475 496.565 87.7654 496.471C87.2832 496.377 86.8398 496.142 86.4913 495.796C86.1429 495.45 85.9051 495.008 85.8081 494.526C85.7111 494.044 85.7593 493.545 85.9466 493.091C86.1339 492.637 86.4517 492.248 86.86 491.975C87.2682 491.702 87.7484 491.556 88.2396 491.556C88.8948 491.556 89.5233 491.815 89.988 492.277C90.4528 492.739 90.7159 493.366 90.72 494.021Z" fill="#1D0F44"/>
<path d="M103.356 494.021C103.356 494.508 103.211 494.985 102.94 495.39C102.67 495.796 102.285 496.111 101.834 496.298C101.384 496.485 100.888 496.533 100.41 496.438C99.9321 496.343 99.4929 496.108 99.1482 495.764C98.8035 495.419 98.5687 494.98 98.4736 494.502C98.3785 494.024 98.4273 493.528 98.6139 493.078C98.8004 492.627 99.1164 492.242 99.5217 491.971C99.927 491.701 100.404 491.556 100.891 491.556C101.545 491.556 102.172 491.816 102.634 492.278C103.096 492.74 103.356 493.367 103.356 494.021Z" fill="#E0E0E0"/>
<path d="M128.644 498.966C131.375 498.966 133.589 496.752 133.589 494.021C133.589 491.29 131.375 489.076 128.644 489.076C125.913 489.076 123.698 491.29 123.698 494.021C123.698 496.752 125.913 498.966 128.644 498.966Z" fill="#1D0F44"/>
<path d="M110.875 545.048H83.8091V553.582H110.875V545.048Z" fill="#1D0F44"/>
<path d="M212.587 617.542C175.459 617.542 152.621 613.127 151.419 605.701C150.983 603.034 153.369 600.616 157.956 599.102C185.256 590.023 155.101 494.988 154.836 494.021C151.388 482.773 146.334 481.104 141.404 480.979C135.336 480.823 130.812 480.652 127.068 480.511C119.883 480.075 112.678 480.075 105.493 480.511C104.635 480.473 103.781 480.653 103.011 481.035C102.242 481.417 101.582 481.988 101.094 482.695C99.2063 485.815 101.234 491.915 102.17 493.99C102.269 494.266 102.26 494.569 102.146 494.839C102.032 495.109 101.821 495.326 101.554 495.448C101.287 495.57 100.984 495.587 100.706 495.496C100.427 495.405 100.192 495.212 100.049 494.957C99.8771 494.598 96.1799 486.33 99.0971 481.494C99.7707 480.457 100.697 479.608 101.788 479.027C102.88 478.446 104.101 478.151 105.337 478.171C112.61 477.733 119.904 477.733 127.177 478.171C130.921 478.312 135.445 478.483 141.498 478.639C147.02 478.78 153.213 480.636 157.098 493.319C158.377 497.312 188.298 591.521 158.783 601.318C155.538 602.394 153.572 603.97 153.806 605.327C154.368 608.79 167.659 615.358 213.741 615.202C220.695 615.234 227.644 614.848 234.552 614.047C238.008 613.627 241.319 612.406 244.219 610.48C247.12 608.554 249.531 605.978 251.259 602.956C253.051 599.9 254.103 596.467 254.331 592.932C254.558 589.397 253.955 585.858 252.57 582.598C241.65 556.436 222.384 505.112 216.69 455.27C208.515 384.072 238.733 373.698 240.09 373.292C240.386 373.199 240.706 373.228 240.981 373.371C241.256 373.514 241.463 373.761 241.556 374.057C241.604 374.203 241.623 374.358 241.61 374.511C241.598 374.665 241.555 374.815 241.483 374.951C241.412 375.088 241.314 375.209 241.195 375.307C241.077 375.405 240.939 375.479 240.792 375.523C240.495 375.617 211.152 385.928 219.077 454.99C224.771 504.551 243.912 555.641 254.832 581.693C256.349 585.29 257.008 589.192 256.757 593.088C256.505 596.985 255.349 600.769 253.381 604.141C251.47 607.473 248.808 610.313 245.607 612.436C242.406 614.559 238.754 615.906 234.942 616.372C227.936 617.186 220.888 617.577 213.835 617.542H212.587Z" fill="#9994AB"/>
<path d="M488.801 226.2C488.841 224.808 488.431 223.44 487.631 222.3C486.301 220.358 484.311 218.966 482.03 218.384C480.733 218.044 479.524 217.43 478.485 216.582C477.446 215.734 476.602 214.673 476.009 213.47V212.488C476.005 212.325 475.937 212.17 475.821 212.056C475.704 211.943 475.547 211.879 475.385 211.879C475.22 211.883 475.064 211.95 474.948 212.066C474.832 212.183 474.765 212.339 474.761 212.503L475.416 250.037L474.979 249.85H474.854L474.277 249.678C471.344 248.711 465.385 247.712 461.547 253.516C460.434 255.08 459.678 256.869 459.332 258.757C459.31 258.98 459.31 259.205 459.332 259.428C459.246 260.349 459.419 261.276 459.833 262.103C460.246 262.93 460.884 263.625 461.672 264.108C461.672 264.108 468.973 266.464 473.419 261.253C474.754 259.651 475.657 257.734 476.04 255.684C476.486 254.78 476.675 253.771 476.586 252.767L476.133 226.247C477.471 228.25 479.497 229.693 481.827 230.303C483.206 230.661 484.485 231.329 485.566 232.257C486.648 233.184 487.503 234.346 488.067 235.654C488.117 235.724 488.182 235.782 488.258 235.823C488.334 235.864 488.418 235.886 488.504 235.888H488.613C488.714 235.863 488.802 235.804 488.865 235.722C488.927 235.64 488.96 235.538 488.957 235.435L488.801 226.2Z" fill="#444C92"/>
<path d="M268.139 322.561L268.31 323.528C268.337 323.689 268.426 323.832 268.557 323.928C268.688 324.025 268.851 324.066 269.012 324.043C269.093 324.03 269.171 324.001 269.24 323.958C269.31 323.914 269.371 323.858 269.418 323.791C269.466 323.725 269.5 323.649 269.519 323.569C269.538 323.489 269.54 323.407 269.527 323.326L263.115 286.338C263.263 286.387 263.414 286.424 263.568 286.447H263.708L264.301 286.541C267.421 287.04 273.411 287.118 276.282 280.784C277.154 279.071 277.628 277.184 277.67 275.262C277.694 275.039 277.694 274.814 277.67 274.591C277.623 273.659 277.312 272.76 276.773 271.998C276.235 271.235 275.491 270.642 274.628 270.286C274.628 270.286 267.047 269.069 263.459 274.966C262.348 276.725 261.704 278.738 261.587 280.816C261.298 281.784 261.266 282.811 261.493 283.795L266.033 309.91L268.139 322.561Z" fill="#444C92"/>
<path d="M157.036 289.552C157.158 288.16 156.818 286.768 156.068 285.589C154.847 283.583 152.941 282.087 150.702 281.377C149.421 280.971 148.243 280.295 147.247 279.393C146.251 278.491 145.461 277.386 144.93 276.151V275.168C144.93 275.003 144.864 274.844 144.747 274.727C144.63 274.61 144.471 274.544 144.306 274.544C144.14 274.544 143.982 274.61 143.865 274.727C143.748 274.844 143.682 275.003 143.682 275.168L142.325 312.608C142.189 312.532 142.048 312.464 141.904 312.406H141.779C141.607 312.406 141.42 312.25 141.217 312.187C138.331 311.064 132.419 309.754 128.3 315.307C127.102 316.808 126.25 318.556 125.804 320.424C125.754 320.645 125.718 320.869 125.695 321.095C125.553 322.018 125.674 322.963 126.043 323.821C126.413 324.679 127.017 325.416 127.786 325.946C127.786 325.946 134.946 328.692 139.673 323.716C141.147 322.229 142.22 320.394 142.793 318.38C143.267 317.493 143.509 316.5 143.495 315.494L143.9 304.2C145.112 305.837 146.793 307.067 148.721 307.726C150.089 308.188 151.335 308.953 152.366 309.963C153.398 310.973 154.189 312.202 154.68 313.56C154.724 313.634 154.785 313.697 154.859 313.743C154.932 313.79 155.015 313.818 155.101 313.825H155.21C155.318 313.81 155.416 313.755 155.485 313.671C155.554 313.588 155.59 313.481 155.585 313.373L155.897 307.258C155.971 305.864 155.617 304.482 154.883 303.295C153.646 301.237 151.716 299.688 149.438 298.927C147.229 298.186 145.369 296.66 144.212 294.637L144.415 288.99C145.641 291.06 147.584 292.609 149.875 293.342C151.23 293.776 152.468 294.513 153.495 295.497C154.522 296.481 155.311 297.686 155.803 299.021C155.847 299.09 155.907 299.149 155.977 299.192C156.048 299.235 156.127 299.262 156.209 299.27H156.318C156.422 299.25 156.516 299.197 156.587 299.118C156.657 299.039 156.7 298.939 156.708 298.834L157.036 289.552Z" fill="#444C92"/>
<path d="M231.432 283.639L228.312 258.289L226.939 247.12L226.83 246.574L196.363 250.302V250.926L197.751 262.08L201.027 289.037L200.31 288.881C198.876 288.567 197.404 288.472 195.942 288.6C195.369 288.663 194.802 288.762 194.241 288.896C193.658 289.056 193.089 289.265 192.541 289.52C190.59 290.492 189.015 292.083 188.064 294.044C186.975 295.898 186.404 298.01 186.41 300.16C186.411 301.094 186.677 302.009 187.177 302.799C187.676 303.588 188.39 304.22 189.234 304.621C189.234 304.621 196.737 306.181 200.622 300.55C201.639 299.097 202.33 297.441 202.648 295.696C202.965 293.952 202.902 292.159 202.463 290.441L198.968 261.955L226.955 258.539L229.903 282.11C227.469 281.471 221.495 280.55 217.829 285.574C217.655 285.804 217.494 286.044 217.345 286.291C217.189 286.556 217.033 286.822 216.893 287.102C216.535 287.791 216.217 288.499 215.941 289.224C214.615 292.843 215.348 295.027 216.3 296.26C216.533 296.555 216.8 296.822 217.095 297.055C217.384 297.311 217.711 297.521 218.063 297.679C218.063 297.679 224.178 298.958 228.234 295.043C228.683 294.603 229.09 294.123 229.451 293.608C230.899 291.523 231.677 289.047 231.681 286.51C231.703 285.547 231.619 284.584 231.432 283.639Z" fill="#444C92"/>
<path d="M551.138 291.72L557.877 272.126L558.205 271.222L559.453 267.587L563.119 256.948L563.259 256.402L534.228 246.418L534.009 247.01L530.375 257.634L521.529 283.312L520.952 282.859C519.801 281.951 518.518 281.225 517.146 280.706C516.042 280.275 514.868 280.047 513.683 280.036C511.501 280.046 509.387 280.788 507.677 282.142C505.886 283.331 504.448 284.98 503.511 286.915C503.106 287.759 502.947 288.699 503.051 289.629C503.156 290.559 503.521 291.44 504.104 292.172C504.104 292.172 510.157 296.852 516.116 293.483C517.67 292.625 519.019 291.44 520.069 290.01C521.12 288.58 521.847 286.938 522.2 285.199L529.907 262.798L556.427 272.267L550.483 289.708C548.58 288.148 543.603 284.622 538.112 287.539C537.863 287.664 537.613 287.82 537.363 287.976C537.114 288.132 536.849 288.319 536.599 288.506C535.966 288.979 535.371 289.5 534.821 290.066C532.028 292.734 531.701 295.012 532.059 296.54C532.134 296.908 532.254 297.264 532.418 297.601C532.568 297.959 532.773 298.291 533.027 298.584C533.027 298.584 537.956 302.406 543.323 300.659C543.916 300.454 544.49 300.198 545.039 299.894C547.256 298.653 549.041 296.764 550.155 294.481C550.577 293.597 550.907 292.672 551.138 291.72ZM530.39 261.284L531.529 258.008L558.174 267.181L556.957 270.738L530.39 261.284Z" fill="#444C92"/>
<g opacity="0.8">
<path d="M488.801 226.2C488.841 224.808 488.431 223.44 487.631 222.3C486.301 220.358 484.311 218.966 482.03 218.384C480.733 218.044 479.524 217.43 478.485 216.582C477.446 215.734 476.602 214.673 476.009 213.47V212.488C476.005 212.325 475.937 212.17 475.821 212.056C475.704 211.943 475.547 211.879 475.385 211.879C475.22 211.883 475.064 211.95 474.948 212.066C474.832 212.183 474.765 212.339 474.761 212.503L475.416 250.037L474.979 249.85H474.854L474.277 249.678C471.344 248.711 465.385 247.712 461.547 253.516C460.434 255.08 459.678 256.869 459.332 258.757C459.31 258.98 459.31 259.205 459.332 259.428C459.246 260.349 459.419 261.276 459.833 262.103C460.246 262.93 460.884 263.625 461.672 264.108C461.672 264.108 468.973 266.464 473.419 261.253C474.754 259.651 475.657 257.734 476.04 255.684C476.486 254.78 476.675 253.771 476.586 252.767L476.133 226.247C477.471 228.25 479.497 229.693 481.827 230.303C483.206 230.661 484.485 231.329 485.566 232.257C486.648 233.184 487.503 234.346 488.067 235.654C488.117 235.724 488.182 235.782 488.258 235.823C488.334 235.864 488.418 235.886 488.504 235.888H488.613C488.714 235.863 488.802 235.804 488.865 235.722C488.927 235.64 488.96 235.538 488.957 235.435L488.801 226.2Z" fill="#736C8F"/>
<path d="M268.139 322.561L268.31 323.528C268.337 323.689 268.426 323.832 268.557 323.928C268.688 324.025 268.851 324.066 269.012 324.043C269.093 324.03 269.171 324.001 269.24 323.958C269.31 323.914 269.371 323.858 269.418 323.791C269.466 323.725 269.5 323.649 269.519 323.569C269.538 323.489 269.54 323.407 269.527 323.326L263.115 286.338C263.263 286.387 263.414 286.424 263.568 286.447H263.708L264.301 286.541C267.421 287.04 273.411 287.118 276.282 280.784C277.154 279.071 277.628 277.184 277.67 275.262C277.694 275.039 277.694 274.814 277.67 274.591C277.623 273.659 277.312 272.76 276.773 271.998C276.235 271.235 275.491 270.642 274.628 270.286C274.628 270.286 267.047 269.069 263.459 274.966C262.348 276.725 261.704 278.738 261.587 280.816C261.298 281.784 261.266 282.811 261.493 283.795L266.033 309.91L268.139 322.561Z" fill="#736C8F"/>
<path d="M157.036 289.552C157.158 288.16 156.818 286.768 156.068 285.589C154.847 283.583 152.941 282.087 150.702 281.377C149.421 280.971 148.243 280.295 147.247 279.393C146.251 278.491 145.461 277.386 144.93 276.151V275.168C144.93 275.003 144.864 274.844 144.747 274.727C144.63 274.61 144.471 274.544 144.306 274.544C144.14 274.544 143.982 274.61 143.865 274.727C143.748 274.844 143.682 275.003 143.682 275.168L142.325 312.608C142.189 312.532 142.048 312.464 141.904 312.406H141.779C141.607 312.406 141.42 312.25 141.217 312.187C138.331 311.064 132.419 309.754 128.3 315.307C127.102 316.808 126.25 318.556 125.804 320.424C125.754 320.645 125.718 320.869 125.695 321.095C125.553 322.018 125.674 322.963 126.043 323.821C126.413 324.679 127.017 325.416 127.786 325.946C127.786 325.946 134.946 328.692 139.673 323.716C141.147 322.229 142.22 320.394 142.793 318.38C143.267 317.493 143.509 316.5 143.495 315.494L143.9 304.2C145.112 305.837 146.793 307.067 148.721 307.726C150.089 308.188 151.335 308.953 152.366 309.963C153.398 310.973 154.189 312.202 154.68 313.56C154.724 313.634 154.785 313.697 154.859 313.743C154.932 313.79 155.015 313.818 155.101 313.825H155.21C155.318 313.81 155.416 313.755 155.485 313.671C155.554 313.588 155.59 313.481 155.585 313.373L155.897 307.258C155.971 305.864 155.617 304.482 154.883 303.295C153.646 301.237 151.716 299.688 149.438 298.927C147.229 298.186 145.369 296.66 144.212 294.637L144.415 288.99C145.641 291.06 147.584 292.609 149.875 293.342C151.23 293.776 152.468 294.513 153.495 295.497C154.522 296.481 155.311 297.686 155.803 299.021C155.847 299.09 155.907 299.149 155.977 299.192C156.048 299.235 156.127 299.262 156.209 299.27H156.318C156.422 299.25 156.516 299.197 156.587 299.118C156.657 299.039 156.7 298.939 156.708 298.834L157.036 289.552Z" fill="#736C8F"/>
<path d="M231.432 283.639L228.312 258.289L226.939 247.12L226.83 246.574L196.363 250.302V250.926L197.751 262.08L201.027 289.037L200.31 288.881C198.876 288.567 197.404 288.472 195.942 288.6C195.369 288.663 194.802 288.762 194.241 288.896C193.658 289.056 193.089 289.265 192.541 289.52C190.59 290.492 189.015 292.083 188.064 294.044C186.975 295.898 186.404 298.01 186.41 300.16C186.411 301.094 186.677 302.009 187.177 302.799C187.676 303.588 188.39 304.22 189.234 304.621C189.234 304.621 196.737 306.181 200.622 300.55C201.639 299.097 202.33 297.441 202.648 295.696C202.965 293.952 202.902 292.159 202.463 290.441L198.968 261.955L226.955 258.539L229.903 282.11C227.469 281.471 221.495 280.55 217.829 285.574C217.655 285.804 217.494 286.044 217.345 286.291C217.189 286.556 217.033 286.822 216.893 287.102C216.535 287.791 216.217 288.499 215.941 289.224C214.615 292.843 215.348 295.027 216.3 296.26C216.533 296.555 216.8 296.822 217.095 297.055C217.384 297.311 217.711 297.521 218.063 297.679C218.063 297.679 224.178 298.958 228.234 295.043C228.683 294.603 229.09 294.123 229.451 293.608C230.899 291.523 231.677 289.047 231.681 286.51C231.703 285.547 231.619 284.584 231.432 283.639Z" fill="#736C8F"/>
<path d="M551.138 291.72L557.877 272.126L558.205 271.222L559.453 267.587L563.119 256.948L563.259 256.402L534.228 246.418L534.009 247.01L530.375 257.634L521.529 283.312L520.952 282.859C519.801 281.951 518.518 281.225 517.146 280.706C516.042 280.275 514.868 280.047 513.683 280.036C511.501 280.046 509.387 280.788 507.677 282.142C505.886 283.331 504.448 284.98 503.511 286.915C503.106 287.759 502.947 288.699 503.051 289.629C503.156 290.559 503.521 291.44 504.104 292.172C504.104 292.172 510.157 296.852 516.116 293.483C517.67 292.625 519.019 291.44 520.069 290.01C521.12 288.58 521.847 286.938 522.2 285.199L529.907 262.798L556.427 272.267L550.483 289.708C548.58 288.148 543.603 284.622 538.112 287.539C537.863 287.664 537.613 287.82 537.363 287.976C537.114 288.132 536.849 288.319 536.599 288.506C535.966 288.979 535.371 289.5 534.821 290.066C532.028 292.734 531.701 295.012 532.059 296.54C532.134 296.908 532.254 297.264 532.418 297.601C532.568 297.959 532.773 298.291 533.027 298.584C533.027 298.584 537.956 302.406 543.323 300.659C543.916 300.454 544.49 300.198 545.039 299.894C547.256 298.653 549.041 296.764 550.155 294.481C550.577 293.597 550.907 292.672 551.138 291.72ZM530.39 261.284L531.529 258.008L558.174 267.181L556.957 270.738L530.39 261.284Z" fill="#736C8F"/>
</g>
<path d="M305.017 452.681C305.017 440.201 322.973 430.201 345.125 430.201C367.277 430.201 385.232 440.263 385.232 452.681H305.017Z" fill="#444C92"/>
<path d="M305.017 452.681C305.017 440.201 322.973 430.201 345.125 430.201C367.277 430.201 385.232 440.263 385.232 452.681H305.017Z" fill="#444C92"/>
<g opacity="0.5">
<path d="M305.017 452.681C305.017 440.201 322.973 430.201 345.125 430.201C367.277 430.201 385.232 440.263 385.232 452.681H305.017Z" fill="#444C92"/>
<path d="M305.017 452.681C305.017 440.201 322.973 430.201 345.125 430.201C367.277 430.201 385.232 440.263 385.232 452.681H305.017Z" fill="black"/>
</g>
<path d="M387.666 452.681H301.897V478.608H387.666V452.681Z" fill="#444C92"/>
<path opacity="0.6" d="M387.666 452.681H301.897V478.608H387.666V452.681Z" fill="white"/>
<path d="M304.268 478.608V604.828H308.059L311.32 478.608H304.268Z" fill="#263238"/>
<path d="M385.029 478.608V604.828H381.239L377.963 478.608H385.029Z" fill="#263238"/>
<path d="M364.999 478.608V604.828H361.208L357.948 478.608H364.999Z" fill="#263238"/>
<path d="M332.333 478.608V604.828H329.291L326.03 478.608H332.333Z" fill="#263238"/>
<path opacity="0.2" d="M364.999 478.608V604.828H361.208L357.948 478.608H364.999Z" fill="white"/>
<path opacity="0.2" d="M332.333 478.608V604.828H329.291L326.03 478.608H332.333Z" fill="white"/>
<path d="M343.3 589.04C331.491 589.131 319.689 588.469 307.966 587.059C293.442 585.109 291.476 582.566 291.476 580.32C291.476 578.074 293.442 575.531 307.966 573.581C319.689 572.171 331.491 571.509 343.3 571.6C355.113 571.508 366.92 572.17 378.649 573.581C393.173 575.531 395.123 578.089 395.123 580.32C395.123 582.551 393.173 585.109 378.649 587.059C366.92 588.47 355.113 589.132 343.3 589.04ZM296.64 580.32C300.493 582.348 317.747 584.922 343.268 584.922C368.79 584.922 386.059 582.348 389.897 580.32C386.059 578.292 368.806 575.718 343.268 575.718C317.731 575.718 300.524 578.292 296.64 580.32Z" fill="#444C92"/>
<g opacity="0.6">
<path d="M343.003 589.04C331.19 589.131 319.383 588.469 307.654 587.059C293.13 585.109 291.18 582.566 291.18 580.32C291.18 578.074 293.13 575.531 307.654 573.581C319.383 572.171 331.19 571.509 343.003 571.6C354.816 571.509 366.624 572.171 378.353 573.581C392.876 575.531 394.826 578.089 394.826 580.32C394.826 582.551 392.876 585.109 378.353 587.059C366.624 588.469 354.816 589.131 343.003 589.04ZM296.375 580.32C300.228 582.348 317.482 584.922 343.003 584.922C368.525 584.922 385.778 582.348 389.632 580.32C385.794 578.292 368.54 575.718 343.003 575.718C317.466 575.718 300.212 578.292 296.375 580.32Z" fill="white"/>
</g>
<path d="M339.571 305.011C339.49 305.092 339.417 305.181 339.353 305.276H339.056L339.571 305.011Z" fill="#263238"/>
<path d="M370.132 329.737C370.132 329.737 370.023 329.737 369.991 329.659L370.132 329.737Z" fill="#263238"/>
<path d="M321.6 220.818C321.005 221.459 320.585 222.244 320.383 223.096C320.293 223.522 320.345 223.967 320.53 224.361C320.716 224.755 321.026 225.078 321.413 225.28C321.848 225.402 322.309 225.404 322.745 225.285C323.182 225.167 323.578 224.934 323.893 224.609C326.186 222.674 326.842 219.445 327.372 216.497C327.372 216.497 324.673 217.916 324.455 218.057C323.409 218.875 322.453 219.8 321.6 220.818Z" fill="#263238"/>
<path d="M336.061 384.462C332.581 395.605 331.959 407.445 334.252 418.891C339.103 441.012 393.859 444.132 417.213 447.377C406.605 486.798 382.549 568.074 382.549 568.074L399.304 570.398C399.304 570.398 446.556 483.725 454.2 444.6C461.22 408.907 379.32 390.437 379.32 390.437L336.061 384.462Z" fill="#190C43"/>
<path d="M400.053 570.726C404.093 574.501 408.523 578.526 420.567 582.067C423.234 582.832 422.891 589.196 416.448 588.666C410.005 588.136 400.645 586.856 395.997 586.466C388.415 585.827 385.498 585.952 379.507 585.562C378.789 585.49 378.129 585.14 377.667 584.585C377.206 584.03 376.982 583.316 377.043 582.598L379.024 569.041C379.039 568.898 379.083 568.76 379.153 568.635C379.223 568.51 379.318 568.4 379.432 568.313C379.546 568.225 379.676 568.162 379.815 568.126C379.954 568.09 380.099 568.083 380.241 568.105L397.479 569.54C398.443 569.644 399.347 570.061 400.053 570.726Z" fill="#263238"/>
<path d="M402.985 580.694C403.687 579.852 403.438 577.574 402.985 575.687C402.892 575.203 402.782 574.751 402.689 574.361C402.47 573.44 402.268 572.723 402.205 572.536C402.183 572.471 402.144 572.413 402.092 572.369C402.04 572.325 401.976 572.297 401.909 572.286C401.808 572.299 401.711 572.336 401.628 572.395V572.504C401.095 573.834 400.678 575.206 400.38 576.607C400.045 577.757 400.122 578.987 400.598 580.086C400.753 580.34 400.968 580.553 401.223 580.705C401.479 580.857 401.768 580.945 402.065 580.96C402.228 580.995 402.398 580.989 402.558 580.943C402.719 580.896 402.866 580.811 402.985 580.694ZM401.113 579.821C400.675 578.509 400.708 577.086 401.207 575.796C401.391 575.067 401.615 574.348 401.878 573.643C402.002 574.033 402.112 574.454 402.205 574.86C402.596 576.425 402.764 578.037 402.704 579.649C402.69 579.866 402.608 580.074 402.47 580.242C402.426 580.301 402.366 580.347 402.297 580.374C402.228 580.402 402.154 580.41 402.08 580.398C401.893 580.38 401.712 580.318 401.552 580.218C401.393 580.118 401.258 579.982 401.16 579.821H401.113Z" fill="#444C92"/>
<path d="M407.135 577.2C407.243 576.889 407.283 576.558 407.254 576.23C407.224 575.902 407.125 575.584 406.963 575.297C406.286 574.32 405.345 573.557 404.249 573.097C403.556 572.75 402.829 572.473 402.081 572.27C402.027 572.243 401.969 572.229 401.909 572.229C401.849 572.229 401.79 572.243 401.737 572.27V572.348V572.458V572.582C401.935 573.263 402.213 573.917 402.564 574.532C402.751 574.876 402.954 575.219 403.173 575.578C404.077 576.95 405.232 578.152 406.137 578.167C406.371 578.245 406.87 578.12 407.135 577.2ZM402.985 574.08C402.814 573.721 402.658 573.362 402.533 573.035C402.938 573.145 403.335 573.286 403.719 573.456C404.773 573.933 405.699 574.655 406.417 575.562C406.614 575.925 406.659 576.351 406.542 576.748V576.919C406.355 577.512 406.121 577.496 406.043 577.481C405.279 577.574 403.843 575.812 402.985 574.08Z" fill="#444C92"/>
<path d="M312.24 390.484C312.24 390.484 230.356 408.954 237.36 444.6C245.051 483.678 292.303 570.352 292.303 570.352L309.12 568.074C309.12 568.074 285.065 486.798 274.457 447.377C297.857 444.132 352.566 441.012 357.418 418.891C359.71 407.445 359.088 395.605 355.608 384.462L312.24 390.484Z" fill="#190C43"/>
<path d="M294.144 569.525L311.304 568.09C311.446 568.068 311.591 568.075 311.73 568.11C311.869 568.146 311.999 568.21 312.113 568.297C312.227 568.385 312.322 568.494 312.392 568.62C312.462 568.745 312.506 568.883 312.521 569.026L314.502 582.582C314.563 583.301 314.339 584.015 313.877 584.569C313.416 585.124 312.755 585.475 312.037 585.546C306.047 585.936 303.13 585.811 295.548 586.451C290.868 586.841 281.508 588.104 275.097 588.65C268.685 589.196 268.311 582.816 270.978 582.052C283.021 578.448 287.452 574.486 291.492 570.71C292.218 570.029 293.152 569.612 294.144 569.525Z" fill="#263238"/>
<path d="M359.742 294.029C359.041 291.313 359.447 288.429 360.872 286.013C362.297 283.596 364.623 281.844 367.339 281.143C370.056 280.442 372.939 280.848 375.356 282.273C377.772 283.698 379.524 286.024 380.225 288.74V288.959C381.785 294.544 383.563 300.472 385.42 306.244C387.276 312.016 389.257 317.725 391.379 323.294C393.471 328.76 395.845 334.113 398.493 339.331C399.741 341.766 401.132 344.126 402.658 346.398C403.925 348.41 405.428 350.264 407.135 351.92L406.308 351.296C405.572 350.797 404.727 350.482 403.843 350.376H403.484C404.069 350.389 404.653 350.315 405.216 350.158C407.099 349.695 408.94 349.079 410.723 348.317C414.623 346.757 418.726 344.698 422.829 342.576C426.931 340.454 431.003 338.208 435.137 335.962C439.271 333.715 443.389 331.282 447.461 329.051H447.554C448.569 328.495 449.738 328.287 450.882 328.459C452.026 328.631 453.082 329.173 453.888 330.002C455.916 332.093 458.397 335.494 456.291 337.537C452.718 340.954 446.587 344.089 442.812 347.194C439.037 350.298 435.168 353.293 431.159 356.179C427.041 359.15 422.754 361.879 418.32 364.354C415.811 365.699 413.204 366.851 410.52 367.801C408.807 368.429 407.027 368.858 405.216 369.08C403.916 369.236 402.601 369.236 401.301 369.08C399.224 368.859 397.23 368.148 395.482 367.006L394.936 366.6L394.671 366.366C391.67 363.867 388.973 361.024 386.637 357.895C384.515 355.069 382.562 352.121 380.787 349.066C377.42 343.278 374.449 337.268 371.894 331.079C369.336 325.042 367.105 318.911 365.077 312.764C364.079 309.644 363.127 306.618 362.207 303.404C361.287 300.191 360.475 297.164 359.664 293.873L359.742 294.029Z" fill="#BAB8F0"/>
<path d="M451.579 337.943L456.259 337.537C456.259 337.537 454.387 328.177 450.924 324.964C449.117 326.673 447.543 328.614 446.244 330.736C446.151 336.18 451.579 337.943 451.579 337.943Z" fill="white"/>
<path d="M451.844 326.57C451.058 327.102 450.496 327.907 450.269 328.829C450.041 329.752 450.163 330.725 450.612 331.562L452.032 334.355C452.347 334.975 452.823 335.499 453.411 335.872C453.998 336.246 454.675 336.454 455.37 336.476L467.678 336.976L475.057 329.285C475.543 328.789 475.85 328.146 475.929 327.457C476.008 326.767 475.855 326.071 475.494 325.478L472.936 321.266C472.547 320.609 471.93 320.118 471.202 319.885C470.475 319.652 469.687 319.694 468.989 320.003L463.607 322.343C463.607 322.343 455.838 323.95 451.844 326.57Z" fill="#F9BBB2"/>
<path d="M367.589 278.226C347.933 275.917 328.074 275.917 308.418 278.226H308.122C305.627 278.664 303.407 280.072 301.945 282.141C300.484 284.21 299.9 286.773 300.322 289.271C305.704 321.469 311.242 354.432 310.774 389.532L379.32 390.172C385.841 339.518 382.643 305.932 380.194 290.332C379.66 287.232 378.149 284.385 375.881 282.207C373.613 280.029 370.707 278.634 367.589 278.226Z" fill="#BAB8F0"/>
<path d="M240.277 374.4C234.817 353.59 230.231 293.062 308.418 313.638C315.064 315.385 321.709 317.039 327.918 314.106L334.158 311.173C349.15 304.465 365.967 309.613 369.648 323.653L377.901 355.103C381.567 369.143 369.461 381.919 353.097 383.401C353.097 383.401 349.977 383.651 346.217 383.916C339.369 384.4 334.392 389.111 329.463 393.884C271.399 450.216 245.815 395.569 240.277 374.4Z" fill="#444C92"/>
<path opacity="0.6" d="M240.277 374.4C234.817 353.59 230.231 293.062 308.418 313.638C315.064 315.385 321.709 317.039 327.918 314.106L334.158 311.173C349.15 304.465 365.967 309.613 369.648 323.653L377.901 355.103C381.567 369.143 369.461 381.919 353.097 383.401C353.097 383.401 349.977 383.651 346.217 383.916C339.369 384.4 334.392 389.111 329.463 393.884C271.399 450.216 245.815 395.569 240.277 374.4Z" fill="#544A7E"/>
<path opacity="0.5" d="M316.826 361.031L318.776 367.957C319.379 370.1 320.444 372.085 321.898 373.771C323.351 375.458 325.157 376.805 327.188 377.717C329.219 378.629 331.425 379.084 333.651 379.05C335.877 379.016 338.068 378.494 340.07 377.52C344.85 375.258 349.365 372.474 353.533 369.221C361.808 362.702 368.904 354.814 374.515 345.899L316.826 361.031Z" fill="black"/>
<path d="M346.888 346.944C347.525 349.381 347.426 351.952 346.603 354.332C345.78 356.713 344.27 358.796 342.264 360.319C340.257 361.842 337.845 362.737 335.331 362.89C332.817 363.043 330.314 362.447 328.138 361.179C325.962 359.91 324.211 358.025 323.105 355.762C321.999 353.499 321.589 350.959 321.926 348.463C322.263 345.966 323.332 343.626 324.999 341.737C326.665 339.848 328.853 338.495 331.288 337.849C332.909 337.421 334.599 337.317 336.261 337.542C337.923 337.767 339.524 338.318 340.973 339.163C342.422 340.008 343.69 341.13 344.705 342.465C345.72 343.8 346.461 345.322 346.888 346.944Z" fill="#263238"/>
<path d="M466.773 307.142L344.825 339.089L348.976 354.934L470.924 322.987L466.773 307.142Z" fill="#444C92"/>
<path d="M471.251 324.355L466.602 306.665L498.894 295.885L504.666 317.912L471.251 324.355Z" fill="#444C92"/>
<path opacity="0.2" d="M471.251 324.355L466.602 306.665L498.894 295.885L504.666 317.912L471.251 324.355Z" fill="white"/>
<path d="M286.269 347.165L276.445 349.739L284.391 380.071L294.215 377.497L286.269 347.165Z" fill="white"/>
<path d="M467.355 309.496L282.579 358.006L282.777 358.76L467.553 310.251L467.355 309.496Z" fill="white"/>
<path d="M468.481 315.938L283.174 363.697L283.369 364.454L468.676 316.695L468.481 315.938Z" fill="white"/>
<path d="M469.264 316.805L284.463 365.217L284.661 365.972L469.462 317.559L469.264 316.805Z" fill="white"/>
<path d="M470.362 323.216L285.055 370.976L285.25 371.732L470.557 323.973L470.362 323.216Z" fill="white"/>
<path d="M494.869 302.749C494.859 303.087 494.74 303.412 494.529 303.677C494.318 303.941 494.027 304.129 493.7 304.214C493.373 304.298 493.027 304.274 492.714 304.145C492.402 304.016 492.14 303.789 491.968 303.498C491.844 303.29 491.771 303.056 491.754 302.814C491.737 302.573 491.776 302.331 491.868 302.107C491.961 301.884 492.104 301.685 492.286 301.526C492.469 301.367 492.686 301.253 492.92 301.193C493.154 301.132 493.4 301.127 493.636 301.178C493.873 301.228 494.094 301.333 494.284 301.484C494.473 301.635 494.624 301.828 494.726 302.048C494.827 302.267 494.876 302.507 494.869 302.749Z" fill="white"/>
<path d="M497.974 314.605C498.058 314.987 497.995 315.386 497.799 315.725C497.603 316.063 497.286 316.314 496.913 316.43C496.529 316.514 496.128 316.449 495.79 316.25C495.451 316.05 495.201 315.73 495.088 315.354C495.036 315.165 495.023 314.969 495.049 314.775C495.074 314.581 495.138 314.395 495.237 314.226C495.336 314.057 495.468 313.91 495.624 313.793C495.781 313.676 495.959 313.592 496.149 313.544C496.53 313.46 496.93 313.523 497.268 313.719C497.606 313.916 497.858 314.232 497.974 314.605Z" fill="white"/>
<path d="M477.039 307.414C477.027 307.748 476.907 308.07 476.699 308.331C476.49 308.593 476.202 308.78 475.879 308.866C475.555 308.952 475.213 308.931 474.902 308.807C474.591 308.683 474.329 308.463 474.153 308.178C474.165 307.844 474.284 307.522 474.493 307.26C474.701 306.999 474.989 306.811 475.312 306.726C475.636 306.64 475.978 306.661 476.289 306.785C476.6 306.908 476.863 307.129 477.039 307.414Z" fill="white"/>
<path d="M479.769 317.834C479.859 318.135 479.856 318.456 479.761 318.754C479.666 319.053 479.483 319.317 479.237 319.51C478.99 319.704 478.69 319.818 478.377 319.839C478.064 319.86 477.752 319.786 477.482 319.626C477.212 319.467 476.996 319.23 476.862 318.946C476.729 318.662 476.684 318.344 476.734 318.035C476.784 317.725 476.926 317.437 477.142 317.21C477.357 316.982 477.637 316.825 477.943 316.758C478.327 316.675 478.728 316.739 479.067 316.939C479.405 317.138 479.656 317.458 479.769 317.834Z" fill="white"/>
<path d="M300.493 281.174C302.861 279.836 305.653 279.461 308.291 280.125C310.928 280.789 313.209 282.443 314.661 284.743C316.113 287.043 316.624 289.813 316.089 292.48C315.554 295.147 314.014 297.505 311.788 299.068C303.8 304.34 295.579 309.988 287.795 315.791C280.055 321.302 272.753 327.405 265.955 334.043C265.175 334.838 264.473 335.603 263.74 336.43L262.726 337.631C263.275 336.788 263.612 335.824 263.708 334.823C263.786 333.958 263.707 333.086 263.474 332.249C263.38 331.885 263.255 331.53 263.1 331.188C262.975 330.938 262.835 330.673 262.679 330.424C262.457 330.012 262.135 329.663 261.743 329.41C261.602 329.41 262.148 329.893 262.866 330.268C264.698 331.174 266.603 331.925 268.56 332.514C270.728 333.216 272.99 333.871 275.299 334.48C284.566 336.866 294.472 338.801 304.175 340.72L304.268 340.798C305.528 341.049 306.653 341.751 307.432 342.772C308.21 343.794 308.589 345.065 308.497 346.346C308.405 347.627 307.849 348.831 306.932 349.731C306.016 350.631 304.802 351.165 303.52 351.234C293.119 351.872 282.682 351.643 272.32 350.548C269.683 350.251 267.016 349.877 264.27 349.378C261.317 348.828 258.415 348.03 255.596 346.991C253.672 346.287 251.851 345.327 250.183 344.136C248.787 343.099 247.588 341.82 246.642 340.361C246.287 339.843 245.979 339.295 245.722 338.723C245.428 338.096 245.193 337.443 245.02 336.773C244.646 335.333 244.55 333.834 244.739 332.358C245.035 330.102 245.893 327.956 247.235 326.118L248.561 324.355C249.45 323.201 250.339 322.046 251.26 320.986C254.799 316.843 258.603 312.935 262.648 309.286C266.501 305.62 270.541 302.234 274.644 299.021C278.747 295.807 282.865 292.703 287.124 289.739C291.383 286.775 295.579 283.904 300.197 281.112L300.493 281.174Z" fill="#BAB8F0"/>
<path d="M326.28 276.962C325.962 277.395 325.801 277.922 325.824 278.459C325.846 278.995 326.051 279.507 326.405 279.911C329.026 282.828 335.999 288.787 349.353 288.787C358.447 288.787 359.508 285.542 358.603 282.656C358.166 281.407 357.445 280.275 356.498 279.349C355.551 278.424 354.403 277.73 353.143 277.321C346.529 274.778 345.343 269.771 345.874 264.295C346.004 262.767 346.244 261.25 346.591 259.756L335.281 250.396L327.013 243.485C329.213 252.829 331.6 269.412 326.28 276.962Z" fill="#F9BBB2"/>
<path d="M353.284 290.238C351.59 290.062 349.953 289.53 348.479 288.678C346.23 289.925 343.805 290.824 341.287 291.346C341.64 290.124 342.25 288.993 343.076 288.027C343.902 287.061 344.925 286.283 346.077 285.745C347.047 286.37 347.893 287.168 348.573 288.101C348.754 287.231 349.151 286.421 349.727 285.745C349.727 285.745 353.175 287.243 353.284 290.238Z" fill="#444C92"/>
<path d="M326.53 274.03C324.408 274.368 322.344 275.003 320.399 275.917C319.354 290.347 341.49 295.885 341.49 295.885C342.086 292.175 343.67 288.694 346.077 285.808C331.288 282.672 326.53 274.03 326.53 274.03Z" fill="white"/>
<path d="M349.041 274.81C351.032 275.023 352.997 275.436 354.906 276.042C365.951 285.511 354.61 295.885 354.61 295.885C353.829 292.178 352.153 288.718 349.727 285.808C356.388 280.8 349.041 274.81 349.041 274.81Z" fill="white"/>
<path opacity="0.2" d="M335.391 250.333C335.279 251.77 335.331 253.214 335.547 254.639C336.077 258.944 341.693 263.422 345.921 264.264C346.051 262.73 346.29 261.208 346.638 259.709L335.391 250.333Z" fill="black"/>
<path d="M323.893 219.96C324.562 217.714 325.667 215.621 327.144 213.802C328.622 211.982 330.443 210.472 332.505 209.356C334.566 208.241 336.827 207.542 339.158 207.301C341.49 207.059 343.846 207.279 346.092 207.948C360.023 211.708 364.906 231.348 363.876 243.656C363.668 246.866 362.587 249.957 360.748 252.596C358.909 255.234 356.384 257.32 353.445 258.626C350.506 259.932 347.266 260.41 344.076 260.007C340.885 259.604 337.865 258.335 335.344 256.339C327.544 250.286 326.514 242.408 323.628 229.164C322.911 226.125 323.003 222.952 323.893 219.96Z" fill="#F9BBB2"/>
<path d="M323.332 233.626C326.795 232.768 330.492 236.746 331.974 239.772C333.643 243.11 332.505 246.558 328.745 245.887C325.855 245.327 323.269 243.729 321.475 241.394C319.26 238.415 319.884 234.499 323.332 233.626Z" fill="#F9BBB2"/>
<path d="M347.309 228.275C348.042 228.103 348.76 228.914 348.869 230.006C348.978 231.098 348.588 232.05 347.871 232.128C347.153 232.206 346.451 231.41 346.311 230.318C346.17 229.226 346.56 228.446 347.309 228.275Z" fill="#263238"/>
<path d="M359.664 226.637C360.382 226.543 361.115 227.354 361.224 228.446C361.333 229.538 360.928 230.396 360.21 230.568C359.493 230.74 358.806 229.928 358.65 228.836C358.494 227.744 358.931 226.715 359.664 226.637Z" fill="#263238"/>
<path d="M355.686 238.087C356.451 238.247 357.242 238.236 358.002 238.055C358.762 237.875 359.474 237.529 360.085 237.042C358.022 234.682 356.281 232.059 354.906 229.242L355.686 238.087Z" fill="#ED847E"/>
<path d="M342.036 223.844C342.555 223.236 343.213 222.76 343.954 222.459C344.695 222.158 345.498 222.039 346.295 222.113C346.379 222.128 346.465 222.127 346.549 222.109C346.633 222.09 346.712 222.055 346.781 222.006C346.851 221.956 346.91 221.893 346.955 221.821C347 221.748 347.03 221.667 347.044 221.582C347.066 221.411 347.022 221.238 346.921 221.099C346.819 220.959 346.668 220.864 346.498 220.834C345.488 220.725 344.468 220.864 343.524 221.239C342.581 221.615 341.744 222.214 341.084 222.986C341.025 223.046 340.978 223.116 340.946 223.194C340.914 223.272 340.897 223.355 340.897 223.439C340.897 223.523 340.914 223.606 340.946 223.684C340.978 223.761 341.025 223.832 341.084 223.891C341.167 223.954 341.263 223.997 341.365 224.016C341.481 224.059 341.608 224.066 341.727 224.035C341.847 224.004 341.955 223.938 342.036 223.844Z" fill="#263238"/>
<path d="M363.393 223.08C363.446 223.015 363.486 222.939 363.511 222.858C363.535 222.777 363.543 222.692 363.535 222.608C363.526 222.524 363.501 222.442 363.46 222.368C363.42 222.294 363.365 222.228 363.299 222.175C362.528 221.478 361.604 220.973 360.6 220.702C359.597 220.431 358.544 220.401 357.527 220.615C357.366 220.666 357.23 220.777 357.148 220.925C357.067 221.073 357.046 221.247 357.09 221.411C357.141 221.572 357.252 221.708 357.4 221.789C357.548 221.871 357.722 221.892 357.886 221.848C358.709 221.677 359.561 221.7 360.374 221.917C361.186 222.134 361.937 222.537 362.566 223.096C362.647 223.164 362.743 223.211 362.846 223.233C362.95 223.254 363.057 223.25 363.159 223.22C363.246 223.192 363.326 223.144 363.393 223.08Z" fill="#263238"/>
<path d="M306 339.425L298.356 343.512C295.127 349.112 306.437 354.432 306.437 354.432L312.677 360.266C313.479 361.019 314.499 361.496 315.591 361.627C316.682 361.759 317.787 361.539 318.745 361L320.383 360.11C320.974 359.771 321.492 359.318 321.907 358.778C322.323 358.239 322.627 357.622 322.804 356.964C322.981 356.306 323.026 355.62 322.937 354.944C322.849 354.269 322.627 353.618 322.286 353.028L317.482 344.651L306 339.425Z" fill="#F9BBB2"/>
<path d="M297.326 350.86L301.648 352.856C301.648 352.856 305.376 342.685 304.284 337.802C301.678 338.569 299.178 339.659 296.843 341.047C295.916 342.538 295.465 344.276 295.551 346.029C295.638 347.782 296.257 349.467 297.326 350.86Z" fill="white"/>
<path d="M328.932 203.377C334.626 200.725 341.241 200.975 347.496 201.677C350.433 202.172 353.422 202.288 356.388 202.02C357.872 201.875 359.305 201.403 360.584 200.637C361.863 199.871 362.955 198.83 363.783 197.59C365.826 203.221 365.343 210.226 360.99 214.297C357.745 217.308 353.034 218.166 348.604 218.057C344.173 217.948 339.805 217.027 335.391 217.043C329.993 217.043 321.273 224.578 320.149 217.152C319.276 211.364 323.987 205.702 328.932 203.377Z" fill="#263238"/>
<path d="M335.359 219.788C335.358 219.581 335.309 219.377 335.215 219.192C335.121 219.007 334.986 218.846 334.82 218.722C334.653 218.598 334.461 218.514 334.256 218.477C334.052 218.44 333.843 218.451 333.643 218.509L323.145 219.757C321.023 220.428 319.775 223.283 319.12 225.404C318.242 228.086 317.646 230.852 317.341 233.657C316.844 237.691 317.795 241.771 320.025 245.17C321.389 246.643 322.53 248.309 323.41 250.115C324.049 252.018 323.098 254.67 321.085 254.795C331.615 260.099 329.775 250.536 330.055 245.965C326.436 245.856 323.628 244.249 322.879 240.692C322.729 239.498 322.851 238.285 323.238 237.144C323.624 236.004 324.264 234.966 325.11 234.109C325.515 233.61 326.094 233.282 326.731 233.192C327.368 233.102 328.015 233.257 328.542 233.626C328.339 237.978 330.757 242.642 332.817 246.48L335.125 242.814C332.349 238.914 328.433 231.894 333.222 229.897C335.328 228.992 335.344 223.08 335.359 219.788Z" fill="#263238"/>
<path d="M357.355 242.252C357.083 244.535 356.952 246.833 356.965 249.132C356.638 249.132 356.295 249.257 355.967 249.288C351.474 249.912 349.165 248.383 347.964 246.496C347.386 245.541 347.004 244.48 346.841 243.376C346.729 242.737 346.687 242.089 346.716 241.441C349.321 242.845 353.565 242.674 355.811 242.455C356.763 242.362 357.355 242.252 357.355 242.252Z" fill="#2E353A"/>
<path d="M355.811 242.44L355.733 243.438C355.713 243.726 355.593 243.997 355.393 244.205C355.194 244.413 354.927 244.545 354.641 244.577C351.256 244.951 348.713 244.686 347.231 243.672C347.094 243.57 346.981 243.438 346.9 243.287C346.819 243.136 346.772 242.969 346.763 242.798C346.722 242.342 346.722 241.882 346.763 241.426C349.321 242.83 353.565 242.658 355.811 242.44Z" fill="white"/>
<path d="M355.92 249.288C351.427 249.912 349.118 248.383 347.917 246.496C349.646 246.301 351.397 246.482 353.05 247.026C354.227 247.448 355.234 248.242 355.92 249.288Z" fill="#DE5753"/>
<path d="M378.041 567.622L404.311 572.208L408.227 564.377L376.98 558.932L378.041 567.622Z" fill="#444C92"/>
<path opacity="0.6" d="M378.041 567.622L404.311 572.208L408.227 564.377L376.98 558.932L378.041 567.622Z" fill="white"/>
<path d="M289.152 574.47C289.87 573.534 290.494 572.614 290.79 572.146C290.86 572.052 290.922 571.952 290.977 571.849C290.977 571.849 290.977 571.849 290.977 571.756C291.016 571.655 291.016 571.544 290.977 571.444C290.943 571.397 290.899 571.36 290.847 571.336C290.795 571.311 290.738 571.3 290.681 571.303C290.63 571.29 290.576 571.29 290.525 571.303C290.26 571.303 289.948 571.444 289.62 571.553C287.576 572.146 284.94 573.113 284.191 574.564L284.051 574.72C283.919 575.071 283.878 575.45 283.933 575.821C283.988 576.192 284.135 576.543 284.363 576.841C284.487 577.038 284.66 577.201 284.865 577.313C285.07 577.425 285.3 577.482 285.533 577.481C286.562 577.45 288.013 575.936 289.152 574.47ZM285.439 576.748C285.336 576.738 285.236 576.703 285.149 576.646C285.062 576.589 284.99 576.511 284.94 576.42C284.788 576.224 284.688 575.992 284.649 575.746C284.611 575.501 284.636 575.249 284.722 575.016C285.127 574.064 286.952 572.988 289.792 572.317C288.512 574.314 286.578 576.763 285.439 576.748Z" fill="#444C92"/>
<path d="M292.085 578.152C292.787 576.498 291.804 573.69 291.258 572.317C291.149 572.068 291.086 571.896 291.024 571.771C291.024 571.646 290.93 571.568 290.915 571.568C290.903 571.507 290.873 571.449 290.829 571.405C290.784 571.36 290.727 571.33 290.665 571.319C290.614 571.306 290.56 571.306 290.509 571.319L290.353 571.444C290.353 571.584 290.213 571.724 290.15 571.88V572.036C289.772 572.818 289.485 573.639 289.292 574.486C288.778 575.944 288.806 577.539 289.37 578.978C289.563 579.218 289.829 579.389 290.127 579.465C290.425 579.541 290.74 579.518 291.024 579.4C291.277 579.276 291.502 579.101 291.685 578.887C291.867 578.672 292.004 578.422 292.085 578.152ZM290.665 578.604C290.197 578.776 290.01 578.604 289.901 578.479C289.199 577.559 289.729 574.361 290.572 572.567C291.164 574.018 292.007 576.529 291.445 577.871C291.433 577.906 291.433 577.945 291.445 577.98C291.368 578.134 291.258 578.269 291.123 578.377C290.989 578.485 290.832 578.562 290.665 578.604Z" fill="#444C92"/>
<path d="M287.561 572.13L314.034 569.026L315.563 560.399L284.051 564.096L287.561 572.13Z" fill="#444C92"/>
<path opacity="0.6" d="M287.561 572.13L314.034 569.026L315.563 560.399L284.051 564.096L287.561 572.13Z" fill="white"/>
<path d="M409.532 262.898C416.489 255.94 416.489 244.66 409.532 237.703C402.575 230.746 391.295 230.746 384.337 237.703C377.38 244.66 377.38 255.94 384.337 262.898C391.295 269.855 402.575 269.855 409.532 262.898Z" fill="#444C92"/>
<path opacity="0.6" d="M409.532 262.898C416.489 255.94 416.489 244.66 409.532 237.703C402.575 230.746 391.295 230.746 384.337 237.703C377.38 244.66 377.38 255.94 384.337 262.898C391.295 269.855 402.575 269.855 409.532 262.898Z" fill="white"/>
<path d="M396.932 269.74C393.1 269.74 389.354 268.603 386.168 266.474C382.982 264.345 380.498 261.319 379.032 257.779C377.566 254.239 377.182 250.343 377.929 246.584C378.677 242.826 380.522 239.374 383.232 236.664C385.942 233.954 389.394 232.109 393.152 231.361C396.911 230.614 400.807 230.998 404.347 232.464C407.887 233.931 410.913 236.414 413.042 239.6C415.171 242.786 416.308 246.532 416.308 250.364C416.303 255.502 414.261 260.428 410.628 264.06C406.995 267.693 402.07 269.735 396.932 269.74ZM396.932 234.109C393.717 234.109 390.575 235.063 387.901 236.849C385.228 238.635 383.145 241.174 381.914 244.144C380.684 247.114 380.362 250.382 380.989 253.536C381.617 256.689 383.165 259.585 385.438 261.859C387.711 264.132 390.608 265.68 393.761 266.307C396.914 266.934 400.183 266.613 403.153 265.382C406.123 264.152 408.662 262.068 410.448 259.395C412.234 256.722 413.188 253.579 413.188 250.364C413.183 246.055 411.469 241.922 408.422 238.875C405.374 235.827 401.242 234.113 396.932 234.109Z" fill="#263238"/>
<path d="M416.76 253.375C416.76 255.057 416.261 256.701 415.327 258.099C414.393 259.497 413.065 260.587 411.511 261.23C409.958 261.874 408.248 262.042 406.599 261.714C404.95 261.386 403.435 260.576 402.246 259.387C401.057 258.198 400.247 256.683 399.919 255.034C399.591 253.385 399.76 251.675 400.403 250.122C401.047 248.568 402.136 247.24 403.534 246.306C404.933 245.372 406.576 244.873 408.258 244.873C410.513 244.873 412.675 245.769 414.27 247.363C415.864 248.958 416.76 251.12 416.76 253.375Z" fill="#263238"/>
<path d="M408.273 282.516C406.714 282.518 405.179 282.136 403.802 281.404C402.426 280.672 401.25 279.613 400.38 278.32L402.938 276.541C403.521 277.416 404.312 278.133 405.241 278.626C406.17 279.119 407.206 279.373 408.258 279.365C409.31 279.377 410.347 279.123 411.275 278.627C412.202 278.13 412.989 277.408 413.562 276.526C413.676 276.355 413.822 276.208 413.992 276.093C414.163 275.979 414.354 275.899 414.556 275.858C414.757 275.818 414.964 275.817 415.166 275.857C415.367 275.896 415.559 275.975 415.73 276.089C415.901 276.203 416.048 276.349 416.163 276.519C416.277 276.69 416.357 276.881 416.398 277.083C416.438 277.284 416.439 277.491 416.399 277.693C416.36 277.894 416.281 278.086 416.167 278.257C415.297 279.557 414.12 280.622 412.741 281.359C411.361 282.097 409.822 282.483 408.258 282.485L408.273 282.516Z" fill="#263238"/>
<path d="M400.317 255.263L416.229 255.403L414.669 286.603L414.357 286.79C412.577 287.994 410.477 288.638 408.328 288.638C406.179 288.638 404.079 287.994 402.299 286.79L402.002 286.603L400.317 255.263Z" fill="#444C92"/>
<path opacity="0.5" d="M400.317 255.263L416.229 255.403L414.669 286.603L414.357 286.79C412.577 287.994 410.477 288.638 408.328 288.638C406.179 288.638 404.079 287.994 402.299 286.79L402.002 286.603L400.317 255.263Z" fill="black"/>
<path d="M416.791 253.453H399.803V256.121H416.791V253.453Z" fill="#444C92"/>
<path d="M416.791 253.453H399.803V256.121H416.791V253.453Z" fill="#444C92"/>
<path d="M416.791 253.453H399.803V256.121H416.791V253.453Z" fill="#444C92"/>
<g opacity="0.8">
<path opacity="0.2" d="M416.791 253.453H399.803V256.121H416.791V253.453Z" fill="white"/>
</g>
<path d="M410.941 266.198C410.528 266.731 409.965 267.129 409.325 267.34C408.684 267.551 407.995 267.566 407.347 267.382C406.698 267.199 406.118 266.827 405.682 266.312C405.247 265.798 404.974 265.165 404.901 264.495C404.827 263.824 404.955 263.147 405.269 262.55C405.582 261.953 406.067 261.464 406.66 261.144C407.254 260.824 407.93 260.689 408.6 260.756C409.271 260.823 409.907 261.088 410.426 261.518C411.103 262.079 411.534 262.881 411.63 263.754C411.727 264.628 411.479 265.504 410.941 266.198Z" fill="#444C92"/>
<path opacity="0.6" d="M411.44 262.782C411.714 263.466 411.761 264.22 411.573 264.933C411.385 265.646 410.973 266.279 410.397 266.739C409.822 267.199 409.113 267.462 408.377 267.488C407.64 267.514 406.915 267.303 406.308 266.885C405.984 266.686 405.711 266.413 405.512 266.089C405.088 265.482 404.87 264.755 404.894 264.014C404.917 263.274 405.178 262.561 405.64 261.982C406.102 261.403 406.738 260.989 407.455 260.801C408.171 260.613 408.929 260.663 409.615 260.941C410.034 261.099 410.413 261.345 410.728 261.663C411.043 261.981 411.286 262.362 411.44 262.782Z" fill="white"/>
<path d="M409.756 262.486C409.759 262.631 409.718 262.775 409.64 262.897C409.561 263.02 409.448 263.116 409.314 263.174C409.18 263.232 409.032 263.249 408.889 263.222C408.746 263.196 408.614 263.127 408.51 263.025C408.406 262.923 408.334 262.793 408.305 262.65C408.275 262.507 408.289 262.359 408.344 262.224C408.399 262.089 408.493 261.974 408.613 261.893C408.734 261.811 408.877 261.768 409.022 261.768C409.214 261.768 409.398 261.843 409.535 261.977C409.672 262.111 409.751 262.294 409.756 262.486Z" fill="#444C92"/>
<path d="M407.883 303.186H405.84C404.285 303.191 402.748 302.849 401.342 302.185C399.936 301.522 398.696 300.552 397.712 299.348C396.177 297.467 395.334 295.116 395.325 292.687V268.117H398.445V292.687C398.452 294.394 399.047 296.047 400.13 297.367C400.821 298.214 401.692 298.896 402.68 299.363C403.667 299.83 404.747 300.07 405.84 300.066H407.837L407.883 303.186Z" fill="#263238"/>
<path d="M392.783 623.204C392.574 623.206 392.366 623.165 392.174 623.084C391.981 623.004 391.806 622.886 391.659 622.736C391.369 622.444 391.206 622.049 391.206 621.637C391.206 621.224 391.369 620.829 391.659 620.537L406.667 606.029V288.6C406.667 288.186 406.831 287.789 407.124 287.497C407.416 287.204 407.813 287.04 408.227 287.04C408.64 287.04 409.037 287.204 409.33 287.497C409.622 287.789 409.787 288.186 409.787 288.6V606.684C409.788 606.893 409.747 607.1 409.667 607.293C409.586 607.486 409.468 607.661 409.319 607.807L393.828 622.768C393.546 623.039 393.173 623.195 392.783 623.204Z" fill="#263238"/>
<path d="M422.142 623.204C421.926 623.206 421.711 623.162 421.512 623.076C421.314 622.99 421.135 622.864 420.988 622.705L409.834 610.662V620.474C409.834 620.888 409.669 621.285 409.377 621.578C409.084 621.87 408.687 622.034 408.274 622.034C407.86 622.034 407.463 621.87 407.171 621.578C406.878 621.285 406.714 620.888 406.714 620.474V606.684C406.715 606.372 406.81 606.067 406.986 605.809C407.162 605.551 407.412 605.352 407.703 605.238C407.994 605.123 408.312 605.099 408.617 605.168C408.922 605.236 409.199 605.395 409.412 605.623L423.281 620.584C423.422 620.734 423.532 620.91 423.605 621.103C423.677 621.296 423.711 621.502 423.704 621.707C423.696 621.913 423.648 622.116 423.562 622.303C423.476 622.491 423.354 622.659 423.203 622.799C422.913 623.063 422.534 623.207 422.142 623.204Z" fill="#263238"/>
<path d="M517.957 176.888C517.96 178.253 517.559 179.587 516.803 180.723C516.047 181.859 514.971 182.746 513.712 183.27C512.452 183.794 511.065 183.933 509.727 183.669C508.388 183.404 507.158 182.749 506.192 181.785C505.226 180.821 504.568 179.593 504.301 178.255C504.033 176.917 504.169 175.53 504.69 174.269C505.212 173.008 506.096 171.93 507.23 171.172C508.364 170.414 509.698 170.009 511.062 170.009C512.888 170.009 514.64 170.733 515.932 172.023C517.225 173.313 517.953 175.062 517.957 176.888Z" fill="#444C92"/>
<path d="M127.162 192.176H124.822V158.652H158.331V160.992H127.162V192.176Z" fill="#444C92"/>
<path d="M158.331 397.972H124.822V364.463H127.162V395.632H158.331V397.972Z" fill="#444C92"/>
<path d="M565.725 192.176H563.385V160.992H532.2V158.652H565.725V192.176Z" fill="#444C92"/>
<path d="M565.725 397.972H532.2V395.632H563.385V364.463H565.725V397.972Z" fill="#444C92"/>
<path d="M114.853 148.418V408.361H575.147V148.418H114.853ZM572.76 406.021H117.24V150.758H572.76V406.021Z" fill="#444C92"/>
<path opacity="0.5" d="M114.853 148.418V408.361H575.147V148.418H114.853ZM572.76 406.021H117.24V150.758H572.76V406.021Z" fill="white"/>
<path d="M528.487 179.821H527.068V184.08H524.073V170.992H529.314C529.905 170.99 530.49 171.104 531.036 171.329C531.582 171.554 532.078 171.885 532.496 172.303C532.913 172.721 533.244 173.217 533.469 173.763C533.694 174.309 533.809 174.894 533.807 175.484C533.792 176.278 533.559 177.052 533.132 177.721C532.705 178.389 532.102 178.927 531.389 179.275L534.181 184.08H530.952L528.487 179.821ZM527.068 177.2H529.314C529.721 177.145 530.095 176.944 530.365 176.634C530.636 176.324 530.785 175.927 530.785 175.516C530.785 175.104 530.636 174.707 530.365 174.397C530.095 174.088 529.721 173.886 529.314 173.831H527.068V177.2Z" fill="#263238"/>
<path d="M544.009 181.241V184.08H535.772V170.992H543.916V173.878H538.768V176.046H543.448V178.885H538.768V181.21L544.009 181.241Z" fill="#263238"/>
<path d="M545.226 177.575C545.202 176.673 545.363 175.776 545.697 174.938C546.031 174.101 546.532 173.34 547.17 172.702C547.808 172.064 548.569 171.563 549.407 171.228C550.244 170.894 551.141 170.734 552.043 170.758C553.157 170.743 554.257 171.013 555.237 171.543C556.217 172.073 557.045 172.844 557.644 173.784L555.07 175.344C554.747 174.841 554.297 174.432 553.766 174.158C553.234 173.884 552.64 173.755 552.043 173.784C551.009 173.784 550.017 174.195 549.285 174.926C548.554 175.658 548.143 176.65 548.143 177.684C548.143 178.718 548.554 179.71 549.285 180.442C550.017 181.173 551.009 181.584 552.043 181.584C552.641 181.618 553.237 181.491 553.769 181.217C554.301 180.942 554.75 180.53 555.07 180.024L557.644 181.584C557.051 182.529 556.224 183.305 555.242 183.835C554.261 184.365 553.159 184.633 552.043 184.61C551.122 184.638 550.205 184.473 549.35 184.127C548.496 183.78 547.723 183.259 547.082 182.597C546.44 181.935 545.944 181.146 545.624 180.282C545.305 179.417 545.169 178.495 545.226 177.575Z" fill="#263238"/>
</g>
<defs>
<clipPath id="clip0_44_1174">
<rect width="780" height="780" fill="white" transform="translate(-45)"/>
</clipPath>
</defs>
</svg>
