<svg width="70" height="70" viewBox="0 0 70 70" fill="none" xmlns="http://www.w3.org/2000/svg">
<path d="M35 70C54.2987 70 70 54.2987 70 35C70 15.7013 54.2987 0 35 0C15.7013 0 0 15.7013 0 35C0 54.2987 15.7013 70 35 70ZM35 4.375C51.8869 4.375 65.625 18.1131 65.625 35C65.625 51.8869 51.8869 65.625 35 65.625C18.1131 65.625 4.375 51.8869 4.375 35C4.375 18.1131 18.1131 4.375 35 4.375Z" fill="#1C0E44"/>
<path d="M23.6479 17.3484V51.4618L55.5482 34.4061L23.6479 17.3484ZM28.0229 24.6501L46.2685 34.4062L28.0229 44.1602V24.6501Z" fill="#1C0E44"/>
</svg>
