<svg width="64" height="64" viewBox="0 0 64 64" fill="none" xmlns="http://www.w3.org/2000/svg">
<path d="M32 64C49.6445 64 64 49.6445 64 32C64 14.3555 49.6445 0 32 0C14.3555 0 0 14.3555 0 32C0 49.6445 14.3555 64 32 64ZM32 4C47.4394 4 60 16.5606 60 32C60 47.4394 47.4394 60 32 60C16.5606 60 4 47.4394 4 32C4 16.5606 16.5606 4 32 4Z" fill="#232B2B"/>
<path d="M20.9754 39.34C23.98 42.0023 27.1046 44.607 30.2623 47.0831C30.5623 47.3185 30.8346 47.5254 31.1323 47.6777C31.3084 47.7677 31.5 47.8123 31.6923 47.8123C31.8846 47.8123 32.0761 47.7677 32.2523 47.6777C32.55 47.5254 32.8223 47.3185 33.1223 47.0831C36.28 44.6077 39.4046 42.0023 42.41 39.34C44.7254 37.2885 46.91 35.2177 48.1915 32.4423C49.1546 30.3577 49.4823 27.997 49.1392 25.617C48.7961 23.237 47.8154 21.0654 46.3031 19.337C44.2792 17.0239 41.49 15.6531 38.6492 15.5754C36.5807 15.52 34.4746 16.2147 32.8715 17.4823C32.5346 17.7485 32.2569 18.0985 31.9877 18.437C31.9061 18.54 31.7961 18.6777 31.6923 18.8C31.5877 18.6785 31.4784 18.54 31.3969 18.437C31.1284 18.0985 30.8507 17.7485 30.5138 17.4823C28.91 16.2147 26.8046 15.5193 24.7354 15.5754C21.8946 15.6523 19.1054 17.0239 17.0815 19.3362C15.5692 21.0647 14.5884 23.2362 14.2454 25.6162C13.9023 27.9962 14.23 30.3562 15.1931 32.4416C16.4754 35.2177 18.66 37.2885 20.9754 39.34ZM18.9338 20.9577C20.4838 19.1862 22.6769 18.0939 24.8015 18.0362C24.8577 18.0347 24.9146 18.0339 24.9715 18.0339C26.4169 18.0339 27.8723 18.5323 28.9869 19.4139C29.0992 19.5031 29.3038 19.76 29.4684 19.9677C29.8907 20.4993 30.3684 21.1023 31.0631 21.3562C31.2238 21.4147 31.3915 21.4539 31.5615 21.4716C31.6484 21.4808 31.7361 21.4808 31.8223 21.4716C31.9923 21.4531 32.16 21.4147 32.3223 21.3554C33.0154 21.1016 33.4938 20.4993 33.9154 19.967C34.08 19.76 34.2838 19.5023 34.3969 19.4131C35.5554 18.497 37.0807 17.9954 38.5815 18.0362C40.7061 18.0939 42.9 19.1862 44.45 20.9577C46.8907 23.747 47.51 28.0447 45.9554 31.41C44.8731 33.7531 42.8877 35.627 40.7761 37.4977C37.8361 40.1023 34.7807 42.6516 31.6915 45.0762C28.6023 42.6516 25.5461 40.1023 22.6069 37.4977C20.4954 35.627 18.51 33.7531 17.4277 31.41C15.8738 28.0447 16.4931 23.747 18.9338 20.9577Z" fill="#232B2B" stroke="#232B2B" stroke-width="1.28"/>
</svg>
