<svg width="475" height="95" viewBox="0 0 475 95" fill="none" xmlns="http://www.w3.org/2000/svg">
<mask id="path-1-inside-1_144_1053" fill="white">
<path fill-rule="evenodd" clip-rule="evenodd" d="M0 20C0 8.9543 8.95431 0 20 0H62C70.2013 0 77.2496 4.93638 80.3358 12H445C461.569 12 475 25.4315 475 42V65C475 81.5685 461.569 95 445 95H54C37.4315 95 24 81.5685 24 65V60H20C8.95431 60 0 51.0457 0 40V20Z"/>
</mask>
<path fill-rule="evenodd" clip-rule="evenodd" d="M0 20C0 8.9543 8.95431 0 20 0H62C70.2013 0 77.2496 4.93638 80.3358 12H445C461.569 12 475 25.4315 475 42V65C475 81.5685 461.569 95 445 95H54C37.4315 95 24 81.5685 24 65V60H20C8.95431 60 0 51.0457 0 40V20Z" fill="white"/>
<path d="M80.3358 12L78.5031 12.8007L79.0271 14H80.3358V12ZM24 60H26V58H24V60ZM20 -2C7.84974 -2 -2 7.84973 -2 20H2C2 10.0589 10.0589 2 20 2V-2ZM62 -2H20V2H62V-2ZM82.1685 11.1993C78.7755 3.43346 71.0245 -2 62 -2V2C69.378 2 75.7237 6.4393 78.5031 12.8007L82.1685 11.1993ZM80.3358 14H445V10H80.3358V14ZM445 14C460.464 14 473 26.536 473 42H477C477 24.3269 462.673 10 445 10V14ZM473 42V65H477V42H473ZM473 65C473 80.464 460.464 93 445 93V97C462.673 97 477 82.6731 477 65H473ZM445 93H54V97H445V93ZM54 93C38.536 93 26 80.464 26 65H22C22 82.6731 36.3269 97 54 97V93ZM26 65V60H22V65H26ZM20 62H24V58H20V62ZM-2 40C-2 52.1503 7.84974 62 20 62V58C10.0589 58 2 49.9411 2 40H-2ZM-2 20V40H2V20H-2Z" fill="#868393" mask="url(#path-1-inside-1_144_1053)"/>
</svg>
