<svg width="24" height="30" viewBox="0 0 24 30" fill="none" xmlns="http://www.w3.org/2000/svg">
<path d="M22.2539 10.6172L20.707 9.14062L18.1406 11.625C17.7188 12.0352 17.0625 12.1172 16.5469 11.8008L14.1094 10.3359L10.9453 15.9023L13.6289 20.6484C13.7695 20.8945 13.8399 21.1758 13.8399 21.4687V28.1133C13.8399 29.0508 13.0547 29.8125 12.1055 29.7656C11.2149 29.7187 10.5234 28.957 10.5234 28.0664V21.9023L7.9336 17.3203V21.4687C7.9336 21.668 7.89844 21.8555 7.82813 22.043L5.39063 28.6875C5.14454 29.3555 4.51172 29.7773 3.83204 29.7773C3.64454 29.7773 3.44532 29.7422 3.25782 29.6719C2.40235 29.3555 1.95704 28.4063 2.27344 27.5508L4.61719 21.1758V15.4219C4.61719 14.7188 4.81641 14.0273 5.19141 13.4297L7.50001 9.79687L2.91797 12.6094C2.70704 12.7383 2.47266 12.8086 2.23829 12.8086C1.79297 12.8086 1.3711 12.5859 1.11329 12.1875C0.738286 11.543 0.925786 10.7344 1.54688 10.3477L8.74219 5.94141C9.71485 5.34375 10.9219 5.34375 11.8945 5.92969L17.0391 9.03516L18.7969 7.33594L18.1992 6.77344C17.8359 6.85547 17.4375 6.75 17.1445 6.48047C16.6758 6.03516 16.6524 5.29687 17.0977 4.81641C17.543 4.34766 18.2813 4.32422 18.7617 4.76953C19.0899 5.08594 19.1953 5.54297 19.0781 5.95312L19.6524 6.50391L19.8281 6.33984C20.3555 5.83594 21.1992 5.84766 21.7031 6.38672C22.1953 6.91406 22.1367 7.75781 21.6211 8.25L21.5625 8.30859L23.0742 9.73828L22.2539 10.6172ZM18.1875 3.53906L21.8789 3.26953L21.832 2.57812L18.1406 2.84766L18.1875 3.53906ZM17.9414 1.95703L20.8594 0.878906L20.625 0.234375L17.707 1.3125L17.9414 1.95703ZM16.5938 3.41016C16.5938 4.78125 15.4805 5.89453 14.1094 5.89453C12.7383 5.89453 11.625 4.78125 11.625 3.41016C11.625 2.03906 12.7383 0.925781 14.1094 0.925781C15.4805 0.925781 16.5938 2.03906 16.5938 3.41016Z" fill="#868393"/>
</svg>
