<svg width="289" height="87" viewBox="0 0 289 87" fill="none" xmlns="http://www.w3.org/2000/svg">
<path d="M23.7073 27.7077L0.0113063 1.47737L2.10213 71.4249C19.0293 87.8237 278.788 86.2215 278.788 86.2215C279.165 85.6632 287.76 84.3866 286.5 83.5C268.91 71.1276 91.7327 29.8052 23.7073 27.7077Z" fill="#190C40"/>
<path d="M0.0113063 1.47737L23.7073 27.7077C91.7327 29.8052 268.91 71.1276 286.5 83.5C291.232 78.4303 284.345 61.2497 277 62.5C269.655 63.7503 247.032 63.9293 239.5 63.9842C234.444 64.021 232.832 62.3999 225.501 59.2029C218.171 56.006 197.608 54.2583 166.58 41.5164C135.552 28.7745 35.3009 16.2046 23.7074 18.649C17.3214 16.7774 -0.512709 -5.92092 0.0113063 1.47737Z" fill="#8F8EEB"/>
</svg>
