<svg width="125" height="129" viewBox="0 0 125 129" fill="none" xmlns="http://www.w3.org/2000/svg">
<path d="M22.9459 55C15.4201 53.1793 12.0315 50.9282 6.94591 45.5C0.934291 37.0514 -0.0712879 31.2057 1.94591 19C6.32182 9.01767 10.0793 4.60974 21.4459 1H99.4459M22.9459 55H44.4459C51.2676 55.435 53.1719 56.7686 55.9459 59.5M22.9459 55C25.0651 57.2056 26.8689 58.1012 30.4459 59.5H55.9459M99.4459 1C111.064 5.59338 115.832 8.72397 117.446 16.5C119.554 25.1574 119.747 29.7054 117.446 37C113.673 45.0751 109.957 48.6249 100.946 53.5L71.9459 55C68.3999 56.2615 67.5292 57.7273 66.9459 61V67L71.9459 72.5M99.4459 1C116.975 8.86143 120.32 13.8784 124.446 23V39C122.185 48.1241 118.203 52.1829 107.446 58L78.4459 59.5C74.4208 59.4875 72.8651 60.4067 71.9459 64.5V72.5M71.9459 72.5L83.4459 81M83.4459 81C89.3926 85.4827 91.1506 88.5069 92.4459 94.5C93.7531 100.198 93.6459 103.621 92.4459 110C89.6323 118.093 86.7799 121.932 78.4459 127C74.9949 127.74 72.6809 127.927 66.4459 127M83.4459 81L88.4459 94.5C88.4893 100.37 87.8414 103.782 85.9459 110C83.2942 117.967 81.5577 120.279 66.4459 127M55.9459 59.5V67C55.5428 70.4237 53.7294 71.9384 49.9459 74.5C40.1071 80.4347 35.89 90.1491 35.4459 91.5C35.0018 92.8509 32.9762 101.107 35.4459 110C39.5467 118.819 44.1341 122.261 54.4459 127C54.4459 127 63.4459 128.5 66.4459 127" stroke="#868393"/>
</svg>
