<svg width="202" height="61" viewBox="0 0 202 61" fill="none" xmlns="http://www.w3.org/2000/svg">
<path d="M188.94 11.6187C185.308 5.83696 181.67 3.70718 173.44 1.11875L89.9398 2.11875C86.9043 2.31501 85.4769 2.7479 83.4398 4.11875C80.0177 5.46379 78.2487 6.72393 75.4398 10.1187L71.4398 17.6188C69.8674 20.7867 68.677 22.2194 65.9398 24.1188C64.9664 24.8064 63.4357 24.9508 61.9398 24.8738M188.94 11.6187C196.263 22.2013 196.529 28.1069 193.94 38.6188C189.259 48.4012 184.983 51.5384 175.94 55.1188L87 56.5M188.94 11.6187C194.216 14.6353 196.541 17.5324 199.44 25.1188C200.141 30.3909 200.425 33.3466 199.44 38.6188C197.296 50.1585 192.846 54.2791 181.44 59.1188H93.9398C90.521 58.2993 86.5094 57.9559 87 56.5M87 56.5C75.0873 51.1736 73.4391 46.4427 68.4398 36.6188M68.4398 36.6188C66.6465 35.4773 65.5412 35.5555 63.4398 36.6188C58.5525 48.1777 54.3647 53.4469 42.4398 59.1188C36.3481 59.8329 32.858 59.7925 26.4398 58.6188C24.4179 57.7415 22.5968 56.8869 20.9398 56.0305M68.4398 36.6188L65.4398 31.1188C62.4258 29.5273 60.786 29.6853 57.9398 31.6188L52.9398 41.1188C49.33 47.6137 46.5694 50.9184 37.9398 55.1188C36.3611 56.2356 34.3722 56.5866 28.4398 56.6188C26.1833 56.6574 24.3295 56.4441 20.9398 56.0305M46.1642 7.11877C43.4973 4.87672 40.0576 3.38136 34.4398 2.11875C27.0474 0.15899 22.5251 0.742376 13.9398 4.11875C6.1474 9.70336 3.32038 13.6002 1.43977 22.1188C0.625455 29.1618 0.842146 32.822 2.93977 38.6188C7.99152 46.9098 12.1677 51.4965 20.9398 56.0305M46.1642 7.11877C48.1591 8.79591 49.7215 10.8909 51.4398 13.6187C53.3638 18.5259 55.2115 22.4033 57.4398 24.1188C57.4398 24.1188 59.6489 24.7559 61.9398 24.8738M46.1642 7.11877C49.3933 8.69437 51.2176 9.55077 53.9398 12.1188C58.2043 16.7446 59.9197 19.5492 61.9398 24.8738" stroke="#868393" stroke-width="2"/>
</svg>
